0
SECTION
2
HEADER
9
$ACADVER
1
AC1009
9
$INSUNITS
70
4
9
$MEASUREMENT
70
1
9
$LUNITS
70
2
9
$LUPREC
70
1
9
$TILEMODE
70
1
9
$EXTMIN
10
-3060.375
20
-1141.721273
30
0
9
$EXTMAX
10
3060.375
20
1141.721273
30
0
9
$PEXTMIN
10
-3060.375
20
-1141.721273
30
0
9
$PEXTMAX
10
3060.375
20
1141.721273
30
0
9
$LIMMIN
10
-3560.375
20
-1641.721273
9
$LIMMAX
10
3560.375
20
1641.721273
9
$PLIMMIN
10
-3560.375
20
-1641.721273
9
$PLIMMAX
10
3560.375
20
1641.721273
0
ENDSEC
0
SECTION
2
TABLES
0
TABLE
2
VPORT
70
1
0
VPORT
2
*ACTIVE
70
0
10
0
20
0
11
1
21
1
12
0
22
0
40
3283.442545
41
2.168684
42
50
43
0
44
0
50
0
51
0
71
0
72
100
73
1
74
3
75
0
76
0
77
0
78
0
0
ENDTAB
0
TABLE
2
LTYPE
70
2
0
LTYPE
2
CONTINUOUS
70
0
3
Solid line
72
65
73
0
40
0
0
LTYPE
2
DASHED
70
0
3
Dashed
72
65
73
2
40
240
49
120
74
0
49
-120
74
0
0
ENDTAB
0
TABLE
2
LAYER
70
6
0
LAYER
2
PIPES
70
0
62
5
6
CONTINUOUS
0
LAYER
2
PIPE_ENDS
70
0
62
5
6
CONTINUOUS
0
LAYER
2
DIMENSION
70
0
62
1
6
CONTINUOUS
0
LAYER
2
LEVEL_GUIDE
70
0
62
1
6
DASHED
0
LAYER
2
LEVEL_TEXT
70
0
62
1
6
CONTINUOUS
0
LAYER
2
FRAME
70
0
62
5
6
CONTINUOUS
0
ENDTAB
0
TABLE
2
STYLE
70
1
0
STYLE
2
STANDARD
70
0
40
0
41
1
50
0
71
0
42
100
3
txt
4

0
ENDTAB
0
ENDSEC
0
SECTION
2
BLOCKS
0
BLOCK
8
0
2
$MODEL_SPACE
70
0
10
0
20
0
30
0
3
$MODEL_SPACE
0
ENDBLK
8
0
0
BLOCK
67
1
8
0
2
$PAPER_SPACE
70
0
10
0
20
0
30
0
3
$PAPER_SPACE
0
ENDBLK
67
1
8
0
0
ENDSEC
0
SECTION
2
ENTITIES
0
LINE
8
PIPES
10
-480.375
20
78.279727
30
0
11
419.627
21
78.279727
31
0
0
LINE
8
PIPES
10
419.627
20
78.279727
30
0
11
1319.625
21
78.279727
31
0
0
LINE
8
PIPES
10
-480.375
20
78.279727
30
0
11
-480.375
21
-221.721273
31
0
0
LINE
8
PIPES
10
1319.625
20
78.279727
30
0
11
1319.625
21
-221.721273
31
0
0
LINE
8
PIPES
10
-480.375
20
78.279727
30
0
11
-480.375
21
578.280727
31
0
0
LINE
8
PIPES
10
1319.625
20
78.279727
30
0
11
1319.625
21
578.280727
31
0
0
LINE
8
PIPES
10
419.627
20
78.279727
30
0
11
419.627
21
578.280727
31
0
0
LINE
8
PIPES
10
419.627
20
578.280727
30
0
11
-480.375
21
578.280727
31
0
0
LINE
8
PIPES
10
419.627
20
578.280727
30
0
11
1319.625
21
578.280727
31
0
0
LINE
8
PIPES
10
-480.375
20
578.280727
30
0
11
-480.375
21
1078.279727
31
0
0
LINE
8
PIPES
10
1319.625
20
578.280727
30
0
11
1319.625
21
1078.279727
31
0
0
LINE
8
PIPES
10
419.627
20
578.280727
30
0
11
419.627
21
1078.279727
31
0
0
LINE
8
PIPES
10
419.627
20
1078.279727
30
0
11
-480.375
21
1078.279727
31
0
0
LINE
8
PIPES
10
419.627
20
1078.279727
30
0
11
1319.625
21
1078.279727
31
0
0
LINE
8
PIPES
10
-480.375
20
578.280727
30
0
11
-2880.375
21
578.280727
31
0
0
LINE
8
PIPES
10
-480.375
20
1078.279727
30
0
11
-2880.375
21
1078.279727
31
0
0
LINE
8
PIPES
10
-2880.375
20
1078.279727
30
0
11
-2880.375
21
578.280727
31
0
0
LINE
8
PIPES
10
-480.375
20
1078.279727
30
0
11
1319.625
21
78.279727
31
0
0
LINE
8
PIPES
10
419.627
20
1078.279727
30
0
11
-480.375
21
78.279727
31
0
0
LINE
8
PIPES
10
-480.375
20
1078.279727
30
0
11
-480.375
21
78.279727
31
0
0
LINE
8
PIPES
10
1319.625
20
1078.279727
30
0
11
1319.625
21
78.279727
31
0
0
LINE
8
PIPES
10
-2880.375
20
1078.279727
30
0
11
-480.375
21
578.280727
31
0
0
LINE
8
PIPES
10
-2880.375
20
578.280727
30
0
11
-480.375
21
1078.279727
31
0
0
CIRCLE
8
PIPE_ENDS
10
-480.375
20
78.279727
30
0
40
32
0
CIRCLE
8
PIPE_ENDS
10
1319.625
20
78.279727
30
0
40
32
0
CIRCLE
8
PIPE_ENDS
10
419.625
20
78.279727
30
0
40
32
0
CIRCLE
8
PIPE_ENDS
10
-480.375
20
578.279727
30
0
40
32
0
CIRCLE
8
PIPE_ENDS
10
1319.625
20
578.279727
30
0
40
32
0
CIRCLE
8
PIPE_ENDS
10
-480.375
20
1078.279727
30
0
40
32
0
CIRCLE
8
PIPE_ENDS
10
1319.625
20
1078.279727
30
0
40
32
0
CIRCLE
8
PIPE_ENDS
10
-480.375
20
-221.720273
30
0
40
32
0
CIRCLE
8
PIPE_ENDS
10
1319.625
20
-221.720273
30
0
40
32
0
CIRCLE
8
PIPE_ENDS
10
-2880.375
20
1078.279727
30
0
40
25
0
CIRCLE
8
PIPE_ENDS
10
-2880.375
20
578.279727
30
0
40
25
0
LINE
8
LEVEL_GUIDE
6
DASHED
10
-3060.375
20
-221.720273
30
0
11
1499.625
21
-221.720273
31
0
0
LINE
8
LEVEL_GUIDE
6
DASHED
10
-3060.375
20
78.279727
30
0
11
1499.625
21
78.279727
31
0
0
LINE
8
LEVEL_GUIDE
6
DASHED
10
-3060.375
20
578.279727
30
0
11
1499.625
21
578.279727
31
0
0
LINE
8
LEVEL_GUIDE
6
DASHED
10
-3060.375
20
1078.279727
30
0
11
1499.625
21
1078.279727
31
0
0
LINE
8
DIMENSION
10
-2880.375
20
-281.721273
30
0
11
-2880.375
21
-601.721273
31
0
0
LINE
8
DIMENSION
10
-480.375
20
-281.721273
30
0
11
-480.375
21
-601.721273
31
0
0
LINE
8
DIMENSION
10
-2880.375
20
-601.721273
30
0
11
-480.375
21
-601.721273
31
0
0
LINE
8
DIMENSION
10
-2880.375
20
-601.721273
30
0
11
-2943.816545
21
-572.137994
31
0
0
LINE
8
DIMENSION
10
-2880.375
20
-601.721273
30
0
11
-2943.816545
21
-631.304551
31
0
0
LINE
8
DIMENSION
10
-480.375
20
-601.721273
30
0
11
-416.933455
21
-631.304551
31
0
0
LINE
8
DIMENSION
10
-480.375
20
-601.721273
30
0
11
-416.933455
21
-572.137994
31
0
0
TEXT
8
DIMENSION
10
-1680.375
20
-771.721273
30
0
40
85
1
2.4
50
0
7
STANDARD
72
1
73
2
11
-1680.375
21
-771.721273
31
0
0
LINE
8
DIMENSION
10
-480.375
20
-281.721273
30
0
11
-480.375
21
-601.721273
31
0
0
LINE
8
DIMENSION
10
419.625
20
-281.721273
30
0
11
419.625
21
-601.721273
31
0
0
LINE
8
DIMENSION
10
-480.375
20
-601.721273
30
0
11
419.625
21
-601.721273
31
0
0
LINE
8
DIMENSION
10
-480.375
20
-601.721273
30
0
11
-543.816545
21
-572.137994
31
0
0
LINE
8
DIMENSION
10
-480.375
20
-601.721273
30
0
11
-543.816545
21
-631.304551
31
0
0
LINE
8
DIMENSION
10
419.625
20
-601.721273
30
0
11
483.066545
21
-631.304551
31
0
0
LINE
8
DIMENSION
10
419.625
20
-601.721273
30
0
11
483.066545
21
-572.137994
31
0
0
TEXT
8
DIMENSION
10
-30.375
20
-771.721273
30
0
40
85
1
0.9
50
0
7
STANDARD
72
1
73
2
11
-30.375
21
-771.721273
31
0
0
LINE
8
DIMENSION
10
419.625
20
-281.721273
30
0
11
419.625
21
-601.721273
31
0
0
LINE
8
DIMENSION
10
1319.625
20
-281.721273
30
0
11
1319.625
21
-601.721273
31
0
0
LINE
8
DIMENSION
10
419.625
20
-601.721273
30
0
11
1319.625
21
-601.721273
31
0
0
LINE
8
DIMENSION
10
419.625
20
-601.721273
30
0
11
356.183455
21
-572.137994
31
0
0
LINE
8
DIMENSION
10
419.625
20
-601.721273
30
0
11
356.183455
21
-631.304551
31
0
0
LINE
8
DIMENSION
10
1319.625
20
-601.721273
30
0
11
1383.066545
21
-631.304551
31
0
0
LINE
8
DIMENSION
10
1319.625
20
-601.721273
30
0
11
1383.066545
21
-572.137994
31
0
0
TEXT
8
DIMENSION
10
869.625
20
-771.721273
30
0
40
85
1
0.9
50
0
7
STANDARD
72
1
73
2
11
869.625
21
-771.721273
31
0
0
LINE
8
DIMENSION
10
-2880.375
20
-281.721273
30
0
11
-2880.375
21
-971.721273
31
0
0
LINE
8
DIMENSION
10
1319.625
20
-281.721273
30
0
11
1319.625
21
-971.721273
31
0
0
LINE
8
DIMENSION
10
-2880.375
20
-971.721273
30
0
11
1319.625
21
-971.721273
31
0
0
LINE
8
DIMENSION
10
-2880.375
20
-971.721273
30
0
11
-2943.816545
21
-942.137994
31
0
0
LINE
8
DIMENSION
10
-2880.375
20
-971.721273
30
0
11
-2943.816545
21
-1001.304551
31
0
0
LINE
8
DIMENSION
10
1319.625
20
-971.721273
30
0
11
1383.066545
21
-1001.304551
31
0
0
LINE
8
DIMENSION
10
1319.625
20
-971.721273
30
0
11
1383.066545
21
-942.137994
31
0
0
TEXT
8
DIMENSION
10
-780.375
20
-1141.721273
30
0
40
85
1
TOTAL 4.2
50
0
7
STANDARD
72
1
73
2
11
-780.375
21
-1141.721273
31
0
0
LINE
8
DIMENSION
10
1379.625
20
-221.720273
30
0
11
2019.625
21
-221.720273
31
0
0
LINE
8
DIMENSION
10
1379.625
20
78.279727
30
0
11
2019.625
21
78.279727
31
0
0
LINE
8
DIMENSION
10
2019.625
20
-221.720273
30
0
11
2019.625
21
78.279727
31
0
0
LINE
8
DIMENSION
10
2019.625
20
-221.720273
30
0
11
1990.041722
21
-285.161818
31
0
0
LINE
8
DIMENSION
10
2019.625
20
-221.720273
30
0
11
2049.208278
21
-285.161818
31
0
0
LINE
8
DIMENSION
10
2019.625
20
78.279727
30
0
11
2049.208278
21
141.721273
31
0
0
LINE
8
DIMENSION
10
2019.625
20
78.279727
30
0
11
1990.041722
21
141.721273
31
0
0
TEXT
8
DIMENSION
10
2189.625
20
-71.720273
30
0
40
85
1
0.3
50
90
7
STANDARD
72
1
73
2
11
2189.625
21
-71.720273
31
0
0
LINE
8
DIMENSION
10
1379.625
20
78.279727
30
0
11
2019.625
21
78.279727
31
0
0
LINE
8
DIMENSION
10
1379.625
20
578.279727
30
0
11
2019.625
21
578.279727
31
0
0
LINE
8
DIMENSION
10
2019.625
20
78.279727
30
0
11
2019.625
21
578.279727
31
0
0
LINE
8
DIMENSION
10
2019.625
20
78.279727
30
0
11
1990.041722
21
14.838182
31
0
0
LINE
8
DIMENSION
10
2019.625
20
78.279727
30
0
11
2049.208278
21
14.838182
31
0
0
LINE
8
DIMENSION
10
2019.625
20
578.279727
30
0
11
2049.208278
21
641.721273
31
0
0
LINE
8
DIMENSION
10
2019.625
20
578.279727
30
0
11
1990.041722
21
641.721273
31
0
0
TEXT
8
DIMENSION
10
2189.625
20
328.279727
30
0
40
85
1
0.5
50
90
7
STANDARD
72
1
73
2
11
2189.625
21
328.279727
31
0
0
LINE
8
DIMENSION
10
1379.625
20
578.279727
30
0
11
2019.625
21
578.279727
31
0
0
LINE
8
DIMENSION
10
1379.625
20
1078.279727
30
0
11
2019.625
21
1078.279727
31
0
0
LINE
8
DIMENSION
10
2019.625
20
578.279727
30
0
11
2019.625
21
1078.279727
31
0
0
LINE
8
DIMENSION
10
2019.625
20
578.279727
30
0
11
1990.041722
21
514.838182
31
0
0
LINE
8
DIMENSION
10
2019.625
20
578.279727
30
0
11
2049.208278
21
514.838182
31
0
0
LINE
8
DIMENSION
10
2019.625
20
1078.279727
30
0
11
2049.208278
21
1141.721273
31
0
0
LINE
8
DIMENSION
10
2019.625
20
1078.279727
30
0
11
1990.041722
21
1141.721273
31
0
0
TEXT
8
DIMENSION
10
2189.625
20
828.279727
30
0
40
85
1
0.5
50
90
7
STANDARD
72
1
73
2
11
2189.625
21
828.279727
31
0
0
LINE
8
DIMENSION
10
1379.625
20
-221.720273
30
0
11
2469.625
21
-221.720273
31
0
0
LINE
8
DIMENSION
10
1379.625
20
1078.279727
30
0
11
2469.625
21
1078.279727
31
0
0
LINE
8
DIMENSION
10
2469.625
20
-221.720273
30
0
11
2469.625
21
1078.279727
31
0
0
LINE
8
DIMENSION
10
2469.625
20
-221.720273
30
0
11
2440.041722
21
-285.161818
31
0
0
LINE
8
DIMENSION
10
2469.625
20
-221.720273
30
0
11
2499.208278
21
-285.161818
31
0
0
LINE
8
DIMENSION
10
2469.625
20
1078.279727
30
0
11
2499.208278
21
1141.721273
31
0
0
LINE
8
DIMENSION
10
2469.625
20
1078.279727
30
0
11
2440.041722
21
1141.721273
31
0
0
TEXT
8
DIMENSION
10
2639.625
20
428.279727
30
0
40
85
1
TOTAL 1.3
50
90
7
STANDARD
72
1
73
2
11
2639.625
21
428.279727
31
0
0
ENDSEC
0
EOF
