0
SECTION
2
HEADER
9
$ACADVER
1
AC1009
9
$INSUNITS
70
4
9
$MEASUREMENT
70
1
9
$LUNITS
70
2
9
$LUPREC
70
1
9
$TILEMODE
70
1
9
$EXTMIN
10
-1428.941916
20
-2225.0055
30
0
9
$EXTMAX
10
1428.941916
20
2225.0055
30
0
9
$PEXTMIN
10
-1428.941916
20
-2225.0055
30
0
9
$PEXTMAX
10
1428.941916
20
2225.0055
30
0
9
$LIMMIN
10
-1928.941916
20
-2725.0055
9
$LIMMAX
10
1928.941916
20
2725.0055
9
$PLIMMIN
10
-1928.941916
20
-2725.0055
9
$PLIMMAX
10
1928.941916
20
2725.0055
0
ENDSEC
0
SECTION
2
TABLES
0
TABLE
2
VPORT
70
1
0
VPORT
2
*ACTIVE
70
0
10
0
20
0
11
1
21
1
12
0
22
0
40
5450.011
41
0.707867
42
50
43
0
44
0
50
0
51
0
71
0
72
100
73
1
74
3
75
0
76
0
77
0
78
0
0
ENDTAB
0
TABLE
2
LTYPE
70
2
0
LTYPE
2
CONTINUOUS
70
0
3
Solid line
72
65
73
0
40
0
0
LTYPE
2
DASHED
70
0
3
Dashed
72
65
73
2
40
240
49
120
74
0
49
-120
74
0
0
ENDTAB
0
TABLE
2
LAYER
70
6
0
LAYER
2
PIPES
70
0
62
5
6
CONTINUOUS
0
LAYER
2
PIPE_ENDS
70
0
62
5
6
CONTINUOUS
0
LAYER
2
DIMENSION
70
0
62
1
6
CONTINUOUS
0
LAYER
2
LEVEL_GUIDE
70
0
62
1
6
DASHED
0
LAYER
2
LEVEL_TEXT
70
0
62
1
6
CONTINUOUS
0
LAYER
2
FRAME
70
0
62
5
6
CONTINUOUS
0
ENDTAB
0
TABLE
2
STYLE
70
1
0
STYLE
2
STANDARD
70
0
40
0
41
1
50
0
71
0
42
100
3
txt
4

0
ENDTAB
0
ENDSEC
0
SECTION
2
BLOCKS
0
BLOCK
8
0
2
$MODEL_SPACE
70
0
10
0
20
0
30
0
3
$MODEL_SPACE
0
ENDBLK
8
0
0
BLOCK
67
1
8
0
2
$PAPER_SPACE
70
0
10
0
20
0
30
0
3
$PAPER_SPACE
0
ENDBLK
67
1
8
0
0
ENDSEC
0
SECTION
2
ENTITIES
0
LINE
8
PIPES
10
-129.903811
20
-2225.0055
30
0
11
1428.941916
21
-1325.0055
31
0
0
LINE
8
PIPES
10
1428.941916
20
-1325.0055
30
0
11
129.903811
21
-575.0055
31
0
0
LINE
8
PIPES
10
129.903811
20
-575.0055
30
0
11
-1428.941916
21
-1475.0055
31
0
0
LINE
8
PIPES
10
-1428.941916
20
-1475.0055
30
0
11
-129.903811
21
-2225.0055
31
0
0
LINE
8
PIPES
10
-129.903811
20
-2225.0055
30
0
11
-129.903811
21
-425.0045
31
0
0
LINE
8
PIPES
10
1428.941916
20
-1325.0055
30
0
11
1428.941916
21
474.9955
31
0
0
LINE
8
PIPES
10
129.903811
20
-575.0055
30
0
11
129.903811
21
1224.9955
31
0
0
LINE
8
PIPES
10
-1428.941916
20
-1475.0055
30
0
11
-1428.941916
21
324.9955
31
0
0
LINE
8
PIPES
10
-129.903811
20
-425.0045
30
0
11
649.520785
21
24.9965
31
0
0
LINE
8
PIPES
10
1428.941916
20
474.9955
30
0
11
779.421131
21
849.9965
31
0
0
LINE
8
PIPES
10
129.903811
20
1224.9955
30
0
11
-649.517321
21
774.9965
31
0
0
LINE
8
PIPES
10
-1428.941916
20
324.9955
30
0
11
-779.424595
21
-50.0035
31
0
0
LINE
8
PIPES
10
-779.424595
20
-50.0035
30
0
11
-129.903811
21
-425.0045
31
0
0
LINE
8
PIPES
10
779.421131
20
849.9965
30
0
11
129.903811
21
1224.9955
31
0
0
LINE
8
PIPES
10
779.421131
20
849.9965
30
0
11
0
21
399.9975
31
0
0
LINE
8
PIPES
10
0
20
399.9975
30
0
11
-779.424595
21
-50.0035
31
0
0
LINE
8
PIPES
10
649.520785
20
24.9965
30
0
11
1428.941916
21
474.9955
31
0
0
LINE
8
PIPES
10
-649.517321
20
774.9965
30
0
11
-1428.941916
21
324.9955
31
0
0
LINE
8
PIPES
10
-649.517321
20
774.9965
30
0
11
0
21
399.9975
31
0
0
LINE
8
PIPES
10
0
20
399.9975
30
0
11
649.520785
21
24.9965
31
0
0
LINE
8
PIPES
10
-129.903811
20
-425.0045
30
0
11
-129.903811
21
74.9955
31
0
0
LINE
8
PIPES
10
1428.941916
20
474.9955
30
0
11
1428.941916
21
974.9955
31
0
0
LINE
8
PIPES
10
129.903811
20
1224.9955
30
0
11
129.903811
21
1724.9955
31
0
0
LINE
8
PIPES
10
-779.424595
20
-50.0035
30
0
11
-779.424595
21
449.9965
31
0
0
LINE
8
PIPES
10
779.421131
20
849.9965
30
0
11
779.421131
21
1349.9965
31
0
0
LINE
8
PIPES
10
649.520785
20
24.9965
30
0
11
649.520785
21
524.9965
31
0
0
LINE
8
PIPES
10
-649.517321
20
774.9965
30
0
11
-649.517321
21
1274.9965
31
0
0
LINE
8
PIPES
10
-129.903811
20
74.9955
30
0
11
649.520785
21
524.9965
31
0
0
LINE
8
PIPES
10
1428.941916
20
974.9955
30
0
11
779.421131
21
1349.9965
31
0
0
LINE
8
PIPES
10
129.903811
20
1724.9955
30
0
11
-649.517321
21
1274.9965
31
0
0
LINE
8
PIPES
10
-779.424595
20
449.9965
30
0
11
-129.903811
21
74.9955
31
0
0
LINE
8
PIPES
10
779.421131
20
1349.9965
30
0
11
129.903811
21
1724.9955
31
0
0
LINE
8
PIPES
10
649.520785
20
524.9965
30
0
11
1428.941916
21
974.9955
31
0
0
LINE
8
PIPES
10
-129.903811
20
74.9955
30
0
11
-129.903811
21
575.0055
31
0
0
LINE
8
PIPES
10
1428.941916
20
974.9955
30
0
11
1428.941916
21
1475.0055
31
0
0
LINE
8
PIPES
10
129.903811
20
1724.9955
30
0
11
129.903811
21
2225.0055
31
0
0
LINE
8
PIPES
10
-779.424595
20
449.9965
30
0
11
-779.424595
21
950.0065
31
0
0
LINE
8
PIPES
10
779.421131
20
1349.9965
30
0
11
779.421131
21
1850.0065
31
0
0
LINE
8
PIPES
10
649.520785
20
524.9965
30
0
11
649.520785
21
1025.0065
31
0
0
LINE
8
PIPES
10
-649.517321
20
1274.9965
30
0
11
-649.517321
21
1775.0065
31
0
0
LINE
8
PIPES
10
-129.903811
20
575.0055
30
0
11
649.520785
21
1025.0065
31
0
0
LINE
8
PIPES
10
1428.941916
20
1475.0055
30
0
11
779.421131
21
1850.0065
31
0
0
LINE
8
PIPES
10
129.903811
20
2225.0055
30
0
11
-649.517321
21
1775.0065
31
0
0
LINE
8
PIPES
10
-779.424595
20
950.0065
30
0
11
-129.903811
21
575.0055
31
0
0
LINE
8
PIPES
10
779.421131
20
1850.0065
30
0
11
129.903811
21
2225.0055
31
0
0
LINE
8
PIPES
10
649.520785
20
1025.0065
30
0
11
1428.941916
21
1475.0055
31
0
0
LINE
8
PIPES
10
129.903811
20
1224.9955
30
0
11
-1428.941916
21
-1475.0055
31
0
0
LINE
8
PIPES
10
-129.903811
20
-425.0045
30
0
11
1428.941916
21
-1325.0055
31
0
0
LINE
8
PIPES
10
-129.903811
20
-425.0045
30
0
11
-1428.941916
21
-1475.0055
31
0
0
LINE
8
PIPES
10
1428.941916
20
-1325.0055
30
0
11
129.903811
21
1224.9955
31
0
0
LINE
8
PIPES
10
-1428.941916
20
324.9955
30
0
11
-1428.941916
21
824.9955
31
0
0
LINE
8
PIPES
10
-1428.941916
20
824.9955
30
0
11
-779.424595
21
449.9965
31
0
0
LINE
8
PIPES
10
-1428.941916
20
824.9955
30
0
11
-1428.941916
21
1325.0055
31
0
0
LINE
8
PIPES
10
-1428.941916
20
1325.0055
30
0
11
-779.424595
21
950.0065
31
0
0
ENDSEC
0
EOF
