0
SECTION
2
HEADER
9
$ACADVER
1
AC1009
9
$INSUNITS
70
4
0
ENDSEC
0
SECTION
2
TABLES
0
TABLE
2
LTYPE
70
2
0
LTYPE
2
CONTINUOUS
70
0
3
Solid
72
65
73
0
40
0
0
LTYPE
2
DASHED
70
0
3
Dashed
72
65
73
2
40
240
49
120
74
0
49
-120
74
0
0
ENDTAB
0
TABLE
2
LAYER
70
5
0
LAYER
2
PIPES
70
0
62
1
6
CONTINUOUS
0
LAYER
2
GRIDLINE
70
0
62
5
6
DASHED
0
LAYER
2
DIMENSION
70
0
62
5
6
CONTINUOUS
0
LAYER
2
BUBBLE
70
0
62
1
6
CONTINUOUS
0
LAYER
2
TIE
70
0
62
6
6
CONTINUOUS
0
ENDTAB
0
ENDSEC
0
SECTION
2
ENTITIES

0
LINE
8
PIPES
6
CONTINUOUS
10
-883.0127
20
-17250.055
30
0
11
-883.0127
21
-16950.054
31
0
0
LINE
8
PIPES
6
CONTINUOUS
10
-1749.0381
20
-16750.055
30
0
11
-1749.0381
21
-16450.054
31
0
0
LINE
8
PIPES
6
CONTINUOUS
10
-2615.0635
20
-16250.055
30
0
11
-2615.0635
21
-15950.054
31
0
0
LINE
8
PIPES
6
CONTINUOUS
10
-3481.0976
20
-15750.05
30
0
11
-3481.0976
21
-15450.049
31
0
0
LINE
8
PIPES
6
CONTINUOUS
10
-4347.123
20
-15250.05
30
0
11
-4347.123
21
-14950.049
31
0
0
LINE
8
PIPES
6
CONTINUOUS
10
-3481.0976
20
-14750.05
30
0
11
-3481.0976
21
-14450.049
31
0
0
LINE
8
PIPES
6
CONTINUOUS
10
-2615.0722
20
-15250.05
30
0
11
-2615.0722
21
-14950.049
31
0
0
LINE
8
PIPES
6
CONTINUOUS
10
-1749.0381
20
-15750.055
30
0
11
-1749.0381
21
-15450.054
31
0
0
LINE
8
PIPES
6
CONTINUOUS
10
-883.0127
20
-16250.055
30
0
11
-883.0127
21
-15950.054
31
0
0
LINE
8
PIPES
6
CONTINUOUS
10
-16.9873
20
-16750.055
30
0
11
-16.9873
21
-16450.054
31
0
0
LINE
8
PIPES
6
CONTINUOUS
10
1282.0508
20
-16000.055
30
0
11
1282.0508
21
-15700.054
31
0
0
LINE
8
PIPES
6
CONTINUOUS
10
416.0254
20
-15500.055
30
0
11
416.0254
21
-15200.054
31
0
0
LINE
8
PIPES
6
CONTINUOUS
10
1715.0722
20
-14750.05
30
0
11
1715.0722
21
-14450.049
31
0
0
LINE
8
PIPES
6
CONTINUOUS
10
2581.0976
20
-15250.05
30
0
11
2581.0976
21
-14950.049
31
0
0
LINE
8
PIPES
6
CONTINUOUS
10
3447.123
20
-14750.05
30
0
11
3447.123
21
-14450.049
31
0
0
LINE
8
PIPES
6
CONTINUOUS
10
2581.0976
20
-14250.05
30
0
11
2581.0976
21
-13950.049
31
0
0
LINE
8
PIPES
6
CONTINUOUS
10
849.0468
20
-14250.05
30
0
11
849.0468
21
-13950.049
31
0
0
LINE
8
PIPES
6
CONTINUOUS
10
1715.0722
20
-13750.05
30
0
11
1715.0722
21
-13450.049
31
0
0
LINE
8
PIPES
6
CONTINUOUS
10
849.0381
20
-13250.045
30
0
11
849.0381
21
-12950.044
31
0
0
LINE
8
PIPES
6
CONTINUOUS
10
-16.9873
20
-12750.045
30
0
11
-16.9873
21
-12450.044
31
0
0
LINE
8
PIPES
6
CONTINUOUS
10
-883.0127
20
-13250.045
30
0
11
-883.0127
21
-12950.044
31
0
0
LINE
8
PIPES
6
CONTINUOUS
10
-16.9873
20
-13750.045
30
0
11
-16.9873
21
-13450.044
31
0
0
LINE
8
PIPES
6
CONTINUOUS
10
-1316.0341
20
-14500.05
30
0
11
-1316.0341
21
-14200.049
31
0
0
LINE
8
PIPES
6
CONTINUOUS
10
-2182.0595
20
-14000.05
30
0
11
-2182.0595
21
-13700.049
31
0
0
LINE
8
PIPES
6
CONTINUOUS
10
-883.0127
20
-16950.054
30
0
11
-1749.0381
21
-16450.054
31
0
0
LINE
8
PIPES
6
CONTINUOUS
10
-1749.0381
20
-16450.054
30
0
11
-2615.0635
21
-15950.054
31
0
0
LINE
8
PIPES
6
CONTINUOUS
10
-2615.0635
20
-15950.054
30
0
11
-3481.0976
21
-15450.049
31
0
0
LINE
8
PIPES
6
CONTINUOUS
10
-3481.0976
20
-15450.049
30
0
11
-4347.123
21
-14950.049
31
0
0
LINE
8
PIPES
6
CONTINUOUS
10
-4347.123
20
-14950.049
30
0
11
-3481.0976
21
-14450.049
31
0
0
LINE
8
PIPES
6
CONTINUOUS
10
-3481.0976
20
-14450.049
30
0
11
-2615.0722
21
-14950.049
31
0
0
LINE
8
PIPES
6
CONTINUOUS
10
-2615.0722
20
-14950.049
30
0
11
-3481.0976
21
-15450.049
31
0
0
LINE
8
PIPES
6
CONTINUOUS
10
-2615.0722
20
-14950.049
30
0
11
-1749.0381
21
-15450.054
31
0
0
LINE
8
PIPES
6
CONTINUOUS
10
-1749.0381
20
-15450.054
30
0
11
-2615.0635
21
-15950.054
31
0
0
LINE
8
PIPES
6
CONTINUOUS
10
-1749.0381
20
-15450.054
30
0
11
-883.0127
21
-15950.054
31
0
0
LINE
8
PIPES
6
CONTINUOUS
10
-883.0127
20
-15950.054
30
0
11
-1749.0381
21
-16450.054
31
0
0
LINE
8
PIPES
6
CONTINUOUS
10
-883.0127
20
-15950.054
30
0
11
-16.9873
21
-16450.054
31
0
0
LINE
8
PIPES
6
CONTINUOUS
10
-16.9873
20
-16450.054
30
0
11
-883.0127
21
-16950.054
31
0
0
LINE
8
PIPES
6
CONTINUOUS
10
-16.9873
20
-16450.054
30
0
11
1282.0508
21
-15700.054
31
0
0
LINE
8
PIPES
6
CONTINUOUS
10
1282.0508
20
-15700.054
30
0
11
416.0254
21
-15200.054
31
0
0
LINE
8
PIPES
6
CONTINUOUS
10
416.0254
20
-15200.054
30
0
11
-883.0127
21
-15950.054
31
0
0
LINE
8
PIPES
6
CONTINUOUS
10
416.0254
20
-15200.054
30
0
11
1715.0722
21
-14450.049
31
0
0
LINE
8
PIPES
6
CONTINUOUS
10
1715.0722
20
-14450.049
30
0
11
2581.0976
21
-14950.049
31
0
0
LINE
8
PIPES
6
CONTINUOUS
10
2581.0976
20
-14950.049
30
0
11
1282.0508
21
-15700.054
31
0
0
LINE
8
PIPES
6
CONTINUOUS
10
2581.0976
20
-14950.049
30
0
11
3447.123
21
-14450.049
31
0
0
LINE
8
PIPES
6
CONTINUOUS
10
3447.123
20
-14450.049
30
0
11
2581.0976
21
-13950.049
31
0
0
LINE
8
PIPES
6
CONTINUOUS
10
2581.0976
20
-13950.049
30
0
11
1715.0722
21
-14450.049
31
0
0
LINE
8
PIPES
6
CONTINUOUS
10
1715.0722
20
-14450.049
30
0
11
849.0468
21
-13950.049
31
0
0
LINE
8
PIPES
6
CONTINUOUS
10
849.0468
20
-13950.049
30
0
11
1715.0722
21
-13450.049
31
0
0
LINE
8
PIPES
6
CONTINUOUS
10
1715.0722
20
-13450.049
30
0
11
849.0381
21
-12950.044
31
0
0
LINE
8
PIPES
6
CONTINUOUS
10
849.0381
20
-12950.044
30
0
11
-16.9873
21
-12450.044
31
0
0
LINE
8
PIPES
6
CONTINUOUS
10
-16.9873
20
-12450.044
30
0
11
-883.0127
21
-12950.044
31
0
0
LINE
8
PIPES
6
CONTINUOUS
10
-883.0127
20
-12950.044
30
0
11
-16.9873
21
-13450.044
31
0
0
LINE
8
PIPES
6
CONTINUOUS
10
-16.9873
20
-13450.044
30
0
11
-1316.0341
21
-14200.049
31
0
0
LINE
8
PIPES
6
CONTINUOUS
10
-1316.0341
20
-14200.049
30
0
11
-2182.0595
21
-13700.049
31
0
0
LINE
8
PIPES
6
CONTINUOUS
10
-2182.0595
20
-13700.049
30
0
11
-883.0127
21
-12950.044
31
0
0
LINE
8
PIPES
6
CONTINUOUS
10
-16.9873
20
-13450.044
30
0
11
849.0381
21
-12950.044
31
0
0
LINE
8
PIPES
6
CONTINUOUS
10
-16.9873
20
-13450.044
30
0
11
849.0468
21
-13950.049
31
0
0
LINE
8
PIPES
6
CONTINUOUS
10
1715.0722
20
-13450.049
30
0
11
2581.0976
21
-13950.049
31
0
0
LINE
8
PIPES
6
CONTINUOUS
10
-2182.0595
20
-13700.049
30
0
11
-3481.0976
21
-14450.049
31
0
0
LINE
8
PIPES
6
CONTINUOUS
10
-2615.0722
20
-14950.049
30
0
11
-1316.0341
21
-14200.049
31
0
0
LINE
8
PIPES
6
CONTINUOUS
10
-883.0127
20
-16950.054
30
0
11
-883.0127
21
-15250.055
31
0
0
LINE
8
PIPES
6
CONTINUOUS
10
-1749.0381
20
-16450.054
30
0
11
-1749.0381
21
-14750.055
31
0
0
LINE
8
PIPES
6
CONTINUOUS
10
-2615.0635
20
-15950.054
30
0
11
-2615.0635
21
-14250.055
31
0
0
LINE
8
PIPES
6
CONTINUOUS
10
-3481.0976
20
-15450.049
30
0
11
-3481.0976
21
-13750.05
31
0
0
LINE
8
PIPES
6
CONTINUOUS
10
-4347.123
20
-14950.049
30
0
11
-4347.123
21
-13250.05
31
0
0
LINE
8
PIPES
6
CONTINUOUS
10
-3481.0976
20
-14450.049
30
0
11
-3481.0976
21
-12750.05
31
0
0
LINE
8
PIPES
6
CONTINUOUS
10
-2615.0722
20
-14950.049
30
0
11
-2615.0722
21
-13250.05
31
0
0
LINE
8
PIPES
6
CONTINUOUS
10
-1749.0381
20
-15450.054
30
0
11
-1749.0381
21
-13750.055
31
0
0
LINE
8
PIPES
6
CONTINUOUS
10
-883.0127
20
-15950.054
30
0
11
-883.0127
21
-14250.055
31
0
0
LINE
8
PIPES
6
CONTINUOUS
10
-16.9873
20
-16450.054
30
0
11
-16.9873
21
-14750.055
31
0
0
LINE
8
PIPES
6
CONTINUOUS
10
1282.0508
20
-15700.054
30
0
11
1282.0508
21
-14000.055
31
0
0
LINE
8
PIPES
6
CONTINUOUS
10
416.0254
20
-15200.054
30
0
11
416.0254
21
-13500.055
31
0
0
LINE
8
PIPES
6
CONTINUOUS
10
1715.0722
20
-14450.049
30
0
11
1715.0722
21
-12750.05
31
0
0
LINE
8
PIPES
6
CONTINUOUS
10
2581.0976
20
-14950.049
30
0
11
2581.0976
21
-13250.05
31
0
0
LINE
8
PIPES
6
CONTINUOUS
10
3447.123
20
-14450.049
30
0
11
3447.123
21
-12750.05
31
0
0
LINE
8
PIPES
6
CONTINUOUS
10
2581.0976
20
-13950.049
30
0
11
2581.0976
21
-12250.05
31
0
0
LINE
8
PIPES
6
CONTINUOUS
10
849.0468
20
-13950.049
30
0
11
849.0468
21
-12250.05
31
0
0
LINE
8
PIPES
6
CONTINUOUS
10
1715.0722
20
-13450.049
30
0
11
1715.0722
21
-11750.05
31
0
0
LINE
8
PIPES
6
CONTINUOUS
10
849.0381
20
-12950.044
30
0
11
849.0381
21
-11250.045
31
0
0
LINE
8
PIPES
6
CONTINUOUS
10
-16.9873
20
-12450.044
30
0
11
-16.9873
21
-10750.045
31
0
0
LINE
8
PIPES
6
CONTINUOUS
10
-883.0127
20
-12950.044
30
0
11
-883.0127
21
-11250.045
31
0
0
LINE
8
PIPES
6
CONTINUOUS
10
-16.9873
20
-13450.044
30
0
11
-16.9873
21
-11750.045
31
0
0
LINE
8
PIPES
6
CONTINUOUS
10
-1316.0341
20
-14200.049
30
0
11
-1316.0341
21
-12500.05
31
0
0
LINE
8
PIPES
6
CONTINUOUS
10
-2182.0595
20
-13700.049
30
0
11
-2182.0595
21
-12000.05
31
0
0
LINE
8
PIPES
6
CONTINUOUS
10
-883.0127
20
-15250.055
30
0
11
-1749.0381
21
-14750.055
31
0
0
LINE
8
PIPES
6
CONTINUOUS
10
-1749.0381
20
-14750.055
30
0
11
-2615.0635
21
-14250.055
31
0
0
LINE
8
PIPES
6
CONTINUOUS
10
-2615.0635
20
-14250.055
30
0
11
-3481.0976
21
-13750.05
31
0
0
LINE
8
PIPES
6
CONTINUOUS
10
-3481.0976
20
-13750.05
30
0
11
-4347.123
21
-13250.05
31
0
0
LINE
8
PIPES
6
CONTINUOUS
10
-4347.123
20
-13250.05
30
0
11
-3481.0976
21
-12750.05
31
0
0
LINE
8
PIPES
6
CONTINUOUS
10
-3481.0976
20
-12750.05
30
0
11
-2615.0722
21
-13250.05
31
0
0
LINE
8
PIPES
6
CONTINUOUS
10
-2615.0722
20
-13250.05
30
0
11
-3481.0976
21
-13750.05
31
0
0
LINE
8
PIPES
6
CONTINUOUS
10
-2615.0722
20
-13250.05
30
0
11
-1749.0381
21
-13750.055
31
0
0
LINE
8
PIPES
6
CONTINUOUS
10
-1749.0381
20
-13750.055
30
0
11
-2615.0635
21
-14250.055
31
0
0
LINE
8
PIPES
6
CONTINUOUS
10
-1749.0381
20
-13750.055
30
0
11
-883.0127
21
-14250.055
31
0
0
LINE
8
PIPES
6
CONTINUOUS
10
-883.0127
20
-14250.055
30
0
11
-1749.0381
21
-14750.055
31
0
0
LINE
8
PIPES
6
CONTINUOUS
10
-883.0127
20
-14250.055
30
0
11
-16.9873
21
-14750.055
31
0
0
LINE
8
PIPES
6
CONTINUOUS
10
-16.9873
20
-14750.055
30
0
11
-883.0127
21
-15250.055
31
0
0
LINE
8
PIPES
6
CONTINUOUS
10
-16.9873
20
-14750.055
30
0
11
1282.0508
21
-14000.055
31
0
0
LINE
8
PIPES
6
CONTINUOUS
10
1282.0508
20
-14000.055
30
0
11
416.0254
21
-13500.055
31
0
0
LINE
8
PIPES
6
CONTINUOUS
10
416.0254
20
-13500.055
30
0
11
-883.0127
21
-14250.055
31
0
0
LINE
8
PIPES
6
CONTINUOUS
10
416.0254
20
-13500.055
30
0
11
1715.0722
21
-12750.05
31
0
0
LINE
8
PIPES
6
CONTINUOUS
10
1715.0722
20
-12750.05
30
0
11
2581.0976
21
-13250.05
31
0
0
LINE
8
PIPES
6
CONTINUOUS
10
2581.0976
20
-13250.05
30
0
11
1282.0508
21
-14000.055
31
0
0
LINE
8
PIPES
6
CONTINUOUS
10
2581.0976
20
-13250.05
30
0
11
3447.123
21
-12750.05
31
0
0
LINE
8
PIPES
6
CONTINUOUS
10
3447.123
20
-12750.05
30
0
11
2581.0976
21
-12250.05
31
0
0
LINE
8
PIPES
6
CONTINUOUS
10
2581.0976
20
-12250.05
30
0
11
1715.0722
21
-12750.05
31
0
0
LINE
8
PIPES
6
CONTINUOUS
10
1715.0722
20
-12750.05
30
0
11
849.0468
21
-12250.05
31
0
0
LINE
8
PIPES
6
CONTINUOUS
10
849.0468
20
-12250.05
30
0
11
1715.0722
21
-11750.05
31
0
0
LINE
8
PIPES
6
CONTINUOUS
10
1715.0722
20
-11750.05
30
0
11
849.0381
21
-11250.045
31
0
0
LINE
8
PIPES
6
CONTINUOUS
10
849.0381
20
-11250.045
30
0
11
-16.9873
21
-10750.045
31
0
0
LINE
8
PIPES
6
CONTINUOUS
10
-16.9873
20
-10750.045
30
0
11
-883.0127
21
-11250.045
31
0
0
LINE
8
PIPES
6
CONTINUOUS
10
-883.0127
20
-11250.045
30
0
11
-16.9873
21
-11750.045
31
0
0
LINE
8
PIPES
6
CONTINUOUS
10
-16.9873
20
-11750.045
30
0
11
-1316.0341
21
-12500.05
31
0
0
LINE
8
PIPES
6
CONTINUOUS
10
-1316.0341
20
-12500.05
30
0
11
-2182.0595
21
-12000.05
31
0
0
LINE
8
PIPES
6
CONTINUOUS
10
-2182.0595
20
-12000.05
30
0
11
-883.0127
21
-11250.045
31
0
0
LINE
8
PIPES
6
CONTINUOUS
10
-16.9873
20
-11750.045
30
0
11
849.0381
21
-11250.045
31
0
0
LINE
8
PIPES
6
CONTINUOUS
10
-16.9873
20
-11750.045
30
0
11
849.0468
21
-12250.05
31
0
0
LINE
8
PIPES
6
CONTINUOUS
10
1715.0722
20
-11750.05
30
0
11
2581.0976
21
-12250.05
31
0
0
LINE
8
PIPES
6
CONTINUOUS
10
-2182.0595
20
-12000.05
30
0
11
-3481.0976
21
-12750.05
31
0
0
LINE
8
PIPES
6
CONTINUOUS
10
-2615.0722
20
-13250.05
30
0
11
-1316.0341
21
-12500.05
31
0
0
LINE
8
PIPES
6
CONTINUOUS
10
-883.0127
20
-15250.055
30
0
11
-883.0127
21
-13250.055
31
0
0
LINE
8
PIPES
6
CONTINUOUS
10
-1749.0381
20
-14750.055
30
0
11
-1749.0381
21
-12750.055
31
0
0
LINE
8
PIPES
6
CONTINUOUS
10
-2615.0635
20
-14250.055
30
0
11
-2615.0635
21
-12250.055
31
0
0
LINE
8
PIPES
6
CONTINUOUS
10
-3481.0976
20
-13750.05
30
0
11
-3481.0976
21
-11750.05
31
0
0
LINE
8
PIPES
6
CONTINUOUS
10
-4347.123
20
-13250.05
30
0
11
-4347.123
21
-11250.05
31
0
0
LINE
8
PIPES
6
CONTINUOUS
10
-3481.0976
20
-12750.05
30
0
11
-3481.0976
21
-10750.05
31
0
0
LINE
8
PIPES
6
CONTINUOUS
10
-2615.0722
20
-13250.05
30
0
11
-2615.0722
21
-11250.05
31
0
0
LINE
8
PIPES
6
CONTINUOUS
10
-1749.0381
20
-13750.055
30
0
11
-1749.0381
21
-11750.055
31
0
0
LINE
8
PIPES
6
CONTINUOUS
10
-883.0127
20
-14250.055
30
0
11
-883.0127
21
-12250.055
31
0
0
LINE
8
PIPES
6
CONTINUOUS
10
-16.9873
20
-14750.055
30
0
11
-16.9873
21
-12750.055
31
0
0
LINE
8
PIPES
6
CONTINUOUS
10
1282.0508
20
-14000.055
30
0
11
1282.0508
21
-12000.055
31
0
0
LINE
8
PIPES
6
CONTINUOUS
10
416.0254
20
-13500.055
30
0
11
416.0254
21
-11500.055
31
0
0
LINE
8
PIPES
6
CONTINUOUS
10
1715.0722
20
-12750.05
30
0
11
1715.0722
21
-10750.05
31
0
0
LINE
8
PIPES
6
CONTINUOUS
10
2581.0976
20
-13250.05
30
0
11
2581.0976
21
-11250.05
31
0
0
LINE
8
PIPES
6
CONTINUOUS
10
3447.123
20
-12750.05
30
0
11
3447.123
21
-10750.05
31
0
0
LINE
8
PIPES
6
CONTINUOUS
10
2581.0976
20
-12250.05
30
0
11
2581.0976
21
-10250.05
31
0
0
LINE
8
PIPES
6
CONTINUOUS
10
849.0468
20
-12250.05
30
0
11
849.0468
21
-10250.05
31
0
0
LINE
8
PIPES
6
CONTINUOUS
10
1715.0722
20
-11750.05
30
0
11
1715.0722
21
-9750.05
31
0
0
LINE
8
PIPES
6
CONTINUOUS
10
849.0381
20
-11250.045
30
0
11
849.0381
21
-9250.045
31
0
0
LINE
8
PIPES
6
CONTINUOUS
10
-16.9873
20
-10750.045
30
0
11
-16.9873
21
-8750.045
31
0
0
LINE
8
PIPES
6
CONTINUOUS
10
-883.0127
20
-11250.045
30
0
11
-883.0127
21
-9250.045
31
0
0
LINE
8
PIPES
6
CONTINUOUS
10
-16.9873
20
-11750.045
30
0
11
-16.9873
21
-9750.045
31
0
0
LINE
8
PIPES
6
CONTINUOUS
10
-1316.0341
20
-12500.05
30
0
11
-1316.0341
21
-10500.05
31
0
0
LINE
8
PIPES
6
CONTINUOUS
10
-2182.0595
20
-12000.05
30
0
11
-2182.0595
21
-10000.05
31
0
0
LINE
8
PIPES
6
CONTINUOUS
10
-883.0127
20
-13250.055
30
0
11
-1749.0381
21
-12750.055
31
0
0
LINE
8
PIPES
6
CONTINUOUS
10
-1749.0381
20
-12750.055
30
0
11
-2615.0635
21
-12250.055
31
0
0
LINE
8
PIPES
6
CONTINUOUS
10
-2615.0635
20
-12250.055
30
0
11
-3481.0976
21
-11750.05
31
0
0
LINE
8
PIPES
6
CONTINUOUS
10
-3481.0976
20
-11750.05
30
0
11
-4347.123
21
-11250.05
31
0
0
LINE
8
PIPES
6
CONTINUOUS
10
-4347.123
20
-11250.05
30
0
11
-3481.0976
21
-10750.05
31
0
0
LINE
8
PIPES
6
CONTINUOUS
10
-3481.0976
20
-10750.05
30
0
11
-2615.0722
21
-11250.05
31
0
0
LINE
8
PIPES
6
CONTINUOUS
10
-2615.0722
20
-11250.05
30
0
11
-3481.0976
21
-11750.05
31
0
0
LINE
8
PIPES
6
CONTINUOUS
10
-2615.0722
20
-11250.05
30
0
11
-1749.0381
21
-11750.055
31
0
0
LINE
8
PIPES
6
CONTINUOUS
10
-1749.0381
20
-11750.055
30
0
11
-2615.0635
21
-12250.055
31
0
0
LINE
8
PIPES
6
CONTINUOUS
10
-1749.0381
20
-11750.055
30
0
11
-883.0127
21
-12250.055
31
0
0
LINE
8
PIPES
6
CONTINUOUS
10
-883.0127
20
-12250.055
30
0
11
-1749.0381
21
-12750.055
31
0
0
LINE
8
PIPES
6
CONTINUOUS
10
-883.0127
20
-12250.055
30
0
11
-16.9873
21
-12750.055
31
0
0
LINE
8
PIPES
6
CONTINUOUS
10
-16.9873
20
-12750.055
30
0
11
-883.0127
21
-13250.055
31
0
0
LINE
8
PIPES
6
CONTINUOUS
10
-16.9873
20
-12750.055
30
0
11
1282.0508
21
-12000.055
31
0
0
LINE
8
PIPES
6
CONTINUOUS
10
1282.0508
20
-12000.055
30
0
11
416.0254
21
-11500.055
31
0
0
LINE
8
PIPES
6
CONTINUOUS
10
416.0254
20
-11500.055
30
0
11
-883.0127
21
-12250.055
31
0
0
LINE
8
PIPES
6
CONTINUOUS
10
416.0254
20
-11500.055
30
0
11
1715.0722
21
-10750.05
31
0
0
LINE
8
PIPES
6
CONTINUOUS
10
1715.0722
20
-10750.05
30
0
11
2581.0976
21
-11250.05
31
0
0
LINE
8
PIPES
6
CONTINUOUS
10
2581.0976
20
-11250.05
30
0
11
1282.0508
21
-12000.055
31
0
0
LINE
8
PIPES
6
CONTINUOUS
10
2581.0976
20
-11250.05
30
0
11
3447.123
21
-10750.05
31
0
0
LINE
8
PIPES
6
CONTINUOUS
10
3447.123
20
-10750.05
30
0
11
2581.0976
21
-10250.05
31
0
0
LINE
8
PIPES
6
CONTINUOUS
10
2581.0976
20
-10250.05
30
0
11
1715.0722
21
-10750.05
31
0
0
LINE
8
PIPES
6
CONTINUOUS
10
1715.0722
20
-10750.05
30
0
11
849.0468
21
-10250.05
31
0
0
LINE
8
PIPES
6
CONTINUOUS
10
849.0468
20
-10250.05
30
0
11
1715.0722
21
-9750.05
31
0
0
LINE
8
PIPES
6
CONTINUOUS
10
1715.0722
20
-9750.05
30
0
11
849.0381
21
-9250.045
31
0
0
LINE
8
PIPES
6
CONTINUOUS
10
849.0381
20
-9250.045
30
0
11
-16.9873
21
-8750.045
31
0
0
LINE
8
PIPES
6
CONTINUOUS
10
-16.9873
20
-8750.045
30
0
11
-883.0127
21
-9250.045
31
0
0
LINE
8
PIPES
6
CONTINUOUS
10
-883.0127
20
-9250.045
30
0
11
-16.9873
21
-9750.045
31
0
0
LINE
8
PIPES
6
CONTINUOUS
10
-16.9873
20
-9750.045
30
0
11
-1316.0341
21
-10500.05
31
0
0
LINE
8
PIPES
6
CONTINUOUS
10
-1316.0341
20
-10500.05
30
0
11
-2182.0595
21
-10000.05
31
0
0
LINE
8
PIPES
6
CONTINUOUS
10
-2182.0595
20
-10000.05
30
0
11
-883.0127
21
-9250.045
31
0
0
LINE
8
PIPES
6
CONTINUOUS
10
-16.9873
20
-9750.045
30
0
11
849.0381
21
-9250.045
31
0
0
LINE
8
PIPES
6
CONTINUOUS
10
-16.9873
20
-9750.045
30
0
11
849.0468
21
-10250.05
31
0
0
LINE
8
PIPES
6
CONTINUOUS
10
1715.0722
20
-9750.05
30
0
11
2581.0976
21
-10250.05
31
0
0
LINE
8
PIPES
6
CONTINUOUS
10
-2182.0595
20
-10000.05
30
0
11
-3481.0976
21
-10750.05
31
0
0
LINE
8
PIPES
6
CONTINUOUS
10
-2615.0722
20
-11250.05
30
0
11
-1316.0341
21
-10500.05
31
0
0
LINE
8
PIPES
6
CONTINUOUS
10
-883.0127
20
-13250.055
30
0
11
-883.0127
21
-11250.045
31
0
0
LINE
8
PIPES
6
CONTINUOUS
10
-1749.0381
20
-12750.055
30
0
11
-1749.0381
21
-10750.045
31
0
0
LINE
8
PIPES
6
CONTINUOUS
10
-2615.0635
20
-12250.055
30
0
11
-2615.0635
21
-10250.045
31
0
0
LINE
8
PIPES
6
CONTINUOUS
10
-3481.0976
20
-11750.05
30
0
11
-3481.0976
21
-9750.04
31
0
0
LINE
8
PIPES
6
CONTINUOUS
10
-4347.123
20
-11250.05
30
0
11
-4347.123
21
-9250.04
31
0
0
LINE
8
PIPES
6
CONTINUOUS
10
-3481.0976
20
-10750.05
30
0
11
-3481.0976
21
-8750.04
31
0
0
LINE
8
PIPES
6
CONTINUOUS
10
-2615.0722
20
-11250.05
30
0
11
-2615.0722
21
-9250.04
31
0
0
LINE
8
PIPES
6
CONTINUOUS
10
-1749.0381
20
-11750.055
30
0
11
-1749.0381
21
-9750.045
31
0
0
LINE
8
PIPES
6
CONTINUOUS
10
-883.0127
20
-12250.055
30
0
11
-883.0127
21
-10250.045
31
0
0
LINE
8
PIPES
6
CONTINUOUS
10
-16.9873
20
-12750.055
30
0
11
-16.9873
21
-10750.045
31
0
0
LINE
8
PIPES
6
CONTINUOUS
10
1282.0508
20
-12000.055
30
0
11
1282.0508
21
-10000.045
31
0
0
LINE
8
PIPES
6
CONTINUOUS
10
416.0254
20
-11500.055
30
0
11
416.0254
21
-9500.045
31
0
0
LINE
8
PIPES
6
CONTINUOUS
10
1715.0722
20
-10750.05
30
0
11
1715.0722
21
-8750.04
31
0
0
LINE
8
PIPES
6
CONTINUOUS
10
2581.0976
20
-11250.05
30
0
11
2581.0976
21
-9250.04
31
0
0
LINE
8
PIPES
6
CONTINUOUS
10
3447.123
20
-10750.05
30
0
11
3447.123
21
-8750.04
31
0
0
LINE
8
PIPES
6
CONTINUOUS
10
2581.0976
20
-10250.05
30
0
11
2581.0976
21
-8250.04
31
0
0
LINE
8
PIPES
6
CONTINUOUS
10
849.0468
20
-10250.05
30
0
11
849.0468
21
-8250.04
31
0
0
LINE
8
PIPES
6
CONTINUOUS
10
1715.0722
20
-9750.05
30
0
11
1715.0722
21
-7750.04
31
0
0
LINE
8
PIPES
6
CONTINUOUS
10
849.0381
20
-9250.045
30
0
11
849.0381
21
-7250.035
31
0
0
LINE
8
PIPES
6
CONTINUOUS
10
-16.9873
20
-8750.045
30
0
11
-16.9873
21
-6750.035
31
0
0
LINE
8
PIPES
6
CONTINUOUS
10
-883.0127
20
-9250.045
30
0
11
-883.0127
21
-7250.035
31
0
0
LINE
8
PIPES
6
CONTINUOUS
10
-16.9873
20
-9750.045
30
0
11
-16.9873
21
-7750.035
31
0
0
LINE
8
PIPES
6
CONTINUOUS
10
-1316.0341
20
-10500.05
30
0
11
-1316.0341
21
-8500.04
31
0
0
LINE
8
PIPES
6
CONTINUOUS
10
-2182.0595
20
-10000.05
30
0
11
-2182.0595
21
-8000.04
31
0
0
LINE
8
PIPES
6
CONTINUOUS
10
-883.0127
20
-11250.045
30
0
11
-1749.0381
21
-10750.045
31
0
0
LINE
8
PIPES
6
CONTINUOUS
10
-1749.0381
20
-10750.045
30
0
11
-2615.0635
21
-10250.045
31
0
0
LINE
8
PIPES
6
CONTINUOUS
10
-2615.0635
20
-10250.045
30
0
11
-3481.0976
21
-9750.04
31
0
0
LINE
8
PIPES
6
CONTINUOUS
10
-3481.0976
20
-9750.04
30
0
11
-4347.123
21
-9250.04
31
0
0
LINE
8
PIPES
6
CONTINUOUS
10
-4347.123
20
-9250.04
30
0
11
-3481.0976
21
-8750.04
31
0
0
LINE
8
PIPES
6
CONTINUOUS
10
-3481.0976
20
-8750.04
30
0
11
-2615.0722
21
-9250.04
31
0
0
LINE
8
PIPES
6
CONTINUOUS
10
-2615.0722
20
-9250.04
30
0
11
-3481.0976
21
-9750.04
31
0
0
LINE
8
PIPES
6
CONTINUOUS
10
-2615.0722
20
-9250.04
30
0
11
-1749.0381
21
-9750.045
31
0
0
LINE
8
PIPES
6
CONTINUOUS
10
-1749.0381
20
-9750.045
30
0
11
-2615.0635
21
-10250.045
31
0
0
LINE
8
PIPES
6
CONTINUOUS
10
-1749.0381
20
-9750.045
30
0
11
-883.0127
21
-10250.045
31
0
0
LINE
8
PIPES
6
CONTINUOUS
10
-883.0127
20
-10250.045
30
0
11
-1749.0381
21
-10750.045
31
0
0
LINE
8
PIPES
6
CONTINUOUS
10
-883.0127
20
-10250.045
30
0
11
-16.9873
21
-10750.045
31
0
0
LINE
8
PIPES
6
CONTINUOUS
10
-16.9873
20
-10750.045
30
0
11
1282.0508
21
-10000.045
31
0
0
LINE
8
PIPES
6
CONTINUOUS
10
1282.0508
20
-10000.045
30
0
11
416.0254
21
-9500.045
31
0
0
LINE
8
PIPES
6
CONTINUOUS
10
416.0254
20
-9500.045
30
0
11
-883.0127
21
-10250.045
31
0
0
LINE
8
PIPES
6
CONTINUOUS
10
416.0254
20
-9500.045
30
0
11
1715.0722
21
-8750.04
31
0
0
LINE
8
PIPES
6
CONTINUOUS
10
1715.0722
20
-8750.04
30
0
11
2581.0976
21
-9250.04
31
0
0
LINE
8
PIPES
6
CONTINUOUS
10
2581.0976
20
-9250.04
30
0
11
1282.0508
21
-10000.045
31
0
0
LINE
8
PIPES
6
CONTINUOUS
10
2581.0976
20
-9250.04
30
0
11
3447.123
21
-8750.04
31
0
0
LINE
8
PIPES
6
CONTINUOUS
10
3447.123
20
-8750.04
30
0
11
2581.0976
21
-8250.04
31
0
0
LINE
8
PIPES
6
CONTINUOUS
10
2581.0976
20
-8250.04
30
0
11
1715.0722
21
-8750.04
31
0
0
LINE
8
PIPES
6
CONTINUOUS
10
1715.0722
20
-8750.04
30
0
11
849.0468
21
-8250.04
31
0
0
LINE
8
PIPES
6
CONTINUOUS
10
849.0468
20
-8250.04
30
0
11
1715.0722
21
-7750.04
31
0
0
LINE
8
PIPES
6
CONTINUOUS
10
1715.0722
20
-7750.04
30
0
11
849.0381
21
-7250.035
31
0
0
LINE
8
PIPES
6
CONTINUOUS
10
849.0381
20
-7250.035
30
0
11
-16.9873
21
-6750.035
31
0
0
LINE
8
PIPES
6
CONTINUOUS
10
-16.9873
20
-6750.035
30
0
11
-883.0127
21
-7250.035
31
0
0
LINE
8
PIPES
6
CONTINUOUS
10
-883.0127
20
-7250.035
30
0
11
-16.9873
21
-7750.035
31
0
0
LINE
8
PIPES
6
CONTINUOUS
10
-16.9873
20
-7750.035
30
0
11
-1316.0341
21
-8500.04
31
0
0
LINE
8
PIPES
6
CONTINUOUS
10
-1316.0341
20
-8500.04
30
0
11
-2182.0595
21
-8000.04
31
0
0
LINE
8
PIPES
6
CONTINUOUS
10
-2182.0595
20
-8000.04
30
0
11
-883.0127
21
-7250.035
31
0
0
LINE
8
PIPES
6
CONTINUOUS
10
-16.9873
20
-7750.035
30
0
11
849.0381
21
-7250.035
31
0
0
LINE
8
PIPES
6
CONTINUOUS
10
-16.9873
20
-7750.035
30
0
11
849.0468
21
-8250.04
31
0
0
LINE
8
PIPES
6
CONTINUOUS
10
1715.0722
20
-7750.04
30
0
11
2581.0976
21
-8250.04
31
0
0
LINE
8
PIPES
6
CONTINUOUS
10
-2182.0595
20
-8000.04
30
0
11
-3481.0976
21
-8750.04
31
0
0
LINE
8
PIPES
6
CONTINUOUS
10
-2615.0722
20
-9250.04
30
0
11
-1316.0341
21
-8500.04
31
0
0
LINE
8
PIPES
6
CONTINUOUS
10
-883.0127
20
-11250.045
30
0
11
-883.0127
21
-10750.045
31
0
0
LINE
8
PIPES
6
CONTINUOUS
10
-1749.0381
20
-10750.045
30
0
11
-1749.0381
21
-10250.045
31
0
0
LINE
8
PIPES
6
CONTINUOUS
10
-2615.0635
20
-10250.045
30
0
11
-2615.0635
21
-9750.045
31
0
0
LINE
8
PIPES
6
CONTINUOUS
10
-3481.0976
20
-9750.04
30
0
11
-3481.0976
21
-9250.04
31
0
0
LINE
8
PIPES
6
CONTINUOUS
10
-4347.123
20
-9250.04
30
0
11
-4347.123
21
-8750.04
31
0
0
LINE
8
PIPES
6
CONTINUOUS
10
-3481.0976
20
-8750.04
30
0
11
-3481.0976
21
-8250.04
31
0
0
LINE
8
PIPES
6
CONTINUOUS
10
-2615.0722
20
-9250.04
30
0
11
-2615.0722
21
-8750.04
31
0
0
LINE
8
PIPES
6
CONTINUOUS
10
-1749.0381
20
-9750.045
30
0
11
-1749.0381
21
-9250.045
31
0
0
LINE
8
PIPES
6
CONTINUOUS
10
-883.0127
20
-10250.045
30
0
11
-883.0127
21
-9750.045
31
0
0
LINE
8
PIPES
6
CONTINUOUS
10
-16.9873
20
-10750.045
30
0
11
-16.9873
21
-10250.045
31
0
0
LINE
8
PIPES
6
CONTINUOUS
10
1282.0508
20
-10000.045
30
0
11
1282.0508
21
-9500.045
31
0
0
LINE
8
PIPES
6
CONTINUOUS
10
416.0254
20
-9500.045
30
0
11
416.0254
21
-9000.045
31
0
0
LINE
8
PIPES
6
CONTINUOUS
10
1715.0722
20
-8750.04
30
0
11
1715.0722
21
-8250.04
31
0
0
LINE
8
PIPES
6
CONTINUOUS
10
2581.0976
20
-9250.04
30
0
11
2581.0976
21
-8750.04
31
0
0
LINE
8
PIPES
6
CONTINUOUS
10
3447.123
20
-8750.04
30
0
11
3447.123
21
-8250.04
31
0
0
LINE
8
PIPES
6
CONTINUOUS
10
2581.0976
20
-8250.04
30
0
11
2581.0976
21
-7750.04
31
0
0
LINE
8
PIPES
6
CONTINUOUS
10
849.0468
20
-8250.04
30
0
11
849.0468
21
-7750.04
31
0
0
LINE
8
PIPES
6
CONTINUOUS
10
1715.0722
20
-7750.04
30
0
11
1715.0722
21
-7250.04
31
0
0
LINE
8
PIPES
6
CONTINUOUS
10
849.0381
20
-7250.035
30
0
11
849.0381
21
-6750.035
31
0
0
LINE
8
PIPES
6
CONTINUOUS
10
-16.9873
20
-6750.035
30
0
11
-16.9873
21
-6250.035
31
0
0
LINE
8
PIPES
6
CONTINUOUS
10
-883.0127
20
-7250.035
30
0
11
-883.0127
21
-6750.035
31
0
0
LINE
8
PIPES
6
CONTINUOUS
10
-16.9873
20
-7750.035
30
0
11
-16.9873
21
-7250.035
31
0
0
LINE
8
PIPES
6
CONTINUOUS
10
-1316.0341
20
-8500.04
30
0
11
-1316.0341
21
-8000.04
31
0
0
LINE
8
PIPES
6
CONTINUOUS
10
-2182.0595
20
-8000.04
30
0
11
-2182.0595
21
-7500.04
31
0
0
LINE
8
PIPES
6
CONTINUOUS
10
-883.0127
20
-9250.045
30
0
11
-1749.0381
21
-8750.045
31
0
0
LINE
8
PIPES
6
CONTINUOUS
10
-1749.0381
20
-8750.045
30
0
11
-2615.0635
21
-8250.045
31
0
0
LINE
8
PIPES
6
CONTINUOUS
10
-2615.0635
20
-8250.045
30
0
11
-3481.0976
21
-7750.04
31
0
0
LINE
8
PIPES
6
CONTINUOUS
10
-3481.0976
20
-7750.04
30
0
11
-4347.123
21
-7250.04
31
0
0
LINE
8
PIPES
6
CONTINUOUS
10
-4347.123
20
-7250.04
30
0
11
-3481.0976
21
-6750.04
31
0
0
LINE
8
PIPES
6
CONTINUOUS
10
-3481.0976
20
-6750.04
30
0
11
-2615.0722
21
-7250.04
31
0
0
LINE
8
PIPES
6
CONTINUOUS
10
-2615.0722
20
-7250.04
30
0
11
-3481.0976
21
-7750.04
31
0
0
LINE
8
PIPES
6
CONTINUOUS
10
-2615.0722
20
-7250.04
30
0
11
-1749.0381
21
-7750.045
31
0
0
LINE
8
PIPES
6
CONTINUOUS
10
-1749.0381
20
-7750.045
30
0
11
-2615.0635
21
-8250.045
31
0
0
LINE
8
PIPES
6
CONTINUOUS
10
-1749.0381
20
-7750.045
30
0
11
-883.0127
21
-8250.045
31
0
0
LINE
8
PIPES
6
CONTINUOUS
10
-883.0127
20
-8250.045
30
0
11
-1749.0381
21
-8750.045
31
0
0
LINE
8
PIPES
6
CONTINUOUS
10
-883.0127
20
-8250.045
30
0
11
-16.9873
21
-8750.045
31
0
0
LINE
8
PIPES
6
CONTINUOUS
10
-16.9873
20
-8750.045
30
0
11
1282.0508
21
-8000.045
31
0
0
LINE
8
PIPES
6
CONTINUOUS
10
1282.0508
20
-8000.045
30
0
11
416.0254
21
-7500.045
31
0
0
LINE
8
PIPES
6
CONTINUOUS
10
416.0254
20
-7500.045
30
0
11
-883.0127
21
-8250.045
31
0
0
LINE
8
PIPES
6
CONTINUOUS
10
416.0254
20
-7500.045
30
0
11
1715.0722
21
-6750.04
31
0
0
LINE
8
PIPES
6
CONTINUOUS
10
1715.0722
20
-6750.04
30
0
11
2581.0976
21
-7250.04
31
0
0
LINE
8
PIPES
6
CONTINUOUS
10
2581.0976
20
-7250.04
30
0
11
1282.0508
21
-8000.045
31
0
0
LINE
8
PIPES
6
CONTINUOUS
10
2581.0976
20
-7250.04
30
0
11
3447.123
21
-6750.04
31
0
0
LINE
8
PIPES
6
CONTINUOUS
10
3447.123
20
-6750.04
30
0
11
2581.0976
21
-6250.04
31
0
0
LINE
8
PIPES
6
CONTINUOUS
10
2581.0976
20
-6250.04
30
0
11
1715.0722
21
-6750.04
31
0
0
LINE
8
PIPES
6
CONTINUOUS
10
1715.0722
20
-6750.04
30
0
11
849.0468
21
-6250.04
31
0
0
LINE
8
PIPES
6
CONTINUOUS
10
849.0468
20
-6250.04
30
0
11
1715.0722
21
-5750.04
31
0
0
LINE
8
PIPES
6
CONTINUOUS
10
1715.0722
20
-5750.04
30
0
11
849.0381
21
-5250.035
31
0
0
LINE
8
PIPES
6
CONTINUOUS
10
849.0381
20
-5250.035
30
0
11
-16.9873
21
-4750.035
31
0
0
LINE
8
PIPES
6
CONTINUOUS
10
-16.9873
20
-4750.035
30
0
11
-883.0127
21
-5250.035
31
0
0
LINE
8
PIPES
6
CONTINUOUS
10
-883.0127
20
-5250.035
30
0
11
-16.9873
21
-5750.035
31
0
0
LINE
8
PIPES
6
CONTINUOUS
10
-16.9873
20
-5750.035
30
0
11
-1316.0341
21
-6500.04
31
0
0
LINE
8
PIPES
6
CONTINUOUS
10
-1316.0341
20
-6500.04
30
0
11
-2182.0595
21
-6000.04
31
0
0
LINE
8
PIPES
6
CONTINUOUS
10
-2182.0595
20
-6000.04
30
0
11
-883.0127
21
-5250.035
31
0
0
LINE
8
PIPES
6
CONTINUOUS
10
-16.9873
20
-5750.035
30
0
11
849.0381
21
-5250.035
31
0
0
LINE
8
PIPES
6
CONTINUOUS
10
-16.9873
20
-5750.035
30
0
11
849.0468
21
-6250.04
31
0
0
LINE
8
PIPES
6
CONTINUOUS
10
1715.0722
20
-5750.04
30
0
11
2581.0976
21
-6250.04
31
0
0
LINE
8
PIPES
6
CONTINUOUS
10
-2182.0595
20
-6000.04
30
0
11
-3481.0976
21
-6750.04
31
0
0
LINE
8
PIPES
6
CONTINUOUS
10
-2615.0722
20
-7250.04
30
0
11
-1316.0341
21
-6500.04
31
0
0
LINE
8
PIPES
6
CONTINUOUS
10
-1749.0381
20
-8750.045
30
0
11
-1749.0381
21
-6750.055
31
0
0
LINE
8
PIPES
6
CONTINUOUS
10
-2615.0635
20
-8250.045
30
0
11
-2615.0635
21
-6250.055
31
0
0
LINE
8
PIPES
6
CONTINUOUS
10
-3481.0976
20
-7750.04
30
0
11
-3481.0976
21
-5750.05
31
0
0
LINE
8
PIPES
6
CONTINUOUS
10
-4347.123
20
-7250.04
30
0
11
-4347.123
21
-5250.05
31
0
0
LINE
8
PIPES
6
CONTINUOUS
10
-3481.0976
20
-6750.04
30
0
11
-3481.0976
21
-4750.05
31
0
0
LINE
8
PIPES
6
CONTINUOUS
10
-2615.0722
20
-7250.04
30
0
11
-2615.0722
21
-5250.05
31
0
0
LINE
8
PIPES
6
CONTINUOUS
10
-1749.0381
20
-7750.045
30
0
11
-1749.0381
21
-5750.055
31
0
0
LINE
8
PIPES
6
CONTINUOUS
10
-883.0127
20
-8250.045
30
0
11
-883.0127
21
-6250.055
31
0
0
LINE
8
PIPES
6
CONTINUOUS
10
1282.0508
20
-8000.045
30
0
11
1282.0508
21
-6000.055
31
0
0
LINE
8
PIPES
6
CONTINUOUS
10
416.0254
20
-7500.045
30
0
11
416.0254
21
-5500.055
31
0
0
LINE
8
PIPES
6
CONTINUOUS
10
1715.0722
20
-6750.04
30
0
11
1715.0722
21
-4750.05
31
0
0
LINE
8
PIPES
6
CONTINUOUS
10
2581.0976
20
-7250.04
30
0
11
2581.0976
21
-5250.05
31
0
0
LINE
8
PIPES
6
CONTINUOUS
10
3447.123
20
-6750.04
30
0
11
3447.123
21
-4750.05
31
0
0
LINE
8
PIPES
6
CONTINUOUS
10
2581.0976
20
-6250.04
30
0
11
2581.0976
21
-4250.05
31
0
0
LINE
8
PIPES
6
CONTINUOUS
10
849.0468
20
-6250.04
30
0
11
849.0468
21
-4250.05
31
0
0
LINE
8
PIPES
6
CONTINUOUS
10
1715.0722
20
-5750.04
30
0
11
1715.0722
21
-3750.05
31
0
0
LINE
8
PIPES
6
CONTINUOUS
10
849.0381
20
-5250.035
30
0
11
849.0381
21
-3250.045
31
0
0
LINE
8
PIPES
6
CONTINUOUS
10
-16.9873
20
-4750.035
30
0
11
-16.9873
21
-2750.045
31
0
0
LINE
8
PIPES
6
CONTINUOUS
10
-883.0127
20
-5250.035
30
0
11
-883.0127
21
-3250.045
31
0
0
LINE
8
PIPES
6
CONTINUOUS
10
-16.9873
20
-5750.035
30
0
11
-16.9873
21
-3750.045
31
0
0
LINE
8
PIPES
6
CONTINUOUS
10
-1316.0341
20
-6500.04
30
0
11
-1316.0341
21
-4500.05
31
0
0
LINE
8
PIPES
6
CONTINUOUS
10
-2182.0595
20
-6000.04
30
0
11
-2182.0595
21
-4000.05
31
0
0
LINE
8
PIPES
6
CONTINUOUS
10
-883.0127
20
-7250.055
30
0
11
-1749.0381
21
-6750.055
31
0
0
LINE
8
PIPES
6
CONTINUOUS
10
-1749.0381
20
-6750.055
30
0
11
-2615.0635
21
-6250.055
31
0
0
LINE
8
PIPES
6
CONTINUOUS
10
-2615.0635
20
-6250.055
30
0
11
-3481.0976
21
-5750.05
31
0
0
LINE
8
PIPES
6
CONTINUOUS
10
-3481.0976
20
-5750.05
30
0
11
-4347.123
21
-5250.05
31
0
0
LINE
8
PIPES
6
CONTINUOUS
10
-4347.123
20
-5250.05
30
0
11
-3481.0976
21
-4750.05
31
0
0
LINE
8
PIPES
6
CONTINUOUS
10
-3481.0976
20
-4750.05
30
0
11
-2615.0722
21
-5250.05
31
0
0
LINE
8
PIPES
6
CONTINUOUS
10
-2615.0722
20
-5250.05
30
0
11
-3481.0976
21
-5750.05
31
0
0
LINE
8
PIPES
6
CONTINUOUS
10
-2615.0722
20
-5250.05
30
0
11
-1749.0381
21
-5750.055
31
0
0
LINE
8
PIPES
6
CONTINUOUS
10
-1749.0381
20
-5750.055
30
0
11
-2615.0635
21
-6250.055
31
0
0
LINE
8
PIPES
6
CONTINUOUS
10
-1749.0381
20
-5750.055
30
0
11
-883.0127
21
-6250.055
31
0
0
LINE
8
PIPES
6
CONTINUOUS
10
-883.0127
20
-6250.055
30
0
11
-1749.0381
21
-6750.055
31
0
0
LINE
8
PIPES
6
CONTINUOUS
10
-883.0127
20
-6250.055
30
0
11
-16.9873
21
-6750.055
31
0
0
LINE
8
PIPES
6
CONTINUOUS
10
-16.9873
20
-6750.055
30
0
11
1282.0508
21
-6000.055
31
0
0
LINE
8
PIPES
6
CONTINUOUS
10
1282.0508
20
-6000.055
30
0
11
416.0254
21
-5500.055
31
0
0
LINE
8
PIPES
6
CONTINUOUS
10
416.0254
20
-5500.055
30
0
11
-883.0127
21
-6250.055
31
0
0
LINE
8
PIPES
6
CONTINUOUS
10
416.0254
20
-5500.055
30
0
11
1715.0722
21
-4750.05
31
0
0
LINE
8
PIPES
6
CONTINUOUS
10
1715.0722
20
-4750.05
30
0
11
2581.0976
21
-5250.05
31
0
0
LINE
8
PIPES
6
CONTINUOUS
10
2581.0976
20
-5250.05
30
0
11
1282.0508
21
-6000.055
31
0
0
LINE
8
PIPES
6
CONTINUOUS
10
2581.0976
20
-5250.05
30
0
11
3447.123
21
-4750.05
31
0
0
LINE
8
PIPES
6
CONTINUOUS
10
3447.123
20
-4750.05
30
0
11
2581.0976
21
-4250.05
31
0
0
LINE
8
PIPES
6
CONTINUOUS
10
2581.0976
20
-4250.05
30
0
11
1715.0722
21
-4750.05
31
0
0
LINE
8
PIPES
6
CONTINUOUS
10
1715.0722
20
-4750.05
30
0
11
849.0468
21
-4250.05
31
0
0
LINE
8
PIPES
6
CONTINUOUS
10
849.0468
20
-4250.05
30
0
11
1715.0722
21
-3750.05
31
0
0
LINE
8
PIPES
6
CONTINUOUS
10
1715.0722
20
-3750.05
30
0
11
849.0381
21
-3250.045
31
0
0
LINE
8
PIPES
6
CONTINUOUS
10
849.0381
20
-3250.045
30
0
11
-16.9873
21
-2750.045
31
0
0
LINE
8
PIPES
6
CONTINUOUS
10
-16.9873
20
-2750.045
30
0
11
-883.0127
21
-3250.045
31
0
0
LINE
8
PIPES
6
CONTINUOUS
10
-883.0127
20
-3250.045
30
0
11
-16.9873
21
-3750.045
31
0
0
LINE
8
PIPES
6
CONTINUOUS
10
-16.9873
20
-3750.045
30
0
11
-1316.0341
21
-4500.05
31
0
0
LINE
8
PIPES
6
CONTINUOUS
10
-1316.0341
20
-4500.05
30
0
11
-2182.0595
21
-4000.05
31
0
0
LINE
8
PIPES
6
CONTINUOUS
10
-2182.0595
20
-4000.05
30
0
11
-883.0127
21
-3250.045
31
0
0
LINE
8
PIPES
6
CONTINUOUS
10
-16.9873
20
-3750.045
30
0
11
849.0381
21
-3250.045
31
0
0
LINE
8
PIPES
6
CONTINUOUS
10
-16.9873
20
-3750.045
30
0
11
849.0468
21
-4250.05
31
0
0
LINE
8
PIPES
6
CONTINUOUS
10
1715.0722
20
-3750.05
30
0
11
2581.0976
21
-4250.05
31
0
0
LINE
8
PIPES
6
CONTINUOUS
10
-2182.0595
20
-4000.05
30
0
11
-3481.0976
21
-4750.05
31
0
0
LINE
8
PIPES
6
CONTINUOUS
10
-2615.0722
20
-5250.05
30
0
11
-1316.0341
21
-4500.05
31
0
0
LINE
8
PIPES
6
CONTINUOUS
10
-883.0127
20
-7250.055
30
0
11
-883.0127
21
-5250.055
31
0
0
LINE
8
PIPES
6
CONTINUOUS
10
-1749.0381
20
-6750.055
30
0
11
-1749.0381
21
-4750.055
31
0
0
LINE
8
PIPES
6
CONTINUOUS
10
-2615.0635
20
-6250.055
30
0
11
-2615.0635
21
-4250.055
31
0
0
LINE
8
PIPES
6
CONTINUOUS
10
-3481.0976
20
-5750.05
30
0
11
-3481.0976
21
-3750.05
31
0
0
LINE
8
PIPES
6
CONTINUOUS
10
-4347.123
20
-5250.05
30
0
11
-4347.123
21
-3250.05
31
0
0
LINE
8
PIPES
6
CONTINUOUS
10
-3481.0976
20
-4750.05
30
0
11
-3481.0976
21
-2750.05
31
0
0
LINE
8
PIPES
6
CONTINUOUS
10
-2615.0722
20
-5250.05
30
0
11
-2615.0722
21
-3250.05
31
0
0
LINE
8
PIPES
6
CONTINUOUS
10
-1749.0381
20
-5750.055
30
0
11
-1749.0381
21
-3750.055
31
0
0
LINE
8
PIPES
6
CONTINUOUS
10
-883.0127
20
-6250.055
30
0
11
-883.0127
21
-4250.055
31
0
0
LINE
8
PIPES
6
CONTINUOUS
10
-16.9873
20
-6750.055
30
0
11
-16.9873
21
-4750.055
31
0
0
LINE
8
PIPES
6
CONTINUOUS
10
1282.0508
20
-6000.055
30
0
11
1282.0508
21
-4000.055
31
0
0
LINE
8
PIPES
6
CONTINUOUS
10
416.0254
20
-5500.055
30
0
11
416.0254
21
-3500.055
31
0
0
LINE
8
PIPES
6
CONTINUOUS
10
1715.0722
20
-4750.05
30
0
11
1715.0722
21
-2750.05
31
0
0
LINE
8
PIPES
6
CONTINUOUS
10
2581.0976
20
-5250.05
30
0
11
2581.0976
21
-3250.05
31
0
0
LINE
8
PIPES
6
CONTINUOUS
10
3447.123
20
-4750.05
30
0
11
3447.123
21
-2750.05
31
0
0
LINE
8
PIPES
6
CONTINUOUS
10
2581.0976
20
-4250.05
30
0
11
2581.0976
21
-2250.05
31
0
0
LINE
8
PIPES
6
CONTINUOUS
10
849.0468
20
-4250.05
30
0
11
849.0468
21
-2250.05
31
0
0
LINE
8
PIPES
6
CONTINUOUS
10
1715.0722
20
-3750.05
30
0
11
1715.0722
21
-1750.05
31
0
0
LINE
8
PIPES
6
CONTINUOUS
10
849.0381
20
-3250.045
30
0
11
849.0381
21
-1250.045
31
0
0
LINE
8
PIPES
6
CONTINUOUS
10
-16.9873
20
-2750.045
30
0
11
-16.9873
21
-750.045
31
0
0
LINE
8
PIPES
6
CONTINUOUS
10
-883.0127
20
-3250.045
30
0
11
-883.0127
21
-1250.045
31
0
0
LINE
8
PIPES
6
CONTINUOUS
10
-16.9873
20
-3750.045
30
0
11
-16.9873
21
-1750.045
31
0
0
LINE
8
PIPES
6
CONTINUOUS
10
-1316.0341
20
-4500.05
30
0
11
-1316.0341
21
-2500.05
31
0
0
LINE
8
PIPES
6
CONTINUOUS
10
-2182.0595
20
-4000.05
30
0
11
-2182.0595
21
-2000.05
31
0
0
LINE
8
PIPES
6
CONTINUOUS
10
-883.0127
20
-5250.055
30
0
11
-1749.0381
21
-4750.055
31
0
0
LINE
8
PIPES
6
CONTINUOUS
10
-1749.0381
20
-4750.055
30
0
11
-2615.0635
21
-4250.055
31
0
0
LINE
8
PIPES
6
CONTINUOUS
10
-2615.0635
20
-4250.055
30
0
11
-3481.0976
21
-3750.05
31
0
0
LINE
8
PIPES
6
CONTINUOUS
10
-3481.0976
20
-3750.05
30
0
11
-4347.123
21
-3250.05
31
0
0
LINE
8
PIPES
6
CONTINUOUS
10
-4347.123
20
-3250.05
30
0
11
-3481.0976
21
-2750.05
31
0
0
LINE
8
PIPES
6
CONTINUOUS
10
-3481.0976
20
-2750.05
30
0
11
-2615.0722
21
-3250.05
31
0
0
LINE
8
PIPES
6
CONTINUOUS
10
-2615.0722
20
-3250.05
30
0
11
-3481.0976
21
-3750.05
31
0
0
LINE
8
PIPES
6
CONTINUOUS
10
-2615.0722
20
-3250.05
30
0
11
-1749.0381
21
-3750.055
31
0
0
LINE
8
PIPES
6
CONTINUOUS
10
-1749.0381
20
-3750.055
30
0
11
-2615.0635
21
-4250.055
31
0
0
LINE
8
PIPES
6
CONTINUOUS
10
-1749.0381
20
-3750.055
30
0
11
-883.0127
21
-4250.055
31
0
0
LINE
8
PIPES
6
CONTINUOUS
10
-883.0127
20
-4250.055
30
0
11
-1749.0381
21
-4750.055
31
0
0
LINE
8
PIPES
6
CONTINUOUS
10
-883.0127
20
-4250.055
30
0
11
-16.9873
21
-4750.055
31
0
0
LINE
8
PIPES
6
CONTINUOUS
10
-16.9873
20
-4750.055
30
0
11
1282.0508
21
-4000.055
31
0
0
LINE
8
PIPES
6
CONTINUOUS
10
1282.0508
20
-4000.055
30
0
11
416.0254
21
-3500.055
31
0
0
LINE
8
PIPES
6
CONTINUOUS
10
416.0254
20
-3500.055
30
0
11
-883.0127
21
-4250.055
31
0
0
LINE
8
PIPES
6
CONTINUOUS
10
416.0254
20
-3500.055
30
0
11
1715.0722
21
-2750.05
31
0
0
LINE
8
PIPES
6
CONTINUOUS
10
1715.0722
20
-2750.05
30
0
11
2581.0976
21
-3250.05
31
0
0
LINE
8
PIPES
6
CONTINUOUS
10
2581.0976
20
-3250.05
30
0
11
1282.0508
21
-4000.055
31
0
0
LINE
8
PIPES
6
CONTINUOUS
10
2581.0976
20
-3250.05
30
0
11
3447.123
21
-2750.05
31
0
0
LINE
8
PIPES
6
CONTINUOUS
10
3447.123
20
-2750.05
30
0
11
2581.0976
21
-2250.05
31
0
0
LINE
8
PIPES
6
CONTINUOUS
10
2581.0976
20
-2250.05
30
0
11
1715.0722
21
-2750.05
31
0
0
LINE
8
PIPES
6
CONTINUOUS
10
1715.0722
20
-2750.05
30
0
11
849.0468
21
-2250.05
31
0
0
LINE
8
PIPES
6
CONTINUOUS
10
849.0468
20
-2250.05
30
0
11
1715.0722
21
-1750.05
31
0
0
LINE
8
PIPES
6
CONTINUOUS
10
1715.0722
20
-1750.05
30
0
11
849.0381
21
-1250.045
31
0
0
LINE
8
PIPES
6
CONTINUOUS
10
849.0381
20
-1250.045
30
0
11
-16.9873
21
-750.045
31
0
0
LINE
8
PIPES
6
CONTINUOUS
10
-16.9873
20
-750.045
30
0
11
-883.0127
21
-1250.045
31
0
0
LINE
8
PIPES
6
CONTINUOUS
10
-883.0127
20
-1250.045
30
0
11
-16.9873
21
-1750.045
31
0
0
LINE
8
PIPES
6
CONTINUOUS
10
-16.9873
20
-1750.045
30
0
11
-1316.0341
21
-2500.05
31
0
0
LINE
8
PIPES
6
CONTINUOUS
10
-1316.0341
20
-2500.05
30
0
11
-2182.0595
21
-2000.05
31
0
0
LINE
8
PIPES
6
CONTINUOUS
10
-2182.0595
20
-2000.05
30
0
11
-883.0127
21
-1250.045
31
0
0
LINE
8
PIPES
6
CONTINUOUS
10
-16.9873
20
-1750.045
30
0
11
849.0381
21
-1250.045
31
0
0
LINE
8
PIPES
6
CONTINUOUS
10
-16.9873
20
-1750.045
30
0
11
849.0468
21
-2250.05
31
0
0
LINE
8
PIPES
6
CONTINUOUS
10
1715.0722
20
-1750.05
30
0
11
2581.0976
21
-2250.05
31
0
0
LINE
8
PIPES
6
CONTINUOUS
10
-2182.0595
20
-2000.05
30
0
11
-3481.0976
21
-2750.05
31
0
0
LINE
8
PIPES
6
CONTINUOUS
10
-2615.0722
20
-3250.05
30
0
11
-1316.0341
21
-2500.05
31
0
0
LINE
8
PIPES
6
CONTINUOUS
10
-883.0127
20
-5250.055
30
0
11
-883.0127
21
-4750.055
31
0
0
LINE
8
PIPES
6
CONTINUOUS
10
-1749.0381
20
-4750.055
30
0
11
-1749.0381
21
-4250.055
31
0
0
LINE
8
PIPES
6
CONTINUOUS
10
-2615.0635
20
-4250.055
30
0
11
-2615.0635
21
-3750.055
31
0
0
LINE
8
PIPES
6
CONTINUOUS
10
-3481.0976
20
-3750.05
30
0
11
-3481.0976
21
-3250.05
31
0
0
LINE
8
PIPES
6
CONTINUOUS
10
-4347.123
20
-3250.05
30
0
11
-4347.123
21
-2750.05
31
0
0
LINE
8
PIPES
6
CONTINUOUS
10
-3481.0976
20
-2750.05
30
0
11
-3481.0976
21
-2250.05
31
0
0
LINE
8
PIPES
6
CONTINUOUS
10
-2615.0722
20
-3250.05
30
0
11
-2615.0722
21
-2750.05
31
0
0
LINE
8
PIPES
6
CONTINUOUS
10
-1749.0381
20
-3750.055
30
0
11
-1749.0381
21
-3250.055
31
0
0
LINE
8
PIPES
6
CONTINUOUS
10
-883.0127
20
-4250.055
30
0
11
-883.0127
21
-3750.055
31
0
0
LINE
8
PIPES
6
CONTINUOUS
10
-16.9873
20
-4750.055
30
0
11
-16.9873
21
-4250.055
31
0
0
LINE
8
PIPES
6
CONTINUOUS
10
1282.0508
20
-4000.055
30
0
11
1282.0508
21
-3500.055
31
0
0
LINE
8
PIPES
6
CONTINUOUS
10
416.0254
20
-3500.055
30
0
11
416.0254
21
-3000.055
31
0
0
LINE
8
PIPES
6
CONTINUOUS
10
1715.0722
20
-2750.05
30
0
11
1715.0722
21
-2250.05
31
0
0
LINE
8
PIPES
6
CONTINUOUS
10
2581.0976
20
-3250.05
30
0
11
2581.0976
21
-2750.05
31
0
0
LINE
8
PIPES
6
CONTINUOUS
10
3447.123
20
-2750.05
30
0
11
3447.123
21
-2250.05
31
0
0
LINE
8
PIPES
6
CONTINUOUS
10
2581.0976
20
-2250.05
30
0
11
2581.0976
21
-1750.05
31
0
0
LINE
8
PIPES
6
CONTINUOUS
10
849.0468
20
-2250.05
30
0
11
849.0468
21
-1750.05
31
0
0
LINE
8
PIPES
6
CONTINUOUS
10
1715.0722
20
-1750.05
30
0
11
1715.0722
21
-1250.05
31
0
0
LINE
8
PIPES
6
CONTINUOUS
10
849.0381
20
-1250.045
30
0
11
849.0381
21
-750.045
31
0
0
LINE
8
PIPES
6
CONTINUOUS
10
-16.9873
20
-750.045
30
0
11
-16.9873
21
-250.045
31
0
0
LINE
8
PIPES
6
CONTINUOUS
10
-883.0127
20
-1250.045
30
0
11
-883.0127
21
-750.045
31
0
0
LINE
8
PIPES
6
CONTINUOUS
10
-16.9873
20
-1750.045
30
0
11
-16.9873
21
-1250.045
31
0
0
LINE
8
PIPES
6
CONTINUOUS
10
-1316.0341
20
-2500.05
30
0
11
-1316.0341
21
-2000.05
31
0
0
LINE
8
PIPES
6
CONTINUOUS
10
-2182.0595
20
-2000.05
30
0
11
-2182.0595
21
-1500.05
31
0
0
LINE
8
PIPES
6
CONTINUOUS
10
-883.0127
20
-3250.055
30
0
11
-1749.0381
21
-2750.055
31
0
0
LINE
8
PIPES
6
CONTINUOUS
10
-1749.0381
20
-2750.055
30
0
11
-2615.0635
21
-2250.055
31
0
0
LINE
8
PIPES
6
CONTINUOUS
10
-2615.0635
20
-2250.055
30
0
11
-3481.0976
21
-1750.05
31
0
0
LINE
8
PIPES
6
CONTINUOUS
10
-3481.0976
20
-1750.05
30
0
11
-4347.123
21
-1250.05
31
0
0
LINE
8
PIPES
6
CONTINUOUS
10
-4347.123
20
-1250.05
30
0
11
-3481.0976
21
-750.05
31
0
0
LINE
8
PIPES
6
CONTINUOUS
10
-3481.0976
20
-750.05
30
0
11
-2615.0722
21
-1250.05
31
0
0
LINE
8
PIPES
6
CONTINUOUS
10
-2615.0722
20
-1250.05
30
0
11
-3481.0976
21
-1750.05
31
0
0
LINE
8
PIPES
6
CONTINUOUS
10
-2615.0722
20
-1250.05
30
0
11
-1749.0381
21
-1750.055
31
0
0
LINE
8
PIPES
6
CONTINUOUS
10
-1749.0381
20
-1750.055
30
0
11
-2615.0635
21
-2250.055
31
0
0
LINE
8
PIPES
6
CONTINUOUS
10
-1749.0381
20
-1750.055
30
0
11
-883.0127
21
-2250.055
31
0
0
LINE
8
PIPES
6
CONTINUOUS
10
-883.0127
20
-2250.055
30
0
11
-1749.0381
21
-2750.055
31
0
0
LINE
8
PIPES
6
CONTINUOUS
10
-883.0127
20
-2250.055
30
0
11
-16.9873
21
-2750.055
31
0
0
LINE
8
PIPES
6
CONTINUOUS
10
-16.9873
20
-2750.055
30
0
11
1282.0508
21
-2000.055
31
0
0
LINE
8
PIPES
6
CONTINUOUS
10
1282.0508
20
-2000.055
30
0
11
416.0254
21
-1500.055
31
0
0
LINE
8
PIPES
6
CONTINUOUS
10
416.0254
20
-1500.055
30
0
11
-883.0127
21
-2250.055
31
0
0
LINE
8
PIPES
6
CONTINUOUS
10
416.0254
20
-1500.055
30
0
11
1715.0722
21
-750.05
31
0
0
LINE
8
PIPES
6
CONTINUOUS
10
1715.0722
20
-750.05
30
0
11
2581.0976
21
-1250.05
31
0
0
LINE
8
PIPES
6
CONTINUOUS
10
2581.0976
20
-1250.05
30
0
11
1282.0508
21
-2000.055
31
0
0
LINE
8
PIPES
6
CONTINUOUS
10
2581.0976
20
-1250.05
30
0
11
3447.123
21
-750.05
31
0
0
LINE
8
PIPES
6
CONTINUOUS
10
3447.123
20
-750.05
30
0
11
2581.0976
21
-250.05
31
0
0
LINE
8
PIPES
6
CONTINUOUS
10
2581.0976
20
-250.05
30
0
11
1715.0722
21
-750.05
31
0
0
LINE
8
PIPES
6
CONTINUOUS
10
1715.0722
20
-750.05
30
0
11
849.0468
21
-250.05
31
0
0
LINE
8
PIPES
6
CONTINUOUS
10
849.0468
20
-250.05
30
0
11
1715.0722
21
249.95
31
0
0
LINE
8
PIPES
6
CONTINUOUS
10
1715.0722
20
249.95
30
0
11
849.0381
21
749.955
31
0
0
LINE
8
PIPES
6
CONTINUOUS
10
849.0381
20
749.955
30
0
11
-16.9873
21
1249.955
31
0
0
LINE
8
PIPES
6
CONTINUOUS
10
-16.9873
20
1249.955
30
0
11
-883.0127
21
749.955
31
0
0
LINE
8
PIPES
6
CONTINUOUS
10
-883.0127
20
749.955
30
0
11
-16.9873
21
249.955
31
0
0
LINE
8
PIPES
6
CONTINUOUS
10
-16.9873
20
249.955
30
0
11
-1316.0341
21
-500.05
31
0
0
LINE
8
PIPES
6
CONTINUOUS
10
-1316.0341
20
-500.05
30
0
11
-2182.0595
21
-0.05
31
0
0
LINE
8
PIPES
6
CONTINUOUS
10
-2182.0595
20
-0.05
30
0
11
-883.0127
21
749.955
31
0
0
LINE
8
PIPES
6
CONTINUOUS
10
-16.9873
20
249.955
30
0
11
849.0381
21
749.955
31
0
0
LINE
8
PIPES
6
CONTINUOUS
10
-16.9873
20
249.955
30
0
11
849.0468
21
-250.05
31
0
0
LINE
8
PIPES
6
CONTINUOUS
10
1715.0722
20
249.95
30
0
11
2581.0976
21
-250.05
31
0
0
LINE
8
PIPES
6
CONTINUOUS
10
-2182.0595
20
-0.05
30
0
11
-3481.0976
21
-750.05
31
0
0
LINE
8
PIPES
6
CONTINUOUS
10
-2615.0722
20
-1250.05
30
0
11
-1316.0341
21
-500.05
31
0
0
LINE
8
PIPES
6
CONTINUOUS
10
-1749.0381
20
-2750.055
30
0
11
-1749.0381
21
-750.055
31
0
0
LINE
8
PIPES
6
CONTINUOUS
10
-2615.0635
20
-2250.055
30
0
11
-2615.0635
21
-250.055
31
0
0
LINE
8
PIPES
6
CONTINUOUS
10
-3481.0976
20
-1750.05
30
0
11
-3481.0976
21
249.95
31
0
0
LINE
8
PIPES
6
CONTINUOUS
10
-4347.123
20
-1250.05
30
0
11
-4347.123
21
749.95
31
0
0
LINE
8
PIPES
6
CONTINUOUS
10
-3481.0976
20
-750.05
30
0
11
-3481.0976
21
1249.95
31
0
0
LINE
8
PIPES
6
CONTINUOUS
10
-2615.0722
20
-1250.05
30
0
11
-2615.0722
21
749.95
31
0
0
LINE
8
PIPES
6
CONTINUOUS
10
-1749.0381
20
-1750.055
30
0
11
-1749.0381
21
249.945
31
0
0
LINE
8
PIPES
6
CONTINUOUS
10
-883.0127
20
-2250.055
30
0
11
-883.0127
21
-250.055
31
0
0
LINE
8
PIPES
6
CONTINUOUS
10
1282.0508
20
-2000.055
30
0
11
1282.0508
21
-0.055
31
0
0
LINE
8
PIPES
6
CONTINUOUS
10
416.0254
20
-1500.055
30
0
11
416.0254
21
499.945
31
0
0
LINE
8
PIPES
6
CONTINUOUS
10
1715.0722
20
-750.05
30
0
11
1715.0722
21
1249.95
31
0
0
LINE
8
PIPES
6
CONTINUOUS
10
2581.0976
20
-1250.05
30
0
11
2581.0976
21
749.95
31
0
0
LINE
8
PIPES
6
CONTINUOUS
10
3447.123
20
-750.05
30
0
11
3447.123
21
1249.95
31
0
0
LINE
8
PIPES
6
CONTINUOUS
10
2581.0976
20
-250.05
30
0
11
2581.0976
21
1749.95
31
0
0
LINE
8
PIPES
6
CONTINUOUS
10
849.0468
20
-250.05
30
0
11
849.0468
21
1749.95
31
0
0
LINE
8
PIPES
6
CONTINUOUS
10
1715.0722
20
249.95
30
0
11
1715.0722
21
2249.95
31
0
0
LINE
8
PIPES
6
CONTINUOUS
10
849.0381
20
749.955
30
0
11
849.0381
21
2749.955
31
0
0
LINE
8
PIPES
6
CONTINUOUS
10
-16.9873
20
1249.955
30
0
11
-16.9873
21
3249.955
31
0
0
LINE
8
PIPES
6
CONTINUOUS
10
-883.0127
20
749.955
30
0
11
-883.0127
21
2749.955
31
0
0
LINE
8
PIPES
6
CONTINUOUS
10
-16.9873
20
249.955
30
0
11
-16.9873
21
2249.955
31
0
0
LINE
8
PIPES
6
CONTINUOUS
10
-1316.0341
20
-500.05
30
0
11
-1316.0341
21
1499.95
31
0
0
LINE
8
PIPES
6
CONTINUOUS
10
-2182.0595
20
-0.05
30
0
11
-2182.0595
21
1999.95
31
0
0
LINE
8
PIPES
6
CONTINUOUS
10
-883.0127
20
-1250.055
30
0
11
-1749.0381
21
-750.055
31
0
0
LINE
8
PIPES
6
CONTINUOUS
10
-1749.0381
20
-750.055
30
0
11
-2615.0635
21
-250.055
31
0
0
LINE
8
PIPES
6
CONTINUOUS
10
-2615.0635
20
-250.055
30
0
11
-3481.0976
21
249.95
31
0
0
LINE
8
PIPES
6
CONTINUOUS
10
-3481.0976
20
249.95
30
0
11
-4347.123
21
749.95
31
0
0
LINE
8
PIPES
6
CONTINUOUS
10
-4347.123
20
749.95
30
0
11
-3481.0976
21
1249.95
31
0
0
LINE
8
PIPES
6
CONTINUOUS
10
-3481.0976
20
1249.95
30
0
11
-2615.0722
21
749.95
31
0
0
LINE
8
PIPES
6
CONTINUOUS
10
-2615.0722
20
749.95
30
0
11
-3481.0976
21
249.95
31
0
0
LINE
8
PIPES
6
CONTINUOUS
10
-2615.0722
20
749.95
30
0
11
-1749.0381
21
249.945
31
0
0
LINE
8
PIPES
6
CONTINUOUS
10
-1749.0381
20
249.945
30
0
11
-2615.0635
21
-250.055
31
0
0
LINE
8
PIPES
6
CONTINUOUS
10
-1749.0381
20
249.945
30
0
11
-883.0127
21
-250.055
31
0
0
LINE
8
PIPES
6
CONTINUOUS
10
-883.0127
20
-250.055
30
0
11
-1749.0381
21
-750.055
31
0
0
LINE
8
PIPES
6
CONTINUOUS
10
-883.0127
20
-250.055
30
0
11
-16.9873
21
-750.055
31
0
0
LINE
8
PIPES
6
CONTINUOUS
10
-16.9873
20
-750.055
30
0
11
1282.0508
21
-0.055
31
0
0
LINE
8
PIPES
6
CONTINUOUS
10
1282.0508
20
-0.055
30
0
11
416.0254
21
499.945
31
0
0
LINE
8
PIPES
6
CONTINUOUS
10
416.0254
20
499.945
30
0
11
-883.0127
21
-250.055
31
0
0
LINE
8
PIPES
6
CONTINUOUS
10
416.0254
20
499.945
30
0
11
1715.0722
21
1249.95
31
0
0
LINE
8
PIPES
6
CONTINUOUS
10
1715.0722
20
1249.95
30
0
11
2581.0976
21
749.95
31
0
0
LINE
8
PIPES
6
CONTINUOUS
10
2581.0976
20
749.95
30
0
11
1282.0508
21
-0.055
31
0
0
LINE
8
PIPES
6
CONTINUOUS
10
2581.0976
20
749.95
30
0
11
3447.123
21
1249.95
31
0
0
LINE
8
PIPES
6
CONTINUOUS
10
3447.123
20
1249.95
30
0
11
2581.0976
21
1749.95
31
0
0
LINE
8
PIPES
6
CONTINUOUS
10
2581.0976
20
1749.95
30
0
11
1715.0722
21
1249.95
31
0
0
LINE
8
PIPES
6
CONTINUOUS
10
1715.0722
20
1249.95
30
0
11
849.0468
21
1749.95
31
0
0
LINE
8
PIPES
6
CONTINUOUS
10
849.0468
20
1749.95
30
0
11
1715.0722
21
2249.95
31
0
0
LINE
8
PIPES
6
CONTINUOUS
10
1715.0722
20
2249.95
30
0
11
849.0381
21
2749.955
31
0
0
LINE
8
PIPES
6
CONTINUOUS
10
849.0381
20
2749.955
30
0
11
-16.9873
21
3249.955
31
0
0
LINE
8
PIPES
6
CONTINUOUS
10
-16.9873
20
3249.955
30
0
11
-883.0127
21
2749.955
31
0
0
LINE
8
PIPES
6
CONTINUOUS
10
-883.0127
20
2749.955
30
0
11
-16.9873
21
2249.955
31
0
0
LINE
8
PIPES
6
CONTINUOUS
10
-16.9873
20
2249.955
30
0
11
-1316.0341
21
1499.95
31
0
0
LINE
8
PIPES
6
CONTINUOUS
10
-1316.0341
20
1499.95
30
0
11
-2182.0595
21
1999.95
31
0
0
LINE
8
PIPES
6
CONTINUOUS
10
-2182.0595
20
1999.95
30
0
11
-883.0127
21
2749.955
31
0
0
LINE
8
PIPES
6
CONTINUOUS
10
-16.9873
20
2249.955
30
0
11
849.0381
21
2749.955
31
0
0
LINE
8
PIPES
6
CONTINUOUS
10
-16.9873
20
2249.955
30
0
11
849.0468
21
1749.95
31
0
0
LINE
8
PIPES
6
CONTINUOUS
10
1715.0722
20
2249.95
30
0
11
2581.0976
21
1749.95
31
0
0
LINE
8
PIPES
6
CONTINUOUS
10
-2182.0595
20
1999.95
30
0
11
-3481.0976
21
1249.95
31
0
0
LINE
8
PIPES
6
CONTINUOUS
10
-2615.0722
20
749.95
30
0
11
-1316.0341
21
1499.95
31
0
0
LINE
8
PIPES
6
CONTINUOUS
10
-883.0127
20
-1250.055
30
0
11
-883.0127
21
749.945
31
0
0
LINE
8
PIPES
6
CONTINUOUS
10
-1749.0381
20
-750.055
30
0
11
-1749.0381
21
1249.945
31
0
0
LINE
8
PIPES
6
CONTINUOUS
10
-2615.0635
20
-250.055
30
0
11
-2615.0635
21
1749.945
31
0
0
LINE
8
PIPES
6
CONTINUOUS
10
-3481.0976
20
249.95
30
0
11
-3481.0976
21
2249.95
31
0
0
LINE
8
PIPES
6
CONTINUOUS
10
-4347.123
20
749.95
30
0
11
-4347.123
21
2749.95
31
0
0
LINE
8
PIPES
6
CONTINUOUS
10
-3481.0976
20
1249.95
30
0
11
-3481.0976
21
3249.95
31
0
0
LINE
8
PIPES
6
CONTINUOUS
10
-2615.0722
20
749.95
30
0
11
-2615.0722
21
2749.95
31
0
0
LINE
8
PIPES
6
CONTINUOUS
10
-1749.0381
20
249.945
30
0
11
-1749.0381
21
2249.945
31
0
0
LINE
8
PIPES
6
CONTINUOUS
10
-883.0127
20
-250.055
30
0
11
-883.0127
21
1749.945
31
0
0
LINE
8
PIPES
6
CONTINUOUS
10
-16.9873
20
-750.055
30
0
11
-16.9873
21
1249.945
31
0
0
LINE
8
PIPES
6
CONTINUOUS
10
1282.0508
20
-0.055
30
0
11
1282.0508
21
1999.945
31
0
0
LINE
8
PIPES
6
CONTINUOUS
10
416.0254
20
499.945
30
0
11
416.0254
21
2499.945
31
0
0
LINE
8
PIPES
6
CONTINUOUS
10
1715.0722
20
1249.95
30
0
11
1715.0722
21
3249.95
31
0
0
LINE
8
PIPES
6
CONTINUOUS
10
2581.0976
20
749.95
30
0
11
2581.0976
21
2749.95
31
0
0
LINE
8
PIPES
6
CONTINUOUS
10
3447.123
20
1249.95
30
0
11
3447.123
21
3249.95
31
0
0
LINE
8
PIPES
6
CONTINUOUS
10
2581.0976
20
1749.95
30
0
11
2581.0976
21
3749.95
31
0
0
LINE
8
PIPES
6
CONTINUOUS
10
849.0468
20
1749.95
30
0
11
849.0468
21
3749.95
31
0
0
LINE
8
PIPES
6
CONTINUOUS
10
1715.0722
20
2249.95
30
0
11
1715.0722
21
4249.95
31
0
0
LINE
8
PIPES
6
CONTINUOUS
10
849.0381
20
2749.955
30
0
11
849.0381
21
4749.955
31
0
0
LINE
8
PIPES
6
CONTINUOUS
10
-16.9873
20
3249.955
30
0
11
-16.9873
21
5249.955
31
0
0
LINE
8
PIPES
6
CONTINUOUS
10
-883.0127
20
2749.955
30
0
11
-883.0127
21
4749.955
31
0
0
LINE
8
PIPES
6
CONTINUOUS
10
-16.9873
20
2249.955
30
0
11
-16.9873
21
4249.955
31
0
0
LINE
8
PIPES
6
CONTINUOUS
10
-1316.0341
20
1499.95
30
0
11
-1316.0341
21
3499.95
31
0
0
LINE
8
PIPES
6
CONTINUOUS
10
-2182.0595
20
1999.95
30
0
11
-2182.0595
21
3999.95
31
0
0
LINE
8
PIPES
6
CONTINUOUS
10
-883.0127
20
749.945
30
0
11
-1749.0381
21
1249.945
31
0
0
LINE
8
PIPES
6
CONTINUOUS
10
-1749.0381
20
1249.945
30
0
11
-2615.0635
21
1749.945
31
0
0
LINE
8
PIPES
6
CONTINUOUS
10
-2615.0635
20
1749.945
30
0
11
-3481.0976
21
2249.95
31
0
0
LINE
8
PIPES
6
CONTINUOUS
10
-3481.0976
20
2249.95
30
0
11
-4347.123
21
2749.95
31
0
0
LINE
8
PIPES
6
CONTINUOUS
10
-4347.123
20
2749.95
30
0
11
-3481.0976
21
3249.95
31
0
0
LINE
8
PIPES
6
CONTINUOUS
10
-3481.0976
20
3249.95
30
0
11
-2615.0722
21
2749.95
31
0
0
LINE
8
PIPES
6
CONTINUOUS
10
-2615.0722
20
2749.95
30
0
11
-3481.0976
21
2249.95
31
0
0
LINE
8
PIPES
6
CONTINUOUS
10
-2615.0722
20
2749.95
30
0
11
-1749.0381
21
2249.945
31
0
0
LINE
8
PIPES
6
CONTINUOUS
10
-1749.0381
20
2249.945
30
0
11
-2615.0635
21
1749.945
31
0
0
LINE
8
PIPES
6
CONTINUOUS
10
-1749.0381
20
2249.945
30
0
11
-883.0127
21
1749.945
31
0
0
LINE
8
PIPES
6
CONTINUOUS
10
-883.0127
20
1749.945
30
0
11
-1749.0381
21
1249.945
31
0
0
LINE
8
PIPES
6
CONTINUOUS
10
-883.0127
20
1749.945
30
0
11
-16.9873
21
1249.945
31
0
0
LINE
8
PIPES
6
CONTINUOUS
10
-16.9873
20
1249.945
30
0
11
1282.0508
21
1999.945
31
0
0
LINE
8
PIPES
6
CONTINUOUS
10
1282.0508
20
1999.945
30
0
11
416.0254
21
2499.945
31
0
0
LINE
8
PIPES
6
CONTINUOUS
10
416.0254
20
2499.945
30
0
11
-883.0127
21
1749.945
31
0
0
LINE
8
PIPES
6
CONTINUOUS
10
416.0254
20
2499.945
30
0
11
1715.0722
21
3249.95
31
0
0
LINE
8
PIPES
6
CONTINUOUS
10
1715.0722
20
3249.95
30
0
11
2581.0976
21
2749.95
31
0
0
LINE
8
PIPES
6
CONTINUOUS
10
2581.0976
20
2749.95
30
0
11
1282.0508
21
1999.945
31
0
0
LINE
8
PIPES
6
CONTINUOUS
10
2581.0976
20
2749.95
30
0
11
3447.123
21
3249.95
31
0
0
LINE
8
PIPES
6
CONTINUOUS
10
3447.123
20
3249.95
30
0
11
2581.0976
21
3749.95
31
0
0
LINE
8
PIPES
6
CONTINUOUS
10
2581.0976
20
3749.95
30
0
11
1715.0722
21
3249.95
31
0
0
LINE
8
PIPES
6
CONTINUOUS
10
1715.0722
20
3249.95
30
0
11
849.0468
21
3749.95
31
0
0
LINE
8
PIPES
6
CONTINUOUS
10
849.0468
20
3749.95
30
0
11
1715.0722
21
4249.95
31
0
0
LINE
8
PIPES
6
CONTINUOUS
10
1715.0722
20
4249.95
30
0
11
849.0381
21
4749.955
31
0
0
LINE
8
PIPES
6
CONTINUOUS
10
849.0381
20
4749.955
30
0
11
-16.9873
21
5249.955
31
0
0
LINE
8
PIPES
6
CONTINUOUS
10
-16.9873
20
5249.955
30
0
11
-883.0127
21
4749.955
31
0
0
LINE
8
PIPES
6
CONTINUOUS
10
-883.0127
20
4749.955
30
0
11
-16.9873
21
4249.955
31
0
0
LINE
8
PIPES
6
CONTINUOUS
10
-16.9873
20
4249.955
30
0
11
-1316.0341
21
3499.95
31
0
0
LINE
8
PIPES
6
CONTINUOUS
10
-1316.0341
20
3499.95
30
0
11
-2182.0595
21
3999.95
31
0
0
LINE
8
PIPES
6
CONTINUOUS
10
-2182.0595
20
3999.95
30
0
11
-883.0127
21
4749.955
31
0
0
LINE
8
PIPES
6
CONTINUOUS
10
-16.9873
20
4249.955
30
0
11
849.0381
21
4749.955
31
0
0
LINE
8
PIPES
6
CONTINUOUS
10
-16.9873
20
4249.955
30
0
11
849.0468
21
3749.95
31
0
0
LINE
8
PIPES
6
CONTINUOUS
10
1715.0722
20
4249.95
30
0
11
2581.0976
21
3749.95
31
0
0
LINE
8
PIPES
6
CONTINUOUS
10
-2182.0595
20
3999.95
30
0
11
-3481.0976
21
3249.95
31
0
0
LINE
8
PIPES
6
CONTINUOUS
10
-2615.0722
20
2749.95
30
0
11
-1316.0341
21
3499.95
31
0
0
LINE
8
PIPES
6
CONTINUOUS
10
-883.0127
20
749.945
30
0
11
-883.0127
21
1249.945
31
0
0
LINE
8
PIPES
6
CONTINUOUS
10
-1749.0381
20
1249.945
30
0
11
-1749.0381
21
1749.945
31
0
0
LINE
8
PIPES
6
CONTINUOUS
10
-2615.0635
20
1749.945
30
0
11
-2615.0635
21
2249.945
31
0
0
LINE
8
PIPES
6
CONTINUOUS
10
-3481.0976
20
2249.95
30
0
11
-3481.0976
21
2749.95
31
0
0
LINE
8
PIPES
6
CONTINUOUS
10
-4347.123
20
2749.95
30
0
11
-4347.123
21
3249.95
31
0
0
LINE
8
PIPES
6
CONTINUOUS
10
-3481.0976
20
3249.95
30
0
11
-3481.0976
21
3749.95
31
0
0
LINE
8
PIPES
6
CONTINUOUS
10
-2615.0722
20
2749.95
30
0
11
-2615.0722
21
3249.95
31
0
0
LINE
8
PIPES
6
CONTINUOUS
10
-1749.0381
20
2249.945
30
0
11
-1749.0381
21
2749.945
31
0
0
LINE
8
PIPES
6
CONTINUOUS
10
-883.0127
20
1749.945
30
0
11
-883.0127
21
2249.945
31
0
0
LINE
8
PIPES
6
CONTINUOUS
10
-16.9873
20
1249.945
30
0
11
-16.9873
21
1749.945
31
0
0
LINE
8
PIPES
6
CONTINUOUS
10
1282.0508
20
1999.945
30
0
11
1282.0508
21
2499.945
31
0
0
LINE
8
PIPES
6
CONTINUOUS
10
416.0254
20
2499.945
30
0
11
416.0254
21
2999.945
31
0
0
LINE
8
PIPES
6
CONTINUOUS
10
1715.0722
20
3249.95
30
0
11
1715.0722
21
3749.95
31
0
0
LINE
8
PIPES
6
CONTINUOUS
10
2581.0976
20
2749.95
30
0
11
2581.0976
21
3249.95
31
0
0
LINE
8
PIPES
6
CONTINUOUS
10
3447.123
20
3249.95
30
0
11
3447.123
21
3749.95
31
0
0
LINE
8
PIPES
6
CONTINUOUS
10
2581.0976
20
3749.95
30
0
11
2581.0976
21
4249.95
31
0
0
LINE
8
PIPES
6
CONTINUOUS
10
849.0468
20
3749.95
30
0
11
849.0468
21
4249.95
31
0
0
LINE
8
PIPES
6
CONTINUOUS
10
1715.0722
20
4249.95
30
0
11
1715.0722
21
4749.95
31
0
0
LINE
8
PIPES
6
CONTINUOUS
10
849.0381
20
4749.955
30
0
11
849.0381
21
5249.955
31
0
0
LINE
8
PIPES
6
CONTINUOUS
10
-16.9873
20
5249.955
30
0
11
-16.9873
21
5749.955
31
0
0
LINE
8
PIPES
6
CONTINUOUS
10
-883.0127
20
4749.955
30
0
11
-883.0127
21
5249.955
31
0
0
LINE
8
PIPES
6
CONTINUOUS
10
-16.9873
20
4249.955
30
0
11
-16.9873
21
4749.955
31
0
0
LINE
8
PIPES
6
CONTINUOUS
10
-1316.0341
20
3499.95
30
0
11
-1316.0341
21
3999.95
31
0
0
LINE
8
PIPES
6
CONTINUOUS
10
-2182.0595
20
3999.95
30
0
11
-2182.0595
21
4499.95
31
0
0
LINE
8
PIPES
6
CONTINUOUS
10
-883.0127
20
2749.945
30
0
11
-1749.0381
21
3249.945
31
0
0
LINE
8
PIPES
6
CONTINUOUS
10
-1749.0381
20
3249.945
30
0
11
-2615.0635
21
3749.945
31
0
0
LINE
8
PIPES
6
CONTINUOUS
10
-2615.0635
20
3749.945
30
0
11
-3481.0976
21
4249.95
31
0
0
LINE
8
PIPES
6
CONTINUOUS
10
-3481.0976
20
4249.95
30
0
11
-4347.123
21
4749.95
31
0
0
LINE
8
PIPES
6
CONTINUOUS
10
-4347.123
20
4749.95
30
0
11
-3481.0976
21
5249.95
31
0
0
LINE
8
PIPES
6
CONTINUOUS
10
-3481.0976
20
5249.95
30
0
11
-2615.0722
21
4749.95
31
0
0
LINE
8
PIPES
6
CONTINUOUS
10
-2615.0722
20
4749.95
30
0
11
-3481.0976
21
4249.95
31
0
0
LINE
8
PIPES
6
CONTINUOUS
10
-2615.0722
20
4749.95
30
0
11
-1749.0381
21
4249.945
31
0
0
LINE
8
PIPES
6
CONTINUOUS
10
-1749.0381
20
4249.945
30
0
11
-2615.0635
21
3749.945
31
0
0
LINE
8
PIPES
6
CONTINUOUS
10
-1749.0381
20
4249.945
30
0
11
-883.0127
21
3749.945
31
0
0
LINE
8
PIPES
6
CONTINUOUS
10
-883.0127
20
3749.945
30
0
11
-1749.0381
21
3249.945
31
0
0
LINE
8
PIPES
6
CONTINUOUS
10
-883.0127
20
3749.945
30
0
11
-16.9873
21
3249.945
31
0
0
LINE
8
PIPES
6
CONTINUOUS
10
-16.9873
20
3249.945
30
0
11
1282.0508
21
3999.945
31
0
0
LINE
8
PIPES
6
CONTINUOUS
10
1282.0508
20
3999.945
30
0
11
416.0254
21
4499.945
31
0
0
LINE
8
PIPES
6
CONTINUOUS
10
416.0254
20
4499.945
30
0
11
-883.0127
21
3749.945
31
0
0
LINE
8
PIPES
6
CONTINUOUS
10
416.0254
20
4499.945
30
0
11
1715.0722
21
5249.95
31
0
0
LINE
8
PIPES
6
CONTINUOUS
10
1715.0722
20
5249.95
30
0
11
2581.0976
21
4749.95
31
0
0
LINE
8
PIPES
6
CONTINUOUS
10
2581.0976
20
4749.95
30
0
11
1282.0508
21
3999.945
31
0
0
LINE
8
PIPES
6
CONTINUOUS
10
2581.0976
20
4749.95
30
0
11
3447.123
21
5249.95
31
0
0
LINE
8
PIPES
6
CONTINUOUS
10
3447.123
20
5249.95
30
0
11
2581.0976
21
5749.95
31
0
0
LINE
8
PIPES
6
CONTINUOUS
10
2581.0976
20
5749.95
30
0
11
1715.0722
21
5249.95
31
0
0
LINE
8
PIPES
6
CONTINUOUS
10
1715.0722
20
5249.95
30
0
11
849.0468
21
5749.95
31
0
0
LINE
8
PIPES
6
CONTINUOUS
10
849.0468
20
5749.95
30
0
11
1715.0722
21
6249.95
31
0
0
LINE
8
PIPES
6
CONTINUOUS
10
1715.0722
20
6249.95
30
0
11
849.0381
21
6749.955
31
0
0
LINE
8
PIPES
6
CONTINUOUS
10
849.0381
20
6749.955
30
0
11
-16.9873
21
7249.955
31
0
0
LINE
8
PIPES
6
CONTINUOUS
10
-16.9873
20
7249.955
30
0
11
-883.0127
21
6749.955
31
0
0
LINE
8
PIPES
6
CONTINUOUS
10
-883.0127
20
6749.955
30
0
11
-16.9873
21
6249.955
31
0
0
LINE
8
PIPES
6
CONTINUOUS
10
-16.9873
20
6249.955
30
0
11
-1316.0341
21
5499.95
31
0
0
LINE
8
PIPES
6
CONTINUOUS
10
-1316.0341
20
5499.95
30
0
11
-2182.0595
21
5999.95
31
0
0
LINE
8
PIPES
6
CONTINUOUS
10
-2182.0595
20
5999.95
30
0
11
-883.0127
21
6749.955
31
0
0
LINE
8
PIPES
6
CONTINUOUS
10
-16.9873
20
6249.955
30
0
11
849.0381
21
6749.955
31
0
0
LINE
8
PIPES
6
CONTINUOUS
10
-16.9873
20
6249.955
30
0
11
849.0468
21
5749.95
31
0
0
LINE
8
PIPES
6
CONTINUOUS
10
1715.0722
20
6249.95
30
0
11
2581.0976
21
5749.95
31
0
0
LINE
8
PIPES
6
CONTINUOUS
10
-2182.0595
20
5999.95
30
0
11
-3481.0976
21
5249.95
31
0
0
LINE
8
PIPES
6
CONTINUOUS
10
-2615.0722
20
4749.95
30
0
11
-1316.0341
21
5499.95
31
0
0
LINE
8
PIPES
6
CONTINUOUS
10
-1749.0381
20
3249.945
30
0
11
-1749.0381
21
5249.945
31
0
0
LINE
8
PIPES
6
CONTINUOUS
10
-2615.0635
20
3749.945
30
0
11
-2615.0635
21
5749.945
31
0
0
LINE
8
PIPES
6
CONTINUOUS
10
-3481.0976
20
4249.95
30
0
11
-3481.0976
21
6249.95
31
0
0
LINE
8
PIPES
6
CONTINUOUS
10
-4347.123
20
4749.95
30
0
11
-4347.123
21
6749.95
31
0
0
LINE
8
PIPES
6
CONTINUOUS
10
-3481.0976
20
5249.95
30
0
11
-3481.0976
21
7249.95
31
0
0
LINE
8
PIPES
6
CONTINUOUS
10
-2615.0722
20
4749.95
30
0
11
-2615.0722
21
6749.95
31
0
0
LINE
8
PIPES
6
CONTINUOUS
10
-1749.0381
20
4249.945
30
0
11
-1749.0381
21
6249.945
31
0
0
LINE
8
PIPES
6
CONTINUOUS
10
-883.0127
20
3749.945
30
0
11
-883.0127
21
5749.945
31
0
0
LINE
8
PIPES
6
CONTINUOUS
10
1282.0508
20
3999.945
30
0
11
1282.0508
21
5999.945
31
0
0
LINE
8
PIPES
6
CONTINUOUS
10
416.0254
20
4499.945
30
0
11
416.0254
21
6499.945
31
0
0
LINE
8
PIPES
6
CONTINUOUS
10
1715.0722
20
5249.95
30
0
11
1715.0722
21
7249.95
31
0
0
LINE
8
PIPES
6
CONTINUOUS
10
2581.0976
20
4749.95
30
0
11
2581.0976
21
6749.95
31
0
0
LINE
8
PIPES
6
CONTINUOUS
10
3447.123
20
5249.95
30
0
11
3447.123
21
7249.95
31
0
0
LINE
8
PIPES
6
CONTINUOUS
10
2581.0976
20
5749.95
30
0
11
2581.0976
21
7749.95
31
0
0
LINE
8
PIPES
6
CONTINUOUS
10
849.0468
20
5749.95
30
0
11
849.0468
21
7749.95
31
0
0
LINE
8
PIPES
6
CONTINUOUS
10
1715.0722
20
6249.95
30
0
11
1715.0722
21
8249.95
31
0
0
LINE
8
PIPES
6
CONTINUOUS
10
849.0381
20
6749.955
30
0
11
849.0381
21
8749.955
31
0
0
LINE
8
PIPES
6
CONTINUOUS
10
-16.9873
20
7249.955
30
0
11
-16.9873
21
9249.955
31
0
0
LINE
8
PIPES
6
CONTINUOUS
10
-883.0127
20
6749.955
30
0
11
-883.0127
21
8749.955
31
0
0
LINE
8
PIPES
6
CONTINUOUS
10
-16.9873
20
6249.955
30
0
11
-16.9873
21
8249.955
31
0
0
LINE
8
PIPES
6
CONTINUOUS
10
-1316.0341
20
5499.95
30
0
11
-1316.0341
21
7499.95
31
0
0
LINE
8
PIPES
6
CONTINUOUS
10
-2182.0595
20
5999.95
30
0
11
-2182.0595
21
7999.95
31
0
0
LINE
8
PIPES
6
CONTINUOUS
10
-883.0127
20
4749.945
30
0
11
-1749.0381
21
5249.945
31
0
0
LINE
8
PIPES
6
CONTINUOUS
10
-1749.0381
20
5249.945
30
0
11
-2615.0635
21
5749.945
31
0
0
LINE
8
PIPES
6
CONTINUOUS
10
-2615.0635
20
5749.945
30
0
11
-3481.0976
21
6249.95
31
0
0
LINE
8
PIPES
6
CONTINUOUS
10
-3481.0976
20
6249.95
30
0
11
-4347.123
21
6749.95
31
0
0
LINE
8
PIPES
6
CONTINUOUS
10
-4347.123
20
6749.95
30
0
11
-3481.0976
21
7249.95
31
0
0
LINE
8
PIPES
6
CONTINUOUS
10
-3481.0976
20
7249.95
30
0
11
-2615.0722
21
6749.95
31
0
0
LINE
8
PIPES
6
CONTINUOUS
10
-2615.0722
20
6749.95
30
0
11
-3481.0976
21
6249.95
31
0
0
LINE
8
PIPES
6
CONTINUOUS
10
-2615.0722
20
6749.95
30
0
11
-1749.0381
21
6249.945
31
0
0
LINE
8
PIPES
6
CONTINUOUS
10
-1749.0381
20
6249.945
30
0
11
-2615.0635
21
5749.945
31
0
0
LINE
8
PIPES
6
CONTINUOUS
10
-1749.0381
20
6249.945
30
0
11
-883.0127
21
5749.945
31
0
0
LINE
8
PIPES
6
CONTINUOUS
10
-883.0127
20
5749.945
30
0
11
-1749.0381
21
5249.945
31
0
0
LINE
8
PIPES
6
CONTINUOUS
10
-883.0127
20
5749.945
30
0
11
-16.9873
21
5249.945
31
0
0
LINE
8
PIPES
6
CONTINUOUS
10
-16.9873
20
5249.945
30
0
11
1282.0508
21
5999.945
31
0
0
LINE
8
PIPES
6
CONTINUOUS
10
1282.0508
20
5999.945
30
0
11
416.0254
21
6499.945
31
0
0
LINE
8
PIPES
6
CONTINUOUS
10
416.0254
20
6499.945
30
0
11
-883.0127
21
5749.945
31
0
0
LINE
8
PIPES
6
CONTINUOUS
10
416.0254
20
6499.945
30
0
11
1715.0722
21
7249.95
31
0
0
LINE
8
PIPES
6
CONTINUOUS
10
1715.0722
20
7249.95
30
0
11
2581.0976
21
6749.95
31
0
0
LINE
8
PIPES
6
CONTINUOUS
10
2581.0976
20
6749.95
30
0
11
1282.0508
21
5999.945
31
0
0
LINE
8
PIPES
6
CONTINUOUS
10
2581.0976
20
6749.95
30
0
11
3447.123
21
7249.95
31
0
0
LINE
8
PIPES
6
CONTINUOUS
10
3447.123
20
7249.95
30
0
11
2581.0976
21
7749.95
31
0
0
LINE
8
PIPES
6
CONTINUOUS
10
2581.0976
20
7749.95
30
0
11
1715.0722
21
7249.95
31
0
0
LINE
8
PIPES
6
CONTINUOUS
10
1715.0722
20
7249.95
30
0
11
849.0468
21
7749.95
31
0
0
LINE
8
PIPES
6
CONTINUOUS
10
849.0468
20
7749.95
30
0
11
1715.0722
21
8249.95
31
0
0
LINE
8
PIPES
6
CONTINUOUS
10
1715.0722
20
8249.95
30
0
11
849.0381
21
8749.955
31
0
0
LINE
8
PIPES
6
CONTINUOUS
10
849.0381
20
8749.955
30
0
11
-16.9873
21
9249.955
31
0
0
LINE
8
PIPES
6
CONTINUOUS
10
-16.9873
20
9249.955
30
0
11
-883.0127
21
8749.955
31
0
0
LINE
8
PIPES
6
CONTINUOUS
10
-883.0127
20
8749.955
30
0
11
-16.9873
21
8249.955
31
0
0
LINE
8
PIPES
6
CONTINUOUS
10
-16.9873
20
8249.955
30
0
11
-1316.0341
21
7499.95
31
0
0
LINE
8
PIPES
6
CONTINUOUS
10
-1316.0341
20
7499.95
30
0
11
-2182.0595
21
7999.95
31
0
0
LINE
8
PIPES
6
CONTINUOUS
10
-2182.0595
20
7999.95
30
0
11
-883.0127
21
8749.955
31
0
0
LINE
8
PIPES
6
CONTINUOUS
10
-16.9873
20
8249.955
30
0
11
849.0381
21
8749.955
31
0
0
LINE
8
PIPES
6
CONTINUOUS
10
-16.9873
20
8249.955
30
0
11
849.0468
21
7749.95
31
0
0
LINE
8
PIPES
6
CONTINUOUS
10
1715.0722
20
8249.95
30
0
11
2581.0976
21
7749.95
31
0
0
LINE
8
PIPES
6
CONTINUOUS
10
-2182.0595
20
7999.95
30
0
11
-3481.0976
21
7249.95
31
0
0
LINE
8
PIPES
6
CONTINUOUS
10
-2615.0722
20
6749.95
30
0
11
-1316.0341
21
7499.95
31
0
0
LINE
8
PIPES
6
CONTINUOUS
10
-883.0127
20
4749.945
30
0
11
-883.0127
21
6749.945
31
0
0
LINE
8
PIPES
6
CONTINUOUS
10
-1749.0381
20
5249.945
30
0
11
-1749.0381
21
7249.945
31
0
0
LINE
8
PIPES
6
CONTINUOUS
10
-2615.0635
20
5749.945
30
0
11
-2615.0635
21
7749.945
31
0
0
LINE
8
PIPES
6
CONTINUOUS
10
-3481.0976
20
6249.95
30
0
11
-3481.0976
21
8249.95
31
0
0
LINE
8
PIPES
6
CONTINUOUS
10
-4347.123
20
6749.95
30
0
11
-4347.123
21
8749.95
31
0
0
LINE
8
PIPES
6
CONTINUOUS
10
-3481.0976
20
7249.95
30
0
11
-3481.0976
21
9249.95
31
0
0
LINE
8
PIPES
6
CONTINUOUS
10
-2615.0722
20
6749.95
30
0
11
-2615.0722
21
8749.95
31
0
0
LINE
8
PIPES
6
CONTINUOUS
10
-1749.0381
20
6249.945
30
0
11
-1749.0381
21
8249.945
31
0
0
LINE
8
PIPES
6
CONTINUOUS
10
-883.0127
20
5749.945
30
0
11
-883.0127
21
7749.945
31
0
0
LINE
8
PIPES
6
CONTINUOUS
10
-16.9873
20
5249.945
30
0
11
-16.9873
21
7249.945
31
0
0
LINE
8
PIPES
6
CONTINUOUS
10
1282.0508
20
5999.945
30
0
11
1282.0508
21
7999.945
31
0
0
LINE
8
PIPES
6
CONTINUOUS
10
416.0254
20
6499.945
30
0
11
416.0254
21
8499.945
31
0
0
LINE
8
PIPES
6
CONTINUOUS
10
1715.0722
20
7249.95
30
0
11
1715.0722
21
9249.95
31
0
0
LINE
8
PIPES
6
CONTINUOUS
10
2581.0976
20
6749.95
30
0
11
2581.0976
21
8749.95
31
0
0
LINE
8
PIPES
6
CONTINUOUS
10
3447.123
20
7249.95
30
0
11
3447.123
21
9249.95
31
0
0
LINE
8
PIPES
6
CONTINUOUS
10
2581.0976
20
7749.95
30
0
11
2581.0976
21
9749.95
31
0
0
LINE
8
PIPES
6
CONTINUOUS
10
849.0468
20
7749.95
30
0
11
849.0468
21
9749.95
31
0
0
LINE
8
PIPES
6
CONTINUOUS
10
1715.0722
20
8249.95
30
0
11
1715.0722
21
10249.95
31
0
0
LINE
8
PIPES
6
CONTINUOUS
10
849.0381
20
8749.955
30
0
11
849.0381
21
10749.955
31
0
0
LINE
8
PIPES
6
CONTINUOUS
10
-16.9873
20
9249.955
30
0
11
-16.9873
21
11249.955
31
0
0
LINE
8
PIPES
6
CONTINUOUS
10
-883.0127
20
8749.955
30
0
11
-883.0127
21
10749.955
31
0
0
LINE
8
PIPES
6
CONTINUOUS
10
-16.9873
20
8249.955
30
0
11
-16.9873
21
10249.955
31
0
0
LINE
8
PIPES
6
CONTINUOUS
10
-1316.0341
20
7499.95
30
0
11
-1316.0341
21
9499.95
31
0
0
LINE
8
PIPES
6
CONTINUOUS
10
-2182.0595
20
7999.95
30
0
11
-2182.0595
21
9999.95
31
0
0
LINE
8
PIPES
6
CONTINUOUS
10
-883.0127
20
6749.945
30
0
11
-1749.0381
21
7249.945
31
0
0
LINE
8
PIPES
6
CONTINUOUS
10
-1749.0381
20
7249.945
30
0
11
-2615.0635
21
7749.945
31
0
0
LINE
8
PIPES
6
CONTINUOUS
10
-2615.0635
20
7749.945
30
0
11
-3481.0976
21
8249.95
31
0
0
LINE
8
PIPES
6
CONTINUOUS
10
-3481.0976
20
8249.95
30
0
11
-4347.123
21
8749.95
31
0
0
LINE
8
PIPES
6
CONTINUOUS
10
-4347.123
20
8749.95
30
0
11
-3481.0976
21
9249.95
31
0
0
LINE
8
PIPES
6
CONTINUOUS
10
-3481.0976
20
9249.95
30
0
11
-2615.0722
21
8749.95
31
0
0
LINE
8
PIPES
6
CONTINUOUS
10
-2615.0722
20
8749.95
30
0
11
-3481.0976
21
8249.95
31
0
0
LINE
8
PIPES
6
CONTINUOUS
10
-2615.0722
20
8749.95
30
0
11
-1749.0381
21
8249.945
31
0
0
LINE
8
PIPES
6
CONTINUOUS
10
-1749.0381
20
8249.945
30
0
11
-2615.0635
21
7749.945
31
0
0
LINE
8
PIPES
6
CONTINUOUS
10
-1749.0381
20
8249.945
30
0
11
-883.0127
21
7749.945
31
0
0
LINE
8
PIPES
6
CONTINUOUS
10
-883.0127
20
7749.945
30
0
11
-1749.0381
21
7249.945
31
0
0
LINE
8
PIPES
6
CONTINUOUS
10
-883.0127
20
7749.945
30
0
11
-16.9873
21
7249.945
31
0
0
LINE
8
PIPES
6
CONTINUOUS
10
-16.9873
20
7249.945
30
0
11
1282.0508
21
7999.945
31
0
0
LINE
8
PIPES
6
CONTINUOUS
10
1282.0508
20
7999.945
30
0
11
416.0254
21
8499.945
31
0
0
LINE
8
PIPES
6
CONTINUOUS
10
416.0254
20
8499.945
30
0
11
-883.0127
21
7749.945
31
0
0
LINE
8
PIPES
6
CONTINUOUS
10
416.0254
20
8499.945
30
0
11
1715.0722
21
9249.95
31
0
0
LINE
8
PIPES
6
CONTINUOUS
10
1715.0722
20
9249.95
30
0
11
2581.0976
21
8749.95
31
0
0
LINE
8
PIPES
6
CONTINUOUS
10
2581.0976
20
8749.95
30
0
11
1282.0508
21
7999.945
31
0
0
LINE
8
PIPES
6
CONTINUOUS
10
2581.0976
20
8749.95
30
0
11
3447.123
21
9249.95
31
0
0
LINE
8
PIPES
6
CONTINUOUS
10
3447.123
20
9249.95
30
0
11
2581.0976
21
9749.95
31
0
0
LINE
8
PIPES
6
CONTINUOUS
10
2581.0976
20
9749.95
30
0
11
1715.0722
21
9249.95
31
0
0
LINE
8
PIPES
6
CONTINUOUS
10
1715.0722
20
9249.95
30
0
11
849.0468
21
9749.95
31
0
0
LINE
8
PIPES
6
CONTINUOUS
10
849.0468
20
9749.95
30
0
11
1715.0722
21
10249.95
31
0
0
LINE
8
PIPES
6
CONTINUOUS
10
1715.0722
20
10249.95
30
0
11
849.0381
21
10749.955
31
0
0
LINE
8
PIPES
6
CONTINUOUS
10
849.0381
20
10749.955
30
0
11
-16.9873
21
11249.955
31
0
0
LINE
8
PIPES
6
CONTINUOUS
10
-16.9873
20
11249.955
30
0
11
-883.0127
21
10749.955
31
0
0
LINE
8
PIPES
6
CONTINUOUS
10
-883.0127
20
10749.955
30
0
11
-16.9873
21
10249.955
31
0
0
LINE
8
PIPES
6
CONTINUOUS
10
-16.9873
20
10249.955
30
0
11
-1316.0341
21
9499.95
31
0
0
LINE
8
PIPES
6
CONTINUOUS
10
-1316.0341
20
9499.95
30
0
11
-2182.0595
21
9999.95
31
0
0
LINE
8
PIPES
6
CONTINUOUS
10
-2182.0595
20
9999.95
30
0
11
-883.0127
21
10749.955
31
0
0
LINE
8
PIPES
6
CONTINUOUS
10
-16.9873
20
10249.955
30
0
11
849.0381
21
10749.955
31
0
0
LINE
8
PIPES
6
CONTINUOUS
10
-16.9873
20
10249.955
30
0
11
849.0468
21
9749.95
31
0
0
LINE
8
PIPES
6
CONTINUOUS
10
1715.0722
20
10249.95
30
0
11
2581.0976
21
9749.95
31
0
0
LINE
8
PIPES
6
CONTINUOUS
10
-2182.0595
20
9999.95
30
0
11
-3481.0976
21
9249.95
31
0
0
LINE
8
PIPES
6
CONTINUOUS
10
-2615.0722
20
8749.95
30
0
11
-1316.0341
21
9499.95
31
0
0
LINE
8
PIPES
6
CONTINUOUS
10
-883.0127
20
6749.945
30
0
11
-883.0127
21
7249.945
31
0
0
LINE
8
PIPES
6
CONTINUOUS
10
-1749.0381
20
7249.945
30
0
11
-1749.0381
21
7749.945
31
0
0
LINE
8
PIPES
6
CONTINUOUS
10
-2615.0635
20
7749.945
30
0
11
-2615.0635
21
8249.945
31
0
0
LINE
8
PIPES
6
CONTINUOUS
10
-3481.0976
20
8249.95
30
0
11
-3481.0976
21
8749.95
31
0
0
LINE
8
PIPES
6
CONTINUOUS
10
-4347.123
20
8749.95
30
0
11
-4347.123
21
9249.95
31
0
0
LINE
8
PIPES
6
CONTINUOUS
10
-3481.0976
20
9249.95
30
0
11
-3481.0976
21
9749.95
31
0
0
LINE
8
PIPES
6
CONTINUOUS
10
-2615.0722
20
8749.95
30
0
11
-2615.0722
21
9249.95
31
0
0
LINE
8
PIPES
6
CONTINUOUS
10
-1749.0381
20
8249.945
30
0
11
-1749.0381
21
8749.945
31
0
0
LINE
8
PIPES
6
CONTINUOUS
10
-883.0127
20
7749.945
30
0
11
-883.0127
21
8249.945
31
0
0
LINE
8
PIPES
6
CONTINUOUS
10
-16.9873
20
7249.945
30
0
11
-16.9873
21
7749.945
31
0
0
LINE
8
PIPES
6
CONTINUOUS
10
1282.0508
20
7999.945
30
0
11
1282.0508
21
8499.945
31
0
0
LINE
8
PIPES
6
CONTINUOUS
10
416.0254
20
8499.945
30
0
11
416.0254
21
8999.945
31
0
0
LINE
8
PIPES
6
CONTINUOUS
10
1715.0722
20
9249.95
30
0
11
1715.0722
21
9749.95
31
0
0
LINE
8
PIPES
6
CONTINUOUS
10
2581.0976
20
8749.95
30
0
11
2581.0976
21
9249.95
31
0
0
LINE
8
PIPES
6
CONTINUOUS
10
3447.123
20
9249.95
30
0
11
3447.123
21
9749.95
31
0
0
LINE
8
PIPES
6
CONTINUOUS
10
2581.0976
20
9749.95
30
0
11
2581.0976
21
10249.95
31
0
0
LINE
8
PIPES
6
CONTINUOUS
10
849.0468
20
9749.95
30
0
11
849.0468
21
10249.95
31
0
0
LINE
8
PIPES
6
CONTINUOUS
10
1715.0722
20
10249.95
30
0
11
1715.0722
21
10749.95
31
0
0
LINE
8
PIPES
6
CONTINUOUS
10
849.0381
20
10749.955
30
0
11
849.0381
21
11249.955
31
0
0
LINE
8
PIPES
6
CONTINUOUS
10
-16.9873
20
11249.955
30
0
11
-16.9873
21
11749.955
31
0
0
LINE
8
PIPES
6
CONTINUOUS
10
-883.0127
20
10749.955
30
0
11
-883.0127
21
11249.955
31
0
0
LINE
8
PIPES
6
CONTINUOUS
10
-16.9873
20
10249.955
30
0
11
-16.9873
21
10749.955
31
0
0
LINE
8
PIPES
6
CONTINUOUS
10
-1316.0341
20
9499.95
30
0
11
-1316.0341
21
9999.95
31
0
0
LINE
8
PIPES
6
CONTINUOUS
10
-2182.0595
20
9999.95
30
0
11
-2182.0595
21
10499.95
31
0
0
LINE
8
PIPES
6
CONTINUOUS
10
-883.0127
20
8749.945
30
0
11
-1749.0381
21
9249.945
31
0
0
LINE
8
PIPES
6
CONTINUOUS
10
-1749.0381
20
9249.945
30
0
11
-2615.0635
21
9749.945
31
0
0
LINE
8
PIPES
6
CONTINUOUS
10
-2615.0635
20
9749.945
30
0
11
-3481.0976
21
10249.95
31
0
0
LINE
8
PIPES
6
CONTINUOUS
10
-3481.0976
20
10249.95
30
0
11
-4347.123
21
10749.95
31
0
0
LINE
8
PIPES
6
CONTINUOUS
10
-4347.123
20
10749.95
30
0
11
-3481.0976
21
11249.95
31
0
0
LINE
8
PIPES
6
CONTINUOUS
10
-3481.0976
20
11249.95
30
0
11
-2615.0722
21
10749.95
31
0
0
LINE
8
PIPES
6
CONTINUOUS
10
-2615.0722
20
10749.95
30
0
11
-3481.0976
21
10249.95
31
0
0
LINE
8
PIPES
6
CONTINUOUS
10
-2615.0722
20
10749.95
30
0
11
-1749.0381
21
10249.945
31
0
0
LINE
8
PIPES
6
CONTINUOUS
10
-1749.0381
20
10249.945
30
0
11
-2615.0635
21
9749.945
31
0
0
LINE
8
PIPES
6
CONTINUOUS
10
-1749.0381
20
10249.945
30
0
11
-883.0127
21
9749.945
31
0
0
LINE
8
PIPES
6
CONTINUOUS
10
-883.0127
20
9749.945
30
0
11
-1749.0381
21
9249.945
31
0
0
LINE
8
PIPES
6
CONTINUOUS
10
-883.0127
20
9749.945
30
0
11
-16.9873
21
9249.945
31
0
0
LINE
8
PIPES
6
CONTINUOUS
10
-16.9873
20
9249.945
30
0
11
1282.0508
21
9999.945
31
0
0
LINE
8
PIPES
6
CONTINUOUS
10
1282.0508
20
9999.945
30
0
11
416.0254
21
10499.945
31
0
0
LINE
8
PIPES
6
CONTINUOUS
10
416.0254
20
10499.945
30
0
11
-883.0127
21
9749.945
31
0
0
LINE
8
PIPES
6
CONTINUOUS
10
416.0254
20
10499.945
30
0
11
1715.0722
21
11249.95
31
0
0
LINE
8
PIPES
6
CONTINUOUS
10
1715.0722
20
11249.95
30
0
11
2581.0976
21
10749.95
31
0
0
LINE
8
PIPES
6
CONTINUOUS
10
2581.0976
20
10749.95
30
0
11
1282.0508
21
9999.945
31
0
0
LINE
8
PIPES
6
CONTINUOUS
10
2581.0976
20
10749.95
30
0
11
3447.123
21
11249.95
31
0
0
LINE
8
PIPES
6
CONTINUOUS
10
3447.123
20
11249.95
30
0
11
2581.0976
21
11749.95
31
0
0
LINE
8
PIPES
6
CONTINUOUS
10
2581.0976
20
11749.95
30
0
11
1715.0722
21
11249.95
31
0
0
LINE
8
PIPES
6
CONTINUOUS
10
1715.0722
20
11249.95
30
0
11
849.0468
21
11749.95
31
0
0
LINE
8
PIPES
6
CONTINUOUS
10
849.0468
20
11749.95
30
0
11
1715.0722
21
12249.95
31
0
0
LINE
8
PIPES
6
CONTINUOUS
10
1715.0722
20
12249.95
30
0
11
849.0381
21
12749.955
31
0
0
LINE
8
PIPES
6
CONTINUOUS
10
849.0381
20
12749.955
30
0
11
-16.9873
21
13249.955
31
0
0
LINE
8
PIPES
6
CONTINUOUS
10
-16.9873
20
13249.955
30
0
11
-883.0127
21
12749.955
31
0
0
LINE
8
PIPES
6
CONTINUOUS
10
-883.0127
20
12749.955
30
0
11
-16.9873
21
12249.955
31
0
0
LINE
8
PIPES
6
CONTINUOUS
10
-16.9873
20
12249.955
30
0
11
-1316.0341
21
11499.95
31
0
0
LINE
8
PIPES
6
CONTINUOUS
10
-1316.0341
20
11499.95
30
0
11
-2182.0595
21
11999.95
31
0
0
LINE
8
PIPES
6
CONTINUOUS
10
-2182.0595
20
11999.95
30
0
11
-883.0127
21
12749.955
31
0
0
LINE
8
PIPES
6
CONTINUOUS
10
-16.9873
20
12249.955
30
0
11
849.0381
21
12749.955
31
0
0
LINE
8
PIPES
6
CONTINUOUS
10
-16.9873
20
12249.955
30
0
11
849.0468
21
11749.95
31
0
0
LINE
8
PIPES
6
CONTINUOUS
10
1715.0722
20
12249.95
30
0
11
2581.0976
21
11749.95
31
0
0
LINE
8
PIPES
6
CONTINUOUS
10
-2182.0595
20
11999.95
30
0
11
-3481.0976
21
11249.95
31
0
0
LINE
8
PIPES
6
CONTINUOUS
10
-2615.0722
20
10749.95
30
0
11
-1316.0341
21
11499.95
31
0
0
LINE
8
PIPES
6
CONTINUOUS
10
-883.0127
20
8749.945
30
0
11
-883.0127
21
10750.045
31
0
0
LINE
8
PIPES
6
CONTINUOUS
10
-1749.0381
20
9249.945
30
0
11
-1749.0381
21
11250.045
31
0
0
LINE
8
PIPES
6
CONTINUOUS
10
-2615.0635
20
9749.945
30
0
11
-2615.0635
21
11750.045
31
0
0
LINE
8
PIPES
6
CONTINUOUS
10
-3481.0976
20
10249.95
30
0
11
-3481.0976
21
12250.05
31
0
0
LINE
8
PIPES
6
CONTINUOUS
10
-4347.123
20
10749.95
30
0
11
-4347.123
21
12750.05
31
0
0
LINE
8
PIPES
6
CONTINUOUS
10
-3481.0976
20
11249.95
30
0
11
-3481.0976
21
13250.05
31
0
0
LINE
8
PIPES
6
CONTINUOUS
10
-2615.0722
20
10749.95
30
0
11
-2615.0722
21
12750.05
31
0
0
LINE
8
PIPES
6
CONTINUOUS
10
-1749.0381
20
10249.945
30
0
11
-1749.0381
21
12250.045
31
0
0
LINE
8
PIPES
6
CONTINUOUS
10
-883.0127
20
9749.945
30
0
11
-883.0127
21
11750.045
31
0
0
LINE
8
PIPES
6
CONTINUOUS
10
-16.9873
20
9249.945
30
0
11
-16.9873
21
11250.045
31
0
0
LINE
8
PIPES
6
CONTINUOUS
10
1282.0508
20
9999.945
30
0
11
1282.0508
21
12000.045
31
0
0
LINE
8
PIPES
6
CONTINUOUS
10
416.0254
20
10499.945
30
0
11
416.0254
21
12500.045
31
0
0
LINE
8
PIPES
6
CONTINUOUS
10
1715.0722
20
11249.95
30
0
11
1715.0722
21
13250.05
31
0
0
LINE
8
PIPES
6
CONTINUOUS
10
2581.0976
20
10749.95
30
0
11
2581.0976
21
12750.05
31
0
0
LINE
8
PIPES
6
CONTINUOUS
10
3447.123
20
11249.95
30
0
11
3447.123
21
13250.05
31
0
0
LINE
8
PIPES
6
CONTINUOUS
10
2581.0976
20
11749.95
30
0
11
2581.0976
21
13750.05
31
0
0
LINE
8
PIPES
6
CONTINUOUS
10
849.0468
20
11749.95
30
0
11
849.0468
21
13750.05
31
0
0
LINE
8
PIPES
6
CONTINUOUS
10
1715.0722
20
12249.95
30
0
11
1715.0722
21
14250.05
31
0
0
LINE
8
PIPES
6
CONTINUOUS
10
849.0381
20
12749.955
30
0
11
849.0381
21
14750.055
31
0
0
LINE
8
PIPES
6
CONTINUOUS
10
-16.9873
20
13249.955
30
0
11
-16.9873
21
15250.055
31
0
0
LINE
8
PIPES
6
CONTINUOUS
10
-883.0127
20
12749.955
30
0
11
-883.0127
21
14750.055
31
0
0
LINE
8
PIPES
6
CONTINUOUS
10
-16.9873
20
12249.955
30
0
11
-16.9873
21
14250.055
31
0
0
LINE
8
PIPES
6
CONTINUOUS
10
-1316.0341
20
11499.95
30
0
11
-1316.0341
21
13500.05
31
0
0
LINE
8
PIPES
6
CONTINUOUS
10
-2182.0595
20
11999.95
30
0
11
-2182.0595
21
14000.05
31
0
0
LINE
8
PIPES
6
CONTINUOUS
10
-883.0127
20
10750.045
30
0
11
-1749.0381
21
11250.045
31
0
0
LINE
8
PIPES
6
CONTINUOUS
10
-1749.0381
20
11250.045
30
0
11
-2615.0635
21
11750.045
31
0
0
LINE
8
PIPES
6
CONTINUOUS
10
-2615.0635
20
11750.045
30
0
11
-3481.0976
21
12250.05
31
0
0
LINE
8
PIPES
6
CONTINUOUS
10
-3481.0976
20
12250.05
30
0
11
-4347.123
21
12750.05
31
0
0
LINE
8
PIPES
6
CONTINUOUS
10
-4347.123
20
12750.05
30
0
11
-3481.0976
21
13250.05
31
0
0
LINE
8
PIPES
6
CONTINUOUS
10
-3481.0976
20
13250.05
30
0
11
-2615.0722
21
12750.05
31
0
0
LINE
8
PIPES
6
CONTINUOUS
10
-2615.0722
20
12750.05
30
0
11
-3481.0976
21
12250.05
31
0
0
LINE
8
PIPES
6
CONTINUOUS
10
-2615.0722
20
12750.05
30
0
11
-1749.0381
21
12250.045
31
0
0
LINE
8
PIPES
6
CONTINUOUS
10
-1749.0381
20
12250.045
30
0
11
-2615.0635
21
11750.045
31
0
0
LINE
8
PIPES
6
CONTINUOUS
10
-1749.0381
20
12250.045
30
0
11
-883.0127
21
11750.045
31
0
0
LINE
8
PIPES
6
CONTINUOUS
10
-883.0127
20
11750.045
30
0
11
-1749.0381
21
11250.045
31
0
0
LINE
8
PIPES
6
CONTINUOUS
10
-883.0127
20
11750.045
30
0
11
-16.9873
21
11250.045
31
0
0
LINE
8
PIPES
6
CONTINUOUS
10
-16.9873
20
11250.045
30
0
11
-883.0127
21
10750.045
31
0
0
LINE
8
PIPES
6
CONTINUOUS
10
-16.9873
20
11250.045
30
0
11
1282.0508
21
12000.045
31
0
0
LINE
8
PIPES
6
CONTINUOUS
10
1282.0508
20
12000.045
30
0
11
416.0254
21
12500.045
31
0
0
LINE
8
PIPES
6
CONTINUOUS
10
416.0254
20
12500.045
30
0
11
-883.0127
21
11750.045
31
0
0
LINE
8
PIPES
6
CONTINUOUS
10
416.0254
20
12500.045
30
0
11
1715.0722
21
13250.05
31
0
0
LINE
8
PIPES
6
CONTINUOUS
10
1715.0722
20
13250.05
30
0
11
2581.0976
21
12750.05
31
0
0
LINE
8
PIPES
6
CONTINUOUS
10
2581.0976
20
12750.05
30
0
11
1282.0508
21
12000.045
31
0
0
LINE
8
PIPES
6
CONTINUOUS
10
2581.0976
20
12750.05
30
0
11
3447.123
21
13250.05
31
0
0
LINE
8
PIPES
6
CONTINUOUS
10
3447.123
20
13250.05
30
0
11
2581.0976
21
13750.05
31
0
0
LINE
8
PIPES
6
CONTINUOUS
10
2581.0976
20
13750.05
30
0
11
1715.0722
21
13250.05
31
0
0
LINE
8
PIPES
6
CONTINUOUS
10
1715.0722
20
13250.05
30
0
11
849.0468
21
13750.05
31
0
0
LINE
8
PIPES
6
CONTINUOUS
10
849.0468
20
13750.05
30
0
11
1715.0722
21
14250.05
31
0
0
LINE
8
PIPES
6
CONTINUOUS
10
1715.0722
20
14250.05
30
0
11
849.0381
21
14750.055
31
0
0
LINE
8
PIPES
6
CONTINUOUS
10
849.0381
20
14750.055
30
0
11
-16.9873
21
15250.055
31
0
0
LINE
8
PIPES
6
CONTINUOUS
10
-16.9873
20
15250.055
30
0
11
-883.0127
21
14750.055
31
0
0
LINE
8
PIPES
6
CONTINUOUS
10
-883.0127
20
14750.055
30
0
11
-16.9873
21
14250.055
31
0
0
LINE
8
PIPES
6
CONTINUOUS
10
-16.9873
20
14250.055
30
0
11
-1316.0341
21
13500.05
31
0
0
LINE
8
PIPES
6
CONTINUOUS
10
-1316.0341
20
13500.05
30
0
11
-2182.0595
21
14000.05
31
0
0
LINE
8
PIPES
6
CONTINUOUS
10
-2182.0595
20
14000.05
30
0
11
-883.0127
21
14750.055
31
0
0
LINE
8
PIPES
6
CONTINUOUS
10
-16.9873
20
14250.055
30
0
11
849.0381
21
14750.055
31
0
0
LINE
8
PIPES
6
CONTINUOUS
10
-16.9873
20
14250.055
30
0
11
849.0468
21
13750.05
31
0
0
LINE
8
PIPES
6
CONTINUOUS
10
1715.0722
20
14250.05
30
0
11
2581.0976
21
13750.05
31
0
0
LINE
8
PIPES
6
CONTINUOUS
10
-2182.0595
20
14000.05
30
0
11
-3481.0976
21
13250.05
31
0
0
LINE
8
PIPES
6
CONTINUOUS
10
-2615.0722
20
12750.05
30
0
11
-1316.0341
21
13500.05
31
0
0
LINE
8
PIPES
6
CONTINUOUS
10
-883.0127
20
10750.045
30
0
11
-883.0127
21
11750.045
31
0
0
LINE
8
PIPES
6
CONTINUOUS
10
-1749.0381
20
11250.045
30
0
11
-1749.0381
21
12250.045
31
0
0
LINE
8
PIPES
6
CONTINUOUS
10
-2615.0635
20
11750.045
30
0
11
-2615.0635
21
12750.045
31
0
0
LINE
8
PIPES
6
CONTINUOUS
10
-3481.0976
20
12250.05
30
0
11
-3481.0976
21
13250.05
31
0
0
LINE
8
PIPES
6
CONTINUOUS
10
-4347.123
20
12750.05
30
0
11
-4347.123
21
13750.05
31
0
0
LINE
8
PIPES
6
CONTINUOUS
10
-3481.0976
20
13250.05
30
0
11
-3481.0976
21
14250.05
31
0
0
LINE
8
PIPES
6
CONTINUOUS
10
-2615.0722
20
12750.05
30
0
11
-2615.0722
21
13750.05
31
0
0
LINE
8
PIPES
6
CONTINUOUS
10
-1749.0381
20
12250.045
30
0
11
-1749.0381
21
13250.045
31
0
0
LINE
8
PIPES
6
CONTINUOUS
10
-883.0127
20
11750.045
30
0
11
-883.0127
21
12750.045
31
0
0
LINE
8
PIPES
6
CONTINUOUS
10
-16.9873
20
11250.045
30
0
11
-16.9873
21
12250.045
31
0
0
LINE
8
PIPES
6
CONTINUOUS
10
1282.0508
20
12000.045
30
0
11
1282.0508
21
13000.045
31
0
0
LINE
8
PIPES
6
CONTINUOUS
10
416.0254
20
12500.045
30
0
11
416.0254
21
13500.045
31
0
0
LINE
8
PIPES
6
CONTINUOUS
10
1715.0722
20
13250.05
30
0
11
1715.0722
21
14250.05
31
0
0
LINE
8
PIPES
6
CONTINUOUS
10
2581.0976
20
12750.05
30
0
11
2581.0976
21
13750.05
31
0
0
LINE
8
PIPES
6
CONTINUOUS
10
3447.123
20
13250.05
30
0
11
3447.123
21
14250.05
31
0
0
LINE
8
PIPES
6
CONTINUOUS
10
2581.0976
20
13750.05
30
0
11
2581.0976
21
14750.05
31
0
0
LINE
8
PIPES
6
CONTINUOUS
10
849.0468
20
13750.05
30
0
11
849.0468
21
14750.05
31
0
0
LINE
8
PIPES
6
CONTINUOUS
10
1715.0722
20
14250.05
30
0
11
1715.0722
21
15250.05
31
0
0
LINE
8
PIPES
6
CONTINUOUS
10
849.0381
20
14750.055
30
0
11
849.0381
21
15750.055
31
0
0
LINE
8
PIPES
6
CONTINUOUS
10
-16.9873
20
15250.055
30
0
11
-16.9873
21
16250.055
31
0
0
LINE
8
PIPES
6
CONTINUOUS
10
-883.0127
20
14750.055
30
0
11
-883.0127
21
15750.055
31
0
0
LINE
8
PIPES
6
CONTINUOUS
10
-16.9873
20
14250.055
30
0
11
-16.9873
21
15250.055
31
0
0
LINE
8
PIPES
6
CONTINUOUS
10
-1316.0341
20
13500.05
30
0
11
-1316.0341
21
14500.05
31
0
0
LINE
8
PIPES
6
CONTINUOUS
10
-2182.0595
20
14000.05
30
0
11
-2182.0595
21
15000.05
31
0
0
LINE
8
PIPES
6
CONTINUOUS
10
-3481.0976
20
13250.05
30
0
11
-4347.123
21
13750.05
31
0
0
LINE
8
PIPES
6
CONTINUOUS
10
-4347.123
20
13750.05
30
0
11
-3481.0976
21
14250.05
31
0
0
LINE
8
PIPES
6
CONTINUOUS
10
-3481.0976
20
14250.05
30
0
11
-2615.0722
21
13750.05
31
0
0
LINE
8
PIPES
6
CONTINUOUS
10
-2615.0722
20
13750.05
30
0
11
-3481.0976
21
13250.05
31
0
0
LINE
8
PIPES
6
CONTINUOUS
10
-2615.0722
20
13750.05
30
0
11
-1749.0381
21
13250.045
31
0
0
LINE
8
PIPES
6
CONTINUOUS
10
-1749.0381
20
13250.045
30
0
11
-2615.0635
21
12750.045
31
0
0
LINE
8
PIPES
6
CONTINUOUS
10
-1749.0381
20
13250.045
30
0
11
-883.0127
21
12750.045
31
0
0
LINE
8
PIPES
6
CONTINUOUS
10
-883.0127
20
12750.045
30
0
11
-1749.0381
21
12250.045
31
0
0
LINE
8
PIPES
6
CONTINUOUS
10
-883.0127
20
12750.045
30
0
11
-16.9873
21
12250.045
31
0
0
LINE
8
PIPES
6
CONTINUOUS
10
-16.9873
20
12250.045
30
0
11
-883.0127
21
11750.045
31
0
0
LINE
8
PIPES
6
CONTINUOUS
10
-16.9873
20
12250.045
30
0
11
1282.0508
21
13000.045
31
0
0
LINE
8
PIPES
6
CONTINUOUS
10
1282.0508
20
13000.045
30
0
11
416.0254
21
13500.045
31
0
0
LINE
8
PIPES
6
CONTINUOUS
10
416.0254
20
13500.045
30
0
11
-883.0127
21
12750.045
31
0
0
LINE
8
PIPES
6
CONTINUOUS
10
416.0254
20
13500.045
30
0
11
1715.0722
21
14250.05
31
0
0
LINE
8
PIPES
6
CONTINUOUS
10
2581.0976
20
13750.05
30
0
11
1282.0508
21
13000.045
31
0
0
LINE
8
PIPES
6
CONTINUOUS
10
2581.0976
20
13750.05
30
0
11
3447.123
21
14250.05
31
0
0
LINE
8
PIPES
6
CONTINUOUS
10
3447.123
20
14250.05
30
0
11
2581.0976
21
14750.05
31
0
0
LINE
8
PIPES
6
CONTINUOUS
10
2581.0976
20
14750.05
30
0
11
1715.0722
21
14250.05
31
0
0
LINE
8
PIPES
6
CONTINUOUS
10
849.0468
20
14750.05
30
0
11
1715.0722
21
15250.05
31
0
0
LINE
8
PIPES
6
CONTINUOUS
10
1715.0722
20
15250.05
30
0
11
849.0381
21
15750.055
31
0
0
LINE
8
PIPES
6
CONTINUOUS
10
849.0381
20
15750.055
30
0
11
-16.9873
21
16250.055
31
0
0
LINE
8
PIPES
6
CONTINUOUS
10
-16.9873
20
16250.055
30
0
11
-883.0127
21
15750.055
31
0
0
LINE
8
PIPES
6
CONTINUOUS
10
-883.0127
20
15750.055
30
0
11
-16.9873
21
15250.055
31
0
0
LINE
8
PIPES
6
CONTINUOUS
10
-16.9873
20
15250.055
30
0
11
-1316.0341
21
14500.05
31
0
0
LINE
8
PIPES
6
CONTINUOUS
10
-1316.0341
20
14500.05
30
0
11
-2182.0595
21
15000.05
31
0
0
LINE
8
PIPES
6
CONTINUOUS
10
-2182.0595
20
15000.05
30
0
11
-883.0127
21
15750.055
31
0
0
LINE
8
PIPES
6
CONTINUOUS
10
-16.9873
20
15250.055
30
0
11
849.0381
21
15750.055
31
0
0
LINE
8
PIPES
6
CONTINUOUS
10
1715.0722
20
15250.05
30
0
11
2581.0976
21
14750.05
31
0
0
LINE
8
PIPES
6
CONTINUOUS
10
-2182.0595
20
15000.05
30
0
11
-3481.0976
21
14250.05
31
0
0
LINE
8
PIPES
6
CONTINUOUS
10
-2615.0722
20
13750.05
30
0
11
-1316.0341
21
14500.05
31
0
0
LINE
8
PIPES
6
CONTINUOUS
10
-883.0127
20
-15250.055
30
0
11
-1749.0381
21
-16450.054
31
0
0
LINE
8
PIPES
6
CONTINUOUS
10
-1749.0381
20
-14750.055
30
0
11
-2615.0635
21
-15950.054
31
0
0
LINE
8
PIPES
6
CONTINUOUS
10
-2615.0635
20
-14250.055
30
0
11
-3481.0976
21
-15450.049
31
0
0
LINE
8
PIPES
6
CONTINUOUS
10
-3481.0976
20
-13750.05
30
0
11
-4347.123
21
-14950.049
31
0
0
LINE
8
PIPES
6
CONTINUOUS
10
-883.0127
20
-14250.055
30
0
11
-16.9873
21
-16450.054
31
0
0
LINE
8
PIPES
6
CONTINUOUS
10
-1749.0381
20
-13750.055
30
0
11
-883.0127
21
-15950.054
31
0
0
LINE
8
PIPES
6
CONTINUOUS
10
-2615.0722
20
-13250.05
30
0
11
-1749.0381
21
-15450.054
31
0
0
LINE
8
PIPES
6
CONTINUOUS
10
-3481.0976
20
-12750.05
30
0
11
-2615.0722
21
-14950.049
31
0
0
LINE
8
PIPES
6
CONTINUOUS
10
1282.0508
20
-14000.055
30
0
11
416.0254
21
-15200.054
31
0
0
LINE
8
PIPES
6
CONTINUOUS
10
-1316.0341
20
-12500.05
30
0
11
-2182.0595
21
-13700.049
31
0
0
LINE
8
PIPES
6
CONTINUOUS
10
1715.0722
20
-12750.05
30
0
11
2581.0976
21
-14950.049
31
0
0
LINE
8
PIPES
6
CONTINUOUS
10
849.0468
20
-12250.05
30
0
11
1715.0722
21
-14450.049
31
0
0
LINE
8
PIPES
6
CONTINUOUS
10
-16.9873
20
-11750.045
30
0
11
849.0468
21
-13950.049
31
0
0
LINE
8
PIPES
6
CONTINUOUS
10
-883.0127
20
-11250.045
30
0
11
-16.9873
21
-13450.044
31
0
0
LINE
8
PIPES
6
CONTINUOUS
10
849.0381
20
-11250.045
30
0
11
-16.9873
21
-12450.044
31
0
0
LINE
8
PIPES
6
CONTINUOUS
10
1715.0722
20
-11750.05
30
0
11
849.0381
21
-12950.044
31
0
0
LINE
8
PIPES
6
CONTINUOUS
10
2581.0976
20
-12250.05
30
0
11
1715.0722
21
-13450.049
31
0
0
LINE
8
PIPES
6
CONTINUOUS
10
3447.123
20
-12750.05
30
0
11
2581.0976
21
-13950.049
31
0
0
LINE
8
PIPES
6
CONTINUOUS
10
-16.9873
20
-14750.055
30
0
11
-883.0127
21
-16950.054
31
0
0
LINE
8
PIPES
6
CONTINUOUS
10
1282.0508
20
-14000.055
30
0
11
-16.9873
21
-16450.054
31
0
0
LINE
8
PIPES
6
CONTINUOUS
10
2581.0976
20
-13250.05
30
0
11
1282.0508
21
-15700.054
31
0
0
LINE
8
PIPES
6
CONTINUOUS
10
3447.123
20
-12750.05
30
0
11
2581.0976
21
-14950.049
31
0
0
LINE
8
PIPES
6
CONTINUOUS
10
-1749.0381
20
-14750.055
30
0
11
-883.0127
21
-15950.054
31
0
0
LINE
8
PIPES
6
CONTINUOUS
10
-883.0127
20
-14250.055
30
0
11
416.0254
21
-15200.054
31
0
0
LINE
8
PIPES
6
CONTINUOUS
10
416.0254
20
-13500.055
30
0
11
1715.0722
21
-14450.049
31
0
0
LINE
8
PIPES
6
CONTINUOUS
10
1715.0722
20
-12750.05
30
0
11
2581.0976
21
-13950.049
31
0
0
LINE
8
PIPES
6
CONTINUOUS
10
-1749.0381
20
-13750.055
30
0
11
-2615.0635
21
-15950.054
31
0
0
LINE
8
PIPES
6
CONTINUOUS
10
1715.0722
20
-11750.05
30
0
11
849.0468
21
-13950.049
31
0
0
LINE
8
PIPES
6
CONTINUOUS
10
-3481.0976
20
-13750.05
30
0
11
-2615.0722
21
-14950.049
31
0
0
LINE
8
PIPES
6
CONTINUOUS
10
-2615.0722
20
-13250.05
30
0
11
-1316.0341
21
-14200.049
31
0
0
LINE
8
PIPES
6
CONTINUOUS
10
-1316.0341
20
-12500.05
30
0
11
-16.9873
21
-13450.044
31
0
0
LINE
8
PIPES
6
CONTINUOUS
10
-16.9873
20
-11750.045
30
0
11
849.0381
21
-12950.044
31
0
0
LINE
8
PIPES
6
CONTINUOUS
10
-3481.0976
20
-12750.05
30
0
11
-4347.123
21
-14950.049
31
0
0
LINE
8
PIPES
6
CONTINUOUS
10
-2182.0595
20
-12000.05
30
0
11
-3481.0976
21
-14450.049
31
0
0
LINE
8
PIPES
6
CONTINUOUS
10
-883.0127
20
-11250.045
30
0
11
-2182.0595
21
-13700.049
31
0
0
LINE
8
PIPES
6
CONTINUOUS
10
-16.9873
20
-10750.045
30
0
11
-883.0127
21
-12950.044
31
0
0
LINE
8
PIPES
6
CONTINUOUS
10
-883.0127
20
-13250.055
30
0
11
-1749.0381
21
-14750.055
31
0
0
LINE
8
PIPES
6
CONTINUOUS
10
-1749.0381
20
-12750.055
30
0
11
-2615.0635
21
-14250.055
31
0
0
LINE
8
PIPES
6
CONTINUOUS
10
-2615.0635
20
-12250.055
30
0
11
-3481.0976
21
-13750.05
31
0
0
LINE
8
PIPES
6
CONTINUOUS
10
-3481.0976
20
-11750.05
30
0
11
-4347.123
21
-13250.05
31
0
0
LINE
8
PIPES
6
CONTINUOUS
10
-883.0127
20
-12250.055
30
0
11
-16.9873
21
-14750.055
31
0
0
LINE
8
PIPES
6
CONTINUOUS
10
-1749.0381
20
-11750.055
30
0
11
-883.0127
21
-14250.055
31
0
0
LINE
8
PIPES
6
CONTINUOUS
10
-2615.0722
20
-11250.05
30
0
11
-1749.0381
21
-13750.055
31
0
0
LINE
8
PIPES
6
CONTINUOUS
10
-3481.0976
20
-10750.05
30
0
11
-2615.0722
21
-13250.05
31
0
0
LINE
8
PIPES
6
CONTINUOUS
10
1282.0508
20
-12000.055
30
0
11
416.0254
21
-13500.055
31
0
0
LINE
8
PIPES
6
CONTINUOUS
10
-1316.0341
20
-10500.05
30
0
11
-2182.0595
21
-12000.05
31
0
0
LINE
8
PIPES
6
CONTINUOUS
10
1715.0722
20
-10750.05
30
0
11
2581.0976
21
-13250.05
31
0
0
LINE
8
PIPES
6
CONTINUOUS
10
849.0468
20
-10250.05
30
0
11
1715.0722
21
-12750.05
31
0
0
LINE
8
PIPES
6
CONTINUOUS
10
-16.9873
20
-9750.045
30
0
11
849.0468
21
-12250.05
31
0
0
LINE
8
PIPES
6
CONTINUOUS
10
-883.0127
20
-9250.045
30
0
11
-16.9873
21
-11750.045
31
0
0
LINE
8
PIPES
6
CONTINUOUS
10
3447.123
20
-10750.05
30
0
11
2581.0976
21
-12250.05
31
0
0
LINE
8
PIPES
6
CONTINUOUS
10
2581.0976
20
-10250.05
30
0
11
1715.0722
21
-11750.05
31
0
0
LINE
8
PIPES
6
CONTINUOUS
10
1715.0722
20
-9750.05
30
0
11
849.0381
21
-11250.045
31
0
0
LINE
8
PIPES
6
CONTINUOUS
10
849.0381
20
-9250.045
30
0
11
-16.9873
21
-10750.045
31
0
0
LINE
8
PIPES
6
CONTINUOUS
10
-883.0127
20
-13250.055
30
0
11
-16.9873
21
-14750.055
31
0
0
LINE
8
PIPES
6
CONTINUOUS
10
-16.9873
20
-12750.055
30
0
11
1282.0508
21
-14000.055
31
0
0
LINE
8
PIPES
6
CONTINUOUS
10
1282.0508
20
-12000.055
30
0
11
2581.0976
21
-13250.05
31
0
0
LINE
8
PIPES
6
CONTINUOUS
10
2581.0976
20
-11250.05
30
0
11
3447.123
21
-12750.05
31
0
0
LINE
8
PIPES
6
CONTINUOUS
10
-883.0127
20
-12250.055
30
0
11
-1749.0381
21
-14750.055
31
0
0
LINE
8
PIPES
6
CONTINUOUS
10
416.0254
20
-11500.055
30
0
11
-883.0127
21
-14250.055
31
0
0
LINE
8
PIPES
6
CONTINUOUS
10
1715.0722
20
-10750.05
30
0
11
416.0254
21
-13500.055
31
0
0
LINE
8
PIPES
6
CONTINUOUS
10
2581.0976
20
-10250.05
30
0
11
1715.0722
21
-12750.05
31
0
0
LINE
8
PIPES
6
CONTINUOUS
10
-2615.0635
20
-12250.055
30
0
11
-1749.0381
21
-13750.055
31
0
0
LINE
8
PIPES
6
CONTINUOUS
10
849.0468
20
-10250.05
30
0
11
1715.0722
21
-11750.05
31
0
0
LINE
8
PIPES
6
CONTINUOUS
10
-2615.0722
20
-11250.05
30
0
11
-3481.0976
21
-13750.05
31
0
0
LINE
8
PIPES
6
CONTINUOUS
10
-1316.0341
20
-10500.05
30
0
11
-2615.0722
21
-13250.05
31
0
0
LINE
8
PIPES
6
CONTINUOUS
10
-16.9873
20
-9750.045
30
0
11
-1316.0341
21
-12500.05
31
0
0
LINE
8
PIPES
6
CONTINUOUS
10
849.0381
20
-9250.045
30
0
11
-16.9873
21
-11750.045
31
0
0
LINE
8
PIPES
6
CONTINUOUS
10
-4347.123
20
-11250.05
30
0
11
-3481.0976
21
-12750.05
31
0
0
LINE
8
PIPES
6
CONTINUOUS
10
-3481.0976
20
-10750.05
30
0
11
-2182.0595
21
-12000.05
31
0
0
LINE
8
PIPES
6
CONTINUOUS
10
-2182.0595
20
-10000.05
30
0
11
-883.0127
21
-11250.045
31
0
0
LINE
8
PIPES
6
CONTINUOUS
10
-883.0127
20
-9250.045
30
0
11
-16.9873
21
-10750.045
31
0
0
LINE
8
PIPES
6
CONTINUOUS
10
-883.0127
20
-11250.045
30
0
11
-1749.0381
21
-12750.055
31
0
0
LINE
8
PIPES
6
CONTINUOUS
10
-1749.0381
20
-10750.045
30
0
11
-2615.0635
21
-12250.055
31
0
0
LINE
8
PIPES
6
CONTINUOUS
10
-2615.0635
20
-10250.045
30
0
11
-3481.0976
21
-11750.05
31
0
0
LINE
8
PIPES
6
CONTINUOUS
10
-3481.0976
20
-9750.04
30
0
11
-4347.123
21
-11250.05
31
0
0
LINE
8
PIPES
6
CONTINUOUS
10
-883.0127
20
-10250.045
30
0
11
-16.9873
21
-12750.055
31
0
0
LINE
8
PIPES
6
CONTINUOUS
10
-1749.0381
20
-9750.045
30
0
11
-883.0127
21
-12250.055
31
0
0
LINE
8
PIPES
6
CONTINUOUS
10
-2615.0722
20
-9250.04
30
0
11
-1749.0381
21
-11750.055
31
0
0
LINE
8
PIPES
6
CONTINUOUS
10
-3481.0976
20
-8750.04
30
0
11
-2615.0722
21
-11250.05
31
0
0
LINE
8
PIPES
6
CONTINUOUS
10
1282.0508
20
-10000.045
30
0
11
416.0254
21
-11500.055
31
0
0
LINE
8
PIPES
6
CONTINUOUS
10
-1316.0341
20
-8500.04
30
0
11
-2182.0595
21
-10000.05
31
0
0
LINE
8
PIPES
6
CONTINUOUS
10
1715.0722
20
-8750.04
30
0
11
2581.0976
21
-11250.05
31
0
0
LINE
8
PIPES
6
CONTINUOUS
10
849.0468
20
-8250.04
30
0
11
1715.0722
21
-10750.05
31
0
0
LINE
8
PIPES
6
CONTINUOUS
10
-16.9873
20
-7750.035
30
0
11
849.0468
21
-10250.05
31
0
0
LINE
8
PIPES
6
CONTINUOUS
10
-883.0127
20
-7250.035
30
0
11
-16.9873
21
-9750.045
31
0
0
LINE
8
PIPES
6
CONTINUOUS
10
3447.123
20
-8750.04
30
0
11
2581.0976
21
-10250.05
31
0
0
LINE
8
PIPES
6
CONTINUOUS
10
2581.0976
20
-8250.04
30
0
11
1715.0722
21
-9750.05
31
0
0
LINE
8
PIPES
6
CONTINUOUS
10
1715.0722
20
-7750.04
30
0
11
849.0381
21
-9250.045
31
0
0
LINE
8
PIPES
6
CONTINUOUS
10
849.0381
20
-7250.035
30
0
11
-16.9873
21
-8750.045
31
0
0
LINE
8
PIPES
6
CONTINUOUS
10
-883.0127
20
-11250.045
30
0
11
-16.9873
21
-12750.055
31
0
0
LINE
8
PIPES
6
CONTINUOUS
10
-16.9873
20
-10750.045
30
0
11
1282.0508
21
-12000.055
31
0
0
LINE
8
PIPES
6
CONTINUOUS
10
1282.0508
20
-10000.045
30
0
11
2581.0976
21
-11250.05
31
0
0
LINE
8
PIPES
6
CONTINUOUS
10
2581.0976
20
-9250.04
30
0
11
3447.123
21
-10750.05
31
0
0
LINE
8
PIPES
6
CONTINUOUS
10
-883.0127
20
-10250.045
30
0
11
-1749.0381
21
-12750.055
31
0
0
LINE
8
PIPES
6
CONTINUOUS
10
416.0254
20
-9500.045
30
0
11
-883.0127
21
-12250.055
31
0
0
LINE
8
PIPES
6
CONTINUOUS
10
1715.0722
20
-8750.04
30
0
11
416.0254
21
-11500.055
31
0
0
LINE
8
PIPES
6
CONTINUOUS
10
2581.0976
20
-8250.04
30
0
11
1715.0722
21
-10750.05
31
0
0
LINE
8
PIPES
6
CONTINUOUS
10
-2615.0635
20
-10250.045
30
0
11
-1749.0381
21
-11750.055
31
0
0
LINE
8
PIPES
6
CONTINUOUS
10
849.0468
20
-8250.04
30
0
11
1715.0722
21
-9750.05
31
0
0
LINE
8
PIPES
6
CONTINUOUS
10
-2615.0722
20
-9250.04
30
0
11
-3481.0976
21
-11750.05
31
0
0
LINE
8
PIPES
6
CONTINUOUS
10
-1316.0341
20
-8500.04
30
0
11
-2615.0722
21
-11250.05
31
0
0
LINE
8
PIPES
6
CONTINUOUS
10
-16.9873
20
-7750.035
30
0
11
-1316.0341
21
-10500.05
31
0
0
LINE
8
PIPES
6
CONTINUOUS
10
849.0381
20
-7250.035
30
0
11
-16.9873
21
-9750.045
31
0
0
LINE
8
PIPES
6
CONTINUOUS
10
-4347.123
20
-9250.04
30
0
11
-3481.0976
21
-10750.05
31
0
0
LINE
8
PIPES
6
CONTINUOUS
10
-3481.0976
20
-8750.04
30
0
11
-2182.0595
21
-10000.05
31
0
0
LINE
8
PIPES
6
CONTINUOUS
10
-2182.0595
20
-8000.04
30
0
11
-883.0127
21
-9250.045
31
0
0
LINE
8
PIPES
6
CONTINUOUS
10
-883.0127
20
-7250.035
30
0
11
-16.9873
21
-8750.045
31
0
0
LINE
8
PIPES
6
CONTINUOUS
10
-883.0127
20
-9250.045
30
0
11
-1749.0381
21
-10750.045
31
0
0
LINE
8
PIPES
6
CONTINUOUS
10
-1749.0381
20
-8750.045
30
0
11
-2615.0635
21
-10250.045
31
0
0
LINE
8
PIPES
6
CONTINUOUS
10
-2615.0635
20
-8250.045
30
0
11
-3481.0976
21
-9750.04
31
0
0
LINE
8
PIPES
6
CONTINUOUS
10
-3481.0976
20
-7750.04
30
0
11
-4347.123
21
-9250.04
31
0
0
LINE
8
PIPES
6
CONTINUOUS
10
-883.0127
20
-8250.045
30
0
11
-16.9873
21
-10750.045
31
0
0
LINE
8
PIPES
6
CONTINUOUS
10
-1749.0381
20
-7750.045
30
0
11
-883.0127
21
-10250.045
31
0
0
LINE
8
PIPES
6
CONTINUOUS
10
-2615.0722
20
-7250.04
30
0
11
-1749.0381
21
-9750.045
31
0
0
LINE
8
PIPES
6
CONTINUOUS
10
-3481.0976
20
-6750.04
30
0
11
-2615.0722
21
-9250.04
31
0
0
LINE
8
PIPES
6
CONTINUOUS
10
1282.0508
20
-8000.045
30
0
11
416.0254
21
-9500.045
31
0
0
LINE
8
PIPES
6
CONTINUOUS
10
-1316.0341
20
-6500.04
30
0
11
-2182.0595
21
-8000.04
31
0
0
LINE
8
PIPES
6
CONTINUOUS
10
1715.0722
20
-6750.04
30
0
11
2581.0976
21
-9250.04
31
0
0
LINE
8
PIPES
6
CONTINUOUS
10
849.0468
20
-6250.04
30
0
11
1715.0722
21
-8750.04
31
0
0
LINE
8
PIPES
6
CONTINUOUS
10
-16.9873
20
-5750.035
30
0
11
849.0468
21
-8250.04
31
0
0
LINE
8
PIPES
6
CONTINUOUS
10
-883.0127
20
-5250.035
30
0
11
-16.9873
21
-7750.035
31
0
0
LINE
8
PIPES
6
CONTINUOUS
10
3447.123
20
-6750.04
30
0
11
2581.0976
21
-8250.04
31
0
0
LINE
8
PIPES
6
CONTINUOUS
10
2581.0976
20
-6250.04
30
0
11
1715.0722
21
-7750.04
31
0
0
LINE
8
PIPES
6
CONTINUOUS
10
1715.0722
20
-5750.04
30
0
11
849.0381
21
-7250.035
31
0
0
LINE
8
PIPES
6
CONTINUOUS
10
849.0381
20
-5250.035
30
0
11
-16.9873
21
-6750.035
31
0
0
LINE
8
PIPES
6
CONTINUOUS
10
-16.9873
20
-8750.045
30
0
11
1282.0508
21
-10000.045
31
0
0
LINE
8
PIPES
6
CONTINUOUS
10
1282.0508
20
-8000.045
30
0
11
2581.0976
21
-9250.04
31
0
0
LINE
8
PIPES
6
CONTINUOUS
10
2581.0976
20
-7250.04
30
0
11
3447.123
21
-8750.04
31
0
0
LINE
8
PIPES
6
CONTINUOUS
10
-883.0127
20
-8250.045
30
0
11
-1749.0381
21
-10750.045
31
0
0
LINE
8
PIPES
6
CONTINUOUS
10
416.0254
20
-7500.045
30
0
11
-883.0127
21
-10250.045
31
0
0
LINE
8
PIPES
6
CONTINUOUS
10
1715.0722
20
-6750.04
30
0
11
416.0254
21
-9500.045
31
0
0
LINE
8
PIPES
6
CONTINUOUS
10
2581.0976
20
-6250.04
30
0
11
1715.0722
21
-8750.04
31
0
0
LINE
8
PIPES
6
CONTINUOUS
10
-2615.0635
20
-8250.045
30
0
11
-1749.0381
21
-9750.045
31
0
0
LINE
8
PIPES
6
CONTINUOUS
10
849.0468
20
-6250.04
30
0
11
1715.0722
21
-7750.04
31
0
0
LINE
8
PIPES
6
CONTINUOUS
10
-2615.0722
20
-7250.04
30
0
11
-3481.0976
21
-9750.04
31
0
0
LINE
8
PIPES
6
CONTINUOUS
10
-1316.0341
20
-6500.04
30
0
11
-2615.0722
21
-9250.04
31
0
0
LINE
8
PIPES
6
CONTINUOUS
10
-16.9873
20
-5750.035
30
0
11
-1316.0341
21
-8500.04
31
0
0
LINE
8
PIPES
6
CONTINUOUS
10
849.0381
20
-5250.035
30
0
11
-16.9873
21
-7750.035
31
0
0
LINE
8
PIPES
6
CONTINUOUS
10
-4347.123
20
-7250.04
30
0
11
-3481.0976
21
-8750.04
31
0
0
LINE
8
PIPES
6
CONTINUOUS
10
-3481.0976
20
-6750.04
30
0
11
-2182.0595
21
-8000.04
31
0
0
LINE
8
PIPES
6
CONTINUOUS
10
-2182.0595
20
-6000.04
30
0
11
-883.0127
21
-7250.035
31
0
0
LINE
8
PIPES
6
CONTINUOUS
10
-883.0127
20
-5250.035
30
0
11
-16.9873
21
-6750.035
31
0
0
LINE
8
PIPES
6
CONTINUOUS
10
-883.0127
20
-7250.055
30
0
11
-1749.0381
21
-8750.045
31
0
0
LINE
8
PIPES
6
CONTINUOUS
10
-1749.0381
20
-6750.055
30
0
11
-2615.0635
21
-8250.045
31
0
0
LINE
8
PIPES
6
CONTINUOUS
10
-2615.0635
20
-6250.055
30
0
11
-3481.0976
21
-7750.04
31
0
0
LINE
8
PIPES
6
CONTINUOUS
10
-3481.0976
20
-5750.05
30
0
11
-4347.123
21
-7250.04
31
0
0
LINE
8
PIPES
6
CONTINUOUS
10
-883.0127
20
-6250.055
30
0
11
-16.9873
21
-8750.045
31
0
0
LINE
8
PIPES
6
CONTINUOUS
10
-1749.0381
20
-5750.055
30
0
11
-883.0127
21
-8250.045
31
0
0
LINE
8
PIPES
6
CONTINUOUS
10
-2615.0722
20
-5250.05
30
0
11
-1749.0381
21
-7750.045
31
0
0
LINE
8
PIPES
6
CONTINUOUS
10
-3481.0976
20
-4750.05
30
0
11
-2615.0722
21
-7250.04
31
0
0
LINE
8
PIPES
6
CONTINUOUS
10
1282.0508
20
-6000.055
30
0
11
416.0254
21
-7500.045
31
0
0
LINE
8
PIPES
6
CONTINUOUS
10
-1316.0341
20
-4500.05
30
0
11
-2182.0595
21
-6000.04
31
0
0
LINE
8
PIPES
6
CONTINUOUS
10
1715.0722
20
-4750.05
30
0
11
2581.0976
21
-7250.04
31
0
0
LINE
8
PIPES
6
CONTINUOUS
10
849.0468
20
-4250.05
30
0
11
1715.0722
21
-6750.04
31
0
0
LINE
8
PIPES
6
CONTINUOUS
10
-16.9873
20
-3750.045
30
0
11
849.0468
21
-6250.04
31
0
0
LINE
8
PIPES
6
CONTINUOUS
10
-883.0127
20
-3250.045
30
0
11
-16.9873
21
-5750.035
31
0
0
LINE
8
PIPES
6
CONTINUOUS
10
3447.123
20
-4750.05
30
0
11
2581.0976
21
-6250.04
31
0
0
LINE
8
PIPES
6
CONTINUOUS
10
2581.0976
20
-4250.05
30
0
11
1715.0722
21
-5750.04
31
0
0
LINE
8
PIPES
6
CONTINUOUS
10
1715.0722
20
-3750.05
30
0
11
849.0381
21
-5250.035
31
0
0
LINE
8
PIPES
6
CONTINUOUS
10
849.0381
20
-3250.045
30
0
11
-16.9873
21
-4750.035
31
0
0
LINE
8
PIPES
6
CONTINUOUS
10
-16.9873
20
-6750.055
30
0
11
1282.0508
21
-8000.045
31
0
0
LINE
8
PIPES
6
CONTINUOUS
10
1282.0508
20
-6000.055
30
0
11
2581.0976
21
-7250.04
31
0
0
LINE
8
PIPES
6
CONTINUOUS
10
2581.0976
20
-5250.05
30
0
11
3447.123
21
-6750.04
31
0
0
LINE
8
PIPES
6
CONTINUOUS
10
-883.0127
20
-6250.055
30
0
11
-1749.0381
21
-8750.045
31
0
0
LINE
8
PIPES
6
CONTINUOUS
10
416.0254
20
-5500.055
30
0
11
-883.0127
21
-8250.045
31
0
0
LINE
8
PIPES
6
CONTINUOUS
10
1715.0722
20
-4750.05
30
0
11
416.0254
21
-7500.045
31
0
0
LINE
8
PIPES
6
CONTINUOUS
10
2581.0976
20
-4250.05
30
0
11
1715.0722
21
-6750.04
31
0
0
LINE
8
PIPES
6
CONTINUOUS
10
-2615.0635
20
-6250.055
30
0
11
-1749.0381
21
-7750.045
31
0
0
LINE
8
PIPES
6
CONTINUOUS
10
849.0468
20
-4250.05
30
0
11
1715.0722
21
-5750.04
31
0
0
LINE
8
PIPES
6
CONTINUOUS
10
-2615.0722
20
-5250.05
30
0
11
-3481.0976
21
-7750.04
31
0
0
LINE
8
PIPES
6
CONTINUOUS
10
-1316.0341
20
-4500.05
30
0
11
-2615.0722
21
-7250.04
31
0
0
LINE
8
PIPES
6
CONTINUOUS
10
-16.9873
20
-3750.045
30
0
11
-1316.0341
21
-6500.04
31
0
0
LINE
8
PIPES
6
CONTINUOUS
10
849.0381
20
-3250.045
30
0
11
-16.9873
21
-5750.035
31
0
0
LINE
8
PIPES
6
CONTINUOUS
10
-4347.123
20
-5250.05
30
0
11
-3481.0976
21
-6750.04
31
0
0
LINE
8
PIPES
6
CONTINUOUS
10
-3481.0976
20
-4750.05
30
0
11
-2182.0595
21
-6000.04
31
0
0
LINE
8
PIPES
6
CONTINUOUS
10
-2182.0595
20
-4000.05
30
0
11
-883.0127
21
-5250.035
31
0
0
LINE
8
PIPES
6
CONTINUOUS
10
-883.0127
20
-3250.045
30
0
11
-16.9873
21
-4750.035
31
0
0
LINE
8
PIPES
6
CONTINUOUS
10
-883.0127
20
-5250.055
30
0
11
-1749.0381
21
-6750.055
31
0
0
LINE
8
PIPES
6
CONTINUOUS
10
-1749.0381
20
-4750.055
30
0
11
-2615.0635
21
-6250.055
31
0
0
LINE
8
PIPES
6
CONTINUOUS
10
-2615.0635
20
-4250.055
30
0
11
-3481.0976
21
-5750.05
31
0
0
LINE
8
PIPES
6
CONTINUOUS
10
-3481.0976
20
-3750.05
30
0
11
-4347.123
21
-5250.05
31
0
0
LINE
8
PIPES
6
CONTINUOUS
10
-883.0127
20
-4250.055
30
0
11
-16.9873
21
-6750.055
31
0
0
LINE
8
PIPES
6
CONTINUOUS
10
-1749.0381
20
-3750.055
30
0
11
-883.0127
21
-6250.055
31
0
0
LINE
8
PIPES
6
CONTINUOUS
10
-2615.0722
20
-3250.05
30
0
11
-1749.0381
21
-5750.055
31
0
0
LINE
8
PIPES
6
CONTINUOUS
10
-3481.0976
20
-2750.05
30
0
11
-2615.0722
21
-5250.05
31
0
0
LINE
8
PIPES
6
CONTINUOUS
10
1282.0508
20
-4000.055
30
0
11
416.0254
21
-5500.055
31
0
0
LINE
8
PIPES
6
CONTINUOUS
10
-1316.0341
20
-2500.05
30
0
11
-2182.0595
21
-4000.05
31
0
0
LINE
8
PIPES
6
CONTINUOUS
10
1715.0722
20
-2750.05
30
0
11
2581.0976
21
-5250.05
31
0
0
LINE
8
PIPES
6
CONTINUOUS
10
849.0468
20
-2250.05
30
0
11
1715.0722
21
-4750.05
31
0
0
LINE
8
PIPES
6
CONTINUOUS
10
-16.9873
20
-1750.045
30
0
11
849.0468
21
-4250.05
31
0
0
LINE
8
PIPES
6
CONTINUOUS
10
-883.0127
20
-1250.045
30
0
11
-16.9873
21
-3750.045
31
0
0
LINE
8
PIPES
6
CONTINUOUS
10
3447.123
20
-2750.05
30
0
11
2581.0976
21
-4250.05
31
0
0
LINE
8
PIPES
6
CONTINUOUS
10
2581.0976
20
-2250.05
30
0
11
1715.0722
21
-3750.05
31
0
0
LINE
8
PIPES
6
CONTINUOUS
10
1715.0722
20
-1750.05
30
0
11
849.0381
21
-3250.045
31
0
0
LINE
8
PIPES
6
CONTINUOUS
10
849.0381
20
-1250.045
30
0
11
-16.9873
21
-2750.045
31
0
0
LINE
8
PIPES
6
CONTINUOUS
10
-16.9873
20
-4750.055
30
0
11
1282.0508
21
-6000.055
31
0
0
LINE
8
PIPES
6
CONTINUOUS
10
1282.0508
20
-4000.055
30
0
11
2581.0976
21
-5250.05
31
0
0
LINE
8
PIPES
6
CONTINUOUS
10
2581.0976
20
-3250.05
30
0
11
3447.123
21
-4750.05
31
0
0
LINE
8
PIPES
6
CONTINUOUS
10
-883.0127
20
-4250.055
30
0
11
-1749.0381
21
-6750.055
31
0
0
LINE
8
PIPES
6
CONTINUOUS
10
416.0254
20
-3500.055
30
0
11
-883.0127
21
-6250.055
31
0
0
LINE
8
PIPES
6
CONTINUOUS
10
1715.0722
20
-2750.05
30
0
11
416.0254
21
-5500.055
31
0
0
LINE
8
PIPES
6
CONTINUOUS
10
2581.0976
20
-2250.05
30
0
11
1715.0722
21
-4750.05
31
0
0
LINE
8
PIPES
6
CONTINUOUS
10
-2615.0635
20
-4250.055
30
0
11
-1749.0381
21
-5750.055
31
0
0
LINE
8
PIPES
6
CONTINUOUS
10
849.0468
20
-2250.05
30
0
11
1715.0722
21
-3750.05
31
0
0
LINE
8
PIPES
6
CONTINUOUS
10
-2615.0722
20
-3250.05
30
0
11
-3481.0976
21
-5750.05
31
0
0
LINE
8
PIPES
6
CONTINUOUS
10
-1316.0341
20
-2500.05
30
0
11
-2615.0722
21
-5250.05
31
0
0
LINE
8
PIPES
6
CONTINUOUS
10
-16.9873
20
-1750.045
30
0
11
-1316.0341
21
-4500.05
31
0
0
LINE
8
PIPES
6
CONTINUOUS
10
849.0381
20
-1250.045
30
0
11
-16.9873
21
-3750.045
31
0
0
LINE
8
PIPES
6
CONTINUOUS
10
-4347.123
20
-3250.05
30
0
11
-3481.0976
21
-4750.05
31
0
0
LINE
8
PIPES
6
CONTINUOUS
10
-3481.0976
20
-2750.05
30
0
11
-2182.0595
21
-4000.05
31
0
0
LINE
8
PIPES
6
CONTINUOUS
10
-2182.0595
20
-2000.05
30
0
11
-883.0127
21
-3250.045
31
0
0
LINE
8
PIPES
6
CONTINUOUS
10
-883.0127
20
-1250.045
30
0
11
-16.9873
21
-2750.045
31
0
0
LINE
8
PIPES
6
CONTINUOUS
10
-883.0127
20
-3250.055
30
0
11
-1749.0381
21
-4750.055
31
0
0
LINE
8
PIPES
6
CONTINUOUS
10
-1749.0381
20
-2750.055
30
0
11
-2615.0635
21
-4250.055
31
0
0
LINE
8
PIPES
6
CONTINUOUS
10
-2615.0635
20
-2250.055
30
0
11
-3481.0976
21
-3750.05
31
0
0
LINE
8
PIPES
6
CONTINUOUS
10
-3481.0976
20
-1750.05
30
0
11
-4347.123
21
-3250.05
31
0
0
LINE
8
PIPES
6
CONTINUOUS
10
-883.0127
20
-2250.055
30
0
11
-16.9873
21
-4750.055
31
0
0
LINE
8
PIPES
6
CONTINUOUS
10
-1749.0381
20
-1750.055
30
0
11
-883.0127
21
-4250.055
31
0
0
LINE
8
PIPES
6
CONTINUOUS
10
-2615.0722
20
-1250.05
30
0
11
-1749.0381
21
-3750.055
31
0
0
LINE
8
PIPES
6
CONTINUOUS
10
-3481.0976
20
-750.05
30
0
11
-2615.0722
21
-3250.05
31
0
0
LINE
8
PIPES
6
CONTINUOUS
10
1282.0508
20
-2000.055
30
0
11
416.0254
21
-3500.055
31
0
0
LINE
8
PIPES
6
CONTINUOUS
10
-1316.0341
20
-500.05
30
0
11
-2182.0595
21
-2000.05
31
0
0
LINE
8
PIPES
6
CONTINUOUS
10
1715.0722
20
-750.05
30
0
11
2581.0976
21
-3250.05
31
0
0
LINE
8
PIPES
6
CONTINUOUS
10
849.0468
20
-250.05
30
0
11
1715.0722
21
-2750.05
31
0
0
LINE
8
PIPES
6
CONTINUOUS
10
-16.9873
20
249.955
30
0
11
849.0468
21
-2250.05
31
0
0
LINE
8
PIPES
6
CONTINUOUS
10
-883.0127
20
749.955
30
0
11
-16.9873
21
-1750.045
31
0
0
LINE
8
PIPES
6
CONTINUOUS
10
3447.123
20
-750.05
30
0
11
2581.0976
21
-2250.05
31
0
0
LINE
8
PIPES
6
CONTINUOUS
10
2581.0976
20
-250.05
30
0
11
1715.0722
21
-1750.05
31
0
0
LINE
8
PIPES
6
CONTINUOUS
10
1715.0722
20
249.95
30
0
11
849.0381
21
-1250.045
31
0
0
LINE
8
PIPES
6
CONTINUOUS
10
849.0381
20
749.955
30
0
11
-16.9873
21
-750.045
31
0
0
LINE
8
PIPES
6
CONTINUOUS
10
-16.9873
20
-2750.055
30
0
11
1282.0508
21
-4000.055
31
0
0
LINE
8
PIPES
6
CONTINUOUS
10
1282.0508
20
-2000.055
30
0
11
2581.0976
21
-3250.05
31
0
0
LINE
8
PIPES
6
CONTINUOUS
10
2581.0976
20
-1250.05
30
0
11
3447.123
21
-2750.05
31
0
0
LINE
8
PIPES
6
CONTINUOUS
10
-883.0127
20
-2250.055
30
0
11
-1749.0381
21
-4750.055
31
0
0
LINE
8
PIPES
6
CONTINUOUS
10
416.0254
20
-1500.055
30
0
11
-883.0127
21
-4250.055
31
0
0
LINE
8
PIPES
6
CONTINUOUS
10
1715.0722
20
-750.05
30
0
11
416.0254
21
-3500.055
31
0
0
LINE
8
PIPES
6
CONTINUOUS
10
2581.0976
20
-250.05
30
0
11
1715.0722
21
-2750.05
31
0
0
LINE
8
PIPES
6
CONTINUOUS
10
-2615.0635
20
-2250.055
30
0
11
-1749.0381
21
-3750.055
31
0
0
LINE
8
PIPES
6
CONTINUOUS
10
849.0468
20
-250.05
30
0
11
1715.0722
21
-1750.05
31
0
0
LINE
8
PIPES
6
CONTINUOUS
10
-2615.0722
20
-1250.05
30
0
11
-3481.0976
21
-3750.05
31
0
0
LINE
8
PIPES
6
CONTINUOUS
10
-1316.0341
20
-500.05
30
0
11
-2615.0722
21
-3250.05
31
0
0
LINE
8
PIPES
6
CONTINUOUS
10
-16.9873
20
249.955
30
0
11
-1316.0341
21
-2500.05
31
0
0
LINE
8
PIPES
6
CONTINUOUS
10
849.0381
20
749.955
30
0
11
-16.9873
21
-1750.045
31
0
0
LINE
8
PIPES
6
CONTINUOUS
10
-4347.123
20
-1250.05
30
0
11
-3481.0976
21
-2750.05
31
0
0
LINE
8
PIPES
6
CONTINUOUS
10
-3481.0976
20
-750.05
30
0
11
-2182.0595
21
-2000.05
31
0
0
LINE
8
PIPES
6
CONTINUOUS
10
-2182.0595
20
-0.05
30
0
11
-883.0127
21
-1250.045
31
0
0
LINE
8
PIPES
6
CONTINUOUS
10
-883.0127
20
749.955
30
0
11
-16.9873
21
-750.045
31
0
0
LINE
8
PIPES
6
CONTINUOUS
10
-883.0127
20
-1250.055
30
0
11
-1749.0381
21
-2750.055
31
0
0
LINE
8
PIPES
6
CONTINUOUS
10
-1749.0381
20
-750.055
30
0
11
-2615.0635
21
-2250.055
31
0
0
LINE
8
PIPES
6
CONTINUOUS
10
-2615.0635
20
-250.055
30
0
11
-3481.0976
21
-1750.05
31
0
0
LINE
8
PIPES
6
CONTINUOUS
10
-3481.0976
20
249.95
30
0
11
-4347.123
21
-1250.05
31
0
0
LINE
8
PIPES
6
CONTINUOUS
10
-883.0127
20
-250.055
30
0
11
-16.9873
21
-2750.055
31
0
0
LINE
8
PIPES
6
CONTINUOUS
10
-1749.0381
20
249.945
30
0
11
-883.0127
21
-2250.055
31
0
0
LINE
8
PIPES
6
CONTINUOUS
10
-2615.0722
20
749.95
30
0
11
-1749.0381
21
-1750.055
31
0
0
LINE
8
PIPES
6
CONTINUOUS
10
-3481.0976
20
1249.95
30
0
11
-2615.0722
21
-1250.05
31
0
0
LINE
8
PIPES
6
CONTINUOUS
10
1282.0508
20
-0.055
30
0
11
416.0254
21
-1500.055
31
0
0
LINE
8
PIPES
6
CONTINUOUS
10
-1316.0341
20
1499.95
30
0
11
-2182.0595
21
-0.05
31
0
0
LINE
8
PIPES
6
CONTINUOUS
10
1715.0722
20
1249.95
30
0
11
2581.0976
21
-1250.05
31
0
0
LINE
8
PIPES
6
CONTINUOUS
10
849.0468
20
1749.95
30
0
11
1715.0722
21
-750.05
31
0
0
LINE
8
PIPES
6
CONTINUOUS
10
-16.9873
20
2249.955
30
0
11
849.0468
21
-250.05
31
0
0
LINE
8
PIPES
6
CONTINUOUS
10
-883.0127
20
2749.955
30
0
11
-16.9873
21
249.955
31
0
0
LINE
8
PIPES
6
CONTINUOUS
10
3447.123
20
1249.95
30
0
11
2581.0976
21
-250.05
31
0
0
LINE
8
PIPES
6
CONTINUOUS
10
2581.0976
20
1749.95
30
0
11
1715.0722
21
249.95
31
0
0
LINE
8
PIPES
6
CONTINUOUS
10
1715.0722
20
2249.95
30
0
11
849.0381
21
749.955
31
0
0
LINE
8
PIPES
6
CONTINUOUS
10
849.0381
20
2749.955
30
0
11
-16.9873
21
1249.955
31
0
0
LINE
8
PIPES
6
CONTINUOUS
10
-16.9873
20
-750.055
30
0
11
1282.0508
21
-2000.055
31
0
0
LINE
8
PIPES
6
CONTINUOUS
10
1282.0508
20
-0.055
30
0
11
2581.0976
21
-1250.05
31
0
0
LINE
8
PIPES
6
CONTINUOUS
10
2581.0976
20
749.95
30
0
11
3447.123
21
-750.05
31
0
0
LINE
8
PIPES
6
CONTINUOUS
10
-883.0127
20
-250.055
30
0
11
-1749.0381
21
-2750.055
31
0
0
LINE
8
PIPES
6
CONTINUOUS
10
416.0254
20
499.945
30
0
11
-883.0127
21
-2250.055
31
0
0
LINE
8
PIPES
6
CONTINUOUS
10
1715.0722
20
1249.95
30
0
11
416.0254
21
-1500.055
31
0
0
LINE
8
PIPES
6
CONTINUOUS
10
2581.0976
20
1749.95
30
0
11
1715.0722
21
-750.05
31
0
0
LINE
8
PIPES
6
CONTINUOUS
10
-2615.0635
20
-250.055
30
0
11
-1749.0381
21
-1750.055
31
0
0
LINE
8
PIPES
6
CONTINUOUS
10
849.0468
20
1749.95
30
0
11
1715.0722
21
249.95
31
0
0
LINE
8
PIPES
6
CONTINUOUS
10
-2615.0722
20
749.95
30
0
11
-3481.0976
21
-1750.05
31
0
0
LINE
8
PIPES
6
CONTINUOUS
10
-1316.0341
20
1499.95
30
0
11
-2615.0722
21
-1250.05
31
0
0
LINE
8
PIPES
6
CONTINUOUS
10
-16.9873
20
2249.955
30
0
11
-1316.0341
21
-500.05
31
0
0
LINE
8
PIPES
6
CONTINUOUS
10
849.0381
20
2749.955
30
0
11
-16.9873
21
249.955
31
0
0
LINE
8
PIPES
6
CONTINUOUS
10
-4347.123
20
749.95
30
0
11
-3481.0976
21
-750.05
31
0
0
LINE
8
PIPES
6
CONTINUOUS
10
-3481.0976
20
1249.95
30
0
11
-2182.0595
21
-0.05
31
0
0
LINE
8
PIPES
6
CONTINUOUS
10
-2182.0595
20
1999.95
30
0
11
-883.0127
21
749.955
31
0
0
LINE
8
PIPES
6
CONTINUOUS
10
-883.0127
20
2749.955
30
0
11
-16.9873
21
1249.955
31
0
0
LINE
8
PIPES
6
CONTINUOUS
10
-883.0127
20
749.945
30
0
11
-1749.0381
21
-750.055
31
0
0
LINE
8
PIPES
6
CONTINUOUS
10
-1749.0381
20
1249.945
30
0
11
-2615.0635
21
-250.055
31
0
0
LINE
8
PIPES
6
CONTINUOUS
10
-2615.0635
20
1749.945
30
0
11
-3481.0976
21
249.95
31
0
0
LINE
8
PIPES
6
CONTINUOUS
10
-3481.0976
20
2249.95
30
0
11
-4347.123
21
749.95
31
0
0
LINE
8
PIPES
6
CONTINUOUS
10
-883.0127
20
1749.945
30
0
11
-16.9873
21
-750.055
31
0
0
LINE
8
PIPES
6
CONTINUOUS
10
-1749.0381
20
2249.945
30
0
11
-883.0127
21
-250.055
31
0
0
LINE
8
PIPES
6
CONTINUOUS
10
-2615.0722
20
2749.95
30
0
11
-1749.0381
21
249.945
31
0
0
LINE
8
PIPES
6
CONTINUOUS
10
-3481.0976
20
3249.95
30
0
11
-2615.0722
21
749.95
31
0
0
LINE
8
PIPES
6
CONTINUOUS
10
1282.0508
20
1999.945
30
0
11
416.0254
21
499.945
31
0
0
LINE
8
PIPES
6
CONTINUOUS
10
-1316.0341
20
3499.95
30
0
11
-2182.0595
21
1999.95
31
0
0
LINE
8
PIPES
6
CONTINUOUS
10
1715.0722
20
3249.95
30
0
11
2581.0976
21
749.95
31
0
0
LINE
8
PIPES
6
CONTINUOUS
10
849.0468
20
3749.95
30
0
11
1715.0722
21
1249.95
31
0
0
LINE
8
PIPES
6
CONTINUOUS
10
-16.9873
20
4249.955
30
0
11
849.0468
21
1749.95
31
0
0
LINE
8
PIPES
6
CONTINUOUS
10
-883.0127
20
4749.955
30
0
11
-16.9873
21
2249.955
31
0
0
LINE
8
PIPES
6
CONTINUOUS
10
3447.123
20
3249.95
30
0
11
2581.0976
21
1749.95
31
0
0
LINE
8
PIPES
6
CONTINUOUS
10
2581.0976
20
3749.95
30
0
11
1715.0722
21
2249.95
31
0
0
LINE
8
PIPES
6
CONTINUOUS
10
1715.0722
20
4249.95
30
0
11
849.0381
21
2749.955
31
0
0
LINE
8
PIPES
6
CONTINUOUS
10
849.0381
20
4749.955
30
0
11
-16.9873
21
3249.955
31
0
0
LINE
8
PIPES
6
CONTINUOUS
10
-16.9873
20
1249.945
30
0
11
1282.0508
21
-0.055
31
0
0
LINE
8
PIPES
6
CONTINUOUS
10
1282.0508
20
1999.945
30
0
11
2581.0976
21
749.95
31
0
0
LINE
8
PIPES
6
CONTINUOUS
10
2581.0976
20
2749.95
30
0
11
3447.123
21
1249.95
31
0
0
LINE
8
PIPES
6
CONTINUOUS
10
-883.0127
20
1749.945
30
0
11
-1749.0381
21
-750.055
31
0
0
LINE
8
PIPES
6
CONTINUOUS
10
416.0254
20
2499.945
30
0
11
-883.0127
21
-250.055
31
0
0
LINE
8
PIPES
6
CONTINUOUS
10
1715.0722
20
3249.95
30
0
11
416.0254
21
499.945
31
0
0
LINE
8
PIPES
6
CONTINUOUS
10
2581.0976
20
3749.95
30
0
11
1715.0722
21
1249.95
31
0
0
LINE
8
PIPES
6
CONTINUOUS
10
-2615.0635
20
1749.945
30
0
11
-1749.0381
21
249.945
31
0
0
LINE
8
PIPES
6
CONTINUOUS
10
849.0468
20
3749.95
30
0
11
1715.0722
21
2249.95
31
0
0
LINE
8
PIPES
6
CONTINUOUS
10
-2615.0722
20
2749.95
30
0
11
-3481.0976
21
249.95
31
0
0
LINE
8
PIPES
6
CONTINUOUS
10
-1316.0341
20
3499.95
30
0
11
-2615.0722
21
749.95
31
0
0
LINE
8
PIPES
6
CONTINUOUS
10
-16.9873
20
4249.955
30
0
11
-1316.0341
21
1499.95
31
0
0
LINE
8
PIPES
6
CONTINUOUS
10
849.0381
20
4749.955
30
0
11
-16.9873
21
2249.955
31
0
0
LINE
8
PIPES
6
CONTINUOUS
10
-4347.123
20
2749.95
30
0
11
-3481.0976
21
1249.95
31
0
0
LINE
8
PIPES
6
CONTINUOUS
10
-3481.0976
20
3249.95
30
0
11
-2182.0595
21
1999.95
31
0
0
LINE
8
PIPES
6
CONTINUOUS
10
-2182.0595
20
3999.95
30
0
11
-883.0127
21
2749.955
31
0
0
LINE
8
PIPES
6
CONTINUOUS
10
-883.0127
20
4749.955
30
0
11
-16.9873
21
3249.955
31
0
0
LINE
8
PIPES
6
CONTINUOUS
10
-883.0127
20
2749.945
30
0
11
-1749.0381
21
1249.945
31
0
0
LINE
8
PIPES
6
CONTINUOUS
10
-1749.0381
20
3249.945
30
0
11
-2615.0635
21
1749.945
31
0
0
LINE
8
PIPES
6
CONTINUOUS
10
-2615.0635
20
3749.945
30
0
11
-3481.0976
21
2249.95
31
0
0
LINE
8
PIPES
6
CONTINUOUS
10
-3481.0976
20
4249.95
30
0
11
-4347.123
21
2749.95
31
0
0
LINE
8
PIPES
6
CONTINUOUS
10
-883.0127
20
3749.945
30
0
11
-16.9873
21
1249.945
31
0
0
LINE
8
PIPES
6
CONTINUOUS
10
-1749.0381
20
4249.945
30
0
11
-883.0127
21
1749.945
31
0
0
LINE
8
PIPES
6
CONTINUOUS
10
-2615.0722
20
4749.95
30
0
11
-1749.0381
21
2249.945
31
0
0
LINE
8
PIPES
6
CONTINUOUS
10
-3481.0976
20
5249.95
30
0
11
-2615.0722
21
2749.95
31
0
0
LINE
8
PIPES
6
CONTINUOUS
10
1282.0508
20
3999.945
30
0
11
416.0254
21
2499.945
31
0
0
LINE
8
PIPES
6
CONTINUOUS
10
-1316.0341
20
5499.95
30
0
11
-2182.0595
21
3999.95
31
0
0
LINE
8
PIPES
6
CONTINUOUS
10
1715.0722
20
5249.95
30
0
11
2581.0976
21
2749.95
31
0
0
LINE
8
PIPES
6
CONTINUOUS
10
849.0468
20
5749.95
30
0
11
1715.0722
21
3249.95
31
0
0
LINE
8
PIPES
6
CONTINUOUS
10
-16.9873
20
6249.955
30
0
11
849.0468
21
3749.95
31
0
0
LINE
8
PIPES
6
CONTINUOUS
10
-883.0127
20
6749.955
30
0
11
-16.9873
21
4249.955
31
0
0
LINE
8
PIPES
6
CONTINUOUS
10
3447.123
20
5249.95
30
0
11
2581.0976
21
3749.95
31
0
0
LINE
8
PIPES
6
CONTINUOUS
10
2581.0976
20
5749.95
30
0
11
1715.0722
21
4249.95
31
0
0
LINE
8
PIPES
6
CONTINUOUS
10
1715.0722
20
6249.95
30
0
11
849.0381
21
4749.955
31
0
0
LINE
8
PIPES
6
CONTINUOUS
10
849.0381
20
6749.955
30
0
11
-16.9873
21
5249.955
31
0
0
LINE
8
PIPES
6
CONTINUOUS
10
-16.9873
20
3249.945
30
0
11
1282.0508
21
1999.945
31
0
0
LINE
8
PIPES
6
CONTINUOUS
10
1282.0508
20
3999.945
30
0
11
2581.0976
21
2749.95
31
0
0
LINE
8
PIPES
6
CONTINUOUS
10
2581.0976
20
4749.95
30
0
11
3447.123
21
3249.95
31
0
0
LINE
8
PIPES
6
CONTINUOUS
10
-883.0127
20
3749.945
30
0
11
-1749.0381
21
1249.945
31
0
0
LINE
8
PIPES
6
CONTINUOUS
10
416.0254
20
4499.945
30
0
11
-883.0127
21
1749.945
31
0
0
LINE
8
PIPES
6
CONTINUOUS
10
1715.0722
20
5249.95
30
0
11
416.0254
21
2499.945
31
0
0
LINE
8
PIPES
6
CONTINUOUS
10
2581.0976
20
5749.95
30
0
11
1715.0722
21
3249.95
31
0
0
LINE
8
PIPES
6
CONTINUOUS
10
-2615.0635
20
3749.945
30
0
11
-1749.0381
21
2249.945
31
0
0
LINE
8
PIPES
6
CONTINUOUS
10
849.0468
20
5749.95
30
0
11
1715.0722
21
4249.95
31
0
0
LINE
8
PIPES
6
CONTINUOUS
10
-2615.0722
20
4749.95
30
0
11
-3481.0976
21
2249.95
31
0
0
LINE
8
PIPES
6
CONTINUOUS
10
-1316.0341
20
5499.95
30
0
11
-2615.0722
21
2749.95
31
0
0
LINE
8
PIPES
6
CONTINUOUS
10
-16.9873
20
6249.955
30
0
11
-1316.0341
21
3499.95
31
0
0
LINE
8
PIPES
6
CONTINUOUS
10
849.0381
20
6749.955
30
0
11
-16.9873
21
4249.955
31
0
0
LINE
8
PIPES
6
CONTINUOUS
10
-4347.123
20
4749.95
30
0
11
-3481.0976
21
3249.95
31
0
0
LINE
8
PIPES
6
CONTINUOUS
10
-3481.0976
20
5249.95
30
0
11
-2182.0595
21
3999.95
31
0
0
LINE
8
PIPES
6
CONTINUOUS
10
-2182.0595
20
5999.95
30
0
11
-883.0127
21
4749.955
31
0
0
LINE
8
PIPES
6
CONTINUOUS
10
-883.0127
20
6749.955
30
0
11
-16.9873
21
5249.955
31
0
0
LINE
8
PIPES
6
CONTINUOUS
10
-883.0127
20
4749.945
30
0
11
-1749.0381
21
3249.945
31
0
0
LINE
8
PIPES
6
CONTINUOUS
10
-1749.0381
20
5249.945
30
0
11
-2615.0635
21
3749.945
31
0
0
LINE
8
PIPES
6
CONTINUOUS
10
-2615.0635
20
5749.945
30
0
11
-3481.0976
21
4249.95
31
0
0
LINE
8
PIPES
6
CONTINUOUS
10
-3481.0976
20
6249.95
30
0
11
-4347.123
21
4749.95
31
0
0
LINE
8
PIPES
6
CONTINUOUS
10
-883.0127
20
5749.945
30
0
11
-16.9873
21
3249.945
31
0
0
LINE
8
PIPES
6
CONTINUOUS
10
-1749.0381
20
6249.945
30
0
11
-883.0127
21
3749.945
31
0
0
LINE
8
PIPES
6
CONTINUOUS
10
-2615.0722
20
6749.95
30
0
11
-1749.0381
21
4249.945
31
0
0
LINE
8
PIPES
6
CONTINUOUS
10
-3481.0976
20
7249.95
30
0
11
-2615.0722
21
4749.95
31
0
0
LINE
8
PIPES
6
CONTINUOUS
10
1282.0508
20
5999.945
30
0
11
416.0254
21
4499.945
31
0
0
LINE
8
PIPES
6
CONTINUOUS
10
-1316.0341
20
7499.95
30
0
11
-2182.0595
21
5999.95
31
0
0
LINE
8
PIPES
6
CONTINUOUS
10
1715.0722
20
7249.95
30
0
11
2581.0976
21
4749.95
31
0
0
LINE
8
PIPES
6
CONTINUOUS
10
849.0468
20
7749.95
30
0
11
1715.0722
21
5249.95
31
0
0
LINE
8
PIPES
6
CONTINUOUS
10
-16.9873
20
8249.955
30
0
11
849.0468
21
5749.95
31
0
0
LINE
8
PIPES
6
CONTINUOUS
10
-883.0127
20
8749.955
30
0
11
-16.9873
21
6249.955
31
0
0
LINE
8
PIPES
6
CONTINUOUS
10
3447.123
20
7249.95
30
0
11
2581.0976
21
5749.95
31
0
0
LINE
8
PIPES
6
CONTINUOUS
10
2581.0976
20
7749.95
30
0
11
1715.0722
21
6249.95
31
0
0
LINE
8
PIPES
6
CONTINUOUS
10
1715.0722
20
8249.95
30
0
11
849.0381
21
6749.955
31
0
0
LINE
8
PIPES
6
CONTINUOUS
10
849.0381
20
8749.955
30
0
11
-16.9873
21
7249.955
31
0
0
LINE
8
PIPES
6
CONTINUOUS
10
-16.9873
20
5249.945
30
0
11
1282.0508
21
3999.945
31
0
0
LINE
8
PIPES
6
CONTINUOUS
10
1282.0508
20
5999.945
30
0
11
2581.0976
21
4749.95
31
0
0
LINE
8
PIPES
6
CONTINUOUS
10
2581.0976
20
6749.95
30
0
11
3447.123
21
5249.95
31
0
0
LINE
8
PIPES
6
CONTINUOUS
10
-883.0127
20
5749.945
30
0
11
-1749.0381
21
3249.945
31
0
0
LINE
8
PIPES
6
CONTINUOUS
10
416.0254
20
6499.945
30
0
11
-883.0127
21
3749.945
31
0
0
LINE
8
PIPES
6
CONTINUOUS
10
1715.0722
20
7249.95
30
0
11
416.0254
21
4499.945
31
0
0
LINE
8
PIPES
6
CONTINUOUS
10
2581.0976
20
7749.95
30
0
11
1715.0722
21
5249.95
31
0
0
LINE
8
PIPES
6
CONTINUOUS
10
-2615.0635
20
5749.945
30
0
11
-1749.0381
21
4249.945
31
0
0
LINE
8
PIPES
6
CONTINUOUS
10
849.0468
20
7749.95
30
0
11
1715.0722
21
6249.95
31
0
0
LINE
8
PIPES
6
CONTINUOUS
10
-2615.0722
20
6749.95
30
0
11
-3481.0976
21
4249.95
31
0
0
LINE
8
PIPES
6
CONTINUOUS
10
-1316.0341
20
7499.95
30
0
11
-2615.0722
21
4749.95
31
0
0
LINE
8
PIPES
6
CONTINUOUS
10
-16.9873
20
8249.955
30
0
11
-1316.0341
21
5499.95
31
0
0
LINE
8
PIPES
6
CONTINUOUS
10
849.0381
20
8749.955
30
0
11
-16.9873
21
6249.955
31
0
0
LINE
8
PIPES
6
CONTINUOUS
10
-4347.123
20
6749.95
30
0
11
-3481.0976
21
5249.95
31
0
0
LINE
8
PIPES
6
CONTINUOUS
10
-3481.0976
20
7249.95
30
0
11
-2182.0595
21
5999.95
31
0
0
LINE
8
PIPES
6
CONTINUOUS
10
-2182.0595
20
7999.95
30
0
11
-883.0127
21
6749.955
31
0
0
LINE
8
PIPES
6
CONTINUOUS
10
-883.0127
20
8749.955
30
0
11
-16.9873
21
7249.955
31
0
0
LINE
8
PIPES
6
CONTINUOUS
10
-883.0127
20
6749.945
30
0
11
-1749.0381
21
5249.945
31
0
0
LINE
8
PIPES
6
CONTINUOUS
10
-1749.0381
20
7249.945
30
0
11
-2615.0635
21
5749.945
31
0
0
LINE
8
PIPES
6
CONTINUOUS
10
-2615.0635
20
7749.945
30
0
11
-3481.0976
21
6249.95
31
0
0
LINE
8
PIPES
6
CONTINUOUS
10
-3481.0976
20
8249.95
30
0
11
-4347.123
21
6749.95
31
0
0
LINE
8
PIPES
6
CONTINUOUS
10
-883.0127
20
7749.945
30
0
11
-16.9873
21
5249.945
31
0
0
LINE
8
PIPES
6
CONTINUOUS
10
-1749.0381
20
8249.945
30
0
11
-883.0127
21
5749.945
31
0
0
LINE
8
PIPES
6
CONTINUOUS
10
-2615.0722
20
8749.95
30
0
11
-1749.0381
21
6249.945
31
0
0
LINE
8
PIPES
6
CONTINUOUS
10
-3481.0976
20
9249.95
30
0
11
-2615.0722
21
6749.95
31
0
0
LINE
8
PIPES
6
CONTINUOUS
10
1282.0508
20
7999.945
30
0
11
416.0254
21
6499.945
31
0
0
LINE
8
PIPES
6
CONTINUOUS
10
-1316.0341
20
9499.95
30
0
11
-2182.0595
21
7999.95
31
0
0
LINE
8
PIPES
6
CONTINUOUS
10
1715.0722
20
9249.95
30
0
11
2581.0976
21
6749.95
31
0
0
LINE
8
PIPES
6
CONTINUOUS
10
849.0468
20
9749.95
30
0
11
1715.0722
21
7249.95
31
0
0
LINE
8
PIPES
6
CONTINUOUS
10
-16.9873
20
10249.955
30
0
11
849.0468
21
7749.95
31
0
0
LINE
8
PIPES
6
CONTINUOUS
10
-883.0127
20
10749.955
30
0
11
-16.9873
21
8249.955
31
0
0
LINE
8
PIPES
6
CONTINUOUS
10
3447.123
20
9249.95
30
0
11
2581.0976
21
7749.95
31
0
0
LINE
8
PIPES
6
CONTINUOUS
10
2581.0976
20
9749.95
30
0
11
1715.0722
21
8249.95
31
0
0
LINE
8
PIPES
6
CONTINUOUS
10
1715.0722
20
10249.95
30
0
11
849.0381
21
8749.955
31
0
0
LINE
8
PIPES
6
CONTINUOUS
10
849.0381
20
10749.955
30
0
11
-16.9873
21
9249.955
31
0
0
LINE
8
PIPES
6
CONTINUOUS
10
-16.9873
20
7249.945
30
0
11
1282.0508
21
5999.945
31
0
0
LINE
8
PIPES
6
CONTINUOUS
10
1282.0508
20
7999.945
30
0
11
2581.0976
21
6749.95
31
0
0
LINE
8
PIPES
6
CONTINUOUS
10
2581.0976
20
8749.95
30
0
11
3447.123
21
7249.95
31
0
0
LINE
8
PIPES
6
CONTINUOUS
10
-883.0127
20
7749.945
30
0
11
-1749.0381
21
5249.945
31
0
0
LINE
8
PIPES
6
CONTINUOUS
10
416.0254
20
8499.945
30
0
11
-883.0127
21
5749.945
31
0
0
LINE
8
PIPES
6
CONTINUOUS
10
1715.0722
20
9249.95
30
0
11
416.0254
21
6499.945
31
0
0
LINE
8
PIPES
6
CONTINUOUS
10
2581.0976
20
9749.95
30
0
11
1715.0722
21
7249.95
31
0
0
LINE
8
PIPES
6
CONTINUOUS
10
-2615.0635
20
7749.945
30
0
11
-1749.0381
21
6249.945
31
0
0
LINE
8
PIPES
6
CONTINUOUS
10
849.0468
20
9749.95
30
0
11
1715.0722
21
8249.95
31
0
0
LINE
8
PIPES
6
CONTINUOUS
10
-2615.0722
20
8749.95
30
0
11
-3481.0976
21
6249.95
31
0
0
LINE
8
PIPES
6
CONTINUOUS
10
-1316.0341
20
9499.95
30
0
11
-2615.0722
21
6749.95
31
0
0
LINE
8
PIPES
6
CONTINUOUS
10
-16.9873
20
10249.955
30
0
11
-1316.0341
21
7499.95
31
0
0
LINE
8
PIPES
6
CONTINUOUS
10
849.0381
20
10749.955
30
0
11
-16.9873
21
8249.955
31
0
0
LINE
8
PIPES
6
CONTINUOUS
10
-4347.123
20
8749.95
30
0
11
-3481.0976
21
7249.95
31
0
0
LINE
8
PIPES
6
CONTINUOUS
10
-3481.0976
20
9249.95
30
0
11
-2182.0595
21
7999.95
31
0
0
LINE
8
PIPES
6
CONTINUOUS
10
-2182.0595
20
9999.95
30
0
11
-883.0127
21
8749.955
31
0
0
LINE
8
PIPES
6
CONTINUOUS
10
-883.0127
20
10749.955
30
0
11
-16.9873
21
9249.955
31
0
0
LINE
8
PIPES
6
CONTINUOUS
10
-883.0127
20
8749.945
30
0
11
-1749.0381
21
7249.945
31
0
0
LINE
8
PIPES
6
CONTINUOUS
10
-1749.0381
20
9249.945
30
0
11
-2615.0635
21
7749.945
31
0
0
LINE
8
PIPES
6
CONTINUOUS
10
-2615.0635
20
9749.945
30
0
11
-3481.0976
21
8249.95
31
0
0
LINE
8
PIPES
6
CONTINUOUS
10
-3481.0976
20
10249.95
30
0
11
-4347.123
21
8749.95
31
0
0
LINE
8
PIPES
6
CONTINUOUS
10
-883.0127
20
9749.945
30
0
11
-16.9873
21
7249.945
31
0
0
LINE
8
PIPES
6
CONTINUOUS
10
-1749.0381
20
10249.945
30
0
11
-883.0127
21
7749.945
31
0
0
LINE
8
PIPES
6
CONTINUOUS
10
-2615.0722
20
10749.95
30
0
11
-1749.0381
21
8249.945
31
0
0
LINE
8
PIPES
6
CONTINUOUS
10
-3481.0976
20
11249.95
30
0
11
-2615.0722
21
8749.95
31
0
0
LINE
8
PIPES
6
CONTINUOUS
10
1282.0508
20
9999.945
30
0
11
416.0254
21
8499.945
31
0
0
LINE
8
PIPES
6
CONTINUOUS
10
-1316.0341
20
11499.95
30
0
11
-2182.0595
21
9999.95
31
0
0
LINE
8
PIPES
6
CONTINUOUS
10
1715.0722
20
11249.95
30
0
11
2581.0976
21
8749.95
31
0
0
LINE
8
PIPES
6
CONTINUOUS
10
849.0468
20
11749.95
30
0
11
1715.0722
21
9249.95
31
0
0
LINE
8
PIPES
6
CONTINUOUS
10
-16.9873
20
12249.955
30
0
11
849.0468
21
9749.95
31
0
0
LINE
8
PIPES
6
CONTINUOUS
10
-883.0127
20
12749.955
30
0
11
-16.9873
21
10249.955
31
0
0
LINE
8
PIPES
6
CONTINUOUS
10
3447.123
20
11249.95
30
0
11
2581.0976
21
9749.95
31
0
0
LINE
8
PIPES
6
CONTINUOUS
10
2581.0976
20
11749.95
30
0
11
1715.0722
21
10249.95
31
0
0
LINE
8
PIPES
6
CONTINUOUS
10
1715.0722
20
12249.95
30
0
11
849.0381
21
10749.955
31
0
0
LINE
8
PIPES
6
CONTINUOUS
10
849.0381
20
12749.955
30
0
11
-16.9873
21
11249.955
31
0
0
LINE
8
PIPES
6
CONTINUOUS
10
-16.9873
20
9249.945
30
0
11
1282.0508
21
7999.945
31
0
0
LINE
8
PIPES
6
CONTINUOUS
10
1282.0508
20
9999.945
30
0
11
2581.0976
21
8749.95
31
0
0
LINE
8
PIPES
6
CONTINUOUS
10
2581.0976
20
10749.95
30
0
11
3447.123
21
9249.95
31
0
0
LINE
8
PIPES
6
CONTINUOUS
10
-883.0127
20
9749.945
30
0
11
-1749.0381
21
7249.945
31
0
0
LINE
8
PIPES
6
CONTINUOUS
10
416.0254
20
10499.945
30
0
11
-883.0127
21
7749.945
31
0
0
LINE
8
PIPES
6
CONTINUOUS
10
1715.0722
20
11249.95
30
0
11
416.0254
21
8499.945
31
0
0
LINE
8
PIPES
6
CONTINUOUS
10
2581.0976
20
11749.95
30
0
11
1715.0722
21
9249.95
31
0
0
LINE
8
PIPES
6
CONTINUOUS
10
-2615.0635
20
9749.945
30
0
11
-1749.0381
21
8249.945
31
0
0
LINE
8
PIPES
6
CONTINUOUS
10
849.0468
20
11749.95
30
0
11
1715.0722
21
10249.95
31
0
0
LINE
8
PIPES
6
CONTINUOUS
10
-2615.0722
20
10749.95
30
0
11
-3481.0976
21
8249.95
31
0
0
LINE
8
PIPES
6
CONTINUOUS
10
-1316.0341
20
11499.95
30
0
11
-2615.0722
21
8749.95
31
0
0
LINE
8
PIPES
6
CONTINUOUS
10
-16.9873
20
12249.955
30
0
11
-1316.0341
21
9499.95
31
0
0
LINE
8
PIPES
6
CONTINUOUS
10
849.0381
20
12749.955
30
0
11
-16.9873
21
10249.955
31
0
0
LINE
8
PIPES
6
CONTINUOUS
10
-4347.123
20
10749.95
30
0
11
-3481.0976
21
9249.95
31
0
0
LINE
8
PIPES
6
CONTINUOUS
10
-3481.0976
20
11249.95
30
0
11
-2182.0595
21
9999.95
31
0
0
LINE
8
PIPES
6
CONTINUOUS
10
-2182.0595
20
11999.95
30
0
11
-883.0127
21
10749.955
31
0
0
LINE
8
PIPES
6
CONTINUOUS
10
-883.0127
20
12749.955
30
0
11
-16.9873
21
11249.955
31
0
0
LINE
8
PIPES
6
CONTINUOUS
10
-883.0127
20
10750.045
30
0
11
-1749.0381
21
9249.945
31
0
0
LINE
8
PIPES
6
CONTINUOUS
10
-1749.0381
20
11250.045
30
0
11
-2615.0635
21
9749.945
31
0
0
LINE
8
PIPES
6
CONTINUOUS
10
-2615.0635
20
11750.045
30
0
11
-3481.0976
21
10249.95
31
0
0
LINE
8
PIPES
6
CONTINUOUS
10
-3481.0976
20
12250.05
30
0
11
-4347.123
21
10749.95
31
0
0
LINE
8
PIPES
6
CONTINUOUS
10
-883.0127
20
11750.045
30
0
11
-16.9873
21
9249.945
31
0
0
LINE
8
PIPES
6
CONTINUOUS
10
-1749.0381
20
12250.045
30
0
11
-883.0127
21
9749.945
31
0
0
LINE
8
PIPES
6
CONTINUOUS
10
-2615.0722
20
12750.05
30
0
11
-1749.0381
21
10249.945
31
0
0
LINE
8
PIPES
6
CONTINUOUS
10
-3481.0976
20
13250.05
30
0
11
-2615.0722
21
10749.95
31
0
0
LINE
8
PIPES
6
CONTINUOUS
10
1282.0508
20
12000.045
30
0
11
416.0254
21
10499.945
31
0
0
LINE
8
PIPES
6
CONTINUOUS
10
-1316.0341
20
13500.05
30
0
11
-2182.0595
21
11999.95
31
0
0
LINE
8
PIPES
6
CONTINUOUS
10
1715.0722
20
13250.05
30
0
11
2581.0976
21
10749.95
31
0
0
LINE
8
PIPES
6
CONTINUOUS
10
849.0468
20
13750.05
30
0
11
1715.0722
21
11249.95
31
0
0
LINE
8
PIPES
6
CONTINUOUS
10
-16.9873
20
14250.055
30
0
11
849.0468
21
11749.95
31
0
0
LINE
8
PIPES
6
CONTINUOUS
10
-883.0127
20
14750.055
30
0
11
-16.9873
21
12249.955
31
0
0
LINE
8
PIPES
6
CONTINUOUS
10
3447.123
20
13250.05
30
0
11
2581.0976
21
11749.95
31
0
0
LINE
8
PIPES
6
CONTINUOUS
10
2581.0976
20
13750.05
30
0
11
1715.0722
21
12249.95
31
0
0
LINE
8
PIPES
6
CONTINUOUS
10
1715.0722
20
14250.05
30
0
11
849.0381
21
12749.955
31
0
0
LINE
8
PIPES
6
CONTINUOUS
10
849.0381
20
14750.055
30
0
11
-16.9873
21
13249.955
31
0
0
LINE
8
PIPES
6
CONTINUOUS
10
-883.0127
20
10750.045
30
0
11
-16.9873
21
9249.945
31
0
0
LINE
8
PIPES
6
CONTINUOUS
10
-16.9873
20
11250.045
30
0
11
1282.0508
21
9999.945
31
0
0
LINE
8
PIPES
6
CONTINUOUS
10
1282.0508
20
12000.045
30
0
11
2581.0976
21
10749.95
31
0
0
LINE
8
PIPES
6
CONTINUOUS
10
2581.0976
20
12750.05
30
0
11
3447.123
21
11249.95
31
0
0
LINE
8
PIPES
6
CONTINUOUS
10
-883.0127
20
11750.045
30
0
11
-1749.0381
21
9249.945
31
0
0
LINE
8
PIPES
6
CONTINUOUS
10
416.0254
20
12500.045
30
0
11
-883.0127
21
9749.945
31
0
0
LINE
8
PIPES
6
CONTINUOUS
10
1715.0722
20
13250.05
30
0
11
416.0254
21
10499.945
31
0
0
LINE
8
PIPES
6
CONTINUOUS
10
2581.0976
20
13750.05
30
0
11
1715.0722
21
11249.95
31
0
0
LINE
8
PIPES
6
CONTINUOUS
10
-2615.0635
20
11750.045
30
0
11
-1749.0381
21
10249.945
31
0
0
LINE
8
PIPES
6
CONTINUOUS
10
849.0468
20
13750.05
30
0
11
1715.0722
21
12249.95
31
0
0
LINE
8
PIPES
6
CONTINUOUS
10
-2615.0722
20
12750.05
30
0
11
-3481.0976
21
10249.95
31
0
0
LINE
8
PIPES
6
CONTINUOUS
10
-1316.0341
20
13500.05
30
0
11
-2615.0722
21
10749.95
31
0
0
LINE
8
PIPES
6
CONTINUOUS
10
-16.9873
20
14250.055
30
0
11
-1316.0341
21
11499.95
31
0
0
LINE
8
PIPES
6
CONTINUOUS
10
849.0381
20
14750.055
30
0
11
-16.9873
21
12249.955
31
0
0
LINE
8
PIPES
6
CONTINUOUS
10
-4347.123
20
12750.05
30
0
11
-3481.0976
21
11249.95
31
0
0
LINE
8
PIPES
6
CONTINUOUS
10
-3481.0976
20
13250.05
30
0
11
-2182.0595
21
11999.95
31
0
0
LINE
8
PIPES
6
CONTINUOUS
10
-2182.0595
20
14000.05
30
0
11
-883.0127
21
12749.955
31
0
0
LINE
8
PIPES
6
CONTINUOUS
10
-883.0127
20
14750.055
30
0
11
-16.9873
21
13249.955
31
0
0
LINE
8
PIPES
6
CONTINUOUS
10
-883.0127
20
12750.045
30
0
11
-16.9873
21
11250.045
31
0
0
LINE
8
PIPES
6
CONTINUOUS
10
-1749.0381
20
13250.045
30
0
11
-883.0127
21
11750.045
31
0
0
LINE
8
PIPES
6
CONTINUOUS
10
-2615.0722
20
13750.05
30
0
11
-1749.0381
21
12250.045
31
0
0
LINE
8
PIPES
6
CONTINUOUS
10
-3481.0976
20
14250.05
30
0
11
-2615.0722
21
12750.05
31
0
0
LINE
8
PIPES
6
CONTINUOUS
10
1282.0508
20
13000.045
30
0
11
416.0254
21
12500.045
31
0
0
LINE
8
PIPES
6
CONTINUOUS
10
-1316.0341
20
14500.05
30
0
11
-2182.0595
21
14000.05
31
0
0
LINE
8
PIPES
6
CONTINUOUS
10
1715.0722
20
14250.05
30
0
11
2581.0976
21
12750.05
31
0
0
LINE
8
PIPES
6
CONTINUOUS
10
849.0468
20
14750.05
30
0
11
1715.0722
21
13250.05
31
0
0
LINE
8
PIPES
6
CONTINUOUS
10
-16.9873
20
15250.055
30
0
11
849.0468
21
13750.05
31
0
0
LINE
8
PIPES
6
CONTINUOUS
10
-883.0127
20
15750.055
30
0
11
-16.9873
21
14250.055
31
0
0
LINE
8
PIPES
6
CONTINUOUS
10
-16.9873
20
12250.045
30
0
11
1282.0508
21
12000.045
31
0
0
LINE
8
PIPES
6
CONTINUOUS
10
1282.0508
20
13000.045
30
0
11
2581.0976
21
12750.05
31
0
0
LINE
8
PIPES
6
CONTINUOUS
10
-883.0127
20
12750.045
30
0
11
-1749.0381
21
11250.045
31
0
0
LINE
8
PIPES
6
CONTINUOUS
10
416.0254
20
13500.045
30
0
11
-883.0127
21
11750.045
31
0
0
LINE
8
PIPES
6
CONTINUOUS
10
1715.0722
20
14250.05
30
0
11
416.0254
21
12500.045
31
0
0
LINE
8
PIPES
6
CONTINUOUS
10
2581.0976
20
14750.05
30
0
11
1715.0722
21
13250.05
31
0
0
LINE
8
PIPES
6
CONTINUOUS
10
-2615.0722
20
13750.05
30
0
11
-3481.0976
21
12250.05
31
0
0
LINE
8
PIPES
6
CONTINUOUS
10
-1316.0341
20
14500.05
30
0
11
-2615.0722
21
12750.05
31
0
0
LINE
8
PIPES
6
CONTINUOUS
10
-16.9873
20
15250.055
30
0
11
-1316.0341
21
13500.05
31
0
0
LINE
8
PIPES
6
CONTINUOUS
10
849.0381
20
15750.055
30
0
11
-16.9873
21
14250.055
31
0
0
LINE
8
PIPES
6
CONTINUOUS
10
-3481.0976
20
14250.05
30
0
11
-2182.0595
21
14000.05
31
0
0
LINE
8
PIPES
6
CONTINUOUS
10
-2182.0595
20
15000.05
30
0
11
-883.0127
21
14750.055
31
0
0
LINE
8
PIPES
6
CONTINUOUS
10
-883.0127
20
11750.045
30
0
11
-883.0127
21
12250.045
31
0
0
LINE
8
PIPES
6
CONTINUOUS
10
-1749.0381
20
12250.045
30
0
11
-1749.0381
21
12750.045
31
0
0
LINE
8
PIPES
6
CONTINUOUS
10
-2615.0635
20
12750.045
30
0
11
-2615.0635
21
13250.045
31
0
0
LINE
8
PIPES
6
CONTINUOUS
10
-3481.0976
20
13250.05
30
0
11
-3481.0976
21
13750.05
31
0
0
LINE
8
PIPES
6
CONTINUOUS
10
-4347.123
20
13750.05
30
0
11
-4347.123
21
14250.05
31
0
0
LINE
8
PIPES
6
CONTINUOUS
10
-3481.0976
20
14250.05
30
0
11
-3481.0976
21
14750.05
31
0
0
LINE
8
PIPES
6
CONTINUOUS
10
-2615.0722
20
13750.05
30
0
11
-2615.0722
21
14250.05
31
0
0
LINE
8
PIPES
6
CONTINUOUS
10
-1749.0381
20
13250.045
30
0
11
-1749.0381
21
13750.045
31
0
0
LINE
8
PIPES
6
CONTINUOUS
10
-883.0127
20
12750.045
30
0
11
-883.0127
21
13250.045
31
0
0
LINE
8
PIPES
6
CONTINUOUS
10
-16.9873
20
12250.045
30
0
11
-16.9873
21
12750.045
31
0
0
LINE
8
PIPES
6
CONTINUOUS
10
1282.0508
20
13000.045
30
0
11
1282.0508
21
13500.045
31
0
0
LINE
8
PIPES
6
CONTINUOUS
10
416.0254
20
13500.045
30
0
11
416.0254
21
14000.045
31
0
0
LINE
8
PIPES
6
CONTINUOUS
10
1715.0722
20
14250.05
30
0
11
1715.0722
21
14750.05
31
0
0
LINE
8
PIPES
6
CONTINUOUS
10
2581.0976
20
13750.05
30
0
11
2581.0976
21
14250.05
31
0
0
LINE
8
PIPES
6
CONTINUOUS
10
3447.123
20
14250.05
30
0
11
3447.123
21
14750.05
31
0
0
LINE
8
PIPES
6
CONTINUOUS
10
2581.0976
20
14750.05
30
0
11
2581.0976
21
15250.05
31
0
0
LINE
8
PIPES
6
CONTINUOUS
10
849.0468
20
14750.05
30
0
11
849.0468
21
15250.05
31
0
0
LINE
8
PIPES
6
CONTINUOUS
10
1715.0722
20
15250.05
30
0
11
1715.0722
21
15750.05
31
0
0
LINE
8
PIPES
6
CONTINUOUS
10
849.0381
20
15750.055
30
0
11
849.0381
21
16250.055
31
0
0
LINE
8
PIPES
6
CONTINUOUS
10
-16.9873
20
16250.055
30
0
11
-16.9873
21
16750.055
31
0
0
LINE
8
PIPES
6
CONTINUOUS
10
-883.0127
20
15750.055
30
0
11
-883.0127
21
16250.055
31
0
0
LINE
8
PIPES
6
CONTINUOUS
10
-16.9873
20
15250.055
30
0
11
-16.9873
21
15750.055
31
0
0
LINE
8
PIPES
6
CONTINUOUS
10
-1316.0341
20
14500.05
30
0
11
-1316.0341
21
15000.05
31
0
0
LINE
8
PIPES
6
CONTINUOUS
10
-2182.0595
20
15000.05
30
0
11
-2182.0595
21
15500.05
31
0
0
LINE
8
PIPES
6
CONTINUOUS
10
-883.0127
20
12250.045
30
0
11
-1749.0381
21
12750.045
31
0
0
LINE
8
PIPES
6
CONTINUOUS
10
-1749.0381
20
12750.045
30
0
11
-2615.0635
21
13250.045
31
0
0
LINE
8
PIPES
6
CONTINUOUS
10
-2615.0635
20
13250.045
30
0
11
-3481.0976
21
13750.05
31
0
0
LINE
8
PIPES
6
CONTINUOUS
10
-3481.0976
20
13750.05
30
0
11
-4347.123
21
14250.05
31
0
0
LINE
8
PIPES
6
CONTINUOUS
10
-4347.123
20
14250.05
30
0
11
-3481.0976
21
14750.05
31
0
0
LINE
8
PIPES
6
CONTINUOUS
10
-2615.0722
20
14250.05
30
0
11
-1749.0381
21
13750.045
31
0
0
LINE
8
PIPES
6
CONTINUOUS
10
-1749.0381
20
13750.045
30
0
11
-883.0127
21
13250.045
31
0
0
LINE
8
PIPES
6
CONTINUOUS
10
-16.9873
20
12750.045
30
0
11
-883.0127
21
12250.045
31
0
0
LINE
8
PIPES
6
CONTINUOUS
10
-16.9873
20
12750.045
30
0
11
1282.0508
21
13500.045
31
0
0
LINE
8
PIPES
6
CONTINUOUS
10
416.0254
20
14000.045
30
0
11
-883.0127
21
13250.045
31
0
0
LINE
8
PIPES
6
CONTINUOUS
10
416.0254
20
14000.045
30
0
11
1715.0722
21
14750.05
31
0
0
LINE
8
PIPES
6
CONTINUOUS
10
2581.0976
20
14250.05
30
0
11
1282.0508
21
13500.045
31
0
0
LINE
8
PIPES
6
CONTINUOUS
10
2581.0976
20
14250.05
30
0
11
3447.123
21
14750.05
31
0
0
LINE
8
PIPES
6
CONTINUOUS
10
3447.123
20
14750.05
30
0
11
2581.0976
21
15250.05
31
0
0
LINE
8
PIPES
6
CONTINUOUS
10
1715.0722
20
14750.05
30
0
11
849.0468
21
15250.05
31
0
0
LINE
8
PIPES
6
CONTINUOUS
10
1715.0722
20
15750.05
30
0
11
849.0381
21
16250.055
31
0
0
LINE
8
PIPES
6
CONTINUOUS
10
849.0381
20
16250.055
30
0
11
-16.9873
21
16750.055
31
0
0
LINE
8
PIPES
6
CONTINUOUS
10
-16.9873
20
16750.055
30
0
11
-883.0127
21
16250.055
31
0
0
LINE
8
PIPES
6
CONTINUOUS
10
-16.9873
20
15750.055
30
0
11
-1316.0341
21
15000.05
31
0
0
LINE
8
PIPES
6
CONTINUOUS
10
-2182.0595
20
15500.05
30
0
11
-883.0127
21
16250.055
31
0
0
LINE
8
PIPES
6
CONTINUOUS
10
-16.9873
20
15750.055
30
0
11
849.0468
21
15250.05
31
0
0
LINE
8
PIPES
6
CONTINUOUS
10
1715.0722
20
15750.05
30
0
11
2581.0976
21
15250.05
31
0
0
LINE
8
PIPES
6
CONTINUOUS
10
-2182.0595
20
15500.05
30
0
11
-3481.0976
21
14750.05
31
0
0
LINE
8
PIPES
6
CONTINUOUS
10
-2615.0722
20
14250.05
30
0
11
-1316.0341
21
15000.05
31
0
0
LINE
8
PIPES
6
CONTINUOUS
10
-883.0127
20
12250.045
30
0
11
-883.0127
21
12750.045
31
0
0
LINE
8
PIPES
6
CONTINUOUS
10
-1749.0381
20
12750.045
30
0
11
-1749.0381
21
13250.045
31
0
0
LINE
8
PIPES
6
CONTINUOUS
10
-2615.0635
20
13250.045
30
0
11
-2615.0635
21
13750.045
31
0
0
LINE
8
PIPES
6
CONTINUOUS
10
-3481.0976
20
13750.05
30
0
11
-3481.0976
21
14250.05
31
0
0
LINE
8
PIPES
6
CONTINUOUS
10
-4347.123
20
14250.05
30
0
11
-4347.123
21
14750.05
31
0
0
LINE
8
PIPES
6
CONTINUOUS
10
-3481.0976
20
14750.05
30
0
11
-3481.0976
21
15250.05
31
0
0
LINE
8
PIPES
6
CONTINUOUS
10
-2615.0722
20
14250.05
30
0
11
-2615.0722
21
14750.05
31
0
0
LINE
8
PIPES
6
CONTINUOUS
10
-1749.0381
20
13750.045
30
0
11
-1749.0381
21
14250.045
31
0
0
LINE
8
PIPES
6
CONTINUOUS
10
-883.0127
20
13250.045
30
0
11
-883.0127
21
13750.045
31
0
0
LINE
8
PIPES
6
CONTINUOUS
10
-16.9873
20
12750.045
30
0
11
-16.9873
21
13250.045
31
0
0
LINE
8
PIPES
6
CONTINUOUS
10
1282.0508
20
13500.045
30
0
11
1282.0508
21
14000.045
31
0
0
LINE
8
PIPES
6
CONTINUOUS
10
416.0254
20
14000.045
30
0
11
416.0254
21
14500.045
31
0
0
LINE
8
PIPES
6
CONTINUOUS
10
1715.0722
20
14750.05
30
0
11
1715.0722
21
15250.05
31
0
0
LINE
8
PIPES
6
CONTINUOUS
10
2581.0976
20
14250.05
30
0
11
2581.0976
21
14750.05
31
0
0
LINE
8
PIPES
6
CONTINUOUS
10
3447.123
20
14750.05
30
0
11
3447.123
21
15250.05
31
0
0
LINE
8
PIPES
6
CONTINUOUS
10
2581.0976
20
15250.05
30
0
11
2581.0976
21
15750.05
31
0
0
LINE
8
PIPES
6
CONTINUOUS
10
849.0468
20
15250.05
30
0
11
849.0468
21
15750.05
31
0
0
LINE
8
PIPES
6
CONTINUOUS
10
1715.0722
20
15750.05
30
0
11
1715.0722
21
16250.05
31
0
0
LINE
8
PIPES
6
CONTINUOUS
10
849.0381
20
16250.055
30
0
11
849.0381
21
16750.055
31
0
0
LINE
8
PIPES
6
CONTINUOUS
10
-16.9873
20
16750.055
30
0
11
-16.9873
21
17250.055
31
0
0
LINE
8
PIPES
6
CONTINUOUS
10
-883.0127
20
16250.055
30
0
11
-883.0127
21
16750.055
31
0
0
LINE
8
PIPES
6
CONTINUOUS
10
-16.9873
20
15750.055
30
0
11
-16.9873
21
16250.055
31
0
0
LINE
8
PIPES
6
CONTINUOUS
10
-1316.0341
20
15000.05
30
0
11
-1316.0341
21
15500.05
31
0
0
LINE
8
PIPES
6
CONTINUOUS
10
-2182.0595
20
15500.05
30
0
11
-2182.0595
21
16000.05
31
0
0
LINE
8
PIPES
6
CONTINUOUS
10
-3481.0976
20
14250.05
30
0
11
-4347.123
21
14750.05
31
0
0
LINE
8
PIPES
6
CONTINUOUS
10
-4347.123
20
14750.05
30
0
11
-3481.0976
21
15250.05
31
0
0
LINE
8
PIPES
6
CONTINUOUS
10
-2615.0722
20
14750.05
30
0
11
-1749.0381
21
14250.045
31
0
0
LINE
8
PIPES
6
CONTINUOUS
10
-1749.0381
20
14250.045
30
0
11
-883.0127
21
13750.045
31
0
0
LINE
8
PIPES
6
CONTINUOUS
10
-16.9873
20
13250.045
30
0
11
-883.0127
21
12750.045
31
0
0
LINE
8
PIPES
6
CONTINUOUS
10
-16.9873
20
13250.045
30
0
11
1282.0508
21
14000.045
31
0
0
LINE
8
PIPES
6
CONTINUOUS
10
416.0254
20
14500.045
30
0
11
-883.0127
21
13750.045
31
0
0
LINE
8
PIPES
6
CONTINUOUS
10
416.0254
20
14500.045
30
0
11
1715.0722
21
15250.05
31
0
0
LINE
8
PIPES
6
CONTINUOUS
10
2581.0976
20
14750.05
30
0
11
1282.0508
21
14000.045
31
0
0
LINE
8
PIPES
6
CONTINUOUS
10
2581.0976
20
14750.05
30
0
11
3447.123
21
15250.05
31
0
0
LINE
8
PIPES
6
CONTINUOUS
10
3447.123
20
15250.05
30
0
11
2581.0976
21
15750.05
31
0
0
LINE
8
PIPES
6
CONTINUOUS
10
1715.0722
20
16250.05
30
0
11
849.0381
21
16750.055
31
0
0
LINE
8
PIPES
6
CONTINUOUS
10
849.0381
20
16750.055
30
0
11
-16.9873
21
17250.055
31
0
0
LINE
8
PIPES
6
CONTINUOUS
10
-16.9873
20
17250.055
30
0
11
-883.0127
21
16750.055
31
0
0
LINE
8
PIPES
6
CONTINUOUS
10
-16.9873
20
16250.055
30
0
11
-1316.0341
21
15500.05
31
0
0
LINE
8
PIPES
6
CONTINUOUS
10
-2182.0595
20
16000.05
30
0
11
-883.0127
21
16750.055
31
0
0
LINE
8
PIPES
6
CONTINUOUS
10
1715.0722
20
16250.05
30
0
11
2581.0976
21
15750.05
31
0
0
LINE
8
PIPES
6
CONTINUOUS
10
-2182.0595
20
16000.05
30
0
11
-3481.0976
21
15250.05
31
0
0
LINE
8
PIPES
6
CONTINUOUS
10
-2615.0722
20
14750.05
30
0
11
-1316.0341
21
15500.05
31
0
0
LINE
8
PIPES
6
CONTINUOUS
10
-883.0127
20
-10750.045
30
0
11
-883.0127
21
-10250.045
31
0
0
LINE
8
PIPES
6
CONTINUOUS
10
-1749.0381
20
-10250.045
30
0
11
-1749.0381
21
-9750.045
31
0
0
LINE
8
PIPES
6
CONTINUOUS
10
-2615.0635
20
-9750.045
30
0
11
-2615.0635
21
-9250.045
31
0
0
LINE
8
PIPES
6
CONTINUOUS
10
-3481.0976
20
-9250.04
30
0
11
-3481.0976
21
-8750.04
31
0
0
LINE
8
PIPES
6
CONTINUOUS
10
-4347.123
20
-8750.04
30
0
11
-4347.123
21
-8250.04
31
0
0
LINE
8
PIPES
6
CONTINUOUS
10
-3481.0976
20
-8250.04
30
0
11
-3481.0976
21
-7750.04
31
0
0
LINE
8
PIPES
6
CONTINUOUS
10
-2615.0722
20
-8750.04
30
0
11
-2615.0722
21
-8250.04
31
0
0
LINE
8
PIPES
6
CONTINUOUS
10
-1749.0381
20
-9250.045
30
0
11
-1749.0381
21
-8750.045
31
0
0
LINE
8
PIPES
6
CONTINUOUS
10
-883.0127
20
-9750.045
30
0
11
-883.0127
21
-9250.045
31
0
0
LINE
8
PIPES
6
CONTINUOUS
10
-16.9873
20
-10250.045
30
0
11
-16.9873
21
-9750.045
31
0
0
LINE
8
PIPES
6
CONTINUOUS
10
1282.0508
20
-9500.045
30
0
11
1282.0508
21
-9000.045
31
0
0
LINE
8
PIPES
6
CONTINUOUS
10
416.0254
20
-9000.045
30
0
11
416.0254
21
-8500.045
31
0
0
LINE
8
PIPES
6
CONTINUOUS
10
1715.0722
20
-8250.04
30
0
11
1715.0722
21
-7750.04
31
0
0
LINE
8
PIPES
6
CONTINUOUS
10
2581.0976
20
-8750.04
30
0
11
2581.0976
21
-8250.04
31
0
0
LINE
8
PIPES
6
CONTINUOUS
10
3447.123
20
-8250.04
30
0
11
3447.123
21
-7750.04
31
0
0
LINE
8
PIPES
6
CONTINUOUS
10
2581.0976
20
-7750.04
30
0
11
2581.0976
21
-7250.04
31
0
0
LINE
8
PIPES
6
CONTINUOUS
10
849.0468
20
-7750.04
30
0
11
849.0468
21
-7250.04
31
0
0
LINE
8
PIPES
6
CONTINUOUS
10
1715.0722
20
-7250.04
30
0
11
1715.0722
21
-6750.04
31
0
0
LINE
8
PIPES
6
CONTINUOUS
10
849.0381
20
-6750.035
30
0
11
849.0381
21
-6250.035
31
0
0
LINE
8
PIPES
6
CONTINUOUS
10
-16.9873
20
-6250.035
30
0
11
-16.9873
21
-5750.035
31
0
0
LINE
8
PIPES
6
CONTINUOUS
10
-883.0127
20
-6750.035
30
0
11
-883.0127
21
-6250.035
31
0
0
LINE
8
PIPES
6
CONTINUOUS
10
-16.9873
20
-7250.035
30
0
11
-16.9873
21
-6750.035
31
0
0
LINE
8
PIPES
6
CONTINUOUS
10
-1316.0341
20
-8000.04
30
0
11
-1316.0341
21
-7500.04
31
0
0
LINE
8
PIPES
6
CONTINUOUS
10
-2182.0595
20
-7500.04
30
0
11
-2182.0595
21
-7000.04
31
0
0
LINE
8
PIPES
6
CONTINUOUS
10
-883.0127
20
-4750.055
30
0
11
-883.0127
21
-4250.055
31
0
0
LINE
8
PIPES
6
CONTINUOUS
10
-1749.0381
20
-4250.055
30
0
11
-1749.0381
21
-3750.055
31
0
0
LINE
8
PIPES
6
CONTINUOUS
10
-2615.0635
20
-3750.055
30
0
11
-2615.0635
21
-3250.055
31
0
0
LINE
8
PIPES
6
CONTINUOUS
10
-3481.0976
20
-3250.05
30
0
11
-3481.0976
21
-2750.05
31
0
0
LINE
8
PIPES
6
CONTINUOUS
10
-4347.123
20
-2750.05
30
0
11
-4347.123
21
-2250.05
31
0
0
LINE
8
PIPES
6
CONTINUOUS
10
-3481.0976
20
-2250.05
30
0
11
-3481.0976
21
-1750.05
31
0
0
LINE
8
PIPES
6
CONTINUOUS
10
-2615.0722
20
-2750.05
30
0
11
-2615.0722
21
-2250.05
31
0
0
LINE
8
PIPES
6
CONTINUOUS
10
-1749.0381
20
-3250.055
30
0
11
-1749.0381
21
-2750.055
31
0
0
LINE
8
PIPES
6
CONTINUOUS
10
-883.0127
20
-3750.055
30
0
11
-883.0127
21
-3250.055
31
0
0
LINE
8
PIPES
6
CONTINUOUS
10
-16.9873
20
-4250.055
30
0
11
-16.9873
21
-3750.055
31
0
0
LINE
8
PIPES
6
CONTINUOUS
10
1282.0508
20
-3500.055
30
0
11
1282.0508
21
-3000.055
31
0
0
LINE
8
PIPES
6
CONTINUOUS
10
416.0254
20
-3000.055
30
0
11
416.0254
21
-2500.055
31
0
0
LINE
8
PIPES
6
CONTINUOUS
10
1715.0722
20
-2250.05
30
0
11
1715.0722
21
-1750.05
31
0
0
LINE
8
PIPES
6
CONTINUOUS
10
2581.0976
20
-2750.05
30
0
11
2581.0976
21
-2250.05
31
0
0
LINE
8
PIPES
6
CONTINUOUS
10
3447.123
20
-2250.05
30
0
11
3447.123
21
-1750.05
31
0
0
LINE
8
PIPES
6
CONTINUOUS
10
2581.0976
20
-1750.05
30
0
11
2581.0976
21
-1250.05
31
0
0
LINE
8
PIPES
6
CONTINUOUS
10
849.0468
20
-1750.05
30
0
11
849.0468
21
-1250.05
31
0
0
LINE
8
PIPES
6
CONTINUOUS
10
1715.0722
20
-1250.05
30
0
11
1715.0722
21
-750.05
31
0
0
LINE
8
PIPES
6
CONTINUOUS
10
849.0381
20
-750.045
30
0
11
849.0381
21
-250.045
31
0
0
LINE
8
PIPES
6
CONTINUOUS
10
-16.9873
20
-250.045
30
0
11
-16.9873
21
249.955
31
0
0
LINE
8
PIPES
6
CONTINUOUS
10
-883.0127
20
-750.045
30
0
11
-883.0127
21
-250.045
31
0
0
LINE
8
PIPES
6
CONTINUOUS
10
-16.9873
20
-1250.045
30
0
11
-16.9873
21
-750.045
31
0
0
LINE
8
PIPES
6
CONTINUOUS
10
-1316.0341
20
-2000.05
30
0
11
-1316.0341
21
-1500.05
31
0
0
LINE
8
PIPES
6
CONTINUOUS
10
-2182.0595
20
-1500.05
30
0
11
-2182.0595
21
-1000.05
31
0
0
LINE
8
PIPES
6
CONTINUOUS
10
-883.0127
20
1249.945
30
0
11
-883.0127
21
1749.945
31
0
0
LINE
8
PIPES
6
CONTINUOUS
10
-1749.0381
20
1749.945
30
0
11
-1749.0381
21
2249.945
31
0
0
LINE
8
PIPES
6
CONTINUOUS
10
-2615.0635
20
2249.945
30
0
11
-2615.0635
21
2749.945
31
0
0
LINE
8
PIPES
6
CONTINUOUS
10
-3481.0976
20
2749.95
30
0
11
-3481.0976
21
3249.95
31
0
0
LINE
8
PIPES
6
CONTINUOUS
10
-4347.123
20
3249.95
30
0
11
-4347.123
21
3749.95
31
0
0
LINE
8
PIPES
6
CONTINUOUS
10
-3481.0976
20
3749.95
30
0
11
-3481.0976
21
4249.95
31
0
0
LINE
8
PIPES
6
CONTINUOUS
10
-2615.0722
20
3249.95
30
0
11
-2615.0722
21
3749.95
31
0
0
LINE
8
PIPES
6
CONTINUOUS
10
-1749.0381
20
2749.945
30
0
11
-1749.0381
21
3249.945
31
0
0
LINE
8
PIPES
6
CONTINUOUS
10
-883.0127
20
2249.945
30
0
11
-883.0127
21
2749.945
31
0
0
LINE
8
PIPES
6
CONTINUOUS
10
-16.9873
20
1749.945
30
0
11
-16.9873
21
2249.945
31
0
0
LINE
8
PIPES
6
CONTINUOUS
10
1282.0508
20
2499.945
30
0
11
1282.0508
21
2999.945
31
0
0
LINE
8
PIPES
6
CONTINUOUS
10
416.0254
20
2999.945
30
0
11
416.0254
21
3499.945
31
0
0
LINE
8
PIPES
6
CONTINUOUS
10
1715.0722
20
3749.95
30
0
11
1715.0722
21
4249.95
31
0
0
LINE
8
PIPES
6
CONTINUOUS
10
2581.0976
20
3249.95
30
0
11
2581.0976
21
3749.95
31
0
0
LINE
8
PIPES
6
CONTINUOUS
10
3447.123
20
3749.95
30
0
11
3447.123
21
4249.95
31
0
0
LINE
8
PIPES
6
CONTINUOUS
10
2581.0976
20
4249.95
30
0
11
2581.0976
21
4749.95
31
0
0
LINE
8
PIPES
6
CONTINUOUS
10
849.0468
20
4249.95
30
0
11
849.0468
21
4749.95
31
0
0
LINE
8
PIPES
6
CONTINUOUS
10
1715.0722
20
4749.95
30
0
11
1715.0722
21
5249.95
31
0
0
LINE
8
PIPES
6
CONTINUOUS
10
849.0381
20
5249.955
30
0
11
849.0381
21
5749.955
31
0
0
LINE
8
PIPES
6
CONTINUOUS
10
-16.9873
20
5749.955
30
0
11
-16.9873
21
6249.955
31
0
0
LINE
8
PIPES
6
CONTINUOUS
10
-883.0127
20
5249.955
30
0
11
-883.0127
21
5749.955
31
0
0
LINE
8
PIPES
6
CONTINUOUS
10
-16.9873
20
4749.955
30
0
11
-16.9873
21
5249.955
31
0
0
LINE
8
PIPES
6
CONTINUOUS
10
-1316.0341
20
3999.95
30
0
11
-1316.0341
21
4499.95
31
0
0
LINE
8
PIPES
6
CONTINUOUS
10
-2182.0595
20
4499.95
30
0
11
-2182.0595
21
4999.95
31
0
0
LINE
8
PIPES
6
CONTINUOUS
10
-883.0127
20
7249.945
30
0
11
-883.0127
21
7749.945
31
0
0
LINE
8
PIPES
6
CONTINUOUS
10
-1749.0381
20
7749.945
30
0
11
-1749.0381
21
8249.945
31
0
0
LINE
8
PIPES
6
CONTINUOUS
10
-2615.0635
20
8249.945
30
0
11
-2615.0635
21
8749.945
31
0
0
LINE
8
PIPES
6
CONTINUOUS
10
-3481.0976
20
8749.95
30
0
11
-3481.0976
21
9249.95
31
0
0
LINE
8
PIPES
6
CONTINUOUS
10
-4347.123
20
9249.95
30
0
11
-4347.123
21
9749.95
31
0
0
LINE
8
PIPES
6
CONTINUOUS
10
-3481.0976
20
9749.95
30
0
11
-3481.0976
21
10249.95
31
0
0
LINE
8
PIPES
6
CONTINUOUS
10
-2615.0722
20
9249.95
30
0
11
-2615.0722
21
9749.95
31
0
0
LINE
8
PIPES
6
CONTINUOUS
10
-1749.0381
20
8749.945
30
0
11
-1749.0381
21
9249.945
31
0
0
LINE
8
PIPES
6
CONTINUOUS
10
-883.0127
20
8249.945
30
0
11
-883.0127
21
8749.945
31
0
0
LINE
8
PIPES
6
CONTINUOUS
10
-16.9873
20
7749.945
30
0
11
-16.9873
21
8249.945
31
0
0
LINE
8
PIPES
6
CONTINUOUS
10
1282.0508
20
8499.945
30
0
11
1282.0508
21
8999.945
31
0
0
LINE
8
PIPES
6
CONTINUOUS
10
416.0254
20
8999.945
30
0
11
416.0254
21
9499.945
31
0
0
LINE
8
PIPES
6
CONTINUOUS
10
1715.0722
20
9749.95
30
0
11
1715.0722
21
10249.95
31
0
0
LINE
8
PIPES
6
CONTINUOUS
10
2581.0976
20
9249.95
30
0
11
2581.0976
21
9749.95
31
0
0
LINE
8
PIPES
6
CONTINUOUS
10
3447.123
20
9749.95
30
0
11
3447.123
21
10249.95
31
0
0
LINE
8
PIPES
6
CONTINUOUS
10
2581.0976
20
10249.95
30
0
11
2581.0976
21
10749.95
31
0
0
LINE
8
PIPES
6
CONTINUOUS
10
849.0468
20
10249.95
30
0
11
849.0468
21
10749.95
31
0
0
LINE
8
PIPES
6
CONTINUOUS
10
1715.0722
20
10749.95
30
0
11
1715.0722
21
11249.95
31
0
0
LINE
8
PIPES
6
CONTINUOUS
10
849.0381
20
11249.955
30
0
11
849.0381
21
11749.955
31
0
0
LINE
8
PIPES
6
CONTINUOUS
10
-16.9873
20
11749.955
30
0
11
-16.9873
21
12249.955
31
0
0
LINE
8
PIPES
6
CONTINUOUS
10
-883.0127
20
11249.955
30
0
11
-883.0127
21
11749.955
31
0
0
LINE
8
PIPES
6
CONTINUOUS
10
-16.9873
20
10749.955
30
0
11
-16.9873
21
11249.955
31
0
0
LINE
8
PIPES
6
CONTINUOUS
10
-1316.0341
20
9999.95
30
0
11
-1316.0341
21
10499.95
31
0
0
LINE
8
PIPES
6
CONTINUOUS
10
-2182.0595
20
10499.95
30
0
11
-2182.0595
21
10999.95
31
0
0
LINE
8
PIPES
6
CONTINUOUS
10
-883.0127
20
-10750.045
30
0
11
-1749.0381
21
-10250.045
31
0
0
LINE
8
PIPES
6
CONTINUOUS
10
-1749.0381
20
-10250.045
30
0
11
-2615.0635
21
-9750.045
31
0
0
LINE
8
PIPES
6
CONTINUOUS
10
-2615.0635
20
-9750.045
30
0
11
-3481.0976
21
-9250.04
31
0
0
LINE
8
PIPES
6
CONTINUOUS
10
-3481.0976
20
-9250.04
30
0
11
-4347.123
21
-8750.04
31
0
0
LINE
8
PIPES
6
CONTINUOUS
10
-4347.123
20
-8750.04
30
0
11
-3481.0976
21
-8250.04
31
0
0
LINE
8
PIPES
6
CONTINUOUS
10
-2615.0722
20
-8750.04
30
0
11
-1749.0381
21
-9250.045
31
0
0
LINE
8
PIPES
6
CONTINUOUS
10
-1749.0381
20
-9250.045
30
0
11
-883.0127
21
-9750.045
31
0
0
LINE
8
PIPES
6
CONTINUOUS
10
-16.9873
20
-10250.045
30
0
11
-883.0127
21
-10750.045
31
0
0
LINE
8
PIPES
6
CONTINUOUS
10
-16.9873
20
-10250.045
30
0
11
1282.0508
21
-9500.045
31
0
0
LINE
8
PIPES
6
CONTINUOUS
10
416.0254
20
-9000.045
30
0
11
-883.0127
21
-9750.045
31
0
0
LINE
8
PIPES
6
CONTINUOUS
10
416.0254
20
-9000.045
30
0
11
1715.0722
21
-8250.04
31
0
0
LINE
8
PIPES
6
CONTINUOUS
10
2581.0976
20
-8750.04
30
0
11
1282.0508
21
-9500.045
31
0
0
LINE
8
PIPES
6
CONTINUOUS
10
2581.0976
20
-8750.04
30
0
11
3447.123
21
-8250.04
31
0
0
LINE
8
PIPES
6
CONTINUOUS
10
3447.123
20
-8250.04
30
0
11
2581.0976
21
-7750.04
31
0
0
LINE
8
PIPES
6
CONTINUOUS
10
1715.0722
20
-8250.04
30
0
11
849.0468
21
-7750.04
31
0
0
LINE
8
PIPES
6
CONTINUOUS
10
1715.0722
20
-7250.04
30
0
11
849.0381
21
-6750.035
31
0
0
LINE
8
PIPES
6
CONTINUOUS
10
849.0381
20
-6750.035
30
0
11
-16.9873
21
-6250.035
31
0
0
LINE
8
PIPES
6
CONTINUOUS
10
-16.9873
20
-6250.035
30
0
11
-883.0127
21
-6750.035
31
0
0
LINE
8
PIPES
6
CONTINUOUS
10
-16.9873
20
-7250.035
30
0
11
-1316.0341
21
-8000.04
31
0
0
LINE
8
PIPES
6
CONTINUOUS
10
-2182.0595
20
-7500.04
30
0
11
-883.0127
21
-6750.035
31
0
0
LINE
8
PIPES
6
CONTINUOUS
10
-16.9873
20
-7250.035
30
0
11
849.0468
21
-7750.04
31
0
0
LINE
8
PIPES
6
CONTINUOUS
10
1715.0722
20
-7250.04
30
0
11
2581.0976
21
-7750.04
31
0
0
LINE
8
PIPES
6
CONTINUOUS
10
-2182.0595
20
-7500.04
30
0
11
-3481.0976
21
-8250.04
31
0
0
LINE
8
PIPES
6
CONTINUOUS
10
-2615.0722
20
-8750.04
30
0
11
-1316.0341
21
-8000.04
31
0
0
LINE
8
PIPES
6
CONTINUOUS
10
-883.0127
20
-4750.055
30
0
11
-1749.0381
21
-4250.055
31
0
0
LINE
8
PIPES
6
CONTINUOUS
10
-1749.0381
20
-4250.055
30
0
11
-2615.0635
21
-3750.055
31
0
0
LINE
8
PIPES
6
CONTINUOUS
10
-2615.0635
20
-3750.055
30
0
11
-3481.0976
21
-3250.05
31
0
0
LINE
8
PIPES
6
CONTINUOUS
10
-3481.0976
20
-3250.05
30
0
11
-4347.123
21
-2750.05
31
0
0
LINE
8
PIPES
6
CONTINUOUS
10
-4347.123
20
-2750.05
30
0
11
-3481.0976
21
-2250.05
31
0
0
LINE
8
PIPES
6
CONTINUOUS
10
-2615.0722
20
-2750.05
30
0
11
-1749.0381
21
-3250.055
31
0
0
LINE
8
PIPES
6
CONTINUOUS
10
-1749.0381
20
-3250.055
30
0
11
-883.0127
21
-3750.055
31
0
0
LINE
8
PIPES
6
CONTINUOUS
10
-16.9873
20
-4250.055
30
0
11
-883.0127
21
-4750.055
31
0
0
LINE
8
PIPES
6
CONTINUOUS
10
-16.9873
20
-4250.055
30
0
11
1282.0508
21
-3500.055
31
0
0
LINE
8
PIPES
6
CONTINUOUS
10
416.0254
20
-3000.055
30
0
11
-883.0127
21
-3750.055
31
0
0
LINE
8
PIPES
6
CONTINUOUS
10
416.0254
20
-3000.055
30
0
11
1715.0722
21
-2250.05
31
0
0
LINE
8
PIPES
6
CONTINUOUS
10
2581.0976
20
-2750.05
30
0
11
1282.0508
21
-3500.055
31
0
0
LINE
8
PIPES
6
CONTINUOUS
10
2581.0976
20
-2750.05
30
0
11
3447.123
21
-2250.05
31
0
0
LINE
8
PIPES
6
CONTINUOUS
10
3447.123
20
-2250.05
30
0
11
2581.0976
21
-1750.05
31
0
0
LINE
8
PIPES
6
CONTINUOUS
10
1715.0722
20
-2250.05
30
0
11
849.0468
21
-1750.05
31
0
0
LINE
8
PIPES
6
CONTINUOUS
10
1715.0722
20
-1250.05
30
0
11
849.0381
21
-750.045
31
0
0
LINE
8
PIPES
6
CONTINUOUS
10
849.0381
20
-750.045
30
0
11
-16.9873
21
-250.045
31
0
0
LINE
8
PIPES
6
CONTINUOUS
10
-16.9873
20
-250.045
30
0
11
-883.0127
21
-750.045
31
0
0
LINE
8
PIPES
6
CONTINUOUS
10
-16.9873
20
-1250.045
30
0
11
-1316.0341
21
-2000.05
31
0
0
LINE
8
PIPES
6
CONTINUOUS
10
-2182.0595
20
-1500.05
30
0
11
-883.0127
21
-750.045
31
0
0
LINE
8
PIPES
6
CONTINUOUS
10
-16.9873
20
-1250.045
30
0
11
849.0468
21
-1750.05
31
0
0
LINE
8
PIPES
6
CONTINUOUS
10
1715.0722
20
-1250.05
30
0
11
2581.0976
21
-1750.05
31
0
0
LINE
8
PIPES
6
CONTINUOUS
10
-2182.0595
20
-1500.05
30
0
11
-3481.0976
21
-2250.05
31
0
0
LINE
8
PIPES
6
CONTINUOUS
10
-2615.0722
20
-2750.05
30
0
11
-1316.0341
21
-2000.05
31
0
0
LINE
8
PIPES
6
CONTINUOUS
10
-883.0127
20
1249.945
30
0
11
-1749.0381
21
1749.945
31
0
0
LINE
8
PIPES
6
CONTINUOUS
10
-1749.0381
20
1749.945
30
0
11
-2615.0635
21
2249.945
31
0
0
LINE
8
PIPES
6
CONTINUOUS
10
-2615.0635
20
2249.945
30
0
11
-3481.0976
21
2749.95
31
0
0
LINE
8
PIPES
6
CONTINUOUS
10
-3481.0976
20
2749.95
30
0
11
-4347.123
21
3249.95
31
0
0
LINE
8
PIPES
6
CONTINUOUS
10
-4347.123
20
3249.95
30
0
11
-3481.0976
21
3749.95
31
0
0
LINE
8
PIPES
6
CONTINUOUS
10
-2615.0722
20
3249.95
30
0
11
-1749.0381
21
2749.945
31
0
0
LINE
8
PIPES
6
CONTINUOUS
10
-1749.0381
20
2749.945
30
0
11
-883.0127
21
2249.945
31
0
0
LINE
8
PIPES
6
CONTINUOUS
10
-16.9873
20
1749.945
30
0
11
-883.0127
21
1249.945
31
0
0
LINE
8
PIPES
6
CONTINUOUS
10
-16.9873
20
1749.945
30
0
11
1282.0508
21
2499.945
31
0
0
LINE
8
PIPES
6
CONTINUOUS
10
416.0254
20
2999.945
30
0
11
-883.0127
21
2249.945
31
0
0
LINE
8
PIPES
6
CONTINUOUS
10
416.0254
20
2999.945
30
0
11
1715.0722
21
3749.95
31
0
0
LINE
8
PIPES
6
CONTINUOUS
10
2581.0976
20
3249.95
30
0
11
1282.0508
21
2499.945
31
0
0
LINE
8
PIPES
6
CONTINUOUS
10
2581.0976
20
3249.95
30
0
11
3447.123
21
3749.95
31
0
0
LINE
8
PIPES
6
CONTINUOUS
10
3447.123
20
3749.95
30
0
11
2581.0976
21
4249.95
31
0
0
LINE
8
PIPES
6
CONTINUOUS
10
1715.0722
20
3749.95
30
0
11
849.0468
21
4249.95
31
0
0
LINE
8
PIPES
6
CONTINUOUS
10
1715.0722
20
4749.95
30
0
11
849.0381
21
5249.955
31
0
0
LINE
8
PIPES
6
CONTINUOUS
10
849.0381
20
5249.955
30
0
11
-16.9873
21
5749.955
31
0
0
LINE
8
PIPES
6
CONTINUOUS
10
-16.9873
20
5749.955
30
0
11
-883.0127
21
5249.955
31
0
0
LINE
8
PIPES
6
CONTINUOUS
10
-16.9873
20
4749.955
30
0
11
-1316.0341
21
3999.95
31
0
0
LINE
8
PIPES
6
CONTINUOUS
10
-2182.0595
20
4499.95
30
0
11
-883.0127
21
5249.955
31
0
0
LINE
8
PIPES
6
CONTINUOUS
10
-16.9873
20
4749.955
30
0
11
849.0468
21
4249.95
31
0
0
LINE
8
PIPES
6
CONTINUOUS
10
1715.0722
20
4749.95
30
0
11
2581.0976
21
4249.95
31
0
0
LINE
8
PIPES
6
CONTINUOUS
10
-2182.0595
20
4499.95
30
0
11
-3481.0976
21
3749.95
31
0
0
LINE
8
PIPES
6
CONTINUOUS
10
-2615.0722
20
3249.95
30
0
11
-1316.0341
21
3999.95
31
0
0
LINE
8
PIPES
6
CONTINUOUS
10
-883.0127
20
7249.945
30
0
11
-1749.0381
21
7749.945
31
0
0
LINE
8
PIPES
6
CONTINUOUS
10
-1749.0381
20
7749.945
30
0
11
-2615.0635
21
8249.945
31
0
0
LINE
8
PIPES
6
CONTINUOUS
10
-2615.0635
20
8249.945
30
0
11
-3481.0976
21
8749.95
31
0
0
LINE
8
PIPES
6
CONTINUOUS
10
-3481.0976
20
8749.95
30
0
11
-4347.123
21
9249.95
31
0
0
LINE
8
PIPES
6
CONTINUOUS
10
-4347.123
20
9249.95
30
0
11
-3481.0976
21
9749.95
31
0
0
LINE
8
PIPES
6
CONTINUOUS
10
-2615.0722
20
9249.95
30
0
11
-1749.0381
21
8749.945
31
0
0
LINE
8
PIPES
6
CONTINUOUS
10
-1749.0381
20
8749.945
30
0
11
-883.0127
21
8249.945
31
0
0
LINE
8
PIPES
6
CONTINUOUS
10
-16.9873
20
7749.945
30
0
11
-883.0127
21
7249.945
31
0
0
LINE
8
PIPES
6
CONTINUOUS
10
-16.9873
20
7749.945
30
0
11
1282.0508
21
8499.945
31
0
0
LINE
8
PIPES
6
CONTINUOUS
10
416.0254
20
8999.945
30
0
11
-883.0127
21
8249.945
31
0
0
LINE
8
PIPES
6
CONTINUOUS
10
416.0254
20
8999.945
30
0
11
1715.0722
21
9749.95
31
0
0
LINE
8
PIPES
6
CONTINUOUS
10
2581.0976
20
9249.95
30
0
11
1282.0508
21
8499.945
31
0
0
LINE
8
PIPES
6
CONTINUOUS
10
2581.0976
20
9249.95
30
0
11
3447.123
21
9749.95
31
0
0
LINE
8
PIPES
6
CONTINUOUS
10
3447.123
20
9749.95
30
0
11
2581.0976
21
10249.95
31
0
0
LINE
8
PIPES
6
CONTINUOUS
10
1715.0722
20
9749.95
30
0
11
849.0468
21
10249.95
31
0
0
LINE
8
PIPES
6
CONTINUOUS
10
1715.0722
20
10749.95
30
0
11
849.0381
21
11249.955
31
0
0
LINE
8
PIPES
6
CONTINUOUS
10
849.0381
20
11249.955
30
0
11
-16.9873
21
11749.955
31
0
0
LINE
8
PIPES
6
CONTINUOUS
10
-16.9873
20
11749.955
30
0
11
-883.0127
21
11249.955
31
0
0
LINE
8
PIPES
6
CONTINUOUS
10
-16.9873
20
10749.955
30
0
11
-1316.0341
21
9999.95
31
0
0
LINE
8
PIPES
6
CONTINUOUS
10
-2182.0595
20
10499.95
30
0
11
-883.0127
21
11249.955
31
0
0
LINE
8
PIPES
6
CONTINUOUS
10
-16.9873
20
10749.955
30
0
11
849.0468
21
10249.95
31
0
0
LINE
8
PIPES
6
CONTINUOUS
10
1715.0722
20
10749.95
30
0
11
2581.0976
21
10249.95
31
0
0
LINE
8
PIPES
6
CONTINUOUS
10
-2182.0595
20
10499.95
30
0
11
-3481.0976
21
9749.95
31
0
0
LINE
8
PIPES
6
CONTINUOUS
10
-2615.0722
20
9249.95
30
0
11
-1316.0341
21
9999.95
31
0
0
LINE
8
PIPES
6
CONTINUOUS
10
-883.0127
20
-10250.045
30
0
11
-883.0127
21
-9250.045
31
0
0
LINE
8
PIPES
6
CONTINUOUS
10
-1749.0381
20
-9750.045
30
0
11
-1749.0381
21
-8750.045
31
0
0
LINE
8
PIPES
6
CONTINUOUS
10
-2615.0635
20
-9250.045
30
0
11
-2615.0635
21
-8250.045
31
0
0
LINE
8
PIPES
6
CONTINUOUS
10
-3481.0976
20
-8750.04
30
0
11
-3481.0976
21
-7750.04
31
0
0
LINE
8
PIPES
6
CONTINUOUS
10
-4347.123
20
-8250.04
30
0
11
-4347.123
21
-7250.04
31
0
0
LINE
8
PIPES
6
CONTINUOUS
10
-3481.0976
20
-7750.04
30
0
11
-3481.0976
21
-6750.04
31
0
0
LINE
8
PIPES
6
CONTINUOUS
10
-2615.0722
20
-8250.04
30
0
11
-2615.0722
21
-7250.04
31
0
0
LINE
8
PIPES
6
CONTINUOUS
10
-1749.0381
20
-8750.045
30
0
11
-1749.0381
21
-7750.045
31
0
0
LINE
8
PIPES
6
CONTINUOUS
10
-883.0127
20
-9250.045
30
0
11
-883.0127
21
-8250.045
31
0
0
LINE
8
PIPES
6
CONTINUOUS
10
-16.9873
20
-9750.045
30
0
11
-16.9873
21
-8750.045
31
0
0
LINE
8
PIPES
6
CONTINUOUS
10
1282.0508
20
-9000.045
30
0
11
1282.0508
21
-8000.045
31
0
0
LINE
8
PIPES
6
CONTINUOUS
10
416.0254
20
-8500.045
30
0
11
416.0254
21
-7500.045
31
0
0
LINE
8
PIPES
6
CONTINUOUS
10
1715.0722
20
-7750.04
30
0
11
1715.0722
21
-6750.04
31
0
0
LINE
8
PIPES
6
CONTINUOUS
10
2581.0976
20
-8250.04
30
0
11
2581.0976
21
-7250.04
31
0
0
LINE
8
PIPES
6
CONTINUOUS
10
3447.123
20
-7750.04
30
0
11
3447.123
21
-6750.04
31
0
0
LINE
8
PIPES
6
CONTINUOUS
10
2581.0976
20
-7250.04
30
0
11
2581.0976
21
-6250.04
31
0
0
LINE
8
PIPES
6
CONTINUOUS
10
849.0468
20
-7250.04
30
0
11
849.0468
21
-6250.04
31
0
0
LINE
8
PIPES
6
CONTINUOUS
10
1715.0722
20
-6750.04
30
0
11
1715.0722
21
-5750.04
31
0
0
LINE
8
PIPES
6
CONTINUOUS
10
849.0381
20
-6250.035
30
0
11
849.0381
21
-5250.035
31
0
0
LINE
8
PIPES
6
CONTINUOUS
10
-16.9873
20
-5750.035
30
0
11
-16.9873
21
-4750.035
31
0
0
LINE
8
PIPES
6
CONTINUOUS
10
-883.0127
20
-6250.035
30
0
11
-883.0127
21
-5250.035
31
0
0
LINE
8
PIPES
6
CONTINUOUS
10
-16.9873
20
-6750.035
30
0
11
-16.9873
21
-5750.035
31
0
0
LINE
8
PIPES
6
CONTINUOUS
10
-1316.0341
20
-7500.04
30
0
11
-1316.0341
21
-6500.04
31
0
0
LINE
8
PIPES
6
CONTINUOUS
10
-2182.0595
20
-7000.04
30
0
11
-2182.0595
21
-6000.04
31
0
0
LINE
8
PIPES
6
CONTINUOUS
10
-883.0127
20
-4250.055
30
0
11
-883.0127
21
-3250.055
31
0
0
LINE
8
PIPES
6
CONTINUOUS
10
-1749.0381
20
-3750.055
30
0
11
-1749.0381
21
-2750.055
31
0
0
LINE
8
PIPES
6
CONTINUOUS
10
-2615.0635
20
-3250.055
30
0
11
-2615.0635
21
-2250.055
31
0
0
LINE
8
PIPES
6
CONTINUOUS
10
-3481.0976
20
-2750.05
30
0
11
-3481.0976
21
-1750.05
31
0
0
LINE
8
PIPES
6
CONTINUOUS
10
-4347.123
20
-2250.05
30
0
11
-4347.123
21
-1250.05
31
0
0
LINE
8
PIPES
6
CONTINUOUS
10
-3481.0976
20
-1750.05
30
0
11
-3481.0976
21
-750.05
31
0
0
LINE
8
PIPES
6
CONTINUOUS
10
-2615.0722
20
-2250.05
30
0
11
-2615.0722
21
-1250.05
31
0
0
LINE
8
PIPES
6
CONTINUOUS
10
-1749.0381
20
-2750.055
30
0
11
-1749.0381
21
-1750.055
31
0
0
LINE
8
PIPES
6
CONTINUOUS
10
-883.0127
20
-3250.055
30
0
11
-883.0127
21
-2250.055
31
0
0
LINE
8
PIPES
6
CONTINUOUS
10
-16.9873
20
-3750.055
30
0
11
-16.9873
21
-2750.055
31
0
0
LINE
8
PIPES
6
CONTINUOUS
10
1282.0508
20
-3000.055
30
0
11
1282.0508
21
-2000.055
31
0
0
LINE
8
PIPES
6
CONTINUOUS
10
416.0254
20
-2500.055
30
0
11
416.0254
21
-1500.055
31
0
0
LINE
8
PIPES
6
CONTINUOUS
10
1715.0722
20
-1750.05
30
0
11
1715.0722
21
-750.05
31
0
0
LINE
8
PIPES
6
CONTINUOUS
10
2581.0976
20
-2250.05
30
0
11
2581.0976
21
-1250.05
31
0
0
LINE
8
PIPES
6
CONTINUOUS
10
3447.123
20
-1750.05
30
0
11
3447.123
21
-750.05
31
0
0
LINE
8
PIPES
6
CONTINUOUS
10
2581.0976
20
-1250.05
30
0
11
2581.0976
21
-250.05
31
0
0
LINE
8
PIPES
6
CONTINUOUS
10
849.0468
20
-1250.05
30
0
11
849.0468
21
-250.05
31
0
0
LINE
8
PIPES
6
CONTINUOUS
10
1715.0722
20
-750.05
30
0
11
1715.0722
21
249.95
31
0
0
LINE
8
PIPES
6
CONTINUOUS
10
849.0381
20
-250.045
30
0
11
849.0381
21
749.955
31
0
0
LINE
8
PIPES
6
CONTINUOUS
10
-16.9873
20
249.955
30
0
11
-16.9873
21
1249.955
31
0
0
LINE
8
PIPES
6
CONTINUOUS
10
-883.0127
20
-250.045
30
0
11
-883.0127
21
749.955
31
0
0
LINE
8
PIPES
6
CONTINUOUS
10
-16.9873
20
-750.045
30
0
11
-16.9873
21
249.955
31
0
0
LINE
8
PIPES
6
CONTINUOUS
10
-1316.0341
20
-1500.05
30
0
11
-1316.0341
21
-500.05
31
0
0
LINE
8
PIPES
6
CONTINUOUS
10
-2182.0595
20
-1000.05
30
0
11
-2182.0595
21
-0.05
31
0
0
LINE
8
PIPES
6
CONTINUOUS
10
-883.0127
20
1749.945
30
0
11
-883.0127
21
2749.945
31
0
0
LINE
8
PIPES
6
CONTINUOUS
10
-1749.0381
20
2249.945
30
0
11
-1749.0381
21
3249.945
31
0
0
LINE
8
PIPES
6
CONTINUOUS
10
-2615.0635
20
2749.945
30
0
11
-2615.0635
21
3749.945
31
0
0
LINE
8
PIPES
6
CONTINUOUS
10
-3481.0976
20
3249.95
30
0
11
-3481.0976
21
4249.95
31
0
0
LINE
8
PIPES
6
CONTINUOUS
10
-4347.123
20
3749.95
30
0
11
-4347.123
21
4749.95
31
0
0
LINE
8
PIPES
6
CONTINUOUS
10
-3481.0976
20
4249.95
30
0
11
-3481.0976
21
5249.95
31
0
0
LINE
8
PIPES
6
CONTINUOUS
10
-2615.0722
20
3749.95
30
0
11
-2615.0722
21
4749.95
31
0
0
LINE
8
PIPES
6
CONTINUOUS
10
-1749.0381
20
3249.945
30
0
11
-1749.0381
21
4249.945
31
0
0
LINE
8
PIPES
6
CONTINUOUS
10
-883.0127
20
2749.945
30
0
11
-883.0127
21
3749.945
31
0
0
LINE
8
PIPES
6
CONTINUOUS
10
-16.9873
20
2249.945
30
0
11
-16.9873
21
3249.945
31
0
0
LINE
8
PIPES
6
CONTINUOUS
10
1282.0508
20
2999.945
30
0
11
1282.0508
21
3999.945
31
0
0
LINE
8
PIPES
6
CONTINUOUS
10
416.0254
20
3499.945
30
0
11
416.0254
21
4499.945
31
0
0
LINE
8
PIPES
6
CONTINUOUS
10
1715.0722
20
4249.95
30
0
11
1715.0722
21
5249.95
31
0
0
LINE
8
PIPES
6
CONTINUOUS
10
2581.0976
20
3749.95
30
0
11
2581.0976
21
4749.95
31
0
0
LINE
8
PIPES
6
CONTINUOUS
10
3447.123
20
4249.95
30
0
11
3447.123
21
5249.95
31
0
0
LINE
8
PIPES
6
CONTINUOUS
10
2581.0976
20
4749.95
30
0
11
2581.0976
21
5749.95
31
0
0
LINE
8
PIPES
6
CONTINUOUS
10
849.0468
20
4749.95
30
0
11
849.0468
21
5749.95
31
0
0
LINE
8
PIPES
6
CONTINUOUS
10
1715.0722
20
5249.95
30
0
11
1715.0722
21
6249.95
31
0
0
LINE
8
PIPES
6
CONTINUOUS
10
849.0381
20
5749.955
30
0
11
849.0381
21
6749.955
31
0
0
LINE
8
PIPES
6
CONTINUOUS
10
-16.9873
20
6249.955
30
0
11
-16.9873
21
7249.955
31
0
0
LINE
8
PIPES
6
CONTINUOUS
10
-883.0127
20
5749.955
30
0
11
-883.0127
21
6749.955
31
0
0
LINE
8
PIPES
6
CONTINUOUS
10
-16.9873
20
5249.955
30
0
11
-16.9873
21
6249.955
31
0
0
LINE
8
PIPES
6
CONTINUOUS
10
-1316.0341
20
4499.95
30
0
11
-1316.0341
21
5499.95
31
0
0
LINE
8
PIPES
6
CONTINUOUS
10
-2182.0595
20
4999.95
30
0
11
-2182.0595
21
5999.95
31
0
0
LINE
8
PIPES
6
CONTINUOUS
10
-883.0127
20
7749.945
30
0
11
-883.0127
21
8749.945
31
0
0
LINE
8
PIPES
6
CONTINUOUS
10
-1749.0381
20
8249.945
30
0
11
-1749.0381
21
9249.945
31
0
0
LINE
8
PIPES
6
CONTINUOUS
10
-2615.0635
20
8749.945
30
0
11
-2615.0635
21
9749.945
31
0
0
LINE
8
PIPES
6
CONTINUOUS
10
-3481.0976
20
9249.95
30
0
11
-3481.0976
21
10249.95
31
0
0
LINE
8
PIPES
6
CONTINUOUS
10
-4347.123
20
9749.95
30
0
11
-4347.123
21
10749.95
31
0
0
LINE
8
PIPES
6
CONTINUOUS
10
-3481.0976
20
10249.95
30
0
11
-3481.0976
21
11249.95
31
0
0
LINE
8
PIPES
6
CONTINUOUS
10
-2615.0722
20
9749.95
30
0
11
-2615.0722
21
10749.95
31
0
0
LINE
8
PIPES
6
CONTINUOUS
10
-1749.0381
20
9249.945
30
0
11
-1749.0381
21
10249.945
31
0
0
LINE
8
PIPES
6
CONTINUOUS
10
-883.0127
20
8749.945
30
0
11
-883.0127
21
9749.945
31
0
0
LINE
8
PIPES
6
CONTINUOUS
10
-16.9873
20
8249.945
30
0
11
-16.9873
21
9249.945
31
0
0
LINE
8
PIPES
6
CONTINUOUS
10
1282.0508
20
8999.945
30
0
11
1282.0508
21
9999.945
31
0
0
LINE
8
PIPES
6
CONTINUOUS
10
416.0254
20
9499.945
30
0
11
416.0254
21
10499.945
31
0
0
LINE
8
PIPES
6
CONTINUOUS
10
1715.0722
20
10249.95
30
0
11
1715.0722
21
11249.95
31
0
0
LINE
8
PIPES
6
CONTINUOUS
10
2581.0976
20
9749.95
30
0
11
2581.0976
21
10749.95
31
0
0
LINE
8
PIPES
6
CONTINUOUS
10
3447.123
20
10249.95
30
0
11
3447.123
21
11249.95
31
0
0
LINE
8
PIPES
6
CONTINUOUS
10
2581.0976
20
10749.95
30
0
11
2581.0976
21
11749.95
31
0
0
LINE
8
PIPES
6
CONTINUOUS
10
849.0468
20
10749.95
30
0
11
849.0468
21
11749.95
31
0
0
LINE
8
PIPES
6
CONTINUOUS
10
1715.0722
20
11249.95
30
0
11
1715.0722
21
12249.95
31
0
0
LINE
8
PIPES
6
CONTINUOUS
10
849.0381
20
11749.955
30
0
11
849.0381
21
12749.955
31
0
0
LINE
8
PIPES
6
CONTINUOUS
10
-16.9873
20
12249.955
30
0
11
-16.9873
21
13249.955
31
0
0
LINE
8
PIPES
6
CONTINUOUS
10
-883.0127
20
11749.955
30
0
11
-883.0127
21
12749.955
31
0
0
LINE
8
PIPES
6
CONTINUOUS
10
-16.9873
20
11249.955
30
0
11
-16.9873
21
12249.955
31
0
0
LINE
8
PIPES
6
CONTINUOUS
10
-1316.0341
20
10499.95
30
0
11
-1316.0341
21
11499.95
31
0
0
LINE
8
PIPES
6
CONTINUOUS
10
-2182.0595
20
10999.95
30
0
11
-2182.0595
21
11999.95
31
0
0
LINE
8
PIPES
6
CONTINUOUS
10
-3481.0976
20
-8750.04
30
0
11
-4347.123
21
-8250.04
31
0
0
LINE
8
PIPES
6
CONTINUOUS
10
-4347.123
20
-8250.04
30
0
11
-3481.0976
21
-7750.04
31
0
0
LINE
8
PIPES
6
CONTINUOUS
10
-16.9873
20
-9750.045
30
0
11
-883.0127
21
-10250.045
31
0
0
LINE
8
PIPES
6
CONTINUOUS
10
-16.9873
20
-9750.045
30
0
11
1282.0508
21
-9000.045
31
0
0
LINE
8
PIPES
6
CONTINUOUS
10
416.0254
20
-8500.045
30
0
11
-883.0127
21
-9250.045
31
0
0
LINE
8
PIPES
6
CONTINUOUS
10
416.0254
20
-8500.045
30
0
11
1715.0722
21
-7750.04
31
0
0
LINE
8
PIPES
6
CONTINUOUS
10
2581.0976
20
-8250.04
30
0
11
1282.0508
21
-9000.045
31
0
0
LINE
8
PIPES
6
CONTINUOUS
10
2581.0976
20
-8250.04
30
0
11
3447.123
21
-7750.04
31
0
0
LINE
8
PIPES
6
CONTINUOUS
10
3447.123
20
-7750.04
30
0
11
2581.0976
21
-7250.04
31
0
0
LINE
8
PIPES
6
CONTINUOUS
10
-16.9873
20
-5750.035
30
0
11
-883.0127
21
-6250.035
31
0
0
LINE
8
PIPES
6
CONTINUOUS
10
-16.9873
20
-6750.035
30
0
11
-1316.0341
21
-7500.04
31
0
0
LINE
8
PIPES
6
CONTINUOUS
10
-2182.0595
20
-7000.04
30
0
11
-883.0127
21
-6250.035
31
0
0
LINE
8
PIPES
6
CONTINUOUS
10
-2182.0595
20
-7000.04
30
0
11
-3481.0976
21
-7750.04
31
0
0
LINE
8
PIPES
6
CONTINUOUS
10
-2615.0722
20
-8250.04
30
0
11
-1316.0341
21
-7500.04
31
0
0
LINE
8
PIPES
6
CONTINUOUS
10
-3481.0976
20
-2750.05
30
0
11
-4347.123
21
-2250.05
31
0
0
LINE
8
PIPES
6
CONTINUOUS
10
-4347.123
20
-2250.05
30
0
11
-3481.0976
21
-1750.05
31
0
0
LINE
8
PIPES
6
CONTINUOUS
10
-16.9873
20
-3750.055
30
0
11
-883.0127
21
-4250.055
31
0
0
LINE
8
PIPES
6
CONTINUOUS
10
-16.9873
20
-3750.055
30
0
11
1282.0508
21
-3000.055
31
0
0
LINE
8
PIPES
6
CONTINUOUS
10
416.0254
20
-2500.055
30
0
11
-883.0127
21
-3250.055
31
0
0
LINE
8
PIPES
6
CONTINUOUS
10
416.0254
20
-2500.055
30
0
11
1715.0722
21
-1750.05
31
0
0
LINE
8
PIPES
6
CONTINUOUS
10
2581.0976
20
-2250.05
30
0
11
1282.0508
21
-3000.055
31
0
0
LINE
8
PIPES
6
CONTINUOUS
10
2581.0976
20
-2250.05
30
0
11
3447.123
21
-1750.05
31
0
0
LINE
8
PIPES
6
CONTINUOUS
10
3447.123
20
-1750.05
30
0
11
2581.0976
21
-1250.05
31
0
0
LINE
8
PIPES
6
CONTINUOUS
10
-16.9873
20
249.955
30
0
11
-883.0127
21
-250.045
31
0
0
LINE
8
PIPES
6
CONTINUOUS
10
-16.9873
20
-750.045
30
0
11
-1316.0341
21
-1500.05
31
0
0
LINE
8
PIPES
6
CONTINUOUS
10
-2182.0595
20
-1000.05
30
0
11
-883.0127
21
-250.045
31
0
0
LINE
8
PIPES
6
CONTINUOUS
10
-2182.0595
20
-1000.05
30
0
11
-3481.0976
21
-1750.05
31
0
0
LINE
8
PIPES
6
CONTINUOUS
10
-2615.0722
20
-2250.05
30
0
11
-1316.0341
21
-1500.05
31
0
0
LINE
8
PIPES
6
CONTINUOUS
10
-3481.0976
20
3249.95
30
0
11
-4347.123
21
3749.95
31
0
0
LINE
8
PIPES
6
CONTINUOUS
10
-4347.123
20
3749.95
30
0
11
-3481.0976
21
4249.95
31
0
0
LINE
8
PIPES
6
CONTINUOUS
10
-16.9873
20
2249.945
30
0
11
-883.0127
21
1749.945
31
0
0
LINE
8
PIPES
6
CONTINUOUS
10
-16.9873
20
2249.945
30
0
11
1282.0508
21
2999.945
31
0
0
LINE
8
PIPES
6
CONTINUOUS
10
416.0254
20
3499.945
30
0
11
-883.0127
21
2749.945
31
0
0
LINE
8
PIPES
6
CONTINUOUS
10
416.0254
20
3499.945
30
0
11
1715.0722
21
4249.95
31
0
0
LINE
8
PIPES
6
CONTINUOUS
10
2581.0976
20
3749.95
30
0
11
1282.0508
21
2999.945
31
0
0
LINE
8
PIPES
6
CONTINUOUS
10
2581.0976
20
3749.95
30
0
11
3447.123
21
4249.95
31
0
0
LINE
8
PIPES
6
CONTINUOUS
10
3447.123
20
4249.95
30
0
11
2581.0976
21
4749.95
31
0
0
LINE
8
PIPES
6
CONTINUOUS
10
-16.9873
20
6249.955
30
0
11
-883.0127
21
5749.955
31
0
0
LINE
8
PIPES
6
CONTINUOUS
10
-16.9873
20
5249.955
30
0
11
-1316.0341
21
4499.95
31
0
0
LINE
8
PIPES
6
CONTINUOUS
10
-2182.0595
20
4999.95
30
0
11
-883.0127
21
5749.955
31
0
0
LINE
8
PIPES
6
CONTINUOUS
10
-2182.0595
20
4999.95
30
0
11
-3481.0976
21
4249.95
31
0
0
LINE
8
PIPES
6
CONTINUOUS
10
-2615.0722
20
3749.95
30
0
11
-1316.0341
21
4499.95
31
0
0
LINE
8
PIPES
6
CONTINUOUS
10
-3481.0976
20
9249.95
30
0
11
-4347.123
21
9749.95
31
0
0
LINE
8
PIPES
6
CONTINUOUS
10
-4347.123
20
9749.95
30
0
11
-3481.0976
21
10249.95
31
0
0
LINE
8
PIPES
6
CONTINUOUS
10
-16.9873
20
8249.945
30
0
11
-883.0127
21
7749.945
31
0
0
LINE
8
PIPES
6
CONTINUOUS
10
-16.9873
20
8249.945
30
0
11
1282.0508
21
8999.945
31
0
0
LINE
8
PIPES
6
CONTINUOUS
10
416.0254
20
9499.945
30
0
11
-883.0127
21
8749.945
31
0
0
LINE
8
PIPES
6
CONTINUOUS
10
416.0254
20
9499.945
30
0
11
1715.0722
21
10249.95
31
0
0
LINE
8
PIPES
6
CONTINUOUS
10
2581.0976
20
9749.95
30
0
11
1282.0508
21
8999.945
31
0
0
LINE
8
PIPES
6
CONTINUOUS
10
2581.0976
20
9749.95
30
0
11
3447.123
21
10249.95
31
0
0
LINE
8
PIPES
6
CONTINUOUS
10
3447.123
20
10249.95
30
0
11
2581.0976
21
10749.95
31
0
0
LINE
8
PIPES
6
CONTINUOUS
10
-16.9873
20
12249.955
30
0
11
-883.0127
21
11749.955
31
0
0
LINE
8
PIPES
6
CONTINUOUS
10
-16.9873
20
11249.955
30
0
11
-1316.0341
21
10499.95
31
0
0
LINE
8
PIPES
6
CONTINUOUS
10
-2182.0595
20
10999.95
30
0
11
-883.0127
21
11749.955
31
0
0
LINE
8
PIPES
6
CONTINUOUS
10
-2182.0595
20
10999.95
30
0
11
-3481.0976
21
10249.95
31
0
0
LINE
8
PIPES
6
CONTINUOUS
10
-2615.0722
20
9749.95
30
0
11
-1316.0341
21
10499.95
31
0
0
CIRCLE
8
TIE
10
-2615.0722
20
-9250.04
30
0
40
86.4
0
CIRCLE
8
TIE
10
-883.0127
20
-10250.045
30
0
40
86.4
0
CIRCLE
8
TIE
10
1715.0722
20
-8750.04
30
0
40
86.4
0
CIRCLE
8
TIE
10
-16.9873
20
-7750.035
30
0
40
86.4
0
CIRCLE
8
TIE
10
-2615.0722
20
-3250.05
30
0
40
86.4
0
CIRCLE
8
TIE
10
-883.0127
20
-4250.055
30
0
40
86.4
0
CIRCLE
8
TIE
10
1715.0722
20
-2750.05
30
0
40
86.4
0
CIRCLE
8
TIE
10
-16.9873
20
-1750.045
30
0
40
86.4
0
CIRCLE
8
TIE
10
-2615.0722
20
2749.95
30
0
40
86.4
0
CIRCLE
8
TIE
10
-883.0127
20
1749.945
30
0
40
86.4
0
CIRCLE
8
TIE
10
1715.0722
20
3249.95
30
0
40
86.4
0
CIRCLE
8
TIE
10
-16.9873
20
4249.955
30
0
40
86.4
0
CIRCLE
8
TIE
10
-2615.0722
20
8749.95
30
0
40
86.4
0
CIRCLE
8
TIE
10
-883.0127
20
7749.945
30
0
40
86.4
0
CIRCLE
8
TIE
10
1715.0722
20
9249.95
30
0
40
86.4
0
CIRCLE
8
TIE
10
-16.9873
20
10249.955
30
0
40
86.4
0
LINE
8
TIE
6
CONTINUOUS
10
-2615.0722
20
-9250.04
30
0
11
3997.123
21
-9250.04
31
0
0
LINE
8
TIE
6
CONTINUOUS
10
3997.123
20
-9250.04
30
0
11
3997.123
21
10429.955
31
0
0
LINE
8
TIE
6
CONTINUOUS
10
-883.0127
20
-10250.045
30
0
11
3997.123
21
-10250.045
31
0
0
LINE
8
TIE
6
CONTINUOUS
10
3997.123
20
-10250.045
30
0
11
3997.123
21
10429.955
31
0
0
LINE
8
TIE
6
CONTINUOUS
10
1715.0722
20
-8750.04
30
0
11
3997.123
21
-8750.04
31
0
0
LINE
8
TIE
6
CONTINUOUS
10
3997.123
20
-8750.04
30
0
11
3997.123
21
10429.955
31
0
0
LINE
8
TIE
6
CONTINUOUS
10
-16.9873
20
-7750.035
30
0
11
3997.123
21
-7750.035
31
0
0
LINE
8
TIE
6
CONTINUOUS
10
3997.123
20
-7750.035
30
0
11
3997.123
21
10429.955
31
0
0
LINE
8
TIE
6
CONTINUOUS
10
-2615.0722
20
-3250.05
30
0
11
3997.123
21
-3250.05
31
0
0
LINE
8
TIE
6
CONTINUOUS
10
3997.123
20
-3250.05
30
0
11
3997.123
21
10429.955
31
0
0
LINE
8
TIE
6
CONTINUOUS
10
-883.0127
20
-4250.055
30
0
11
3997.123
21
-4250.055
31
0
0
LINE
8
TIE
6
CONTINUOUS
10
3997.123
20
-4250.055
30
0
11
3997.123
21
10429.955
31
0
0
LINE
8
TIE
6
CONTINUOUS
10
1715.0722
20
-2750.05
30
0
11
3997.123
21
-2750.05
31
0
0
LINE
8
TIE
6
CONTINUOUS
10
3997.123
20
-2750.05
30
0
11
3997.123
21
10429.955
31
0
0
LINE
8
TIE
6
CONTINUOUS
10
-16.9873
20
-1750.045
30
0
11
3997.123
21
-1750.045
31
0
0
LINE
8
TIE
6
CONTINUOUS
10
3997.123
20
-1750.045
30
0
11
3997.123
21
10429.955
31
0
0
LINE
8
TIE
6
CONTINUOUS
10
-2615.0722
20
2749.95
30
0
11
3997.123
21
2749.95
31
0
0
LINE
8
TIE
6
CONTINUOUS
10
3997.123
20
2749.95
30
0
11
3997.123
21
10429.955
31
0
0
LINE
8
TIE
6
CONTINUOUS
10
-883.0127
20
1749.945
30
0
11
3997.123
21
1749.945
31
0
0
LINE
8
TIE
6
CONTINUOUS
10
3997.123
20
1749.945
30
0
11
3997.123
21
10429.955
31
0
0
LINE
8
TIE
6
CONTINUOUS
10
1715.0722
20
3249.95
30
0
11
3997.123
21
3249.95
31
0
0
LINE
8
TIE
6
CONTINUOUS
10
3997.123
20
3249.95
30
0
11
3997.123
21
10429.955
31
0
0
LINE
8
TIE
6
CONTINUOUS
10
-16.9873
20
4249.955
30
0
11
3997.123
21
4249.955
31
0
0
LINE
8
TIE
6
CONTINUOUS
10
3997.123
20
4249.955
30
0
11
3997.123
21
10429.955
31
0
0
LINE
8
TIE
6
CONTINUOUS
10
-2615.0722
20
8749.95
30
0
11
3997.123
21
8749.95
31
0
0
LINE
8
TIE
6
CONTINUOUS
10
3997.123
20
8749.95
30
0
11
3997.123
21
10429.955
31
0
0
LINE
8
TIE
6
CONTINUOUS
10
-883.0127
20
7749.945
30
0
11
3997.123
21
7749.945
31
0
0
LINE
8
TIE
6
CONTINUOUS
10
3997.123
20
7749.945
30
0
11
3997.123
21
10429.955
31
0
0
LINE
8
TIE
6
CONTINUOUS
10
1715.0722
20
9249.95
30
0
11
3997.123
21
9249.95
31
0
0
LINE
8
TIE
6
CONTINUOUS
10
3997.123
20
9249.95
30
0
11
3997.123
21
10429.955
31
0
0
LINE
8
TIE
6
CONTINUOUS
10
-16.9873
20
10249.955
30
0
11
3997.123
21
10249.955
31
0
0
LINE
8
TIE
6
CONTINUOUS
10
3997.123
20
10249.955
30
0
11
3997.123
21
10429.955
31
0
0
LINE
8
TIE
6
CONTINUOUS
10
3997.123
20
10429.955
30
0
11
4267.123
21
10429.955
31
0
0
TEXT
8
TIE
10
4347.123
20
10429.955
30
0
40
70
1
Tie points to
50
0
0
TEXT
8
TIE
10
4347.123
20
10299.955
30
0
40
70
1
existing structures
50
0
0
TEXT
8
TIE
10
4347.123
20
10169.955
30
0
40
70
1
at indicated points.
50
0
0
ENDSEC
0
EOF
