0
SECTION
2
HEADER
9
$ACADVER
1
AC1009
9
$INSUNITS
70
4
9
$MEASUREMENT
70
1
9
$LUNITS
70
2
9
$LUPREC
70
1
9
$TILEMODE
70
1
9
$EXTMIN
10
-1558.845727
20
-2650.005
30
0
9
$EXTMAX
10
1558.845727
20
2650.005
30
0
9
$PEXTMIN
10
-1558.845727
20
-2650.005
30
0
9
$PEXTMAX
10
1558.845727
20
2650.005
30
0
9
$LIMMIN
10
-2058.845727
20
-3150.005
9
$LIMMAX
10
2058.845727
20
3150.005
9
$PLIMMIN
10
-2058.845727
20
-3150.005
9
$PLIMMAX
10
2058.845727
20
3150.005
0
ENDSEC
0
SECTION
2
TABLES
0
TABLE
2
VPORT
70
1
0
VPORT
2
*ACTIVE
70
0
10
0
20
0
11
1
21
1
12
0
22
0
40
6300.01
41
0.653601
42
50
43
0
44
0
50
0
51
0
71
0
72
100
73
1
74
3
75
0
76
0
77
0
78
0
0
ENDTAB
0
TABLE
2
LTYPE
70
2
0
LTYPE
2
CONTINUOUS
70
0
3
Solid line
72
65
73
0
40
0
0
LTYPE
2
DASHED
70
0
3
Dashed
72
65
73
2
40
240
49
120
74
0
49
-120
74
0
0
ENDTAB
0
TABLE
2
LAYER
70
6
0
LAYER
2
PIPES
70
0
62
5
6
CONTINUOUS
0
LAYER
2
PIPE_ENDS
70
0
62
5
6
CONTINUOUS
0
LAYER
2
DIMENSION
70
0
62
1
6
CONTINUOUS
0
LAYER
2
LEVEL_GUIDE
70
0
62
1
6
DASHED
0
LAYER
2
LEVEL_TEXT
70
0
62
1
6
CONTINUOUS
0
LAYER
2
FRAME
70
0
62
5
6
CONTINUOUS
0
ENDTAB
0
TABLE
2
STYLE
70
1
0
STYLE
2
STANDARD
70
0
40
0
41
1
50
0
71
0
42
100
3
txt
4

0
ENDTAB
0
ENDSEC
0
SECTION
2
BLOCKS
0
BLOCK
8
0
2
$MODEL_SPACE
70
0
10
0
20
0
30
0
3
$MODEL_SPACE
0
ENDBLK
8
0
0
BLOCK
67
1
8
0
2
$PAPER_SPACE
70
0
10
0
20
0
30
0
3
$PAPER_SPACE
0
ENDBLK
67
1
8
0
0
ENDSEC
0
SECTION
2
ENTITIES
0
LINE
8
PIPES
10
0
20
-2650.005
30
0
11
0
21
-2350.004
31
0
0
LINE
8
PIPES
10
1558.845727
20
-1750.005
30
0
11
1558.845727
21
-1450.004
31
0
0
LINE
8
PIPES
10
0
20
-850.005
30
0
11
0
21
-550.004
31
0
0
LINE
8
PIPES
10
-1558.845727
20
-1750.005
30
0
11
-1558.845727
21
-1450.004
31
0
0
LINE
8
PIPES
10
1558.845727
20
-1450.004
30
0
11
0
21
-550.004
31
0
0
LINE
8
PIPES
10
-1558.845727
20
-1450.004
30
0
11
0
21
-2350.004
31
0
0
LINE
8
PIPES
10
0
20
-2350.004
30
0
11
0
21
-900.005
31
0
0
LINE
8
PIPES
10
1558.845727
20
-1450.004
30
0
11
1558.845727
21
-0.005
31
0
0
LINE
8
PIPES
10
0
20
-550.004
30
0
11
0
21
899.995
31
0
0
LINE
8
PIPES
10
-1558.845727
20
-1450.004
30
0
11
-1558.845727
21
-0.005
31
0
0
LINE
8
PIPES
10
1558.845727
20
-0.005
30
0
11
389.711432
21
674.995
31
0
0
LINE
8
PIPES
10
-1558.845727
20
-0.005
30
0
11
-389.712298
21
-675.0045
31
0
0
LINE
8
PIPES
10
0
20
-900.005
30
0
11
0
21
550.005
31
0
0
LINE
8
PIPES
10
1558.845727
20
-0.005
30
0
11
1558.845727
21
1450.005
31
0
0
LINE
8
PIPES
10
0
20
899.995
30
0
11
0
21
2350.005
31
0
0
LINE
8
PIPES
10
-1558.845727
20
-0.005
30
0
11
-1558.845727
21
1450.005
31
0
0
LINE
8
PIPES
10
0
20
550.005
30
0
11
779.424595
21
1000.006
31
0
0
LINE
8
PIPES
10
779.424595
20
1000.006
30
0
11
1558.845727
21
1450.005
31
0
0
LINE
8
PIPES
10
1558.845727
20
1450.005
30
0
11
0
21
2350.005
31
0
0
LINE
8
PIPES
10
0
20
2350.005
30
0
11
-779.421131
21
1900.006
31
0
0
LINE
8
PIPES
10
-779.421131
20
1900.006
30
0
11
-1558.845727
21
1450.005
31
0
0
LINE
8
PIPES
10
-1558.845727
20
1450.005
30
0
11
0
21
550.005
31
0
0
LINE
8
PIPES
10
779.424595
20
1000.006
30
0
11
519.616108
21
1150.0065
31
0
0
LINE
8
PIPES
10
0
20
1450.007
30
0
11
-259.805889
21
1600.006
31
0
0
LINE
8
PIPES
10
0
20
550.005
30
0
11
0
21
850.005
31
0
0
LINE
8
PIPES
10
779.424595
20
1000.006
30
0
11
779.424595
21
1300.006
31
0
0
LINE
8
PIPES
10
1558.845727
20
1450.005
30
0
11
1558.845727
21
1750.005
31
0
0
LINE
8
PIPES
10
0
20
2350.005
30
0
11
0
21
2650.005
31
0
0
LINE
8
PIPES
10
-779.421131
20
1900.006
30
0
11
-779.421131
21
2200.006
31
0
0
LINE
8
PIPES
10
-1558.845727
20
1450.005
30
0
11
-1558.845727
21
1750.005
31
0
0
LINE
8
PIPES
10
0
20
1450.007
30
0
11
0
21
1750.007
31
0
0
LINE
8
PIPES
10
0
20
850.005
30
0
11
779.424595
21
1300.006
31
0
0
LINE
8
PIPES
10
779.424595
20
1300.006
30
0
11
1558.845727
21
1750.005
31
0
0
LINE
8
PIPES
10
1558.845727
20
1750.005
30
0
11
0
21
2650.005
31
0
0
LINE
8
PIPES
10
0
20
2650.005
30
0
11
-779.421131
21
2200.006
31
0
0
LINE
8
PIPES
10
-779.421131
20
2200.006
30
0
11
-1558.845727
21
1750.005
31
0
0
LINE
8
PIPES
10
-1558.845727
20
1750.005
30
0
11
0
21
850.005
31
0
0
LINE
8
PIPES
10
779.424595
20
1300.006
30
0
11
519.616108
21
1450.0065
31
0
0
LINE
8
PIPES
10
0
20
1750.007
30
0
11
-259.805889
21
1900.006
31
0
0
LINE
8
PIPES
10
-519.61351
20
1750.006
30
0
11
-779.421131
21
1900.006
31
0
0
LINE
8
PIPES
10
-519.61351
20
2050.006
30
0
11
-779.421131
21
2200.006
31
0
0
LINE
8
PIPES
10
-519.61351
20
1750.006
30
0
11
-519.61351
21
2050.006
31
0
0
LINE
8
PIPES
10
-259.805889
20
1600.006
30
0
11
-519.61351
21
1750.006
31
0
0
LINE
8
PIPES
10
-259.805889
20
1900.006
30
0
11
-389.7097
21
1975.006
31
0
0
LINE
8
PIPES
10
-259.805889
20
1600.006
30
0
11
-259.805889
21
1900.006
31
0
0
LINE
8
PIPES
10
259.808487
20
1300.0065
30
0
11
0
21
1450.007
31
0
0
LINE
8
PIPES
10
259.808487
20
1600.0065
30
0
11
0
21
1750.007
31
0
0
LINE
8
PIPES
10
259.808487
20
1300.0065
30
0
11
259.808487
21
1600.0065
31
0
0
LINE
8
PIPES
10
519.616108
20
1150.0065
30
0
11
259.808487
21
1300.0065
31
0
0
LINE
8
PIPES
10
519.616108
20
1450.0065
30
0
11
389.712298
21
1525.0065
31
0
0
LINE
8
PIPES
10
519.616108
20
1150.0065
30
0
11
519.616108
21
1450.0065
31
0
0
LINE
8
PIPES
10
-389.7097
20
1975.006
30
0
11
-519.61351
21
2050.006
31
0
0
LINE
8
PIPES
10
389.712298
20
1525.0065
30
0
11
259.808487
21
1600.0065
31
0
0
LINE
8
PIPES
10
-389.712298
20
-675.0045
30
0
11
0
21
-900.005
31
0
0
LINE
8
PIPES
10
389.711432
20
674.995
30
0
11
0
21
899.995
31
0
0
LINE
8
PIPES
10
389.711432
20
674.995
30
0
11
-389.7097
21
1975.006
31
0
0
LINE
8
PIPES
10
-389.712298
20
-675.0045
30
0
11
389.712298
21
1525.0065
31
0
0
LINE
8
PIPES
10
0
20
-900.005
30
0
11
1558.845727
21
-0.005
31
0
0
LINE
8
PIPES
10
0
20
-2350.004
30
0
11
1558.845727
21
-1450.004
31
0
0
LINE
8
PIPES
10
1558.845727
20
1450.005
30
0
11
0
21
-2350.004
31
0
0
LINE
8
PIPES
10
0
20
550.005
30
0
11
-1558.845727
21
-1450.004
31
0
0
LINE
8
PIPES
10
0
20
2350.005
30
0
11
1558.845727
21
-1450.004
31
0
0
ENDSEC
0
EOF
