0
SECTION
2
HEADER
9
$ACADVER
1
AC1009
9
$INSUNITS
70
4
0
ENDSEC
0
SECTION
2
TABLES
0
TABLE
2
LTYPE
70
2
0
LTYPE
2
CONTINUOUS
70
0
3
Solid
72
65
73
0
40
0
0
LTYPE
2
DASHED
70
0
3
Dashed
72
65
73
2
40
240
49
120
74
0
49
-120
74
0
0
ENDTAB
0
TABLE
2
LAYER
70
5
0
LAYER
2
PIPES
70
0
62
1
6
CONTINUOUS
0
LAYER
2
GRIDLINE
70
0
62
5
6
DASHED
0
LAYER
2
DIMENSION
70
0
62
5
6
CONTINUOUS
0
LAYER
2
BUBBLE
70
0
62
1
6
CONTINUOUS
0
LAYER
2
TIE
70
0
62
6
6
CONTINUOUS
0
ENDTAB
0
ENDSEC
0
SECTION
2
ENTITIES

0
LINE
8
PIPES
6
CONTINUOUS
10
-7905
20
-15020
30
0
11
-7905
21
-14719.999
31
0
0
LINE
8
PIPES
6
CONTINUOUS
10
-6905
20
-15020
30
0
11
-6905
21
-14719.999
31
0
0
LINE
8
PIPES
6
CONTINUOUS
10
-5905
20
-15020
30
0
11
-5905
21
-14719.999
31
0
0
LINE
8
PIPES
6
CONTINUOUS
10
-4904.99
20
-15020
30
0
11
-4904.99
21
-14719.999
31
0
0
LINE
8
PIPES
6
CONTINUOUS
10
-3904.99
20
-15020
30
0
11
-3904.99
21
-14719.999
31
0
0
LINE
8
PIPES
6
CONTINUOUS
10
-7905
20
-14719.999
30
0
11
-6905
21
-14719.999
31
0
0
LINE
8
PIPES
6
CONTINUOUS
10
-6905
20
-14719.999
30
0
11
-5905
21
-14719.999
31
0
0
LINE
8
PIPES
6
CONTINUOUS
10
-5905
20
-14719.999
30
0
11
-4904.99
21
-14719.999
31
0
0
LINE
8
PIPES
6
CONTINUOUS
10
-4904.99
20
-14719.999
30
0
11
-3904.99
21
-14719.999
31
0
0
LINE
8
PIPES
6
CONTINUOUS
10
-7905
20
-14719.999
30
0
11
-7905
21
-13020
31
0
0
LINE
8
PIPES
6
CONTINUOUS
10
-6905
20
-14719.999
30
0
11
-6905
21
-13020
31
0
0
LINE
8
PIPES
6
CONTINUOUS
10
-5905
20
-14719.999
30
0
11
-5905
21
-13020
31
0
0
LINE
8
PIPES
6
CONTINUOUS
10
-4904.99
20
-14719.999
30
0
11
-4904.99
21
-13020
31
0
0
LINE
8
PIPES
6
CONTINUOUS
10
-3904.99
20
-14719.999
30
0
11
-3904.99
21
-13020
31
0
0
LINE
8
PIPES
6
CONTINUOUS
10
-7905
20
-13020
30
0
11
-6905
21
-13020
31
0
0
LINE
8
PIPES
6
CONTINUOUS
10
-6905
20
-13020
30
0
11
-5905
21
-13020
31
0
0
LINE
8
PIPES
6
CONTINUOUS
10
-5905
20
-13020
30
0
11
-4904.99
21
-13020
31
0
0
LINE
8
PIPES
6
CONTINUOUS
10
-4904.99
20
-13020
30
0
11
-3904.99
21
-13020
31
0
0
LINE
8
PIPES
6
CONTINUOUS
10
-7905
20
-13020
30
0
11
-7905
21
-11020
31
0
0
LINE
8
PIPES
6
CONTINUOUS
10
-6905
20
-13020
30
0
11
-6905
21
-11020
31
0
0
LINE
8
PIPES
6
CONTINUOUS
10
-5905
20
-13020
30
0
11
-5905
21
-11020
31
0
0
LINE
8
PIPES
6
CONTINUOUS
10
-4904.99
20
-13020
30
0
11
-4904.99
21
-11020
31
0
0
LINE
8
PIPES
6
CONTINUOUS
10
-3904.99
20
-13020
30
0
11
-3904.99
21
-11020
31
0
0
LINE
8
PIPES
6
CONTINUOUS
10
-7905
20
-11020
30
0
11
-6905
21
-11020
31
0
0
LINE
8
PIPES
6
CONTINUOUS
10
-6905
20
-11020
30
0
11
-5905
21
-11020
31
0
0
LINE
8
PIPES
6
CONTINUOUS
10
-5905
20
-11020
30
0
11
-4904.99
21
-11020
31
0
0
LINE
8
PIPES
6
CONTINUOUS
10
-4904.99
20
-11020
30
0
11
-3904.99
21
-11020
31
0
0
LINE
8
PIPES
6
CONTINUOUS
10
-7905
20
-11020
30
0
11
-7905
21
-9019.99
31
0
0
LINE
8
PIPES
6
CONTINUOUS
10
-6905
20
-11020
30
0
11
-6905
21
-9019.99
31
0
0
LINE
8
PIPES
6
CONTINUOUS
10
-5905
20
-11020
30
0
11
-5905
21
-9019.99
31
0
0
LINE
8
PIPES
6
CONTINUOUS
10
-4904.99
20
-11020
30
0
11
-4904.99
21
-9019.99
31
0
0
LINE
8
PIPES
6
CONTINUOUS
10
-3904.99
20
-11020
30
0
11
-3904.99
21
-9019.99
31
0
0
LINE
8
PIPES
6
CONTINUOUS
10
-7905
20
-9019.99
30
0
11
-6905
21
-9019.99
31
0
0
LINE
8
PIPES
6
CONTINUOUS
10
-6905
20
-9019.99
30
0
11
-5905
21
-9019.99
31
0
0
LINE
8
PIPES
6
CONTINUOUS
10
-5905
20
-9019.99
30
0
11
-4904.99
21
-9019.99
31
0
0
LINE
8
PIPES
6
CONTINUOUS
10
-4904.99
20
-9019.99
30
0
11
-3904.99
21
-9019.99
31
0
0
LINE
8
PIPES
6
CONTINUOUS
10
-7905
20
-9019.99
30
0
11
-7905
21
-8519.99
31
0
0
LINE
8
PIPES
6
CONTINUOUS
10
-6905
20
-9019.99
30
0
11
-6905
21
-8519.99
31
0
0
LINE
8
PIPES
6
CONTINUOUS
10
-5905
20
-9019.99
30
0
11
-5905
21
-8519.99
31
0
0
LINE
8
PIPES
6
CONTINUOUS
10
-4904.99
20
-9019.99
30
0
11
-4904.99
21
-8519.99
31
0
0
LINE
8
PIPES
6
CONTINUOUS
10
-3904.99
20
-9019.99
30
0
11
-3904.99
21
-8519.99
31
0
0
LINE
8
PIPES
6
CONTINUOUS
10
-7905
20
-7019.99
30
0
11
-6905
21
-7019.99
31
0
0
LINE
8
PIPES
6
CONTINUOUS
10
-6905
20
-7019.99
30
0
11
-5905
21
-7019.99
31
0
0
LINE
8
PIPES
6
CONTINUOUS
10
-5905
20
-7019.99
30
0
11
-4904.99
21
-7019.99
31
0
0
LINE
8
PIPES
6
CONTINUOUS
10
-4904.99
20
-7019.99
30
0
11
-3904.99
21
-7019.99
31
0
0
LINE
8
PIPES
6
CONTINUOUS
10
-7905
20
-7019.99
30
0
11
-7905
21
-5020
31
0
0
LINE
8
PIPES
6
CONTINUOUS
10
-6905
20
-7019.99
30
0
11
-6905
21
-5020
31
0
0
LINE
8
PIPES
6
CONTINUOUS
10
-5905
20
-7019.99
30
0
11
-5905
21
-5020
31
0
0
LINE
8
PIPES
6
CONTINUOUS
10
-4904.99
20
-7019.99
30
0
11
-4904.99
21
-5020
31
0
0
LINE
8
PIPES
6
CONTINUOUS
10
-3904.99
20
-7019.99
30
0
11
-3904.99
21
-5020
31
0
0
LINE
8
PIPES
6
CONTINUOUS
10
-7905
20
-5020
30
0
11
-6905
21
-5020
31
0
0
LINE
8
PIPES
6
CONTINUOUS
10
-6905
20
-5020
30
0
11
-5905
21
-5020
31
0
0
LINE
8
PIPES
6
CONTINUOUS
10
-5905
20
-5020
30
0
11
-4904.99
21
-5020
31
0
0
LINE
8
PIPES
6
CONTINUOUS
10
-4904.99
20
-5020
30
0
11
-3904.99
21
-5020
31
0
0
LINE
8
PIPES
6
CONTINUOUS
10
-7905
20
-5020
30
0
11
-7905
21
-3020
31
0
0
LINE
8
PIPES
6
CONTINUOUS
10
-6905
20
-5020
30
0
11
-6905
21
-3020
31
0
0
LINE
8
PIPES
6
CONTINUOUS
10
-5905
20
-5020
30
0
11
-5905
21
-3020
31
0
0
LINE
8
PIPES
6
CONTINUOUS
10
-4904.99
20
-5020
30
0
11
-4904.99
21
-3020
31
0
0
LINE
8
PIPES
6
CONTINUOUS
10
-3904.99
20
-5020
30
0
11
-3904.99
21
-3020
31
0
0
LINE
8
PIPES
6
CONTINUOUS
10
-7905
20
-3020
30
0
11
-6905
21
-3020
31
0
0
LINE
8
PIPES
6
CONTINUOUS
10
-6905
20
-3020
30
0
11
-5905
21
-3020
31
0
0
LINE
8
PIPES
6
CONTINUOUS
10
-5905
20
-3020
30
0
11
-4904.99
21
-3020
31
0
0
LINE
8
PIPES
6
CONTINUOUS
10
-4904.99
20
-3020
30
0
11
-3904.99
21
-3020
31
0
0
LINE
8
PIPES
6
CONTINUOUS
10
-7905
20
-3020
30
0
11
-7905
21
-2520
31
0
0
LINE
8
PIPES
6
CONTINUOUS
10
-6905
20
-3020
30
0
11
-6905
21
-2520
31
0
0
LINE
8
PIPES
6
CONTINUOUS
10
-5905
20
-3020
30
0
11
-5905
21
-2520
31
0
0
LINE
8
PIPES
6
CONTINUOUS
10
-4904.99
20
-3020
30
0
11
-4904.99
21
-2520
31
0
0
LINE
8
PIPES
6
CONTINUOUS
10
-3904.99
20
-3020
30
0
11
-3904.99
21
-2520
31
0
0
LINE
8
PIPES
6
CONTINUOUS
10
-7905
20
-1020
30
0
11
-6905
21
-1020
31
0
0
LINE
8
PIPES
6
CONTINUOUS
10
-6905
20
-1020
30
0
11
-5905
21
-1020
31
0
0
LINE
8
PIPES
6
CONTINUOUS
10
-5905
20
-1020
30
0
11
-4904.99
21
-1020
31
0
0
LINE
8
PIPES
6
CONTINUOUS
10
-4904.99
20
-1020
30
0
11
-3904.99
21
-1020
31
0
0
LINE
8
PIPES
6
CONTINUOUS
10
-7905
20
-1020
30
0
11
-7905
21
980
31
0
0
LINE
8
PIPES
6
CONTINUOUS
10
-6905
20
-1020
30
0
11
-6905
21
980
31
0
0
LINE
8
PIPES
6
CONTINUOUS
10
-5905
20
-1020
30
0
11
-5905
21
980
31
0
0
LINE
8
PIPES
6
CONTINUOUS
10
-4904.99
20
-1020
30
0
11
-4904.99
21
980
31
0
0
LINE
8
PIPES
6
CONTINUOUS
10
-3904.99
20
-1020
30
0
11
-3904.99
21
980
31
0
0
LINE
8
PIPES
6
CONTINUOUS
10
-7905
20
980
30
0
11
-6905
21
980
31
0
0
LINE
8
PIPES
6
CONTINUOUS
10
-6905
20
980
30
0
11
-5905
21
980
31
0
0
LINE
8
PIPES
6
CONTINUOUS
10
-5905
20
980
30
0
11
-4904.99
21
980
31
0
0
LINE
8
PIPES
6
CONTINUOUS
10
-4904.99
20
980
30
0
11
-3904.99
21
980
31
0
0
LINE
8
PIPES
6
CONTINUOUS
10
-7905
20
980
30
0
11
-7905
21
2980
31
0
0
LINE
8
PIPES
6
CONTINUOUS
10
-6905
20
980
30
0
11
-6905
21
2980
31
0
0
LINE
8
PIPES
6
CONTINUOUS
10
-5905
20
980
30
0
11
-5905
21
2980
31
0
0
LINE
8
PIPES
6
CONTINUOUS
10
-4904.99
20
980
30
0
11
-4904.99
21
2980
31
0
0
LINE
8
PIPES
6
CONTINUOUS
10
-3904.99
20
980
30
0
11
-3904.99
21
2980
31
0
0
LINE
8
PIPES
6
CONTINUOUS
10
-7905
20
2980
30
0
11
-6905
21
2980
31
0
0
LINE
8
PIPES
6
CONTINUOUS
10
-6905
20
2980
30
0
11
-5905
21
2980
31
0
0
LINE
8
PIPES
6
CONTINUOUS
10
-5905
20
2980
30
0
11
-4904.99
21
2980
31
0
0
LINE
8
PIPES
6
CONTINUOUS
10
-4904.99
20
2980
30
0
11
-3904.99
21
2980
31
0
0
LINE
8
PIPES
6
CONTINUOUS
10
-7905
20
2980
30
0
11
-7905
21
3480
31
0
0
LINE
8
PIPES
6
CONTINUOUS
10
-6905
20
2980
30
0
11
-6905
21
3480
31
0
0
LINE
8
PIPES
6
CONTINUOUS
10
-5905
20
2980
30
0
11
-5905
21
3480
31
0
0
LINE
8
PIPES
6
CONTINUOUS
10
-4904.99
20
2980
30
0
11
-4904.99
21
3480
31
0
0
LINE
8
PIPES
6
CONTINUOUS
10
-3904.99
20
2980
30
0
11
-3904.99
21
3480
31
0
0
LINE
8
PIPES
6
CONTINUOUS
10
-7905
20
4980
30
0
11
-6905
21
4980
31
0
0
LINE
8
PIPES
6
CONTINUOUS
10
-6905
20
4980
30
0
11
-5905
21
4980
31
0
0
LINE
8
PIPES
6
CONTINUOUS
10
-5905
20
4980
30
0
11
-4904.99
21
4980
31
0
0
LINE
8
PIPES
6
CONTINUOUS
10
-4904.99
20
4980
30
0
11
-3904.99
21
4980
31
0
0
LINE
8
PIPES
6
CONTINUOUS
10
-7905
20
4980
30
0
11
-7905
21
6980
31
0
0
LINE
8
PIPES
6
CONTINUOUS
10
-6905
20
4980
30
0
11
-6905
21
6980
31
0
0
LINE
8
PIPES
6
CONTINUOUS
10
-5905
20
4980
30
0
11
-5905
21
6980
31
0
0
LINE
8
PIPES
6
CONTINUOUS
10
-4904.99
20
4980
30
0
11
-4904.99
21
6980
31
0
0
LINE
8
PIPES
6
CONTINUOUS
10
-3904.99
20
4980
30
0
11
-3904.99
21
6980
31
0
0
LINE
8
PIPES
6
CONTINUOUS
10
-7905
20
6980
30
0
11
-6905
21
6980
31
0
0
LINE
8
PIPES
6
CONTINUOUS
10
-6905
20
6980
30
0
11
-5905
21
6980
31
0
0
LINE
8
PIPES
6
CONTINUOUS
10
-5905
20
6980
30
0
11
-4904.99
21
6980
31
0
0
LINE
8
PIPES
6
CONTINUOUS
10
-4904.99
20
6980
30
0
11
-3904.99
21
6980
31
0
0
LINE
8
PIPES
6
CONTINUOUS
10
-7905
20
6980
30
0
11
-7905
21
8980
31
0
0
LINE
8
PIPES
6
CONTINUOUS
10
-6905
20
6980
30
0
11
-6905
21
8980
31
0
0
LINE
8
PIPES
6
CONTINUOUS
10
-5905
20
6980
30
0
11
-5905
21
8980
31
0
0
LINE
8
PIPES
6
CONTINUOUS
10
-4904.99
20
6980
30
0
11
-4904.99
21
8980
31
0
0
LINE
8
PIPES
6
CONTINUOUS
10
-3904.99
20
6980
30
0
11
-3904.99
21
8980
31
0
0
LINE
8
PIPES
6
CONTINUOUS
10
-7905
20
8980
30
0
11
-6905
21
8980
31
0
0
LINE
8
PIPES
6
CONTINUOUS
10
-6905
20
8980
30
0
11
-5905
21
8980
31
0
0
LINE
8
PIPES
6
CONTINUOUS
10
-5905
20
8980
30
0
11
-4904.99
21
8980
31
0
0
LINE
8
PIPES
6
CONTINUOUS
10
-4904.99
20
8980
30
0
11
-3904.99
21
8980
31
0
0
LINE
8
PIPES
6
CONTINUOUS
10
-7905
20
8980
30
0
11
-7905
21
9480
31
0
0
LINE
8
PIPES
6
CONTINUOUS
10
-6905
20
8980
30
0
11
-6905
21
9480
31
0
0
LINE
8
PIPES
6
CONTINUOUS
10
-5905
20
8980
30
0
11
-5905
21
9480
31
0
0
LINE
8
PIPES
6
CONTINUOUS
10
-4904.99
20
8980
30
0
11
-4904.99
21
9480
31
0
0
LINE
8
PIPES
6
CONTINUOUS
10
-3904.99
20
8980
30
0
11
-3904.99
21
9480
31
0
0
LINE
8
PIPES
6
CONTINUOUS
10
-7905
20
10980
30
0
11
-6905
21
10980
31
0
0
LINE
8
PIPES
6
CONTINUOUS
10
-6905
20
10980
30
0
11
-5905
21
10980
31
0
0
LINE
8
PIPES
6
CONTINUOUS
10
-5905
20
10980
30
0
11
-4904.99
21
10980
31
0
0
LINE
8
PIPES
6
CONTINUOUS
10
-4904.99
20
10980
30
0
11
-3904.99
21
10980
31
0
0
LINE
8
PIPES
6
CONTINUOUS
10
-7905
20
10980
30
0
11
-7905
21
12980.1
31
0
0
LINE
8
PIPES
6
CONTINUOUS
10
-6905
20
10980
30
0
11
-6905
21
12980.1
31
0
0
LINE
8
PIPES
6
CONTINUOUS
10
-5905
20
10980
30
0
11
-5905
21
12980.1
31
0
0
LINE
8
PIPES
6
CONTINUOUS
10
-4904.99
20
10980
30
0
11
-4904.99
21
12980.1
31
0
0
LINE
8
PIPES
6
CONTINUOUS
10
-3904.99
20
10980
30
0
11
-3904.99
21
12980.1
31
0
0
LINE
8
PIPES
6
CONTINUOUS
10
-7905
20
12980.1
30
0
11
-6905
21
12980.1
31
0
0
LINE
8
PIPES
6
CONTINUOUS
10
-6905
20
12980.1
30
0
11
-5905
21
12980.1
31
0
0
LINE
8
PIPES
6
CONTINUOUS
10
-5905
20
12980.1
30
0
11
-4904.99
21
12980.1
31
0
0
LINE
8
PIPES
6
CONTINUOUS
10
-4904.99
20
12980.1
30
0
11
-3904.99
21
12980.1
31
0
0
LINE
8
PIPES
6
CONTINUOUS
10
-7905
20
12980.1
30
0
11
-7905
21
13980.1
31
0
0
LINE
8
PIPES
6
CONTINUOUS
10
-6905
20
12980.1
30
0
11
-6905
21
13980.1
31
0
0
LINE
8
PIPES
6
CONTINUOUS
10
-5905
20
12980.1
30
0
11
-5905
21
13980.1
31
0
0
LINE
8
PIPES
6
CONTINUOUS
10
-4904.99
20
12980.1
30
0
11
-4904.99
21
13980.1
31
0
0
LINE
8
PIPES
6
CONTINUOUS
10
-3904.99
20
12980.1
30
0
11
-3904.99
21
13980.1
31
0
0
LINE
8
PIPES
6
CONTINUOUS
10
-7905
20
13980.1
30
0
11
-6905
21
13980.1
31
0
0
LINE
8
PIPES
6
CONTINUOUS
10
-6905
20
13980.1
30
0
11
-5905
21
13980.1
31
0
0
LINE
8
PIPES
6
CONTINUOUS
10
-5905
20
13980.1
30
0
11
-4904.99
21
13980.1
31
0
0
LINE
8
PIPES
6
CONTINUOUS
10
-4904.99
20
13980.1
30
0
11
-3904.99
21
13980.1
31
0
0
LINE
8
PIPES
6
CONTINUOUS
10
-7905
20
-13020
30
0
11
-6905
21
-14719.999
31
0
0
LINE
8
PIPES
6
CONTINUOUS
10
-6905
20
-13020
30
0
11
-5905
21
-14719.999
31
0
0
LINE
8
PIPES
6
CONTINUOUS
10
-5905
20
-13020
30
0
11
-4904.99
21
-14719.999
31
0
0
LINE
8
PIPES
6
CONTINUOUS
10
-4904.99
20
-13020
30
0
11
-3904.99
21
-14719.999
31
0
0
LINE
8
PIPES
6
CONTINUOUS
10
-7905
20
-11020
30
0
11
-6905
21
-13020
31
0
0
LINE
8
PIPES
6
CONTINUOUS
10
-6905
20
-11020
30
0
11
-5905
21
-13020
31
0
0
LINE
8
PIPES
6
CONTINUOUS
10
-5905
20
-11020
30
0
11
-4904.99
21
-13020
31
0
0
LINE
8
PIPES
6
CONTINUOUS
10
-4904.99
20
-11020
30
0
11
-3904.99
21
-13020
31
0
0
LINE
8
PIPES
6
CONTINUOUS
10
-7905
20
-9019.99
30
0
11
-6905
21
-11020
31
0
0
LINE
8
PIPES
6
CONTINUOUS
10
-6905
20
-9019.99
30
0
11
-5905
21
-11020
31
0
0
LINE
8
PIPES
6
CONTINUOUS
10
-5905
20
-9019.99
30
0
11
-4904.99
21
-11020
31
0
0
LINE
8
PIPES
6
CONTINUOUS
10
-4904.99
20
-9019.99
30
0
11
-3904.99
21
-11020
31
0
0
LINE
8
PIPES
6
CONTINUOUS
10
-7905
20
-7019.99
30
0
11
-6905
21
-9019.99
31
0
0
LINE
8
PIPES
6
CONTINUOUS
10
-6905
20
-7019.99
30
0
11
-5905
21
-9019.99
31
0
0
LINE
8
PIPES
6
CONTINUOUS
10
-5905
20
-7019.99
30
0
11
-4904.99
21
-9019.99
31
0
0
LINE
8
PIPES
6
CONTINUOUS
10
-4904.99
20
-7019.99
30
0
11
-3904.99
21
-9019.99
31
0
0
LINE
8
PIPES
6
CONTINUOUS
10
-7905
20
-5020
30
0
11
-6905
21
-7019.99
31
0
0
LINE
8
PIPES
6
CONTINUOUS
10
-6905
20
-5020
30
0
11
-5905
21
-7019.99
31
0
0
LINE
8
PIPES
6
CONTINUOUS
10
-5905
20
-5020
30
0
11
-4904.99
21
-7019.99
31
0
0
LINE
8
PIPES
6
CONTINUOUS
10
-4904.99
20
-5020
30
0
11
-3904.99
21
-7019.99
31
0
0
LINE
8
PIPES
6
CONTINUOUS
10
-7905
20
-3020
30
0
11
-6905
21
-5020
31
0
0
LINE
8
PIPES
6
CONTINUOUS
10
-6905
20
-3020
30
0
11
-5905
21
-5020
31
0
0
LINE
8
PIPES
6
CONTINUOUS
10
-5905
20
-3020
30
0
11
-4904.99
21
-5020
31
0
0
LINE
8
PIPES
6
CONTINUOUS
10
-4904.99
20
-3020
30
0
11
-3904.99
21
-5020
31
0
0
LINE
8
PIPES
6
CONTINUOUS
10
-7905
20
-1020
30
0
11
-6905
21
-3020
31
0
0
LINE
8
PIPES
6
CONTINUOUS
10
-6905
20
-1020
30
0
11
-5905
21
-3020
31
0
0
LINE
8
PIPES
6
CONTINUOUS
10
-5905
20
-1020
30
0
11
-4904.99
21
-3020
31
0
0
LINE
8
PIPES
6
CONTINUOUS
10
-4904.99
20
-1020
30
0
11
-3904.99
21
-3020
31
0
0
LINE
8
PIPES
6
CONTINUOUS
10
-7905
20
980
30
0
11
-6905
21
-1020
31
0
0
LINE
8
PIPES
6
CONTINUOUS
10
-6905
20
980
30
0
11
-5905
21
-1020
31
0
0
LINE
8
PIPES
6
CONTINUOUS
10
-5905
20
980
30
0
11
-4904.99
21
-1020
31
0
0
LINE
8
PIPES
6
CONTINUOUS
10
-4904.99
20
980
30
0
11
-3904.99
21
-1020
31
0
0
LINE
8
PIPES
6
CONTINUOUS
10
-7905
20
2980
30
0
11
-6905
21
980
31
0
0
LINE
8
PIPES
6
CONTINUOUS
10
-6905
20
2980
30
0
11
-5905
21
980
31
0
0
LINE
8
PIPES
6
CONTINUOUS
10
-5905
20
2980
30
0
11
-4904.99
21
980
31
0
0
LINE
8
PIPES
6
CONTINUOUS
10
-4904.99
20
2980
30
0
11
-3904.99
21
980
31
0
0
LINE
8
PIPES
6
CONTINUOUS
10
-7905
20
4980
30
0
11
-6905
21
2980
31
0
0
LINE
8
PIPES
6
CONTINUOUS
10
-6905
20
4980
30
0
11
-5905
21
2980
31
0
0
LINE
8
PIPES
6
CONTINUOUS
10
-5905
20
4980
30
0
11
-4904.99
21
2980
31
0
0
LINE
8
PIPES
6
CONTINUOUS
10
-4904.99
20
4980
30
0
11
-3904.99
21
2980
31
0
0
LINE
8
PIPES
6
CONTINUOUS
10
-7905
20
6980
30
0
11
-6905
21
4980
31
0
0
LINE
8
PIPES
6
CONTINUOUS
10
-6905
20
6980
30
0
11
-5905
21
4980
31
0
0
LINE
8
PIPES
6
CONTINUOUS
10
-5905
20
6980
30
0
11
-4904.99
21
4980
31
0
0
LINE
8
PIPES
6
CONTINUOUS
10
-4904.99
20
6980
30
0
11
-3904.99
21
4980
31
0
0
LINE
8
PIPES
6
CONTINUOUS
10
-7905
20
8980
30
0
11
-6905
21
6980
31
0
0
LINE
8
PIPES
6
CONTINUOUS
10
-6905
20
8980
30
0
11
-5905
21
6980
31
0
0
LINE
8
PIPES
6
CONTINUOUS
10
-5905
20
8980
30
0
11
-4904.99
21
6980
31
0
0
LINE
8
PIPES
6
CONTINUOUS
10
-4904.99
20
8980
30
0
11
-3904.99
21
6980
31
0
0
LINE
8
PIPES
6
CONTINUOUS
10
-7905
20
10980
30
0
11
-6905
21
8980
31
0
0
LINE
8
PIPES
6
CONTINUOUS
10
-6905
20
10980
30
0
11
-5905
21
8980
31
0
0
LINE
8
PIPES
6
CONTINUOUS
10
-5905
20
10980
30
0
11
-4904.99
21
8980
31
0
0
LINE
8
PIPES
6
CONTINUOUS
10
-4904.99
20
10980
30
0
11
-3904.99
21
8980
31
0
0
LINE
8
PIPES
6
CONTINUOUS
10
-7905
20
12980.1
30
0
11
-6905
21
10980
31
0
0
LINE
8
PIPES
6
CONTINUOUS
10
-6905
20
12980.1
30
0
11
-5905
21
10980
31
0
0
LINE
8
PIPES
6
CONTINUOUS
10
-5905
20
12980.1
30
0
11
-4904.99
21
10980
31
0
0
LINE
8
PIPES
6
CONTINUOUS
10
-4904.99
20
12980.1
30
0
11
-3904.99
21
10980
31
0
0
LINE
8
PIPES
6
CONTINUOUS
10
-7905
20
13980.1
30
0
11
-6905
21
12980.1
31
0
0
LINE
8
PIPES
6
CONTINUOUS
10
-6905
20
13980.1
30
0
11
-5905
21
12980.1
31
0
0
LINE
8
PIPES
6
CONTINUOUS
10
-5905
20
13980.1
30
0
11
-4904.99
21
12980.1
31
0
0
LINE
8
PIPES
6
CONTINUOUS
10
-4904.99
20
13980.1
30
0
11
-3904.99
21
12980.1
31
0
0
LINE
8
PIPES
6
CONTINUOUS
10
-7905
20
13980.1
30
0
11
-7905
21
14480.1
31
0
0
LINE
8
PIPES
6
CONTINUOUS
10
-6905
20
13980.1
30
0
11
-6905
21
14480.1
31
0
0
LINE
8
PIPES
6
CONTINUOUS
10
-5905
20
13980.1
30
0
11
-5905
21
14480.1
31
0
0
LINE
8
PIPES
6
CONTINUOUS
10
-4904.99
20
13980.1
30
0
11
-4904.99
21
14480.1
31
0
0
LINE
8
PIPES
6
CONTINUOUS
10
-3904.99
20
13980.1
30
0
11
-3904.99
21
14480.1
31
0
0
LINE
8
PIPES
6
CONTINUOUS
10
-7905
20
14480.1
30
0
11
-6905
21
14480.1
31
0
0
LINE
8
PIPES
6
CONTINUOUS
10
-6905
20
14480.1
30
0
11
-5905
21
14480.1
31
0
0
LINE
8
PIPES
6
CONTINUOUS
10
-5905
20
14480.1
30
0
11
-4904.99
21
14480.1
31
0
0
LINE
8
PIPES
6
CONTINUOUS
10
-4904.99
20
14480.1
30
0
11
-3904.99
21
14480.1
31
0
0
LINE
8
PIPES
6
CONTINUOUS
10
-7905
20
14480.1
30
0
11
-7905
21
14980.1
31
0
0
LINE
8
PIPES
6
CONTINUOUS
10
-6905
20
14480.1
30
0
11
-6905
21
14980.1
31
0
0
LINE
8
PIPES
6
CONTINUOUS
10
-5905
20
14480.1
30
0
11
-5905
21
14980.1
31
0
0
LINE
8
PIPES
6
CONTINUOUS
10
-4904.99
20
14480.1
30
0
11
-4904.99
21
14980.1
31
0
0
LINE
8
PIPES
6
CONTINUOUS
10
-3904.99
20
14480.1
30
0
11
-3904.99
21
14980.1
31
0
0
LINE
8
PIPES
6
CONTINUOUS
10
-7905
20
14980.1
30
0
11
-6905
21
14980.1
31
0
0
LINE
8
PIPES
6
CONTINUOUS
10
-6905
20
14980.1
30
0
11
-5905
21
14980.1
31
0
0
LINE
8
PIPES
6
CONTINUOUS
10
-5905
20
14980.1
30
0
11
-4904.99
21
14980.1
31
0
0
LINE
8
PIPES
6
CONTINUOUS
10
-4904.99
20
14980.1
30
0
11
-3904.99
21
14980.1
31
0
0
LINE
8
PIPES
6
CONTINUOUS
10
-7905
20
-8519.99
30
0
11
-7905
21
-8019.99
31
0
0
LINE
8
PIPES
6
CONTINUOUS
10
-6905
20
-8519.99
30
0
11
-6905
21
-8019.99
31
0
0
LINE
8
PIPES
6
CONTINUOUS
10
-5905
20
-8519.99
30
0
11
-5905
21
-8019.99
31
0
0
LINE
8
PIPES
6
CONTINUOUS
10
-4904.99
20
-8519.99
30
0
11
-4904.99
21
-8019.99
31
0
0
LINE
8
PIPES
6
CONTINUOUS
10
-3904.99
20
-8519.99
30
0
11
-3904.99
21
-8019.99
31
0
0
LINE
8
PIPES
6
CONTINUOUS
10
-7905
20
-2520
30
0
11
-7905
21
-2020
31
0
0
LINE
8
PIPES
6
CONTINUOUS
10
-6905
20
-2520
30
0
11
-6905
21
-2020
31
0
0
LINE
8
PIPES
6
CONTINUOUS
10
-5905
20
-2520
30
0
11
-5905
21
-2020
31
0
0
LINE
8
PIPES
6
CONTINUOUS
10
-4904.99
20
-2520
30
0
11
-4904.99
21
-2020
31
0
0
LINE
8
PIPES
6
CONTINUOUS
10
-3904.99
20
-2520
30
0
11
-3904.99
21
-2020
31
0
0
LINE
8
PIPES
6
CONTINUOUS
10
-7905
20
3480
30
0
11
-7905
21
3980
31
0
0
LINE
8
PIPES
6
CONTINUOUS
10
-6905
20
3480
30
0
11
-6905
21
3980
31
0
0
LINE
8
PIPES
6
CONTINUOUS
10
-5905
20
3480
30
0
11
-5905
21
3980
31
0
0
LINE
8
PIPES
6
CONTINUOUS
10
-4904.99
20
3480
30
0
11
-4904.99
21
3980
31
0
0
LINE
8
PIPES
6
CONTINUOUS
10
-3904.99
20
3480
30
0
11
-3904.99
21
3980
31
0
0
LINE
8
PIPES
6
CONTINUOUS
10
-7905
20
9480
30
0
11
-7905
21
9980
31
0
0
LINE
8
PIPES
6
CONTINUOUS
10
-6905
20
9480
30
0
11
-6905
21
9980
31
0
0
LINE
8
PIPES
6
CONTINUOUS
10
-5905
20
9480
30
0
11
-5905
21
9980
31
0
0
LINE
8
PIPES
6
CONTINUOUS
10
-4904.99
20
9480
30
0
11
-4904.99
21
9980
31
0
0
LINE
8
PIPES
6
CONTINUOUS
10
-3904.99
20
9480
30
0
11
-3904.99
21
9980
31
0
0
LINE
8
PIPES
6
CONTINUOUS
10
-7905
20
-8519.99
30
0
11
-6905
21
-8519.99
31
0
0
LINE
8
PIPES
6
CONTINUOUS
10
-6905
20
-8519.99
30
0
11
-5905
21
-8519.99
31
0
0
LINE
8
PIPES
6
CONTINUOUS
10
-5905
20
-8519.99
30
0
11
-4904.99
21
-8519.99
31
0
0
LINE
8
PIPES
6
CONTINUOUS
10
-4904.99
20
-8519.99
30
0
11
-3904.99
21
-8519.99
31
0
0
LINE
8
PIPES
6
CONTINUOUS
10
-7905
20
-2520
30
0
11
-6905
21
-2520
31
0
0
LINE
8
PIPES
6
CONTINUOUS
10
-6905
20
-2520
30
0
11
-5905
21
-2520
31
0
0
LINE
8
PIPES
6
CONTINUOUS
10
-5905
20
-2520
30
0
11
-4904.99
21
-2520
31
0
0
LINE
8
PIPES
6
CONTINUOUS
10
-4904.99
20
-2520
30
0
11
-3904.99
21
-2520
31
0
0
LINE
8
PIPES
6
CONTINUOUS
10
-7905
20
3480
30
0
11
-6905
21
3480
31
0
0
LINE
8
PIPES
6
CONTINUOUS
10
-6905
20
3480
30
0
11
-5905
21
3480
31
0
0
LINE
8
PIPES
6
CONTINUOUS
10
-5905
20
3480
30
0
11
-4904.99
21
3480
31
0
0
LINE
8
PIPES
6
CONTINUOUS
10
-4904.99
20
3480
30
0
11
-3904.99
21
3480
31
0
0
LINE
8
PIPES
6
CONTINUOUS
10
-7905
20
9480
30
0
11
-6905
21
9480
31
0
0
LINE
8
PIPES
6
CONTINUOUS
10
-6905
20
9480
30
0
11
-5905
21
9480
31
0
0
LINE
8
PIPES
6
CONTINUOUS
10
-5905
20
9480
30
0
11
-4904.99
21
9480
31
0
0
LINE
8
PIPES
6
CONTINUOUS
10
-4904.99
20
9480
30
0
11
-3904.99
21
9480
31
0
0
LINE
8
PIPES
6
CONTINUOUS
10
-7905
20
-8019.99
30
0
11
-7905
21
-7019.99
31
0
0
LINE
8
PIPES
6
CONTINUOUS
10
-6905
20
-8019.99
30
0
11
-6905
21
-7019.99
31
0
0
LINE
8
PIPES
6
CONTINUOUS
10
-5905
20
-8019.99
30
0
11
-5905
21
-7019.99
31
0
0
LINE
8
PIPES
6
CONTINUOUS
10
-4904.99
20
-8019.99
30
0
11
-4904.99
21
-7019.99
31
0
0
LINE
8
PIPES
6
CONTINUOUS
10
-3904.99
20
-8019.99
30
0
11
-3904.99
21
-7019.99
31
0
0
LINE
8
PIPES
6
CONTINUOUS
10
-7905
20
-2020
30
0
11
-7905
21
-1020
31
0
0
LINE
8
PIPES
6
CONTINUOUS
10
-6905
20
-2020
30
0
11
-6905
21
-1020
31
0
0
LINE
8
PIPES
6
CONTINUOUS
10
-5905
20
-2020
30
0
11
-5905
21
-1020
31
0
0
LINE
8
PIPES
6
CONTINUOUS
10
-4904.99
20
-2020
30
0
11
-4904.99
21
-1020
31
0
0
LINE
8
PIPES
6
CONTINUOUS
10
-3904.99
20
-2020
30
0
11
-3904.99
21
-1020
31
0
0
LINE
8
PIPES
6
CONTINUOUS
10
-7905
20
3980
30
0
11
-7905
21
4980
31
0
0
LINE
8
PIPES
6
CONTINUOUS
10
-6905
20
3980
30
0
11
-6905
21
4980
31
0
0
LINE
8
PIPES
6
CONTINUOUS
10
-5905
20
3980
30
0
11
-5905
21
4980
31
0
0
LINE
8
PIPES
6
CONTINUOUS
10
-4904.99
20
3980
30
0
11
-4904.99
21
4980
31
0
0
LINE
8
PIPES
6
CONTINUOUS
10
-3904.99
20
3980
30
0
11
-3904.99
21
4980
31
0
0
LINE
8
PIPES
6
CONTINUOUS
10
-7905
20
9980
30
0
11
-7905
21
10980
31
0
0
LINE
8
PIPES
6
CONTINUOUS
10
-6905
20
9980
30
0
11
-6905
21
10980
31
0
0
LINE
8
PIPES
6
CONTINUOUS
10
-5905
20
9980
30
0
11
-5905
21
10980
31
0
0
LINE
8
PIPES
6
CONTINUOUS
10
-4904.99
20
9980
30
0
11
-4904.99
21
10980
31
0
0
LINE
8
PIPES
6
CONTINUOUS
10
-3904.99
20
9980
30
0
11
-3904.99
21
10980
31
0
0
LINE
8
PIPES
6
CONTINUOUS
10
-7905
20
-8019.99
30
0
11
-6905
21
-8019.99
31
0
0
LINE
8
PIPES
6
CONTINUOUS
10
-6905
20
-8019.99
30
0
11
-5905
21
-8019.99
31
0
0
LINE
8
PIPES
6
CONTINUOUS
10
-5905
20
-8019.99
30
0
11
-4904.99
21
-8019.99
31
0
0
LINE
8
PIPES
6
CONTINUOUS
10
-4904.99
20
-8019.99
30
0
11
-3904.99
21
-8019.99
31
0
0
LINE
8
PIPES
6
CONTINUOUS
10
-7905
20
-2020
30
0
11
-6905
21
-2020
31
0
0
LINE
8
PIPES
6
CONTINUOUS
10
-6905
20
-2020
30
0
11
-5905
21
-2020
31
0
0
LINE
8
PIPES
6
CONTINUOUS
10
-5905
20
-2020
30
0
11
-4904.99
21
-2020
31
0
0
LINE
8
PIPES
6
CONTINUOUS
10
-4904.99
20
-2020
30
0
11
-3904.99
21
-2020
31
0
0
LINE
8
PIPES
6
CONTINUOUS
10
-7905
20
3980
30
0
11
-6905
21
3980
31
0
0
LINE
8
PIPES
6
CONTINUOUS
10
-6905
20
3980
30
0
11
-5905
21
3980
31
0
0
LINE
8
PIPES
6
CONTINUOUS
10
-5905
20
3980
30
0
11
-4904.99
21
3980
31
0
0
LINE
8
PIPES
6
CONTINUOUS
10
-4904.99
20
3980
30
0
11
-3904.99
21
3980
31
0
0
LINE
8
PIPES
6
CONTINUOUS
10
-7905
20
9980
30
0
11
-6905
21
9980
31
0
0
LINE
8
PIPES
6
CONTINUOUS
10
-6905
20
9980
30
0
11
-5905
21
9980
31
0
0
LINE
8
PIPES
6
CONTINUOUS
10
-5905
20
9980
30
0
11
-4904.99
21
9980
31
0
0
LINE
8
PIPES
6
CONTINUOUS
10
-4904.99
20
9980
30
0
11
-3904.99
21
9980
31
0
0
CIRCLE
8
BUBBLE
10
-7905
20
15320
30
0
40
120
0
TEXT
8
BUBBLE
10
-7905
20
15320
30
0
40
90
1
1
50
0
0
CIRCLE
8
BUBBLE
10
-6905
20
15320
30
0
40
120
0
TEXT
8
BUBBLE
10
-6905
20
15320
30
0
40
90
1
2
50
0
0
CIRCLE
8
BUBBLE
10
-5905
20
15320
30
0
40
120
0
TEXT
8
BUBBLE
10
-5905
20
15320
30
0
40
90
1
3
50
0
0
CIRCLE
8
BUBBLE
10
-4905
20
15320
30
0
40
120
0
TEXT
8
BUBBLE
10
-4905
20
15320
30
0
40
90
1
4
50
0
0
CIRCLE
8
BUBBLE
10
-3905
20
15320
30
0
40
120
0
TEXT
8
BUBBLE
10
-3905
20
15320
30
0
40
90
1
5
50
0
0
LINE
8
DIMENSION
6
CONTINUOUS
10
-7905
20
15040
30
0
11
-7905
21
15160
31
0
0
LINE
8
DIMENSION
6
CONTINUOUS
10
-6905
20
15040
30
0
11
-6905
21
15160
31
0
0
LINE
8
DIMENSION
6
CONTINUOUS
10
-7905
20
15160
30
0
11
-6905
21
15160
31
0
0
LINE
8
DIMENSION
6
CONTINUOUS
10
-7905
20
15160
30
0
11
-7956.9615
21
15190
31
0
0
LINE
8
DIMENSION
6
CONTINUOUS
10
-7905
20
15160
30
0
11
-7956.9615
21
15130
31
0
0
LINE
8
DIMENSION
6
CONTINUOUS
10
-6905
20
15160
30
0
11
-6853.0385
21
15130
31
0
0
LINE
8
DIMENSION
6
CONTINUOUS
10
-6905
20
15160
30
0
11
-6853.0385
21
15190
31
0
0
TEXT
8
DIMENSION
10
-7405
20
15330
30
0
40
70
1
1000
50
0
0
LINE
8
DIMENSION
6
CONTINUOUS
10
-6905
20
15040
30
0
11
-6905
21
15160
31
0
0
LINE
8
DIMENSION
6
CONTINUOUS
10
-5905
20
15040
30
0
11
-5905
21
15160
31
0
0
LINE
8
DIMENSION
6
CONTINUOUS
10
-6905
20
15160
30
0
11
-5905
21
15160
31
0
0
LINE
8
DIMENSION
6
CONTINUOUS
10
-6905
20
15160
30
0
11
-6956.9615
21
15190
31
0
0
LINE
8
DIMENSION
6
CONTINUOUS
10
-6905
20
15160
30
0
11
-6956.9615
21
15130
31
0
0
LINE
8
DIMENSION
6
CONTINUOUS
10
-5905
20
15160
30
0
11
-5853.0385
21
15130
31
0
0
LINE
8
DIMENSION
6
CONTINUOUS
10
-5905
20
15160
30
0
11
-5853.0385
21
15190
31
0
0
TEXT
8
DIMENSION
10
-6405
20
15330
30
0
40
70
1
1000
50
0
0
LINE
8
DIMENSION
6
CONTINUOUS
10
-5905
20
15040
30
0
11
-5905
21
15160
31
0
0
LINE
8
DIMENSION
6
CONTINUOUS
10
-4905
20
15040
30
0
11
-4905
21
15160
31
0
0
LINE
8
DIMENSION
6
CONTINUOUS
10
-5905
20
15160
30
0
11
-4905
21
15160
31
0
0
LINE
8
DIMENSION
6
CONTINUOUS
10
-5905
20
15160
30
0
11
-5956.9615
21
15190
31
0
0
LINE
8
DIMENSION
6
CONTINUOUS
10
-5905
20
15160
30
0
11
-5956.9615
21
15130
31
0
0
LINE
8
DIMENSION
6
CONTINUOUS
10
-4905
20
15160
30
0
11
-4853.0385
21
15130
31
0
0
LINE
8
DIMENSION
6
CONTINUOUS
10
-4905
20
15160
30
0
11
-4853.0385
21
15190
31
0
0
TEXT
8
DIMENSION
10
-5405
20
15330
30
0
40
70
1
1000
50
0
0
LINE
8
DIMENSION
6
CONTINUOUS
10
-4905
20
15040
30
0
11
-4905
21
15160
31
0
0
LINE
8
DIMENSION
6
CONTINUOUS
10
-3905
20
15040
30
0
11
-3905
21
15160
31
0
0
LINE
8
DIMENSION
6
CONTINUOUS
10
-4905
20
15160
30
0
11
-3905
21
15160
31
0
0
LINE
8
DIMENSION
6
CONTINUOUS
10
-4905
20
15160
30
0
11
-4956.9615
21
15190
31
0
0
LINE
8
DIMENSION
6
CONTINUOUS
10
-4905
20
15160
30
0
11
-4956.9615
21
15130
31
0
0
LINE
8
DIMENSION
6
CONTINUOUS
10
-3905
20
15160
30
0
11
-3853.0385
21
15130
31
0
0
LINE
8
DIMENSION
6
CONTINUOUS
10
-3905
20
15160
30
0
11
-3853.0385
21
15190
31
0
0
TEXT
8
DIMENSION
10
-4405
20
15330
30
0
40
70
1
1000
50
0
0
LINE
8
DIMENSION
6
CONTINUOUS
10
-7965
20
-14720
30
0
11
-8245
21
-14720
31
0
0
LINE
8
DIMENSION
6
CONTINUOUS
10
-7965
20
-13020
30
0
11
-8245
21
-13020
31
0
0
LINE
8
DIMENSION
6
CONTINUOUS
10
-8245
20
-14720
30
0
11
-8245
21
-13020
31
0
0
LINE
8
DIMENSION
6
CONTINUOUS
10
-8245
20
-14720
30
0
11
-8275
21
-14771.9615
31
0
0
LINE
8
DIMENSION
6
CONTINUOUS
10
-8245
20
-14720
30
0
11
-8215
21
-14771.9615
31
0
0
LINE
8
DIMENSION
6
CONTINUOUS
10
-8245
20
-13020
30
0
11
-8215
21
-12968.0385
31
0
0
LINE
8
DIMENSION
6
CONTINUOUS
10
-8245
20
-13020
30
0
11
-8275
21
-12968.0385
31
0
0
TEXT
8
DIMENSION
10
-8415
20
-13870
30
0
40
70
1
1700
50
90
0
LINE
8
DIMENSION
6
CONTINUOUS
10
-7965
20
-13020
30
0
11
-8245
21
-13020
31
0
0
LINE
8
DIMENSION
6
CONTINUOUS
10
-7965
20
-11020
30
0
11
-8245
21
-11020
31
0
0
LINE
8
DIMENSION
6
CONTINUOUS
10
-8245
20
-13020
30
0
11
-8245
21
-11020
31
0
0
LINE
8
DIMENSION
6
CONTINUOUS
10
-8245
20
-13020
30
0
11
-8275
21
-13071.9615
31
0
0
LINE
8
DIMENSION
6
CONTINUOUS
10
-8245
20
-13020
30
0
11
-8215
21
-13071.9615
31
0
0
LINE
8
DIMENSION
6
CONTINUOUS
10
-8245
20
-11020
30
0
11
-8215
21
-10968.0385
31
0
0
LINE
8
DIMENSION
6
CONTINUOUS
10
-8245
20
-11020
30
0
11
-8275
21
-10968.0385
31
0
0
TEXT
8
DIMENSION
10
-8415
20
-12020
30
0
40
70
1
2000
50
90
0
LINE
8
DIMENSION
6
CONTINUOUS
10
-7965
20
-11020
30
0
11
-8245
21
-11020
31
0
0
LINE
8
DIMENSION
6
CONTINUOUS
10
-7965
20
-9020
30
0
11
-8245
21
-9020
31
0
0
LINE
8
DIMENSION
6
CONTINUOUS
10
-8245
20
-11020
30
0
11
-8245
21
-9020
31
0
0
LINE
8
DIMENSION
6
CONTINUOUS
10
-8245
20
-11020
30
0
11
-8275
21
-11071.9615
31
0
0
LINE
8
DIMENSION
6
CONTINUOUS
10
-8245
20
-11020
30
0
11
-8215
21
-11071.9615
31
0
0
LINE
8
DIMENSION
6
CONTINUOUS
10
-8245
20
-9020
30
0
11
-8215
21
-8968.0385
31
0
0
LINE
8
DIMENSION
6
CONTINUOUS
10
-8245
20
-9020
30
0
11
-8275
21
-8968.0385
31
0
0
TEXT
8
DIMENSION
10
-8415
20
-10020
30
0
40
70
1
2000
50
90
0
LINE
8
DIMENSION
6
CONTINUOUS
10
-7965
20
-9020
30
0
11
-8245
21
-9020
31
0
0
LINE
8
DIMENSION
6
CONTINUOUS
10
-7965
20
-8520
30
0
11
-8245
21
-8520
31
0
0
LINE
8
DIMENSION
6
CONTINUOUS
10
-8245
20
-9020
30
0
11
-8245
21
-8520
31
0
0
LINE
8
DIMENSION
6
CONTINUOUS
10
-8245
20
-9020
30
0
11
-8275
21
-9071.9615
31
0
0
LINE
8
DIMENSION
6
CONTINUOUS
10
-8245
20
-9020
30
0
11
-8215
21
-9071.9615
31
0
0
LINE
8
DIMENSION
6
CONTINUOUS
10
-8245
20
-8520
30
0
11
-8215
21
-8468.0385
31
0
0
LINE
8
DIMENSION
6
CONTINUOUS
10
-8245
20
-8520
30
0
11
-8275
21
-8468.0385
31
0
0
TEXT
8
DIMENSION
10
-8415
20
-8770
30
0
40
70
1
500
50
90
0
LINE
8
DIMENSION
6
CONTINUOUS
10
-7965
20
-8520
30
0
11
-8245
21
-8520
31
0
0
LINE
8
DIMENSION
6
CONTINUOUS
10
-7965
20
-8020
30
0
11
-8245
21
-8020
31
0
0
LINE
8
DIMENSION
6
CONTINUOUS
10
-8245
20
-8520
30
0
11
-8245
21
-8020
31
0
0
LINE
8
DIMENSION
6
CONTINUOUS
10
-8245
20
-8520
30
0
11
-8275
21
-8571.9615
31
0
0
LINE
8
DIMENSION
6
CONTINUOUS
10
-8245
20
-8520
30
0
11
-8215
21
-8571.9615
31
0
0
LINE
8
DIMENSION
6
CONTINUOUS
10
-8245
20
-8020
30
0
11
-8215
21
-7968.0385
31
0
0
LINE
8
DIMENSION
6
CONTINUOUS
10
-8245
20
-8020
30
0
11
-8275
21
-7968.0385
31
0
0
TEXT
8
DIMENSION
10
-8415
20
-8270
30
0
40
70
1
500
50
90
0
LINE
8
DIMENSION
6
CONTINUOUS
10
-7965
20
-8020
30
0
11
-8245
21
-8020
31
0
0
LINE
8
DIMENSION
6
CONTINUOUS
10
-7965
20
-7020
30
0
11
-8245
21
-7020
31
0
0
LINE
8
DIMENSION
6
CONTINUOUS
10
-8245
20
-8020
30
0
11
-8245
21
-7020
31
0
0
LINE
8
DIMENSION
6
CONTINUOUS
10
-8245
20
-8020
30
0
11
-8275
21
-8071.9615
31
0
0
LINE
8
DIMENSION
6
CONTINUOUS
10
-8245
20
-8020
30
0
11
-8215
21
-8071.9615
31
0
0
LINE
8
DIMENSION
6
CONTINUOUS
10
-8245
20
-7020
30
0
11
-8215
21
-6968.0385
31
0
0
LINE
8
DIMENSION
6
CONTINUOUS
10
-8245
20
-7020
30
0
11
-8275
21
-6968.0385
31
0
0
TEXT
8
DIMENSION
10
-8415
20
-7520
30
0
40
70
1
1000
50
90
0
LINE
8
DIMENSION
6
CONTINUOUS
10
-7965
20
-7020
30
0
11
-8245
21
-7020
31
0
0
LINE
8
DIMENSION
6
CONTINUOUS
10
-7965
20
-5020
30
0
11
-8245
21
-5020
31
0
0
LINE
8
DIMENSION
6
CONTINUOUS
10
-8245
20
-7020
30
0
11
-8245
21
-5020
31
0
0
LINE
8
DIMENSION
6
CONTINUOUS
10
-8245
20
-7020
30
0
11
-8275
21
-7071.9615
31
0
0
LINE
8
DIMENSION
6
CONTINUOUS
10
-8245
20
-7020
30
0
11
-8215
21
-7071.9615
31
0
0
LINE
8
DIMENSION
6
CONTINUOUS
10
-8245
20
-5020
30
0
11
-8215
21
-4968.0385
31
0
0
LINE
8
DIMENSION
6
CONTINUOUS
10
-8245
20
-5020
30
0
11
-8275
21
-4968.0385
31
0
0
TEXT
8
DIMENSION
10
-8415
20
-6020
30
0
40
70
1
2000
50
90
0
LINE
8
DIMENSION
6
CONTINUOUS
10
-7965
20
-5020
30
0
11
-8245
21
-5020
31
0
0
LINE
8
DIMENSION
6
CONTINUOUS
10
-7965
20
-3020
30
0
11
-8245
21
-3020
31
0
0
LINE
8
DIMENSION
6
CONTINUOUS
10
-8245
20
-5020
30
0
11
-8245
21
-3020
31
0
0
LINE
8
DIMENSION
6
CONTINUOUS
10
-8245
20
-5020
30
0
11
-8275
21
-5071.9615
31
0
0
LINE
8
DIMENSION
6
CONTINUOUS
10
-8245
20
-5020
30
0
11
-8215
21
-5071.9615
31
0
0
LINE
8
DIMENSION
6
CONTINUOUS
10
-8245
20
-3020
30
0
11
-8215
21
-2968.0385
31
0
0
LINE
8
DIMENSION
6
CONTINUOUS
10
-8245
20
-3020
30
0
11
-8275
21
-2968.0385
31
0
0
TEXT
8
DIMENSION
10
-8415
20
-4020
30
0
40
70
1
2000
50
90
0
LINE
8
DIMENSION
6
CONTINUOUS
10
-7965
20
-3020
30
0
11
-8245
21
-3020
31
0
0
LINE
8
DIMENSION
6
CONTINUOUS
10
-7965
20
-2520
30
0
11
-8245
21
-2520
31
0
0
LINE
8
DIMENSION
6
CONTINUOUS
10
-8245
20
-3020
30
0
11
-8245
21
-2520
31
0
0
LINE
8
DIMENSION
6
CONTINUOUS
10
-8245
20
-3020
30
0
11
-8275
21
-3071.9615
31
0
0
LINE
8
DIMENSION
6
CONTINUOUS
10
-8245
20
-3020
30
0
11
-8215
21
-3071.9615
31
0
0
LINE
8
DIMENSION
6
CONTINUOUS
10
-8245
20
-2520
30
0
11
-8215
21
-2468.0385
31
0
0
LINE
8
DIMENSION
6
CONTINUOUS
10
-8245
20
-2520
30
0
11
-8275
21
-2468.0385
31
0
0
TEXT
8
DIMENSION
10
-8415
20
-2770
30
0
40
70
1
500
50
90
0
LINE
8
DIMENSION
6
CONTINUOUS
10
-7965
20
-2520
30
0
11
-8245
21
-2520
31
0
0
LINE
8
DIMENSION
6
CONTINUOUS
10
-7965
20
-2020
30
0
11
-8245
21
-2020
31
0
0
LINE
8
DIMENSION
6
CONTINUOUS
10
-8245
20
-2520
30
0
11
-8245
21
-2020
31
0
0
LINE
8
DIMENSION
6
CONTINUOUS
10
-8245
20
-2520
30
0
11
-8275
21
-2571.9615
31
0
0
LINE
8
DIMENSION
6
CONTINUOUS
10
-8245
20
-2520
30
0
11
-8215
21
-2571.9615
31
0
0
LINE
8
DIMENSION
6
CONTINUOUS
10
-8245
20
-2020
30
0
11
-8215
21
-1968.0385
31
0
0
LINE
8
DIMENSION
6
CONTINUOUS
10
-8245
20
-2020
30
0
11
-8275
21
-1968.0385
31
0
0
TEXT
8
DIMENSION
10
-8415
20
-2270
30
0
40
70
1
500
50
90
0
LINE
8
DIMENSION
6
CONTINUOUS
10
-7965
20
-2020
30
0
11
-8245
21
-2020
31
0
0
LINE
8
DIMENSION
6
CONTINUOUS
10
-7965
20
-1020
30
0
11
-8245
21
-1020
31
0
0
LINE
8
DIMENSION
6
CONTINUOUS
10
-8245
20
-2020
30
0
11
-8245
21
-1020
31
0
0
LINE
8
DIMENSION
6
CONTINUOUS
10
-8245
20
-2020
30
0
11
-8275
21
-2071.9615
31
0
0
LINE
8
DIMENSION
6
CONTINUOUS
10
-8245
20
-2020
30
0
11
-8215
21
-2071.9615
31
0
0
LINE
8
DIMENSION
6
CONTINUOUS
10
-8245
20
-1020
30
0
11
-8215
21
-968.0385
31
0
0
LINE
8
DIMENSION
6
CONTINUOUS
10
-8245
20
-1020
30
0
11
-8275
21
-968.0385
31
0
0
TEXT
8
DIMENSION
10
-8415
20
-1520
30
0
40
70
1
1000
50
90
0
LINE
8
DIMENSION
6
CONTINUOUS
10
-7965
20
-1020
30
0
11
-8245
21
-1020
31
0
0
LINE
8
DIMENSION
6
CONTINUOUS
10
-7965
20
980
30
0
11
-8245
21
980
31
0
0
LINE
8
DIMENSION
6
CONTINUOUS
10
-8245
20
-1020
30
0
11
-8245
21
980
31
0
0
LINE
8
DIMENSION
6
CONTINUOUS
10
-8245
20
-1020
30
0
11
-8275
21
-1071.9615
31
0
0
LINE
8
DIMENSION
6
CONTINUOUS
10
-8245
20
-1020
30
0
11
-8215
21
-1071.9615
31
0
0
LINE
8
DIMENSION
6
CONTINUOUS
10
-8245
20
980
30
0
11
-8215
21
1031.9615
31
0
0
LINE
8
DIMENSION
6
CONTINUOUS
10
-8245
20
980
30
0
11
-8275
21
1031.9615
31
0
0
TEXT
8
DIMENSION
10
-8415
20
-20
30
0
40
70
1
2000
50
90
0
LINE
8
DIMENSION
6
CONTINUOUS
10
-7965
20
980
30
0
11
-8245
21
980
31
0
0
LINE
8
DIMENSION
6
CONTINUOUS
10
-7965
20
2980
30
0
11
-8245
21
2980
31
0
0
LINE
8
DIMENSION
6
CONTINUOUS
10
-8245
20
980
30
0
11
-8245
21
2980
31
0
0
LINE
8
DIMENSION
6
CONTINUOUS
10
-8245
20
980
30
0
11
-8275
21
928.0385
31
0
0
LINE
8
DIMENSION
6
CONTINUOUS
10
-8245
20
980
30
0
11
-8215
21
928.0385
31
0
0
LINE
8
DIMENSION
6
CONTINUOUS
10
-8245
20
2980
30
0
11
-8215
21
3031.9615
31
0
0
LINE
8
DIMENSION
6
CONTINUOUS
10
-8245
20
2980
30
0
11
-8275
21
3031.9615
31
0
0
TEXT
8
DIMENSION
10
-8415
20
1980
30
0
40
70
1
2000
50
90
0
LINE
8
DIMENSION
6
CONTINUOUS
10
-7965
20
2980
30
0
11
-8245
21
2980
31
0
0
LINE
8
DIMENSION
6
CONTINUOUS
10
-7965
20
3480
30
0
11
-8245
21
3480
31
0
0
LINE
8
DIMENSION
6
CONTINUOUS
10
-8245
20
2980
30
0
11
-8245
21
3480
31
0
0
LINE
8
DIMENSION
6
CONTINUOUS
10
-8245
20
2980
30
0
11
-8275
21
2928.0385
31
0
0
LINE
8
DIMENSION
6
CONTINUOUS
10
-8245
20
2980
30
0
11
-8215
21
2928.0385
31
0
0
LINE
8
DIMENSION
6
CONTINUOUS
10
-8245
20
3480
30
0
11
-8215
21
3531.9615
31
0
0
LINE
8
DIMENSION
6
CONTINUOUS
10
-8245
20
3480
30
0
11
-8275
21
3531.9615
31
0
0
TEXT
8
DIMENSION
10
-8415
20
3230
30
0
40
70
1
500
50
90
0
LINE
8
DIMENSION
6
CONTINUOUS
10
-7965
20
3480
30
0
11
-8245
21
3480
31
0
0
LINE
8
DIMENSION
6
CONTINUOUS
10
-7965
20
3980
30
0
11
-8245
21
3980
31
0
0
LINE
8
DIMENSION
6
CONTINUOUS
10
-8245
20
3480
30
0
11
-8245
21
3980
31
0
0
LINE
8
DIMENSION
6
CONTINUOUS
10
-8245
20
3480
30
0
11
-8275
21
3428.0385
31
0
0
LINE
8
DIMENSION
6
CONTINUOUS
10
-8245
20
3480
30
0
11
-8215
21
3428.0385
31
0
0
LINE
8
DIMENSION
6
CONTINUOUS
10
-8245
20
3980
30
0
11
-8215
21
4031.9615
31
0
0
LINE
8
DIMENSION
6
CONTINUOUS
10
-8245
20
3980
30
0
11
-8275
21
4031.9615
31
0
0
TEXT
8
DIMENSION
10
-8415
20
3730
30
0
40
70
1
500
50
90
0
LINE
8
DIMENSION
6
CONTINUOUS
10
-7965
20
3980
30
0
11
-8245
21
3980
31
0
0
LINE
8
DIMENSION
6
CONTINUOUS
10
-7965
20
4980
30
0
11
-8245
21
4980
31
0
0
LINE
8
DIMENSION
6
CONTINUOUS
10
-8245
20
3980
30
0
11
-8245
21
4980
31
0
0
LINE
8
DIMENSION
6
CONTINUOUS
10
-8245
20
3980
30
0
11
-8275
21
3928.0385
31
0
0
LINE
8
DIMENSION
6
CONTINUOUS
10
-8245
20
3980
30
0
11
-8215
21
3928.0385
31
0
0
LINE
8
DIMENSION
6
CONTINUOUS
10
-8245
20
4980
30
0
11
-8215
21
5031.9615
31
0
0
LINE
8
DIMENSION
6
CONTINUOUS
10
-8245
20
4980
30
0
11
-8275
21
5031.9615
31
0
0
TEXT
8
DIMENSION
10
-8415
20
4480
30
0
40
70
1
1000
50
90
0
LINE
8
DIMENSION
6
CONTINUOUS
10
-7965
20
4980
30
0
11
-8245
21
4980
31
0
0
LINE
8
DIMENSION
6
CONTINUOUS
10
-7965
20
6980
30
0
11
-8245
21
6980
31
0
0
LINE
8
DIMENSION
6
CONTINUOUS
10
-8245
20
4980
30
0
11
-8245
21
6980
31
0
0
LINE
8
DIMENSION
6
CONTINUOUS
10
-8245
20
4980
30
0
11
-8275
21
4928.0385
31
0
0
LINE
8
DIMENSION
6
CONTINUOUS
10
-8245
20
4980
30
0
11
-8215
21
4928.0385
31
0
0
LINE
8
DIMENSION
6
CONTINUOUS
10
-8245
20
6980
30
0
11
-8215
21
7031.9615
31
0
0
LINE
8
DIMENSION
6
CONTINUOUS
10
-8245
20
6980
30
0
11
-8275
21
7031.9615
31
0
0
TEXT
8
DIMENSION
10
-8415
20
5980
30
0
40
70
1
2000
50
90
0
LINE
8
DIMENSION
6
CONTINUOUS
10
-7965
20
6980
30
0
11
-8245
21
6980
31
0
0
LINE
8
DIMENSION
6
CONTINUOUS
10
-7965
20
8980
30
0
11
-8245
21
8980
31
0
0
LINE
8
DIMENSION
6
CONTINUOUS
10
-8245
20
6980
30
0
11
-8245
21
8980
31
0
0
LINE
8
DIMENSION
6
CONTINUOUS
10
-8245
20
6980
30
0
11
-8275
21
6928.0385
31
0
0
LINE
8
DIMENSION
6
CONTINUOUS
10
-8245
20
6980
30
0
11
-8215
21
6928.0385
31
0
0
LINE
8
DIMENSION
6
CONTINUOUS
10
-8245
20
8980
30
0
11
-8215
21
9031.9615
31
0
0
LINE
8
DIMENSION
6
CONTINUOUS
10
-8245
20
8980
30
0
11
-8275
21
9031.9615
31
0
0
TEXT
8
DIMENSION
10
-8415
20
7980
30
0
40
70
1
2000
50
90
0
LINE
8
DIMENSION
6
CONTINUOUS
10
-7965
20
8980
30
0
11
-8245
21
8980
31
0
0
LINE
8
DIMENSION
6
CONTINUOUS
10
-7965
20
9480
30
0
11
-8245
21
9480
31
0
0
LINE
8
DIMENSION
6
CONTINUOUS
10
-8245
20
8980
30
0
11
-8245
21
9480
31
0
0
LINE
8
DIMENSION
6
CONTINUOUS
10
-8245
20
8980
30
0
11
-8275
21
8928.0385
31
0
0
LINE
8
DIMENSION
6
CONTINUOUS
10
-8245
20
8980
30
0
11
-8215
21
8928.0385
31
0
0
LINE
8
DIMENSION
6
CONTINUOUS
10
-8245
20
9480
30
0
11
-8215
21
9531.9615
31
0
0
LINE
8
DIMENSION
6
CONTINUOUS
10
-8245
20
9480
30
0
11
-8275
21
9531.9615
31
0
0
TEXT
8
DIMENSION
10
-8415
20
9230
30
0
40
70
1
500
50
90
0
LINE
8
DIMENSION
6
CONTINUOUS
10
-7965
20
9480
30
0
11
-8245
21
9480
31
0
0
LINE
8
DIMENSION
6
CONTINUOUS
10
-7965
20
9980
30
0
11
-8245
21
9980
31
0
0
LINE
8
DIMENSION
6
CONTINUOUS
10
-8245
20
9480
30
0
11
-8245
21
9980
31
0
0
LINE
8
DIMENSION
6
CONTINUOUS
10
-8245
20
9480
30
0
11
-8275
21
9428.0385
31
0
0
LINE
8
DIMENSION
6
CONTINUOUS
10
-8245
20
9480
30
0
11
-8215
21
9428.0385
31
0
0
LINE
8
DIMENSION
6
CONTINUOUS
10
-8245
20
9980
30
0
11
-8215
21
10031.9615
31
0
0
LINE
8
DIMENSION
6
CONTINUOUS
10
-8245
20
9980
30
0
11
-8275
21
10031.9615
31
0
0
TEXT
8
DIMENSION
10
-8415
20
9730
30
0
40
70
1
500
50
90
0
LINE
8
DIMENSION
6
CONTINUOUS
10
-7965
20
9980
30
0
11
-8245
21
9980
31
0
0
LINE
8
DIMENSION
6
CONTINUOUS
10
-7965
20
10980
30
0
11
-8245
21
10980
31
0
0
LINE
8
DIMENSION
6
CONTINUOUS
10
-8245
20
9980
30
0
11
-8245
21
10980
31
0
0
LINE
8
DIMENSION
6
CONTINUOUS
10
-8245
20
9980
30
0
11
-8275
21
9928.0385
31
0
0
LINE
8
DIMENSION
6
CONTINUOUS
10
-8245
20
9980
30
0
11
-8215
21
9928.0385
31
0
0
LINE
8
DIMENSION
6
CONTINUOUS
10
-8245
20
10980
30
0
11
-8215
21
11031.9615
31
0
0
LINE
8
DIMENSION
6
CONTINUOUS
10
-8245
20
10980
30
0
11
-8275
21
11031.9615
31
0
0
TEXT
8
DIMENSION
10
-8415
20
10480
30
0
40
70
1
1000
50
90
0
LINE
8
DIMENSION
6
CONTINUOUS
10
-7965
20
10980
30
0
11
-8245
21
10980
31
0
0
LINE
8
DIMENSION
6
CONTINUOUS
10
-7965
20
12980
30
0
11
-8245
21
12980
31
0
0
LINE
8
DIMENSION
6
CONTINUOUS
10
-8245
20
10980
30
0
11
-8245
21
12980
31
0
0
LINE
8
DIMENSION
6
CONTINUOUS
10
-8245
20
10980
30
0
11
-8275
21
10928.0385
31
0
0
LINE
8
DIMENSION
6
CONTINUOUS
10
-8245
20
10980
30
0
11
-8215
21
10928.0385
31
0
0
LINE
8
DIMENSION
6
CONTINUOUS
10
-8245
20
12980
30
0
11
-8215
21
13031.9615
31
0
0
LINE
8
DIMENSION
6
CONTINUOUS
10
-8245
20
12980
30
0
11
-8275
21
13031.9615
31
0
0
TEXT
8
DIMENSION
10
-8415
20
11980
30
0
40
70
1
2000
50
90
0
LINE
8
DIMENSION
6
CONTINUOUS
10
-7965
20
12980
30
0
11
-8245
21
12980
31
0
0
LINE
8
DIMENSION
6
CONTINUOUS
10
-7965
20
13980
30
0
11
-8245
21
13980
31
0
0
LINE
8
DIMENSION
6
CONTINUOUS
10
-8245
20
12980
30
0
11
-8245
21
13980
31
0
0
LINE
8
DIMENSION
6
CONTINUOUS
10
-8245
20
12980
30
0
11
-8275
21
12928.0385
31
0
0
LINE
8
DIMENSION
6
CONTINUOUS
10
-8245
20
12980
30
0
11
-8215
21
12928.0385
31
0
0
LINE
8
DIMENSION
6
CONTINUOUS
10
-8245
20
13980
30
0
11
-8215
21
14031.9615
31
0
0
LINE
8
DIMENSION
6
CONTINUOUS
10
-8245
20
13980
30
0
11
-8275
21
14031.9615
31
0
0
TEXT
8
DIMENSION
10
-8415
20
13480
30
0
40
70
1
1000
50
90
0
LINE
8
DIMENSION
6
CONTINUOUS
10
-7965
20
13980
30
0
11
-8245
21
13980
31
0
0
LINE
8
DIMENSION
6
CONTINUOUS
10
-7965
20
14480
30
0
11
-8245
21
14480
31
0
0
LINE
8
DIMENSION
6
CONTINUOUS
10
-8245
20
13980
30
0
11
-8245
21
14480
31
0
0
LINE
8
DIMENSION
6
CONTINUOUS
10
-8245
20
13980
30
0
11
-8275
21
13928.0385
31
0
0
LINE
8
DIMENSION
6
CONTINUOUS
10
-8245
20
13980
30
0
11
-8215
21
13928.0385
31
0
0
LINE
8
DIMENSION
6
CONTINUOUS
10
-8245
20
14480
30
0
11
-8215
21
14531.9615
31
0
0
LINE
8
DIMENSION
6
CONTINUOUS
10
-8245
20
14480
30
0
11
-8275
21
14531.9615
31
0
0
TEXT
8
DIMENSION
10
-8415
20
14230
30
0
40
70
1
500
50
90
0
LINE
8
DIMENSION
6
CONTINUOUS
10
-7965
20
14480
30
0
11
-8245
21
14480
31
0
0
LINE
8
DIMENSION
6
CONTINUOUS
10
-7965
20
14980
30
0
11
-8245
21
14980
31
0
0
LINE
8
DIMENSION
6
CONTINUOUS
10
-8245
20
14480
30
0
11
-8245
21
14980
31
0
0
LINE
8
DIMENSION
6
CONTINUOUS
10
-8245
20
14480
30
0
11
-8275
21
14428.0385
31
0
0
LINE
8
DIMENSION
6
CONTINUOUS
10
-8245
20
14480
30
0
11
-8215
21
14428.0385
31
0
0
LINE
8
DIMENSION
6
CONTINUOUS
10
-8245
20
14980
30
0
11
-8215
21
15031.9615
31
0
0
LINE
8
DIMENSION
6
CONTINUOUS
10
-8245
20
14980
30
0
11
-8275
21
15031.9615
31
0
0
TEXT
8
DIMENSION
10
-8415
20
14730
30
0
40
70
1
500
50
90
0
TEXT
8
DIMENSION
10
-5905
20
-15280
30
0
40
70
1
FRONT VIEW TYPICAL FOR
50
0
0
TEXT
8
DIMENSION
10
-5905
20
-15440
30
0
40
70
1
GRID LINE A, E (1-5)
50
0
0
LINE
8
PIPES
6
CONTINUOUS
10
2195.01
20
-15020
30
0
11
2195.01
21
-14719.999
31
0
0
LINE
8
PIPES
6
CONTINUOUS
10
1195.01
20
-15020
30
0
11
1195.01
21
-14719.999
31
0
0
LINE
8
PIPES
6
CONTINUOUS
10
195
20
-15020
30
0
11
195
21
-14719.999
31
0
0
LINE
8
PIPES
6
CONTINUOUS
10
-805
20
-15020
30
0
11
-805
21
-14719.999
31
0
0
LINE
8
PIPES
6
CONTINUOUS
10
-1805
20
-15020
30
0
11
-1805
21
-14719.999
31
0
0
LINE
8
PIPES
6
CONTINUOUS
10
2195.01
20
-14719.999
30
0
11
1195.01
21
-14719.999
31
0
0
LINE
8
PIPES
6
CONTINUOUS
10
1195.01
20
-14719.999
30
0
11
195
21
-14719.999
31
0
0
LINE
8
PIPES
6
CONTINUOUS
10
195
20
-14719.999
30
0
11
-805
21
-14719.999
31
0
0
LINE
8
PIPES
6
CONTINUOUS
10
-805
20
-14719.999
30
0
11
-1805
21
-14719.999
31
0
0
LINE
8
PIPES
6
CONTINUOUS
10
2195.01
20
-14719.999
30
0
11
2195.01
21
-13020
31
0
0
LINE
8
PIPES
6
CONTINUOUS
10
1195.01
20
-14719.999
30
0
11
1195.01
21
-13020
31
0
0
LINE
8
PIPES
6
CONTINUOUS
10
195
20
-14719.999
30
0
11
195
21
-13020
31
0
0
LINE
8
PIPES
6
CONTINUOUS
10
-805
20
-14719.999
30
0
11
-805
21
-13020
31
0
0
LINE
8
PIPES
6
CONTINUOUS
10
-1805
20
-14719.999
30
0
11
-1805
21
-13020
31
0
0
LINE
8
PIPES
6
CONTINUOUS
10
2195.01
20
-13020
30
0
11
1195.01
21
-13020
31
0
0
LINE
8
PIPES
6
CONTINUOUS
10
1195.01
20
-13020
30
0
11
195
21
-13020
31
0
0
LINE
8
PIPES
6
CONTINUOUS
10
195
20
-13020
30
0
11
-805
21
-13020
31
0
0
LINE
8
PIPES
6
CONTINUOUS
10
-805
20
-13020
30
0
11
-1805
21
-13020
31
0
0
LINE
8
PIPES
6
CONTINUOUS
10
2195.01
20
-13020
30
0
11
2195.01
21
-11020
31
0
0
LINE
8
PIPES
6
CONTINUOUS
10
1195.01
20
-13020
30
0
11
1195.01
21
-11020
31
0
0
LINE
8
PIPES
6
CONTINUOUS
10
195
20
-13020
30
0
11
195
21
-11020
31
0
0
LINE
8
PIPES
6
CONTINUOUS
10
-805
20
-13020
30
0
11
-805
21
-11020
31
0
0
LINE
8
PIPES
6
CONTINUOUS
10
-1805
20
-13020
30
0
11
-1805
21
-11020
31
0
0
LINE
8
PIPES
6
CONTINUOUS
10
2195.01
20
-11020
30
0
11
1195.01
21
-11020
31
0
0
LINE
8
PIPES
6
CONTINUOUS
10
1195.01
20
-11020
30
0
11
195
21
-11020
31
0
0
LINE
8
PIPES
6
CONTINUOUS
10
195
20
-11020
30
0
11
-805
21
-11020
31
0
0
LINE
8
PIPES
6
CONTINUOUS
10
-805
20
-11020
30
0
11
-1805
21
-11020
31
0
0
LINE
8
PIPES
6
CONTINUOUS
10
2195.01
20
-11020
30
0
11
2195.01
21
-9019.99
31
0
0
LINE
8
PIPES
6
CONTINUOUS
10
1195.01
20
-11020
30
0
11
1195.01
21
-9019.99
31
0
0
LINE
8
PIPES
6
CONTINUOUS
10
195
20
-11020
30
0
11
195
21
-9019.99
31
0
0
LINE
8
PIPES
6
CONTINUOUS
10
-805
20
-11020
30
0
11
-805
21
-9019.99
31
0
0
LINE
8
PIPES
6
CONTINUOUS
10
-1805
20
-11020
30
0
11
-1805
21
-9019.99
31
0
0
LINE
8
PIPES
6
CONTINUOUS
10
2195.01
20
-9019.99
30
0
11
1195.01
21
-9019.99
31
0
0
LINE
8
PIPES
6
CONTINUOUS
10
1195.01
20
-9019.99
30
0
11
195
21
-9019.99
31
0
0
LINE
8
PIPES
6
CONTINUOUS
10
195
20
-9019.99
30
0
11
-805
21
-9019.99
31
0
0
LINE
8
PIPES
6
CONTINUOUS
10
-805
20
-9019.99
30
0
11
-1805
21
-9019.99
31
0
0
LINE
8
PIPES
6
CONTINUOUS
10
2195.01
20
-9019.99
30
0
11
2195.01
21
-8519.99
31
0
0
LINE
8
PIPES
6
CONTINUOUS
10
1195.01
20
-9019.99
30
0
11
1195.01
21
-8519.99
31
0
0
LINE
8
PIPES
6
CONTINUOUS
10
195
20
-9019.99
30
0
11
195
21
-8519.99
31
0
0
LINE
8
PIPES
6
CONTINUOUS
10
-805
20
-9019.99
30
0
11
-805
21
-8519.99
31
0
0
LINE
8
PIPES
6
CONTINUOUS
10
-1805
20
-9019.99
30
0
11
-1805
21
-8519.99
31
0
0
LINE
8
PIPES
6
CONTINUOUS
10
2195.01
20
-7019.99
30
0
11
1195.01
21
-7019.99
31
0
0
LINE
8
PIPES
6
CONTINUOUS
10
1195.01
20
-7019.99
30
0
11
195
21
-7019.99
31
0
0
LINE
8
PIPES
6
CONTINUOUS
10
195
20
-7019.99
30
0
11
-805
21
-7019.99
31
0
0
LINE
8
PIPES
6
CONTINUOUS
10
-805
20
-7019.99
30
0
11
-1805
21
-7019.99
31
0
0
LINE
8
PIPES
6
CONTINUOUS
10
2195.01
20
-7019.99
30
0
11
2195.01
21
-5020
31
0
0
LINE
8
PIPES
6
CONTINUOUS
10
1195.01
20
-7019.99
30
0
11
1195.01
21
-5020
31
0
0
LINE
8
PIPES
6
CONTINUOUS
10
195
20
-7019.99
30
0
11
195
21
-5020
31
0
0
LINE
8
PIPES
6
CONTINUOUS
10
-805
20
-7019.99
30
0
11
-805
21
-5020
31
0
0
LINE
8
PIPES
6
CONTINUOUS
10
-1805
20
-7019.99
30
0
11
-1805
21
-5020
31
0
0
LINE
8
PIPES
6
CONTINUOUS
10
2195.01
20
-5020
30
0
11
1195.01
21
-5020
31
0
0
LINE
8
PIPES
6
CONTINUOUS
10
1195.01
20
-5020
30
0
11
195
21
-5020
31
0
0
LINE
8
PIPES
6
CONTINUOUS
10
195
20
-5020
30
0
11
-805
21
-5020
31
0
0
LINE
8
PIPES
6
CONTINUOUS
10
-805
20
-5020
30
0
11
-1805
21
-5020
31
0
0
LINE
8
PIPES
6
CONTINUOUS
10
2195.01
20
-5020
30
0
11
2195.01
21
-3020
31
0
0
LINE
8
PIPES
6
CONTINUOUS
10
1195.01
20
-5020
30
0
11
1195.01
21
-3020
31
0
0
LINE
8
PIPES
6
CONTINUOUS
10
195
20
-5020
30
0
11
195
21
-3020
31
0
0
LINE
8
PIPES
6
CONTINUOUS
10
-805
20
-5020
30
0
11
-805
21
-3020
31
0
0
LINE
8
PIPES
6
CONTINUOUS
10
-1805
20
-5020
30
0
11
-1805
21
-3020
31
0
0
LINE
8
PIPES
6
CONTINUOUS
10
2195.01
20
-3020
30
0
11
1195.01
21
-3020
31
0
0
LINE
8
PIPES
6
CONTINUOUS
10
1195.01
20
-3020
30
0
11
195
21
-3020
31
0
0
LINE
8
PIPES
6
CONTINUOUS
10
195
20
-3020
30
0
11
-805
21
-3020
31
0
0
LINE
8
PIPES
6
CONTINUOUS
10
-805
20
-3020
30
0
11
-1805
21
-3020
31
0
0
LINE
8
PIPES
6
CONTINUOUS
10
2195.01
20
-3020
30
0
11
2195.01
21
-2520
31
0
0
LINE
8
PIPES
6
CONTINUOUS
10
1195.01
20
-3020
30
0
11
1195.01
21
-2520
31
0
0
LINE
8
PIPES
6
CONTINUOUS
10
195
20
-3020
30
0
11
195
21
-2520
31
0
0
LINE
8
PIPES
6
CONTINUOUS
10
-805
20
-3020
30
0
11
-805
21
-2520
31
0
0
LINE
8
PIPES
6
CONTINUOUS
10
-1805
20
-3020
30
0
11
-1805
21
-2520
31
0
0
LINE
8
PIPES
6
CONTINUOUS
10
2195.01
20
-1020
30
0
11
1195.01
21
-1020
31
0
0
LINE
8
PIPES
6
CONTINUOUS
10
1195.01
20
-1020
30
0
11
195
21
-1020
31
0
0
LINE
8
PIPES
6
CONTINUOUS
10
195
20
-1020
30
0
11
-805
21
-1020
31
0
0
LINE
8
PIPES
6
CONTINUOUS
10
-805
20
-1020
30
0
11
-1805
21
-1020
31
0
0
LINE
8
PIPES
6
CONTINUOUS
10
2195.01
20
-1020
30
0
11
2195.01
21
980
31
0
0
LINE
8
PIPES
6
CONTINUOUS
10
1195.01
20
-1020
30
0
11
1195.01
21
980
31
0
0
LINE
8
PIPES
6
CONTINUOUS
10
195
20
-1020
30
0
11
195
21
980
31
0
0
LINE
8
PIPES
6
CONTINUOUS
10
-805
20
-1020
30
0
11
-805
21
980
31
0
0
LINE
8
PIPES
6
CONTINUOUS
10
-1805
20
-1020
30
0
11
-1805
21
980
31
0
0
LINE
8
PIPES
6
CONTINUOUS
10
2195.01
20
980
30
0
11
1195.01
21
980
31
0
0
LINE
8
PIPES
6
CONTINUOUS
10
1195.01
20
980
30
0
11
195
21
980
31
0
0
LINE
8
PIPES
6
CONTINUOUS
10
195
20
980
30
0
11
-805
21
980
31
0
0
LINE
8
PIPES
6
CONTINUOUS
10
-805
20
980
30
0
11
-1805
21
980
31
0
0
LINE
8
PIPES
6
CONTINUOUS
10
2195.01
20
980
30
0
11
2195.01
21
2980
31
0
0
LINE
8
PIPES
6
CONTINUOUS
10
1195.01
20
980
30
0
11
1195.01
21
2980
31
0
0
LINE
8
PIPES
6
CONTINUOUS
10
195
20
980
30
0
11
195
21
2980
31
0
0
LINE
8
PIPES
6
CONTINUOUS
10
-805
20
980
30
0
11
-805
21
2980
31
0
0
LINE
8
PIPES
6
CONTINUOUS
10
-1805
20
980
30
0
11
-1805
21
2980
31
0
0
LINE
8
PIPES
6
CONTINUOUS
10
2195.01
20
2980
30
0
11
1195.01
21
2980
31
0
0
LINE
8
PIPES
6
CONTINUOUS
10
1195.01
20
2980
30
0
11
195
21
2980
31
0
0
LINE
8
PIPES
6
CONTINUOUS
10
195
20
2980
30
0
11
-805
21
2980
31
0
0
LINE
8
PIPES
6
CONTINUOUS
10
-805
20
2980
30
0
11
-1805
21
2980
31
0
0
LINE
8
PIPES
6
CONTINUOUS
10
2195.01
20
2980
30
0
11
2195.01
21
3480
31
0
0
LINE
8
PIPES
6
CONTINUOUS
10
1195.01
20
2980
30
0
11
1195.01
21
3480
31
0
0
LINE
8
PIPES
6
CONTINUOUS
10
195
20
2980
30
0
11
195
21
3480
31
0
0
LINE
8
PIPES
6
CONTINUOUS
10
-805
20
2980
30
0
11
-805
21
3480
31
0
0
LINE
8
PIPES
6
CONTINUOUS
10
-1805
20
2980
30
0
11
-1805
21
3480
31
0
0
LINE
8
PIPES
6
CONTINUOUS
10
2195.01
20
4980
30
0
11
1195.01
21
4980
31
0
0
LINE
8
PIPES
6
CONTINUOUS
10
1195.01
20
4980
30
0
11
195
21
4980
31
0
0
LINE
8
PIPES
6
CONTINUOUS
10
195
20
4980
30
0
11
-805
21
4980
31
0
0
LINE
8
PIPES
6
CONTINUOUS
10
-805
20
4980
30
0
11
-1805
21
4980
31
0
0
LINE
8
PIPES
6
CONTINUOUS
10
2195.01
20
4980
30
0
11
2195.01
21
6980
31
0
0
LINE
8
PIPES
6
CONTINUOUS
10
1195.01
20
4980
30
0
11
1195.01
21
6980
31
0
0
LINE
8
PIPES
6
CONTINUOUS
10
195
20
4980
30
0
11
195
21
6980
31
0
0
LINE
8
PIPES
6
CONTINUOUS
10
-805
20
4980
30
0
11
-805
21
6980
31
0
0
LINE
8
PIPES
6
CONTINUOUS
10
-1805
20
4980
30
0
11
-1805
21
6980
31
0
0
LINE
8
PIPES
6
CONTINUOUS
10
2195.01
20
6980
30
0
11
1195.01
21
6980
31
0
0
LINE
8
PIPES
6
CONTINUOUS
10
1195.01
20
6980
30
0
11
195
21
6980
31
0
0
LINE
8
PIPES
6
CONTINUOUS
10
195
20
6980
30
0
11
-805
21
6980
31
0
0
LINE
8
PIPES
6
CONTINUOUS
10
-805
20
6980
30
0
11
-1805
21
6980
31
0
0
LINE
8
PIPES
6
CONTINUOUS
10
2195.01
20
6980
30
0
11
2195.01
21
8980
31
0
0
LINE
8
PIPES
6
CONTINUOUS
10
1195.01
20
6980
30
0
11
1195.01
21
8980
31
0
0
LINE
8
PIPES
6
CONTINUOUS
10
195
20
6980
30
0
11
195
21
8980
31
0
0
LINE
8
PIPES
6
CONTINUOUS
10
-805
20
6980
30
0
11
-805
21
8980
31
0
0
LINE
8
PIPES
6
CONTINUOUS
10
-1805
20
6980
30
0
11
-1805
21
8980
31
0
0
LINE
8
PIPES
6
CONTINUOUS
10
2195.01
20
8980
30
0
11
1195.01
21
8980
31
0
0
LINE
8
PIPES
6
CONTINUOUS
10
1195.01
20
8980
30
0
11
195
21
8980
31
0
0
LINE
8
PIPES
6
CONTINUOUS
10
195
20
8980
30
0
11
-805
21
8980
31
0
0
LINE
8
PIPES
6
CONTINUOUS
10
-805
20
8980
30
0
11
-1805
21
8980
31
0
0
LINE
8
PIPES
6
CONTINUOUS
10
2195.01
20
8980
30
0
11
2195.01
21
9480
31
0
0
LINE
8
PIPES
6
CONTINUOUS
10
1195.01
20
8980
30
0
11
1195.01
21
9480
31
0
0
LINE
8
PIPES
6
CONTINUOUS
10
195
20
8980
30
0
11
195
21
9480
31
0
0
LINE
8
PIPES
6
CONTINUOUS
10
-805
20
8980
30
0
11
-805
21
9480
31
0
0
LINE
8
PIPES
6
CONTINUOUS
10
-1805
20
8980
30
0
11
-1805
21
9480
31
0
0
LINE
8
PIPES
6
CONTINUOUS
10
2195.01
20
10980
30
0
11
1195.01
21
10980
31
0
0
LINE
8
PIPES
6
CONTINUOUS
10
1195.01
20
10980
30
0
11
195
21
10980
31
0
0
LINE
8
PIPES
6
CONTINUOUS
10
195
20
10980
30
0
11
-805
21
10980
31
0
0
LINE
8
PIPES
6
CONTINUOUS
10
-805
20
10980
30
0
11
-1805
21
10980
31
0
0
LINE
8
PIPES
6
CONTINUOUS
10
2195.01
20
10980
30
0
11
2195.01
21
12980.1
31
0
0
LINE
8
PIPES
6
CONTINUOUS
10
1195.01
20
10980
30
0
11
1195.01
21
12980.1
31
0
0
LINE
8
PIPES
6
CONTINUOUS
10
195
20
10980
30
0
11
195
21
12980.1
31
0
0
LINE
8
PIPES
6
CONTINUOUS
10
-805
20
10980
30
0
11
-805
21
12980.1
31
0
0
LINE
8
PIPES
6
CONTINUOUS
10
-1805
20
10980
30
0
11
-1805
21
12980.1
31
0
0
LINE
8
PIPES
6
CONTINUOUS
10
2195.01
20
12980.1
30
0
11
1195.01
21
12980.1
31
0
0
LINE
8
PIPES
6
CONTINUOUS
10
1195.01
20
12980.1
30
0
11
195
21
12980.1
31
0
0
LINE
8
PIPES
6
CONTINUOUS
10
195
20
12980.1
30
0
11
-805
21
12980.1
31
0
0
LINE
8
PIPES
6
CONTINUOUS
10
-805
20
12980.1
30
0
11
-1805
21
12980.1
31
0
0
LINE
8
PIPES
6
CONTINUOUS
10
2195.01
20
12980.1
30
0
11
2195.01
21
13980.1
31
0
0
LINE
8
PIPES
6
CONTINUOUS
10
1195.01
20
12980.1
30
0
11
1195.01
21
13980.1
31
0
0
LINE
8
PIPES
6
CONTINUOUS
10
195
20
12980.1
30
0
11
195
21
13980.1
31
0
0
LINE
8
PIPES
6
CONTINUOUS
10
-805
20
12980.1
30
0
11
-805
21
13980.1
31
0
0
LINE
8
PIPES
6
CONTINUOUS
10
-1805
20
12980.1
30
0
11
-1805
21
13980.1
31
0
0
LINE
8
PIPES
6
CONTINUOUS
10
2195.01
20
13980.1
30
0
11
1195.01
21
13980.1
31
0
0
LINE
8
PIPES
6
CONTINUOUS
10
1195.01
20
13980.1
30
0
11
195
21
13980.1
31
0
0
LINE
8
PIPES
6
CONTINUOUS
10
195
20
13980.1
30
0
11
-805
21
13980.1
31
0
0
LINE
8
PIPES
6
CONTINUOUS
10
-805
20
13980.1
30
0
11
-1805
21
13980.1
31
0
0
LINE
8
PIPES
6
CONTINUOUS
10
-805
20
-13020
30
0
11
-1805
21
-14719.999
31
0
0
LINE
8
PIPES
6
CONTINUOUS
10
195
20
-13020
30
0
11
-805
21
-14719.999
31
0
0
LINE
8
PIPES
6
CONTINUOUS
10
1195.01
20
-13020
30
0
11
195
21
-14719.999
31
0
0
LINE
8
PIPES
6
CONTINUOUS
10
2195.01
20
-13020
30
0
11
1195.01
21
-14719.999
31
0
0
LINE
8
PIPES
6
CONTINUOUS
10
-805
20
-11020
30
0
11
-1805
21
-13020
31
0
0
LINE
8
PIPES
6
CONTINUOUS
10
195
20
-11020
30
0
11
-805
21
-13020
31
0
0
LINE
8
PIPES
6
CONTINUOUS
10
1195.01
20
-11020
30
0
11
195
21
-13020
31
0
0
LINE
8
PIPES
6
CONTINUOUS
10
2195.01
20
-11020
30
0
11
1195.01
21
-13020
31
0
0
LINE
8
PIPES
6
CONTINUOUS
10
-805
20
-9019.99
30
0
11
-1805
21
-11020
31
0
0
LINE
8
PIPES
6
CONTINUOUS
10
195
20
-9019.99
30
0
11
-805
21
-11020
31
0
0
LINE
8
PIPES
6
CONTINUOUS
10
1195.01
20
-9019.99
30
0
11
195
21
-11020
31
0
0
LINE
8
PIPES
6
CONTINUOUS
10
2195.01
20
-9019.99
30
0
11
1195.01
21
-11020
31
0
0
LINE
8
PIPES
6
CONTINUOUS
10
-805
20
-7019.99
30
0
11
-1805
21
-9019.99
31
0
0
LINE
8
PIPES
6
CONTINUOUS
10
195
20
-7019.99
30
0
11
-805
21
-9019.99
31
0
0
LINE
8
PIPES
6
CONTINUOUS
10
1195.01
20
-7019.99
30
0
11
195
21
-9019.99
31
0
0
LINE
8
PIPES
6
CONTINUOUS
10
2195.01
20
-7019.99
30
0
11
1195.01
21
-9019.99
31
0
0
LINE
8
PIPES
6
CONTINUOUS
10
-805
20
-5020
30
0
11
-1805
21
-7019.99
31
0
0
LINE
8
PIPES
6
CONTINUOUS
10
195
20
-5020
30
0
11
-805
21
-7019.99
31
0
0
LINE
8
PIPES
6
CONTINUOUS
10
1195.01
20
-5020
30
0
11
195
21
-7019.99
31
0
0
LINE
8
PIPES
6
CONTINUOUS
10
2195.01
20
-5020
30
0
11
1195.01
21
-7019.99
31
0
0
LINE
8
PIPES
6
CONTINUOUS
10
-805
20
-3020
30
0
11
-1805
21
-5020
31
0
0
LINE
8
PIPES
6
CONTINUOUS
10
195
20
-3020
30
0
11
-805
21
-5020
31
0
0
LINE
8
PIPES
6
CONTINUOUS
10
1195.01
20
-3020
30
0
11
195
21
-5020
31
0
0
LINE
8
PIPES
6
CONTINUOUS
10
2195.01
20
-3020
30
0
11
1195.01
21
-5020
31
0
0
LINE
8
PIPES
6
CONTINUOUS
10
-805
20
-1020
30
0
11
-1805
21
-3020
31
0
0
LINE
8
PIPES
6
CONTINUOUS
10
195
20
-1020
30
0
11
-805
21
-3020
31
0
0
LINE
8
PIPES
6
CONTINUOUS
10
1195.01
20
-1020
30
0
11
195
21
-3020
31
0
0
LINE
8
PIPES
6
CONTINUOUS
10
2195.01
20
-1020
30
0
11
1195.01
21
-3020
31
0
0
LINE
8
PIPES
6
CONTINUOUS
10
-805
20
980
30
0
11
-1805
21
-1020
31
0
0
LINE
8
PIPES
6
CONTINUOUS
10
195
20
980
30
0
11
-805
21
-1020
31
0
0
LINE
8
PIPES
6
CONTINUOUS
10
1195.01
20
980
30
0
11
195
21
-1020
31
0
0
LINE
8
PIPES
6
CONTINUOUS
10
2195.01
20
980
30
0
11
1195.01
21
-1020
31
0
0
LINE
8
PIPES
6
CONTINUOUS
10
-805
20
2980
30
0
11
-1805
21
980
31
0
0
LINE
8
PIPES
6
CONTINUOUS
10
195
20
2980
30
0
11
-805
21
980
31
0
0
LINE
8
PIPES
6
CONTINUOUS
10
1195.01
20
2980
30
0
11
195
21
980
31
0
0
LINE
8
PIPES
6
CONTINUOUS
10
2195.01
20
2980
30
0
11
1195.01
21
980
31
0
0
LINE
8
PIPES
6
CONTINUOUS
10
-805
20
4980
30
0
11
-1805
21
2980
31
0
0
LINE
8
PIPES
6
CONTINUOUS
10
195
20
4980
30
0
11
-805
21
2980
31
0
0
LINE
8
PIPES
6
CONTINUOUS
10
1195.01
20
4980
30
0
11
195
21
2980
31
0
0
LINE
8
PIPES
6
CONTINUOUS
10
2195.01
20
4980
30
0
11
1195.01
21
2980
31
0
0
LINE
8
PIPES
6
CONTINUOUS
10
-805
20
6980
30
0
11
-1805
21
4980
31
0
0
LINE
8
PIPES
6
CONTINUOUS
10
195
20
6980
30
0
11
-805
21
4980
31
0
0
LINE
8
PIPES
6
CONTINUOUS
10
1195.01
20
6980
30
0
11
195
21
4980
31
0
0
LINE
8
PIPES
6
CONTINUOUS
10
2195.01
20
6980
30
0
11
1195.01
21
4980
31
0
0
LINE
8
PIPES
6
CONTINUOUS
10
-805
20
8980
30
0
11
-1805
21
6980
31
0
0
LINE
8
PIPES
6
CONTINUOUS
10
195
20
8980
30
0
11
-805
21
6980
31
0
0
LINE
8
PIPES
6
CONTINUOUS
10
1195.01
20
8980
30
0
11
195
21
6980
31
0
0
LINE
8
PIPES
6
CONTINUOUS
10
2195.01
20
8980
30
0
11
1195.01
21
6980
31
0
0
LINE
8
PIPES
6
CONTINUOUS
10
-805
20
10980
30
0
11
-1805
21
8980
31
0
0
LINE
8
PIPES
6
CONTINUOUS
10
195
20
10980
30
0
11
-805
21
8980
31
0
0
LINE
8
PIPES
6
CONTINUOUS
10
1195.01
20
10980
30
0
11
195
21
8980
31
0
0
LINE
8
PIPES
6
CONTINUOUS
10
2195.01
20
10980
30
0
11
1195.01
21
8980
31
0
0
LINE
8
PIPES
6
CONTINUOUS
10
-805
20
12980.1
30
0
11
-1805
21
10980
31
0
0
LINE
8
PIPES
6
CONTINUOUS
10
195
20
12980.1
30
0
11
-805
21
10980
31
0
0
LINE
8
PIPES
6
CONTINUOUS
10
1195.01
20
12980.1
30
0
11
195
21
10980
31
0
0
LINE
8
PIPES
6
CONTINUOUS
10
2195.01
20
12980.1
30
0
11
1195.01
21
10980
31
0
0
LINE
8
PIPES
6
CONTINUOUS
10
-805
20
13980.1
30
0
11
-1805
21
12980.1
31
0
0
LINE
8
PIPES
6
CONTINUOUS
10
195
20
13980.1
30
0
11
-805
21
12980.1
31
0
0
LINE
8
PIPES
6
CONTINUOUS
10
1195.01
20
13980.1
30
0
11
195
21
12980.1
31
0
0
LINE
8
PIPES
6
CONTINUOUS
10
2195.01
20
13980.1
30
0
11
1195.01
21
12980.1
31
0
0
LINE
8
PIPES
6
CONTINUOUS
10
2195.01
20
13980.1
30
0
11
2195.01
21
14480.1
31
0
0
LINE
8
PIPES
6
CONTINUOUS
10
1195.01
20
13980.1
30
0
11
1195.01
21
14480.1
31
0
0
LINE
8
PIPES
6
CONTINUOUS
10
195
20
13980.1
30
0
11
195
21
14480.1
31
0
0
LINE
8
PIPES
6
CONTINUOUS
10
-805
20
13980.1
30
0
11
-805
21
14480.1
31
0
0
LINE
8
PIPES
6
CONTINUOUS
10
-1805
20
13980.1
30
0
11
-1805
21
14480.1
31
0
0
LINE
8
PIPES
6
CONTINUOUS
10
1195.01
20
14480.1
30
0
11
195
21
14480.1
31
0
0
LINE
8
PIPES
6
CONTINUOUS
10
195
20
14480.1
30
0
11
-805
21
14480.1
31
0
0
LINE
8
PIPES
6
CONTINUOUS
10
2195.01
20
14480.1
30
0
11
2195.01
21
14980.1
31
0
0
LINE
8
PIPES
6
CONTINUOUS
10
1195.01
20
14480.1
30
0
11
1195.01
21
14980.1
31
0
0
LINE
8
PIPES
6
CONTINUOUS
10
195
20
14480.1
30
0
11
195
21
14980.1
31
0
0
LINE
8
PIPES
6
CONTINUOUS
10
-805
20
14480.1
30
0
11
-805
21
14980.1
31
0
0
LINE
8
PIPES
6
CONTINUOUS
10
-1805
20
14480.1
30
0
11
-1805
21
14980.1
31
0
0
LINE
8
PIPES
6
CONTINUOUS
10
1195.01
20
14980.1
30
0
11
195
21
14980.1
31
0
0
LINE
8
PIPES
6
CONTINUOUS
10
195
20
14980.1
30
0
11
-805
21
14980.1
31
0
0
LINE
8
PIPES
6
CONTINUOUS
10
2195.01
20
-8519.99
30
0
11
2195.01
21
-8019.99
31
0
0
LINE
8
PIPES
6
CONTINUOUS
10
1195.01
20
-8519.99
30
0
11
1195.01
21
-8019.99
31
0
0
LINE
8
PIPES
6
CONTINUOUS
10
195
20
-8519.99
30
0
11
195
21
-8019.99
31
0
0
LINE
8
PIPES
6
CONTINUOUS
10
-805
20
-8519.99
30
0
11
-805
21
-8019.99
31
0
0
LINE
8
PIPES
6
CONTINUOUS
10
-1805
20
-8519.99
30
0
11
-1805
21
-8019.99
31
0
0
LINE
8
PIPES
6
CONTINUOUS
10
2195.01
20
-2520
30
0
11
2195.01
21
-2020
31
0
0
LINE
8
PIPES
6
CONTINUOUS
10
1195.01
20
-2520
30
0
11
1195.01
21
-2020
31
0
0
LINE
8
PIPES
6
CONTINUOUS
10
195
20
-2520
30
0
11
195
21
-2020
31
0
0
LINE
8
PIPES
6
CONTINUOUS
10
-805
20
-2520
30
0
11
-805
21
-2020
31
0
0
LINE
8
PIPES
6
CONTINUOUS
10
-1805
20
-2520
30
0
11
-1805
21
-2020
31
0
0
LINE
8
PIPES
6
CONTINUOUS
10
2195.01
20
3480
30
0
11
2195.01
21
3980
31
0
0
LINE
8
PIPES
6
CONTINUOUS
10
1195.01
20
3480
30
0
11
1195.01
21
3980
31
0
0
LINE
8
PIPES
6
CONTINUOUS
10
195
20
3480
30
0
11
195
21
3980
31
0
0
LINE
8
PIPES
6
CONTINUOUS
10
-805
20
3480
30
0
11
-805
21
3980
31
0
0
LINE
8
PIPES
6
CONTINUOUS
10
-1805
20
3480
30
0
11
-1805
21
3980
31
0
0
LINE
8
PIPES
6
CONTINUOUS
10
2195.01
20
9480
30
0
11
2195.01
21
9980
31
0
0
LINE
8
PIPES
6
CONTINUOUS
10
1195.01
20
9480
30
0
11
1195.01
21
9980
31
0
0
LINE
8
PIPES
6
CONTINUOUS
10
195
20
9480
30
0
11
195
21
9980
31
0
0
LINE
8
PIPES
6
CONTINUOUS
10
-805
20
9480
30
0
11
-805
21
9980
31
0
0
LINE
8
PIPES
6
CONTINUOUS
10
-1805
20
9480
30
0
11
-1805
21
9980
31
0
0
LINE
8
PIPES
6
CONTINUOUS
10
1195.01
20
-8519.99
30
0
11
195
21
-8519.99
31
0
0
LINE
8
PIPES
6
CONTINUOUS
10
195
20
-8519.99
30
0
11
-805
21
-8519.99
31
0
0
LINE
8
PIPES
6
CONTINUOUS
10
1195.01
20
-2520
30
0
11
195
21
-2520
31
0
0
LINE
8
PIPES
6
CONTINUOUS
10
195
20
-2520
30
0
11
-805
21
-2520
31
0
0
LINE
8
PIPES
6
CONTINUOUS
10
1195.01
20
3480
30
0
11
195
21
3480
31
0
0
LINE
8
PIPES
6
CONTINUOUS
10
195
20
3480
30
0
11
-805
21
3480
31
0
0
LINE
8
PIPES
6
CONTINUOUS
10
1195.01
20
9480
30
0
11
195
21
9480
31
0
0
LINE
8
PIPES
6
CONTINUOUS
10
195
20
9480
30
0
11
-805
21
9480
31
0
0
LINE
8
PIPES
6
CONTINUOUS
10
2195.01
20
-8019.99
30
0
11
2195.01
21
-7019.99
31
0
0
LINE
8
PIPES
6
CONTINUOUS
10
1195.01
20
-8019.99
30
0
11
1195.01
21
-7019.99
31
0
0
LINE
8
PIPES
6
CONTINUOUS
10
195
20
-8019.99
30
0
11
195
21
-7019.99
31
0
0
LINE
8
PIPES
6
CONTINUOUS
10
-805
20
-8019.99
30
0
11
-805
21
-7019.99
31
0
0
LINE
8
PIPES
6
CONTINUOUS
10
-1805
20
-8019.99
30
0
11
-1805
21
-7019.99
31
0
0
LINE
8
PIPES
6
CONTINUOUS
10
2195.01
20
-2020
30
0
11
2195.01
21
-1020
31
0
0
LINE
8
PIPES
6
CONTINUOUS
10
1195.01
20
-2020
30
0
11
1195.01
21
-1020
31
0
0
LINE
8
PIPES
6
CONTINUOUS
10
195
20
-2020
30
0
11
195
21
-1020
31
0
0
LINE
8
PIPES
6
CONTINUOUS
10
-805
20
-2020
30
0
11
-805
21
-1020
31
0
0
LINE
8
PIPES
6
CONTINUOUS
10
-1805
20
-2020
30
0
11
-1805
21
-1020
31
0
0
LINE
8
PIPES
6
CONTINUOUS
10
2195.01
20
3980
30
0
11
2195.01
21
4980
31
0
0
LINE
8
PIPES
6
CONTINUOUS
10
1195.01
20
3980
30
0
11
1195.01
21
4980
31
0
0
LINE
8
PIPES
6
CONTINUOUS
10
195
20
3980
30
0
11
195
21
4980
31
0
0
LINE
8
PIPES
6
CONTINUOUS
10
-805
20
3980
30
0
11
-805
21
4980
31
0
0
LINE
8
PIPES
6
CONTINUOUS
10
-1805
20
3980
30
0
11
-1805
21
4980
31
0
0
LINE
8
PIPES
6
CONTINUOUS
10
2195.01
20
9980
30
0
11
2195.01
21
10980
31
0
0
LINE
8
PIPES
6
CONTINUOUS
10
1195.01
20
9980
30
0
11
1195.01
21
10980
31
0
0
LINE
8
PIPES
6
CONTINUOUS
10
195
20
9980
30
0
11
195
21
10980
31
0
0
LINE
8
PIPES
6
CONTINUOUS
10
-805
20
9980
30
0
11
-805
21
10980
31
0
0
LINE
8
PIPES
6
CONTINUOUS
10
-1805
20
9980
30
0
11
-1805
21
10980
31
0
0
LINE
8
PIPES
6
CONTINUOUS
10
1195.01
20
-8019.99
30
0
11
195
21
-8019.99
31
0
0
LINE
8
PIPES
6
CONTINUOUS
10
195
20
-8019.99
30
0
11
-805
21
-8019.99
31
0
0
LINE
8
PIPES
6
CONTINUOUS
10
1195.01
20
-2020
30
0
11
195
21
-2020
31
0
0
LINE
8
PIPES
6
CONTINUOUS
10
195
20
-2020
30
0
11
-805
21
-2020
31
0
0
LINE
8
PIPES
6
CONTINUOUS
10
1195.01
20
3980
30
0
11
195
21
3980
31
0
0
LINE
8
PIPES
6
CONTINUOUS
10
195
20
3980
30
0
11
-805
21
3980
31
0
0
LINE
8
PIPES
6
CONTINUOUS
10
1195.01
20
9980
30
0
11
195
21
9980
31
0
0
LINE
8
PIPES
6
CONTINUOUS
10
195
20
9980
30
0
11
-805
21
9980
31
0
0
CIRCLE
8
BUBBLE
10
-1805
20
15320
30
0
40
120
0
TEXT
8
BUBBLE
10
-1805
20
15320
30
0
40
90
1
1
50
0
0
CIRCLE
8
BUBBLE
10
-805
20
15320
30
0
40
120
0
TEXT
8
BUBBLE
10
-805
20
15320
30
0
40
90
1
2
50
0
0
CIRCLE
8
BUBBLE
10
195
20
15320
30
0
40
120
0
TEXT
8
BUBBLE
10
195
20
15320
30
0
40
90
1
3
50
0
0
CIRCLE
8
BUBBLE
10
1195
20
15320
30
0
40
120
0
TEXT
8
BUBBLE
10
1195
20
15320
30
0
40
90
1
4
50
0
0
CIRCLE
8
BUBBLE
10
2195
20
15320
30
0
40
120
0
TEXT
8
BUBBLE
10
2195
20
15320
30
0
40
90
1
5
50
0
0
LINE
8
DIMENSION
6
CONTINUOUS
10
-1805
20
15040
30
0
11
-1805
21
15160
31
0
0
LINE
8
DIMENSION
6
CONTINUOUS
10
-805
20
15040
30
0
11
-805
21
15160
31
0
0
LINE
8
DIMENSION
6
CONTINUOUS
10
-1805
20
15160
30
0
11
-805
21
15160
31
0
0
LINE
8
DIMENSION
6
CONTINUOUS
10
-1805
20
15160
30
0
11
-1856.9615
21
15190
31
0
0
LINE
8
DIMENSION
6
CONTINUOUS
10
-1805
20
15160
30
0
11
-1856.9615
21
15130
31
0
0
LINE
8
DIMENSION
6
CONTINUOUS
10
-805
20
15160
30
0
11
-753.0385
21
15130
31
0
0
LINE
8
DIMENSION
6
CONTINUOUS
10
-805
20
15160
30
0
11
-753.0385
21
15190
31
0
0
TEXT
8
DIMENSION
10
-1305
20
15330
30
0
40
70
1
1000
50
0
0
LINE
8
DIMENSION
6
CONTINUOUS
10
-805
20
15040
30
0
11
-805
21
15160
31
0
0
LINE
8
DIMENSION
6
CONTINUOUS
10
195
20
15040
30
0
11
195
21
15160
31
0
0
LINE
8
DIMENSION
6
CONTINUOUS
10
-805
20
15160
30
0
11
195
21
15160
31
0
0
LINE
8
DIMENSION
6
CONTINUOUS
10
-805
20
15160
30
0
11
-856.9615
21
15190
31
0
0
LINE
8
DIMENSION
6
CONTINUOUS
10
-805
20
15160
30
0
11
-856.9615
21
15130
31
0
0
LINE
8
DIMENSION
6
CONTINUOUS
10
195
20
15160
30
0
11
246.9615
21
15130
31
0
0
LINE
8
DIMENSION
6
CONTINUOUS
10
195
20
15160
30
0
11
246.9615
21
15190
31
0
0
TEXT
8
DIMENSION
10
-305
20
15330
30
0
40
70
1
1000
50
0
0
LINE
8
DIMENSION
6
CONTINUOUS
10
195
20
15040
30
0
11
195
21
15160
31
0
0
LINE
8
DIMENSION
6
CONTINUOUS
10
1195
20
15040
30
0
11
1195
21
15160
31
0
0
LINE
8
DIMENSION
6
CONTINUOUS
10
195
20
15160
30
0
11
1195
21
15160
31
0
0
LINE
8
DIMENSION
6
CONTINUOUS
10
195
20
15160
30
0
11
143.0385
21
15190
31
0
0
LINE
8
DIMENSION
6
CONTINUOUS
10
195
20
15160
30
0
11
143.0385
21
15130
31
0
0
LINE
8
DIMENSION
6
CONTINUOUS
10
1195
20
15160
30
0
11
1246.9615
21
15130
31
0
0
LINE
8
DIMENSION
6
CONTINUOUS
10
1195
20
15160
30
0
11
1246.9615
21
15190
31
0
0
TEXT
8
DIMENSION
10
695
20
15330
30
0
40
70
1
1000
50
0
0
LINE
8
DIMENSION
6
CONTINUOUS
10
1195
20
15040
30
0
11
1195
21
15160
31
0
0
LINE
8
DIMENSION
6
CONTINUOUS
10
2195
20
15040
30
0
11
2195
21
15160
31
0
0
LINE
8
DIMENSION
6
CONTINUOUS
10
1195
20
15160
30
0
11
2195
21
15160
31
0
0
LINE
8
DIMENSION
6
CONTINUOUS
10
1195
20
15160
30
0
11
1143.0385
21
15190
31
0
0
LINE
8
DIMENSION
6
CONTINUOUS
10
1195
20
15160
30
0
11
1143.0385
21
15130
31
0
0
LINE
8
DIMENSION
6
CONTINUOUS
10
2195
20
15160
30
0
11
2246.9615
21
15130
31
0
0
LINE
8
DIMENSION
6
CONTINUOUS
10
2195
20
15160
30
0
11
2246.9615
21
15190
31
0
0
TEXT
8
DIMENSION
10
1695
20
15330
30
0
40
70
1
1000
50
0
0
LINE
8
DIMENSION
6
CONTINUOUS
10
-1865
20
-14720
30
0
11
-2145
21
-14720
31
0
0
LINE
8
DIMENSION
6
CONTINUOUS
10
-1865
20
-13020
30
0
11
-2145
21
-13020
31
0
0
LINE
8
DIMENSION
6
CONTINUOUS
10
-2145
20
-14720
30
0
11
-2145
21
-13020
31
0
0
LINE
8
DIMENSION
6
CONTINUOUS
10
-2145
20
-14720
30
0
11
-2175
21
-14771.9615
31
0
0
LINE
8
DIMENSION
6
CONTINUOUS
10
-2145
20
-14720
30
0
11
-2115
21
-14771.9615
31
0
0
LINE
8
DIMENSION
6
CONTINUOUS
10
-2145
20
-13020
30
0
11
-2115
21
-12968.0385
31
0
0
LINE
8
DIMENSION
6
CONTINUOUS
10
-2145
20
-13020
30
0
11
-2175
21
-12968.0385
31
0
0
TEXT
8
DIMENSION
10
-2315
20
-13870
30
0
40
70
1
1700
50
90
0
LINE
8
DIMENSION
6
CONTINUOUS
10
-1865
20
-13020
30
0
11
-2145
21
-13020
31
0
0
LINE
8
DIMENSION
6
CONTINUOUS
10
-1865
20
-11020
30
0
11
-2145
21
-11020
31
0
0
LINE
8
DIMENSION
6
CONTINUOUS
10
-2145
20
-13020
30
0
11
-2145
21
-11020
31
0
0
LINE
8
DIMENSION
6
CONTINUOUS
10
-2145
20
-13020
30
0
11
-2175
21
-13071.9615
31
0
0
LINE
8
DIMENSION
6
CONTINUOUS
10
-2145
20
-13020
30
0
11
-2115
21
-13071.9615
31
0
0
LINE
8
DIMENSION
6
CONTINUOUS
10
-2145
20
-11020
30
0
11
-2115
21
-10968.0385
31
0
0
LINE
8
DIMENSION
6
CONTINUOUS
10
-2145
20
-11020
30
0
11
-2175
21
-10968.0385
31
0
0
TEXT
8
DIMENSION
10
-2315
20
-12020
30
0
40
70
1
2000
50
90
0
LINE
8
DIMENSION
6
CONTINUOUS
10
-1865
20
-11020
30
0
11
-2145
21
-11020
31
0
0
LINE
8
DIMENSION
6
CONTINUOUS
10
-1865
20
-9020
30
0
11
-2145
21
-9020
31
0
0
LINE
8
DIMENSION
6
CONTINUOUS
10
-2145
20
-11020
30
0
11
-2145
21
-9020
31
0
0
LINE
8
DIMENSION
6
CONTINUOUS
10
-2145
20
-11020
30
0
11
-2175
21
-11071.9615
31
0
0
LINE
8
DIMENSION
6
CONTINUOUS
10
-2145
20
-11020
30
0
11
-2115
21
-11071.9615
31
0
0
LINE
8
DIMENSION
6
CONTINUOUS
10
-2145
20
-9020
30
0
11
-2115
21
-8968.0385
31
0
0
LINE
8
DIMENSION
6
CONTINUOUS
10
-2145
20
-9020
30
0
11
-2175
21
-8968.0385
31
0
0
TEXT
8
DIMENSION
10
-2315
20
-10020
30
0
40
70
1
2000
50
90
0
LINE
8
DIMENSION
6
CONTINUOUS
10
-1865
20
-9020
30
0
11
-2145
21
-9020
31
0
0
LINE
8
DIMENSION
6
CONTINUOUS
10
-1865
20
-8520
30
0
11
-2145
21
-8520
31
0
0
LINE
8
DIMENSION
6
CONTINUOUS
10
-2145
20
-9020
30
0
11
-2145
21
-8520
31
0
0
LINE
8
DIMENSION
6
CONTINUOUS
10
-2145
20
-9020
30
0
11
-2175
21
-9071.9615
31
0
0
LINE
8
DIMENSION
6
CONTINUOUS
10
-2145
20
-9020
30
0
11
-2115
21
-9071.9615
31
0
0
LINE
8
DIMENSION
6
CONTINUOUS
10
-2145
20
-8520
30
0
11
-2115
21
-8468.0385
31
0
0
LINE
8
DIMENSION
6
CONTINUOUS
10
-2145
20
-8520
30
0
11
-2175
21
-8468.0385
31
0
0
TEXT
8
DIMENSION
10
-2315
20
-8770
30
0
40
70
1
500
50
90
0
LINE
8
DIMENSION
6
CONTINUOUS
10
-1865
20
-8520
30
0
11
-2145
21
-8520
31
0
0
LINE
8
DIMENSION
6
CONTINUOUS
10
-1865
20
-8020
30
0
11
-2145
21
-8020
31
0
0
LINE
8
DIMENSION
6
CONTINUOUS
10
-2145
20
-8520
30
0
11
-2145
21
-8020
31
0
0
LINE
8
DIMENSION
6
CONTINUOUS
10
-2145
20
-8520
30
0
11
-2175
21
-8571.9615
31
0
0
LINE
8
DIMENSION
6
CONTINUOUS
10
-2145
20
-8520
30
0
11
-2115
21
-8571.9615
31
0
0
LINE
8
DIMENSION
6
CONTINUOUS
10
-2145
20
-8020
30
0
11
-2115
21
-7968.0385
31
0
0
LINE
8
DIMENSION
6
CONTINUOUS
10
-2145
20
-8020
30
0
11
-2175
21
-7968.0385
31
0
0
TEXT
8
DIMENSION
10
-2315
20
-8270
30
0
40
70
1
500
50
90
0
LINE
8
DIMENSION
6
CONTINUOUS
10
-1865
20
-8020
30
0
11
-2145
21
-8020
31
0
0
LINE
8
DIMENSION
6
CONTINUOUS
10
-1865
20
-7020
30
0
11
-2145
21
-7020
31
0
0
LINE
8
DIMENSION
6
CONTINUOUS
10
-2145
20
-8020
30
0
11
-2145
21
-7020
31
0
0
LINE
8
DIMENSION
6
CONTINUOUS
10
-2145
20
-8020
30
0
11
-2175
21
-8071.9615
31
0
0
LINE
8
DIMENSION
6
CONTINUOUS
10
-2145
20
-8020
30
0
11
-2115
21
-8071.9615
31
0
0
LINE
8
DIMENSION
6
CONTINUOUS
10
-2145
20
-7020
30
0
11
-2115
21
-6968.0385
31
0
0
LINE
8
DIMENSION
6
CONTINUOUS
10
-2145
20
-7020
30
0
11
-2175
21
-6968.0385
31
0
0
TEXT
8
DIMENSION
10
-2315
20
-7520
30
0
40
70
1
1000
50
90
0
LINE
8
DIMENSION
6
CONTINUOUS
10
-1865
20
-7020
30
0
11
-2145
21
-7020
31
0
0
LINE
8
DIMENSION
6
CONTINUOUS
10
-1865
20
-5020
30
0
11
-2145
21
-5020
31
0
0
LINE
8
DIMENSION
6
CONTINUOUS
10
-2145
20
-7020
30
0
11
-2145
21
-5020
31
0
0
LINE
8
DIMENSION
6
CONTINUOUS
10
-2145
20
-7020
30
0
11
-2175
21
-7071.9615
31
0
0
LINE
8
DIMENSION
6
CONTINUOUS
10
-2145
20
-7020
30
0
11
-2115
21
-7071.9615
31
0
0
LINE
8
DIMENSION
6
CONTINUOUS
10
-2145
20
-5020
30
0
11
-2115
21
-4968.0385
31
0
0
LINE
8
DIMENSION
6
CONTINUOUS
10
-2145
20
-5020
30
0
11
-2175
21
-4968.0385
31
0
0
TEXT
8
DIMENSION
10
-2315
20
-6020
30
0
40
70
1
2000
50
90
0
LINE
8
DIMENSION
6
CONTINUOUS
10
-1865
20
-5020
30
0
11
-2145
21
-5020
31
0
0
LINE
8
DIMENSION
6
CONTINUOUS
10
-1865
20
-3020
30
0
11
-2145
21
-3020
31
0
0
LINE
8
DIMENSION
6
CONTINUOUS
10
-2145
20
-5020
30
0
11
-2145
21
-3020
31
0
0
LINE
8
DIMENSION
6
CONTINUOUS
10
-2145
20
-5020
30
0
11
-2175
21
-5071.9615
31
0
0
LINE
8
DIMENSION
6
CONTINUOUS
10
-2145
20
-5020
30
0
11
-2115
21
-5071.9615
31
0
0
LINE
8
DIMENSION
6
CONTINUOUS
10
-2145
20
-3020
30
0
11
-2115
21
-2968.0385
31
0
0
LINE
8
DIMENSION
6
CONTINUOUS
10
-2145
20
-3020
30
0
11
-2175
21
-2968.0385
31
0
0
TEXT
8
DIMENSION
10
-2315
20
-4020
30
0
40
70
1
2000
50
90
0
LINE
8
DIMENSION
6
CONTINUOUS
10
-1865
20
-3020
30
0
11
-2145
21
-3020
31
0
0
LINE
8
DIMENSION
6
CONTINUOUS
10
-1865
20
-2520
30
0
11
-2145
21
-2520
31
0
0
LINE
8
DIMENSION
6
CONTINUOUS
10
-2145
20
-3020
30
0
11
-2145
21
-2520
31
0
0
LINE
8
DIMENSION
6
CONTINUOUS
10
-2145
20
-3020
30
0
11
-2175
21
-3071.9615
31
0
0
LINE
8
DIMENSION
6
CONTINUOUS
10
-2145
20
-3020
30
0
11
-2115
21
-3071.9615
31
0
0
LINE
8
DIMENSION
6
CONTINUOUS
10
-2145
20
-2520
30
0
11
-2115
21
-2468.0385
31
0
0
LINE
8
DIMENSION
6
CONTINUOUS
10
-2145
20
-2520
30
0
11
-2175
21
-2468.0385
31
0
0
TEXT
8
DIMENSION
10
-2315
20
-2770
30
0
40
70
1
500
50
90
0
LINE
8
DIMENSION
6
CONTINUOUS
10
-1865
20
-2520
30
0
11
-2145
21
-2520
31
0
0
LINE
8
DIMENSION
6
CONTINUOUS
10
-1865
20
-2020
30
0
11
-2145
21
-2020
31
0
0
LINE
8
DIMENSION
6
CONTINUOUS
10
-2145
20
-2520
30
0
11
-2145
21
-2020
31
0
0
LINE
8
DIMENSION
6
CONTINUOUS
10
-2145
20
-2520
30
0
11
-2175
21
-2571.9615
31
0
0
LINE
8
DIMENSION
6
CONTINUOUS
10
-2145
20
-2520
30
0
11
-2115
21
-2571.9615
31
0
0
LINE
8
DIMENSION
6
CONTINUOUS
10
-2145
20
-2020
30
0
11
-2115
21
-1968.0385
31
0
0
LINE
8
DIMENSION
6
CONTINUOUS
10
-2145
20
-2020
30
0
11
-2175
21
-1968.0385
31
0
0
TEXT
8
DIMENSION
10
-2315
20
-2270
30
0
40
70
1
500
50
90
0
LINE
8
DIMENSION
6
CONTINUOUS
10
-1865
20
-2020
30
0
11
-2145
21
-2020
31
0
0
LINE
8
DIMENSION
6
CONTINUOUS
10
-1865
20
-1020
30
0
11
-2145
21
-1020
31
0
0
LINE
8
DIMENSION
6
CONTINUOUS
10
-2145
20
-2020
30
0
11
-2145
21
-1020
31
0
0
LINE
8
DIMENSION
6
CONTINUOUS
10
-2145
20
-2020
30
0
11
-2175
21
-2071.9615
31
0
0
LINE
8
DIMENSION
6
CONTINUOUS
10
-2145
20
-2020
30
0
11
-2115
21
-2071.9615
31
0
0
LINE
8
DIMENSION
6
CONTINUOUS
10
-2145
20
-1020
30
0
11
-2115
21
-968.0385
31
0
0
LINE
8
DIMENSION
6
CONTINUOUS
10
-2145
20
-1020
30
0
11
-2175
21
-968.0385
31
0
0
TEXT
8
DIMENSION
10
-2315
20
-1520
30
0
40
70
1
1000
50
90
0
LINE
8
DIMENSION
6
CONTINUOUS
10
-1865
20
-1020
30
0
11
-2145
21
-1020
31
0
0
LINE
8
DIMENSION
6
CONTINUOUS
10
-1865
20
980
30
0
11
-2145
21
980
31
0
0
LINE
8
DIMENSION
6
CONTINUOUS
10
-2145
20
-1020
30
0
11
-2145
21
980
31
0
0
LINE
8
DIMENSION
6
CONTINUOUS
10
-2145
20
-1020
30
0
11
-2175
21
-1071.9615
31
0
0
LINE
8
DIMENSION
6
CONTINUOUS
10
-2145
20
-1020
30
0
11
-2115
21
-1071.9615
31
0
0
LINE
8
DIMENSION
6
CONTINUOUS
10
-2145
20
980
30
0
11
-2115
21
1031.9615
31
0
0
LINE
8
DIMENSION
6
CONTINUOUS
10
-2145
20
980
30
0
11
-2175
21
1031.9615
31
0
0
TEXT
8
DIMENSION
10
-2315
20
-20
30
0
40
70
1
2000
50
90
0
LINE
8
DIMENSION
6
CONTINUOUS
10
-1865
20
980
30
0
11
-2145
21
980
31
0
0
LINE
8
DIMENSION
6
CONTINUOUS
10
-1865
20
2980
30
0
11
-2145
21
2980
31
0
0
LINE
8
DIMENSION
6
CONTINUOUS
10
-2145
20
980
30
0
11
-2145
21
2980
31
0
0
LINE
8
DIMENSION
6
CONTINUOUS
10
-2145
20
980
30
0
11
-2175
21
928.0385
31
0
0
LINE
8
DIMENSION
6
CONTINUOUS
10
-2145
20
980
30
0
11
-2115
21
928.0385
31
0
0
LINE
8
DIMENSION
6
CONTINUOUS
10
-2145
20
2980
30
0
11
-2115
21
3031.9615
31
0
0
LINE
8
DIMENSION
6
CONTINUOUS
10
-2145
20
2980
30
0
11
-2175
21
3031.9615
31
0
0
TEXT
8
DIMENSION
10
-2315
20
1980
30
0
40
70
1
2000
50
90
0
LINE
8
DIMENSION
6
CONTINUOUS
10
-1865
20
2980
30
0
11
-2145
21
2980
31
0
0
LINE
8
DIMENSION
6
CONTINUOUS
10
-1865
20
3480
30
0
11
-2145
21
3480
31
0
0
LINE
8
DIMENSION
6
CONTINUOUS
10
-2145
20
2980
30
0
11
-2145
21
3480
31
0
0
LINE
8
DIMENSION
6
CONTINUOUS
10
-2145
20
2980
30
0
11
-2175
21
2928.0385
31
0
0
LINE
8
DIMENSION
6
CONTINUOUS
10
-2145
20
2980
30
0
11
-2115
21
2928.0385
31
0
0
LINE
8
DIMENSION
6
CONTINUOUS
10
-2145
20
3480
30
0
11
-2115
21
3531.9615
31
0
0
LINE
8
DIMENSION
6
CONTINUOUS
10
-2145
20
3480
30
0
11
-2175
21
3531.9615
31
0
0
TEXT
8
DIMENSION
10
-2315
20
3230
30
0
40
70
1
500
50
90
0
LINE
8
DIMENSION
6
CONTINUOUS
10
-1865
20
3480
30
0
11
-2145
21
3480
31
0
0
LINE
8
DIMENSION
6
CONTINUOUS
10
-1865
20
3980
30
0
11
-2145
21
3980
31
0
0
LINE
8
DIMENSION
6
CONTINUOUS
10
-2145
20
3480
30
0
11
-2145
21
3980
31
0
0
LINE
8
DIMENSION
6
CONTINUOUS
10
-2145
20
3480
30
0
11
-2175
21
3428.0385
31
0
0
LINE
8
DIMENSION
6
CONTINUOUS
10
-2145
20
3480
30
0
11
-2115
21
3428.0385
31
0
0
LINE
8
DIMENSION
6
CONTINUOUS
10
-2145
20
3980
30
0
11
-2115
21
4031.9615
31
0
0
LINE
8
DIMENSION
6
CONTINUOUS
10
-2145
20
3980
30
0
11
-2175
21
4031.9615
31
0
0
TEXT
8
DIMENSION
10
-2315
20
3730
30
0
40
70
1
500
50
90
0
LINE
8
DIMENSION
6
CONTINUOUS
10
-1865
20
3980
30
0
11
-2145
21
3980
31
0
0
LINE
8
DIMENSION
6
CONTINUOUS
10
-1865
20
4980
30
0
11
-2145
21
4980
31
0
0
LINE
8
DIMENSION
6
CONTINUOUS
10
-2145
20
3980
30
0
11
-2145
21
4980
31
0
0
LINE
8
DIMENSION
6
CONTINUOUS
10
-2145
20
3980
30
0
11
-2175
21
3928.0385
31
0
0
LINE
8
DIMENSION
6
CONTINUOUS
10
-2145
20
3980
30
0
11
-2115
21
3928.0385
31
0
0
LINE
8
DIMENSION
6
CONTINUOUS
10
-2145
20
4980
30
0
11
-2115
21
5031.9615
31
0
0
LINE
8
DIMENSION
6
CONTINUOUS
10
-2145
20
4980
30
0
11
-2175
21
5031.9615
31
0
0
TEXT
8
DIMENSION
10
-2315
20
4480
30
0
40
70
1
1000
50
90
0
LINE
8
DIMENSION
6
CONTINUOUS
10
-1865
20
4980
30
0
11
-2145
21
4980
31
0
0
LINE
8
DIMENSION
6
CONTINUOUS
10
-1865
20
6980
30
0
11
-2145
21
6980
31
0
0
LINE
8
DIMENSION
6
CONTINUOUS
10
-2145
20
4980
30
0
11
-2145
21
6980
31
0
0
LINE
8
DIMENSION
6
CONTINUOUS
10
-2145
20
4980
30
0
11
-2175
21
4928.0385
31
0
0
LINE
8
DIMENSION
6
CONTINUOUS
10
-2145
20
4980
30
0
11
-2115
21
4928.0385
31
0
0
LINE
8
DIMENSION
6
CONTINUOUS
10
-2145
20
6980
30
0
11
-2115
21
7031.9615
31
0
0
LINE
8
DIMENSION
6
CONTINUOUS
10
-2145
20
6980
30
0
11
-2175
21
7031.9615
31
0
0
TEXT
8
DIMENSION
10
-2315
20
5980
30
0
40
70
1
2000
50
90
0
LINE
8
DIMENSION
6
CONTINUOUS
10
-1865
20
6980
30
0
11
-2145
21
6980
31
0
0
LINE
8
DIMENSION
6
CONTINUOUS
10
-1865
20
8980
30
0
11
-2145
21
8980
31
0
0
LINE
8
DIMENSION
6
CONTINUOUS
10
-2145
20
6980
30
0
11
-2145
21
8980
31
0
0
LINE
8
DIMENSION
6
CONTINUOUS
10
-2145
20
6980
30
0
11
-2175
21
6928.0385
31
0
0
LINE
8
DIMENSION
6
CONTINUOUS
10
-2145
20
6980
30
0
11
-2115
21
6928.0385
31
0
0
LINE
8
DIMENSION
6
CONTINUOUS
10
-2145
20
8980
30
0
11
-2115
21
9031.9615
31
0
0
LINE
8
DIMENSION
6
CONTINUOUS
10
-2145
20
8980
30
0
11
-2175
21
9031.9615
31
0
0
TEXT
8
DIMENSION
10
-2315
20
7980
30
0
40
70
1
2000
50
90
0
LINE
8
DIMENSION
6
CONTINUOUS
10
-1865
20
8980
30
0
11
-2145
21
8980
31
0
0
LINE
8
DIMENSION
6
CONTINUOUS
10
-1865
20
9480
30
0
11
-2145
21
9480
31
0
0
LINE
8
DIMENSION
6
CONTINUOUS
10
-2145
20
8980
30
0
11
-2145
21
9480
31
0
0
LINE
8
DIMENSION
6
CONTINUOUS
10
-2145
20
8980
30
0
11
-2175
21
8928.0385
31
0
0
LINE
8
DIMENSION
6
CONTINUOUS
10
-2145
20
8980
30
0
11
-2115
21
8928.0385
31
0
0
LINE
8
DIMENSION
6
CONTINUOUS
10
-2145
20
9480
30
0
11
-2115
21
9531.9615
31
0
0
LINE
8
DIMENSION
6
CONTINUOUS
10
-2145
20
9480
30
0
11
-2175
21
9531.9615
31
0
0
TEXT
8
DIMENSION
10
-2315
20
9230
30
0
40
70
1
500
50
90
0
LINE
8
DIMENSION
6
CONTINUOUS
10
-1865
20
9480
30
0
11
-2145
21
9480
31
0
0
LINE
8
DIMENSION
6
CONTINUOUS
10
-1865
20
9980
30
0
11
-2145
21
9980
31
0
0
LINE
8
DIMENSION
6
CONTINUOUS
10
-2145
20
9480
30
0
11
-2145
21
9980
31
0
0
LINE
8
DIMENSION
6
CONTINUOUS
10
-2145
20
9480
30
0
11
-2175
21
9428.0385
31
0
0
LINE
8
DIMENSION
6
CONTINUOUS
10
-2145
20
9480
30
0
11
-2115
21
9428.0385
31
0
0
LINE
8
DIMENSION
6
CONTINUOUS
10
-2145
20
9980
30
0
11
-2115
21
10031.9615
31
0
0
LINE
8
DIMENSION
6
CONTINUOUS
10
-2145
20
9980
30
0
11
-2175
21
10031.9615
31
0
0
TEXT
8
DIMENSION
10
-2315
20
9730
30
0
40
70
1
500
50
90
0
LINE
8
DIMENSION
6
CONTINUOUS
10
-1865
20
9980
30
0
11
-2145
21
9980
31
0
0
LINE
8
DIMENSION
6
CONTINUOUS
10
-1865
20
10980
30
0
11
-2145
21
10980
31
0
0
LINE
8
DIMENSION
6
CONTINUOUS
10
-2145
20
9980
30
0
11
-2145
21
10980
31
0
0
LINE
8
DIMENSION
6
CONTINUOUS
10
-2145
20
9980
30
0
11
-2175
21
9928.0385
31
0
0
LINE
8
DIMENSION
6
CONTINUOUS
10
-2145
20
9980
30
0
11
-2115
21
9928.0385
31
0
0
LINE
8
DIMENSION
6
CONTINUOUS
10
-2145
20
10980
30
0
11
-2115
21
11031.9615
31
0
0
LINE
8
DIMENSION
6
CONTINUOUS
10
-2145
20
10980
30
0
11
-2175
21
11031.9615
31
0
0
TEXT
8
DIMENSION
10
-2315
20
10480
30
0
40
70
1
1000
50
90
0
LINE
8
DIMENSION
6
CONTINUOUS
10
-1865
20
10980
30
0
11
-2145
21
10980
31
0
0
LINE
8
DIMENSION
6
CONTINUOUS
10
-1865
20
12980
30
0
11
-2145
21
12980
31
0
0
LINE
8
DIMENSION
6
CONTINUOUS
10
-2145
20
10980
30
0
11
-2145
21
12980
31
0
0
LINE
8
DIMENSION
6
CONTINUOUS
10
-2145
20
10980
30
0
11
-2175
21
10928.0385
31
0
0
LINE
8
DIMENSION
6
CONTINUOUS
10
-2145
20
10980
30
0
11
-2115
21
10928.0385
31
0
0
LINE
8
DIMENSION
6
CONTINUOUS
10
-2145
20
12980
30
0
11
-2115
21
13031.9615
31
0
0
LINE
8
DIMENSION
6
CONTINUOUS
10
-2145
20
12980
30
0
11
-2175
21
13031.9615
31
0
0
TEXT
8
DIMENSION
10
-2315
20
11980
30
0
40
70
1
2000
50
90
0
LINE
8
DIMENSION
6
CONTINUOUS
10
-1865
20
12980
30
0
11
-2145
21
12980
31
0
0
LINE
8
DIMENSION
6
CONTINUOUS
10
-1865
20
13980
30
0
11
-2145
21
13980
31
0
0
LINE
8
DIMENSION
6
CONTINUOUS
10
-2145
20
12980
30
0
11
-2145
21
13980
31
0
0
LINE
8
DIMENSION
6
CONTINUOUS
10
-2145
20
12980
30
0
11
-2175
21
12928.0385
31
0
0
LINE
8
DIMENSION
6
CONTINUOUS
10
-2145
20
12980
30
0
11
-2115
21
12928.0385
31
0
0
LINE
8
DIMENSION
6
CONTINUOUS
10
-2145
20
13980
30
0
11
-2115
21
14031.9615
31
0
0
LINE
8
DIMENSION
6
CONTINUOUS
10
-2145
20
13980
30
0
11
-2175
21
14031.9615
31
0
0
TEXT
8
DIMENSION
10
-2315
20
13480
30
0
40
70
1
1000
50
90
0
LINE
8
DIMENSION
6
CONTINUOUS
10
-1865
20
13980
30
0
11
-2145
21
13980
31
0
0
LINE
8
DIMENSION
6
CONTINUOUS
10
-1865
20
14480
30
0
11
-2145
21
14480
31
0
0
LINE
8
DIMENSION
6
CONTINUOUS
10
-2145
20
13980
30
0
11
-2145
21
14480
31
0
0
LINE
8
DIMENSION
6
CONTINUOUS
10
-2145
20
13980
30
0
11
-2175
21
13928.0385
31
0
0
LINE
8
DIMENSION
6
CONTINUOUS
10
-2145
20
13980
30
0
11
-2115
21
13928.0385
31
0
0
LINE
8
DIMENSION
6
CONTINUOUS
10
-2145
20
14480
30
0
11
-2115
21
14531.9615
31
0
0
LINE
8
DIMENSION
6
CONTINUOUS
10
-2145
20
14480
30
0
11
-2175
21
14531.9615
31
0
0
TEXT
8
DIMENSION
10
-2315
20
14230
30
0
40
70
1
500
50
90
0
LINE
8
DIMENSION
6
CONTINUOUS
10
-1865
20
14480
30
0
11
-2145
21
14480
31
0
0
LINE
8
DIMENSION
6
CONTINUOUS
10
-1865
20
14980
30
0
11
-2145
21
14980
31
0
0
LINE
8
DIMENSION
6
CONTINUOUS
10
-2145
20
14480
30
0
11
-2145
21
14980
31
0
0
LINE
8
DIMENSION
6
CONTINUOUS
10
-2145
20
14480
30
0
11
-2175
21
14428.0385
31
0
0
LINE
8
DIMENSION
6
CONTINUOUS
10
-2145
20
14480
30
0
11
-2115
21
14428.0385
31
0
0
LINE
8
DIMENSION
6
CONTINUOUS
10
-2145
20
14980
30
0
11
-2115
21
15031.9615
31
0
0
LINE
8
DIMENSION
6
CONTINUOUS
10
-2145
20
14980
30
0
11
-2175
21
15031.9615
31
0
0
TEXT
8
DIMENSION
10
-2315
20
14730
30
0
40
70
1
500
50
90
0
TEXT
8
DIMENSION
10
195
20
-15280
30
0
40
70
1
FRONT VIEW TYPICAL FOR
50
0
0
TEXT
8
DIMENSION
10
195
20
-15440
30
0
40
70
1
GRID LINE B, D (1-5)
50
0
0
LINE
8
PIPES
6
CONTINUOUS
10
4295
20
-15020
30
0
11
4295
21
-14719.999
31
0
0
LINE
8
PIPES
6
CONTINUOUS
10
5295
20
-15020
30
0
11
5295
21
-14719.999
31
0
0
LINE
8
PIPES
6
CONTINUOUS
10
7295.01
20
-15020
30
0
11
7295.01
21
-14719.999
31
0
0
LINE
8
PIPES
6
CONTINUOUS
10
8295.01
20
-15020
30
0
11
8295.01
21
-14719.999
31
0
0
LINE
8
PIPES
6
CONTINUOUS
10
4295
20
-14719.999
30
0
11
5295
21
-14719.999
31
0
0
LINE
8
PIPES
6
CONTINUOUS
10
7295.01
20
-14719.999
30
0
11
8295.01
21
-14719.999
31
0
0
LINE
8
PIPES
6
CONTINUOUS
10
4295
20
-14719.999
30
0
11
4295
21
-13020
31
0
0
LINE
8
PIPES
6
CONTINUOUS
10
5295
20
-14719.999
30
0
11
5295
21
-13020
31
0
0
LINE
8
PIPES
6
CONTINUOUS
10
7295.01
20
-14719.999
30
0
11
7295.01
21
-13020
31
0
0
LINE
8
PIPES
6
CONTINUOUS
10
8295.01
20
-14719.999
30
0
11
8295.01
21
-13020
31
0
0
LINE
8
PIPES
6
CONTINUOUS
10
4295
20
-13020
30
0
11
5295
21
-13020
31
0
0
LINE
8
PIPES
6
CONTINUOUS
10
7295.01
20
-13020
30
0
11
8295.01
21
-13020
31
0
0
LINE
8
PIPES
6
CONTINUOUS
10
4295
20
-13020
30
0
11
4295
21
-11020
31
0
0
LINE
8
PIPES
6
CONTINUOUS
10
5295
20
-13020
30
0
11
5295
21
-11020
31
0
0
LINE
8
PIPES
6
CONTINUOUS
10
7295.01
20
-13020
30
0
11
7295.01
21
-11020
31
0
0
LINE
8
PIPES
6
CONTINUOUS
10
8295.01
20
-13020
30
0
11
8295.01
21
-11020
31
0
0
LINE
8
PIPES
6
CONTINUOUS
10
4295
20
-11020
30
0
11
5295
21
-11020
31
0
0
LINE
8
PIPES
6
CONTINUOUS
10
7295.01
20
-11020
30
0
11
8295.01
21
-11020
31
0
0
LINE
8
PIPES
6
CONTINUOUS
10
4295
20
-11020
30
0
11
4295
21
-9019.99
31
0
0
LINE
8
PIPES
6
CONTINUOUS
10
5295
20
-11020
30
0
11
5295
21
-9019.99
31
0
0
LINE
8
PIPES
6
CONTINUOUS
10
7295.01
20
-11020
30
0
11
7295.01
21
-9019.99
31
0
0
LINE
8
PIPES
6
CONTINUOUS
10
8295.01
20
-11020
30
0
11
8295.01
21
-9019.99
31
0
0
LINE
8
PIPES
6
CONTINUOUS
10
4295
20
-9019.99
30
0
11
5295
21
-9019.99
31
0
0
LINE
8
PIPES
6
CONTINUOUS
10
7295.01
20
-9019.99
30
0
11
8295.01
21
-9019.99
31
0
0
LINE
8
PIPES
6
CONTINUOUS
10
4295
20
-9019.99
30
0
11
4295
21
-8519.99
31
0
0
LINE
8
PIPES
6
CONTINUOUS
10
5295
20
-9019.99
30
0
11
5295
21
-8519.99
31
0
0
LINE
8
PIPES
6
CONTINUOUS
10
7295.01
20
-9019.99
30
0
11
7295.01
21
-8519.99
31
0
0
LINE
8
PIPES
6
CONTINUOUS
10
8295.01
20
-9019.99
30
0
11
8295.01
21
-8519.99
31
0
0
LINE
8
PIPES
6
CONTINUOUS
10
4295
20
-7019.99
30
0
11
5295
21
-7019.99
31
0
0
LINE
8
PIPES
6
CONTINUOUS
10
7295.01
20
-7019.99
30
0
11
8295.01
21
-7019.99
31
0
0
LINE
8
PIPES
6
CONTINUOUS
10
4295
20
-7019.99
30
0
11
4295
21
-5020
31
0
0
LINE
8
PIPES
6
CONTINUOUS
10
5295
20
-7019.99
30
0
11
5295
21
-5020
31
0
0
LINE
8
PIPES
6
CONTINUOUS
10
7295.01
20
-7019.99
30
0
11
7295.01
21
-5020
31
0
0
LINE
8
PIPES
6
CONTINUOUS
10
8295.01
20
-7019.99
30
0
11
8295.01
21
-5020
31
0
0
LINE
8
PIPES
6
CONTINUOUS
10
4295
20
-5020
30
0
11
5295
21
-5020
31
0
0
LINE
8
PIPES
6
CONTINUOUS
10
7295.01
20
-5020
30
0
11
8295.01
21
-5020
31
0
0
LINE
8
PIPES
6
CONTINUOUS
10
4295
20
-5020
30
0
11
4295
21
-3020
31
0
0
LINE
8
PIPES
6
CONTINUOUS
10
5295
20
-5020
30
0
11
5295
21
-3020
31
0
0
LINE
8
PIPES
6
CONTINUOUS
10
7295.01
20
-5020
30
0
11
7295.01
21
-3020
31
0
0
LINE
8
PIPES
6
CONTINUOUS
10
8295.01
20
-5020
30
0
11
8295.01
21
-3020
31
0
0
LINE
8
PIPES
6
CONTINUOUS
10
4295
20
-3020
30
0
11
5295
21
-3020
31
0
0
LINE
8
PIPES
6
CONTINUOUS
10
7295.01
20
-3020
30
0
11
8295.01
21
-3020
31
0
0
LINE
8
PIPES
6
CONTINUOUS
10
4295
20
-3020
30
0
11
4295
21
-2520
31
0
0
LINE
8
PIPES
6
CONTINUOUS
10
5295
20
-3020
30
0
11
5295
21
-2520
31
0
0
LINE
8
PIPES
6
CONTINUOUS
10
7295.01
20
-3020
30
0
11
7295.01
21
-2520
31
0
0
LINE
8
PIPES
6
CONTINUOUS
10
8295.01
20
-3020
30
0
11
8295.01
21
-2520
31
0
0
LINE
8
PIPES
6
CONTINUOUS
10
4295
20
-1020
30
0
11
5295
21
-1020
31
0
0
LINE
8
PIPES
6
CONTINUOUS
10
7295.01
20
-1020
30
0
11
8295.01
21
-1020
31
0
0
LINE
8
PIPES
6
CONTINUOUS
10
4295
20
-1020
30
0
11
4295
21
980
31
0
0
LINE
8
PIPES
6
CONTINUOUS
10
5295
20
-1020
30
0
11
5295
21
980
31
0
0
LINE
8
PIPES
6
CONTINUOUS
10
7295.01
20
-1020
30
0
11
7295.01
21
980
31
0
0
LINE
8
PIPES
6
CONTINUOUS
10
8295.01
20
-1020
30
0
11
8295.01
21
980
31
0
0
LINE
8
PIPES
6
CONTINUOUS
10
4295
20
980
30
0
11
5295
21
980
31
0
0
LINE
8
PIPES
6
CONTINUOUS
10
7295.01
20
980
30
0
11
8295.01
21
980
31
0
0
LINE
8
PIPES
6
CONTINUOUS
10
4295
20
980
30
0
11
4295
21
2980
31
0
0
LINE
8
PIPES
6
CONTINUOUS
10
5295
20
980
30
0
11
5295
21
2980
31
0
0
LINE
8
PIPES
6
CONTINUOUS
10
7295.01
20
980
30
0
11
7295.01
21
2980
31
0
0
LINE
8
PIPES
6
CONTINUOUS
10
8295.01
20
980
30
0
11
8295.01
21
2980
31
0
0
LINE
8
PIPES
6
CONTINUOUS
10
4295
20
2980
30
0
11
5295
21
2980
31
0
0
LINE
8
PIPES
6
CONTINUOUS
10
7295.01
20
2980
30
0
11
8295.01
21
2980
31
0
0
LINE
8
PIPES
6
CONTINUOUS
10
4295
20
2980
30
0
11
4295
21
3480
31
0
0
LINE
8
PIPES
6
CONTINUOUS
10
5295
20
2980
30
0
11
5295
21
3480
31
0
0
LINE
8
PIPES
6
CONTINUOUS
10
7295.01
20
2980
30
0
11
7295.01
21
3480
31
0
0
LINE
8
PIPES
6
CONTINUOUS
10
8295.01
20
2980
30
0
11
8295.01
21
3480
31
0
0
LINE
8
PIPES
6
CONTINUOUS
10
4295
20
4980
30
0
11
5295
21
4980
31
0
0
LINE
8
PIPES
6
CONTINUOUS
10
7295.01
20
4980
30
0
11
8295.01
21
4980
31
0
0
LINE
8
PIPES
6
CONTINUOUS
10
4295
20
4980
30
0
11
4295
21
6980
31
0
0
LINE
8
PIPES
6
CONTINUOUS
10
5295
20
4980
30
0
11
5295
21
6980
31
0
0
LINE
8
PIPES
6
CONTINUOUS
10
7295.01
20
4980
30
0
11
7295.01
21
6980
31
0
0
LINE
8
PIPES
6
CONTINUOUS
10
8295.01
20
4980
30
0
11
8295.01
21
6980
31
0
0
LINE
8
PIPES
6
CONTINUOUS
10
4295
20
6980
30
0
11
5295
21
6980
31
0
0
LINE
8
PIPES
6
CONTINUOUS
10
7295.01
20
6980
30
0
11
8295.01
21
6980
31
0
0
LINE
8
PIPES
6
CONTINUOUS
10
4295
20
6980
30
0
11
4295
21
8980
31
0
0
LINE
8
PIPES
6
CONTINUOUS
10
5295
20
6980
30
0
11
5295
21
8980
31
0
0
LINE
8
PIPES
6
CONTINUOUS
10
7295.01
20
6980
30
0
11
7295.01
21
8980
31
0
0
LINE
8
PIPES
6
CONTINUOUS
10
8295.01
20
6980
30
0
11
8295.01
21
8980
31
0
0
LINE
8
PIPES
6
CONTINUOUS
10
4295
20
8980
30
0
11
5295
21
8980
31
0
0
LINE
8
PIPES
6
CONTINUOUS
10
7295.01
20
8980
30
0
11
8295.01
21
8980
31
0
0
LINE
8
PIPES
6
CONTINUOUS
10
4295
20
8980
30
0
11
4295
21
9480
31
0
0
LINE
8
PIPES
6
CONTINUOUS
10
5295
20
8980
30
0
11
5295
21
9480
31
0
0
LINE
8
PIPES
6
CONTINUOUS
10
7295.01
20
8980
30
0
11
7295.01
21
9480
31
0
0
LINE
8
PIPES
6
CONTINUOUS
10
8295.01
20
8980
30
0
11
8295.01
21
9480
31
0
0
LINE
8
PIPES
6
CONTINUOUS
10
4295
20
10980
30
0
11
5295
21
10980
31
0
0
LINE
8
PIPES
6
CONTINUOUS
10
7295.01
20
10980
30
0
11
8295.01
21
10980
31
0
0
LINE
8
PIPES
6
CONTINUOUS
10
4295
20
10980
30
0
11
4295
21
12980.1
31
0
0
LINE
8
PIPES
6
CONTINUOUS
10
5295
20
10980
30
0
11
5295
21
12980.1
31
0
0
LINE
8
PIPES
6
CONTINUOUS
10
7295.01
20
10980
30
0
11
7295.01
21
12980.1
31
0
0
LINE
8
PIPES
6
CONTINUOUS
10
8295.01
20
10980
30
0
11
8295.01
21
12980.1
31
0
0
LINE
8
PIPES
6
CONTINUOUS
10
4295
20
12980.1
30
0
11
5295
21
12980.1
31
0
0
LINE
8
PIPES
6
CONTINUOUS
10
7295.01
20
12980.1
30
0
11
8295.01
21
12980.1
31
0
0
LINE
8
PIPES
6
CONTINUOUS
10
4295
20
12980.1
30
0
11
4295
21
13980.1
31
0
0
LINE
8
PIPES
6
CONTINUOUS
10
5295
20
12980.1
30
0
11
5295
21
13980.1
31
0
0
LINE
8
PIPES
6
CONTINUOUS
10
7295.01
20
12980.1
30
0
11
7295.01
21
13980.1
31
0
0
LINE
8
PIPES
6
CONTINUOUS
10
8295.01
20
12980.1
30
0
11
8295.01
21
13980.1
31
0
0
LINE
8
PIPES
6
CONTINUOUS
10
4295
20
13980.1
30
0
11
5295
21
13980.1
31
0
0
LINE
8
PIPES
6
CONTINUOUS
10
7295.01
20
13980.1
30
0
11
8295.01
21
13980.1
31
0
0
LINE
8
PIPES
6
CONTINUOUS
10
4295
20
-13020
30
0
11
5295
21
-14719.999
31
0
0
LINE
8
PIPES
6
CONTINUOUS
10
7295.01
20
-13020
30
0
11
8295.01
21
-14719.999
31
0
0
LINE
8
PIPES
6
CONTINUOUS
10
4295
20
-11020
30
0
11
5295
21
-13020
31
0
0
LINE
8
PIPES
6
CONTINUOUS
10
7295.01
20
-11020
30
0
11
8295.01
21
-13020
31
0
0
LINE
8
PIPES
6
CONTINUOUS
10
4295
20
-9019.99
30
0
11
5295
21
-11020
31
0
0
LINE
8
PIPES
6
CONTINUOUS
10
7295.01
20
-9019.99
30
0
11
8295.01
21
-11020
31
0
0
LINE
8
PIPES
6
CONTINUOUS
10
4295
20
-7019.99
30
0
11
5295
21
-9019.99
31
0
0
LINE
8
PIPES
6
CONTINUOUS
10
7295.01
20
-7019.99
30
0
11
8295.01
21
-9019.99
31
0
0
LINE
8
PIPES
6
CONTINUOUS
10
4295
20
-5020
30
0
11
5295
21
-7019.99
31
0
0
LINE
8
PIPES
6
CONTINUOUS
10
7295.01
20
-5020
30
0
11
8295.01
21
-7019.99
31
0
0
LINE
8
PIPES
6
CONTINUOUS
10
4295
20
-3020
30
0
11
5295
21
-5020
31
0
0
LINE
8
PIPES
6
CONTINUOUS
10
7295.01
20
-3020
30
0
11
8295.01
21
-5020
31
0
0
LINE
8
PIPES
6
CONTINUOUS
10
4295
20
-1020
30
0
11
5295
21
-3020
31
0
0
LINE
8
PIPES
6
CONTINUOUS
10
7295.01
20
-1020
30
0
11
8295.01
21
-3020
31
0
0
LINE
8
PIPES
6
CONTINUOUS
10
4295
20
980
30
0
11
5295
21
-1020
31
0
0
LINE
8
PIPES
6
CONTINUOUS
10
7295.01
20
980
30
0
11
8295.01
21
-1020
31
0
0
LINE
8
PIPES
6
CONTINUOUS
10
4295
20
2980
30
0
11
5295
21
980
31
0
0
LINE
8
PIPES
6
CONTINUOUS
10
7295.01
20
2980
30
0
11
8295.01
21
980
31
0
0
LINE
8
PIPES
6
CONTINUOUS
10
4295
20
4980
30
0
11
5295
21
2980
31
0
0
LINE
8
PIPES
6
CONTINUOUS
10
7295.01
20
4980
30
0
11
8295.01
21
2980
31
0
0
LINE
8
PIPES
6
CONTINUOUS
10
4295
20
6980
30
0
11
5295
21
4980
31
0
0
LINE
8
PIPES
6
CONTINUOUS
10
7295.01
20
6980
30
0
11
8295.01
21
4980
31
0
0
LINE
8
PIPES
6
CONTINUOUS
10
4295
20
8980
30
0
11
5295
21
6980
31
0
0
LINE
8
PIPES
6
CONTINUOUS
10
7295.01
20
8980
30
0
11
8295.01
21
6980
31
0
0
LINE
8
PIPES
6
CONTINUOUS
10
4295
20
10980
30
0
11
5295
21
8980
31
0
0
LINE
8
PIPES
6
CONTINUOUS
10
7295.01
20
10980
30
0
11
8295.01
21
8980
31
0
0
LINE
8
PIPES
6
CONTINUOUS
10
4295
20
12980.1
30
0
11
5295
21
10980
31
0
0
LINE
8
PIPES
6
CONTINUOUS
10
7295.01
20
12980.1
30
0
11
8295.01
21
10980
31
0
0
LINE
8
PIPES
6
CONTINUOUS
10
4295
20
13980.1
30
0
11
5295
21
12980.1
31
0
0
LINE
8
PIPES
6
CONTINUOUS
10
7295.01
20
13980.1
30
0
11
8295.01
21
12980.1
31
0
0
LINE
8
PIPES
6
CONTINUOUS
10
4295
20
13980.1
30
0
11
4295
21
14480.1
31
0
0
LINE
8
PIPES
6
CONTINUOUS
10
5295
20
13980.1
30
0
11
5295
21
14480.1
31
0
0
LINE
8
PIPES
6
CONTINUOUS
10
7295.01
20
13980.1
30
0
11
7295.01
21
14480.1
31
0
0
LINE
8
PIPES
6
CONTINUOUS
10
8295.01
20
13980.1
30
0
11
8295.01
21
14480.1
31
0
0
LINE
8
PIPES
6
CONTINUOUS
10
4295
20
14480.1
30
0
11
4295
21
14980.1
31
0
0
LINE
8
PIPES
6
CONTINUOUS
10
5295
20
14480.1
30
0
11
5295
21
14980.1
31
0
0
LINE
8
PIPES
6
CONTINUOUS
10
7295.01
20
14480.1
30
0
11
7295.01
21
14980.1
31
0
0
LINE
8
PIPES
6
CONTINUOUS
10
8295.01
20
14480.1
30
0
11
8295.01
21
14980.1
31
0
0
LINE
8
PIPES
6
CONTINUOUS
10
4295
20
-8519.99
30
0
11
4295
21
-8019.99
31
0
0
LINE
8
PIPES
6
CONTINUOUS
10
5295
20
-8519.99
30
0
11
5295
21
-8019.99
31
0
0
LINE
8
PIPES
6
CONTINUOUS
10
7295.01
20
-8519.99
30
0
11
7295.01
21
-8019.99
31
0
0
LINE
8
PIPES
6
CONTINUOUS
10
8295.01
20
-8519.99
30
0
11
8295.01
21
-8019.99
31
0
0
LINE
8
PIPES
6
CONTINUOUS
10
4295
20
-2520
30
0
11
4295
21
-2020
31
0
0
LINE
8
PIPES
6
CONTINUOUS
10
5295
20
-2520
30
0
11
5295
21
-2020
31
0
0
LINE
8
PIPES
6
CONTINUOUS
10
7295.01
20
-2520
30
0
11
7295.01
21
-2020
31
0
0
LINE
8
PIPES
6
CONTINUOUS
10
8295.01
20
-2520
30
0
11
8295.01
21
-2020
31
0
0
LINE
8
PIPES
6
CONTINUOUS
10
4295
20
3480
30
0
11
4295
21
3980
31
0
0
LINE
8
PIPES
6
CONTINUOUS
10
5295
20
3480
30
0
11
5295
21
3980
31
0
0
LINE
8
PIPES
6
CONTINUOUS
10
7295.01
20
3480
30
0
11
7295.01
21
3980
31
0
0
LINE
8
PIPES
6
CONTINUOUS
10
8295.01
20
3480
30
0
11
8295.01
21
3980
31
0
0
LINE
8
PIPES
6
CONTINUOUS
10
4295
20
9480
30
0
11
4295
21
9980
31
0
0
LINE
8
PIPES
6
CONTINUOUS
10
5295
20
9480
30
0
11
5295
21
9980
31
0
0
LINE
8
PIPES
6
CONTINUOUS
10
7295.01
20
9480
30
0
11
7295.01
21
9980
31
0
0
LINE
8
PIPES
6
CONTINUOUS
10
8295.01
20
9480
30
0
11
8295.01
21
9980
31
0
0
LINE
8
PIPES
6
CONTINUOUS
10
4295
20
-8019.99
30
0
11
4295
21
-7019.99
31
0
0
LINE
8
PIPES
6
CONTINUOUS
10
5295
20
-8019.99
30
0
11
5295
21
-7019.99
31
0
0
LINE
8
PIPES
6
CONTINUOUS
10
7295.01
20
-8019.99
30
0
11
7295.01
21
-7019.99
31
0
0
LINE
8
PIPES
6
CONTINUOUS
10
8295.01
20
-8019.99
30
0
11
8295.01
21
-7019.99
31
0
0
LINE
8
PIPES
6
CONTINUOUS
10
4295
20
-2020
30
0
11
4295
21
-1020
31
0
0
LINE
8
PIPES
6
CONTINUOUS
10
5295
20
-2020
30
0
11
5295
21
-1020
31
0
0
LINE
8
PIPES
6
CONTINUOUS
10
7295.01
20
-2020
30
0
11
7295.01
21
-1020
31
0
0
LINE
8
PIPES
6
CONTINUOUS
10
8295.01
20
-2020
30
0
11
8295.01
21
-1020
31
0
0
LINE
8
PIPES
6
CONTINUOUS
10
4295
20
3980
30
0
11
4295
21
4980
31
0
0
LINE
8
PIPES
6
CONTINUOUS
10
5295
20
3980
30
0
11
5295
21
4980
31
0
0
LINE
8
PIPES
6
CONTINUOUS
10
7295.01
20
3980
30
0
11
7295.01
21
4980
31
0
0
LINE
8
PIPES
6
CONTINUOUS
10
8295.01
20
3980
30
0
11
8295.01
21
4980
31
0
0
LINE
8
PIPES
6
CONTINUOUS
10
4295
20
9980
30
0
11
4295
21
10980
31
0
0
LINE
8
PIPES
6
CONTINUOUS
10
5295
20
9980
30
0
11
5295
21
10980
31
0
0
LINE
8
PIPES
6
CONTINUOUS
10
7295.01
20
9980
30
0
11
7295.01
21
10980
31
0
0
LINE
8
PIPES
6
CONTINUOUS
10
8295.01
20
9980
30
0
11
8295.01
21
10980
31
0
0
CIRCLE
8
BUBBLE
10
4295
20
15320
30
0
40
120
0
TEXT
8
BUBBLE
10
4295
20
15320
30
0
40
90
1
1
50
0
0
CIRCLE
8
BUBBLE
10
5295
20
15320
30
0
40
120
0
TEXT
8
BUBBLE
10
5295
20
15320
30
0
40
90
1
2
50
0
0
CIRCLE
8
BUBBLE
10
6295
20
15320
30
0
40
120
0
TEXT
8
BUBBLE
10
6295
20
15320
30
0
40
90
1
3
50
0
0
CIRCLE
8
BUBBLE
10
7295
20
15320
30
0
40
120
0
TEXT
8
BUBBLE
10
7295
20
15320
30
0
40
90
1
4
50
0
0
CIRCLE
8
BUBBLE
10
8295
20
15320
30
0
40
120
0
TEXT
8
BUBBLE
10
8295
20
15320
30
0
40
90
1
5
50
0
0
LINE
8
DIMENSION
6
CONTINUOUS
10
4295
20
15040
30
0
11
4295
21
15160
31
0
0
LINE
8
DIMENSION
6
CONTINUOUS
10
5295
20
15040
30
0
11
5295
21
15160
31
0
0
LINE
8
DIMENSION
6
CONTINUOUS
10
4295
20
15160
30
0
11
5295
21
15160
31
0
0
LINE
8
DIMENSION
6
CONTINUOUS
10
4295
20
15160
30
0
11
4243.0385
21
15190
31
0
0
LINE
8
DIMENSION
6
CONTINUOUS
10
4295
20
15160
30
0
11
4243.0385
21
15130
31
0
0
LINE
8
DIMENSION
6
CONTINUOUS
10
5295
20
15160
30
0
11
5346.9615
21
15130
31
0
0
LINE
8
DIMENSION
6
CONTINUOUS
10
5295
20
15160
30
0
11
5346.9615
21
15190
31
0
0
TEXT
8
DIMENSION
10
4795
20
15330
30
0
40
70
1
1000
50
0
0
LINE
8
DIMENSION
6
CONTINUOUS
10
5295
20
15040
30
0
11
5295
21
15160
31
0
0
LINE
8
DIMENSION
6
CONTINUOUS
10
6295
20
15040
30
0
11
6295
21
15160
31
0
0
LINE
8
DIMENSION
6
CONTINUOUS
10
5295
20
15160
30
0
11
6295
21
15160
31
0
0
LINE
8
DIMENSION
6
CONTINUOUS
10
5295
20
15160
30
0
11
5243.0385
21
15190
31
0
0
LINE
8
DIMENSION
6
CONTINUOUS
10
5295
20
15160
30
0
11
5243.0385
21
15130
31
0
0
LINE
8
DIMENSION
6
CONTINUOUS
10
6295
20
15160
30
0
11
6346.9615
21
15130
31
0
0
LINE
8
DIMENSION
6
CONTINUOUS
10
6295
20
15160
30
0
11
6346.9615
21
15190
31
0
0
TEXT
8
DIMENSION
10
5795
20
15330
30
0
40
70
1
1000
50
0
0
LINE
8
DIMENSION
6
CONTINUOUS
10
6295
20
15040
30
0
11
6295
21
15160
31
0
0
LINE
8
DIMENSION
6
CONTINUOUS
10
7295
20
15040
30
0
11
7295
21
15160
31
0
0
LINE
8
DIMENSION
6
CONTINUOUS
10
6295
20
15160
30
0
11
7295
21
15160
31
0
0
LINE
8
DIMENSION
6
CONTINUOUS
10
6295
20
15160
30
0
11
6243.0385
21
15190
31
0
0
LINE
8
DIMENSION
6
CONTINUOUS
10
6295
20
15160
30
0
11
6243.0385
21
15130
31
0
0
LINE
8
DIMENSION
6
CONTINUOUS
10
7295
20
15160
30
0
11
7346.9615
21
15130
31
0
0
LINE
8
DIMENSION
6
CONTINUOUS
10
7295
20
15160
30
0
11
7346.9615
21
15190
31
0
0
TEXT
8
DIMENSION
10
6795
20
15330
30
0
40
70
1
1000
50
0
0
LINE
8
DIMENSION
6
CONTINUOUS
10
7295
20
15040
30
0
11
7295
21
15160
31
0
0
LINE
8
DIMENSION
6
CONTINUOUS
10
8295
20
15040
30
0
11
8295
21
15160
31
0
0
LINE
8
DIMENSION
6
CONTINUOUS
10
7295
20
15160
30
0
11
8295
21
15160
31
0
0
LINE
8
DIMENSION
6
CONTINUOUS
10
7295
20
15160
30
0
11
7243.0385
21
15190
31
0
0
LINE
8
DIMENSION
6
CONTINUOUS
10
7295
20
15160
30
0
11
7243.0385
21
15130
31
0
0
LINE
8
DIMENSION
6
CONTINUOUS
10
8295
20
15160
30
0
11
8346.9615
21
15130
31
0
0
LINE
8
DIMENSION
6
CONTINUOUS
10
8295
20
15160
30
0
11
8346.9615
21
15190
31
0
0
TEXT
8
DIMENSION
10
7795
20
15330
30
0
40
70
1
1000
50
0
0
LINE
8
DIMENSION
6
CONTINUOUS
10
4235
20
-14720
30
0
11
3955
21
-14720
31
0
0
LINE
8
DIMENSION
6
CONTINUOUS
10
4235
20
-13020
30
0
11
3955
21
-13020
31
0
0
LINE
8
DIMENSION
6
CONTINUOUS
10
3955
20
-14720
30
0
11
3955
21
-13020
31
0
0
LINE
8
DIMENSION
6
CONTINUOUS
10
3955
20
-14720
30
0
11
3925
21
-14771.9615
31
0
0
LINE
8
DIMENSION
6
CONTINUOUS
10
3955
20
-14720
30
0
11
3985
21
-14771.9615
31
0
0
LINE
8
DIMENSION
6
CONTINUOUS
10
3955
20
-13020
30
0
11
3985
21
-12968.0385
31
0
0
LINE
8
DIMENSION
6
CONTINUOUS
10
3955
20
-13020
30
0
11
3925
21
-12968.0385
31
0
0
TEXT
8
DIMENSION
10
3785
20
-13870
30
0
40
70
1
1700
50
90
0
LINE
8
DIMENSION
6
CONTINUOUS
10
4235
20
-13020
30
0
11
3955
21
-13020
31
0
0
LINE
8
DIMENSION
6
CONTINUOUS
10
4235
20
-11020
30
0
11
3955
21
-11020
31
0
0
LINE
8
DIMENSION
6
CONTINUOUS
10
3955
20
-13020
30
0
11
3955
21
-11020
31
0
0
LINE
8
DIMENSION
6
CONTINUOUS
10
3955
20
-13020
30
0
11
3925
21
-13071.9615
31
0
0
LINE
8
DIMENSION
6
CONTINUOUS
10
3955
20
-13020
30
0
11
3985
21
-13071.9615
31
0
0
LINE
8
DIMENSION
6
CONTINUOUS
10
3955
20
-11020
30
0
11
3985
21
-10968.0385
31
0
0
LINE
8
DIMENSION
6
CONTINUOUS
10
3955
20
-11020
30
0
11
3925
21
-10968.0385
31
0
0
TEXT
8
DIMENSION
10
3785
20
-12020
30
0
40
70
1
2000
50
90
0
LINE
8
DIMENSION
6
CONTINUOUS
10
4235
20
-11020
30
0
11
3955
21
-11020
31
0
0
LINE
8
DIMENSION
6
CONTINUOUS
10
4235
20
-9020
30
0
11
3955
21
-9020
31
0
0
LINE
8
DIMENSION
6
CONTINUOUS
10
3955
20
-11020
30
0
11
3955
21
-9020
31
0
0
LINE
8
DIMENSION
6
CONTINUOUS
10
3955
20
-11020
30
0
11
3925
21
-11071.9615
31
0
0
LINE
8
DIMENSION
6
CONTINUOUS
10
3955
20
-11020
30
0
11
3985
21
-11071.9615
31
0
0
LINE
8
DIMENSION
6
CONTINUOUS
10
3955
20
-9020
30
0
11
3985
21
-8968.0385
31
0
0
LINE
8
DIMENSION
6
CONTINUOUS
10
3955
20
-9020
30
0
11
3925
21
-8968.0385
31
0
0
TEXT
8
DIMENSION
10
3785
20
-10020
30
0
40
70
1
2000
50
90
0
LINE
8
DIMENSION
6
CONTINUOUS
10
4235
20
-9020
30
0
11
3955
21
-9020
31
0
0
LINE
8
DIMENSION
6
CONTINUOUS
10
4235
20
-8520
30
0
11
3955
21
-8520
31
0
0
LINE
8
DIMENSION
6
CONTINUOUS
10
3955
20
-9020
30
0
11
3955
21
-8520
31
0
0
LINE
8
DIMENSION
6
CONTINUOUS
10
3955
20
-9020
30
0
11
3925
21
-9071.9615
31
0
0
LINE
8
DIMENSION
6
CONTINUOUS
10
3955
20
-9020
30
0
11
3985
21
-9071.9615
31
0
0
LINE
8
DIMENSION
6
CONTINUOUS
10
3955
20
-8520
30
0
11
3985
21
-8468.0385
31
0
0
LINE
8
DIMENSION
6
CONTINUOUS
10
3955
20
-8520
30
0
11
3925
21
-8468.0385
31
0
0
TEXT
8
DIMENSION
10
3785
20
-8770
30
0
40
70
1
500
50
90
0
LINE
8
DIMENSION
6
CONTINUOUS
10
4235
20
-8520
30
0
11
3955
21
-8520
31
0
0
LINE
8
DIMENSION
6
CONTINUOUS
10
4235
20
-8020
30
0
11
3955
21
-8020
31
0
0
LINE
8
DIMENSION
6
CONTINUOUS
10
3955
20
-8520
30
0
11
3955
21
-8020
31
0
0
LINE
8
DIMENSION
6
CONTINUOUS
10
3955
20
-8520
30
0
11
3925
21
-8571.9615
31
0
0
LINE
8
DIMENSION
6
CONTINUOUS
10
3955
20
-8520
30
0
11
3985
21
-8571.9615
31
0
0
LINE
8
DIMENSION
6
CONTINUOUS
10
3955
20
-8020
30
0
11
3985
21
-7968.0385
31
0
0
LINE
8
DIMENSION
6
CONTINUOUS
10
3955
20
-8020
30
0
11
3925
21
-7968.0385
31
0
0
TEXT
8
DIMENSION
10
3785
20
-8270
30
0
40
70
1
500
50
90
0
LINE
8
DIMENSION
6
CONTINUOUS
10
4235
20
-8020
30
0
11
3955
21
-8020
31
0
0
LINE
8
DIMENSION
6
CONTINUOUS
10
4235
20
-7020
30
0
11
3955
21
-7020
31
0
0
LINE
8
DIMENSION
6
CONTINUOUS
10
3955
20
-8020
30
0
11
3955
21
-7020
31
0
0
LINE
8
DIMENSION
6
CONTINUOUS
10
3955
20
-8020
30
0
11
3925
21
-8071.9615
31
0
0
LINE
8
DIMENSION
6
CONTINUOUS
10
3955
20
-8020
30
0
11
3985
21
-8071.9615
31
0
0
LINE
8
DIMENSION
6
CONTINUOUS
10
3955
20
-7020
30
0
11
3985
21
-6968.0385
31
0
0
LINE
8
DIMENSION
6
CONTINUOUS
10
3955
20
-7020
30
0
11
3925
21
-6968.0385
31
0
0
TEXT
8
DIMENSION
10
3785
20
-7520
30
0
40
70
1
1000
50
90
0
LINE
8
DIMENSION
6
CONTINUOUS
10
4235
20
-7020
30
0
11
3955
21
-7020
31
0
0
LINE
8
DIMENSION
6
CONTINUOUS
10
4235
20
-5020
30
0
11
3955
21
-5020
31
0
0
LINE
8
DIMENSION
6
CONTINUOUS
10
3955
20
-7020
30
0
11
3955
21
-5020
31
0
0
LINE
8
DIMENSION
6
CONTINUOUS
10
3955
20
-7020
30
0
11
3925
21
-7071.9615
31
0
0
LINE
8
DIMENSION
6
CONTINUOUS
10
3955
20
-7020
30
0
11
3985
21
-7071.9615
31
0
0
LINE
8
DIMENSION
6
CONTINUOUS
10
3955
20
-5020
30
0
11
3985
21
-4968.0385
31
0
0
LINE
8
DIMENSION
6
CONTINUOUS
10
3955
20
-5020
30
0
11
3925
21
-4968.0385
31
0
0
TEXT
8
DIMENSION
10
3785
20
-6020
30
0
40
70
1
2000
50
90
0
LINE
8
DIMENSION
6
CONTINUOUS
10
4235
20
-5020
30
0
11
3955
21
-5020
31
0
0
LINE
8
DIMENSION
6
CONTINUOUS
10
4235
20
-3020
30
0
11
3955
21
-3020
31
0
0
LINE
8
DIMENSION
6
CONTINUOUS
10
3955
20
-5020
30
0
11
3955
21
-3020
31
0
0
LINE
8
DIMENSION
6
CONTINUOUS
10
3955
20
-5020
30
0
11
3925
21
-5071.9615
31
0
0
LINE
8
DIMENSION
6
CONTINUOUS
10
3955
20
-5020
30
0
11
3985
21
-5071.9615
31
0
0
LINE
8
DIMENSION
6
CONTINUOUS
10
3955
20
-3020
30
0
11
3985
21
-2968.0385
31
0
0
LINE
8
DIMENSION
6
CONTINUOUS
10
3955
20
-3020
30
0
11
3925
21
-2968.0385
31
0
0
TEXT
8
DIMENSION
10
3785
20
-4020
30
0
40
70
1
2000
50
90
0
LINE
8
DIMENSION
6
CONTINUOUS
10
4235
20
-3020
30
0
11
3955
21
-3020
31
0
0
LINE
8
DIMENSION
6
CONTINUOUS
10
4235
20
-2520
30
0
11
3955
21
-2520
31
0
0
LINE
8
DIMENSION
6
CONTINUOUS
10
3955
20
-3020
30
0
11
3955
21
-2520
31
0
0
LINE
8
DIMENSION
6
CONTINUOUS
10
3955
20
-3020
30
0
11
3925
21
-3071.9615
31
0
0
LINE
8
DIMENSION
6
CONTINUOUS
10
3955
20
-3020
30
0
11
3985
21
-3071.9615
31
0
0
LINE
8
DIMENSION
6
CONTINUOUS
10
3955
20
-2520
30
0
11
3985
21
-2468.0385
31
0
0
LINE
8
DIMENSION
6
CONTINUOUS
10
3955
20
-2520
30
0
11
3925
21
-2468.0385
31
0
0
TEXT
8
DIMENSION
10
3785
20
-2770
30
0
40
70
1
500
50
90
0
LINE
8
DIMENSION
6
CONTINUOUS
10
4235
20
-2520
30
0
11
3955
21
-2520
31
0
0
LINE
8
DIMENSION
6
CONTINUOUS
10
4235
20
-2020
30
0
11
3955
21
-2020
31
0
0
LINE
8
DIMENSION
6
CONTINUOUS
10
3955
20
-2520
30
0
11
3955
21
-2020
31
0
0
LINE
8
DIMENSION
6
CONTINUOUS
10
3955
20
-2520
30
0
11
3925
21
-2571.9615
31
0
0
LINE
8
DIMENSION
6
CONTINUOUS
10
3955
20
-2520
30
0
11
3985
21
-2571.9615
31
0
0
LINE
8
DIMENSION
6
CONTINUOUS
10
3955
20
-2020
30
0
11
3985
21
-1968.0385
31
0
0
LINE
8
DIMENSION
6
CONTINUOUS
10
3955
20
-2020
30
0
11
3925
21
-1968.0385
31
0
0
TEXT
8
DIMENSION
10
3785
20
-2270
30
0
40
70
1
500
50
90
0
LINE
8
DIMENSION
6
CONTINUOUS
10
4235
20
-2020
30
0
11
3955
21
-2020
31
0
0
LINE
8
DIMENSION
6
CONTINUOUS
10
4235
20
-1020
30
0
11
3955
21
-1020
31
0
0
LINE
8
DIMENSION
6
CONTINUOUS
10
3955
20
-2020
30
0
11
3955
21
-1020
31
0
0
LINE
8
DIMENSION
6
CONTINUOUS
10
3955
20
-2020
30
0
11
3925
21
-2071.9615
31
0
0
LINE
8
DIMENSION
6
CONTINUOUS
10
3955
20
-2020
30
0
11
3985
21
-2071.9615
31
0
0
LINE
8
DIMENSION
6
CONTINUOUS
10
3955
20
-1020
30
0
11
3985
21
-968.0385
31
0
0
LINE
8
DIMENSION
6
CONTINUOUS
10
3955
20
-1020
30
0
11
3925
21
-968.0385
31
0
0
TEXT
8
DIMENSION
10
3785
20
-1520
30
0
40
70
1
1000
50
90
0
LINE
8
DIMENSION
6
CONTINUOUS
10
4235
20
-1020
30
0
11
3955
21
-1020
31
0
0
LINE
8
DIMENSION
6
CONTINUOUS
10
4235
20
980
30
0
11
3955
21
980
31
0
0
LINE
8
DIMENSION
6
CONTINUOUS
10
3955
20
-1020
30
0
11
3955
21
980
31
0
0
LINE
8
DIMENSION
6
CONTINUOUS
10
3955
20
-1020
30
0
11
3925
21
-1071.9615
31
0
0
LINE
8
DIMENSION
6
CONTINUOUS
10
3955
20
-1020
30
0
11
3985
21
-1071.9615
31
0
0
LINE
8
DIMENSION
6
CONTINUOUS
10
3955
20
980
30
0
11
3985
21
1031.9615
31
0
0
LINE
8
DIMENSION
6
CONTINUOUS
10
3955
20
980
30
0
11
3925
21
1031.9615
31
0
0
TEXT
8
DIMENSION
10
3785
20
-20
30
0
40
70
1
2000
50
90
0
LINE
8
DIMENSION
6
CONTINUOUS
10
4235
20
980
30
0
11
3955
21
980
31
0
0
LINE
8
DIMENSION
6
CONTINUOUS
10
4235
20
2980
30
0
11
3955
21
2980
31
0
0
LINE
8
DIMENSION
6
CONTINUOUS
10
3955
20
980
30
0
11
3955
21
2980
31
0
0
LINE
8
DIMENSION
6
CONTINUOUS
10
3955
20
980
30
0
11
3925
21
928.0385
31
0
0
LINE
8
DIMENSION
6
CONTINUOUS
10
3955
20
980
30
0
11
3985
21
928.0385
31
0
0
LINE
8
DIMENSION
6
CONTINUOUS
10
3955
20
2980
30
0
11
3985
21
3031.9615
31
0
0
LINE
8
DIMENSION
6
CONTINUOUS
10
3955
20
2980
30
0
11
3925
21
3031.9615
31
0
0
TEXT
8
DIMENSION
10
3785
20
1980
30
0
40
70
1
2000
50
90
0
LINE
8
DIMENSION
6
CONTINUOUS
10
4235
20
2980
30
0
11
3955
21
2980
31
0
0
LINE
8
DIMENSION
6
CONTINUOUS
10
4235
20
3480
30
0
11
3955
21
3480
31
0
0
LINE
8
DIMENSION
6
CONTINUOUS
10
3955
20
2980
30
0
11
3955
21
3480
31
0
0
LINE
8
DIMENSION
6
CONTINUOUS
10
3955
20
2980
30
0
11
3925
21
2928.0385
31
0
0
LINE
8
DIMENSION
6
CONTINUOUS
10
3955
20
2980
30
0
11
3985
21
2928.0385
31
0
0
LINE
8
DIMENSION
6
CONTINUOUS
10
3955
20
3480
30
0
11
3985
21
3531.9615
31
0
0
LINE
8
DIMENSION
6
CONTINUOUS
10
3955
20
3480
30
0
11
3925
21
3531.9615
31
0
0
TEXT
8
DIMENSION
10
3785
20
3230
30
0
40
70
1
500
50
90
0
LINE
8
DIMENSION
6
CONTINUOUS
10
4235
20
3480
30
0
11
3955
21
3480
31
0
0
LINE
8
DIMENSION
6
CONTINUOUS
10
4235
20
3980
30
0
11
3955
21
3980
31
0
0
LINE
8
DIMENSION
6
CONTINUOUS
10
3955
20
3480
30
0
11
3955
21
3980
31
0
0
LINE
8
DIMENSION
6
CONTINUOUS
10
3955
20
3480
30
0
11
3925
21
3428.0385
31
0
0
LINE
8
DIMENSION
6
CONTINUOUS
10
3955
20
3480
30
0
11
3985
21
3428.0385
31
0
0
LINE
8
DIMENSION
6
CONTINUOUS
10
3955
20
3980
30
0
11
3985
21
4031.9615
31
0
0
LINE
8
DIMENSION
6
CONTINUOUS
10
3955
20
3980
30
0
11
3925
21
4031.9615
31
0
0
TEXT
8
DIMENSION
10
3785
20
3730
30
0
40
70
1
500
50
90
0
LINE
8
DIMENSION
6
CONTINUOUS
10
4235
20
3980
30
0
11
3955
21
3980
31
0
0
LINE
8
DIMENSION
6
CONTINUOUS
10
4235
20
4980
30
0
11
3955
21
4980
31
0
0
LINE
8
DIMENSION
6
CONTINUOUS
10
3955
20
3980
30
0
11
3955
21
4980
31
0
0
LINE
8
DIMENSION
6
CONTINUOUS
10
3955
20
3980
30
0
11
3925
21
3928.0385
31
0
0
LINE
8
DIMENSION
6
CONTINUOUS
10
3955
20
3980
30
0
11
3985
21
3928.0385
31
0
0
LINE
8
DIMENSION
6
CONTINUOUS
10
3955
20
4980
30
0
11
3985
21
5031.9615
31
0
0
LINE
8
DIMENSION
6
CONTINUOUS
10
3955
20
4980
30
0
11
3925
21
5031.9615
31
0
0
TEXT
8
DIMENSION
10
3785
20
4480
30
0
40
70
1
1000
50
90
0
LINE
8
DIMENSION
6
CONTINUOUS
10
4235
20
4980
30
0
11
3955
21
4980
31
0
0
LINE
8
DIMENSION
6
CONTINUOUS
10
4235
20
6980
30
0
11
3955
21
6980
31
0
0
LINE
8
DIMENSION
6
CONTINUOUS
10
3955
20
4980
30
0
11
3955
21
6980
31
0
0
LINE
8
DIMENSION
6
CONTINUOUS
10
3955
20
4980
30
0
11
3925
21
4928.0385
31
0
0
LINE
8
DIMENSION
6
CONTINUOUS
10
3955
20
4980
30
0
11
3985
21
4928.0385
31
0
0
LINE
8
DIMENSION
6
CONTINUOUS
10
3955
20
6980
30
0
11
3985
21
7031.9615
31
0
0
LINE
8
DIMENSION
6
CONTINUOUS
10
3955
20
6980
30
0
11
3925
21
7031.9615
31
0
0
TEXT
8
DIMENSION
10
3785
20
5980
30
0
40
70
1
2000
50
90
0
LINE
8
DIMENSION
6
CONTINUOUS
10
4235
20
6980
30
0
11
3955
21
6980
31
0
0
LINE
8
DIMENSION
6
CONTINUOUS
10
4235
20
8980
30
0
11
3955
21
8980
31
0
0
LINE
8
DIMENSION
6
CONTINUOUS
10
3955
20
6980
30
0
11
3955
21
8980
31
0
0
LINE
8
DIMENSION
6
CONTINUOUS
10
3955
20
6980
30
0
11
3925
21
6928.0385
31
0
0
LINE
8
DIMENSION
6
CONTINUOUS
10
3955
20
6980
30
0
11
3985
21
6928.0385
31
0
0
LINE
8
DIMENSION
6
CONTINUOUS
10
3955
20
8980
30
0
11
3985
21
9031.9615
31
0
0
LINE
8
DIMENSION
6
CONTINUOUS
10
3955
20
8980
30
0
11
3925
21
9031.9615
31
0
0
TEXT
8
DIMENSION
10
3785
20
7980
30
0
40
70
1
2000
50
90
0
LINE
8
DIMENSION
6
CONTINUOUS
10
4235
20
8980
30
0
11
3955
21
8980
31
0
0
LINE
8
DIMENSION
6
CONTINUOUS
10
4235
20
9480
30
0
11
3955
21
9480
31
0
0
LINE
8
DIMENSION
6
CONTINUOUS
10
3955
20
8980
30
0
11
3955
21
9480
31
0
0
LINE
8
DIMENSION
6
CONTINUOUS
10
3955
20
8980
30
0
11
3925
21
8928.0385
31
0
0
LINE
8
DIMENSION
6
CONTINUOUS
10
3955
20
8980
30
0
11
3985
21
8928.0385
31
0
0
LINE
8
DIMENSION
6
CONTINUOUS
10
3955
20
9480
30
0
11
3985
21
9531.9615
31
0
0
LINE
8
DIMENSION
6
CONTINUOUS
10
3955
20
9480
30
0
11
3925
21
9531.9615
31
0
0
TEXT
8
DIMENSION
10
3785
20
9230
30
0
40
70
1
500
50
90
0
LINE
8
DIMENSION
6
CONTINUOUS
10
4235
20
9480
30
0
11
3955
21
9480
31
0
0
LINE
8
DIMENSION
6
CONTINUOUS
10
4235
20
9980
30
0
11
3955
21
9980
31
0
0
LINE
8
DIMENSION
6
CONTINUOUS
10
3955
20
9480
30
0
11
3955
21
9980
31
0
0
LINE
8
DIMENSION
6
CONTINUOUS
10
3955
20
9480
30
0
11
3925
21
9428.0385
31
0
0
LINE
8
DIMENSION
6
CONTINUOUS
10
3955
20
9480
30
0
11
3985
21
9428.0385
31
0
0
LINE
8
DIMENSION
6
CONTINUOUS
10
3955
20
9980
30
0
11
3985
21
10031.9615
31
0
0
LINE
8
DIMENSION
6
CONTINUOUS
10
3955
20
9980
30
0
11
3925
21
10031.9615
31
0
0
TEXT
8
DIMENSION
10
3785
20
9730
30
0
40
70
1
500
50
90
0
LINE
8
DIMENSION
6
CONTINUOUS
10
4235
20
9980
30
0
11
3955
21
9980
31
0
0
LINE
8
DIMENSION
6
CONTINUOUS
10
4235
20
10980
30
0
11
3955
21
10980
31
0
0
LINE
8
DIMENSION
6
CONTINUOUS
10
3955
20
9980
30
0
11
3955
21
10980
31
0
0
LINE
8
DIMENSION
6
CONTINUOUS
10
3955
20
9980
30
0
11
3925
21
9928.0385
31
0
0
LINE
8
DIMENSION
6
CONTINUOUS
10
3955
20
9980
30
0
11
3985
21
9928.0385
31
0
0
LINE
8
DIMENSION
6
CONTINUOUS
10
3955
20
10980
30
0
11
3985
21
11031.9615
31
0
0
LINE
8
DIMENSION
6
CONTINUOUS
10
3955
20
10980
30
0
11
3925
21
11031.9615
31
0
0
TEXT
8
DIMENSION
10
3785
20
10480
30
0
40
70
1
1000
50
90
0
LINE
8
DIMENSION
6
CONTINUOUS
10
4235
20
10980
30
0
11
3955
21
10980
31
0
0
LINE
8
DIMENSION
6
CONTINUOUS
10
4235
20
12980
30
0
11
3955
21
12980
31
0
0
LINE
8
DIMENSION
6
CONTINUOUS
10
3955
20
10980
30
0
11
3955
21
12980
31
0
0
LINE
8
DIMENSION
6
CONTINUOUS
10
3955
20
10980
30
0
11
3925
21
10928.0385
31
0
0
LINE
8
DIMENSION
6
CONTINUOUS
10
3955
20
10980
30
0
11
3985
21
10928.0385
31
0
0
LINE
8
DIMENSION
6
CONTINUOUS
10
3955
20
12980
30
0
11
3985
21
13031.9615
31
0
0
LINE
8
DIMENSION
6
CONTINUOUS
10
3955
20
12980
30
0
11
3925
21
13031.9615
31
0
0
TEXT
8
DIMENSION
10
3785
20
11980
30
0
40
70
1
2000
50
90
0
LINE
8
DIMENSION
6
CONTINUOUS
10
4235
20
12980
30
0
11
3955
21
12980
31
0
0
LINE
8
DIMENSION
6
CONTINUOUS
10
4235
20
13980
30
0
11
3955
21
13980
31
0
0
LINE
8
DIMENSION
6
CONTINUOUS
10
3955
20
12980
30
0
11
3955
21
13980
31
0
0
LINE
8
DIMENSION
6
CONTINUOUS
10
3955
20
12980
30
0
11
3925
21
12928.0385
31
0
0
LINE
8
DIMENSION
6
CONTINUOUS
10
3955
20
12980
30
0
11
3985
21
12928.0385
31
0
0
LINE
8
DIMENSION
6
CONTINUOUS
10
3955
20
13980
30
0
11
3985
21
14031.9615
31
0
0
LINE
8
DIMENSION
6
CONTINUOUS
10
3955
20
13980
30
0
11
3925
21
14031.9615
31
0
0
TEXT
8
DIMENSION
10
3785
20
13480
30
0
40
70
1
1000
50
90
0
LINE
8
DIMENSION
6
CONTINUOUS
10
4235
20
13980
30
0
11
3955
21
13980
31
0
0
LINE
8
DIMENSION
6
CONTINUOUS
10
4235
20
14480
30
0
11
3955
21
14480
31
0
0
LINE
8
DIMENSION
6
CONTINUOUS
10
3955
20
13980
30
0
11
3955
21
14480
31
0
0
LINE
8
DIMENSION
6
CONTINUOUS
10
3955
20
13980
30
0
11
3925
21
13928.0385
31
0
0
LINE
8
DIMENSION
6
CONTINUOUS
10
3955
20
13980
30
0
11
3985
21
13928.0385
31
0
0
LINE
8
DIMENSION
6
CONTINUOUS
10
3955
20
14480
30
0
11
3985
21
14531.9615
31
0
0
LINE
8
DIMENSION
6
CONTINUOUS
10
3955
20
14480
30
0
11
3925
21
14531.9615
31
0
0
TEXT
8
DIMENSION
10
3785
20
14230
30
0
40
70
1
500
50
90
0
LINE
8
DIMENSION
6
CONTINUOUS
10
4235
20
14480
30
0
11
3955
21
14480
31
0
0
LINE
8
DIMENSION
6
CONTINUOUS
10
4235
20
14980
30
0
11
3955
21
14980
31
0
0
LINE
8
DIMENSION
6
CONTINUOUS
10
3955
20
14480
30
0
11
3955
21
14980
31
0
0
LINE
8
DIMENSION
6
CONTINUOUS
10
3955
20
14480
30
0
11
3925
21
14428.0385
31
0
0
LINE
8
DIMENSION
6
CONTINUOUS
10
3955
20
14480
30
0
11
3985
21
14428.0385
31
0
0
LINE
8
DIMENSION
6
CONTINUOUS
10
3955
20
14980
30
0
11
3985
21
15031.9615
31
0
0
LINE
8
DIMENSION
6
CONTINUOUS
10
3955
20
14980
30
0
11
3925
21
15031.9615
31
0
0
TEXT
8
DIMENSION
10
3785
20
14730
30
0
40
70
1
500
50
90
0
TEXT
8
DIMENSION
10
6295
20
-15280
30
0
40
70
1
FRONT VIEW TYPICAL FOR
50
0
0
TEXT
8
DIMENSION
10
6295
20
-15440
30
0
40
70
1
GRID LINE C (1-5)
50
0
0
ENDSEC
0
EOF
