0
SECTION
2
HEADER
9
$ACADVER
1
AC1009
9
$INSUNITS
70
4
9
$MEASUREMENT
70
1
9
$LUNITS
70
2
9
$LUPREC
70
1
9
$TILEMODE
70
1
9
$EXTMIN
10
-2333.941916
20
-2075.005
30
0
9
$EXTMAX
10
2333.941916
20
2075.005
30
0
9
$PEXTMIN
10
-2333.941916
20
-2075.005
30
0
9
$PEXTMAX
10
2333.941916
20
2075.005
30
0
9
$LIMMIN
10
-2833.941916
20
-2575.005
9
$LIMMAX
10
2833.941916
20
2575.005
9
$PLIMMIN
10
-2833.941916
20
-2575.005
9
$PLIMMAX
10
2833.941916
20
2575.005
0
ENDSEC
0
SECTION
2
TABLES
0
TABLE
2
VPORT
70
1
0
VPORT
2
*ACTIVE
70
0
10
0
20
0
11
1
21
1
12
0
22
0
40
5150.01
41
1.100558
42
50
43
0
44
0
50
0
51
0
71
0
72
100
73
1
74
3
75
0
76
0
77
0
78
0
0
ENDTAB
0
TABLE
2
LTYPE
70
2
0
LTYPE
2
CONTINUOUS
70
0
3
Solid line
72
65
73
0
40
0
0
LTYPE
2
DASHED
70
0
3
Dashed
72
65
73
2
40
240
49
120
74
0
49
-120
74
0
0
ENDTAB
0
TABLE
2
LAYER
70
6
0
LAYER
2
PIPES
70
0
62
5
6
CONTINUOUS
0
LAYER
2
PIPE_ENDS
70
0
62
5
6
CONTINUOUS
0
LAYER
2
DIMENSION
70
0
62
1
6
CONTINUOUS
0
LAYER
2
LEVEL_GUIDE
70
0
62
1
6
DASHED
0
LAYER
2
LEVEL_TEXT
70
0
62
1
6
CONTINUOUS
0
LAYER
2
FRAME
70
0
62
5
6
CONTINUOUS
0
ENDTAB
0
TABLE
2
STYLE
70
1
0
STYLE
2
STANDARD
70
0
40
0
41
1
50
0
71
0
42
100
3
txt
4

0
ENDTAB
0
ENDSEC
0
SECTION
2
BLOCKS
0
BLOCK
8
0
2
$MODEL_SPACE
70
0
10
0
20
0
30
0
3
$MODEL_SPACE
0
ENDBLK
8
0
0
BLOCK
67
1
8
0
2
$PAPER_SPACE
70
0
10
0
20
0
30
0
3
$PAPER_SPACE
0
ENDBLK
67
1
8
0
0
ENDSEC
0
SECTION
2
ENTITIES
0
LINE
8
PIPES
10
-949.903811
20
-2075.005
30
0
11
608.941916
21
-1175.005
31
0
0
LINE
8
PIPES
10
608.941916
20
-1175.005
30
0
11
-690.096189
21
-425.005
31
0
0
LINE
8
PIPES
10
-690.096189
20
-425.005
30
0
11
-2248.941916
21
-1325.005
31
0
0
LINE
8
PIPES
10
-2248.941916
20
-1325.005
30
0
11
-949.903811
21
-2075.005
31
0
0
LINE
8
PIPES
10
-690.096189
20
-425.005
30
0
11
-690.096189
21
-725.006
31
0
0
LINE
8
PIPES
10
-2248.941916
20
-1325.005
30
0
11
-2248.941916
21
-1625.006
31
0
0
LINE
8
PIPES
10
-949.903811
20
-2075.005
30
0
11
-949.903811
21
-575.005
31
0
0
LINE
8
PIPES
10
608.941916
20
-1175.005
30
0
11
608.941916
21
324.995
31
0
0
LINE
8
PIPES
10
-690.096189
20
-425.005
30
0
11
-690.096189
21
1074.995
31
0
0
LINE
8
PIPES
10
-2248.941916
20
-1325.005
30
0
11
-2248.941916
21
174.995
31
0
0
LINE
8
PIPES
10
-949.903811
20
-575.005
30
0
11
-170.479215
21
-125.004
31
0
0
LINE
8
PIPES
10
608.941916
20
324.995
30
0
11
-40.578869
21
699.996
31
0
0
LINE
8
PIPES
10
-690.096189
20
1074.995
30
0
11
-1469.517321
21
624.996
31
0
0
LINE
8
PIPES
10
-2248.941916
20
174.995
30
0
11
-1599.424595
21
-200.004
31
0
0
LINE
8
PIPES
10
-1599.424595
20
-200.004
30
0
11
-949.903811
21
-575.005
31
0
0
LINE
8
PIPES
10
-40.578869
20
699.996
30
0
11
-690.096189
21
1074.995
31
0
0
LINE
8
PIPES
10
-40.578869
20
699.996
30
0
11
-820
21
249.997
31
0
0
LINE
8
PIPES
10
-820
20
249.997
30
0
11
-1599.424595
21
-200.004
31
0
0
LINE
8
PIPES
10
-170.479215
20
-125.004
30
0
11
608.941916
21
324.995
31
0
0
LINE
8
PIPES
10
-1469.517321
20
624.996
30
0
11
-2248.941916
21
174.995
31
0
0
LINE
8
PIPES
10
-1469.517321
20
624.996
30
0
11
-820
21
249.997
31
0
0
LINE
8
PIPES
10
-820
20
249.997
30
0
11
-170.479215
21
-125.004
31
0
0
LINE
8
PIPES
10
-949.903811
20
-575.005
30
0
11
-949.903811
21
-75.005
31
0
0
LINE
8
PIPES
10
608.941916
20
324.995
30
0
11
608.941916
21
824.995
31
0
0
LINE
8
PIPES
10
-690.096189
20
1074.995
30
0
11
-690.096189
21
1574.995
31
0
0
LINE
8
PIPES
10
-1599.424595
20
-200.004
30
0
11
-1599.424595
21
299.996
31
0
0
LINE
8
PIPES
10
-40.578869
20
699.996
30
0
11
-40.578869
21
1199.996
31
0
0
LINE
8
PIPES
10
-170.479215
20
-125.004
30
0
11
-170.479215
21
374.996
31
0
0
LINE
8
PIPES
10
-1469.517321
20
624.996
30
0
11
-1469.517321
21
1124.996
31
0
0
LINE
8
PIPES
10
-949.903811
20
-75.005
30
0
11
-170.479215
21
374.996
31
0
0
LINE
8
PIPES
10
608.941916
20
824.995
30
0
11
-40.578869
21
1199.996
31
0
0
LINE
8
PIPES
10
-690.096189
20
1574.995
30
0
11
-1469.517321
21
1124.996
31
0
0
LINE
8
PIPES
10
-1599.424595
20
299.996
30
0
11
-949.903811
21
-75.005
31
0
0
LINE
8
PIPES
10
-40.578869
20
1199.996
30
0
11
-690.096189
21
1574.995
31
0
0
LINE
8
PIPES
10
-170.479215
20
374.996
30
0
11
608.941916
21
824.995
31
0
0
LINE
8
PIPES
10
-949.903811
20
-75.005
30
0
11
-949.903811
21
425.005
31
0
0
LINE
8
PIPES
10
608.941916
20
824.995
30
0
11
608.941916
21
1325.005
31
0
0
LINE
8
PIPES
10
-690.096189
20
1574.995
30
0
11
-690.096189
21
2075.005
31
0
0
LINE
8
PIPES
10
-1599.424595
20
299.996
30
0
11
-1599.424595
21
800.006
31
0
0
LINE
8
PIPES
10
-40.578869
20
1199.996
30
0
11
-40.578869
21
1700.006
31
0
0
LINE
8
PIPES
10
-170.479215
20
374.996
30
0
11
-170.479215
21
875.006
31
0
0
LINE
8
PIPES
10
-1469.517321
20
1124.996
30
0
11
-1469.517321
21
1625.006
31
0
0
LINE
8
PIPES
10
-949.903811
20
425.005
30
0
11
-170.479215
21
875.006
31
0
0
LINE
8
PIPES
10
608.941916
20
1325.005
30
0
11
-40.578869
21
1700.006
31
0
0
LINE
8
PIPES
10
-690.096189
20
2075.005
30
0
11
-1469.517321
21
1625.006
31
0
0
LINE
8
PIPES
10
-1599.424595
20
800.006
30
0
11
-949.903811
21
425.005
31
0
0
LINE
8
PIPES
10
-40.578869
20
1700.006
30
0
11
-690.096189
21
2075.005
31
0
0
LINE
8
PIPES
10
-170.479215
20
875.006
30
0
11
608.941916
21
1325.005
31
0
0
LINE
8
PIPES
10
-690.096189
20
1074.995
30
0
11
-2248.941916
21
-1325.005
31
0
0
LINE
8
PIPES
10
-949.903811
20
-575.005
30
0
11
608.941916
21
-1175.005
31
0
0
LINE
8
PIPES
10
-949.903811
20
-575.005
30
0
11
-2248.941916
21
-1325.005
31
0
0
LINE
8
PIPES
10
608.941916
20
-1175.005
30
0
11
-690.096189
21
1074.995
31
0
0
LINE
8
PIPES
10
-2248.941916
20
174.995
30
0
11
-2248.941916
21
674.995
31
0
0
LINE
8
PIPES
10
-2248.941916
20
674.995
30
0
11
-1599.424595
21
299.996
31
0
0
LINE
8
PIPES
10
-2248.941916
20
674.995
30
0
11
-2248.941916
21
1175.005
31
0
0
LINE
8
PIPES
10
-2248.941916
20
1175.005
30
0
11
-1599.424595
21
800.006
31
0
0
CIRCLE
8
DIMENSION
62
6
10
-690.096189
20
-425.005
30
0
40
85
0
CIRCLE
8
DIMENSION
62
6
10
-2248.941916
20
-1325.005
30
0
40
85
0
LINE
8
DIMENSION
62
6
10
-690.096189
20
-425.005
30
0
11
1158.941916
21
-425.005
31
0
0
LINE
8
DIMENSION
62
6
10
1158.941916
20
-425.005
30
0
11
1158.941916
21
-245.005
31
0
0
LINE
8
DIMENSION
62
6
10
-2248.941916
20
-1325.005
30
0
11
1158.941916
21
-1325.005
31
0
0
LINE
8
DIMENSION
62
6
10
1158.941916
20
-1325.005
30
0
11
1158.941916
21
-245.005
31
0
0
LINE
8
DIMENSION
62
6
10
1158.941916
20
-245.005
30
0
11
1428.941916
21
-245.005
31
0
0
TEXT
8
DIMENSION
62
6
10
1508.941916
20
-245.005
30
0
40
75
1
Tie points to
50
0
7
STANDARD
0
TEXT
8
DIMENSION
62
6
10
1508.941916
20
-375.005
30
0
40
75
1
existing structures
50
0
7
STANDARD
0
TEXT
8
DIMENSION
62
6
10
1508.941916
20
-505.005
30
0
40
75
1
at indicated points.
50
0
7
STANDARD
0
ENDSEC
0
EOF
