0
SECTION
2
HEADER
9
$ACADVER
1
AC1009
9
$INSUNITS
70
4
9
$MEASUREMENT
70
1
9
$LUNITS
70
2
9
$LUPREC
70
1
9
$TILEMODE
70
1
9
$EXTMIN
10
-1855.345773
20
-1491.720773
30
0
9
$EXTMAX
10
1855.345773
20
1491.720773
30
0
9
$PEXTMIN
10
-1855.345773
20
-1491.720773
30
0
9
$PEXTMAX
10
1855.345773
20
1491.720773
30
0
9
$LIMMIN
10
-2355.345773
20
-1991.720773
9
$LIMMAX
10
2355.345773
20
1991.720773
9
$PLIMMIN
10
-2355.345773
20
-1991.720773
9
$PLIMMAX
10
2355.345773
20
1991.720773
0
ENDSEC
0
SECTION
2
TABLES
0
TABLE
2
VPORT
70
1
0
VPORT
2
*ACTIVE
70
0
10
0
20
0
11
1
21
1
12
0
22
0
40
3983.441545
41
1.182568
42
50
43
0
44
0
50
0
51
0
71
0
72
100
73
1
74
3
75
0
76
0
77
0
78
0
0
ENDTAB
0
TABLE
2
LTYPE
70
2
0
LTYPE
2
CONTINUOUS
70
0
3
Solid line
72
65
73
0
40
0
0
LTYPE
2
DASHED
70
0
3
Dashed
72
65
73
2
40
240
49
120
74
0
49
-120
74
0
0
ENDTAB
0
TABLE
2
LAYER
70
6
0
LAYER
2
PIPES
70
0
62
5
6
CONTINUOUS
0
LAYER
2
PIPE_ENDS
70
0
62
5
6
CONTINUOUS
0
LAYER
2
DIMENSION
70
0
62
1
6
CONTINUOUS
0
LAYER
2
LEVEL_GUIDE
70
0
62
1
6
DASHED
0
LAYER
2
LEVEL_TEXT
70
0
62
1
6
CONTINUOUS
0
LAYER
2
FRAME
70
0
62
5
6
CONTINUOUS
0
ENDTAB
0
TABLE
2
STYLE
70
1
0
STYLE
2
STANDARD
70
0
40
0
41
1
50
0
71
0
42
100
3
txt
4

0
ENDTAB
0
ENDSEC
0
SECTION
2
BLOCKS
0
BLOCK
8
0
2
$MODEL_SPACE
70
0
10
0
20
0
30
0
3
$MODEL_SPACE
0
ENDBLK
8
0
0
BLOCK
67
1
8
0
2
$PAPER_SPACE
70
0
10
0
20
0
30
0
3
$PAPER_SPACE
0
ENDBLK
67
1
8
0
0
ENDSEC
0
SECTION
2
ENTITIES
0
LINE
8
PIPES
10
208.095773
20
1428.279227
30
0
11
208.095773
21
-571.720773
31
0
0
LINE
8
PIPES
10
-1791.904227
20
-571.720773
30
0
11
-1791.904227
21
1428.279227
31
0
0
LINE
8
PIPES
10
208.095773
20
-571.720773
30
0
11
208.095773
21
778.279227
31
0
0
LINE
8
PIPES
10
-1791.904227
20
1428.279227
30
0
11
-1791.904227
21
-121.719773
31
0
0
LINE
8
PIPES
10
-1791.904227
20
-571.720773
30
0
11
-791.902227
21
-571.720773
31
0
0
LINE
8
PIPES
10
-791.902227
20
-571.720773
30
0
11
208.095773
21
-571.720773
31
0
0
LINE
8
PIPES
10
208.095773
20
1428.279227
30
0
11
-791.902227
21
1428.279227
31
0
0
LINE
8
PIPES
10
-791.902227
20
1428.279227
30
0
11
-1791.904227
21
1428.279227
31
0
0
LINE
8
PIPES
10
-791.902227
20
-571.720773
30
0
11
-791.902227
21
-271.719773
31
0
0
LINE
8
PIPES
10
-791.902227
20
328.281227
30
0
11
-791.902227
21
628.279227
31
0
0
LINE
8
PIPES
10
-791.902227
20
928.279227
30
0
11
-791.902227
21
1428.279227
31
0
0
LINE
8
PIPES
10
-791.902227
20
628.279227
30
0
11
-791.902227
21
928.279227
31
0
0
LINE
8
PIPES
10
-791.902227
20
628.279227
30
0
11
-791.902227
21
778.279227
31
0
0
LINE
8
PIPES
10
-791.902227
20
28.280227
30
0
11
-791.902227
21
328.281227
31
0
0
LINE
8
PIPES
10
-791.902227
20
-271.719773
30
0
11
-791.902227
21
28.280227
31
0
0
LINE
8
PIPES
10
-791.902227
20
-271.719773
30
0
11
-791.902227
21
-121.719773
31
0
0
LINE
8
PIPES
10
-791.902227
20
778.279227
30
0
11
-791.902227
21
928.279227
31
0
0
LINE
8
PIPES
10
-791.902227
20
-121.719773
30
0
11
-791.902227
21
28.280227
31
0
0
LINE
8
PIPES
10
-1791.904227
20
-121.719773
30
0
11
-1791.904227
21
-571.720773
31
0
0
LINE
8
PIPES
10
208.095773
20
778.279227
30
0
11
208.095773
21
1428.279227
31
0
0
LINE
8
PIPES
10
208.095773
20
778.279227
30
0
11
-791.902227
21
778.279227
31
0
0
LINE
8
PIPES
10
-1791.904227
20
-121.719773
30
0
11
-791.902227
21
-121.719773
31
0
0
LINE
8
PIPES
10
208.095773
20
-571.720773
30
0
11
-1791.904227
21
-571.720773
31
0
0
CIRCLE
8
PIPE_ENDS
10
-1791.904227
20
-571.720773
30
0
40
32
0
CIRCLE
8
PIPE_ENDS
10
208.095773
20
-571.720773
30
0
40
32
0
CIRCLE
8
PIPE_ENDS
10
208.095773
20
1428.279227
30
0
40
32
0
CIRCLE
8
PIPE_ENDS
10
-1791.904227
20
1428.279227
30
0
40
32
0
CIRCLE
8
PIPE_ENDS
10
-791.904227
20
-571.720773
30
0
40
25
0
CIRCLE
8
PIPE_ENDS
10
-791.904227
20
1428.279227
30
0
40
25
0
CIRCLE
8
PIPE_ENDS
10
-791.904227
20
328.279227
30
0
40
25
0
CIRCLE
8
PIPE_ENDS
10
-791.904227
20
928.279227
30
0
40
25
0
CIRCLE
8
PIPE_ENDS
10
-791.904227
20
628.279227
30
0
40
25
0
CIRCLE
8
PIPE_ENDS
10
-791.904227
20
28.279227
30
0
40
25
0
CIRCLE
8
PIPE_ENDS
10
-791.904227
20
-271.720773
30
0
40
25
0
LINE
8
DIMENSION
10
-1791.904227
20
-631.720773
30
0
11
-1791.904227
21
-951.720773
31
0
0
LINE
8
DIMENSION
10
-791.904227
20
-631.720773
30
0
11
-791.904227
21
-951.720773
31
0
0
LINE
8
DIMENSION
10
-1791.904227
20
-951.720773
30
0
11
-791.904227
21
-951.720773
31
0
0
LINE
8
DIMENSION
10
-1791.904227
20
-951.720773
30
0
11
-1855.345773
21
-922.137494
31
0
0
LINE
8
DIMENSION
10
-1791.904227
20
-951.720773
30
0
11
-1855.345773
21
-981.304051
31
0
0
LINE
8
DIMENSION
10
-791.904227
20
-951.720773
30
0
11
-728.462682
21
-981.304051
31
0
0
LINE
8
DIMENSION
10
-791.904227
20
-951.720773
30
0
11
-728.462682
21
-922.137494
31
0
0
TEXT
8
DIMENSION
10
-1291.904227
20
-1121.720773
30
0
40
85
1
1
50
0
7
STANDARD
72
1
73
2
11
-1291.904227
21
-1121.720773
31
0
0
LINE
8
DIMENSION
10
-791.904227
20
-631.720773
30
0
11
-791.904227
21
-951.720773
31
0
0
LINE
8
DIMENSION
10
208.095773
20
-631.720773
30
0
11
208.095773
21
-951.720773
31
0
0
LINE
8
DIMENSION
10
-791.904227
20
-951.720773
30
0
11
208.095773
21
-951.720773
31
0
0
LINE
8
DIMENSION
10
-791.904227
20
-951.720773
30
0
11
-855.345773
21
-922.137494
31
0
0
LINE
8
DIMENSION
10
-791.904227
20
-951.720773
30
0
11
-855.345773
21
-981.304051
31
0
0
LINE
8
DIMENSION
10
208.095773
20
-951.720773
30
0
11
271.537318
21
-981.304051
31
0
0
LINE
8
DIMENSION
10
208.095773
20
-951.720773
30
0
11
271.537318
21
-922.137494
31
0
0
TEXT
8
DIMENSION
10
-291.904227
20
-1121.720773
30
0
40
85
1
1
50
0
7
STANDARD
72
1
73
2
11
-291.904227
21
-1121.720773
31
0
0
LINE
8
DIMENSION
10
-1791.904227
20
-631.720773
30
0
11
-1791.904227
21
-1321.720773
31
0
0
LINE
8
DIMENSION
10
208.095773
20
-631.720773
30
0
11
208.095773
21
-1321.720773
31
0
0
LINE
8
DIMENSION
10
-1791.904227
20
-1321.720773
30
0
11
208.095773
21
-1321.720773
31
0
0
LINE
8
DIMENSION
10
-1791.904227
20
-1321.720773
30
0
11
-1855.345773
21
-1292.137494
31
0
0
LINE
8
DIMENSION
10
-1791.904227
20
-1321.720773
30
0
11
-1855.345773
21
-1351.304051
31
0
0
LINE
8
DIMENSION
10
208.095773
20
-1321.720773
30
0
11
271.537318
21
-1351.304051
31
0
0
LINE
8
DIMENSION
10
208.095773
20
-1321.720773
30
0
11
271.537318
21
-1292.137494
31
0
0
TEXT
8
DIMENSION
10
-791.904227
20
-1491.720773
30
0
40
85
1
TOTAL 2
50
0
7
STANDARD
72
1
73
2
11
-791.904227
21
-1491.720773
31
0
0
LINE
8
DIMENSION
10
268.095773
20
-571.720773
30
0
11
908.095773
21
-571.720773
31
0
0
LINE
8
DIMENSION
10
268.095773
20
-271.720773
30
0
11
908.095773
21
-271.720773
31
0
0
LINE
8
DIMENSION
10
908.095773
20
-571.720773
30
0
11
908.095773
21
-271.720773
31
0
0
LINE
8
DIMENSION
10
908.095773
20
-571.720773
30
0
11
878.512494
21
-635.162318
31
0
0
LINE
8
DIMENSION
10
908.095773
20
-571.720773
30
0
11
937.679051
21
-635.162318
31
0
0
LINE
8
DIMENSION
10
908.095773
20
-271.720773
30
0
11
937.679051
21
-208.279227
31
0
0
LINE
8
DIMENSION
10
908.095773
20
-271.720773
30
0
11
878.512494
21
-208.279227
31
0
0
TEXT
8
DIMENSION
10
1078.095773
20
-421.720773
30
0
40
85
1
0.3
50
90
7
STANDARD
72
1
73
2
11
1078.095773
21
-421.720773
31
0
0
LINE
8
DIMENSION
10
268.095773
20
-271.720773
30
0
11
908.095773
21
-271.720773
31
0
0
LINE
8
DIMENSION
10
268.095773
20
-121.720773
30
0
11
908.095773
21
-121.720773
31
0
0
LINE
8
DIMENSION
10
908.095773
20
-271.720773
30
0
11
908.095773
21
-121.720773
31
0
0
LINE
8
DIMENSION
10
908.095773
20
-271.720773
30
0
11
878.512494
21
-335.162318
31
0
0
LINE
8
DIMENSION
10
908.095773
20
-271.720773
30
0
11
937.679051
21
-335.162318
31
0
0
LINE
8
DIMENSION
10
908.095773
20
-121.720773
30
0
11
937.679051
21
-58.279227
31
0
0
LINE
8
DIMENSION
10
908.095773
20
-121.720773
30
0
11
878.512494
21
-58.279227
31
0
0
TEXT
8
DIMENSION
10
1078.095773
20
-196.720773
30
0
40
85
1
0.15
50
90
7
STANDARD
72
1
73
2
11
1078.095773
21
-196.720773
31
0
0
LINE
8
DIMENSION
10
268.095773
20
-121.720773
30
0
11
908.095773
21
-121.720773
31
0
0
LINE
8
DIMENSION
10
268.095773
20
28.279227
30
0
11
908.095773
21
28.279227
31
0
0
LINE
8
DIMENSION
10
908.095773
20
-121.720773
30
0
11
908.095773
21
28.279227
31
0
0
LINE
8
DIMENSION
10
908.095773
20
-121.720773
30
0
11
878.512494
21
-185.162318
31
0
0
LINE
8
DIMENSION
10
908.095773
20
-121.720773
30
0
11
937.679051
21
-185.162318
31
0
0
LINE
8
DIMENSION
10
908.095773
20
28.279227
30
0
11
937.679051
21
91.720773
31
0
0
LINE
8
DIMENSION
10
908.095773
20
28.279227
30
0
11
878.512494
21
91.720773
31
0
0
TEXT
8
DIMENSION
10
1078.095773
20
-46.720773
30
0
40
85
1
0.15
50
90
7
STANDARD
72
1
73
2
11
1078.095773
21
-46.720773
31
0
0
LINE
8
DIMENSION
10
268.095773
20
28.279227
30
0
11
908.095773
21
28.279227
31
0
0
LINE
8
DIMENSION
10
268.095773
20
328.279227
30
0
11
908.095773
21
328.279227
31
0
0
LINE
8
DIMENSION
10
908.095773
20
28.279227
30
0
11
908.095773
21
328.279227
31
0
0
LINE
8
DIMENSION
10
908.095773
20
28.279227
30
0
11
878.512494
21
-35.162318
31
0
0
LINE
8
DIMENSION
10
908.095773
20
28.279227
30
0
11
937.679051
21
-35.162318
31
0
0
LINE
8
DIMENSION
10
908.095773
20
328.279227
30
0
11
937.679051
21
391.720773
31
0
0
LINE
8
DIMENSION
10
908.095773
20
328.279227
30
0
11
878.512494
21
391.720773
31
0
0
TEXT
8
DIMENSION
10
1078.095773
20
178.279227
30
0
40
85
1
0.3
50
90
7
STANDARD
72
1
73
2
11
1078.095773
21
178.279227
31
0
0
LINE
8
DIMENSION
10
268.095773
20
328.279227
30
0
11
908.095773
21
328.279227
31
0
0
LINE
8
DIMENSION
10
268.095773
20
628.279227
30
0
11
908.095773
21
628.279227
31
0
0
LINE
8
DIMENSION
10
908.095773
20
328.279227
30
0
11
908.095773
21
628.279227
31
0
0
LINE
8
DIMENSION
10
908.095773
20
328.279227
30
0
11
878.512494
21
264.837682
31
0
0
LINE
8
DIMENSION
10
908.095773
20
328.279227
30
0
11
937.679051
21
264.837682
31
0
0
LINE
8
DIMENSION
10
908.095773
20
628.279227
30
0
11
937.679051
21
691.720773
31
0
0
LINE
8
DIMENSION
10
908.095773
20
628.279227
30
0
11
878.512494
21
691.720773
31
0
0
TEXT
8
DIMENSION
10
1078.095773
20
478.279227
30
0
40
85
1
0.3
50
90
7
STANDARD
72
1
73
2
11
1078.095773
21
478.279227
31
0
0
LINE
8
DIMENSION
10
268.095773
20
628.279227
30
0
11
908.095773
21
628.279227
31
0
0
LINE
8
DIMENSION
10
268.095773
20
778.279227
30
0
11
908.095773
21
778.279227
31
0
0
LINE
8
DIMENSION
10
908.095773
20
628.279227
30
0
11
908.095773
21
778.279227
31
0
0
LINE
8
DIMENSION
10
908.095773
20
628.279227
30
0
11
878.512494
21
564.837682
31
0
0
LINE
8
DIMENSION
10
908.095773
20
628.279227
30
0
11
937.679051
21
564.837682
31
0
0
LINE
8
DIMENSION
10
908.095773
20
778.279227
30
0
11
937.679051
21
841.720773
31
0
0
LINE
8
DIMENSION
10
908.095773
20
778.279227
30
0
11
878.512494
21
841.720773
31
0
0
TEXT
8
DIMENSION
10
1078.095773
20
703.279227
30
0
40
85
1
0.15
50
90
7
STANDARD
72
1
73
2
11
1078.095773
21
703.279227
31
0
0
LINE
8
DIMENSION
10
268.095773
20
778.279227
30
0
11
908.095773
21
778.279227
31
0
0
LINE
8
DIMENSION
10
268.095773
20
928.279227
30
0
11
908.095773
21
928.279227
31
0
0
LINE
8
DIMENSION
10
908.095773
20
778.279227
30
0
11
908.095773
21
928.279227
31
0
0
LINE
8
DIMENSION
10
908.095773
20
778.279227
30
0
11
878.512494
21
714.837682
31
0
0
LINE
8
DIMENSION
10
908.095773
20
778.279227
30
0
11
937.679051
21
714.837682
31
0
0
LINE
8
DIMENSION
10
908.095773
20
928.279227
30
0
11
937.679051
21
991.720773
31
0
0
LINE
8
DIMENSION
10
908.095773
20
928.279227
30
0
11
878.512494
21
991.720773
31
0
0
TEXT
8
DIMENSION
10
1078.095773
20
853.279227
30
0
40
85
1
0.15
50
90
7
STANDARD
72
1
73
2
11
1078.095773
21
853.279227
31
0
0
LINE
8
DIMENSION
10
268.095773
20
928.279227
30
0
11
908.095773
21
928.279227
31
0
0
LINE
8
DIMENSION
10
268.095773
20
1428.279227
30
0
11
908.095773
21
1428.279227
31
0
0
LINE
8
DIMENSION
10
908.095773
20
928.279227
30
0
11
908.095773
21
1428.279227
31
0
0
LINE
8
DIMENSION
10
908.095773
20
928.279227
30
0
11
878.512494
21
864.837682
31
0
0
LINE
8
DIMENSION
10
908.095773
20
928.279227
30
0
11
937.679051
21
864.837682
31
0
0
LINE
8
DIMENSION
10
908.095773
20
1428.279227
30
0
11
937.679051
21
1491.720773
31
0
0
LINE
8
DIMENSION
10
908.095773
20
1428.279227
30
0
11
878.512494
21
1491.720773
31
0
0
TEXT
8
DIMENSION
10
1078.095773
20
1178.279227
30
0
40
85
1
0.5
50
90
7
STANDARD
72
1
73
2
11
1078.095773
21
1178.279227
31
0
0
LINE
8
DIMENSION
10
268.095773
20
-571.720773
30
0
11
1358.095773
21
-571.720773
31
0
0
LINE
8
DIMENSION
10
268.095773
20
1428.279227
30
0
11
1358.095773
21
1428.279227
31
0
0
LINE
8
DIMENSION
10
1358.095773
20
-571.720773
30
0
11
1358.095773
21
1428.279227
31
0
0
LINE
8
DIMENSION
10
1358.095773
20
-571.720773
30
0
11
1328.512494
21
-635.162318
31
0
0
LINE
8
DIMENSION
10
1358.095773
20
-571.720773
30
0
11
1387.679051
21
-635.162318
31
0
0
LINE
8
DIMENSION
10
1358.095773
20
1428.279227
30
0
11
1387.679051
21
1491.720773
31
0
0
LINE
8
DIMENSION
10
1358.095773
20
1428.279227
30
0
11
1328.512494
21
1491.720773
31
0
0
TEXT
8
DIMENSION
10
1528.095773
20
428.279227
30
0
40
85
1
TOTAL 2
50
90
7
STANDARD
72
1
73
2
11
1528.095773
21
428.279227
31
0
0
ENDSEC
0
EOF
