0
SECTION
2
HEADER
9
$ACADVER
1
AC1009
9
$INSUNITS
70
4
9
$MEASUREMENT
70
1
9
$LUNITS
70
2
9
$LUPREC
70
1
9
$TILEMODE
70
1
9
$EXTMIN
10
-2594.550808
20
-3127.505
30
0
9
$EXTMAX
10
2594.550808
20
3127.505
30
0
9
$PEXTMIN
10
-2594.550808
20
-3127.505
30
0
9
$PEXTMAX
10
2594.550808
20
3127.505
30
0
9
$LIMMIN
10
-3094.550808
20
-3627.505
9
$LIMMAX
10
3094.550808
20
3627.505
9
$PLIMMIN
10
-3094.550808
20
-3627.505
9
$PLIMMAX
10
3094.550808
20
3627.505
0
ENDSEC
0
SECTION
2
TABLES
0
TABLE
2
VPORT
70
1
0
VPORT
2
*ACTIVE
70
0
10
0
20
0
11
1
21
1
12
0
22
0
40
7255.01
41
0.85308
42
50
43
0
44
0
50
0
51
0
71
0
72
100
73
1
74
3
75
0
76
0
77
0
78
0
0
ENDTAB
0
TABLE
2
LTYPE
70
2
0
LTYPE
2
CONTINUOUS
70
0
3
Solid line
72
65
73
0
40
0
0
LTYPE
2
DASHED
70
0
3
Dashed
72
65
73
2
40
240
49
120
74
0
49
-120
74
0
0
ENDTAB
0
TABLE
2
LAYER
70
6
0
LAYER
2
PIPES
70
0
62
5
6
CONTINUOUS
0
LAYER
2
PIPE_ENDS
70
0
62
5
6
CONTINUOUS
0
LAYER
2
DIMENSION
70
0
62
1
6
CONTINUOUS
0
LAYER
2
LEVEL_GUIDE
70
0
62
1
6
DASHED
0
LAYER
2
LEVEL_TEXT
70
0
62
1
6
CONTINUOUS
0
LAYER
2
FRAME
70
0
62
5
6
CONTINUOUS
0
ENDTAB
0
TABLE
2
STYLE
70
1
0
STYLE
2
STANDARD
70
0
40
0
41
1
50
0
71
0
42
100
3
txt
4

0
ENDTAB
0
ENDSEC
0
SECTION
2
BLOCKS
0
BLOCK
8
0
2
$MODEL_SPACE
70
0
10
0
20
0
30
0
3
$MODEL_SPACE
0
ENDBLK
8
0
0
BLOCK
67
1
8
0
2
$PAPER_SPACE
70
0
10
0
20
0
30
0
3
$PAPER_SPACE
0
ENDBLK
67
1
8
0
0
ENDSEC
0
SECTION
2
ENTITIES
0
LINE
8
PIPES
10
-862.5
20
-3127.505
30
0
11
-862.5
21
-2827.504
31
0
0
LINE
8
PIPES
10
869.550808
20
-2127.505
30
0
11
869.550808
21
-1827.504
31
0
0
LINE
8
PIPES
10
-862.5
20
-1127.505
30
0
11
-862.5
21
-827.504
31
0
0
LINE
8
PIPES
10
-2594.550808
20
-2127.505
30
0
11
-2594.550808
21
-1827.504
31
0
0
LINE
8
PIPES
10
869.550808
20
-1827.504
30
0
11
-862.5
21
-827.504
31
0
0
LINE
8
PIPES
10
-2594.550808
20
-1827.504
30
0
11
-862.5
21
-2827.504
31
0
0
LINE
8
PIPES
10
-862.5
20
-2827.504
30
0
11
-862.500084
21
-1127.504952
31
0
0
LINE
8
PIPES
10
869.550808
20
-1827.504
30
0
11
869.550808
21
-127.505
31
0
0
LINE
8
PIPES
10
-862.5
20
-827.504
30
0
11
-862.5
21
872.495
31
0
0
LINE
8
PIPES
10
-2594.550808
20
-1827.504
30
0
11
-2594.550808
21
-127.505
31
0
0
LINE
8
PIPES
10
869.550808
20
-127.505
30
0
11
3.528002
21
372.4935
31
0
0
LINE
8
PIPES
10
-2594.550808
20
-127.505
30
0
11
-1728.525404
21
-627.505
31
0
0
LINE
8
PIPES
10
-862.500084
20
-1127.504952
30
0
11
-862.5
21
572.505
31
0
0
LINE
8
PIPES
10
869.550808
20
-127.505
30
0
11
869.550808
21
1572.505
31
0
0
LINE
8
PIPES
10
-862.5
20
872.495
30
0
11
-862.5
21
2572.505
31
0
0
LINE
8
PIPES
10
-2594.550808
20
-127.505
30
0
11
-2594.550808
21
1572.505
31
0
0
LINE
8
PIPES
10
-862.5
20
572.505
30
0
11
3.527136
21
1072.506
31
0
0
LINE
8
PIPES
10
3.527136
20
1072.506
30
0
11
869.550808
21
1572.505
31
0
0
LINE
8
PIPES
10
869.550808
20
1572.505
30
0
11
-862.5
21
2572.505
31
0
0
LINE
8
PIPES
10
-862.5
20
2572.505
30
0
11
-1728.523672
21
2072.506
31
0
0
LINE
8
PIPES
10
-1728.523672
20
2072.506
30
0
11
-2594.550808
21
1572.505
31
0
0
LINE
8
PIPES
10
-2594.550808
20
1572.505
30
0
11
-862.5
21
572.505
31
0
0
LINE
8
PIPES
10
3.527136
20
1072.506
30
0
11
-256.281351
21
1222.5065
31
0
0
LINE
8
PIPES
10
-775.89746
20
1522.507
30
0
11
-1035.703349
21
1672.506
31
0
0
LINE
8
PIPES
10
-862.5
20
572.505
30
0
11
-862.5
21
872.505
31
0
0
LINE
8
PIPES
10
3.527136
20
1072.506
30
0
11
3.527136
21
1372.506
31
0
0
LINE
8
PIPES
10
869.550808
20
1572.505
30
0
11
869.550808
21
1872.505
31
0
0
LINE
8
PIPES
10
-862.5
20
2572.505
30
0
11
-862.5
21
2872.505
31
0
0
LINE
8
PIPES
10
-1728.523672
20
2072.506
30
0
11
-1728.523672
21
2372.506
31
0
0
LINE
8
PIPES
10
-2594.550808
20
1572.505
30
0
11
-2594.550808
21
1872.505
31
0
0
LINE
8
PIPES
10
-775.89746
20
1522.507
30
0
11
-775.89746
21
1822.507
31
0
0
LINE
8
PIPES
10
-862.5
20
872.505
30
0
11
3.527136
21
1372.506
31
0
0
LINE
8
PIPES
10
3.527136
20
1372.506
30
0
11
869.550808
21
1872.505
31
0
0
LINE
8
PIPES
10
869.550808
20
1872.505
30
0
11
-862.5
21
2872.505
31
0
0
LINE
8
PIPES
10
-862.5
20
2872.505
30
0
11
-1728.523672
21
2372.506
31
0
0
LINE
8
PIPES
10
-1728.523672
20
2372.506
30
0
11
-2594.550808
21
1872.505
31
0
0
LINE
8
PIPES
10
-2594.550808
20
1872.505
30
0
11
-862.5
21
872.505
31
0
0
LINE
8
PIPES
10
3.527136
20
1372.506
30
0
11
-256.281351
21
1522.5065
31
0
0
LINE
8
PIPES
10
-775.89746
20
1822.507
30
0
11
-1035.703349
21
1972.506
31
0
0
LINE
8
PIPES
10
-1295.51097
20
1822.506
30
0
11
-1728.523672
21
2072.506
31
0
0
LINE
8
PIPES
10
-1295.51097
20
2122.506
30
0
11
-1338.81224
21
2147.506
31
0
0
LINE
8
PIPES
10
-1295.51097
20
1822.506
30
0
11
-1295.51097
21
2122.506
31
0
0
LINE
8
PIPES
10
-1035.703349
20
1672.506
30
0
11
-1295.51097
21
1822.506
31
0
0
LINE
8
PIPES
10
-1035.703349
20
1972.506
30
0
11
-1295.51097
21
2122.506
31
0
0
LINE
8
PIPES
10
-1035.703349
20
1672.506
30
0
11
-1035.703349
21
1972.506
31
0
0
LINE
8
PIPES
10
-516.088972
20
1372.5065
30
0
11
-775.89746
21
1522.507
31
0
0
LINE
8
PIPES
10
-516.088972
20
1672.5065
30
0
11
-775.89746
21
1822.507
31
0
0
LINE
8
PIPES
10
-516.088972
20
1372.5065
30
0
11
-516.088972
21
1672.5065
31
0
0
LINE
8
PIPES
10
-256.281351
20
1222.5065
30
0
11
-516.088972
21
1372.5065
31
0
0
LINE
8
PIPES
10
-256.281351
20
1522.5065
30
0
11
-386.185162
21
1597.5065
31
0
0
LINE
8
PIPES
10
-256.281351
20
1222.5065
30
0
11
-256.281351
21
1522.5065
31
0
0
LINE
8
PIPES
10
-386.185162
20
1597.5065
30
0
11
-516.088972
21
1672.5065
31
0
0
LINE
8
PIPES
10
-862.5
20
872.495
30
0
11
3.528002
21
372.4935
31
0
0
LINE
8
PIPES
10
-862.500084
20
-1127.504952
30
0
11
-386.185162
21
1597.5065
31
0
0
LINE
8
PIPES
10
-862.500084
20
-1127.504952
30
0
11
3.522764
21
-627.506476
31
0
0
LINE
8
PIPES
10
-862.5
20
-2827.504
30
0
11
869.550808
21
-1827.504
31
0
0
LINE
8
PIPES
10
869.550808
20
1572.505
30
0
11
3.522764
21
-627.506476
31
0
0
LINE
8
PIPES
10
-862.5
20
572.505
30
0
11
-1728.525404
21
-627.505
31
0
0
LINE
8
PIPES
10
-862.5
20
2572.505
30
0
11
3.528002
21
372.4935
31
0
0
LINE
8
PIPES
10
-1728.525404
20
-627.505
30
0
11
-862.500084
21
-1127.504952
31
0
0
LINE
8
PIPES
10
-1728.525404
20
-627.505
30
0
11
-2594.550808
21
-1827.504
31
0
0
LINE
8
PIPES
10
3.522764
20
-627.506476
30
0
11
869.550808
21
-127.505
31
0
0
LINE
8
PIPES
10
3.522764
20
-627.506476
30
0
11
-862.5
21
-2827.504
31
0
0
LINE
8
PIPES
10
3.528002
20
372.4935
30
0
11
869.550808
21
-1827.504
31
0
0
LINE
8
PIPES
10
-1338.81224
20
2147.506
30
0
11
-1728.523672
21
2372.506
31
0
0
LINE
8
PIPES
10
-1338.81224
20
2147.506
30
0
11
-862.5
21
872.495
31
0
0
CIRCLE
8
DIMENSION
62
6
10
-862.5
20
872.505
30
0
40
85
0
CIRCLE
8
DIMENSION
62
6
10
-862.5
20
2872.505
30
0
40
85
0
LINE
8
DIMENSION
62
6
10
-862.5
20
872.505
30
0
11
1419.550808
21
872.505
31
0
0
LINE
8
DIMENSION
62
6
10
1419.550808
20
872.505
30
0
11
1419.550808
21
3052.505
31
0
0
LINE
8
DIMENSION
62
6
10
-862.5
20
2872.505
30
0
11
1419.550808
21
2872.505
31
0
0
LINE
8
DIMENSION
62
6
10
1419.550808
20
2872.505
30
0
11
1419.550808
21
3052.505
31
0
0
LINE
8
DIMENSION
62
6
10
1419.550808
20
3052.505
30
0
11
1689.550808
21
3052.505
31
0
0
TEXT
8
DIMENSION
62
6
10
1769.550808
20
3052.505
30
0
40
75
1
Tie points to
50
0
7
STANDARD
0
TEXT
8
DIMENSION
62
6
10
1769.550808
20
2922.505
30
0
40
75
1
existing structures
50
0
7
STANDARD
0
TEXT
8
DIMENSION
62
6
10
1769.550808
20
2792.505
30
0
40
75
1
at indicated points.
50
0
7
STANDARD
0
ENDSEC
0
EOF
