0
SECTION
2
HEADER
9
$ACADVER
1
AC1009
9
$INSUNITS
70
4
9
$MEASUREMENT
70
1
9
$LUNITS
70
2
9
$LUPREC
70
1
9
$TILEMODE
70
1
9
$EXTMIN
10
-2551.249537
20
-3102.505
30
0
9
$EXTMAX
10
2551.249537
20
3102.505
30
0
9
$PEXTMIN
10
-2551.249537
20
-3102.505
30
0
9
$PEXTMAX
10
2551.249537
20
3102.505
30
0
9
$LIMMIN
10
-3051.249537
20
-3602.505
9
$LIMMAX
10
3051.249537
20
3602.505
9
$PLIMMIN
10
-3051.249537
20
-3602.505
9
$PLIMMAX
10
3051.249537
20
3602.505
0
ENDSEC
0
SECTION
2
TABLES
0
TABLE
2
VPORT
70
1
0
VPORT
2
*ACTIVE
70
0
10
0
20
0
11
1
21
1
12
0
22
0
40
7205.01
41
0.84698
42
50
43
0
44
0
50
0
51
0
71
0
72
100
73
1
74
3
75
0
76
0
77
0
78
0
0
ENDTAB
0
TABLE
2
LTYPE
70
2
0
LTYPE
2
CONTINUOUS
70
0
3
Solid line
72
65
73
0
40
0
0
LTYPE
2
DASHED
70
0
3
Dashed
72
65
73
2
40
240
49
120
74
0
49
-120
74
0
0
ENDTAB
0
TABLE
2
LAYER
70
6
0
LAYER
2
PIPES
70
0
62
5
6
CONTINUOUS
0
LAYER
2
PIPE_ENDS
70
0
62
5
6
CONTINUOUS
0
LAYER
2
DIMENSION
70
0
62
1
6
CONTINUOUS
0
LAYER
2
LEVEL_GUIDE
70
0
62
1
6
DASHED
0
LAYER
2
LEVEL_TEXT
70
0
62
1
6
CONTINUOUS
0
LAYER
2
FRAME
70
0
62
5
6
CONTINUOUS
0
ENDTAB
0
TABLE
2
STYLE
70
1
0
STYLE
2
STANDARD
70
0
40
0
41
1
50
0
71
0
42
100
3
txt
4

0
ENDTAB
0
ENDSEC
0
SECTION
2
BLOCKS
0
BLOCK
8
0
2
$MODEL_SPACE
70
0
10
0
20
0
30
0
3
$MODEL_SPACE
0
ENDBLK
8
0
0
BLOCK
67
1
8
0
2
$PAPER_SPACE
70
0
10
0
20
0
30
0
3
$PAPER_SPACE
0
ENDBLK
67
1
8
0
0
ENDSEC
0
SECTION
2
ENTITIES
0
LINE
8
PIPES
10
-992.403811
20
-3102.505
30
0
11
-992.403811
21
-2802.504
31
0
0
LINE
8
PIPES
10
826.249537
20
-2052.505
30
0
11
826.249537
21
-1752.504
31
0
0
LINE
8
PIPES
10
-732.596189
20
-1152.505
30
0
11
-732.596189
21
-852.504
31
0
0
LINE
8
PIPES
10
-2551.249537
20
-2202.505
30
0
11
-2551.249537
21
-1902.504
31
0
0
LINE
8
PIPES
10
826.249537
20
-1752.504
30
0
11
-732.596189
21
-852.504
31
0
0
LINE
8
PIPES
10
-2551.249537
20
-1902.504
30
0
11
-992.403811
21
-2802.504
31
0
0
LINE
8
PIPES
10
-992.403811
20
-2802.504
30
0
11
-992.403811
21
-1102.505
31
0
0
LINE
8
PIPES
10
826.249537
20
-1752.504
30
0
11
826.249537
21
-52.505
31
0
0
LINE
8
PIPES
10
-732.596189
20
-852.504
30
0
11
-732.596189
21
847.495
31
0
0
LINE
8
PIPES
10
-2551.249537
20
-1902.504
30
0
11
-2551.249537
21
-202.505
31
0
0
LINE
8
PIPES
10
826.249537
20
-52.505
30
0
11
-342.884758
21
622.495
31
0
0
LINE
8
PIPES
10
-2551.249537
20
-202.505
30
0
11
-1382.116108
21
-877.5045
31
0
0
LINE
8
PIPES
10
-992.403811
20
-1102.505
30
0
11
-992.403811
21
597.505
31
0
0
LINE
8
PIPES
10
826.249537
20
-52.505
30
0
11
826.249537
21
1647.505
31
0
0
LINE
8
PIPES
10
-732.596189
20
847.495
30
0
11
-732.596189
21
2547.505
31
0
0
LINE
8
PIPES
10
-2551.249537
20
-202.505
30
0
11
-2551.249537
21
1497.505
31
0
0
LINE
8
PIPES
10
-992.403811
20
597.505
30
0
11
-83.075405
21
1122.506
31
0
0
LINE
8
PIPES
10
-83.075405
20
1122.506
30
0
11
826.249537
21
1647.505
31
0
0
LINE
8
PIPES
10
826.249537
20
1647.505
30
0
11
-732.596189
21
2547.505
31
0
0
LINE
8
PIPES
10
-732.596189
20
2547.505
30
0
11
-1641.921131
21
2022.506
31
0
0
LINE
8
PIPES
10
-1641.921131
20
2022.506
30
0
11
-2551.249537
21
1497.505
31
0
0
LINE
8
PIPES
10
-2551.249537
20
1497.505
30
0
11
-992.403811
21
597.505
31
0
0
LINE
8
PIPES
10
-83.075405
20
1122.506
30
0
11
-342.883892
21
1272.5065
31
0
0
LINE
8
PIPES
10
-862.5
20
1572.507
30
0
11
-1122.305889
21
1722.506
31
0
0
LINE
8
PIPES
10
-992.403811
20
597.505
30
0
11
-992.403811
21
897.505
31
0
0
LINE
8
PIPES
10
-83.075405
20
1122.506
30
0
11
-83.075405
21
1422.506
31
0
0
LINE
8
PIPES
10
826.249537
20
1647.505
30
0
11
826.249537
21
1947.505
31
0
0
LINE
8
PIPES
10
-732.596189
20
2547.505
30
0
11
-732.596189
21
2847.505
31
0
0
LINE
8
PIPES
10
-1641.921131
20
2022.506
30
0
11
-1641.921131
21
2322.506
31
0
0
LINE
8
PIPES
10
-2551.249537
20
1497.505
30
0
11
-2551.249537
21
1797.505
31
0
0
LINE
8
PIPES
10
-862.5
20
1572.507
30
0
11
-862.5
21
1872.507
31
0
0
LINE
8
PIPES
10
-992.403811
20
897.505
30
0
11
-83.075405
21
1422.506
31
0
0
LINE
8
PIPES
10
-83.075405
20
1422.506
30
0
11
826.249537
21
1947.505
31
0
0
LINE
8
PIPES
10
826.249537
20
1947.505
30
0
11
-732.596189
21
2847.505
31
0
0
LINE
8
PIPES
10
-732.596189
20
2847.505
30
0
11
-1641.921131
21
2322.506
31
0
0
LINE
8
PIPES
10
-1641.921131
20
2322.506
30
0
11
-2551.249537
21
1797.505
31
0
0
LINE
8
PIPES
10
-2551.249537
20
1797.505
30
0
11
-992.403811
21
897.505
31
0
0
LINE
8
PIPES
10
-83.075405
20
1422.506
30
0
11
-342.883892
21
1572.5065
31
0
0
LINE
8
PIPES
10
-862.5
20
1872.507
30
0
11
-1122.305889
21
2022.506
31
0
0
LINE
8
PIPES
10
-1382.11351
20
1872.506
30
0
11
-1641.921131
21
2022.506
31
0
0
LINE
8
PIPES
10
-1382.11351
20
2172.506
30
0
11
-1641.921131
21
2322.506
31
0
0
LINE
8
PIPES
10
-1382.11351
20
1872.506
30
0
11
-1382.11351
21
2172.506
31
0
0
LINE
8
PIPES
10
-1122.305889
20
1722.506
30
0
11
-1382.11351
21
1872.506
31
0
0
LINE
8
PIPES
10
-1122.305889
20
2022.506
30
0
11
-1252.2097
21
2097.506
31
0
0
LINE
8
PIPES
10
-1122.305889
20
1722.506
30
0
11
-1122.305889
21
2022.506
31
0
0
LINE
8
PIPES
10
-602.691513
20
1422.5065
30
0
11
-862.5
21
1572.507
31
0
0
LINE
8
PIPES
10
-602.691513
20
1722.5065
30
0
11
-862.5
21
1872.507
31
0
0
LINE
8
PIPES
10
-602.691513
20
1422.5065
30
0
11
-602.691513
21
1722.5065
31
0
0
LINE
8
PIPES
10
-342.883892
20
1272.5065
30
0
11
-602.691513
21
1422.5065
31
0
0
LINE
8
PIPES
10
-342.883892
20
1572.5065
30
0
11
-472.787702
21
1647.5065
31
0
0
LINE
8
PIPES
10
-342.883892
20
1272.5065
30
0
11
-342.883892
21
1572.5065
31
0
0
LINE
8
PIPES
10
-1252.2097
20
2097.506
30
0
11
-1382.11351
21
2172.506
31
0
0
LINE
8
PIPES
10
-472.787702
20
1647.5065
30
0
11
-602.691513
21
1722.5065
31
0
0
LINE
8
PIPES
10
-1382.116108
20
-877.5045
30
0
11
-992.403811
21
-1102.505
31
0
0
LINE
8
PIPES
10
-342.884758
20
622.495
30
0
11
-732.596189
21
847.495
31
0
0
LINE
8
PIPES
10
-342.884758
20
622.495
30
0
11
-1252.2097
21
2097.506
31
0
0
LINE
8
PIPES
10
-1382.116108
20
-877.5045
30
0
11
-472.787702
21
1647.5065
31
0
0
LINE
8
PIPES
10
-992.403811
20
-1102.505
30
0
11
826.249537
21
-52.505
31
0
0
LINE
8
PIPES
10
-992.403811
20
-2802.504
30
0
11
826.249537
21
-1752.504
31
0
0
LINE
8
PIPES
10
826.249537
20
1647.505
30
0
11
-992.403811
21
-2802.504
31
0
0
LINE
8
PIPES
10
-992.403811
20
597.505
30
0
11
-2551.249537
21
-1902.504
31
0
0
LINE
8
PIPES
10
-732.596189
20
2547.505
30
0
11
826.249537
21
-1752.504
31
0
0
CIRCLE
8
DIMENSION
62
6
10
-992.403811
20
897.505
30
0
40
85
0
CIRCLE
8
DIMENSION
62
6
10
-732.596189
20
2847.505
30
0
40
85
0
LINE
8
DIMENSION
62
6
10
-992.403811
20
897.505
30
0
11
1376.249537
21
897.505
31
0
0
LINE
8
DIMENSION
62
6
10
1376.249537
20
897.505
30
0
11
1376.249537
21
3027.505
31
0
0
LINE
8
DIMENSION
62
6
10
-732.596189
20
2847.505
30
0
11
1376.249537
21
2847.505
31
0
0
LINE
8
DIMENSION
62
6
10
1376.249537
20
2847.505
30
0
11
1376.249537
21
3027.505
31
0
0
LINE
8
DIMENSION
62
6
10
1376.249537
20
3027.505
30
0
11
1646.249537
21
3027.505
31
0
0
TEXT
8
DIMENSION
62
6
10
1726.249537
20
3027.505
30
0
40
75
1
Tie points to
50
0
7
STANDARD
0
TEXT
8
DIMENSION
62
6
10
1726.249537
20
2897.505
30
0
40
75
1
existing structures
50
0
7
STANDARD
0
TEXT
8
DIMENSION
62
6
10
1726.249537
20
2767.505
30
0
40
75
1
at indicated points.
50
0
7
STANDARD
0
ENDSEC
0
EOF
