0
SECTION
2
HEADER
9
$ACADVER
1
AC1009
9
$INSUNITS
70
4
9
$MEASUREMENT
70
1
9
$LUNITS
70
2
9
$LUPREC
70
1
9
$TILEMODE
70
1
9
$EXTMIN
10
-4360.38
20
-4141.730773
30
0
9
$EXTMAX
10
4360.38
20
4141.730773
30
0
9
$PEXTMIN
10
-4360.38
20
-4141.730773
30
0
9
$PEXTMAX
10
4360.38
20
4141.730773
30
0
9
$LIMMIN
10
-4860.38
20
-4641.730773
9
$LIMMAX
10
4860.38
20
4641.730773
9
$PLIMMIN
10
-4860.38
20
-4641.730773
9
$PLIMMAX
10
4860.38
20
4641.730773
0
ENDSEC
0
SECTION
2
TABLES
0
TABLE
2
VPORT
70
1
0
VPORT
2
*ACTIVE
70
0
10
0
20
0
11
1
21
1
12
0
22
0
40
9283.461545
41
1.047105
42
50
43
0
44
0
50
0
51
0
71
0
72
100
73
1
74
3
75
0
76
0
77
0
78
0
0
ENDTAB
0
TABLE
2
LTYPE
70
2
0
LTYPE
2
CONTINUOUS
70
0
3
Solid line
72
65
73
0
40
0
0
LTYPE
2
DASHED
70
0
3
Dashed
72
65
73
2
40
240
49
120
74
0
49
-120
74
0
0
ENDTAB
0
TABLE
2
LAYER
70
6
0
LAYER
2
PIPES
70
0
62
5
6
CONTINUOUS
0
LAYER
2
PIPE_ENDS
70
0
62
5
6
CONTINUOUS
0
LAYER
2
DIMENSION
70
0
62
1
6
CONTINUOUS
0
LAYER
2
LEVEL_GUIDE
70
0
62
1
6
DASHED
0
LAYER
2
LEVEL_TEXT
70
0
62
1
6
CONTINUOUS
0
LAYER
2
FRAME
70
0
62
5
6
CONTINUOUS
0
ENDTAB
0
TABLE
2
STYLE
70
1
0
STYLE
2
STANDARD
70
0
40
0
41
1
50
0
71
0
42
100
3
txt
4

0
ENDTAB
0
ENDSEC
0
SECTION
2
BLOCKS
0
BLOCK
8
0
2
$MODEL_SPACE
70
0
10
0
20
0
30
0
3
$MODEL_SPACE
0
ENDBLK
8
0
0
BLOCK
67
1
8
0
2
$PAPER_SPACE
70
0
10
0
20
0
30
0
3
$PAPER_SPACE
0
ENDBLK
67
1
8
0
0
ENDSEC
0
SECTION
2
ENTITIES
0
LINE
8
PIPES
10
-3180.38
20
1378.280227
30
0
11
-2680.379
21
1378.280227
31
0
0
LINE
8
PIPES
10
-180.37
20
1378.280227
30
0
11
-1180.38
21
1378.280227
31
0
0
LINE
8
PIPES
10
-180.37
20
1378.280227
30
0
11
819.63
21
1378.280227
31
0
0
LINE
8
PIPES
10
-2180.38
20
1378.280227
30
0
11
-1180.38
21
1378.280227
31
0
0
LINE
8
PIPES
10
-2680.379
20
1378.280227
30
0
11
-2180.38
21
1378.280227
31
0
0
LINE
8
PIPES
10
-3180.38
20
1378.280227
30
0
11
-3180.38
21
1078.279227
31
0
0
LINE
8
PIPES
10
-1180.38
20
1378.280227
30
0
11
-1180.38
21
1078.279227
31
0
0
LINE
8
PIPES
10
819.63
20
1378.280227
30
0
11
819.63
21
1078.279227
31
0
0
LINE
8
PIPES
10
-2680.379
20
1378.280227
30
0
11
-2680.379
21
1078.279227
31
0
0
LINE
8
PIPES
10
-2180.38
20
1378.280227
30
0
11
-2180.38
21
1078.279227
31
0
0
LINE
8
PIPES
10
-180.37
20
1378.280227
30
0
11
-180.37
21
1078.279615
31
0
0
LINE
8
PIPES
10
-3180.38
20
2078.279227
30
0
11
-3180.38
21
1378.280227
31
0
0
LINE
8
PIPES
10
-1180.38
20
2078.279227
30
0
11
-1180.38
21
1378.280227
31
0
0
LINE
8
PIPES
10
819.63
20
2078.279227
30
0
11
819.63
21
1378.280227
31
0
0
LINE
8
PIPES
10
-2680.379
20
1378.280227
30
0
11
-2680.379
21
2078.279227
31
0
0
LINE
8
PIPES
10
-2180.38
20
2078.279227
30
0
11
-2180.38
21
1378.280227
31
0
0
LINE
8
PIPES
10
-180.37
20
2078.279227
30
0
11
-180.37
21
1378.280227
31
0
0
LINE
8
PIPES
10
-2880.379
20
2078.279227
30
0
11
-3180.38
21
2078.279227
31
0
0
LINE
8
PIPES
10
-1080.38
20
2078.279227
30
0
11
-1180.38
21
2078.279227
31
0
0
LINE
8
PIPES
10
719.63
20
2078.279227
30
0
11
819.63
21
2078.279227
31
0
0
LINE
8
PIPES
10
-1380.38
20
2078.279227
30
0
11
-1180.38
21
2078.279227
31
0
0
LINE
8
PIPES
10
-2580.379
20
2078.279227
30
0
11
-2680.379
21
2078.279227
31
0
0
LINE
8
PIPES
10
-2880.379
20
2078.279227
30
0
11
-2680.379
21
2078.279227
31
0
0
LINE
8
PIPES
10
-3180.38
20
2078.279227
30
0
11
-2680.379
21
2078.279227
31
0
0
LINE
8
PIPES
10
-1980.38
20
2078.279227
30
0
11
-2180.38
21
2078.279227
31
0
0
LINE
8
PIPES
10
-2280.378
20
2078.279227
30
0
11
-2180.38
21
2078.279227
31
0
0
LINE
8
PIPES
10
-2680.379
20
2078.279227
30
0
11
-2180.38
21
2078.279227
31
0
0
LINE
8
PIPES
10
119.63
20
2078.279227
30
0
11
-180.37
21
2078.279227
31
0
0
LINE
8
PIPES
10
-480.37
20
2078.279227
30
0
11
-180.37
21
2078.279227
31
0
0
LINE
8
PIPES
10
-3180.38
20
2078.279227
30
0
11
-3180.38
21
2378.279227
31
0
0
LINE
8
PIPES
10
-1180.38
20
2078.279227
30
0
11
-1180.38
21
3228.289227
31
0
0
LINE
8
PIPES
10
819.63
20
2078.279227
30
0
11
819.63
21
2378.279227
31
0
0
LINE
8
PIPES
10
-1180.38
20
2078.279227
30
0
11
-1180.38
21
2378.279227
31
0
0
LINE
8
PIPES
10
-2680.379
20
2078.279227
30
0
11
-2680.379
21
4078.289227
31
0
0
LINE
8
PIPES
10
-2680.379
20
2078.279227
30
0
11
-2680.379
21
2378.279227
31
0
0
LINE
8
PIPES
10
-2180.38
20
2078.279227
30
0
11
-2180.38
21
3228.289227
31
0
0
LINE
8
PIPES
10
-1180.38
20
2078.279227
30
0
11
-1180.38
21
3778.289227
31
0
0
LINE
8
PIPES
10
819.63
20
4078.289227
30
0
11
819.63
21
2078.279227
31
0
0
LINE
8
PIPES
10
-180.37
20
2078.279227
30
0
11
-180.37
21
2378.279227
31
0
0
LINE
8
PIPES
10
-2680.379
20
4078.289227
30
0
11
-3180.38
21
4078.289227
31
0
0
LINE
8
PIPES
10
-180.37
20
4078.289227
30
0
11
-1180.38
21
4078.289227
31
0
0
LINE
8
PIPES
10
-180.37
20
4078.289227
30
0
11
819.63
21
4078.289227
31
0
0
LINE
8
PIPES
10
-1180.38
20
4078.289227
30
0
11
-2180.38
21
4078.289227
31
0
0
LINE
8
PIPES
10
-2180.38
20
4078.289227
30
0
11
-2680.379
21
4078.289227
31
0
0
LINE
8
PIPES
10
-1180.38
20
3778.289227
30
0
11
-1180.38
21
4078.289227
31
0
0
LINE
8
PIPES
10
-1180.38
20
4078.289227
30
0
11
-1480.38
21
4078.289227
31
0
0
LINE
8
PIPES
10
-1180.38
20
3778.289227
30
0
11
-1480.38
21
3778.289227
31
0
0
LINE
8
PIPES
10
-1480.38
20
3778.289227
30
0
11
-1480.38
21
4078.289227
31
0
0
LINE
8
PIPES
10
-1480.38
20
4078.289227
30
0
11
-1780.38
21
4078.289227
31
0
0
LINE
8
PIPES
10
-1480.38
20
3778.289227
30
0
11
-1780.38
21
3778.289227
31
0
0
LINE
8
PIPES
10
-1780.38
20
3778.289227
30
0
11
-1780.38
21
4078.289227
31
0
0
LINE
8
PIPES
10
-1780.38
20
4078.289227
30
0
11
-2080.38
21
4078.289227
31
0
0
LINE
8
PIPES
10
-1780.38
20
3778.289227
30
0
11
-2080.38
21
3778.289227
31
0
0
LINE
8
PIPES
10
-2080.38
20
3778.289227
30
0
11
-2080.38
21
4078.289227
31
0
0
LINE
8
PIPES
10
-2080.38
20
4078.289227
30
0
11
-2180.38
21
4078.289227
31
0
0
LINE
8
PIPES
10
-2080.38
20
3778.289227
30
0
11
-2380.378
21
3778.289227
31
0
0
LINE
8
PIPES
10
-2380.378
20
3778.289227
30
0
11
-2380.378
21
4078.289227
31
0
0
LINE
8
PIPES
10
-2380.378
20
4078.289227
30
0
11
-2680.379
21
4078.289227
31
0
0
LINE
8
PIPES
10
-2380.378
20
3778.289227
30
0
11
-2680.379
21
3778.289227
31
0
0
LINE
8
PIPES
10
-2680.379
20
3778.289227
30
0
11
-2680.379
21
4078.289227
31
0
0
LINE
8
PIPES
10
-2680.379
20
4078.289227
30
0
11
-2980.38
21
4078.289227
31
0
0
LINE
8
PIPES
10
-2680.379
20
3778.289227
30
0
11
-2980.38
21
3778.289227
31
0
0
LINE
8
PIPES
10
-2980.38
20
3778.289227
30
0
11
-2980.38
21
4078.289227
31
0
0
LINE
8
PIPES
10
-2980.38
20
4078.289227
30
0
11
-3180.38
21
4078.289227
31
0
0
LINE
8
PIPES
10
-2980.38
20
3778.289227
30
0
11
-3280.38
21
3778.289227
31
0
0
LINE
8
PIPES
10
-3280.38
20
3778.289227
30
0
11
-3280.38
21
4078.289227
31
0
0
LINE
8
PIPES
10
-3280.38
20
4078.289227
30
0
11
-3580.381
21
4078.289227
31
0
0
LINE
8
PIPES
10
-3280.38
20
3778.289227
30
0
11
-3580.381
21
3778.289227
31
0
0
LINE
8
PIPES
10
-3580.381
20
3778.289227
30
0
11
-3580.381
21
4078.289227
31
0
0
LINE
8
PIPES
10
-3580.381
20
4078.289227
30
0
11
-3880.381
21
4078.289227
31
0
0
LINE
8
PIPES
10
-3580.381
20
3778.289227
30
0
11
-3880.381
21
3778.289227
31
0
0
LINE
8
PIPES
10
-3880.381
20
3778.289227
30
0
11
-3880.381
21
4078.289227
31
0
0
LINE
8
PIPES
10
-3880.381
20
4078.289227
30
0
11
-4180.38
21
4078.289227
31
0
0
LINE
8
PIPES
10
-3880.381
20
3778.289227
30
0
11
-4180.38
21
3778.289227
31
0
0
LINE
8
PIPES
10
-4180.38
20
3778.289227
30
0
11
-4180.38
21
4078.289227
31
0
0
LINE
8
PIPES
10
-2180.38
20
4078.289227
30
0
11
-2380.378
21
4078.289227
31
0
0
LINE
8
PIPES
10
-3180.38
20
4078.289227
30
0
11
-3280.38
21
4078.289227
31
0
0
LINE
8
PIPES
10
-3180.38
20
2378.279227
30
0
11
-3180.38
21
3228.289227
31
0
0
LINE
8
PIPES
10
-3180.38
20
2378.279227
30
0
11
-2880.379
21
2378.279227
31
0
0
LINE
8
PIPES
10
-2880.379
20
2078.279227
30
0
11
-2880.379
21
2378.279227
31
0
0
LINE
8
PIPES
10
-2280.378
20
2078.279227
30
0
11
-2580.379
21
2078.279227
31
0
0
LINE
8
PIPES
10
-2880.379
20
2078.279227
30
0
11
-2580.379
21
2078.279227
31
0
0
LINE
8
PIPES
10
-2880.379
20
2378.279227
30
0
11
-2580.379
21
2378.279227
31
0
0
LINE
8
PIPES
10
-2880.379
20
2378.279227
30
0
11
-2680.379
21
2378.279227
31
0
0
LINE
8
PIPES
10
-2580.379
20
2078.279227
30
0
11
-2580.379
21
2378.279227
31
0
0
LINE
8
PIPES
10
-2580.379
20
2378.279227
30
0
11
-2280.378
21
2378.279227
31
0
0
LINE
8
PIPES
10
-2280.378
20
2078.279227
30
0
11
-2280.378
21
2378.279227
31
0
0
LINE
8
PIPES
10
-1680.38
20
2078.279227
30
0
11
-1980.38
21
2078.279227
31
0
0
LINE
8
PIPES
10
-2280.378
20
2078.279227
30
0
11
-1980.38
21
2078.279227
31
0
0
LINE
8
PIPES
10
-2280.378
20
2378.279227
30
0
11
-1980.38
21
2378.279227
31
0
0
LINE
8
PIPES
10
-1980.38
20
2078.279227
30
0
11
-1980.38
21
2378.279227
31
0
0
LINE
8
PIPES
10
-1380.38
20
2078.279227
30
0
11
-1680.38
21
2078.279227
31
0
0
LINE
8
PIPES
10
-1980.38
20
2378.279227
30
0
11
-1680.38
21
2378.279227
31
0
0
LINE
8
PIPES
10
-1680.38
20
2078.279227
30
0
11
-1680.38
21
2378.279227
31
0
0
LINE
8
PIPES
10
-1680.38
20
2378.279227
30
0
11
-1380.38
21
2378.279227
31
0
0
LINE
8
PIPES
10
-1380.38
20
2078.279227
30
0
11
-1380.38
21
2378.279227
31
0
0
LINE
8
PIPES
10
-780.38
20
2078.279227
30
0
11
-1080.38
21
2078.279227
31
0
0
LINE
8
PIPES
10
-1380.38
20
2078.279227
30
0
11
-1080.38
21
2078.279227
31
0
0
LINE
8
PIPES
10
-1380.38
20
2378.279227
30
0
11
-1080.38
21
2378.279227
31
0
0
LINE
8
PIPES
10
-1380.38
20
2378.279227
30
0
11
-1180.38
21
2378.279227
31
0
0
LINE
8
PIPES
10
-1080.38
20
2078.279227
30
0
11
-1080.38
21
2378.279227
31
0
0
LINE
8
PIPES
10
-480.37
20
2078.279227
30
0
11
-780.38
21
2078.279227
31
0
0
LINE
8
PIPES
10
-1080.38
20
2378.279227
30
0
11
-780.38
21
2378.279227
31
0
0
LINE
8
PIPES
10
-780.38
20
2078.279227
30
0
11
-780.38
21
2378.279227
31
0
0
LINE
8
PIPES
10
-780.38
20
2378.279227
30
0
11
-480.37
21
2378.279227
31
0
0
LINE
8
PIPES
10
-480.37
20
2078.279227
30
0
11
-480.37
21
2378.279227
31
0
0
LINE
8
PIPES
10
-180.37
20
2378.279227
30
0
11
-180.37
21
3228.289227
31
0
0
LINE
8
PIPES
10
-480.37
20
2378.279227
30
0
11
-180.37
21
2378.279227
31
0
0
LINE
8
PIPES
10
419.63
20
2078.279227
30
0
11
119.63
21
2078.279227
31
0
0
LINE
8
PIPES
10
-180.37
20
2378.279227
30
0
11
119.63
21
2378.279227
31
0
0
LINE
8
PIPES
10
119.63
20
2078.279227
30
0
11
119.63
21
2378.279227
31
0
0
LINE
8
PIPES
10
719.63
20
2078.279227
30
0
11
419.63
21
2078.279227
31
0
0
LINE
8
PIPES
10
119.63
20
2378.279227
30
0
11
419.63
21
2378.279227
31
0
0
LINE
8
PIPES
10
419.63
20
2078.279227
30
0
11
419.63
21
2378.279227
31
0
0
LINE
8
PIPES
10
419.63
20
2378.279227
30
0
11
719.63
21
2378.279227
31
0
0
LINE
8
PIPES
10
719.63
20
2078.279227
30
0
11
1019.63
21
2078.279227
31
0
0
LINE
8
PIPES
10
719.63
20
2378.279227
30
0
11
819.63
21
2378.279227
31
0
0
LINE
8
PIPES
10
1019.63
20
2078.279227
30
0
11
1019.63
21
2378.279227
31
0
0
LINE
8
PIPES
10
1019.63
20
2078.279227
30
0
11
1319.63
21
2078.279227
31
0
0
LINE
8
PIPES
10
1019.63
20
2378.279227
30
0
11
1319.63
21
2378.279227
31
0
0
LINE
8
PIPES
10
1319.63
20
2078.279227
30
0
11
1319.63
21
2378.279227
31
0
0
LINE
8
PIPES
10
1319.63
20
2078.279227
30
0
11
1619.63
21
2078.279227
31
0
0
LINE
8
PIPES
10
1319.63
20
2378.279227
30
0
11
1619.63
21
2378.279227
31
0
0
LINE
8
PIPES
10
1619.63
20
2078.279227
30
0
11
1619.63
21
2378.279227
31
0
0
LINE
8
PIPES
10
1619.63
20
2078.279227
30
0
11
1819.63
21
2078.279227
31
0
0
LINE
8
PIPES
10
1619.63
20
2378.279227
30
0
11
1919.63
21
2378.279227
31
0
0
LINE
8
PIPES
10
1919.63
20
2078.279227
30
0
11
1919.63
21
2378.279227
31
0
0
LINE
8
PIPES
10
1919.63
20
2078.279227
30
0
11
2219.63
21
2078.279227
31
0
0
LINE
8
PIPES
10
1919.63
20
2378.279227
30
0
11
2219.63
21
2378.279227
31
0
0
LINE
8
PIPES
10
2219.63
20
2078.279227
30
0
11
2219.63
21
2378.279227
31
0
0
LINE
8
PIPES
10
2219.63
20
2078.279227
30
0
11
2519.63
21
2078.279227
31
0
0
LINE
8
PIPES
10
2219.63
20
2378.279227
30
0
11
2519.63
21
2378.279227
31
0
0
LINE
8
PIPES
10
2519.63
20
2078.279227
30
0
11
2519.63
21
2378.279227
31
0
0
LINE
8
PIPES
10
819.63
20
2378.279227
30
0
11
819.63
21
3228.289227
31
0
0
LINE
8
PIPES
10
-1180.38
20
2378.279227
30
0
11
-1180.38
21
3228.289227
31
0
0
LINE
8
PIPES
10
-2680.379
20
2378.279227
30
0
11
-2680.379
21
4078.289227
31
0
0
LINE
8
PIPES
10
-2680.379
20
2378.279227
30
0
11
-2580.379
21
2378.279227
31
0
0
LINE
8
PIPES
10
-1180.38
20
2378.279227
30
0
11
-1080.38
21
2378.279227
31
0
0
LINE
8
PIPES
10
819.63
20
2378.279227
30
0
11
1019.63
21
2378.279227
31
0
0
LINE
8
PIPES
10
-3180.38
20
3228.289227
30
0
11
-3180.38
21
4078.289227
31
0
0
LINE
8
PIPES
10
-2180.38
20
3228.289227
30
0
11
-2180.38
21
4078.289227
31
0
0
LINE
8
PIPES
10
-3180.38
20
3228.289227
30
0
11
-2180.38
21
3228.289227
31
0
0
LINE
8
PIPES
10
-1180.38
20
3228.289227
30
0
11
-1180.38
21
4078.289227
31
0
0
LINE
8
PIPES
10
-2180.38
20
3228.289227
30
0
11
-1180.38
21
3228.289227
31
0
0
LINE
8
PIPES
10
-180.37
20
3228.289227
30
0
11
-180.37
21
4078.289227
31
0
0
LINE
8
PIPES
10
-1180.38
20
3228.289227
30
0
11
-180.37
21
3228.289227
31
0
0
LINE
8
PIPES
10
819.63
20
3228.289227
30
0
11
819.63
21
4078.289227
31
0
0
LINE
8
PIPES
10
-180.37
20
3228.289227
30
0
11
819.63
21
3228.289227
31
0
0
LINE
8
PIPES
10
2519.63
20
2078.279227
30
0
11
2619.63
21
2078.279227
31
0
0
LINE
8
PIPES
10
2519.63
20
2378.279227
30
0
11
2619.63
21
2378.279227
31
0
0
LINE
8
PIPES
10
2619.63
20
2078.279227
30
0
11
2619.63
21
2378.279227
31
0
0
LINE
8
PIPES
10
1019.63
20
2078.279227
30
0
11
1019.63
21
1078.276902
31
0
0
LINE
8
PIPES
10
2619.63
20
2078.279227
30
0
11
2619.63
21
1078.276902
31
0
0
LINE
8
PIPES
10
1819.63
20
-2921.730773
30
0
11
1019.63
21
-2921.730773
31
0
0
LINE
8
PIPES
10
2619.63
20
-2921.730773
30
0
11
1819.63
21
-2921.730773
31
0
0
LINE
8
PIPES
10
1819.63
20
2078.279227
30
0
11
1919.63
21
2078.279227
31
0
0
LINE
8
PIPES
10
1819.63
20
-2921.730773
30
0
11
1819.63
21
-2421.730773
31
0
0
LINE
8
PIPES
10
1019.63
20
-921.730773
30
0
11
1019.63
21
-1921.730773
31
0
0
LINE
8
PIPES
10
2619.63
20
-921.730773
30
0
11
2619.63
21
-1921.730773
31
0
0
LINE
8
PIPES
10
1819.63
20
-921.730773
30
0
11
1819.63
21
-421.730773
31
0
0
LINE
8
PIPES
10
1019.63
20
1078.276902
30
0
11
1019.63
21
78.269227
31
0
0
LINE
8
PIPES
10
2619.63
20
1078.276902
30
0
11
2619.63
21
78.269227
31
0
0
LINE
8
PIPES
10
1819.63
20
1078.276902
30
0
11
1819.63
21
2078.279227
31
0
0
LINE
8
PIPES
10
1819.63
20
-921.730773
30
0
11
1019.63
21
-921.730773
31
0
0
LINE
8
PIPES
10
2619.63
20
-921.730773
30
0
11
1819.63
21
-921.730773
31
0
0
LINE
8
PIPES
10
1819.63
20
1078.276902
30
0
11
1019.63
21
1078.276902
31
0
0
LINE
8
PIPES
10
2619.63
20
1078.276902
30
0
11
1819.63
21
1078.276902
31
0
0
LINE
8
PIPES
10
1019.63
20
-2921.730773
30
0
11
1019.63
21
-2421.730773
31
0
0
LINE
8
PIPES
10
2619.63
20
-2921.730773
30
0
11
2619.63
21
-2421.730773
31
0
0
LINE
8
PIPES
10
1819.63
20
-2421.730773
30
0
11
1819.63
21
-1921.730773
31
0
0
LINE
8
PIPES
10
1019.63
20
-2421.730773
30
0
11
1819.63
21
-2421.730773
31
0
0
LINE
8
PIPES
10
1819.63
20
-2421.730773
30
0
11
2619.63
21
-2421.730773
31
0
0
LINE
8
PIPES
10
1019.63
20
-2421.730773
30
0
11
1019.63
21
-1921.730773
31
0
0
LINE
8
PIPES
10
2619.63
20
-2421.730773
30
0
11
2619.63
21
-1921.730773
31
0
0
LINE
8
PIPES
10
1819.63
20
-1921.730773
30
0
11
1819.63
21
-921.730773
31
0
0
LINE
8
PIPES
10
1019.63
20
-1921.730773
30
0
11
1819.63
21
-1921.730773
31
0
0
LINE
8
PIPES
10
1819.63
20
-1921.730773
30
0
11
2619.63
21
-1921.730773
31
0
0
LINE
8
PIPES
10
1019.63
20
-2921.730773
30
0
11
1019.63
21
-3221.730773
31
0
0
LINE
8
PIPES
10
2619.63
20
-2921.730773
30
0
11
2619.63
21
-3221.730773
31
0
0
LINE
8
PIPES
10
1819.63
20
-2921.730773
30
0
11
1819.63
21
-3221.730773
31
0
0
LINE
8
PIPES
10
-4180.38
20
3778.289227
30
0
11
-4180.38
21
1078.283878
31
0
0
LINE
8
PIPES
10
1019.63
20
-921.730773
30
0
11
1019.63
21
-421.730773
31
0
0
LINE
8
PIPES
10
2619.63
20
-921.730773
30
0
11
2619.63
21
-421.730773
31
0
0
LINE
8
PIPES
10
1819.63
20
-421.730773
30
0
11
1819.63
21
78.269227
31
0
0
LINE
8
PIPES
10
1019.63
20
-421.730773
30
0
11
1819.63
21
-421.730773
31
0
0
LINE
8
PIPES
10
1819.63
20
-421.730773
30
0
11
2619.63
21
-421.730773
31
0
0
LINE
8
PIPES
10
1019.63
20
-421.730773
30
0
11
1019.63
21
78.269227
31
0
0
LINE
8
PIPES
10
2619.63
20
-421.730773
30
0
11
2619.63
21
78.269227
31
0
0
LINE
8
PIPES
10
1819.63
20
78.269227
30
0
11
1819.63
21
1078.276902
31
0
0
LINE
8
PIPES
10
1019.63
20
78.269227
30
0
11
1819.63
21
78.269227
31
0
0
LINE
8
PIPES
10
1819.63
20
78.269227
30
0
11
2619.63
21
78.269227
31
0
0
LINE
8
PIPES
10
-2180.38
20
4078.289227
30
0
11
-3180.38
21
2078.279227
31
0
0
LINE
8
PIPES
10
-2180.38
20
4078.289227
30
0
11
-1180.38
21
2078.279227
31
0
0
LINE
8
PIPES
10
-1180.38
20
2078.279227
30
0
11
-180.37
21
4078.289227
31
0
0
LINE
8
PIPES
10
-180.37
20
4078.289227
30
0
11
819.63
21
2078.279227
31
0
0
LINE
8
PIPES
10
-3180.38
20
2078.279227
30
0
11
-2180.38
21
1378.280227
31
0
0
LINE
8
PIPES
10
-2180.38
20
1378.280227
30
0
11
-1180.38
21
2078.279227
31
0
0
LINE
8
PIPES
10
-1180.38
20
2078.279227
30
0
11
-180.37
21
1378.280227
31
0
0
LINE
8
PIPES
10
-180.37
20
1378.280227
30
0
11
819.63
21
2078.279227
31
0
0
LINE
8
PIPES
10
1019.63
20
2078.279227
30
0
11
1819.63
21
1078.276902
31
0
0
LINE
8
PIPES
10
1819.63
20
1078.276902
30
0
11
2619.63
21
2078.279227
31
0
0
LINE
8
PIPES
10
1019.63
20
1078.276902
30
0
11
1819.63
21
78.269227
31
0
0
LINE
8
PIPES
10
1819.63
20
78.269227
30
0
11
2619.63
21
1078.276902
31
0
0
LINE
8
PIPES
10
1019.63
20
78.269227
30
0
11
1819.63
21
-921.730773
31
0
0
LINE
8
PIPES
10
1819.63
20
-921.730773
30
0
11
2619.63
21
78.269227
31
0
0
LINE
8
PIPES
10
1019.63
20
-921.730773
30
0
11
1819.63
21
-1921.730773
31
0
0
LINE
8
PIPES
10
1819.63
20
-1921.730773
30
0
11
2619.63
21
-921.730773
31
0
0
LINE
8
PIPES
10
1019.63
20
-1921.730773
30
0
11
1819.63
21
-2921.730773
31
0
0
LINE
8
PIPES
10
1819.63
20
-2921.730773
30
0
11
2619.63
21
-1921.730773
31
0
0
LINE
8
PIPES
10
-3180.38
20
4078.289227
30
0
11
-2180.38
21
2078.279227
31
0
0
LINE
8
PIPES
10
-2180.38
20
2078.279227
30
0
11
-1180.38
21
4078.289227
31
0
0
LINE
8
PIPES
10
-1180.38
20
4078.289227
30
0
11
-180.37
21
2078.279227
31
0
0
LINE
8
PIPES
10
-180.37
20
2078.279227
30
0
11
819.63
21
4078.289227
31
0
0
LINE
8
PIPES
10
1819.63
20
2078.279227
30
0
11
1019.63
21
1078.276902
31
0
0
LINE
8
PIPES
10
1819.63
20
2078.279227
30
0
11
2619.63
21
1078.276902
31
0
0
LINE
8
PIPES
10
1819.63
20
1078.276902
30
0
11
1019.63
21
78.269227
31
0
0
LINE
8
PIPES
10
1819.63
20
1078.276902
30
0
11
2619.63
21
78.269227
31
0
0
LINE
8
PIPES
10
1819.63
20
78.269227
30
0
11
1019.63
21
-921.730773
31
0
0
LINE
8
PIPES
10
1819.63
20
78.269227
30
0
11
2619.63
21
-921.730773
31
0
0
LINE
8
PIPES
10
1819.63
20
-921.730773
30
0
11
1019.63
21
-1921.730773
31
0
0
LINE
8
PIPES
10
1819.63
20
-921.730773
30
0
11
2619.63
21
-1921.730773
31
0
0
LINE
8
PIPES
10
1819.63
20
-1921.730773
30
0
11
1019.63
21
-2921.730773
31
0
0
LINE
8
PIPES
10
1819.63
20
-1921.730773
30
0
11
2619.63
21
-2921.730773
31
0
0
LINE
8
PIPES
10
-2180.38
20
2078.279227
30
0
11
-3180.38
21
1378.280227
31
0
0
LINE
8
PIPES
10
-2180.38
20
2078.279227
30
0
11
-1180.38
21
1378.280227
31
0
0
LINE
8
PIPES
10
-1180.38
20
1378.280227
30
0
11
-180.37
21
2078.279227
31
0
0
LINE
8
PIPES
10
-180.37
20
2078.279227
30
0
11
819.63
21
1378.280227
31
0
0
LINE
8
PIPES
10
-2180.38
20
4078.289227
30
0
11
-2180.38
21
2078.279227
31
0
0
LINE
8
PIPES
10
-1180.38
20
4078.289227
30
0
11
-1180.38
21
2078.279227
31
0
0
LINE
8
PIPES
10
-180.37
20
2078.279227
30
0
11
-180.37
21
4078.289227
31
0
0
LINE
8
PIPES
10
2619.63
20
78.269227
30
0
11
2619.63
21
-921.730773
31
0
0
LINE
8
PIPES
10
2619.63
20
-1921.730773
30
0
11
2619.63
21
-2921.730773
31
0
0
LINE
8
PIPES
10
-2180.38
20
4078.289227
30
0
11
-3180.38
21
4078.289227
31
0
0
LINE
8
PIPES
10
-2180.38
20
2078.279227
30
0
11
-1180.38
21
2078.279227
31
0
0
LINE
8
PIPES
10
-1180.38
20
2078.279227
30
0
11
-180.37
21
2078.279227
31
0
0
LINE
8
PIPES
10
-180.37
20
2078.279227
30
0
11
819.63
21
2078.279227
31
0
0
LINE
8
PIPES
10
819.63
20
2078.279227
30
0
11
1019.63
21
2078.279227
31
0
0
LINE
8
PIPES
10
719.63
20
2378.279227
30
0
11
719.63
21
2078.279227
31
0
0
LINE
8
PIPES
10
2619.63
20
2078.279227
30
0
11
1019.63
21
2078.279227
31
0
0
LINE
8
PIPES
10
819.63
20
2378.279227
30
0
11
1019.63
21
2078.279227
31
0
0
LINE
8
PIPES
10
2619.63
20
4078.279227
30
0
11
2619.63
21
2378.279227
31
0
0
LINE
8
PIPES
10
2619.63
20
4078.279227
30
0
11
819.63
21
4078.289227
31
0
0
LINE
8
PIPES
10
819.63
20
2378.279227
30
0
11
2619.63
21
4078.279227
31
0
0
LINE
8
PIPES
10
819.63
20
4078.289227
30
0
11
2619.63
21
2378.279227
31
0
0
LINE
8
PIPES
10
-3180.38
20
1378.280227
30
0
11
-2180.38
21
1378.280227
31
0
0
LINE
8
PIPES
10
-2180.38
20
2078.279227
30
0
11
-3180.38
21
2078.279227
31
0
0
CIRCLE
8
PIPE_ENDS
10
819.62
20
1378.279227
30
0
40
32
0
CIRCLE
8
PIPE_ENDS
10
-3180.38
20
1378.279227
30
0
40
32
0
CIRCLE
8
PIPE_ENDS
10
-1180.38
20
1378.279227
30
0
40
32
0
CIRCLE
8
PIPE_ENDS
10
-2680.38
20
1378.279227
30
0
40
32
0
CIRCLE
8
PIPE_ENDS
10
-2180.38
20
1378.279227
30
0
40
32
0
CIRCLE
8
PIPE_ENDS
10
819.62
20
2078.279227
30
0
40
32
0
CIRCLE
8
PIPE_ENDS
10
-3180.38
20
2078.279227
30
0
40
32
0
CIRCLE
8
PIPE_ENDS
10
-1180.38
20
2078.279227
30
0
40
32
0
CIRCLE
8
PIPE_ENDS
10
-2680.38
20
2078.279227
30
0
40
32
0
CIRCLE
8
PIPE_ENDS
10
-2180.38
20
2078.279227
30
0
40
32
0
CIRCLE
8
PIPE_ENDS
10
819.62
20
4078.279227
30
0
40
32
0
CIRCLE
8
PIPE_ENDS
10
-3180.38
20
4078.279227
30
0
40
32
0
CIRCLE
8
PIPE_ENDS
10
-1180.38
20
4078.279227
30
0
40
32
0
CIRCLE
8
PIPE_ENDS
10
-2180.38
20
4078.279227
30
0
40
32
0
CIRCLE
8
PIPE_ENDS
10
1019.62
20
-2921.720773
30
0
40
32
0
CIRCLE
8
PIPE_ENDS
10
2619.62
20
-2921.720773
30
0
40
32
0
CIRCLE
8
PIPE_ENDS
10
1819.62
20
-2921.720773
30
0
40
32
0
CIRCLE
8
PIPE_ENDS
10
1019.62
20
-921.720773
30
0
40
32
0
CIRCLE
8
PIPE_ENDS
10
2619.62
20
-921.720773
30
0
40
32
0
CIRCLE
8
PIPE_ENDS
10
2619.62
20
1078.279227
30
0
40
25
0
CIRCLE
8
PIPE_ENDS
10
1019.62
20
1078.279227
30
0
40
25
0
CIRCLE
8
PIPE_ENDS
10
1019.62
20
-2421.720773
30
0
40
32
0
CIRCLE
8
PIPE_ENDS
10
2619.62
20
-2421.720773
30
0
40
32
0
CIRCLE
8
PIPE_ENDS
10
1019.62
20
-1921.720773
30
0
40
32
0
CIRCLE
8
PIPE_ENDS
10
2619.62
20
-1921.720773
30
0
40
32
0
CIRCLE
8
PIPE_ENDS
10
2619.62
20
2078.279227
30
0
40
25
0
CIRCLE
8
PIPE_ENDS
10
1019.62
20
-3221.720773
30
0
40
32
0
CIRCLE
8
PIPE_ENDS
10
2619.62
20
-3221.720773
30
0
40
32
0
CIRCLE
8
PIPE_ENDS
10
1819.62
20
-3221.720773
30
0
40
32
0
CIRCLE
8
PIPE_ENDS
10
-180.38
20
4078.279227
30
0
40
32
0
CIRCLE
8
PIPE_ENDS
10
1819.62
20
-921.720773
30
0
40
32
0
CIRCLE
8
PIPE_ENDS
10
1019.62
20
-421.720773
30
0
40
32
0
CIRCLE
8
PIPE_ENDS
10
2619.62
20
-421.720773
30
0
40
32
0
CIRCLE
8
PIPE_ENDS
10
1019.62
20
78.279227
30
0
40
32
0
CIRCLE
8
PIPE_ENDS
10
2619.62
20
78.279227
30
0
40
32
0
CIRCLE
8
PIPE_ENDS
10
-180.38
20
2078.279227
30
0
40
32
0
CIRCLE
8
PIPE_ENDS
10
-180.38
20
1378.279227
30
0
40
32
0
CIRCLE
8
PIPE_ENDS
10
2619.62
20
2378.279227
30
0
40
25
0
CIRCLE
8
PIPE_ENDS
10
1019.62
20
2078.279227
30
0
40
25
0
CIRCLE
8
PIPE_ENDS
10
2619.62
20
4078.279227
30
0
40
25
0
LINE
8
LEVEL_GUIDE
6
DASHED
10
-4360.38
20
-3221.730773
30
0
11
2799.63
21
-3221.730773
31
0
0
LINE
8
LEVEL_GUIDE
6
DASHED
10
-4360.38
20
-2921.730773
30
0
11
2799.63
21
-2921.730773
31
0
0
LINE
8
LEVEL_GUIDE
6
DASHED
10
-4360.38
20
-921.730773
30
0
11
2799.63
21
-921.730773
31
0
0
LINE
8
LEVEL_GUIDE
6
DASHED
10
-4360.38
20
1078.279227
30
0
11
2799.63
21
1078.279227
31
0
0
LINE
8
LEVEL_GUIDE
6
DASHED
10
-4360.38
20
1378.279227
30
0
11
2799.63
21
1378.279227
31
0
0
LINE
8
LEVEL_GUIDE
6
DASHED
10
-4360.38
20
2078.279227
30
0
11
2799.63
21
2078.279227
31
0
0
LINE
8
LEVEL_GUIDE
6
DASHED
10
-4360.38
20
2378.279227
30
0
11
2799.63
21
2378.279227
31
0
0
LINE
8
LEVEL_GUIDE
6
DASHED
10
-4360.38
20
3228.289227
30
0
11
2799.63
21
3228.289227
31
0
0
LINE
8
LEVEL_GUIDE
6
DASHED
10
-4360.38
20
3778.289227
30
0
11
2799.63
21
3778.289227
31
0
0
LINE
8
LEVEL_GUIDE
6
DASHED
10
-4360.38
20
4078.279227
30
0
11
2799.63
21
4078.279227
31
0
0
LINE
8
LEVEL_GUIDE
6
DASHED
10
-4360.38
20
4078.289227
30
0
11
2799.63
21
4078.289227
31
0
0
LINE
8
DIMENSION
10
-4180.38
20
-3281.730773
30
0
11
-4180.38
21
-3601.730773
31
0
0
LINE
8
DIMENSION
10
-3180.38
20
-3281.730773
30
0
11
-3180.38
21
-3601.730773
31
0
0
LINE
8
DIMENSION
10
-4180.38
20
-3601.730773
30
0
11
-3180.38
21
-3601.730773
31
0
0
LINE
8
DIMENSION
10
-4180.38
20
-3601.730773
30
0
11
-4243.821545
21
-3572.147494
31
0
0
LINE
8
DIMENSION
10
-4180.38
20
-3601.730773
30
0
11
-4243.821545
21
-3631.314051
31
0
0
LINE
8
DIMENSION
10
-3180.38
20
-3601.730773
30
0
11
-3116.938455
21
-3631.314051
31
0
0
LINE
8
DIMENSION
10
-3180.38
20
-3601.730773
30
0
11
-3116.938455
21
-3572.147494
31
0
0
TEXT
8
DIMENSION
10
-3680.38
20
-3771.730773
30
0
40
85
1
1
50
0
7
STANDARD
72
1
73
2
11
-3680.38
21
-3771.730773
31
0
0
LINE
8
DIMENSION
10
-3180.38
20
-3281.730773
30
0
11
-3180.38
21
-3601.730773
31
0
0
LINE
8
DIMENSION
10
-2680.38
20
-3281.730773
30
0
11
-2680.38
21
-3601.730773
31
0
0
LINE
8
DIMENSION
10
-3180.38
20
-3601.730773
30
0
11
-2680.38
21
-3601.730773
31
0
0
LINE
8
DIMENSION
10
-3180.38
20
-3601.730773
30
0
11
-3243.821545
21
-3572.147494
31
0
0
LINE
8
DIMENSION
10
-3180.38
20
-3601.730773
30
0
11
-3243.821545
21
-3631.314051
31
0
0
LINE
8
DIMENSION
10
-2680.38
20
-3601.730773
30
0
11
-2616.938455
21
-3631.314051
31
0
0
LINE
8
DIMENSION
10
-2680.38
20
-3601.730773
30
0
11
-2616.938455
21
-3572.147494
31
0
0
TEXT
8
DIMENSION
10
-2930.38
20
-3771.730773
30
0
40
85
1
0.5
50
0
7
STANDARD
72
1
73
2
11
-2930.38
21
-3771.730773
31
0
0
LINE
8
DIMENSION
10
-2680.38
20
-3281.730773
30
0
11
-2680.38
21
-3601.730773
31
0
0
LINE
8
DIMENSION
10
-2180.38
20
-3281.730773
30
0
11
-2180.38
21
-3601.730773
31
0
0
LINE
8
DIMENSION
10
-2680.38
20
-3601.730773
30
0
11
-2180.38
21
-3601.730773
31
0
0
LINE
8
DIMENSION
10
-2680.38
20
-3601.730773
30
0
11
-2743.821545
21
-3572.147494
31
0
0
LINE
8
DIMENSION
10
-2680.38
20
-3601.730773
30
0
11
-2743.821545
21
-3631.314051
31
0
0
LINE
8
DIMENSION
10
-2180.38
20
-3601.730773
30
0
11
-2116.938455
21
-3631.314051
31
0
0
LINE
8
DIMENSION
10
-2180.38
20
-3601.730773
30
0
11
-2116.938455
21
-3572.147494
31
0
0
TEXT
8
DIMENSION
10
-2430.38
20
-3771.730773
30
0
40
85
1
0.5
50
0
7
STANDARD
72
1
73
2
11
-2430.38
21
-3771.730773
31
0
0
LINE
8
DIMENSION
10
-2180.38
20
-3281.730773
30
0
11
-2180.38
21
-3601.730773
31
0
0
LINE
8
DIMENSION
10
-1180.38
20
-3281.730773
30
0
11
-1180.38
21
-3601.730773
31
0
0
LINE
8
DIMENSION
10
-2180.38
20
-3601.730773
30
0
11
-1180.38
21
-3601.730773
31
0
0
LINE
8
DIMENSION
10
-2180.38
20
-3601.730773
30
0
11
-2243.821545
21
-3572.147494
31
0
0
LINE
8
DIMENSION
10
-2180.38
20
-3601.730773
30
0
11
-2243.821545
21
-3631.314051
31
0
0
LINE
8
DIMENSION
10
-1180.38
20
-3601.730773
30
0
11
-1116.938455
21
-3631.314051
31
0
0
LINE
8
DIMENSION
10
-1180.38
20
-3601.730773
30
0
11
-1116.938455
21
-3572.147494
31
0
0
TEXT
8
DIMENSION
10
-1680.38
20
-3771.730773
30
0
40
85
1
1
50
0
7
STANDARD
72
1
73
2
11
-1680.38
21
-3771.730773
31
0
0
LINE
8
DIMENSION
10
-1180.38
20
-3281.730773
30
0
11
-1180.38
21
-3601.730773
31
0
0
LINE
8
DIMENSION
10
-180.37
20
-3281.730773
30
0
11
-180.37
21
-3601.730773
31
0
0
LINE
8
DIMENSION
10
-1180.38
20
-3601.730773
30
0
11
-180.37
21
-3601.730773
31
0
0
LINE
8
DIMENSION
10
-1180.38
20
-3601.730773
30
0
11
-1243.821545
21
-3572.147494
31
0
0
LINE
8
DIMENSION
10
-1180.38
20
-3601.730773
30
0
11
-1243.821545
21
-3631.314051
31
0
0
LINE
8
DIMENSION
10
-180.37
20
-3601.730773
30
0
11
-116.928455
21
-3631.314051
31
0
0
LINE
8
DIMENSION
10
-180.37
20
-3601.730773
30
0
11
-116.928455
21
-3572.147494
31
0
0
TEXT
8
DIMENSION
10
-680.375
20
-3771.730773
30
0
40
85
1
1
50
0
7
STANDARD
72
1
73
2
11
-680.375
21
-3771.730773
31
0
0
LINE
8
DIMENSION
10
-180.37
20
-3281.730773
30
0
11
-180.37
21
-3601.730773
31
0
0
LINE
8
DIMENSION
10
1019.63
20
-3281.730773
30
0
11
1019.63
21
-3601.730773
31
0
0
LINE
8
DIMENSION
10
-180.37
20
-3601.730773
30
0
11
1019.63
21
-3601.730773
31
0
0
LINE
8
DIMENSION
10
-180.37
20
-3601.730773
30
0
11
-243.811545
21
-3572.147494
31
0
0
LINE
8
DIMENSION
10
-180.37
20
-3601.730773
30
0
11
-243.811545
21
-3631.314051
31
0
0
LINE
8
DIMENSION
10
1019.63
20
-3601.730773
30
0
11
1083.071545
21
-3631.314051
31
0
0
LINE
8
DIMENSION
10
1019.63
20
-3601.730773
30
0
11
1083.071545
21
-3572.147494
31
0
0
TEXT
8
DIMENSION
10
419.63
20
-3771.730773
30
0
40
85
1
1.2
50
0
7
STANDARD
72
1
73
2
11
419.63
21
-3771.730773
31
0
0
LINE
8
DIMENSION
10
1019.63
20
-3281.730773
30
0
11
1019.63
21
-3601.730773
31
0
0
LINE
8
DIMENSION
10
1819.63
20
-3281.730773
30
0
11
1819.63
21
-3601.730773
31
0
0
LINE
8
DIMENSION
10
1019.63
20
-3601.730773
30
0
11
1819.63
21
-3601.730773
31
0
0
LINE
8
DIMENSION
10
1019.63
20
-3601.730773
30
0
11
956.188455
21
-3572.147494
31
0
0
LINE
8
DIMENSION
10
1019.63
20
-3601.730773
30
0
11
956.188455
21
-3631.314051
31
0
0
LINE
8
DIMENSION
10
1819.63
20
-3601.730773
30
0
11
1883.071545
21
-3631.314051
31
0
0
LINE
8
DIMENSION
10
1819.63
20
-3601.730773
30
0
11
1883.071545
21
-3572.147494
31
0
0
TEXT
8
DIMENSION
10
1419.63
20
-3771.730773
30
0
40
85
1
0.8
50
0
7
STANDARD
72
1
73
2
11
1419.63
21
-3771.730773
31
0
0
LINE
8
DIMENSION
10
1819.63
20
-3281.730773
30
0
11
1819.63
21
-3601.730773
31
0
0
LINE
8
DIMENSION
10
2619.63
20
-3281.730773
30
0
11
2619.63
21
-3601.730773
31
0
0
LINE
8
DIMENSION
10
1819.63
20
-3601.730773
30
0
11
2619.63
21
-3601.730773
31
0
0
LINE
8
DIMENSION
10
1819.63
20
-3601.730773
30
0
11
1756.188455
21
-3572.147494
31
0
0
LINE
8
DIMENSION
10
1819.63
20
-3601.730773
30
0
11
1756.188455
21
-3631.314051
31
0
0
LINE
8
DIMENSION
10
2619.63
20
-3601.730773
30
0
11
2683.071545
21
-3631.314051
31
0
0
LINE
8
DIMENSION
10
2619.63
20
-3601.730773
30
0
11
2683.071545
21
-3572.147494
31
0
0
TEXT
8
DIMENSION
10
2219.63
20
-3771.730773
30
0
40
85
1
0.8
50
0
7
STANDARD
72
1
73
2
11
2219.63
21
-3771.730773
31
0
0
LINE
8
DIMENSION
10
-4180.38
20
-3281.730773
30
0
11
-4180.38
21
-3971.730773
31
0
0
LINE
8
DIMENSION
10
2619.63
20
-3281.730773
30
0
11
2619.63
21
-3971.730773
31
0
0
LINE
8
DIMENSION
10
-4180.38
20
-3971.730773
30
0
11
2619.63
21
-3971.730773
31
0
0
LINE
8
DIMENSION
10
-4180.38
20
-3971.730773
30
0
11
-4243.821545
21
-3942.147494
31
0
0
LINE
8
DIMENSION
10
-4180.38
20
-3971.730773
30
0
11
-4243.821545
21
-4001.314051
31
0
0
LINE
8
DIMENSION
10
2619.63
20
-3971.730773
30
0
11
2683.071545
21
-4001.314051
31
0
0
LINE
8
DIMENSION
10
2619.63
20
-3971.730773
30
0
11
2683.071545
21
-3942.147494
31
0
0
TEXT
8
DIMENSION
10
-780.375
20
-4141.730773
30
0
40
85
1
TOTAL 6.8
50
0
7
STANDARD
72
1
73
2
11
-780.375
21
-4141.730773
31
0
0
LINE
8
DIMENSION
10
2679.63
20
-3221.730773
30
0
11
3319.63
21
-3221.730773
31
0
0
LINE
8
DIMENSION
10
2679.63
20
-2921.730773
30
0
11
3319.63
21
-2921.730773
31
0
0
LINE
8
DIMENSION
10
3319.63
20
-3221.730773
30
0
11
3319.63
21
-2921.730773
31
0
0
LINE
8
DIMENSION
10
3319.63
20
-3221.730773
30
0
11
3290.046722
21
-3285.172318
31
0
0
LINE
8
DIMENSION
10
3319.63
20
-3221.730773
30
0
11
3349.213278
21
-3285.172318
31
0
0
LINE
8
DIMENSION
10
3319.63
20
-2921.730773
30
0
11
3349.213278
21
-2858.289227
31
0
0
LINE
8
DIMENSION
10
3319.63
20
-2921.730773
30
0
11
3290.046722
21
-2858.289227
31
0
0
TEXT
8
DIMENSION
10
3489.63
20
-3071.730773
30
0
40
85
1
0.3
50
90
7
STANDARD
72
1
73
2
11
3489.63
21
-3071.730773
31
0
0
LINE
8
DIMENSION
10
2679.63
20
-2921.730773
30
0
11
3319.63
21
-2921.730773
31
0
0
LINE
8
DIMENSION
10
2679.63
20
-921.730773
30
0
11
3319.63
21
-921.730773
31
0
0
LINE
8
DIMENSION
10
3319.63
20
-2921.730773
30
0
11
3319.63
21
-921.730773
31
0
0
LINE
8
DIMENSION
10
3319.63
20
-2921.730773
30
0
11
3290.046722
21
-2985.172318
31
0
0
LINE
8
DIMENSION
10
3319.63
20
-2921.730773
30
0
11
3349.213278
21
-2985.172318
31
0
0
LINE
8
DIMENSION
10
3319.63
20
-921.730773
30
0
11
3349.213278
21
-858.289227
31
0
0
LINE
8
DIMENSION
10
3319.63
20
-921.730773
30
0
11
3290.046722
21
-858.289227
31
0
0
TEXT
8
DIMENSION
10
3489.63
20
-1921.730773
30
0
40
85
1
2
50
90
7
STANDARD
72
1
73
2
11
3489.63
21
-1921.730773
31
0
0
LINE
8
DIMENSION
10
2679.63
20
-921.730773
30
0
11
3319.63
21
-921.730773
31
0
0
LINE
8
DIMENSION
10
2679.63
20
1078.279227
30
0
11
3319.63
21
1078.279227
31
0
0
LINE
8
DIMENSION
10
3319.63
20
-921.730773
30
0
11
3319.63
21
1078.279227
31
0
0
LINE
8
DIMENSION
10
3319.63
20
-921.730773
30
0
11
3290.046722
21
-985.172318
31
0
0
LINE
8
DIMENSION
10
3319.63
20
-921.730773
30
0
11
3349.213278
21
-985.172318
31
0
0
LINE
8
DIMENSION
10
3319.63
20
1078.279227
30
0
11
3349.213278
21
1141.720773
31
0
0
LINE
8
DIMENSION
10
3319.63
20
1078.279227
30
0
11
3290.046722
21
1141.720773
31
0
0
TEXT
8
DIMENSION
10
3489.63
20
78.274227
30
0
40
85
1
2
50
90
7
STANDARD
72
1
73
2
11
3489.63
21
78.274227
31
0
0
LINE
8
DIMENSION
10
2679.63
20
1078.279227
30
0
11
3319.63
21
1078.279227
31
0
0
LINE
8
DIMENSION
10
2679.63
20
1378.279227
30
0
11
3319.63
21
1378.279227
31
0
0
LINE
8
DIMENSION
10
3319.63
20
1078.279227
30
0
11
3319.63
21
1378.279227
31
0
0
LINE
8
DIMENSION
10
3319.63
20
1078.279227
30
0
11
3290.046722
21
1014.837682
31
0
0
LINE
8
DIMENSION
10
3319.63
20
1078.279227
30
0
11
3349.213278
21
1014.837682
31
0
0
LINE
8
DIMENSION
10
3319.63
20
1378.279227
30
0
11
3349.213278
21
1441.720773
31
0
0
LINE
8
DIMENSION
10
3319.63
20
1378.279227
30
0
11
3290.046722
21
1441.720773
31
0
0
TEXT
8
DIMENSION
10
3489.63
20
1228.279227
30
0
40
85
1
0.3
50
90
7
STANDARD
72
1
73
2
11
3489.63
21
1228.279227
31
0
0
LINE
8
DIMENSION
10
2679.63
20
1378.279227
30
0
11
3319.63
21
1378.279227
31
0
0
LINE
8
DIMENSION
10
2679.63
20
2078.279227
30
0
11
3319.63
21
2078.279227
31
0
0
LINE
8
DIMENSION
10
3319.63
20
1378.279227
30
0
11
3319.63
21
2078.279227
31
0
0
LINE
8
DIMENSION
10
3319.63
20
1378.279227
30
0
11
3290.046722
21
1314.837682
31
0
0
LINE
8
DIMENSION
10
3319.63
20
1378.279227
30
0
11
3349.213278
21
1314.837682
31
0
0
LINE
8
DIMENSION
10
3319.63
20
2078.279227
30
0
11
3349.213278
21
2141.720773
31
0
0
LINE
8
DIMENSION
10
3319.63
20
2078.279227
30
0
11
3290.046722
21
2141.720773
31
0
0
TEXT
8
DIMENSION
10
3489.63
20
1728.279227
30
0
40
85
1
0.7
50
90
7
STANDARD
72
1
73
2
11
3489.63
21
1728.279227
31
0
0
LINE
8
DIMENSION
10
2679.63
20
2078.279227
30
0
11
3319.63
21
2078.279227
31
0
0
LINE
8
DIMENSION
10
2679.63
20
2378.279227
30
0
11
3319.63
21
2378.279227
31
0
0
LINE
8
DIMENSION
10
3319.63
20
2078.279227
30
0
11
3319.63
21
2378.279227
31
0
0
LINE
8
DIMENSION
10
3319.63
20
2078.279227
30
0
11
3290.046722
21
2014.837682
31
0
0
LINE
8
DIMENSION
10
3319.63
20
2078.279227
30
0
11
3349.213278
21
2014.837682
31
0
0
LINE
8
DIMENSION
10
3319.63
20
2378.279227
30
0
11
3349.213278
21
2441.720773
31
0
0
LINE
8
DIMENSION
10
3319.63
20
2378.279227
30
0
11
3290.046722
21
2441.720773
31
0
0
TEXT
8
DIMENSION
10
3489.63
20
2228.279227
30
0
40
85
1
0.3
50
90
7
STANDARD
72
1
73
2
11
3489.63
21
2228.279227
31
0
0
LINE
8
DIMENSION
10
2679.63
20
2378.279227
30
0
11
3319.63
21
2378.279227
31
0
0
LINE
8
DIMENSION
10
2679.63
20
3228.289227
30
0
11
3319.63
21
3228.289227
31
0
0
LINE
8
DIMENSION
10
3319.63
20
2378.279227
30
0
11
3319.63
21
3228.289227
31
0
0
LINE
8
DIMENSION
10
3319.63
20
2378.279227
30
0
11
3290.046722
21
2314.837682
31
0
0
LINE
8
DIMENSION
10
3319.63
20
2378.279227
30
0
11
3349.213278
21
2314.837682
31
0
0
LINE
8
DIMENSION
10
3319.63
20
3228.289227
30
0
11
3349.213278
21
3291.730773
31
0
0
LINE
8
DIMENSION
10
3319.63
20
3228.289227
30
0
11
3290.046722
21
3291.730773
31
0
0
TEXT
8
DIMENSION
10
3489.63
20
2803.284227
30
0
40
85
1
0.85
50
90
7
STANDARD
72
1
73
2
11
3489.63
21
2803.284227
31
0
0
LINE
8
DIMENSION
10
2679.63
20
3228.289227
30
0
11
3319.63
21
3228.289227
31
0
0
LINE
8
DIMENSION
10
2679.63
20
3778.289227
30
0
11
3319.63
21
3778.289227
31
0
0
LINE
8
DIMENSION
10
3319.63
20
3228.289227
30
0
11
3319.63
21
3778.289227
31
0
0
LINE
8
DIMENSION
10
3319.63
20
3228.289227
30
0
11
3290.046722
21
3164.847682
31
0
0
LINE
8
DIMENSION
10
3319.63
20
3228.289227
30
0
11
3349.213278
21
3164.847682
31
0
0
LINE
8
DIMENSION
10
3319.63
20
3778.289227
30
0
11
3349.213278
21
3841.730773
31
0
0
LINE
8
DIMENSION
10
3319.63
20
3778.289227
30
0
11
3290.046722
21
3841.730773
31
0
0
TEXT
8
DIMENSION
10
3489.63
20
3503.289227
30
0
40
85
1
0.55
50
90
7
STANDARD
72
1
73
2
11
3489.63
21
3503.289227
31
0
0
LINE
8
DIMENSION
10
2679.63
20
3778.289227
30
0
11
3319.63
21
3778.289227
31
0
0
LINE
8
DIMENSION
10
2679.63
20
4078.289227
30
0
11
3319.63
21
4078.289227
31
0
0
LINE
8
DIMENSION
10
3319.63
20
3778.289227
30
0
11
3319.63
21
4078.289227
31
0
0
LINE
8
DIMENSION
10
3319.63
20
3778.289227
30
0
11
3290.046722
21
3714.847682
31
0
0
LINE
8
DIMENSION
10
3319.63
20
3778.289227
30
0
11
3349.213278
21
3714.847682
31
0
0
LINE
8
DIMENSION
10
3319.63
20
4078.289227
30
0
11
3349.213278
21
4141.730773
31
0
0
LINE
8
DIMENSION
10
3319.63
20
4078.289227
30
0
11
3290.046722
21
4141.730773
31
0
0
TEXT
8
DIMENSION
10
3489.63
20
3928.289227
30
0
40
85
1
0.3
50
90
7
STANDARD
72
1
73
2
11
3489.63
21
3928.289227
31
0
0
LINE
8
DIMENSION
10
2679.63
20
-3221.730773
30
0
11
3769.63
21
-3221.730773
31
0
0
LINE
8
DIMENSION
10
2679.63
20
4078.289227
30
0
11
3769.63
21
4078.289227
31
0
0
LINE
8
DIMENSION
10
3769.63
20
-3221.730773
30
0
11
3769.63
21
4078.289227
31
0
0
LINE
8
DIMENSION
10
3769.63
20
-3221.730773
30
0
11
3740.046722
21
-3285.172318
31
0
0
LINE
8
DIMENSION
10
3769.63
20
-3221.730773
30
0
11
3799.213278
21
-3285.172318
31
0
0
LINE
8
DIMENSION
10
3769.63
20
4078.289227
30
0
11
3799.213278
21
4141.730773
31
0
0
LINE
8
DIMENSION
10
3769.63
20
4078.289227
30
0
11
3740.046722
21
4141.730773
31
0
0
TEXT
8
DIMENSION
10
3939.63
20
428.279227
30
0
40
85
1
TOTAL 7.3
50
90
7
STANDARD
72
1
73
2
11
3939.63
21
428.279227
31
0
0
ENDSEC
0
EOF
