0
SECTION
2
HEADER
9
$ACADVER
1
AC1009
9
$INSUNITS
70
4
9
$MEASUREMENT
70
1
9
$LUNITS
70
2
9
$LUPREC
70
1
9
$TILEMODE
70
1
9
$EXTMIN
10
-3152.100773
20
-2241.725773
30
0
9
$EXTMAX
10
3152.100773
20
2241.725773
30
0
9
$PEXTMIN
10
-3152.100773
20
-2241.725773
30
0
9
$PEXTMAX
10
3152.100773
20
2241.725773
30
0
9
$LIMMIN
10
-3652.100773
20
-2741.725773
9
$LIMMAX
10
3652.100773
20
2741.725773
9
$PLIMMIN
10
-3652.100773
20
-2741.725773
9
$PLIMMAX
10
3652.100773
20
2741.725773
0
ENDSEC
0
SECTION
2
TABLES
0
TABLE
2
VPORT
70
1
0
VPORT
2
*ACTIVE
70
0
10
0
20
0
11
1
21
1
12
0
22
0
40
5483.451545
41
1.332045
42
50
43
0
44
0
50
0
51
0
71
0
72
100
73
1
74
3
75
0
76
0
77
0
78
0
0
ENDTAB
0
TABLE
2
LTYPE
70
2
0
LTYPE
2
CONTINUOUS
70
0
3
Solid line
72
65
73
0
40
0
0
LTYPE
2
DASHED
70
0
3
Dashed
72
65
73
2
40
240
49
120
74
0
49
-120
74
0
0
ENDTAB
0
TABLE
2
LAYER
70
6
0
LAYER
2
PIPES
70
0
62
5
6
CONTINUOUS
0
LAYER
2
PIPE_ENDS
70
0
62
5
6
CONTINUOUS
0
LAYER
2
DIMENSION
70
0
62
1
6
CONTINUOUS
0
LAYER
2
LEVEL_GUIDE
70
0
62
1
6
DASHED
0
LAYER
2
LEVEL_TEXT
70
0
62
1
6
CONTINUOUS
0
LAYER
2
FRAME
70
0
62
5
6
CONTINUOUS
0
ENDTAB
0
TABLE
2
STYLE
70
1
0
STYLE
2
STANDARD
70
0
40
0
41
1
50
0
71
0
42
100
3
txt
4

0
ENDTAB
0
ENDSEC
0
SECTION
2
BLOCKS
0
BLOCK
8
0
2
$MODEL_SPACE
70
0
10
0
20
0
30
0
3
$MODEL_SPACE
0
ENDBLK
8
0
0
BLOCK
67
1
8
0
2
$PAPER_SPACE
70
0
10
0
20
0
30
0
3
$PAPER_SPACE
0
ENDBLK
67
1
8
0
0
ENDSEC
0
SECTION
2
ENTITIES
0
LINE
8
PIPES
10
-1338.659227
20
-1321.725773
30
0
11
-3088.659227
21
-1321.725773
31
0
0
LINE
8
PIPES
10
1411.350773
20
-1321.725773
30
0
11
1411.350773
21
-446.723773
31
0
0
LINE
8
PIPES
10
411.350773
20
2178.284227
30
0
11
1411.350773
21
2178.284227
31
0
0
LINE
8
PIPES
10
-3088.659227
20
2178.284227
30
0
11
-3088.659227
21
428.274227
31
0
0
LINE
8
PIPES
10
411.350773
20
-1321.725773
30
0
11
1411.350773
21
-1321.725773
31
0
0
LINE
8
PIPES
10
411.350773
20
2178.284227
30
0
11
-1338.659227
21
2178.284227
31
0
0
LINE
8
PIPES
10
411.350773
20
-1321.725773
30
0
11
411.350773
21
-446.723773
31
0
0
LINE
8
PIPES
10
411.350773
20
-1321.725773
30
0
11
-1338.659227
21
-1321.725773
31
0
0
LINE
8
PIPES
10
-1338.659227
20
2178.284227
30
0
11
-3088.659227
21
2178.284227
31
0
0
LINE
8
PIPES
10
-1338.659227
20
428.274227
30
0
11
-1338.659227
21
2178.284227
31
0
0
LINE
8
PIPES
10
-3088.659227
20
428.274227
30
0
11
-3088.659227
21
-1321.725773
31
0
0
LINE
8
PIPES
10
-1338.659227
20
-1321.725773
30
0
11
-1338.659227
21
428.274227
31
0
0
LINE
8
PIPES
10
-3088.659227
20
428.274227
30
0
11
-1338.659227
21
428.274227
31
0
0
LINE
8
PIPES
10
411.350773
20
428.274227
30
0
11
411.350773
21
-1321.725773
31
0
0
LINE
8
PIPES
10
411.350773
20
428.274227
30
0
11
411.350773
21
1303.284227
31
0
0
LINE
8
PIPES
10
-1338.659227
20
428.274227
30
0
11
411.350773
21
428.274227
31
0
0
LINE
8
PIPES
10
411.350773
20
2178.284227
30
0
11
411.350773
21
428.274227
31
0
0
LINE
8
PIPES
10
1411.350773
20
-1321.725773
30
0
11
1411.350773
21
428.274227
31
0
0
LINE
8
PIPES
10
1411.350773
20
428.274227
30
0
11
1411.350773
21
1303.284227
31
0
0
LINE
8
PIPES
10
1411.350773
20
428.274227
30
0
11
411.350773
21
428.274227
31
0
0
LINE
8
PIPES
10
411.350773
20
-446.723773
30
0
11
411.350773
21
428.274227
31
0
0
LINE
8
PIPES
10
1411.350773
20
-446.723773
30
0
11
1411.350773
21
428.274227
31
0
0
LINE
8
PIPES
10
1411.350773
20
-446.723773
30
0
11
411.350773
21
-446.723773
31
0
0
LINE
8
PIPES
10
411.350773
20
1303.284227
30
0
11
411.350773
21
2178.284227
31
0
0
LINE
8
PIPES
10
1411.350773
20
1303.284227
30
0
11
1411.350773
21
2178.284227
31
0
0
LINE
8
PIPES
10
1411.350773
20
1303.284227
30
0
11
411.350773
21
1303.284227
31
0
0
LINE
8
PIPES
10
1411.350773
20
428.274227
30
0
11
1411.350773
21
2178.284227
31
0
0
CIRCLE
8
PIPE_ENDS
10
-3088.659227
20
-1321.725773
30
0
40
32
0
CIRCLE
8
PIPE_ENDS
10
-3088.659227
20
2178.274227
30
0
40
32
0
CIRCLE
8
PIPE_ENDS
10
411.340773
20
-1321.725773
30
0
40
32
0
CIRCLE
8
PIPE_ENDS
10
411.340773
20
2178.274227
30
0
40
32
0
CIRCLE
8
PIPE_ENDS
10
-1338.659227
20
-1321.725773
30
0
40
32
0
CIRCLE
8
PIPE_ENDS
10
-1338.659227
20
2178.274227
30
0
40
32
0
CIRCLE
8
PIPE_ENDS
10
-3088.659227
20
428.274227
30
0
40
32
0
CIRCLE
8
PIPE_ENDS
10
-1338.659227
20
428.274227
30
0
40
32
0
CIRCLE
8
PIPE_ENDS
10
411.340773
20
428.274227
30
0
40
32
0
CIRCLE
8
PIPE_ENDS
10
1411.340773
20
-1321.725773
30
0
40
32
0
CIRCLE
8
PIPE_ENDS
10
1411.340773
20
2178.274227
30
0
40
32
0
CIRCLE
8
PIPE_ENDS
10
1411.340773
20
428.274227
30
0
40
32
0
LINE
8
DIMENSION
10
-3088.659227
20
-1381.725773
30
0
11
-3088.659227
21
-1701.725773
31
0
0
LINE
8
DIMENSION
10
-1338.659227
20
-1381.725773
30
0
11
-1338.659227
21
-1701.725773
31
0
0
LINE
8
DIMENSION
10
-3088.659227
20
-1701.725773
30
0
11
-1338.659227
21
-1701.725773
31
0
0
LINE
8
DIMENSION
10
-3088.659227
20
-1701.725773
30
0
11
-3152.100773
21
-1672.142494
31
0
0
LINE
8
DIMENSION
10
-3088.659227
20
-1701.725773
30
0
11
-3152.100773
21
-1731.309051
31
0
0
LINE
8
DIMENSION
10
-1338.659227
20
-1701.725773
30
0
11
-1275.217682
21
-1731.309051
31
0
0
LINE
8
DIMENSION
10
-1338.659227
20
-1701.725773
30
0
11
-1275.217682
21
-1672.142494
31
0
0
TEXT
8
DIMENSION
10
-2213.659227
20
-1871.725773
30
0
40
85
1
1.75
50
0
7
STANDARD
72
1
73
2
11
-2213.659227
21
-1871.725773
31
0
0
LINE
8
DIMENSION
10
-1338.659227
20
-1381.725773
30
0
11
-1338.659227
21
-1701.725773
31
0
0
LINE
8
DIMENSION
10
411.350773
20
-1381.725773
30
0
11
411.350773
21
-1701.725773
31
0
0
LINE
8
DIMENSION
10
-1338.659227
20
-1701.725773
30
0
11
411.350773
21
-1701.725773
31
0
0
LINE
8
DIMENSION
10
-1338.659227
20
-1701.725773
30
0
11
-1402.100773
21
-1672.142494
31
0
0
LINE
8
DIMENSION
10
-1338.659227
20
-1701.725773
30
0
11
-1402.100773
21
-1731.309051
31
0
0
LINE
8
DIMENSION
10
411.350773
20
-1701.725773
30
0
11
474.792318
21
-1731.309051
31
0
0
LINE
8
DIMENSION
10
411.350773
20
-1701.725773
30
0
11
474.792318
21
-1672.142494
31
0
0
TEXT
8
DIMENSION
10
-463.654227
20
-1871.725773
30
0
40
85
1
1.75
50
0
7
STANDARD
72
1
73
2
11
-463.654227
21
-1871.725773
31
0
0
LINE
8
DIMENSION
10
411.350773
20
-1381.725773
30
0
11
411.350773
21
-1701.725773
31
0
0
LINE
8
DIMENSION
10
1411.350773
20
-1381.725773
30
0
11
1411.350773
21
-1701.725773
31
0
0
LINE
8
DIMENSION
10
411.350773
20
-1701.725773
30
0
11
1411.350773
21
-1701.725773
31
0
0
LINE
8
DIMENSION
10
411.350773
20
-1701.725773
30
0
11
347.909227
21
-1672.142494
31
0
0
LINE
8
DIMENSION
10
411.350773
20
-1701.725773
30
0
11
347.909227
21
-1731.309051
31
0
0
LINE
8
DIMENSION
10
1411.350773
20
-1701.725773
30
0
11
1474.792318
21
-1731.309051
31
0
0
LINE
8
DIMENSION
10
1411.350773
20
-1701.725773
30
0
11
1474.792318
21
-1672.142494
31
0
0
TEXT
8
DIMENSION
10
911.350773
20
-1871.725773
30
0
40
85
1
1
50
0
7
STANDARD
72
1
73
2
11
911.350773
21
-1871.725773
31
0
0
LINE
8
DIMENSION
10
-3088.659227
20
-1381.725773
30
0
11
-3088.659227
21
-2071.725773
31
0
0
LINE
8
DIMENSION
10
1411.350773
20
-1381.725773
30
0
11
1411.350773
21
-2071.725773
31
0
0
LINE
8
DIMENSION
10
-3088.659227
20
-2071.725773
30
0
11
1411.350773
21
-2071.725773
31
0
0
LINE
8
DIMENSION
10
-3088.659227
20
-2071.725773
30
0
11
-3152.100773
21
-2042.142494
31
0
0
LINE
8
DIMENSION
10
-3088.659227
20
-2071.725773
30
0
11
-3152.100773
21
-2101.309051
31
0
0
LINE
8
DIMENSION
10
1411.350773
20
-2071.725773
30
0
11
1474.792318
21
-2101.309051
31
0
0
LINE
8
DIMENSION
10
1411.350773
20
-2071.725773
30
0
11
1474.792318
21
-2042.142494
31
0
0
TEXT
8
DIMENSION
10
-838.654227
20
-2241.725773
30
0
40
85
1
TOTAL 4.5
50
0
7
STANDARD
72
1
73
2
11
-838.654227
21
-2241.725773
31
0
0
LINE
8
DIMENSION
10
1471.350773
20
-1321.725773
30
0
11
2111.350773
21
-1321.725773
31
0
0
LINE
8
DIMENSION
10
1471.350773
20
-446.725773
30
0
11
2111.350773
21
-446.725773
31
0
0
LINE
8
DIMENSION
10
2111.350773
20
-1321.725773
30
0
11
2111.350773
21
-446.725773
31
0
0
LINE
8
DIMENSION
10
2111.350773
20
-1321.725773
30
0
11
2081.767494
21
-1385.167318
31
0
0
LINE
8
DIMENSION
10
2111.350773
20
-1321.725773
30
0
11
2140.934051
21
-1385.167318
31
0
0
LINE
8
DIMENSION
10
2111.350773
20
-446.725773
30
0
11
2140.934051
21
-383.284227
31
0
0
LINE
8
DIMENSION
10
2111.350773
20
-446.725773
30
0
11
2081.767494
21
-383.284227
31
0
0
TEXT
8
DIMENSION
10
2281.350773
20
-884.225773
30
0
40
85
1
0.875
50
90
7
STANDARD
72
1
73
2
11
2281.350773
21
-884.225773
31
0
0
LINE
8
DIMENSION
10
1471.350773
20
-446.725773
30
0
11
2111.350773
21
-446.725773
31
0
0
LINE
8
DIMENSION
10
1471.350773
20
428.274227
30
0
11
2111.350773
21
428.274227
31
0
0
LINE
8
DIMENSION
10
2111.350773
20
-446.725773
30
0
11
2111.350773
21
428.274227
31
0
0
LINE
8
DIMENSION
10
2111.350773
20
-446.725773
30
0
11
2081.767494
21
-510.167318
31
0
0
LINE
8
DIMENSION
10
2111.350773
20
-446.725773
30
0
11
2140.934051
21
-510.167318
31
0
0
LINE
8
DIMENSION
10
2111.350773
20
428.274227
30
0
11
2140.934051
21
491.715773
31
0
0
LINE
8
DIMENSION
10
2111.350773
20
428.274227
30
0
11
2081.767494
21
491.715773
31
0
0
TEXT
8
DIMENSION
10
2281.350773
20
-9.225773
30
0
40
85
1
0.875
50
90
7
STANDARD
72
1
73
2
11
2281.350773
21
-9.225773
31
0
0
LINE
8
DIMENSION
10
1471.350773
20
428.274227
30
0
11
2111.350773
21
428.274227
31
0
0
LINE
8
DIMENSION
10
1471.350773
20
1303.284227
30
0
11
2111.350773
21
1303.284227
31
0
0
LINE
8
DIMENSION
10
2111.350773
20
428.274227
30
0
11
2111.350773
21
1303.284227
31
0
0
LINE
8
DIMENSION
10
2111.350773
20
428.274227
30
0
11
2081.767494
21
364.832682
31
0
0
LINE
8
DIMENSION
10
2111.350773
20
428.274227
30
0
11
2140.934051
21
364.832682
31
0
0
LINE
8
DIMENSION
10
2111.350773
20
1303.284227
30
0
11
2140.934051
21
1366.725773
31
0
0
LINE
8
DIMENSION
10
2111.350773
20
1303.284227
30
0
11
2081.767494
21
1366.725773
31
0
0
TEXT
8
DIMENSION
10
2281.350773
20
865.779227
30
0
40
85
1
0.875
50
90
7
STANDARD
72
1
73
2
11
2281.350773
21
865.779227
31
0
0
LINE
8
DIMENSION
10
1471.350773
20
1303.284227
30
0
11
2111.350773
21
1303.284227
31
0
0
LINE
8
DIMENSION
10
1471.350773
20
2178.284227
30
0
11
2111.350773
21
2178.284227
31
0
0
LINE
8
DIMENSION
10
2111.350773
20
1303.284227
30
0
11
2111.350773
21
2178.284227
31
0
0
LINE
8
DIMENSION
10
2111.350773
20
1303.284227
30
0
11
2081.767494
21
1239.842682
31
0
0
LINE
8
DIMENSION
10
2111.350773
20
1303.284227
30
0
11
2140.934051
21
1239.842682
31
0
0
LINE
8
DIMENSION
10
2111.350773
20
2178.284227
30
0
11
2140.934051
21
2241.725773
31
0
0
LINE
8
DIMENSION
10
2111.350773
20
2178.284227
30
0
11
2081.767494
21
2241.725773
31
0
0
TEXT
8
DIMENSION
10
2281.350773
20
1740.784227
30
0
40
85
1
0.875
50
90
7
STANDARD
72
1
73
2
11
2281.350773
21
1740.784227
31
0
0
LINE
8
DIMENSION
10
1471.350773
20
-1321.725773
30
0
11
2561.350773
21
-1321.725773
31
0
0
LINE
8
DIMENSION
10
1471.350773
20
2178.284227
30
0
11
2561.350773
21
2178.284227
31
0
0
LINE
8
DIMENSION
10
2561.350773
20
-1321.725773
30
0
11
2561.350773
21
2178.284227
31
0
0
LINE
8
DIMENSION
10
2561.350773
20
-1321.725773
30
0
11
2531.767494
21
-1385.167318
31
0
0
LINE
8
DIMENSION
10
2561.350773
20
-1321.725773
30
0
11
2590.934051
21
-1385.167318
31
0
0
LINE
8
DIMENSION
10
2561.350773
20
2178.284227
30
0
11
2590.934051
21
2241.725773
31
0
0
LINE
8
DIMENSION
10
2561.350773
20
2178.284227
30
0
11
2531.767494
21
2241.725773
31
0
0
TEXT
8
DIMENSION
10
2731.350773
20
428.279227
30
0
40
85
1
TOTAL 3.5
50
90
7
STANDARD
72
1
73
2
11
2731.350773
21
428.279227
31
0
0
ENDSEC
0
EOF
