0
SECTION
2
HEADER
9
$ACADVER
1
AC1009
9
$INSUNITS
70
4
9
$MEASUREMENT
70
1
9
$LUNITS
70
2
9
$LUPREC
70
1
9
$TILEMODE
70
1
9
$EXTMIN
10
-2460.38
20
-1691.721273
30
0
9
$EXTMAX
10
2460.38
20
1691.721273
30
0
9
$PEXTMIN
10
-2460.38
20
-1691.721273
30
0
9
$PEXTMAX
10
2460.38
20
1691.721273
30
0
9
$LIMMIN
10
-2960.38
20
-2191.721273
9
$LIMMAX
10
2960.38
20
2191.721273
9
$PLIMMIN
10
-2960.38
20
-2191.721273
9
$PLIMMAX
10
2960.38
20
2191.721273
0
ENDSEC
0
SECTION
2
TABLES
0
TABLE
2
VPORT
70
1
0
VPORT
2
*ACTIVE
70
0
10
0
20
0
11
1
21
1
12
0
22
0
40
4383.442545
41
1.35071
42
50
43
0
44
0
50
0
51
0
71
0
72
100
73
1
74
3
75
0
76
0
77
0
78
0
0
ENDTAB
0
TABLE
2
LTYPE
70
2
0
LTYPE
2
CONTINUOUS
70
0
3
Solid line
72
65
73
0
40
0
0
LTYPE
2
DASHED
70
0
3
Dashed
72
65
73
2
40
240
49
120
74
0
49
-120
74
0
0
ENDTAB
0
TABLE
2
LAYER
70
6
0
LAYER
2
PIPES
70
0
62
5
6
CONTINUOUS
0
LAYER
2
PIPE_ENDS
70
0
62
5
6
CONTINUOUS
0
LAYER
2
DIMENSION
70
0
62
1
6
CONTINUOUS
0
LAYER
2
LEVEL_GUIDE
70
0
62
1
6
DASHED
0
LAYER
2
LEVEL_TEXT
70
0
62
1
6
CONTINUOUS
0
LAYER
2
FRAME
70
0
62
5
6
CONTINUOUS
0
ENDTAB
0
TABLE
2
STYLE
70
1
0
STYLE
2
STANDARD
70
0
40
0
41
1
50
0
71
0
42
100
3
txt
4

0
ENDTAB
0
ENDSEC
0
SECTION
2
BLOCKS
0
BLOCK
8
0
2
$MODEL_SPACE
70
0
10
0
20
0
30
0
3
$MODEL_SPACE
0
ENDBLK
8
0
0
BLOCK
67
1
8
0
2
$PAPER_SPACE
70
0
10
0
20
0
30
0
3
$PAPER_SPACE
0
ENDBLK
67
1
8
0
0
ENDSEC
0
SECTION
2
ENTITIES
0
LINE
8
PIPES
10
-780.38
20
-471.720273
30
0
11
-2280.38
21
-471.720273
31
0
0
LINE
8
PIPES
10
719.63
20
-471.720273
30
0
11
-780.38
21
-471.720273
31
0
0
LINE
8
PIPES
10
-2280.38
20
-471.720273
30
0
11
-2280.38
21
-771.721273
31
0
0
LINE
8
PIPES
10
719.63
20
-471.720273
30
0
11
719.63
21
-771.721273
31
0
0
LINE
8
PIPES
10
-780.38
20
-471.720273
30
0
11
-780.38
21
-771.721273
31
0
0
LINE
8
PIPES
10
-2280.38
20
-471.720273
30
0
11
-2280.38
21
1028.279727
31
0
0
LINE
8
PIPES
10
719.63
20
-471.720273
30
0
11
719.63
21
1028.279727
31
0
0
LINE
8
PIPES
10
-780.38
20
-471.720273
30
0
11
-780.38
21
1028.279727
31
0
0
LINE
8
PIPES
10
-1530.38
20
1028.279727
30
0
11
-2280.38
21
1028.279727
31
0
0
LINE
8
PIPES
10
-30.37
20
1028.279727
30
0
11
719.63
21
1028.279727
31
0
0
LINE
8
PIPES
10
-30.37
20
1028.279727
30
0
11
-780.38
21
1028.279727
31
0
0
LINE
8
PIPES
10
-1530.38
20
1028.279727
30
0
11
-780.38
21
1028.279727
31
0
0
LINE
8
PIPES
10
-2280.38
20
1028.279727
30
0
11
-2280.38
21
1328.279727
31
0
0
LINE
8
PIPES
10
719.63
20
1028.279727
30
0
11
719.63
21
1328.279727
31
0
0
LINE
8
PIPES
10
-780.38
20
1028.279727
30
0
11
-780.38
21
1328.279727
31
0
0
LINE
8
PIPES
10
-780.38
20
1328.279727
30
0
11
-2280.38
21
1328.279727
31
0
0
LINE
8
PIPES
10
-780.38
20
1328.279727
30
0
11
719.63
21
1328.279727
31
0
0
LINE
8
PIPES
10
-2280.38
20
1328.279727
30
0
11
-2280.38
21
1628.279727
31
0
0
LINE
8
PIPES
10
719.63
20
1328.279727
30
0
11
719.63
21
1628.279727
31
0
0
LINE
8
PIPES
10
-780.38
20
1328.279727
30
0
11
-780.38
21
1628.279727
31
0
0
LINE
8
PIPES
10
-780.38
20
1628.279727
30
0
11
-2280.38
21
1628.279727
31
0
0
LINE
8
PIPES
10
-780.38
20
1628.279727
30
0
11
719.63
21
1628.279727
31
0
0
LINE
8
PIPES
10
-2280.38
20
1028.279727
30
0
11
-2280.38
21
-771.721273
31
0
0
LINE
8
PIPES
10
719.63
20
1028.279727
30
0
11
-780.38
21
-771.721273
31
0
0
LINE
8
PIPES
10
-780.38
20
-771.721273
30
0
11
-2280.38
21
1028.279727
31
0
0
LINE
8
PIPES
10
719.63
20
1028.279727
30
0
11
719.63
21
-771.721273
31
0
0
LINE
8
PIPES
10
-780.38
20
1028.279727
30
0
11
-2280.38
21
-771.721273
31
0
0
LINE
8
PIPES
10
-780.38
20
1028.279727
30
0
11
719.63
21
-771.721273
31
0
0
CIRCLE
8
PIPE_ENDS
10
719.62
20
-471.720273
30
0
40
32
0
CIRCLE
8
PIPE_ENDS
10
-2280.38
20
-471.720273
30
0
40
32
0
CIRCLE
8
PIPE_ENDS
10
-780.38
20
-471.720273
30
0
40
32
0
CIRCLE
8
PIPE_ENDS
10
719.62
20
1028.279727
30
0
40
32
0
CIRCLE
8
PIPE_ENDS
10
-2280.38
20
1028.279727
30
0
40
32
0
CIRCLE
8
PIPE_ENDS
10
-780.38
20
1028.279727
30
0
40
32
0
CIRCLE
8
PIPE_ENDS
10
719.62
20
1328.279727
30
0
40
32
0
CIRCLE
8
PIPE_ENDS
10
-2280.38
20
1328.279727
30
0
40
25
0
CIRCLE
8
PIPE_ENDS
10
719.62
20
1628.279727
30
0
40
32
0
CIRCLE
8
PIPE_ENDS
10
-2280.38
20
1628.279727
30
0
40
25
0
CIRCLE
8
PIPE_ENDS
10
-1530.38
20
1028.279727
30
0
40
32
0
CIRCLE
8
PIPE_ENDS
10
-30.38
20
1028.279727
30
0
40
32
0
LINE
8
LEVEL_GUIDE
6
DASHED
10
-2460.38
20
-771.720273
30
0
11
899.63
21
-771.720273
31
0
0
LINE
8
LEVEL_GUIDE
6
DASHED
10
-2460.38
20
-471.720273
30
0
11
899.63
21
-471.720273
31
0
0
LINE
8
LEVEL_GUIDE
6
DASHED
10
-2460.38
20
1028.279727
30
0
11
899.63
21
1028.279727
31
0
0
LINE
8
LEVEL_GUIDE
6
DASHED
10
-2460.38
20
1328.279727
30
0
11
899.63
21
1328.279727
31
0
0
LINE
8
LEVEL_GUIDE
6
DASHED
10
-2460.38
20
1628.279727
30
0
11
899.63
21
1628.279727
31
0
0
LINE
8
DIMENSION
10
-2280.38
20
-831.721273
30
0
11
-2280.38
21
-1151.721273
31
0
0
LINE
8
DIMENSION
10
-1530.38
20
-831.721273
30
0
11
-1530.38
21
-1151.721273
31
0
0
LINE
8
DIMENSION
10
-2280.38
20
-1151.721273
30
0
11
-1530.38
21
-1151.721273
31
0
0
LINE
8
DIMENSION
10
-2280.38
20
-1151.721273
30
0
11
-2343.821545
21
-1122.137994
31
0
0
LINE
8
DIMENSION
10
-2280.38
20
-1151.721273
30
0
11
-2343.821545
21
-1181.304551
31
0
0
LINE
8
DIMENSION
10
-1530.38
20
-1151.721273
30
0
11
-1466.938455
21
-1181.304551
31
0
0
LINE
8
DIMENSION
10
-1530.38
20
-1151.721273
30
0
11
-1466.938455
21
-1122.137994
31
0
0
TEXT
8
DIMENSION
10
-1905.38
20
-1321.721273
30
0
40
85
1
0.75
50
0
7
STANDARD
72
1
73
2
11
-1905.38
21
-1321.721273
31
0
0
LINE
8
DIMENSION
10
-1530.38
20
-831.721273
30
0
11
-1530.38
21
-1151.721273
31
0
0
LINE
8
DIMENSION
10
-780.38
20
-831.721273
30
0
11
-780.38
21
-1151.721273
31
0
0
LINE
8
DIMENSION
10
-1530.38
20
-1151.721273
30
0
11
-780.38
21
-1151.721273
31
0
0
LINE
8
DIMENSION
10
-1530.38
20
-1151.721273
30
0
11
-1593.821545
21
-1122.137994
31
0
0
LINE
8
DIMENSION
10
-1530.38
20
-1151.721273
30
0
11
-1593.821545
21
-1181.304551
31
0
0
LINE
8
DIMENSION
10
-780.38
20
-1151.721273
30
0
11
-716.938455
21
-1181.304551
31
0
0
LINE
8
DIMENSION
10
-780.38
20
-1151.721273
30
0
11
-716.938455
21
-1122.137994
31
0
0
TEXT
8
DIMENSION
10
-1155.38
20
-1321.721273
30
0
40
85
1
0.75
50
0
7
STANDARD
72
1
73
2
11
-1155.38
21
-1321.721273
31
0
0
LINE
8
DIMENSION
10
-780.38
20
-831.721273
30
0
11
-780.38
21
-1151.721273
31
0
0
LINE
8
DIMENSION
10
-30.37
20
-831.721273
30
0
11
-30.37
21
-1151.721273
31
0
0
LINE
8
DIMENSION
10
-780.38
20
-1151.721273
30
0
11
-30.37
21
-1151.721273
31
0
0
LINE
8
DIMENSION
10
-780.38
20
-1151.721273
30
0
11
-843.821545
21
-1122.137994
31
0
0
LINE
8
DIMENSION
10
-780.38
20
-1151.721273
30
0
11
-843.821545
21
-1181.304551
31
0
0
LINE
8
DIMENSION
10
-30.37
20
-1151.721273
30
0
11
33.071545
21
-1181.304551
31
0
0
LINE
8
DIMENSION
10
-30.37
20
-1151.721273
30
0
11
33.071545
21
-1122.137994
31
0
0
TEXT
8
DIMENSION
10
-405.375
20
-1321.721273
30
0
40
85
1
0.75
50
0
7
STANDARD
72
1
73
2
11
-405.375
21
-1321.721273
31
0
0
LINE
8
DIMENSION
10
-30.37
20
-831.721273
30
0
11
-30.37
21
-1151.721273
31
0
0
LINE
8
DIMENSION
10
719.63
20
-831.721273
30
0
11
719.63
21
-1151.721273
31
0
0
LINE
8
DIMENSION
10
-30.37
20
-1151.721273
30
0
11
719.63
21
-1151.721273
31
0
0
LINE
8
DIMENSION
10
-30.37
20
-1151.721273
30
0
11
-93.811545
21
-1122.137994
31
0
0
LINE
8
DIMENSION
10
-30.37
20
-1151.721273
30
0
11
-93.811545
21
-1181.304551
31
0
0
LINE
8
DIMENSION
10
719.63
20
-1151.721273
30
0
11
783.071545
21
-1181.304551
31
0
0
LINE
8
DIMENSION
10
719.63
20
-1151.721273
30
0
11
783.071545
21
-1122.137994
31
0
0
TEXT
8
DIMENSION
10
344.63
20
-1321.721273
30
0
40
85
1
0.75
50
0
7
STANDARD
72
1
73
2
11
344.63
21
-1321.721273
31
0
0
LINE
8
DIMENSION
10
-2280.38
20
-831.721273
30
0
11
-2280.38
21
-1521.721273
31
0
0
LINE
8
DIMENSION
10
719.63
20
-831.721273
30
0
11
719.63
21
-1521.721273
31
0
0
LINE
8
DIMENSION
10
-2280.38
20
-1521.721273
30
0
11
719.63
21
-1521.721273
31
0
0
LINE
8
DIMENSION
10
-2280.38
20
-1521.721273
30
0
11
-2343.821545
21
-1492.137994
31
0
0
LINE
8
DIMENSION
10
-2280.38
20
-1521.721273
30
0
11
-2343.821545
21
-1551.304551
31
0
0
LINE
8
DIMENSION
10
719.63
20
-1521.721273
30
0
11
783.071545
21
-1551.304551
31
0
0
LINE
8
DIMENSION
10
719.63
20
-1521.721273
30
0
11
783.071545
21
-1492.137994
31
0
0
TEXT
8
DIMENSION
10
-780.375
20
-1691.721273
30
0
40
85
1
TOTAL 3
50
0
7
STANDARD
72
1
73
2
11
-780.375
21
-1691.721273
31
0
0
LINE
8
DIMENSION
10
779.63
20
-771.720273
30
0
11
1419.63
21
-771.720273
31
0
0
LINE
8
DIMENSION
10
779.63
20
-471.720273
30
0
11
1419.63
21
-471.720273
31
0
0
LINE
8
DIMENSION
10
1419.63
20
-771.720273
30
0
11
1419.63
21
-471.720273
31
0
0
LINE
8
DIMENSION
10
1419.63
20
-771.720273
30
0
11
1390.046722
21
-835.161818
31
0
0
LINE
8
DIMENSION
10
1419.63
20
-771.720273
30
0
11
1449.213278
21
-835.161818
31
0
0
LINE
8
DIMENSION
10
1419.63
20
-471.720273
30
0
11
1449.213278
21
-408.278727
31
0
0
LINE
8
DIMENSION
10
1419.63
20
-471.720273
30
0
11
1390.046722
21
-408.278727
31
0
0
TEXT
8
DIMENSION
10
1589.63
20
-621.720273
30
0
40
85
1
0.3
50
90
7
STANDARD
72
1
73
2
11
1589.63
21
-621.720273
31
0
0
LINE
8
DIMENSION
10
779.63
20
-471.720273
30
0
11
1419.63
21
-471.720273
31
0
0
LINE
8
DIMENSION
10
779.63
20
1028.279727
30
0
11
1419.63
21
1028.279727
31
0
0
LINE
8
DIMENSION
10
1419.63
20
-471.720273
30
0
11
1419.63
21
1028.279727
31
0
0
LINE
8
DIMENSION
10
1419.63
20
-471.720273
30
0
11
1390.046722
21
-535.161818
31
0
0
LINE
8
DIMENSION
10
1419.63
20
-471.720273
30
0
11
1449.213278
21
-535.161818
31
0
0
LINE
8
DIMENSION
10
1419.63
20
1028.279727
30
0
11
1449.213278
21
1091.721273
31
0
0
LINE
8
DIMENSION
10
1419.63
20
1028.279727
30
0
11
1390.046722
21
1091.721273
31
0
0
TEXT
8
DIMENSION
10
1589.63
20
278.279727
30
0
40
85
1
1.5
50
90
7
STANDARD
72
1
73
2
11
1589.63
21
278.279727
31
0
0
LINE
8
DIMENSION
10
779.63
20
1028.279727
30
0
11
1419.63
21
1028.279727
31
0
0
LINE
8
DIMENSION
10
779.63
20
1328.279727
30
0
11
1419.63
21
1328.279727
31
0
0
LINE
8
DIMENSION
10
1419.63
20
1028.279727
30
0
11
1419.63
21
1328.279727
31
0
0
LINE
8
DIMENSION
10
1419.63
20
1028.279727
30
0
11
1390.046722
21
964.838182
31
0
0
LINE
8
DIMENSION
10
1419.63
20
1028.279727
30
0
11
1449.213278
21
964.838182
31
0
0
LINE
8
DIMENSION
10
1419.63
20
1328.279727
30
0
11
1449.213278
21
1391.721273
31
0
0
LINE
8
DIMENSION
10
1419.63
20
1328.279727
30
0
11
1390.046722
21
1391.721273
31
0
0
TEXT
8
DIMENSION
10
1589.63
20
1178.279727
30
0
40
85
1
0.3
50
90
7
STANDARD
72
1
73
2
11
1589.63
21
1178.279727
31
0
0
LINE
8
DIMENSION
10
779.63
20
1328.279727
30
0
11
1419.63
21
1328.279727
31
0
0
LINE
8
DIMENSION
10
779.63
20
1628.279727
30
0
11
1419.63
21
1628.279727
31
0
0
LINE
8
DIMENSION
10
1419.63
20
1328.279727
30
0
11
1419.63
21
1628.279727
31
0
0
LINE
8
DIMENSION
10
1419.63
20
1328.279727
30
0
11
1390.046722
21
1264.838182
31
0
0
LINE
8
DIMENSION
10
1419.63
20
1328.279727
30
0
11
1449.213278
21
1264.838182
31
0
0
LINE
8
DIMENSION
10
1419.63
20
1628.279727
30
0
11
1449.213278
21
1691.721273
31
0
0
LINE
8
DIMENSION
10
1419.63
20
1628.279727
30
0
11
1390.046722
21
1691.721273
31
0
0
TEXT
8
DIMENSION
10
1589.63
20
1478.279727
30
0
40
85
1
0.3
50
90
7
STANDARD
72
1
73
2
11
1589.63
21
1478.279727
31
0
0
LINE
8
DIMENSION
10
779.63
20
-771.720273
30
0
11
1869.63
21
-771.720273
31
0
0
LINE
8
DIMENSION
10
779.63
20
1628.279727
30
0
11
1869.63
21
1628.279727
31
0
0
LINE
8
DIMENSION
10
1869.63
20
-771.720273
30
0
11
1869.63
21
1628.279727
31
0
0
LINE
8
DIMENSION
10
1869.63
20
-771.720273
30
0
11
1840.046722
21
-835.161818
31
0
0
LINE
8
DIMENSION
10
1869.63
20
-771.720273
30
0
11
1899.213278
21
-835.161818
31
0
0
LINE
8
DIMENSION
10
1869.63
20
1628.279727
30
0
11
1899.213278
21
1691.721273
31
0
0
LINE
8
DIMENSION
10
1869.63
20
1628.279727
30
0
11
1840.046722
21
1691.721273
31
0
0
TEXT
8
DIMENSION
10
2039.63
20
428.279727
30
0
40
85
1
TOTAL 2.4
50
90
7
STANDARD
72
1
73
2
11
2039.63
21
428.279727
31
0
0
ENDSEC
0
EOF
