0
SECTION
2
HEADER
9
$ACADVER
1
AC1009
9
$INSUNITS
70
4
9
$MEASUREMENT
70
1
9
$LUNITS
70
2
9
$LUPREC
70
1
9
$TILEMODE
70
1
9
$EXTMIN
10
-2937.005
20
-10491.720773
30
0
9
$EXTMAX
10
2937.005
20
10491.720773
30
0
9
$PEXTMIN
10
-2937.005
20
-10491.720773
30
0
9
$PEXTMAX
10
2937.005
20
10491.720773
30
0
9
$LIMMIN
10
-3437.005
20
-10991.720773
9
$LIMMAX
10
3437.005
20
10991.720773
9
$PLIMMIN
10
-3437.005
20
-10991.720773
9
$PLIMMAX
10
3437.005
20
10991.720773
0
ENDSEC
0
SECTION
2
TABLES
0
TABLE
2
VPORT
70
1
0
VPORT
2
*ACTIVE
70
0
10
0
20
0
11
1
21
1
12
0
22
0
40
21983.441545
41
0.31269
42
50
43
0
44
0
50
0
51
0
71
0
72
100
73
1
74
3
75
0
76
0
77
0
78
0
0
ENDTAB
0
TABLE
2
LTYPE
70
2
0
LTYPE
2
CONTINUOUS
70
0
3
Solid line
72
65
73
0
40
0
0
LTYPE
2
DASHED
70
0
3
Dashed
72
65
73
2
40
240
49
120
74
0
49
-120
74
0
0
ENDTAB
0
TABLE
2
LAYER
70
6
0
LAYER
2
PIPES
70
0
62
5
6
CONTINUOUS
0
LAYER
2
PIPE_ENDS
70
0
62
5
6
CONTINUOUS
0
LAYER
2
DIMENSION
70
0
62
1
6
CONTINUOUS
0
LAYER
2
LEVEL_GUIDE
70
0
62
1
6
DASHED
0
LAYER
2
LEVEL_TEXT
70
0
62
1
6
CONTINUOUS
0
LAYER
2
FRAME
70
0
62
5
6
CONTINUOUS
0
ENDTAB
0
TABLE
2
STYLE
70
1
0
STYLE
2
STANDARD
70
0
40
0
41
1
50
0
71
0
42
100
3
txt
4

0
ENDTAB
0
ENDSEC
0
SECTION
2
BLOCKS
0
BLOCK
8
0
2
$MODEL_SPACE
70
0
10
0
20
0
30
0
3
$MODEL_SPACE
0
ENDBLK
8
0
0
BLOCK
67
1
8
0
2
$PAPER_SPACE
70
0
10
0
20
0
30
0
3
$PAPER_SPACE
0
ENDBLK
67
1
8
0
0
ENDSEC
0
SECTION
2
ENTITIES
0
LINE
8
PIPES
10
-2757.005
20
-9571.720773
30
0
11
-2757.005
21
-9271.719773
31
0
0
LINE
8
PIPES
10
-1757.005
20
-9571.720773
30
0
11
-1757.005
21
-9271.719773
31
0
0
LINE
8
PIPES
10
-757.005
20
-9571.720773
30
0
11
-757.005
21
-9271.719773
31
0
0
LINE
8
PIPES
10
243.005
20
-9571.720773
30
0
11
243.005
21
-9271.719773
31
0
0
LINE
8
PIPES
10
1243.005
20
-9571.720773
30
0
11
1243.005
21
-9271.719773
31
0
0
LINE
8
PIPES
10
-2757.005
20
-9271.719773
30
0
11
-1757.005
21
-9271.719773
31
0
0
LINE
8
PIPES
10
-757.005
20
-9271.719773
30
0
11
-1757.005
21
-9271.719773
31
0
0
LINE
8
PIPES
10
243.005
20
-9271.719773
30
0
11
-757.005
21
-9271.719773
31
0
0
LINE
8
PIPES
10
243.005
20
-9271.719773
30
0
11
1243.005
21
-9271.719773
31
0
0
LINE
8
PIPES
10
-2757.005
20
-7571.720773
30
0
11
-2757.005
21
-9271.719773
31
0
0
LINE
8
PIPES
10
-1757.005
20
-7571.720773
30
0
11
-1757.005
21
-9271.719773
31
0
0
LINE
8
PIPES
10
-757.005
20
-7571.720773
30
0
11
-757.005
21
-9271.719773
31
0
0
LINE
8
PIPES
10
243.005
20
-7571.720773
30
0
11
243.005
21
-9271.719773
31
0
0
LINE
8
PIPES
10
1243.005
20
-7571.720773
30
0
11
1243.005
21
-9271.719773
31
0
0
LINE
8
PIPES
10
-2757.005
20
-7571.720773
30
0
11
-1757.005
21
-7571.720773
31
0
0
LINE
8
PIPES
10
-757.005
20
-7571.720773
30
0
11
-1757.005
21
-7571.720773
31
0
0
LINE
8
PIPES
10
243.005
20
-7571.720773
30
0
11
-757.005
21
-7571.720773
31
0
0
LINE
8
PIPES
10
243.005
20
-7571.720773
30
0
11
1243.005
21
-7571.720773
31
0
0
LINE
8
PIPES
10
-2757.005
20
-5571.720773
30
0
11
-2757.005
21
-7571.720773
31
0
0
LINE
8
PIPES
10
-1757.005
20
-5571.720773
30
0
11
-1757.005
21
-7571.720773
31
0
0
LINE
8
PIPES
10
-757.005
20
-5571.720773
30
0
11
-757.005
21
-7571.720773
31
0
0
LINE
8
PIPES
10
243.005
20
-5571.720773
30
0
11
243.005
21
-7571.720773
31
0
0
LINE
8
PIPES
10
1243.005
20
-5571.720773
30
0
11
1243.005
21
-7571.720773
31
0
0
LINE
8
PIPES
10
-2757.005
20
-5571.720773
30
0
11
-1757.005
21
-5571.720773
31
0
0
LINE
8
PIPES
10
-757.005
20
-5571.720773
30
0
11
-1757.005
21
-5571.720773
31
0
0
LINE
8
PIPES
10
243.005
20
-5571.720773
30
0
11
-757.005
21
-5571.720773
31
0
0
LINE
8
PIPES
10
243.005
20
-5571.720773
30
0
11
1243.005
21
-5571.720773
31
0
0
LINE
8
PIPES
10
-2757.005
20
-3571.710773
30
0
11
-2757.005
21
-5571.720773
31
0
0
LINE
8
PIPES
10
-1757.005
20
-3571.710773
30
0
11
-1757.005
21
-5571.720773
31
0
0
LINE
8
PIPES
10
-757.005
20
-3571.710773
30
0
11
-757.005
21
-5571.720773
31
0
0
LINE
8
PIPES
10
243.005
20
-3571.710773
30
0
11
243.005
21
-5571.720773
31
0
0
LINE
8
PIPES
10
1243.005
20
-3571.710773
30
0
11
1243.005
21
-5571.720773
31
0
0
LINE
8
PIPES
10
-2757.005
20
-3571.710773
30
0
11
-1757.005
21
-3571.710773
31
0
0
LINE
8
PIPES
10
-757.005
20
-3571.710773
30
0
11
-1757.005
21
-3571.710773
31
0
0
LINE
8
PIPES
10
243.005
20
-3571.710773
30
0
11
-757.005
21
-3571.710773
31
0
0
LINE
8
PIPES
10
243.005
20
-3571.710773
30
0
11
1243.005
21
-3571.710773
31
0
0
LINE
8
PIPES
10
-2757.005
20
-1571.710773
30
0
11
-2757.005
21
-3571.710773
31
0
0
LINE
8
PIPES
10
-1757.005
20
-1571.710773
30
0
11
-1757.005
21
-3571.710773
31
0
0
LINE
8
PIPES
10
-757.005
20
-1571.710773
30
0
11
-757.005
21
-3571.710773
31
0
0
LINE
8
PIPES
10
243.005
20
-1571.710773
30
0
11
243.005
21
-3571.710773
31
0
0
LINE
8
PIPES
10
1243.005
20
-1571.710773
30
0
11
1243.005
21
-3571.710773
31
0
0
LINE
8
PIPES
10
-2757.005
20
-1571.710773
30
0
11
-1757.005
21
-1571.710773
31
0
0
LINE
8
PIPES
10
-757.005
20
-1571.710773
30
0
11
-1757.005
21
-1571.710773
31
0
0
LINE
8
PIPES
10
243.005
20
-1571.710773
30
0
11
-757.005
21
-1571.710773
31
0
0
LINE
8
PIPES
10
243.005
20
-1571.710773
30
0
11
1243.005
21
-1571.710773
31
0
0
LINE
8
PIPES
10
-2757.005
20
428.279227
30
0
11
-2757.005
21
-1571.710773
31
0
0
LINE
8
PIPES
10
-1757.005
20
428.279227
30
0
11
-1757.005
21
-1571.710773
31
0
0
LINE
8
PIPES
10
-757.005
20
428.279227
30
0
11
-757.005
21
-1571.710773
31
0
0
LINE
8
PIPES
10
243.005
20
428.279227
30
0
11
243.005
21
-1571.710773
31
0
0
LINE
8
PIPES
10
1243.005
20
428.279227
30
0
11
1243.005
21
-1571.710773
31
0
0
LINE
8
PIPES
10
-2757.005
20
428.279227
30
0
11
-1757.005
21
428.279227
31
0
0
LINE
8
PIPES
10
-757.005
20
428.279227
30
0
11
-1757.005
21
428.279227
31
0
0
LINE
8
PIPES
10
243.005
20
428.279227
30
0
11
-757.005
21
428.279227
31
0
0
LINE
8
PIPES
10
243.005
20
428.279227
30
0
11
1243.005
21
428.279227
31
0
0
LINE
8
PIPES
10
-2757.005
20
2428.279227
30
0
11
-2757.005
21
428.279227
31
0
0
LINE
8
PIPES
10
-1757.005
20
2428.279227
30
0
11
-1757.005
21
428.279227
31
0
0
LINE
8
PIPES
10
-757.005
20
2428.279227
30
0
11
-757.005
21
428.279227
31
0
0
LINE
8
PIPES
10
243.005
20
2428.279227
30
0
11
243.005
21
428.279227
31
0
0
LINE
8
PIPES
10
1243.005
20
2428.279227
30
0
11
1243.005
21
428.279227
31
0
0
LINE
8
PIPES
10
-2757.005
20
2428.279227
30
0
11
-1757.005
21
2428.279227
31
0
0
LINE
8
PIPES
10
-757.005
20
2428.279227
30
0
11
-1757.005
21
2428.279227
31
0
0
LINE
8
PIPES
10
243.005
20
2428.279227
30
0
11
-757.005
21
2428.279227
31
0
0
LINE
8
PIPES
10
243.005
20
2428.279227
30
0
11
1243.005
21
2428.279227
31
0
0
LINE
8
PIPES
10
-2757.005
20
4428.279227
30
0
11
-2757.005
21
2428.279227
31
0
0
LINE
8
PIPES
10
-1757.005
20
4428.279227
30
0
11
-1757.005
21
2428.279227
31
0
0
LINE
8
PIPES
10
-757.005
20
4428.279227
30
0
11
-757.005
21
2428.279227
31
0
0
LINE
8
PIPES
10
243.005
20
4428.279227
30
0
11
243.005
21
2428.279227
31
0
0
LINE
8
PIPES
10
1243.005
20
4428.279227
30
0
11
1243.005
21
2428.279227
31
0
0
LINE
8
PIPES
10
-2757.005
20
4428.279227
30
0
11
-1757.005
21
4428.279227
31
0
0
LINE
8
PIPES
10
-757.005
20
4428.279227
30
0
11
-1757.005
21
4428.279227
31
0
0
LINE
8
PIPES
10
243.005
20
4428.279227
30
0
11
-757.005
21
4428.279227
31
0
0
LINE
8
PIPES
10
243.005
20
4428.279227
30
0
11
1243.005
21
4428.279227
31
0
0
LINE
8
PIPES
10
-2757.005
20
6428.279227
30
0
11
-2757.005
21
4428.279227
31
0
0
LINE
8
PIPES
10
-1757.005
20
6428.279227
30
0
11
-1757.005
21
4428.279227
31
0
0
LINE
8
PIPES
10
-757.005
20
6428.279227
30
0
11
-757.005
21
4428.279227
31
0
0
LINE
8
PIPES
10
243.005
20
6428.279227
30
0
11
243.005
21
4428.279227
31
0
0
LINE
8
PIPES
10
1243.005
20
6428.279227
30
0
11
1243.005
21
4428.279227
31
0
0
LINE
8
PIPES
10
-2757.005
20
6428.279227
30
0
11
-1757.005
21
6428.279227
31
0
0
LINE
8
PIPES
10
-757.005
20
6428.279227
30
0
11
-1757.005
21
6428.279227
31
0
0
LINE
8
PIPES
10
243.005
20
6428.279227
30
0
11
-757.005
21
6428.279227
31
0
0
LINE
8
PIPES
10
243.005
20
6428.279227
30
0
11
1243.005
21
6428.279227
31
0
0
LINE
8
PIPES
10
-2757.005
20
8428.279227
30
0
11
-2757.005
21
6428.279227
31
0
0
LINE
8
PIPES
10
-1757.005
20
8428.279227
30
0
11
-1757.005
21
6428.279227
31
0
0
LINE
8
PIPES
10
-757.005
20
8428.279227
30
0
11
-757.005
21
6428.279227
31
0
0
LINE
8
PIPES
10
243.005
20
8428.279227
30
0
11
243.005
21
6428.279227
31
0
0
LINE
8
PIPES
10
1243.005
20
8428.279227
30
0
11
1243.005
21
6428.279227
31
0
0
LINE
8
PIPES
10
-2757.005
20
8428.279227
30
0
11
-1757.005
21
8428.279227
31
0
0
LINE
8
PIPES
10
-757.005
20
8428.279227
30
0
11
-1757.005
21
8428.279227
31
0
0
LINE
8
PIPES
10
243.005
20
8428.279227
30
0
11
-757.005
21
8428.279227
31
0
0
LINE
8
PIPES
10
243.005
20
8428.279227
30
0
11
1243.005
21
8428.279227
31
0
0
LINE
8
PIPES
10
-2757.005
20
9428.279227
30
0
11
-2757.005
21
8428.279227
31
0
0
LINE
8
PIPES
10
-1757.005
20
9428.279227
30
0
11
-1757.005
21
8428.279227
31
0
0
LINE
8
PIPES
10
-757.005
20
9428.279227
30
0
11
-757.005
21
8428.279227
31
0
0
LINE
8
PIPES
10
243.005
20
9428.279227
30
0
11
243.005
21
8428.279227
31
0
0
LINE
8
PIPES
10
1243.005
20
9428.279227
30
0
11
1243.005
21
8428.279227
31
0
0
LINE
8
PIPES
10
-2757.005
20
9428.279227
30
0
11
-1757.005
21
9428.279227
31
0
0
LINE
8
PIPES
10
-757.005
20
9428.279227
30
0
11
-1757.005
21
9428.279227
31
0
0
LINE
8
PIPES
10
243.005
20
9428.279227
30
0
11
-757.005
21
9428.279227
31
0
0
LINE
8
PIPES
10
243.005
20
9428.279227
30
0
11
1243.005
21
9428.279227
31
0
0
LINE
8
PIPES
10
-2757.005
20
-7571.720773
30
0
11
-1757.005
21
-9271.719773
31
0
0
LINE
8
PIPES
10
-1757.005
20
-7571.720773
30
0
11
-757.005
21
-9271.719773
31
0
0
LINE
8
PIPES
10
-757.005
20
-7571.720773
30
0
11
243.005
21
-9271.719773
31
0
0
LINE
8
PIPES
10
243.005
20
-7571.720773
30
0
11
1243.005
21
-9271.719773
31
0
0
LINE
8
PIPES
10
-1757.005
20
-7571.720773
30
0
11
-2757.005
21
-9271.719773
31
0
0
LINE
8
PIPES
10
-757.005
20
-7571.720773
30
0
11
-1757.005
21
-9271.719773
31
0
0
LINE
8
PIPES
10
243.005
20
-7571.720773
30
0
11
-757.005
21
-9271.719773
31
0
0
LINE
8
PIPES
10
1243.005
20
-7571.720773
30
0
11
243.005
21
-9271.719773
31
0
0
LINE
8
PIPES
10
-2757.005
20
-5571.720773
30
0
11
-1757.005
21
-7571.720773
31
0
0
LINE
8
PIPES
10
-1757.005
20
-5571.720773
30
0
11
-757.005
21
-7571.720773
31
0
0
LINE
8
PIPES
10
-757.005
20
-5571.720773
30
0
11
243.005
21
-7571.720773
31
0
0
LINE
8
PIPES
10
243.005
20
-5571.720773
30
0
11
1243.005
21
-7571.720773
31
0
0
LINE
8
PIPES
10
-1757.005
20
-5571.720773
30
0
11
-2757.005
21
-7571.720773
31
0
0
LINE
8
PIPES
10
-757.005
20
-5571.720773
30
0
11
-1757.005
21
-7571.720773
31
0
0
LINE
8
PIPES
10
243.005
20
-5571.720773
30
0
11
-757.005
21
-7571.720773
31
0
0
LINE
8
PIPES
10
1243.005
20
-5571.720773
30
0
11
243.005
21
-7571.720773
31
0
0
LINE
8
PIPES
10
-2757.005
20
-3571.710773
30
0
11
-1757.005
21
-5571.720773
31
0
0
LINE
8
PIPES
10
-1757.005
20
-3571.710773
30
0
11
-757.005
21
-5571.720773
31
0
0
LINE
8
PIPES
10
-757.005
20
-3571.710773
30
0
11
243.005
21
-5571.720773
31
0
0
LINE
8
PIPES
10
243.005
20
-3571.710773
30
0
11
1243.005
21
-5571.720773
31
0
0
LINE
8
PIPES
10
-1757.005
20
-3571.710773
30
0
11
-2757.005
21
-5571.720773
31
0
0
LINE
8
PIPES
10
-757.005
20
-3571.710773
30
0
11
-1757.005
21
-5571.720773
31
0
0
LINE
8
PIPES
10
243.005
20
-3571.710773
30
0
11
-757.005
21
-5571.720773
31
0
0
LINE
8
PIPES
10
1243.005
20
-3571.710773
30
0
11
243.005
21
-5571.720773
31
0
0
LINE
8
PIPES
10
-2757.005
20
-1571.710773
30
0
11
-1757.005
21
-3571.710773
31
0
0
LINE
8
PIPES
10
-1757.005
20
-1571.710773
30
0
11
-757.005
21
-3571.710773
31
0
0
LINE
8
PIPES
10
-757.005
20
-1571.710773
30
0
11
243.005
21
-3571.710773
31
0
0
LINE
8
PIPES
10
243.005
20
-1571.710773
30
0
11
1243.005
21
-3571.710773
31
0
0
LINE
8
PIPES
10
-1757.005
20
-1571.710773
30
0
11
-2757.005
21
-3571.710773
31
0
0
LINE
8
PIPES
10
-757.005
20
-1571.710773
30
0
11
-1757.005
21
-3571.710773
31
0
0
LINE
8
PIPES
10
243.005
20
-1571.710773
30
0
11
-757.005
21
-3571.710773
31
0
0
LINE
8
PIPES
10
1243.005
20
-1571.710773
30
0
11
243.005
21
-3571.710773
31
0
0
LINE
8
PIPES
10
-2757.005
20
428.279227
30
0
11
-1757.005
21
-1571.710773
31
0
0
LINE
8
PIPES
10
-1757.005
20
428.279227
30
0
11
-757.005
21
-1571.710773
31
0
0
LINE
8
PIPES
10
-757.005
20
428.279227
30
0
11
243.005
21
-1571.710773
31
0
0
LINE
8
PIPES
10
243.005
20
428.279227
30
0
11
1243.005
21
-1571.710773
31
0
0
LINE
8
PIPES
10
-1757.005
20
428.279227
30
0
11
-2757.005
21
-1571.710773
31
0
0
LINE
8
PIPES
10
-757.005
20
428.279227
30
0
11
-1757.005
21
-1571.710773
31
0
0
LINE
8
PIPES
10
243.005
20
428.279227
30
0
11
-757.005
21
-1571.710773
31
0
0
LINE
8
PIPES
10
1243.005
20
428.279227
30
0
11
243.005
21
-1571.710773
31
0
0
LINE
8
PIPES
10
-2757.005
20
2428.279227
30
0
11
-1757.005
21
428.279227
31
0
0
LINE
8
PIPES
10
-1757.005
20
2428.279227
30
0
11
-757.005
21
428.279227
31
0
0
LINE
8
PIPES
10
-757.005
20
2428.279227
30
0
11
243.005
21
428.279227
31
0
0
LINE
8
PIPES
10
243.005
20
2428.279227
30
0
11
1243.005
21
428.279227
31
0
0
LINE
8
PIPES
10
-1757.005
20
2428.279227
30
0
11
-2757.005
21
428.279227
31
0
0
LINE
8
PIPES
10
-757.005
20
2428.279227
30
0
11
-1757.005
21
428.279227
31
0
0
LINE
8
PIPES
10
243.005
20
2428.279227
30
0
11
-757.005
21
428.279227
31
0
0
LINE
8
PIPES
10
1243.005
20
2428.279227
30
0
11
243.005
21
428.279227
31
0
0
LINE
8
PIPES
10
-2757.005
20
4428.279227
30
0
11
-1757.005
21
2428.279227
31
0
0
LINE
8
PIPES
10
-1757.005
20
4428.279227
30
0
11
-757.005
21
2428.279227
31
0
0
LINE
8
PIPES
10
-757.005
20
4428.279227
30
0
11
243.005
21
2428.279227
31
0
0
LINE
8
PIPES
10
243.005
20
4428.279227
30
0
11
1243.005
21
2428.279227
31
0
0
LINE
8
PIPES
10
-1757.005
20
4428.279227
30
0
11
-2757.005
21
2428.279227
31
0
0
LINE
8
PIPES
10
-757.005
20
4428.279227
30
0
11
-1757.005
21
2428.279227
31
0
0
LINE
8
PIPES
10
243.005
20
4428.279227
30
0
11
-757.005
21
2428.279227
31
0
0
LINE
8
PIPES
10
1243.005
20
4428.279227
30
0
11
243.005
21
2428.279227
31
0
0
LINE
8
PIPES
10
-2757.005
20
6428.279227
30
0
11
-1757.005
21
4428.279227
31
0
0
LINE
8
PIPES
10
-1757.005
20
6428.279227
30
0
11
-757.005
21
4428.279227
31
0
0
LINE
8
PIPES
10
-757.005
20
6428.279227
30
0
11
243.005
21
4428.279227
31
0
0
LINE
8
PIPES
10
243.005
20
6428.279227
30
0
11
1243.005
21
4428.279227
31
0
0
LINE
8
PIPES
10
-1757.005
20
6428.279227
30
0
11
-2757.005
21
4428.279227
31
0
0
LINE
8
PIPES
10
-757.005
20
6428.279227
30
0
11
-1757.005
21
4428.279227
31
0
0
LINE
8
PIPES
10
243.005
20
6428.279227
30
0
11
-757.005
21
4428.279227
31
0
0
LINE
8
PIPES
10
1243.005
20
6428.279227
30
0
11
243.005
21
4428.279227
31
0
0
LINE
8
PIPES
10
-2757.005
20
8428.279227
30
0
11
-1757.005
21
6428.279227
31
0
0
LINE
8
PIPES
10
-1757.005
20
8428.279227
30
0
11
-757.005
21
6428.279227
31
0
0
LINE
8
PIPES
10
-757.005
20
8428.279227
30
0
11
243.005
21
6428.279227
31
0
0
LINE
8
PIPES
10
243.005
20
8428.279227
30
0
11
1243.005
21
6428.279227
31
0
0
LINE
8
PIPES
10
-1757.005
20
8428.279227
30
0
11
-2757.005
21
6428.279227
31
0
0
LINE
8
PIPES
10
-757.005
20
8428.279227
30
0
11
-1757.005
21
6428.279227
31
0
0
LINE
8
PIPES
10
243.005
20
8428.279227
30
0
11
-757.005
21
6428.279227
31
0
0
LINE
8
PIPES
10
1243.005
20
8428.279227
30
0
11
243.005
21
6428.279227
31
0
0
LINE
8
PIPES
10
-2757.005
20
9428.279227
30
0
11
-1757.005
21
8428.279227
31
0
0
LINE
8
PIPES
10
-1757.005
20
9428.279227
30
0
11
-757.005
21
8428.279227
31
0
0
LINE
8
PIPES
10
-757.005
20
9428.279227
30
0
11
243.005
21
8428.279227
31
0
0
LINE
8
PIPES
10
243.005
20
9428.279227
30
0
11
1243.005
21
8428.279227
31
0
0
LINE
8
PIPES
10
-1757.005
20
9428.279227
30
0
11
-2757.005
21
8428.279227
31
0
0
LINE
8
PIPES
10
-757.005
20
9428.279227
30
0
11
-1757.005
21
8428.279227
31
0
0
LINE
8
PIPES
10
243.005
20
9428.279227
30
0
11
-757.005
21
8428.279227
31
0
0
LINE
8
PIPES
10
1243.005
20
9428.279227
30
0
11
243.005
21
8428.279227
31
0
0
LINE
8
PIPES
10
-2757.005
20
9428.279227
30
0
11
-2757.005
21
9928.279227
31
0
0
LINE
8
PIPES
10
-1757.005
20
9428.279227
30
0
11
-1757.005
21
9928.279227
31
0
0
LINE
8
PIPES
10
-757.005
20
9428.279227
30
0
11
-757.005
21
9928.279227
31
0
0
LINE
8
PIPES
10
243.005
20
9428.279227
30
0
11
243.005
21
9928.279227
31
0
0
LINE
8
PIPES
10
1243.005
20
9428.279227
30
0
11
1243.005
21
9928.279227
31
0
0
LINE
8
PIPES
10
-2757.005
20
9928.279227
30
0
11
-1757.005
21
9928.279227
31
0
0
LINE
8
PIPES
10
-757.005
20
9928.279227
30
0
11
-1757.005
21
9928.279227
31
0
0
LINE
8
PIPES
10
243.005
20
9928.279227
30
0
11
-757.005
21
9928.279227
31
0
0
LINE
8
PIPES
10
243.005
20
9928.279227
30
0
11
1243.005
21
9928.279227
31
0
0
LINE
8
PIPES
10
-2757.005
20
9928.279227
30
0
11
-2757.005
21
10428.279227
31
0
0
LINE
8
PIPES
10
-1757.005
20
9928.279227
30
0
11
-1757.005
21
10428.279227
31
0
0
LINE
8
PIPES
10
-757.005
20
9928.279227
30
0
11
-757.005
21
10428.279227
31
0
0
LINE
8
PIPES
10
243.005
20
9928.279227
30
0
11
243.005
21
10428.279227
31
0
0
LINE
8
PIPES
10
1243.005
20
9928.279227
30
0
11
1243.005
21
10428.279227
31
0
0
LINE
8
PIPES
10
-2757.005
20
10428.279227
30
0
11
-1757.005
21
10428.279227
31
0
0
LINE
8
PIPES
10
-757.005
20
10428.279227
30
0
11
-1757.005
21
10428.279227
31
0
0
LINE
8
PIPES
10
243.005
20
10428.279227
30
0
11
-757.005
21
10428.279227
31
0
0
LINE
8
PIPES
10
243.005
20
10428.279227
30
0
11
1243.005
21
10428.279227
31
0
0
CIRCLE
8
PIPE_ENDS
10
1242.995
20
-9271.720773
30
0
40
32
0
CIRCLE
8
PIPE_ENDS
10
242.995
20
-9271.720773
30
0
40
32
0
CIRCLE
8
PIPE_ENDS
10
-757.005
20
-9271.720773
30
0
40
32
0
CIRCLE
8
PIPE_ENDS
10
-1757.005
20
-9271.720773
30
0
40
32
0
CIRCLE
8
PIPE_ENDS
10
-2757.005
20
-9271.720773
30
0
40
32
0
CIRCLE
8
PIPE_ENDS
10
1242.995
20
-7571.720773
30
0
40
32
0
CIRCLE
8
PIPE_ENDS
10
242.995
20
-7571.720773
30
0
40
32
0
CIRCLE
8
PIPE_ENDS
10
-757.005
20
-7571.720773
30
0
40
32
0
CIRCLE
8
PIPE_ENDS
10
-1757.005
20
-7571.720773
30
0
40
32
0
CIRCLE
8
PIPE_ENDS
10
-2757.005
20
-7571.720773
30
0
40
32
0
CIRCLE
8
PIPE_ENDS
10
1242.995
20
-5571.720773
30
0
40
32
0
CIRCLE
8
PIPE_ENDS
10
242.995
20
-5571.720773
30
0
40
32
0
CIRCLE
8
PIPE_ENDS
10
-757.005
20
-5571.720773
30
0
40
32
0
CIRCLE
8
PIPE_ENDS
10
-1757.005
20
-5571.720773
30
0
40
32
0
CIRCLE
8
PIPE_ENDS
10
-2757.005
20
-5571.720773
30
0
40
32
0
CIRCLE
8
PIPE_ENDS
10
1242.995
20
-3571.720773
30
0
40
32
0
CIRCLE
8
PIPE_ENDS
10
242.995
20
-3571.720773
30
0
40
32
0
CIRCLE
8
PIPE_ENDS
10
-757.005
20
-3571.720773
30
0
40
32
0
CIRCLE
8
PIPE_ENDS
10
-1757.005
20
-3571.720773
30
0
40
32
0
CIRCLE
8
PIPE_ENDS
10
-2757.005
20
-3571.720773
30
0
40
32
0
CIRCLE
8
PIPE_ENDS
10
242.995
20
-1571.720773
30
0
40
32
0
CIRCLE
8
PIPE_ENDS
10
-757.005
20
-1571.720773
30
0
40
32
0
CIRCLE
8
PIPE_ENDS
10
-1757.005
20
-1571.720773
30
0
40
32
0
CIRCLE
8
PIPE_ENDS
10
-2757.005
20
-1571.720773
30
0
40
32
0
CIRCLE
8
PIPE_ENDS
10
1242.995
20
-1571.720773
30
0
40
32
0
CIRCLE
8
PIPE_ENDS
10
1242.995
20
428.279227
30
0
40
32
0
CIRCLE
8
PIPE_ENDS
10
242.995
20
428.279227
30
0
40
32
0
CIRCLE
8
PIPE_ENDS
10
-757.005
20
428.279227
30
0
40
32
0
CIRCLE
8
PIPE_ENDS
10
-1757.005
20
428.279227
30
0
40
32
0
CIRCLE
8
PIPE_ENDS
10
-2757.005
20
428.279227
30
0
40
32
0
CIRCLE
8
PIPE_ENDS
10
1242.995
20
2428.279227
30
0
40
32
0
CIRCLE
8
PIPE_ENDS
10
242.995
20
2428.279227
30
0
40
32
0
CIRCLE
8
PIPE_ENDS
10
-757.005
20
2428.279227
30
0
40
32
0
CIRCLE
8
PIPE_ENDS
10
-1757.005
20
2428.279227
30
0
40
32
0
CIRCLE
8
PIPE_ENDS
10
-2757.005
20
2428.279227
30
0
40
32
0
CIRCLE
8
PIPE_ENDS
10
1242.995
20
4428.279227
30
0
40
32
0
CIRCLE
8
PIPE_ENDS
10
242.995
20
4428.279227
30
0
40
32
0
CIRCLE
8
PIPE_ENDS
10
-757.005
20
4428.279227
30
0
40
32
0
CIRCLE
8
PIPE_ENDS
10
-1757.005
20
4428.279227
30
0
40
32
0
CIRCLE
8
PIPE_ENDS
10
-2757.005
20
4428.279227
30
0
40
32
0
CIRCLE
8
PIPE_ENDS
10
1242.995
20
6428.279227
30
0
40
32
0
CIRCLE
8
PIPE_ENDS
10
242.995
20
6428.279227
30
0
40
32
0
CIRCLE
8
PIPE_ENDS
10
-757.005
20
6428.279227
30
0
40
32
0
CIRCLE
8
PIPE_ENDS
10
-1757.005
20
6428.279227
30
0
40
32
0
CIRCLE
8
PIPE_ENDS
10
-2757.005
20
6428.279227
30
0
40
32
0
CIRCLE
8
PIPE_ENDS
10
1242.995
20
8428.279227
30
0
40
32
0
CIRCLE
8
PIPE_ENDS
10
242.995
20
8428.279227
30
0
40
32
0
CIRCLE
8
PIPE_ENDS
10
-757.005
20
8428.279227
30
0
40
32
0
CIRCLE
8
PIPE_ENDS
10
-1757.005
20
8428.279227
30
0
40
32
0
CIRCLE
8
PIPE_ENDS
10
-2757.005
20
8428.279227
30
0
40
32
0
CIRCLE
8
PIPE_ENDS
10
1242.995
20
9428.279227
30
0
40
32
0
CIRCLE
8
PIPE_ENDS
10
242.995
20
9428.279227
30
0
40
32
0
CIRCLE
8
PIPE_ENDS
10
-757.005
20
9428.279227
30
0
40
32
0
CIRCLE
8
PIPE_ENDS
10
-1757.005
20
9428.279227
30
0
40
32
0
CIRCLE
8
PIPE_ENDS
10
-2757.005
20
9428.279227
30
0
40
32
0
CIRCLE
8
PIPE_ENDS
10
1242.995
20
9928.279227
30
0
40
32
0
CIRCLE
8
PIPE_ENDS
10
-2757.005
20
9928.279227
30
0
40
32
0
CIRCLE
8
PIPE_ENDS
10
-1757.005
20
9928.279227
30
0
40
32
0
CIRCLE
8
PIPE_ENDS
10
242.995
20
9928.279227
30
0
40
32
0
CIRCLE
8
PIPE_ENDS
10
1242.995
20
10428.279227
30
0
40
32
0
CIRCLE
8
PIPE_ENDS
10
-2757.005
20
10428.279227
30
0
40
32
0
CIRCLE
8
PIPE_ENDS
10
-1757.005
20
10428.279227
30
0
40
32
0
CIRCLE
8
PIPE_ENDS
10
242.995
20
10428.279227
30
0
40
32
0
LINE
8
LEVEL_GUIDE
6
DASHED
10
-2937.005
20
-9571.720773
30
0
11
1423.005
21
-9571.720773
31
0
0
LINE
8
LEVEL_GUIDE
6
DASHED
10
-2937.005
20
-9271.720773
30
0
11
1423.005
21
-9271.720773
31
0
0
LINE
8
LEVEL_GUIDE
6
DASHED
10
-2937.005
20
-7571.720773
30
0
11
1423.005
21
-7571.720773
31
0
0
LINE
8
LEVEL_GUIDE
6
DASHED
10
-2937.005
20
-5571.720773
30
0
11
1423.005
21
-5571.720773
31
0
0
LINE
8
LEVEL_GUIDE
6
DASHED
10
-2937.005
20
-3571.710773
30
0
11
1423.005
21
-3571.710773
31
0
0
LINE
8
LEVEL_GUIDE
6
DASHED
10
-2937.005
20
-1571.710773
30
0
11
1423.005
21
-1571.710773
31
0
0
LINE
8
LEVEL_GUIDE
6
DASHED
10
-2937.005
20
428.279227
30
0
11
1423.005
21
428.279227
31
0
0
LINE
8
LEVEL_GUIDE
6
DASHED
10
-2937.005
20
2428.279227
30
0
11
1423.005
21
2428.279227
31
0
0
LINE
8
LEVEL_GUIDE
6
DASHED
10
-2937.005
20
4428.279227
30
0
11
1423.005
21
4428.279227
31
0
0
LINE
8
LEVEL_GUIDE
6
DASHED
10
-2937.005
20
6428.279227
30
0
11
1423.005
21
6428.279227
31
0
0
LINE
8
LEVEL_GUIDE
6
DASHED
10
-2937.005
20
10428.279227
30
0
11
1423.005
21
10428.279227
31
0
0
LINE
8
DIMENSION
10
-2757.005
20
-9631.720773
30
0
11
-2757.005
21
-9951.720773
31
0
0
LINE
8
DIMENSION
10
-1757.005
20
-9631.720773
30
0
11
-1757.005
21
-9951.720773
31
0
0
LINE
8
DIMENSION
10
-2757.005
20
-9951.720773
30
0
11
-1757.005
21
-9951.720773
31
0
0
LINE
8
DIMENSION
10
-2757.005
20
-9951.720773
30
0
11
-2820.446545
21
-9922.137494
31
0
0
LINE
8
DIMENSION
10
-2757.005
20
-9951.720773
30
0
11
-2820.446545
21
-9981.304051
31
0
0
LINE
8
DIMENSION
10
-1757.005
20
-9951.720773
30
0
11
-1693.563455
21
-9981.304051
31
0
0
LINE
8
DIMENSION
10
-1757.005
20
-9951.720773
30
0
11
-1693.563455
21
-9922.137494
31
0
0
TEXT
8
DIMENSION
10
-2257.005
20
-10121.720773
30
0
40
85
1
1
50
0
7
STANDARD
72
1
73
2
11
-2257.005
21
-10121.720773
31
0
0
LINE
8
DIMENSION
10
-1757.005
20
-9631.720773
30
0
11
-1757.005
21
-9951.720773
31
0
0
LINE
8
DIMENSION
10
-757.005
20
-9631.720773
30
0
11
-757.005
21
-9951.720773
31
0
0
LINE
8
DIMENSION
10
-1757.005
20
-9951.720773
30
0
11
-757.005
21
-9951.720773
31
0
0
LINE
8
DIMENSION
10
-1757.005
20
-9951.720773
30
0
11
-1820.446545
21
-9922.137494
31
0
0
LINE
8
DIMENSION
10
-1757.005
20
-9951.720773
30
0
11
-1820.446545
21
-9981.304051
31
0
0
LINE
8
DIMENSION
10
-757.005
20
-9951.720773
30
0
11
-693.563455
21
-9981.304051
31
0
0
LINE
8
DIMENSION
10
-757.005
20
-9951.720773
30
0
11
-693.563455
21
-9922.137494
31
0
0
TEXT
8
DIMENSION
10
-1257.005
20
-10121.720773
30
0
40
85
1
1
50
0
7
STANDARD
72
1
73
2
11
-1257.005
21
-10121.720773
31
0
0
LINE
8
DIMENSION
10
-757.005
20
-9631.720773
30
0
11
-757.005
21
-9951.720773
31
0
0
LINE
8
DIMENSION
10
243.005
20
-9631.720773
30
0
11
243.005
21
-9951.720773
31
0
0
LINE
8
DIMENSION
10
-757.005
20
-9951.720773
30
0
11
243.005
21
-9951.720773
31
0
0
LINE
8
DIMENSION
10
-757.005
20
-9951.720773
30
0
11
-820.446545
21
-9922.137494
31
0
0
LINE
8
DIMENSION
10
-757.005
20
-9951.720773
30
0
11
-820.446545
21
-9981.304051
31
0
0
LINE
8
DIMENSION
10
243.005
20
-9951.720773
30
0
11
306.446545
21
-9981.304051
31
0
0
LINE
8
DIMENSION
10
243.005
20
-9951.720773
30
0
11
306.446545
21
-9922.137494
31
0
0
TEXT
8
DIMENSION
10
-257
20
-10121.720773
30
0
40
85
1
1
50
0
7
STANDARD
72
1
73
2
11
-257
21
-10121.720773
31
0
0
LINE
8
DIMENSION
10
243.005
20
-9631.720773
30
0
11
243.005
21
-9951.720773
31
0
0
LINE
8
DIMENSION
10
1243.005
20
-9631.720773
30
0
11
1243.005
21
-9951.720773
31
0
0
LINE
8
DIMENSION
10
243.005
20
-9951.720773
30
0
11
1243.005
21
-9951.720773
31
0
0
LINE
8
DIMENSION
10
243.005
20
-9951.720773
30
0
11
179.563455
21
-9922.137494
31
0
0
LINE
8
DIMENSION
10
243.005
20
-9951.720773
30
0
11
179.563455
21
-9981.304051
31
0
0
LINE
8
DIMENSION
10
1243.005
20
-9951.720773
30
0
11
1306.446545
21
-9981.304051
31
0
0
LINE
8
DIMENSION
10
1243.005
20
-9951.720773
30
0
11
1306.446545
21
-9922.137494
31
0
0
TEXT
8
DIMENSION
10
743.005
20
-10121.720773
30
0
40
85
1
1
50
0
7
STANDARD
72
1
73
2
11
743.005
21
-10121.720773
31
0
0
LINE
8
DIMENSION
10
-2757.005
20
-9631.720773
30
0
11
-2757.005
21
-10321.720773
31
0
0
LINE
8
DIMENSION
10
1243.005
20
-9631.720773
30
0
11
1243.005
21
-10321.720773
31
0
0
LINE
8
DIMENSION
10
-2757.005
20
-10321.720773
30
0
11
1243.005
21
-10321.720773
31
0
0
LINE
8
DIMENSION
10
-2757.005
20
-10321.720773
30
0
11
-2820.446545
21
-10292.137494
31
0
0
LINE
8
DIMENSION
10
-2757.005
20
-10321.720773
30
0
11
-2820.446545
21
-10351.304051
31
0
0
LINE
8
DIMENSION
10
1243.005
20
-10321.720773
30
0
11
1306.446545
21
-10351.304051
31
0
0
LINE
8
DIMENSION
10
1243.005
20
-10321.720773
30
0
11
1306.446545
21
-10292.137494
31
0
0
TEXT
8
DIMENSION
10
-757
20
-10491.720773
30
0
40
85
1
TOTAL 4
50
0
7
STANDARD
72
1
73
2
11
-757
21
-10491.720773
31
0
0
LINE
8
DIMENSION
10
1303.005
20
-9571.720773
30
0
11
1943.005
21
-9571.720773
31
0
0
LINE
8
DIMENSION
10
1303.005
20
-9271.720773
30
0
11
1943.005
21
-9271.720773
31
0
0
LINE
8
DIMENSION
10
1943.005
20
-9571.720773
30
0
11
1943.005
21
-9271.720773
31
0
0
LINE
8
DIMENSION
10
1943.005
20
-9571.720773
30
0
11
1913.421722
21
-9635.162318
31
0
0
LINE
8
DIMENSION
10
1943.005
20
-9571.720773
30
0
11
1972.588278
21
-9635.162318
31
0
0
LINE
8
DIMENSION
10
1943.005
20
-9271.720773
30
0
11
1972.588278
21
-9208.279227
31
0
0
LINE
8
DIMENSION
10
1943.005
20
-9271.720773
30
0
11
1913.421722
21
-9208.279227
31
0
0
TEXT
8
DIMENSION
10
2113.005
20
-9421.720773
30
0
40
85
1
0.3
50
90
7
STANDARD
72
1
73
2
11
2113.005
21
-9421.720773
31
0
0
LINE
8
DIMENSION
10
1303.005
20
-9271.720773
30
0
11
1943.005
21
-9271.720773
31
0
0
LINE
8
DIMENSION
10
1303.005
20
-7571.720773
30
0
11
1943.005
21
-7571.720773
31
0
0
LINE
8
DIMENSION
10
1943.005
20
-9271.720773
30
0
11
1943.005
21
-7571.720773
31
0
0
LINE
8
DIMENSION
10
1943.005
20
-9271.720773
30
0
11
1913.421722
21
-9335.162318
31
0
0
LINE
8
DIMENSION
10
1943.005
20
-9271.720773
30
0
11
1972.588278
21
-9335.162318
31
0
0
LINE
8
DIMENSION
10
1943.005
20
-7571.720773
30
0
11
1972.588278
21
-7508.279227
31
0
0
LINE
8
DIMENSION
10
1943.005
20
-7571.720773
30
0
11
1913.421722
21
-7508.279227
31
0
0
TEXT
8
DIMENSION
10
2113.005
20
-8421.720773
30
0
40
85
1
1.7
50
90
7
STANDARD
72
1
73
2
11
2113.005
21
-8421.720773
31
0
0
LINE
8
DIMENSION
10
1303.005
20
-7571.720773
30
0
11
1943.005
21
-7571.720773
31
0
0
LINE
8
DIMENSION
10
1303.005
20
-5571.720773
30
0
11
1943.005
21
-5571.720773
31
0
0
LINE
8
DIMENSION
10
1943.005
20
-7571.720773
30
0
11
1943.005
21
-5571.720773
31
0
0
LINE
8
DIMENSION
10
1943.005
20
-7571.720773
30
0
11
1913.421722
21
-7635.162318
31
0
0
LINE
8
DIMENSION
10
1943.005
20
-7571.720773
30
0
11
1972.588278
21
-7635.162318
31
0
0
LINE
8
DIMENSION
10
1943.005
20
-5571.720773
30
0
11
1972.588278
21
-5508.279227
31
0
0
LINE
8
DIMENSION
10
1943.005
20
-5571.720773
30
0
11
1913.421722
21
-5508.279227
31
0
0
TEXT
8
DIMENSION
10
2113.005
20
-6571.720773
30
0
40
85
1
2
50
90
7
STANDARD
72
1
73
2
11
2113.005
21
-6571.720773
31
0
0
LINE
8
DIMENSION
10
1303.005
20
-5571.720773
30
0
11
1943.005
21
-5571.720773
31
0
0
LINE
8
DIMENSION
10
1303.005
20
-3571.710773
30
0
11
1943.005
21
-3571.710773
31
0
0
LINE
8
DIMENSION
10
1943.005
20
-5571.720773
30
0
11
1943.005
21
-3571.710773
31
0
0
LINE
8
DIMENSION
10
1943.005
20
-5571.720773
30
0
11
1913.421722
21
-5635.162318
31
0
0
LINE
8
DIMENSION
10
1943.005
20
-5571.720773
30
0
11
1972.588278
21
-5635.162318
31
0
0
LINE
8
DIMENSION
10
1943.005
20
-3571.710773
30
0
11
1972.588278
21
-3508.269227
31
0
0
LINE
8
DIMENSION
10
1943.005
20
-3571.710773
30
0
11
1913.421722
21
-3508.269227
31
0
0
TEXT
8
DIMENSION
10
2113.005
20
-4571.715773
30
0
40
85
1
2
50
90
7
STANDARD
72
1
73
2
11
2113.005
21
-4571.715773
31
0
0
LINE
8
DIMENSION
10
1303.005
20
-3571.710773
30
0
11
1943.005
21
-3571.710773
31
0
0
LINE
8
DIMENSION
10
1303.005
20
-1571.710773
30
0
11
1943.005
21
-1571.710773
31
0
0
LINE
8
DIMENSION
10
1943.005
20
-3571.710773
30
0
11
1943.005
21
-1571.710773
31
0
0
LINE
8
DIMENSION
10
1943.005
20
-3571.710773
30
0
11
1913.421722
21
-3635.152318
31
0
0
LINE
8
DIMENSION
10
1943.005
20
-3571.710773
30
0
11
1972.588278
21
-3635.152318
31
0
0
LINE
8
DIMENSION
10
1943.005
20
-1571.710773
30
0
11
1972.588278
21
-1508.269227
31
0
0
LINE
8
DIMENSION
10
1943.005
20
-1571.710773
30
0
11
1913.421722
21
-1508.269227
31
0
0
TEXT
8
DIMENSION
10
2113.005
20
-2571.710773
30
0
40
85
1
2
50
90
7
STANDARD
72
1
73
2
11
2113.005
21
-2571.710773
31
0
0
LINE
8
DIMENSION
10
1303.005
20
-1571.710773
30
0
11
1943.005
21
-1571.710773
31
0
0
LINE
8
DIMENSION
10
1303.005
20
428.279227
30
0
11
1943.005
21
428.279227
31
0
0
LINE
8
DIMENSION
10
1943.005
20
-1571.710773
30
0
11
1943.005
21
428.279227
31
0
0
LINE
8
DIMENSION
10
1943.005
20
-1571.710773
30
0
11
1913.421722
21
-1635.152318
31
0
0
LINE
8
DIMENSION
10
1943.005
20
-1571.710773
30
0
11
1972.588278
21
-1635.152318
31
0
0
LINE
8
DIMENSION
10
1943.005
20
428.279227
30
0
11
1972.588278
21
491.720773
31
0
0
LINE
8
DIMENSION
10
1943.005
20
428.279227
30
0
11
1913.421722
21
491.720773
31
0
0
TEXT
8
DIMENSION
10
2113.005
20
-571.715773
30
0
40
85
1
2
50
90
7
STANDARD
72
1
73
2
11
2113.005
21
-571.715773
31
0
0
LINE
8
DIMENSION
10
1303.005
20
428.279227
30
0
11
1943.005
21
428.279227
31
0
0
LINE
8
DIMENSION
10
1303.005
20
2428.279227
30
0
11
1943.005
21
2428.279227
31
0
0
LINE
8
DIMENSION
10
1943.005
20
428.279227
30
0
11
1943.005
21
2428.279227
31
0
0
LINE
8
DIMENSION
10
1943.005
20
428.279227
30
0
11
1913.421722
21
364.837682
31
0
0
LINE
8
DIMENSION
10
1943.005
20
428.279227
30
0
11
1972.588278
21
364.837682
31
0
0
LINE
8
DIMENSION
10
1943.005
20
2428.279227
30
0
11
1972.588278
21
2491.720773
31
0
0
LINE
8
DIMENSION
10
1943.005
20
2428.279227
30
0
11
1913.421722
21
2491.720773
31
0
0
TEXT
8
DIMENSION
10
2113.005
20
1428.279227
30
0
40
85
1
2
50
90
7
STANDARD
72
1
73
2
11
2113.005
21
1428.279227
31
0
0
LINE
8
DIMENSION
10
1303.005
20
2428.279227
30
0
11
1943.005
21
2428.279227
31
0
0
LINE
8
DIMENSION
10
1303.005
20
4428.279227
30
0
11
1943.005
21
4428.279227
31
0
0
LINE
8
DIMENSION
10
1943.005
20
2428.279227
30
0
11
1943.005
21
4428.279227
31
0
0
LINE
8
DIMENSION
10
1943.005
20
2428.279227
30
0
11
1913.421722
21
2364.837682
31
0
0
LINE
8
DIMENSION
10
1943.005
20
2428.279227
30
0
11
1972.588278
21
2364.837682
31
0
0
LINE
8
DIMENSION
10
1943.005
20
4428.279227
30
0
11
1972.588278
21
4491.720773
31
0
0
LINE
8
DIMENSION
10
1943.005
20
4428.279227
30
0
11
1913.421722
21
4491.720773
31
0
0
TEXT
8
DIMENSION
10
2113.005
20
3428.279227
30
0
40
85
1
2
50
90
7
STANDARD
72
1
73
2
11
2113.005
21
3428.279227
31
0
0
LINE
8
DIMENSION
10
1303.005
20
4428.279227
30
0
11
1943.005
21
4428.279227
31
0
0
LINE
8
DIMENSION
10
1303.005
20
6428.279227
30
0
11
1943.005
21
6428.279227
31
0
0
LINE
8
DIMENSION
10
1943.005
20
4428.279227
30
0
11
1943.005
21
6428.279227
31
0
0
LINE
8
DIMENSION
10
1943.005
20
4428.279227
30
0
11
1913.421722
21
4364.837682
31
0
0
LINE
8
DIMENSION
10
1943.005
20
4428.279227
30
0
11
1972.588278
21
4364.837682
31
0
0
LINE
8
DIMENSION
10
1943.005
20
6428.279227
30
0
11
1972.588278
21
6491.720773
31
0
0
LINE
8
DIMENSION
10
1943.005
20
6428.279227
30
0
11
1913.421722
21
6491.720773
31
0
0
TEXT
8
DIMENSION
10
2113.005
20
5428.279227
30
0
40
85
1
2
50
90
7
STANDARD
72
1
73
2
11
2113.005
21
5428.279227
31
0
0
LINE
8
DIMENSION
10
1303.005
20
6428.279227
30
0
11
1943.005
21
6428.279227
31
0
0
LINE
8
DIMENSION
10
1303.005
20
10428.279227
30
0
11
1943.005
21
10428.279227
31
0
0
LINE
8
DIMENSION
10
1943.005
20
6428.279227
30
0
11
1943.005
21
10428.279227
31
0
0
LINE
8
DIMENSION
10
1943.005
20
6428.279227
30
0
11
1913.421722
21
6364.837682
31
0
0
LINE
8
DIMENSION
10
1943.005
20
6428.279227
30
0
11
1972.588278
21
6364.837682
31
0
0
LINE
8
DIMENSION
10
1943.005
20
10428.279227
30
0
11
1972.588278
21
10491.720773
31
0
0
LINE
8
DIMENSION
10
1943.005
20
10428.279227
30
0
11
1913.421722
21
10491.720773
31
0
0
TEXT
8
DIMENSION
10
2113.005
20
8428.279227
30
0
40
85
1
4
50
90
7
STANDARD
72
1
73
2
11
2113.005
21
8428.279227
31
0
0
LINE
8
DIMENSION
10
1303.005
20
-9571.720773
30
0
11
2393.005
21
-9571.720773
31
0
0
LINE
8
DIMENSION
10
1303.005
20
10428.279227
30
0
11
2393.005
21
10428.279227
31
0
0
LINE
8
DIMENSION
10
2393.005
20
-9571.720773
30
0
11
2393.005
21
10428.279227
31
0
0
LINE
8
DIMENSION
10
2393.005
20
-9571.720773
30
0
11
2363.421722
21
-9635.162318
31
0
0
LINE
8
DIMENSION
10
2393.005
20
-9571.720773
30
0
11
2422.588278
21
-9635.162318
31
0
0
LINE
8
DIMENSION
10
2393.005
20
10428.279227
30
0
11
2422.588278
21
10491.720773
31
0
0
LINE
8
DIMENSION
10
2393.005
20
10428.279227
30
0
11
2363.421722
21
10491.720773
31
0
0
TEXT
8
DIMENSION
10
2563.005
20
428.279227
30
0
40
85
1
TOTAL 20
50
90
7
STANDARD
72
1
73
2
11
2563.005
21
428.279227
31
0
0
ENDSEC
0
EOF
