0
SECTION
2
HEADER
9
$ACADVER
1
AC1009
9
$INSUNITS
70
4
0
ENDSEC
0
SECTION
2
TABLES
0
TABLE
2
LTYPE
70
2
0
LTYPE
2
CONTINUOUS
70
0
3
Solid
72
65
73
0
40
0
0
LTYPE
2
DASHED
70
0
3
Dashed
72
65
73
2
40
240
49
120
74
0
49
-120
74
0
0
ENDTAB
0
TABLE
2
LAYER
70
5
0
LAYER
2
PIPES
70
0
62
1
6
CONTINUOUS
0
LAYER
2
GRIDLINE
70
0
62
5
6
DASHED
0
LAYER
2
DIMENSION
70
0
62
5
6
CONTINUOUS
0
LAYER
2
BUBBLE
70
0
62
1
6
CONTINUOUS
0
LAYER
2
TIE
70
0
62
6
6
CONTINUOUS
0
ENDTAB
0
ENDSEC
0
SECTION
2
ENTITIES

0
LINE
8
PIPES
6
CONTINUOUS
10
-5705
20
-1975
30
0
11
-5705
21
-975
31
0
0
LINE
8
PIPES
6
CONTINUOUS
10
-5705
20
-975
30
0
11
-5705
21
25
31
0
0
LINE
8
PIPES
6
CONTINUOUS
10
-5705
20
25
30
0
11
-5705
21
1025.01
31
0
0
LINE
8
PIPES
6
CONTINUOUS
10
-5705
20
1025.01
30
0
11
-5705
21
2025.01
31
0
0
LINE
8
PIPES
6
CONTINUOUS
10
-5705
20
2025.01
30
0
11
-4705
21
2025.01
31
0
0
LINE
8
PIPES
6
CONTINUOUS
10
-4705
20
2025.01
30
0
11
-4705
21
1025.01
31
0
0
LINE
8
PIPES
6
CONTINUOUS
10
-4705
20
1025.01
30
0
11
-5705
21
1025.01
31
0
0
LINE
8
PIPES
6
CONTINUOUS
10
-4705
20
1025.01
30
0
11
-4705
21
25
31
0
0
LINE
8
PIPES
6
CONTINUOUS
10
-4705
20
25
30
0
11
-5705
21
25
31
0
0
LINE
8
PIPES
6
CONTINUOUS
10
-4705
20
25
30
0
11
-4705
21
-975
31
0
0
LINE
8
PIPES
6
CONTINUOUS
10
-4705
20
-975
30
0
11
-5705
21
-975
31
0
0
LINE
8
PIPES
6
CONTINUOUS
10
-4705
20
-975
30
0
11
-4705
21
-1975
31
0
0
LINE
8
PIPES
6
CONTINUOUS
10
-4705
20
-1975
30
0
11
-5705
21
-1975
31
0
0
LINE
8
PIPES
6
CONTINUOUS
10
-4705
20
-1975
30
0
11
-3205
21
-1975
31
0
0
LINE
8
PIPES
6
CONTINUOUS
10
-3205
20
-1975
30
0
11
-3205
21
-975
31
0
0
LINE
8
PIPES
6
CONTINUOUS
10
-3205
20
-975
30
0
11
-4705
21
-975
31
0
0
LINE
8
PIPES
6
CONTINUOUS
10
-3205
20
-975
30
0
11
-1704.99
21
-975
31
0
0
LINE
8
PIPES
6
CONTINUOUS
10
-1704.99
20
-975
30
0
11
-1704.99
21
-1975
31
0
0
LINE
8
PIPES
6
CONTINUOUS
10
-1704.99
20
-1975
30
0
11
-3205
21
-1975
31
0
0
LINE
8
PIPES
6
CONTINUOUS
10
-1704.99
20
-1975
30
0
11
-704.99
21
-1975
31
0
0
LINE
8
PIPES
6
CONTINUOUS
10
-704.99
20
-1975
30
0
11
-704.99
21
-975
31
0
0
LINE
8
PIPES
6
CONTINUOUS
10
-704.99
20
-975
30
0
11
-1704.99
21
-975
31
0
0
LINE
8
PIPES
6
CONTINUOUS
10
-1704.99
20
-975
30
0
11
-1704.99
21
25
31
0
0
LINE
8
PIPES
6
CONTINUOUS
10
-1704.99
20
25
30
0
11
-704.99
21
25
31
0
0
LINE
8
PIPES
6
CONTINUOUS
10
-704.99
20
25
30
0
11
-704.99
21
1025.01
31
0
0
LINE
8
PIPES
6
CONTINUOUS
10
-704.99
20
1025.01
30
0
11
-704.99
21
2025.01
31
0
0
LINE
8
PIPES
6
CONTINUOUS
10
-704.99
20
2025.01
30
0
11
-1704.99
21
2025.01
31
0
0
LINE
8
PIPES
6
CONTINUOUS
10
-1704.99
20
2025.01
30
0
11
-1704.99
21
1025.01
31
0
0
LINE
8
PIPES
6
CONTINUOUS
10
-1704.99
20
1025.01
30
0
11
-3205
21
1025.01
31
0
0
LINE
8
PIPES
6
CONTINUOUS
10
-3205
20
1025.01
30
0
11
-3205
21
2025.01
31
0
0
LINE
8
PIPES
6
CONTINUOUS
10
-3205
20
2025.01
30
0
11
-1704.99
21
2025.01
31
0
0
LINE
8
PIPES
6
CONTINUOUS
10
-1704.99
20
1025.01
30
0
11
-704.99
21
1025.01
31
0
0
LINE
8
PIPES
6
CONTINUOUS
10
-1704.99
20
1025.01
30
0
11
-1704.99
21
25
31
0
0
LINE
8
PIPES
6
CONTINUOUS
10
-704.99
20
25
30
0
11
-704.99
21
-975
31
0
0
LINE
8
PIPES
6
CONTINUOUS
10
-3205
20
2025.01
30
0
11
-4705
21
2025.01
31
0
0
LINE
8
PIPES
6
CONTINUOUS
10
-4705
20
1025.01
30
0
11
-3205
21
1025.01
31
0
0
CIRCLE
8
BUBBLE
10
-5705
20
2465
30
0
40
120
0
TEXT
8
BUBBLE
10
-5705
20
2465
30
0
40
90
1
A
50
0
0
CIRCLE
8
BUBBLE
10
-4705
20
2465
30
0
40
120
0
TEXT
8
BUBBLE
10
-4705
20
2465
30
0
40
90
1
B
50
0
0
CIRCLE
8
BUBBLE
10
-3205
20
2465
30
0
40
120
0
TEXT
8
BUBBLE
10
-3205
20
2465
30
0
40
90
1
C
50
0
0
CIRCLE
8
BUBBLE
10
-1705
20
2465
30
0
40
120
0
TEXT
8
BUBBLE
10
-1705
20
2465
30
0
40
90
1
D
50
0
0
CIRCLE
8
BUBBLE
10
-705
20
2465
30
0
40
120
0
TEXT
8
BUBBLE
10
-705
20
2465
30
0
40
90
1
E
50
0
0
CIRCLE
8
BUBBLE
10
-6145
20
-1975
30
0
40
120
0
TEXT
8
BUBBLE
10
-6145
20
-1975
30
0
40
90
1
1
50
0
0
CIRCLE
8
BUBBLE
10
-6145
20
-975
30
0
40
120
0
TEXT
8
BUBBLE
10
-6145
20
-975
30
0
40
90
1
2
50
0
0
CIRCLE
8
BUBBLE
10
-6145
20
25
30
0
40
120
0
TEXT
8
BUBBLE
10
-6145
20
25
30
0
40
90
1
3
50
0
0
CIRCLE
8
BUBBLE
10
-6145
20
1025
30
0
40
120
0
TEXT
8
BUBBLE
10
-6145
20
1025
30
0
40
90
1
4
50
0
0
CIRCLE
8
BUBBLE
10
-6145
20
2025
30
0
40
120
0
TEXT
8
BUBBLE
10
-6145
20
2025
30
0
40
90
1
5
50
0
0
LINE
8
DIMENSION
6
CONTINUOUS
10
-5705
20
2085
30
0
11
-5705
21
2245
31
0
0
LINE
8
DIMENSION
6
CONTINUOUS
10
-4705
20
2085
30
0
11
-4705
21
2245
31
0
0
LINE
8
DIMENSION
6
CONTINUOUS
10
-5705
20
2245
30
0
11
-4705
21
2245
31
0
0
LINE
8
DIMENSION
6
CONTINUOUS
10
-5705
20
2245
30
0
11
-5756.9615
21
2275
31
0
0
LINE
8
DIMENSION
6
CONTINUOUS
10
-5705
20
2245
30
0
11
-5756.9615
21
2215
31
0
0
LINE
8
DIMENSION
6
CONTINUOUS
10
-4705
20
2245
30
0
11
-4653.0385
21
2215
31
0
0
LINE
8
DIMENSION
6
CONTINUOUS
10
-4705
20
2245
30
0
11
-4653.0385
21
2275
31
0
0
TEXT
8
DIMENSION
10
-5205
20
2415
30
0
40
70
1
1000
50
0
0
LINE
8
DIMENSION
6
CONTINUOUS
10
-4705
20
2085
30
0
11
-4705
21
2245
31
0
0
LINE
8
DIMENSION
6
CONTINUOUS
10
-3205
20
2085
30
0
11
-3205
21
2245
31
0
0
LINE
8
DIMENSION
6
CONTINUOUS
10
-4705
20
2245
30
0
11
-3205
21
2245
31
0
0
LINE
8
DIMENSION
6
CONTINUOUS
10
-4705
20
2245
30
0
11
-4756.9615
21
2275
31
0
0
LINE
8
DIMENSION
6
CONTINUOUS
10
-4705
20
2245
30
0
11
-4756.9615
21
2215
31
0
0
LINE
8
DIMENSION
6
CONTINUOUS
10
-3205
20
2245
30
0
11
-3153.0385
21
2215
31
0
0
LINE
8
DIMENSION
6
CONTINUOUS
10
-3205
20
2245
30
0
11
-3153.0385
21
2275
31
0
0
TEXT
8
DIMENSION
10
-3955
20
2415
30
0
40
70
1
1500
50
0
0
LINE
8
DIMENSION
6
CONTINUOUS
10
-3205
20
2085
30
0
11
-3205
21
2245
31
0
0
LINE
8
DIMENSION
6
CONTINUOUS
10
-1705
20
2085
30
0
11
-1705
21
2245
31
0
0
LINE
8
DIMENSION
6
CONTINUOUS
10
-3205
20
2245
30
0
11
-1705
21
2245
31
0
0
LINE
8
DIMENSION
6
CONTINUOUS
10
-3205
20
2245
30
0
11
-3256.9615
21
2275
31
0
0
LINE
8
DIMENSION
6
CONTINUOUS
10
-3205
20
2245
30
0
11
-3256.9615
21
2215
31
0
0
LINE
8
DIMENSION
6
CONTINUOUS
10
-1705
20
2245
30
0
11
-1653.0385
21
2215
31
0
0
LINE
8
DIMENSION
6
CONTINUOUS
10
-1705
20
2245
30
0
11
-1653.0385
21
2275
31
0
0
TEXT
8
DIMENSION
10
-2455
20
2415
30
0
40
70
1
1500
50
0
0
LINE
8
DIMENSION
6
CONTINUOUS
10
-1705
20
2085
30
0
11
-1705
21
2245
31
0
0
LINE
8
DIMENSION
6
CONTINUOUS
10
-705
20
2085
30
0
11
-705
21
2245
31
0
0
LINE
8
DIMENSION
6
CONTINUOUS
10
-1705
20
2245
30
0
11
-705
21
2245
31
0
0
LINE
8
DIMENSION
6
CONTINUOUS
10
-1705
20
2245
30
0
11
-1756.9615
21
2275
31
0
0
LINE
8
DIMENSION
6
CONTINUOUS
10
-1705
20
2245
30
0
11
-1756.9615
21
2215
31
0
0
LINE
8
DIMENSION
6
CONTINUOUS
10
-705
20
2245
30
0
11
-653.0385
21
2215
31
0
0
LINE
8
DIMENSION
6
CONTINUOUS
10
-705
20
2245
30
0
11
-653.0385
21
2275
31
0
0
TEXT
8
DIMENSION
10
-1205
20
2415
30
0
40
70
1
1000
50
0
0
LINE
8
DIMENSION
6
CONTINUOUS
10
-5765
20
-1975
30
0
11
-5925
21
-1975
31
0
0
LINE
8
DIMENSION
6
CONTINUOUS
10
-5765
20
-975
30
0
11
-5925
21
-975
31
0
0
LINE
8
DIMENSION
6
CONTINUOUS
10
-5925
20
-1975
30
0
11
-5925
21
-975
31
0
0
LINE
8
DIMENSION
6
CONTINUOUS
10
-5925
20
-1975
30
0
11
-5955
21
-2026.9615
31
0
0
LINE
8
DIMENSION
6
CONTINUOUS
10
-5925
20
-1975
30
0
11
-5895
21
-2026.9615
31
0
0
LINE
8
DIMENSION
6
CONTINUOUS
10
-5925
20
-975
30
0
11
-5895
21
-923.0385
31
0
0
LINE
8
DIMENSION
6
CONTINUOUS
10
-5925
20
-975
30
0
11
-5955
21
-923.0385
31
0
0
TEXT
8
DIMENSION
10
-6095
20
-1475
30
0
40
70
1
1000
50
90
0
LINE
8
DIMENSION
6
CONTINUOUS
10
-5765
20
-975
30
0
11
-5925
21
-975
31
0
0
LINE
8
DIMENSION
6
CONTINUOUS
10
-5765
20
25
30
0
11
-5925
21
25
31
0
0
LINE
8
DIMENSION
6
CONTINUOUS
10
-5925
20
-975
30
0
11
-5925
21
25
31
0
0
LINE
8
DIMENSION
6
CONTINUOUS
10
-5925
20
-975
30
0
11
-5955
21
-1026.9615
31
0
0
LINE
8
DIMENSION
6
CONTINUOUS
10
-5925
20
-975
30
0
11
-5895
21
-1026.9615
31
0
0
LINE
8
DIMENSION
6
CONTINUOUS
10
-5925
20
25
30
0
11
-5895
21
76.9615
31
0
0
LINE
8
DIMENSION
6
CONTINUOUS
10
-5925
20
25
30
0
11
-5955
21
76.9615
31
0
0
TEXT
8
DIMENSION
10
-6095
20
-475
30
0
40
70
1
1000
50
90
0
LINE
8
DIMENSION
6
CONTINUOUS
10
-5765
20
25
30
0
11
-5925
21
25
31
0
0
LINE
8
DIMENSION
6
CONTINUOUS
10
-5765
20
1025
30
0
11
-5925
21
1025
31
0
0
LINE
8
DIMENSION
6
CONTINUOUS
10
-5925
20
25
30
0
11
-5925
21
1025
31
0
0
LINE
8
DIMENSION
6
CONTINUOUS
10
-5925
20
25
30
0
11
-5955
21
-26.9615
31
0
0
LINE
8
DIMENSION
6
CONTINUOUS
10
-5925
20
25
30
0
11
-5895
21
-26.9615
31
0
0
LINE
8
DIMENSION
6
CONTINUOUS
10
-5925
20
1025
30
0
11
-5895
21
1076.9615
31
0
0
LINE
8
DIMENSION
6
CONTINUOUS
10
-5925
20
1025
30
0
11
-5955
21
1076.9615
31
0
0
TEXT
8
DIMENSION
10
-6095
20
525
30
0
40
70
1
1000
50
90
0
LINE
8
DIMENSION
6
CONTINUOUS
10
-5765
20
1025
30
0
11
-5925
21
1025
31
0
0
LINE
8
DIMENSION
6
CONTINUOUS
10
-5765
20
2025
30
0
11
-5925
21
2025
31
0
0
LINE
8
DIMENSION
6
CONTINUOUS
10
-5925
20
1025
30
0
11
-5925
21
2025
31
0
0
LINE
8
DIMENSION
6
CONTINUOUS
10
-5925
20
1025
30
0
11
-5955
21
973.0385
31
0
0
LINE
8
DIMENSION
6
CONTINUOUS
10
-5925
20
1025
30
0
11
-5895
21
973.0385
31
0
0
LINE
8
DIMENSION
6
CONTINUOUS
10
-5925
20
2025
30
0
11
-5895
21
2076.9615
31
0
0
LINE
8
DIMENSION
6
CONTINUOUS
10
-5925
20
2025
30
0
11
-5955
21
2076.9615
31
0
0
TEXT
8
DIMENSION
10
-6095
20
1525
30
0
40
70
1
1000
50
90
0
TEXT
8
DIMENSION
10
-3205
20
-2425
30
0
40
70
1
PLAN VIEW TYPICAL FOR
50
0
0
TEXT
8
DIMENSION
10
-3205
20
-2585
30
0
40
70
1
LEVELS 1, 2, 3, 4, 7, 8, 9, 12, 13, 14, 17, 18, 19, 22, 23 & 24
50
0
0
LINE
8
PIPES
6
CONTINUOUS
10
1145
20
-1975
30
0
11
1145
21
-975
31
0
0
LINE
8
PIPES
6
CONTINUOUS
10
1145
20
-975
30
0
11
1145
21
25
31
0
0
LINE
8
PIPES
6
CONTINUOUS
10
1145
20
25
30
0
11
1145
21
1025.01
31
0
0
LINE
8
PIPES
6
CONTINUOUS
10
1145
20
1025.01
30
0
11
1145
21
2025.01
31
0
0
LINE
8
PIPES
6
CONTINUOUS
10
1145
20
2025.01
30
0
11
2145
21
2025.01
31
0
0
LINE
8
PIPES
6
CONTINUOUS
10
2145
20
1025.01
30
0
11
2145
21
25
31
0
0
LINE
8
PIPES
6
CONTINUOUS
10
2145
20
25
30
0
11
2145
21
-975
31
0
0
LINE
8
PIPES
6
CONTINUOUS
10
2145
20
-1975
30
0
11
1145
21
-1975
31
0
0
LINE
8
PIPES
6
CONTINUOUS
10
2145
20
-1975
30
0
11
3645
21
-1975
31
0
0
LINE
8
PIPES
6
CONTINUOUS
10
3645
20
-975
30
0
11
2145
21
-975
31
0
0
LINE
8
PIPES
6
CONTINUOUS
10
3645
20
-975
30
0
11
5145.01
21
-975
31
0
0
LINE
8
PIPES
6
CONTINUOUS
10
5145.01
20
-1975
30
0
11
3645
21
-1975
31
0
0
LINE
8
PIPES
6
CONTINUOUS
10
5145.01
20
-1975
30
0
11
6145.01
21
-1975
31
0
0
LINE
8
PIPES
6
CONTINUOUS
10
6145.01
20
-1975
30
0
11
6145.01
21
-975
31
0
0
LINE
8
PIPES
6
CONTINUOUS
10
5145.01
20
-975
30
0
11
5145.01
21
25
31
0
0
LINE
8
PIPES
6
CONTINUOUS
10
6145.01
20
25
30
0
11
6145.01
21
1025.01
31
0
0
LINE
8
PIPES
6
CONTINUOUS
10
6145.01
20
1025.01
30
0
11
6145.01
21
2025.01
31
0
0
LINE
8
PIPES
6
CONTINUOUS
10
6145.01
20
2025.01
30
0
11
5145.01
21
2025.01
31
0
0
LINE
8
PIPES
6
CONTINUOUS
10
5145.01
20
1025.01
30
0
11
3645
21
1025.01
31
0
0
LINE
8
PIPES
6
CONTINUOUS
10
3645
20
2025.01
30
0
11
5145.01
21
2025.01
31
0
0
LINE
8
PIPES
6
CONTINUOUS
10
5145.01
20
1025.01
30
0
11
5145.01
21
25
31
0
0
LINE
8
PIPES
6
CONTINUOUS
10
6145.01
20
25
30
0
11
6145.01
21
-975
31
0
0
LINE
8
PIPES
6
CONTINUOUS
10
3645
20
2025.01
30
0
11
2145
21
2025.01
31
0
0
LINE
8
PIPES
6
CONTINUOUS
10
2145
20
1025.01
30
0
11
3645
21
1025.01
31
0
0
CIRCLE
8
BUBBLE
10
1145
20
2465
30
0
40
120
0
TEXT
8
BUBBLE
10
1145
20
2465
30
0
40
90
1
A
50
0
0
CIRCLE
8
BUBBLE
10
2145
20
2465
30
0
40
120
0
TEXT
8
BUBBLE
10
2145
20
2465
30
0
40
90
1
B
50
0
0
CIRCLE
8
BUBBLE
10
3645
20
2465
30
0
40
120
0
TEXT
8
BUBBLE
10
3645
20
2465
30
0
40
90
1
C
50
0
0
CIRCLE
8
BUBBLE
10
5145
20
2465
30
0
40
120
0
TEXT
8
BUBBLE
10
5145
20
2465
30
0
40
90
1
D
50
0
0
CIRCLE
8
BUBBLE
10
6145
20
2465
30
0
40
120
0
TEXT
8
BUBBLE
10
6145
20
2465
30
0
40
90
1
E
50
0
0
CIRCLE
8
BUBBLE
10
705
20
-1975
30
0
40
120
0
TEXT
8
BUBBLE
10
705
20
-1975
30
0
40
90
1
1
50
0
0
CIRCLE
8
BUBBLE
10
705
20
-975
30
0
40
120
0
TEXT
8
BUBBLE
10
705
20
-975
30
0
40
90
1
2
50
0
0
CIRCLE
8
BUBBLE
10
705
20
25
30
0
40
120
0
TEXT
8
BUBBLE
10
705
20
25
30
0
40
90
1
3
50
0
0
CIRCLE
8
BUBBLE
10
705
20
1025
30
0
40
120
0
TEXT
8
BUBBLE
10
705
20
1025
30
0
40
90
1
4
50
0
0
CIRCLE
8
BUBBLE
10
705
20
2025
30
0
40
120
0
TEXT
8
BUBBLE
10
705
20
2025
30
0
40
90
1
5
50
0
0
LINE
8
DIMENSION
6
CONTINUOUS
10
1145
20
2085
30
0
11
1145
21
2245
31
0
0
LINE
8
DIMENSION
6
CONTINUOUS
10
2145
20
2085
30
0
11
2145
21
2245
31
0
0
LINE
8
DIMENSION
6
CONTINUOUS
10
1145
20
2245
30
0
11
2145
21
2245
31
0
0
LINE
8
DIMENSION
6
CONTINUOUS
10
1145
20
2245
30
0
11
1093.0385
21
2275
31
0
0
LINE
8
DIMENSION
6
CONTINUOUS
10
1145
20
2245
30
0
11
1093.0385
21
2215
31
0
0
LINE
8
DIMENSION
6
CONTINUOUS
10
2145
20
2245
30
0
11
2196.9615
21
2215
31
0
0
LINE
8
DIMENSION
6
CONTINUOUS
10
2145
20
2245
30
0
11
2196.9615
21
2275
31
0
0
TEXT
8
DIMENSION
10
1645
20
2415
30
0
40
70
1
1000
50
0
0
LINE
8
DIMENSION
6
CONTINUOUS
10
2145
20
2085
30
0
11
2145
21
2245
31
0
0
LINE
8
DIMENSION
6
CONTINUOUS
10
3645
20
2085
30
0
11
3645
21
2245
31
0
0
LINE
8
DIMENSION
6
CONTINUOUS
10
2145
20
2245
30
0
11
3645
21
2245
31
0
0
LINE
8
DIMENSION
6
CONTINUOUS
10
2145
20
2245
30
0
11
2093.0385
21
2275
31
0
0
LINE
8
DIMENSION
6
CONTINUOUS
10
2145
20
2245
30
0
11
2093.0385
21
2215
31
0
0
LINE
8
DIMENSION
6
CONTINUOUS
10
3645
20
2245
30
0
11
3696.9615
21
2215
31
0
0
LINE
8
DIMENSION
6
CONTINUOUS
10
3645
20
2245
30
0
11
3696.9615
21
2275
31
0
0
TEXT
8
DIMENSION
10
2895
20
2415
30
0
40
70
1
1500
50
0
0
LINE
8
DIMENSION
6
CONTINUOUS
10
3645
20
2085
30
0
11
3645
21
2245
31
0
0
LINE
8
DIMENSION
6
CONTINUOUS
10
5145
20
2085
30
0
11
5145
21
2245
31
0
0
LINE
8
DIMENSION
6
CONTINUOUS
10
3645
20
2245
30
0
11
5145
21
2245
31
0
0
LINE
8
DIMENSION
6
CONTINUOUS
10
3645
20
2245
30
0
11
3593.0385
21
2275
31
0
0
LINE
8
DIMENSION
6
CONTINUOUS
10
3645
20
2245
30
0
11
3593.0385
21
2215
31
0
0
LINE
8
DIMENSION
6
CONTINUOUS
10
5145
20
2245
30
0
11
5196.9615
21
2215
31
0
0
LINE
8
DIMENSION
6
CONTINUOUS
10
5145
20
2245
30
0
11
5196.9615
21
2275
31
0
0
TEXT
8
DIMENSION
10
4395
20
2415
30
0
40
70
1
1500
50
0
0
LINE
8
DIMENSION
6
CONTINUOUS
10
5145
20
2085
30
0
11
5145
21
2245
31
0
0
LINE
8
DIMENSION
6
CONTINUOUS
10
6145
20
2085
30
0
11
6145
21
2245
31
0
0
LINE
8
DIMENSION
6
CONTINUOUS
10
5145
20
2245
30
0
11
6145
21
2245
31
0
0
LINE
8
DIMENSION
6
CONTINUOUS
10
5145
20
2245
30
0
11
5093.0385
21
2275
31
0
0
LINE
8
DIMENSION
6
CONTINUOUS
10
5145
20
2245
30
0
11
5093.0385
21
2215
31
0
0
LINE
8
DIMENSION
6
CONTINUOUS
10
6145
20
2245
30
0
11
6196.9615
21
2215
31
0
0
LINE
8
DIMENSION
6
CONTINUOUS
10
6145
20
2245
30
0
11
6196.9615
21
2275
31
0
0
TEXT
8
DIMENSION
10
5645
20
2415
30
0
40
70
1
1000
50
0
0
LINE
8
DIMENSION
6
CONTINUOUS
10
1085
20
-1975
30
0
11
925
21
-1975
31
0
0
LINE
8
DIMENSION
6
CONTINUOUS
10
1085
20
-975
30
0
11
925
21
-975
31
0
0
LINE
8
DIMENSION
6
CONTINUOUS
10
925
20
-1975
30
0
11
925
21
-975
31
0
0
LINE
8
DIMENSION
6
CONTINUOUS
10
925
20
-1975
30
0
11
895
21
-2026.9615
31
0
0
LINE
8
DIMENSION
6
CONTINUOUS
10
925
20
-1975
30
0
11
955
21
-2026.9615
31
0
0
LINE
8
DIMENSION
6
CONTINUOUS
10
925
20
-975
30
0
11
955
21
-923.0385
31
0
0
LINE
8
DIMENSION
6
CONTINUOUS
10
925
20
-975
30
0
11
895
21
-923.0385
31
0
0
TEXT
8
DIMENSION
10
755
20
-1475
30
0
40
70
1
1000
50
90
0
LINE
8
DIMENSION
6
CONTINUOUS
10
1085
20
-975
30
0
11
925
21
-975
31
0
0
LINE
8
DIMENSION
6
CONTINUOUS
10
1085
20
25
30
0
11
925
21
25
31
0
0
LINE
8
DIMENSION
6
CONTINUOUS
10
925
20
-975
30
0
11
925
21
25
31
0
0
LINE
8
DIMENSION
6
CONTINUOUS
10
925
20
-975
30
0
11
895
21
-1026.9615
31
0
0
LINE
8
DIMENSION
6
CONTINUOUS
10
925
20
-975
30
0
11
955
21
-1026.9615
31
0
0
LINE
8
DIMENSION
6
CONTINUOUS
10
925
20
25
30
0
11
955
21
76.9615
31
0
0
LINE
8
DIMENSION
6
CONTINUOUS
10
925
20
25
30
0
11
895
21
76.9615
31
0
0
TEXT
8
DIMENSION
10
755
20
-475
30
0
40
70
1
1000
50
90
0
LINE
8
DIMENSION
6
CONTINUOUS
10
1085
20
25
30
0
11
925
21
25
31
0
0
LINE
8
DIMENSION
6
CONTINUOUS
10
1085
20
1025
30
0
11
925
21
1025
31
0
0
LINE
8
DIMENSION
6
CONTINUOUS
10
925
20
25
30
0
11
925
21
1025
31
0
0
LINE
8
DIMENSION
6
CONTINUOUS
10
925
20
25
30
0
11
895
21
-26.9615
31
0
0
LINE
8
DIMENSION
6
CONTINUOUS
10
925
20
25
30
0
11
955
21
-26.9615
31
0
0
LINE
8
DIMENSION
6
CONTINUOUS
10
925
20
1025
30
0
11
955
21
1076.9615
31
0
0
LINE
8
DIMENSION
6
CONTINUOUS
10
925
20
1025
30
0
11
895
21
1076.9615
31
0
0
TEXT
8
DIMENSION
10
755
20
525
30
0
40
70
1
1000
50
90
0
LINE
8
DIMENSION
6
CONTINUOUS
10
1085
20
1025
30
0
11
925
21
1025
31
0
0
LINE
8
DIMENSION
6
CONTINUOUS
10
1085
20
2025
30
0
11
925
21
2025
31
0
0
LINE
8
DIMENSION
6
CONTINUOUS
10
925
20
1025
30
0
11
925
21
2025
31
0
0
LINE
8
DIMENSION
6
CONTINUOUS
10
925
20
1025
30
0
11
895
21
973.0385
31
0
0
LINE
8
DIMENSION
6
CONTINUOUS
10
925
20
1025
30
0
11
955
21
973.0385
31
0
0
LINE
8
DIMENSION
6
CONTINUOUS
10
925
20
2025
30
0
11
955
21
2076.9615
31
0
0
LINE
8
DIMENSION
6
CONTINUOUS
10
925
20
2025
30
0
11
895
21
2076.9615
31
0
0
TEXT
8
DIMENSION
10
755
20
1525
30
0
40
70
1
1000
50
90
0
TEXT
8
DIMENSION
10
3645
20
-2425
30
0
40
70
1
PLAN VIEW TYPICAL FOR
50
0
0
TEXT
8
DIMENSION
10
3645
20
-2585
30
0
40
70
1
LEVELS 5, 6, 10, 11, 15, 16, 20, 21, 25 & 26
50
0
0
ENDSEC
0
EOF
