0
SECTION
2
HEADER
9
$ACADVER
1
AC1009
9
$INSUNITS
70
4
9
$MEASUREMENT
70
1
9
$LUNITS
70
2
9
$LUPREC
70
1
9
$TILEMODE
70
1
9
$EXTMIN
10
-3464.110275
20
-3250.0105
30
0
9
$EXTMAX
10
3464.110275
20
3250.0105
30
0
9
$PEXTMIN
10
-3464.110275
20
-3250.0105
30
0
9
$PEXTMAX
10
3464.110275
20
3250.0105
30
0
9
$LIMMIN
10
-3964.110275
20
-3750.0105
9
$LIMMAX
10
3964.110275
20
3750.0105
9
$PLIMMIN
10
-3964.110275
20
-3750.0105
9
$PLIMMAX
10
3964.110275
20
3750.0105
0
ENDSEC
0
SECTION
2
TABLES
0
TABLE
2
VPORT
70
1
0
VPORT
2
*ACTIVE
70
0
10
0
20
0
11
1
21
1
12
0
22
0
40
7500.021
41
1.057093
42
50
43
0
44
0
50
0
51
0
71
0
72
100
73
1
74
3
75
0
76
0
77
0
78
0
0
ENDTAB
0
TABLE
2
LTYPE
70
2
0
LTYPE
2
CONTINUOUS
70
0
3
Solid line
72
65
73
0
40
0
0
LTYPE
2
DASHED
70
0
3
Dashed
72
65
73
2
40
240
49
120
74
0
49
-120
74
0
0
ENDTAB
0
TABLE
2
LAYER
70
6
0
LAYER
2
PIPES
70
0
62
5
6
CONTINUOUS
0
LAYER
2
PIPE_ENDS
70
0
62
5
6
CONTINUOUS
0
LAYER
2
DIMENSION
70
0
62
1
6
CONTINUOUS
0
LAYER
2
LEVEL_GUIDE
70
0
62
1
6
DASHED
0
LAYER
2
LEVEL_TEXT
70
0
62
1
6
CONTINUOUS
0
LAYER
2
FRAME
70
0
62
5
6
CONTINUOUS
0
ENDTAB
0
TABLE
2
STYLE
70
1
0
STYLE
2
STANDARD
70
0
40
0
41
1
50
0
71
0
42
100
3
txt
4

0
ENDTAB
0
ENDSEC
0
SECTION
2
BLOCKS
0
BLOCK
8
0
2
$MODEL_SPACE
70
0
10
0
20
0
30
0
3
$MODEL_SPACE
0
ENDBLK
8
0
0
BLOCK
67
1
8
0
2
$PAPER_SPACE
70
0
10
0
20
0
30
0
3
$PAPER_SPACE
0
ENDBLK
67
1
8
0
0
ENDSEC
0
SECTION
2
ENTITIES
0
LINE
8
PIPES
10
-433.012702
20
-2950.0095
30
0
11
1082.531755
21
-2075.0095
31
0
0
LINE
8
PIPES
10
3464.110275
20
-700.0045
30
0
11
2706.336315
21
-262.5035
31
0
0
LINE
8
PIPES
10
433.012702
20
1050.0005
30
0
11
-433.012702
21
550.0005
31
0
0
LINE
8
PIPES
10
-3464.110275
20
-1200.0045
30
0
11
-1948.557159
21
-2075.0095
31
0
0
LINE
8
PIPES
10
2598.084872
20
-1200.0045
30
0
11
3464.110275
21
-700.0045
31
0
0
LINE
8
PIPES
10
-433.012702
20
550.0005
30
0
11
-1948.565819
21
-325.0045
31
0
0
LINE
8
PIPES
10
2598.084872
20
-1200.0045
30
0
11
1840.310911
21
-762.5035
31
0
0
LINE
8
PIPES
10
1082.531755
20
-2075.0095
30
0
11
2598.084872
21
-1200.0045
31
0
0
LINE
8
PIPES
10
-1948.565819
20
-325.0045
30
0
11
-3464.110275
21
-1200.0045
31
0
0
LINE
8
PIPES
10
-1948.565819
20
-325.0045
30
0
11
-433.012702
21
-1200.0095
31
0
0
LINE
8
PIPES
10
-1948.557159
20
-2075.0095
30
0
11
-433.012702
21
-2950.0095
31
0
0
LINE
8
PIPES
10
-433.012702
20
-1200.0095
30
0
11
1082.531755
21
-2075.0095
31
0
0
LINE
8
PIPES
10
-433.012702
20
-1200.0095
30
0
11
-1948.557159
21
-2075.0095
31
0
0
LINE
8
PIPES
10
-433.012702
20
-2950.0095
30
0
11
-433.012702
21
-3250.0105
31
0
0
LINE
8
PIPES
10
-3464.110275
20
-1200.0045
30
0
11
-3464.110275
21
-1500.0055
31
0
0
LINE
8
PIPES
10
2598.084872
20
-1200.0045
30
0
11
2598.084872
21
-1500.0055
31
0
0
LINE
8
PIPES
10
-433.012702
20
550.0005
30
0
11
-433.012702
21
249.9995
31
0
0
LINE
8
PIPES
10
1082.531755
20
-2075.0095
30
0
11
1082.531755
21
-2375.0105
31
0
0
LINE
8
PIPES
10
-1948.565819
20
-325.0045
30
0
11
-1948.565819
21
-625.0055
31
0
0
LINE
8
PIPES
10
-1948.557159
20
-2075.0095
30
0
11
-1948.557159
21
-2375.0105
31
0
0
LINE
8
PIPES
10
-433.012702
20
-1200.0095
30
0
11
-433.012702
21
-1500.0105
31
0
0
LINE
8
PIPES
10
-433.012702
20
-2950.0095
30
0
11
-433.012702
21
-1750.0095
31
0
0
LINE
8
PIPES
10
-3464.110275
20
-1200.0045
30
0
11
-3464.110275
21
-0.0045
31
0
0
LINE
8
PIPES
10
2598.084872
20
-1200.0045
30
0
11
2598.084872
21
-700.0035
31
0
0
LINE
8
PIPES
10
-433.012702
20
550.0005
30
0
11
-433.012702
21
1050.0015
31
0
0
LINE
8
PIPES
10
1082.531755
20
-2075.0095
30
0
11
1082.531755
21
-875.0095
31
0
0
LINE
8
PIPES
10
-1948.565819
20
-325.0045
30
0
11
-1948.565819
21
874.9955
31
0
0
LINE
8
PIPES
10
-1948.557159
20
-2075.0095
30
0
11
-1948.557159
21
-875.0095
31
0
0
LINE
8
PIPES
10
-433.012702
20
-1200.0095
30
0
11
-433.012702
21
-0.0095
31
0
0
LINE
8
PIPES
10
-433.012702
20
-1750.0095
30
0
11
1082.531755
21
-875.0095
31
0
0
LINE
8
PIPES
10
-3464.110275
20
-0.0045
30
0
11
-1948.557159
21
-875.0095
31
0
0
LINE
8
PIPES
10
1082.531755
20
-875.0095
30
0
11
2598.084872
21
-0.0045
31
0
0
LINE
8
PIPES
10
-1948.565819
20
874.9955
30
0
11
-3464.110275
21
-0.0045
31
0
0
LINE
8
PIPES
10
-1948.565819
20
874.9955
30
0
11
-433.012702
21
-0.0095
31
0
0
LINE
8
PIPES
10
-1948.557159
20
-875.0095
30
0
11
-433.012702
21
-1750.0095
31
0
0
LINE
8
PIPES
10
-433.012702
20
-0.0095
30
0
11
1082.531755
21
-875.0095
31
0
0
LINE
8
PIPES
10
-433.012702
20
-0.0095
30
0
11
-1948.557159
21
-875.0095
31
0
0
LINE
8
PIPES
10
-433.012702
20
-1750.0095
30
0
11
-433.012702
21
-249.9995
31
0
0
LINE
8
PIPES
10
-3464.110275
20
-0.0045
30
0
11
-3464.110275
21
1500.0055
31
0
0
LINE
8
PIPES
10
2598.084872
20
-0.0045
30
0
11
2598.084872
21
1500.0055
31
0
0
LINE
8
PIPES
10
-433.012702
20
1750.0005
30
0
11
-433.012702
21
3250.0105
31
0
0
LINE
8
PIPES
10
1082.531755
20
-875.0095
30
0
11
1082.531755
21
625.0005
31
0
0
LINE
8
PIPES
10
-1948.565819
20
874.9955
30
0
11
-1948.565819
21
2375.0055
31
0
0
LINE
8
PIPES
10
-1948.557159
20
-875.0095
30
0
11
-1948.557159
21
625.0005
31
0
0
LINE
8
PIPES
10
-433.012702
20
-0.0095
30
0
11
-433.012702
21
1500.0005
31
0
0
LINE
8
PIPES
10
-433.012702
20
-249.9995
30
0
11
1082.531755
21
625.0005
31
0
0
LINE
8
PIPES
10
-3464.110275
20
1500.0055
30
0
11
-1948.557159
21
625.0005
31
0
0
LINE
8
PIPES
10
-433.012702
20
3250.0105
30
0
11
-1948.565819
21
2375.0055
31
0
0
LINE
8
PIPES
10
2598.084872
20
1500.0055
30
0
11
1082.540415
21
2375.0055
31
0
0
LINE
8
PIPES
10
1082.531755
20
625.0005
30
0
11
2598.084872
21
1500.0055
31
0
0
LINE
8
PIPES
10
-1948.565819
20
2375.0055
30
0
11
-3464.110275
21
1500.0055
31
0
0
LINE
8
PIPES
10
-1948.565819
20
2375.0055
30
0
11
-433.012702
21
1500.0005
31
0
0
LINE
8
PIPES
10
-1948.557159
20
625.0005
30
0
11
-433.012702
21
-249.9995
31
0
0
LINE
8
PIPES
10
-433.012702
20
1500.0005
30
0
11
1082.531755
21
625.0005
31
0
0
LINE
8
PIPES
10
-433.012702
20
1500.0005
30
0
11
-1948.557159
21
625.0005
31
0
0
LINE
8
PIPES
10
1082.540415
20
-325.0045
30
0
11
324.759526
21
112.5005
31
0
0
LINE
8
PIPES
10
1082.540415
20
-325.0045
30
0
11
-433.012702
21
-1200.0095
31
0
0
LINE
8
PIPES
10
1082.540415
20
-325.0045
30
0
11
1082.540415
21
-625.0055
31
0
0
LINE
8
PIPES
10
1082.540415
20
2375.0055
30
0
11
-433.012702
21
3250.0105
31
0
0
LINE
8
PIPES
10
1082.540415
20
2375.0055
30
0
11
-433.012702
21
1500.0005
31
0
0
LINE
8
PIPES
10
1082.540415
20
874.9955
30
0
11
-433.012702
21
1750.0005
31
0
0
LINE
8
PIPES
10
1082.540415
20
874.9955
30
0
11
-433.012702
21
-0.0095
31
0
0
LINE
8
PIPES
10
1082.540415
20
2375.0055
30
0
11
1082.540415
21
874.9955
31
0
0
LINE
8
PIPES
10
1082.540415
20
874.9955
30
0
11
1082.540415
21
-325.0045
31
0
0
LINE
8
PIPES
10
3464.110275
20
-700.0045
30
0
11
3464.110275
21
-200.0035
31
0
0
LINE
8
PIPES
10
433.012702
20
1050.0005
30
0
11
433.012702
21
1550.0015
31
0
0
LINE
8
PIPES
10
2598.084872
20
-700.0035
30
0
11
2598.084872
21
-200.0045
31
0
0
LINE
8
PIPES
10
-433.012702
20
1050.0015
30
0
11
-433.012702
21
1550.0005
31
0
0
LINE
8
PIPES
10
3464.110275
20
-200.0035
30
0
11
1948.565819
21
674.9965
31
0
0
LINE
8
PIPES
10
433.012702
20
1550.0015
30
0
11
-433.012702
21
1050.0015
31
0
0
LINE
8
PIPES
10
2598.084872
20
-700.0035
30
0
11
3464.110275
21
-200.0035
31
0
0
LINE
8
PIPES
10
3464.110275
20
-200.0035
30
0
11
3464.110275
21
299.9955
31
0
0
LINE
8
PIPES
10
433.012702
20
1550.0015
30
0
11
433.012702
21
2050.0005
31
0
0
LINE
8
PIPES
10
2598.084872
20
-200.0045
30
0
11
2598.084872
21
-0.0045
31
0
0
LINE
8
PIPES
10
-433.012702
20
1550.0005
30
0
11
-433.012702
21
1750.0005
31
0
0
LINE
8
PIPES
10
3464.110275
20
299.9955
30
0
11
1948.565819
21
1174.9955
31
0
0
LINE
8
PIPES
10
433.012702
20
2050.0005
30
0
11
-433.012702
21
1550.0005
31
0
0
LINE
8
PIPES
10
2598.084872
20
-200.0045
30
0
11
3464.110275
21
299.9955
31
0
0
LINE
8
PIPES
10
1948.565819
20
174.9955
30
0
11
1190.78493
21
612.5005
31
0
0
LINE
8
PIPES
10
1948.565819
20
174.9955
30
0
11
1082.540415
21
-325.0045
31
0
0
LINE
8
PIPES
10
1840.310911
20
-762.5035
30
0
11
1082.540415
21
-325.0045
31
0
0
LINE
8
PIPES
10
2706.336315
20
-262.5035
30
0
11
1948.565819
21
174.9955
31
0
0
LINE
8
PIPES
10
2706.336315
20
-262.5035
30
0
11
1840.310911
21
-762.5035
31
0
0
LINE
8
PIPES
10
324.759526
20
112.5005
30
0
11
-433.012702
21
550.0005
31
0
0
LINE
8
PIPES
10
1190.78493
20
612.5005
30
0
11
433.012702
21
1050.0005
31
0
0
LINE
8
PIPES
10
1190.78493
20
612.5005
30
0
11
324.759526
21
112.5005
31
0
0
LINE
8
PIPES
10
-433.012702
20
3250.0105
30
0
11
433.012702
21
2050.0005
31
0
0
LINE
8
PIPES
10
2598.084872
20
1500.0055
30
0
11
3464.110275
21
299.9955
31
0
0
LINE
8
PIPES
10
-433.012702
20
-249.9995
30
0
11
1082.531755
21
-875.0095
31
0
0
LINE
8
PIPES
10
1082.531755
20
-875.0095
30
0
11
-433.012702
21
-2950.0095
31
0
0
LINE
8
PIPES
10
1082.531755
20
625.0005
30
0
11
2598.084872
21
-0.0045
31
0
0
LINE
8
PIPES
10
2598.084872
20
-0.0045
30
0
11
1082.531755
21
-2075.0095
31
0
0
LINE
8
PIPES
10
-433.012702
20
1500.0005
30
0
11
-1948.557159
21
-875.0095
31
0
0
LINE
8
PIPES
10
-1948.557159
20
-875.0095
30
0
11
-433.012702
21
-1200.0095
31
0
0
LINE
8
PIPES
10
1082.540415
20
2375.0055
30
0
11
-433.012702
21
-0.0095
31
0
0
LINE
8
PIPES
10
-433.012702
20
-0.0095
30
0
11
1082.540415
21
-325.0045
31
0
0
LINE
8
PIPES
10
-3464.110275
20
1500.0055
30
0
11
-1948.565819
21
874.9955
31
0
0
LINE
8
PIPES
10
-1948.565819
20
874.9955
30
0
11
-3464.110275
21
-1200.0045
31
0
0
LINE
8
PIPES
10
-433.012702
20
-249.9995
30
0
11
-1948.557159
21
-875.0095
31
0
0
LINE
8
PIPES
10
-1948.557159
20
-875.0095
30
0
11
-433.012702
21
-2950.0095
31
0
0
LINE
8
PIPES
10
-1948.557159
20
625.0005
30
0
11
-3464.110275
21
-0.0045
31
0
0
LINE
8
PIPES
10
-3464.110275
20
-0.0045
30
0
11
-1948.557159
21
-2075.0095
31
0
0
LINE
8
PIPES
10
-433.012702
20
1500.0005
30
0
11
1082.531755
21
-875.0095
31
0
0
LINE
8
PIPES
10
1082.531755
20
-875.0095
30
0
11
-433.012702
21
-1200.0095
31
0
0
LINE
8
PIPES
10
-1948.565819
20
2375.0055
30
0
11
-433.012702
21
-0.0095
31
0
0
LINE
8
PIPES
10
-433.012702
20
-0.0095
30
0
11
-1948.565819
21
-325.0045
31
0
0
LINE
8
PIPES
10
2598.084872
20
-0.0045
30
0
11
1082.540415
21
874.9955
31
0
0
LINE
8
PIPES
10
2598.084872
20
1500.0055
30
0
11
1082.540415
21
874.9955
31
0
0
LINE
8
PIPES
10
1082.540415
20
874.9955
30
0
11
2598.084872
21
-1200.0045
31
0
0
LINE
8
PIPES
10
-433.012702
20
1750.0005
30
0
11
1082.540415
21
-325.0045
31
0
0
LINE
8
PIPES
10
1948.565819
20
1174.9955
30
0
11
433.012702
21
2050.0005
31
0
0
LINE
8
PIPES
10
1948.565819
20
674.9965
30
0
11
433.012702
21
1550.0015
31
0
0
LINE
8
PIPES
10
1948.565819
20
674.9965
30
0
11
1948.565819
21
174.9955
31
0
0
LINE
8
PIPES
10
1948.565819
20
674.9965
30
0
11
1948.565819
21
1174.9955
31
0
0
ENDSEC
0
EOF
