0
SECTION
2
HEADER
9
$ACADVER
1
AC1009
9
$INSUNITS
70
4
9
$MEASUREMENT
70
1
9
$LUNITS
70
2
9
$LUPREC
70
1
9
$TILEMODE
70
1
9
$EXTMIN
10
-3460.38
20
-1141.721273
30
0
9
$EXTMAX
10
3460.38
20
1141.721273
30
0
9
$PEXTMIN
10
-3460.38
20
-1141.721273
30
0
9
$PEXTMAX
10
3460.38
20
1141.721273
30
0
9
$LIMMIN
10
-3960.38
20
-1641.721273
9
$LIMMAX
10
3960.38
20
1641.721273
9
$PLIMMIN
10
-3960.38
20
-1641.721273
9
$PLIMMAX
10
3960.38
20
1641.721273
0
ENDSEC
0
SECTION
2
TABLES
0
TABLE
2
VPORT
70
1
0
VPORT
2
*ACTIVE
70
0
10
0
20
0
11
1
21
1
12
0
22
0
40
3283.442545
41
2.412334
42
50
43
0
44
0
50
0
51
0
71
0
72
100
73
1
74
3
75
0
76
0
77
0
78
0
0
ENDTAB
0
TABLE
2
LTYPE
70
2
0
LTYPE
2
CONTINUOUS
70
0
3
Solid line
72
65
73
0
40
0
0
LTYPE
2
DASHED
70
0
3
Dashed
72
65
73
2
40
240
49
120
74
0
49
-120
74
0
0
ENDTAB
0
TABLE
2
LAYER
70
6
0
LAYER
2
PIPES
70
0
62
5
6
CONTINUOUS
0
LAYER
2
PIPE_ENDS
70
0
62
5
6
CONTINUOUS
0
LAYER
2
DIMENSION
70
0
62
1
6
CONTINUOUS
0
LAYER
2
LEVEL_GUIDE
70
0
62
1
6
DASHED
0
LAYER
2
LEVEL_TEXT
70
0
62
1
6
CONTINUOUS
0
LAYER
2
FRAME
70
0
62
5
6
CONTINUOUS
0
ENDTAB
0
TABLE
2
STYLE
70
1
0
STYLE
2
STANDARD
70
0
40
0
41
1
50
0
71
0
42
100
3
txt
4

0
ENDTAB
0
ENDSEC
0
SECTION
2
BLOCKS
0
BLOCK
8
0
2
$MODEL_SPACE
70
0
10
0
20
0
30
0
3
$MODEL_SPACE
0
ENDBLK
8
0
0
BLOCK
67
1
8
0
2
$PAPER_SPACE
70
0
10
0
20
0
30
0
3
$PAPER_SPACE
0
ENDBLK
67
1
8
0
0
ENDSEC
0
SECTION
2
ENTITIES
0
LINE
8
PIPES
10
-2980.379
20
78.279727
30
0
11
-3280.38
21
78.279727
31
0
0
LINE
8
PIPES
10
1519.63
20
78.279727
30
0
11
1719.63
21
78.279727
31
0
0
LINE
8
PIPES
10
-1480.38
20
78.279727
30
0
11
-1613.71
21
78.279727
31
0
0
LINE
8
PIPES
10
319.63
20
78.279727
30
0
11
52.96
21
78.279727
31
0
0
LINE
8
PIPES
10
19.63
20
78.279727
30
0
11
52.96
21
78.279727
31
0
0
LINE
8
PIPES
10
-1780.38
20
78.279727
30
0
11
-1613.71
21
78.279727
31
0
0
LINE
8
PIPES
10
-3280.38
20
78.279727
30
0
11
-2447.378
21
78.279727
31
0
0
LINE
8
PIPES
10
-1613.71
20
78.279727
30
0
11
-780.71
21
78.279727
31
0
0
LINE
8
PIPES
10
52.96
20
78.279727
30
0
11
885.96
21
78.279727
31
0
0
LINE
8
PIPES
10
-3280.38
20
78.279727
30
0
11
-3280.38
21
-221.721273
31
0
0
LINE
8
PIPES
10
-3280.38
20
78.279727
30
0
11
-3280.38
21
578.280727
31
0
0
LINE
8
PIPES
10
1719.63
20
78.279727
30
0
11
1719.63
21
578.280727
31
0
0
LINE
8
PIPES
10
-1613.71
20
78.279727
30
0
11
-1613.71
21
578.280727
31
0
0
LINE
8
PIPES
10
52.96
20
78.279727
30
0
11
52.96
21
578.280727
31
0
0
LINE
8
PIPES
10
-1613.71
20
578.280727
30
0
11
-3280.38
21
578.280727
31
0
0
LINE
8
PIPES
10
52.96
20
578.280727
30
0
11
1719.63
21
578.280727
31
0
0
LINE
8
PIPES
10
-1613.71
20
578.280727
30
0
11
52.96
21
578.280727
31
0
0
LINE
8
PIPES
10
-3280.38
20
578.280727
30
0
11
-3280.38
21
1078.279727
31
0
0
LINE
8
PIPES
10
1719.63
20
578.280727
30
0
11
1719.63
21
1078.279727
31
0
0
LINE
8
PIPES
10
-1613.71
20
1078.279727
30
0
11
-1613.71
21
578.280727
31
0
0
LINE
8
PIPES
10
52.96
20
578.280727
30
0
11
52.96
21
1078.279727
31
0
0
LINE
8
PIPES
10
-1613.71
20
1078.279727
30
0
11
-3280.38
21
1078.279727
31
0
0
LINE
8
PIPES
10
52.96
20
1078.279727
30
0
11
1719.63
21
1078.279727
31
0
0
LINE
8
PIPES
10
-1613.71
20
1078.279727
30
0
11
52.96
21
1078.279727
31
0
0
LINE
8
PIPES
10
-2680.379
20
78.279727
30
0
11
-2980.379
21
78.279727
31
0
0
LINE
8
PIPES
10
-3280.38
20
-221.721273
30
0
11
-2980.379
21
-221.721273
31
0
0
LINE
8
PIPES
10
-2980.379
20
78.279727
30
0
11
-2980.379
21
-221.721273
31
0
0
LINE
8
PIPES
10
-2447.378
20
78.279727
30
0
11
-2680.379
21
78.279727
31
0
0
LINE
8
PIPES
10
-2980.379
20
-221.721273
30
0
11
-2680.379
21
-221.721273
31
0
0
LINE
8
PIPES
10
-2680.379
20
78.279727
30
0
11
-2680.379
21
-221.721273
31
0
0
LINE
8
PIPES
10
-2080.38
20
78.279727
30
0
11
-2380.378
21
78.279727
31
0
0
LINE
8
PIPES
10
-2447.378
20
78.279727
30
0
11
-2380.378
21
78.279727
31
0
0
LINE
8
PIPES
10
-2680.379
20
-221.721273
30
0
11
-2380.378
21
-221.721273
31
0
0
LINE
8
PIPES
10
-2380.378
20
78.279727
30
0
11
-2380.378
21
-221.721273
31
0
0
LINE
8
PIPES
10
-1780.38
20
78.279727
30
0
11
-2080.38
21
78.279727
31
0
0
LINE
8
PIPES
10
-2380.378
20
-221.721273
30
0
11
-2080.38
21
-221.721273
31
0
0
LINE
8
PIPES
10
-2080.38
20
78.279727
30
0
11
-2080.38
21
-221.721273
31
0
0
LINE
8
PIPES
10
-2080.38
20
-221.721273
30
0
11
-1780.38
21
-221.721273
31
0
0
LINE
8
PIPES
10
-1780.38
20
78.279727
30
0
11
-1780.38
21
-221.721273
31
0
0
LINE
8
PIPES
10
-1180.38
20
78.279727
30
0
11
-1480.38
21
78.279727
31
0
0
LINE
8
PIPES
10
-1780.38
20
78.279727
30
0
11
-1480.38
21
78.279727
31
0
0
LINE
8
PIPES
10
-1780.38
20
-221.721273
30
0
11
-1480.38
21
-221.721273
31
0
0
LINE
8
PIPES
10
-1480.38
20
78.279727
30
0
11
-1480.38
21
-221.721273
31
0
0
LINE
8
PIPES
10
-880.38
20
78.279727
30
0
11
-1180.38
21
78.279727
31
0
0
LINE
8
PIPES
10
-1480.38
20
-221.721273
30
0
11
-1180.38
21
-221.721273
31
0
0
LINE
8
PIPES
10
-1180.38
20
78.279727
30
0
11
-1180.38
21
-221.721273
31
0
0
LINE
8
PIPES
10
-780.71
20
78.279727
30
0
11
-880.38
21
78.279727
31
0
0
LINE
8
PIPES
10
-1180.38
20
-221.721273
30
0
11
-880.38
21
-221.721273
31
0
0
LINE
8
PIPES
10
-880.38
20
78.279727
30
0
11
-880.38
21
-221.721273
31
0
0
LINE
8
PIPES
10
-280.37
20
78.279727
30
0
11
-580.37
21
78.279727
31
0
0
LINE
8
PIPES
10
-780.71
20
78.279727
30
0
11
-580.37
21
78.279727
31
0
0
LINE
8
PIPES
10
-880.38
20
-221.721273
30
0
11
-580.37
21
-221.721273
31
0
0
LINE
8
PIPES
10
-580.37
20
78.279727
30
0
11
-580.37
21
-221.721273
31
0
0
LINE
8
PIPES
10
19.63
20
78.279727
30
0
11
-280.37
21
78.279727
31
0
0
LINE
8
PIPES
10
-580.37
20
-221.721273
30
0
11
-280.37
21
-221.721273
31
0
0
LINE
8
PIPES
10
-280.37
20
78.279727
30
0
11
-280.37
21
-221.721273
31
0
0
LINE
8
PIPES
10
-280.37
20
-221.721273
30
0
11
19.63
21
-221.721273
31
0
0
LINE
8
PIPES
10
19.63
20
78.279727
30
0
11
19.63
21
-221.721273
31
0
0
LINE
8
PIPES
10
619.63
20
78.279727
30
0
11
319.63
21
78.279727
31
0
0
LINE
8
PIPES
10
19.63
20
78.279727
30
0
11
319.63
21
78.279727
31
0
0
LINE
8
PIPES
10
19.63
20
-221.721273
30
0
11
319.63
21
-221.721273
31
0
0
LINE
8
PIPES
10
319.63
20
78.279727
30
0
11
319.63
21
-221.721273
31
0
0
LINE
8
PIPES
10
885.96
20
78.279727
30
0
11
619.63
21
78.279727
31
0
0
LINE
8
PIPES
10
319.63
20
-221.721273
30
0
11
619.63
21
-221.721273
31
0
0
LINE
8
PIPES
10
619.63
20
78.279727
30
0
11
619.63
21
-221.721273
31
0
0
LINE
8
PIPES
10
1219.63
20
78.279727
30
0
11
919.63
21
78.279727
31
0
0
LINE
8
PIPES
10
885.96
20
78.279727
30
0
11
919.63
21
78.279727
31
0
0
LINE
8
PIPES
10
619.63
20
-221.721273
30
0
11
919.63
21
-221.721273
31
0
0
LINE
8
PIPES
10
919.63
20
78.279727
30
0
11
919.63
21
-221.721273
31
0
0
LINE
8
PIPES
10
1519.63
20
78.279727
30
0
11
1219.63
21
78.279727
31
0
0
LINE
8
PIPES
10
919.63
20
-221.721273
30
0
11
1219.63
21
-221.721273
31
0
0
LINE
8
PIPES
10
1219.63
20
78.279727
30
0
11
1219.63
21
-221.721273
31
0
0
LINE
8
PIPES
10
1219.63
20
-221.721273
30
0
11
1519.63
21
-221.721273
31
0
0
LINE
8
PIPES
10
1519.63
20
78.279727
30
0
11
1519.63
21
-221.721273
31
0
0
LINE
8
PIPES
10
1519.63
20
-221.721273
30
0
11
1719.63
21
-221.721273
31
0
0
LINE
8
PIPES
10
1719.63
20
78.279727
30
0
11
1719.63
21
-221.721273
31
0
0
LINE
8
PIPES
10
1719.63
20
1078.279727
30
0
11
1719.63
21
78.279727
31
0
0
LINE
8
PIPES
10
-3280.38
20
1078.279727
30
0
11
-3280.38
21
78.279727
31
0
0
LINE
8
PIPES
10
-1613.71
20
78.279727
30
0
11
-3280.38
21
1078.279727
31
0
0
LINE
8
PIPES
10
-1613.71
20
78.279727
30
0
11
52.96
21
1078.279727
31
0
0
LINE
8
PIPES
10
52.96
20
1078.279727
30
0
11
1719.63
21
78.279727
31
0
0
LINE
8
PIPES
10
1719.63
20
1078.279727
30
0
11
52.96
21
78.279727
31
0
0
LINE
8
PIPES
10
-1613.71
20
1078.279727
30
0
11
52.96
21
578.280727
31
0
0
LINE
8
PIPES
10
-2447.378
20
78.279727
30
0
11
-1613.71
21
78.279727
31
0
0
LINE
8
PIPES
10
-780.71
20
78.279727
30
0
11
52.96
21
78.279727
31
0
0
LINE
8
PIPES
10
885.96
20
78.279727
30
0
11
1719.63
21
78.279727
31
0
0
CIRCLE
8
PIPE_ENDS
10
1719.62
20
78.279727
30
0
40
32
0
CIRCLE
8
PIPE_ENDS
10
-3280.38
20
78.279727
30
0
40
32
0
CIRCLE
8
PIPE_ENDS
10
-1613.68
20
78.279727
30
0
40
32
0
CIRCLE
8
PIPE_ENDS
10
52.92
20
78.279727
30
0
40
32
0
CIRCLE
8
PIPE_ENDS
10
1719.62
20
578.279727
30
0
40
32
0
CIRCLE
8
PIPE_ENDS
10
-3280.38
20
578.279727
30
0
40
25
0
CIRCLE
8
PIPE_ENDS
10
1719.62
20
1078.279727
30
0
40
32
0
CIRCLE
8
PIPE_ENDS
10
-3280.38
20
1078.279727
30
0
40
25
0
CIRCLE
8
PIPE_ENDS
10
-1613.68
20
578.279727
30
0
40
25
0
CIRCLE
8
PIPE_ENDS
10
52.92
20
578.279727
30
0
40
25
0
CIRCLE
8
PIPE_ENDS
10
-1613.68
20
1078.279727
30
0
40
25
0
CIRCLE
8
PIPE_ENDS
10
52.92
20
1078.279727
30
0
40
25
0
CIRCLE
8
PIPE_ENDS
10
-2447.38
20
78.279727
30
0
40
32
0
CIRCLE
8
PIPE_ENDS
10
-780.68
20
78.279727
30
0
40
32
0
CIRCLE
8
PIPE_ENDS
10
885.92
20
78.279727
30
0
40
32
0
LINE
8
LEVEL_GUIDE
6
DASHED
10
-3460.38
20
-221.720273
30
0
11
1899.63
21
-221.720273
31
0
0
LINE
8
LEVEL_GUIDE
6
DASHED
10
-3460.38
20
78.279727
30
0
11
1899.63
21
78.279727
31
0
0
LINE
8
LEVEL_GUIDE
6
DASHED
10
-3460.38
20
578.279727
30
0
11
1899.63
21
578.279727
31
0
0
LINE
8
LEVEL_GUIDE
6
DASHED
10
-3460.38
20
1078.279727
30
0
11
1899.63
21
1078.279727
31
0
0
LINE
8
DIMENSION
10
-3280.38
20
-281.721273
30
0
11
-3280.38
21
-601.721273
31
0
0
LINE
8
DIMENSION
10
-2680.38
20
-281.721273
30
0
11
-2680.38
21
-601.721273
31
0
0
LINE
8
DIMENSION
10
-3280.38
20
-601.721273
30
0
11
-2680.38
21
-601.721273
31
0
0
LINE
8
DIMENSION
10
-3280.38
20
-601.721273
30
0
11
-3343.821545
21
-572.137994
31
0
0
LINE
8
DIMENSION
10
-3280.38
20
-601.721273
30
0
11
-3343.821545
21
-631.304551
31
0
0
LINE
8
DIMENSION
10
-2680.38
20
-601.721273
30
0
11
-2616.938455
21
-631.304551
31
0
0
LINE
8
DIMENSION
10
-2680.38
20
-601.721273
30
0
11
-2616.938455
21
-572.137994
31
0
0
TEXT
8
DIMENSION
10
-2980.38
20
-771.721273
30
0
40
85
1
0.6
50
0
7
STANDARD
72
1
73
2
11
-2980.38
21
-771.721273
31
0
0
LINE
8
DIMENSION
10
-2680.38
20
-281.721273
30
0
11
-2680.38
21
-601.721273
31
0
0
LINE
8
DIMENSION
10
-2080.38
20
-281.721273
30
0
11
-2080.38
21
-601.721273
31
0
0
LINE
8
DIMENSION
10
-2680.38
20
-601.721273
30
0
11
-2080.38
21
-601.721273
31
0
0
LINE
8
DIMENSION
10
-2680.38
20
-601.721273
30
0
11
-2743.821545
21
-572.137994
31
0
0
LINE
8
DIMENSION
10
-2680.38
20
-601.721273
30
0
11
-2743.821545
21
-631.304551
31
0
0
LINE
8
DIMENSION
10
-2080.38
20
-601.721273
30
0
11
-2016.938455
21
-631.304551
31
0
0
LINE
8
DIMENSION
10
-2080.38
20
-601.721273
30
0
11
-2016.938455
21
-572.137994
31
0
0
TEXT
8
DIMENSION
10
-2380.38
20
-771.721273
30
0
40
85
1
0.6
50
0
7
STANDARD
72
1
73
2
11
-2380.38
21
-771.721273
31
0
0
LINE
8
DIMENSION
10
-2080.38
20
-281.721273
30
0
11
-2080.38
21
-601.721273
31
0
0
LINE
8
DIMENSION
10
-1613.71
20
-281.721273
30
0
11
-1613.71
21
-601.721273
31
0
0
LINE
8
DIMENSION
10
-2080.38
20
-601.721273
30
0
11
-1613.71
21
-601.721273
31
0
0
LINE
8
DIMENSION
10
-2080.38
20
-601.721273
30
0
11
-2143.821545
21
-572.137994
31
0
0
LINE
8
DIMENSION
10
-2080.38
20
-601.721273
30
0
11
-2143.821545
21
-631.304551
31
0
0
LINE
8
DIMENSION
10
-1613.71
20
-601.721273
30
0
11
-1550.268455
21
-631.304551
31
0
0
LINE
8
DIMENSION
10
-1613.71
20
-601.721273
30
0
11
-1550.268455
21
-572.137994
31
0
0
TEXT
8
DIMENSION
10
-1847.045
20
-771.721273
30
0
40
85
1
0.467
50
0
7
STANDARD
72
1
73
2
11
-1847.045
21
-771.721273
31
0
0
LINE
8
DIMENSION
10
-1613.71
20
-281.721273
30
0
11
-1613.71
21
-601.721273
31
0
0
LINE
8
DIMENSION
10
52.96
20
-281.721273
30
0
11
52.96
21
-601.721273
31
0
0
LINE
8
DIMENSION
10
-1613.71
20
-601.721273
30
0
11
52.96
21
-601.721273
31
0
0
LINE
8
DIMENSION
10
-1613.71
20
-601.721273
30
0
11
-1677.151545
21
-572.137994
31
0
0
LINE
8
DIMENSION
10
-1613.71
20
-601.721273
30
0
11
-1677.151545
21
-631.304551
31
0
0
LINE
8
DIMENSION
10
52.96
20
-601.721273
30
0
11
116.401545
21
-631.304551
31
0
0
LINE
8
DIMENSION
10
52.96
20
-601.721273
30
0
11
116.401545
21
-572.137994
31
0
0
TEXT
8
DIMENSION
10
-780.375
20
-771.721273
30
0
40
85
1
1.667
50
0
7
STANDARD
72
1
73
2
11
-780.375
21
-771.721273
31
0
0
LINE
8
DIMENSION
10
52.96
20
-281.721273
30
0
11
52.96
21
-601.721273
31
0
0
LINE
8
DIMENSION
10
1719.63
20
-281.721273
30
0
11
1719.63
21
-601.721273
31
0
0
LINE
8
DIMENSION
10
52.96
20
-601.721273
30
0
11
1719.63
21
-601.721273
31
0
0
LINE
8
DIMENSION
10
52.96
20
-601.721273
30
0
11
-10.481545
21
-572.137994
31
0
0
LINE
8
DIMENSION
10
52.96
20
-601.721273
30
0
11
-10.481545
21
-631.304551
31
0
0
LINE
8
DIMENSION
10
1719.63
20
-601.721273
30
0
11
1783.071545
21
-631.304551
31
0
0
LINE
8
DIMENSION
10
1719.63
20
-601.721273
30
0
11
1783.071545
21
-572.137994
31
0
0
TEXT
8
DIMENSION
10
886.295
20
-771.721273
30
0
40
85
1
1.667
50
0
7
STANDARD
72
1
73
2
11
886.295
21
-771.721273
31
0
0
LINE
8
DIMENSION
10
-3280.38
20
-281.721273
30
0
11
-3280.38
21
-971.721273
31
0
0
LINE
8
DIMENSION
10
1719.63
20
-281.721273
30
0
11
1719.63
21
-971.721273
31
0
0
LINE
8
DIMENSION
10
-3280.38
20
-971.721273
30
0
11
1719.63
21
-971.721273
31
0
0
LINE
8
DIMENSION
10
-3280.38
20
-971.721273
30
0
11
-3343.821545
21
-942.137994
31
0
0
LINE
8
DIMENSION
10
-3280.38
20
-971.721273
30
0
11
-3343.821545
21
-1001.304551
31
0
0
LINE
8
DIMENSION
10
1719.63
20
-971.721273
30
0
11
1783.071545
21
-1001.304551
31
0
0
LINE
8
DIMENSION
10
1719.63
20
-971.721273
30
0
11
1783.071545
21
-942.137994
31
0
0
TEXT
8
DIMENSION
10
-780.375
20
-1141.721273
30
0
40
85
1
TOTAL 5
50
0
7
STANDARD
72
1
73
2
11
-780.375
21
-1141.721273
31
0
0
LINE
8
DIMENSION
10
1779.63
20
-221.720273
30
0
11
2419.63
21
-221.720273
31
0
0
LINE
8
DIMENSION
10
1779.63
20
78.279727
30
0
11
2419.63
21
78.279727
31
0
0
LINE
8
DIMENSION
10
2419.63
20
-221.720273
30
0
11
2419.63
21
78.279727
31
0
0
LINE
8
DIMENSION
10
2419.63
20
-221.720273
30
0
11
2390.046722
21
-285.161818
31
0
0
LINE
8
DIMENSION
10
2419.63
20
-221.720273
30
0
11
2449.213278
21
-285.161818
31
0
0
LINE
8
DIMENSION
10
2419.63
20
78.279727
30
0
11
2449.213278
21
141.721273
31
0
0
LINE
8
DIMENSION
10
2419.63
20
78.279727
30
0
11
2390.046722
21
141.721273
31
0
0
TEXT
8
DIMENSION
10
2589.63
20
-71.720273
30
0
40
85
1
0.3
50
90
7
STANDARD
72
1
73
2
11
2589.63
21
-71.720273
31
0
0
LINE
8
DIMENSION
10
1779.63
20
78.279727
30
0
11
2419.63
21
78.279727
31
0
0
LINE
8
DIMENSION
10
1779.63
20
578.279727
30
0
11
2419.63
21
578.279727
31
0
0
LINE
8
DIMENSION
10
2419.63
20
78.279727
30
0
11
2419.63
21
578.279727
31
0
0
LINE
8
DIMENSION
10
2419.63
20
78.279727
30
0
11
2390.046722
21
14.838182
31
0
0
LINE
8
DIMENSION
10
2419.63
20
78.279727
30
0
11
2449.213278
21
14.838182
31
0
0
LINE
8
DIMENSION
10
2419.63
20
578.279727
30
0
11
2449.213278
21
641.721273
31
0
0
LINE
8
DIMENSION
10
2419.63
20
578.279727
30
0
11
2390.046722
21
641.721273
31
0
0
TEXT
8
DIMENSION
10
2589.63
20
328.279727
30
0
40
85
1
0.5
50
90
7
STANDARD
72
1
73
2
11
2589.63
21
328.279727
31
0
0
LINE
8
DIMENSION
10
1779.63
20
578.279727
30
0
11
2419.63
21
578.279727
31
0
0
LINE
8
DIMENSION
10
1779.63
20
1078.279727
30
0
11
2419.63
21
1078.279727
31
0
0
LINE
8
DIMENSION
10
2419.63
20
578.279727
30
0
11
2419.63
21
1078.279727
31
0
0
LINE
8
DIMENSION
10
2419.63
20
578.279727
30
0
11
2390.046722
21
514.838182
31
0
0
LINE
8
DIMENSION
10
2419.63
20
578.279727
30
0
11
2449.213278
21
514.838182
31
0
0
LINE
8
DIMENSION
10
2419.63
20
1078.279727
30
0
11
2449.213278
21
1141.721273
31
0
0
LINE
8
DIMENSION
10
2419.63
20
1078.279727
30
0
11
2390.046722
21
1141.721273
31
0
0
TEXT
8
DIMENSION
10
2589.63
20
828.279727
30
0
40
85
1
0.5
50
90
7
STANDARD
72
1
73
2
11
2589.63
21
828.279727
31
0
0
LINE
8
DIMENSION
10
1779.63
20
-221.720273
30
0
11
2869.63
21
-221.720273
31
0
0
LINE
8
DIMENSION
10
1779.63
20
1078.279727
30
0
11
2869.63
21
1078.279727
31
0
0
LINE
8
DIMENSION
10
2869.63
20
-221.720273
30
0
11
2869.63
21
1078.279727
31
0
0
LINE
8
DIMENSION
10
2869.63
20
-221.720273
30
0
11
2840.046722
21
-285.161818
31
0
0
LINE
8
DIMENSION
10
2869.63
20
-221.720273
30
0
11
2899.213278
21
-285.161818
31
0
0
LINE
8
DIMENSION
10
2869.63
20
1078.279727
30
0
11
2899.213278
21
1141.721273
31
0
0
LINE
8
DIMENSION
10
2869.63
20
1078.279727
30
0
11
2840.046722
21
1141.721273
31
0
0
TEXT
8
DIMENSION
10
3039.63
20
428.279727
30
0
40
85
1
TOTAL 1.3
50
90
7
STANDARD
72
1
73
2
11
3039.63
21
428.279727
31
0
0
ENDSEC
0
EOF
