0
SECTION
2
HEADER
9
$ACADVER
1
AC1009
9
$INSUNITS
70
4
9
$MEASUREMENT
70
1
9
$LUNITS
70
2
9
$LUPREC
70
1
9
$TILEMODE
70
1
9
$EXTMIN
10
-3902.100773
20
-1391.720773
30
0
9
$EXTMAX
10
3902.100773
20
1391.720773
30
0
9
$PEXTMIN
10
-3902.100773
20
-1391.720773
30
0
9
$PEXTMAX
10
3902.100773
20
1391.720773
30
0
9
$LIMMIN
10
-4402.100773
20
-1891.720773
9
$LIMMAX
10
4402.100773
20
1891.720773
9
$PLIMMIN
10
-4402.100773
20
-1891.720773
9
$PLIMMAX
10
4402.100773
20
1891.720773
0
ENDSEC
0
SECTION
2
TABLES
0
TABLE
2
VPORT
70
1
0
VPORT
2
*ACTIVE
70
0
10
0
20
0
11
1
21
1
12
0
22
0
40
3783.441545
41
2.327035
42
50
43
0
44
0
50
0
51
0
71
0
72
100
73
1
74
3
75
0
76
0
77
0
78
0
0
ENDTAB
0
TABLE
2
LTYPE
70
2
0
LTYPE
2
CONTINUOUS
70
0
3
Solid line
72
65
73
0
40
0
0
LTYPE
2
DASHED
70
0
3
Dashed
72
65
73
2
40
240
49
120
74
0
49
-120
74
0
0
ENDTAB
0
TABLE
2
LAYER
70
6
0
LAYER
2
PIPES
70
0
62
5
6
CONTINUOUS
0
LAYER
2
PIPE_ENDS
70
0
62
5
6
CONTINUOUS
0
LAYER
2
DIMENSION
70
0
62
1
6
CONTINUOUS
0
LAYER
2
LEVEL_GUIDE
70
0
62
1
6
DASHED
0
LAYER
2
LEVEL_TEXT
70
0
62
1
6
CONTINUOUS
0
LAYER
2
FRAME
70
0
62
5
6
CONTINUOUS
0
ENDTAB
0
TABLE
2
STYLE
70
1
0
STYLE
2
STANDARD
70
0
40
0
41
1
50
0
71
0
42
100
3
txt
4

0
ENDTAB
0
ENDSEC
0
SECTION
2
BLOCKS
0
BLOCK
8
0
2
$MODEL_SPACE
70
0
10
0
20
0
30
0
3
$MODEL_SPACE
0
ENDBLK
8
0
0
BLOCK
67
1
8
0
2
$PAPER_SPACE
70
0
10
0
20
0
30
0
3
$PAPER_SPACE
0
ENDBLK
67
1
8
0
0
ENDSEC
0
SECTION
2
ENTITIES
0
LINE
8
PIPES
10
-3838.659227
20
-471.720773
30
0
11
-3838.659227
21
1328.279227
31
0
0
LINE
8
PIPES
10
-3838.659227
20
1328.279227
30
0
11
-1838.659227
21
1328.279227
31
0
0
LINE
8
PIPES
10
-1838.659227
20
1328.279227
30
0
11
161.350773
21
1328.279227
31
0
0
LINE
8
PIPES
10
161.350773
20
1328.279227
30
0
11
2161.350773
21
1328.279227
31
0
0
LINE
8
PIPES
10
2161.350773
20
1328.279227
30
0
11
2161.350773
21
-471.720773
31
0
0
LINE
8
PIPES
10
161.350773
20
-471.720773
30
0
11
2161.350773
21
-471.720773
31
0
0
LINE
8
PIPES
10
-1838.659227
20
-471.720773
30
0
11
161.350773
21
-471.720773
31
0
0
LINE
8
PIPES
10
-3838.659227
20
-471.720773
30
0
11
-1838.659227
21
-471.720773
31
0
0
LINE
8
PIPES
10
-1838.659227
20
-471.720773
30
0
11
-1838.659227
21
1328.279227
31
0
0
LINE
8
PIPES
10
161.350773
20
1328.279227
30
0
11
161.350773
21
-471.720773
31
0
0
CIRCLE
8
PIPE_ENDS
10
-3838.659227
20
-471.720773
30
0
40
32
0
CIRCLE
8
PIPE_ENDS
10
-3838.659227
20
1328.279227
30
0
40
32
0
CIRCLE
8
PIPE_ENDS
10
-1838.659227
20
1328.279227
30
0
40
32
0
CIRCLE
8
PIPE_ENDS
10
161.340773
20
1328.279227
30
0
40
32
0
CIRCLE
8
PIPE_ENDS
10
2161.340773
20
1328.279227
30
0
40
32
0
CIRCLE
8
PIPE_ENDS
10
2161.340773
20
-471.720773
30
0
40
32
0
CIRCLE
8
PIPE_ENDS
10
161.340773
20
-471.720773
30
0
40
32
0
CIRCLE
8
PIPE_ENDS
10
-1838.659227
20
-471.720773
30
0
40
32
0
LINE
8
DIMENSION
10
-3838.659227
20
-531.720773
30
0
11
-3838.659227
21
-851.720773
31
0
0
LINE
8
DIMENSION
10
-1838.659227
20
-531.720773
30
0
11
-1838.659227
21
-851.720773
31
0
0
LINE
8
DIMENSION
10
-3838.659227
20
-851.720773
30
0
11
-1838.659227
21
-851.720773
31
0
0
LINE
8
DIMENSION
10
-3838.659227
20
-851.720773
30
0
11
-3902.100773
21
-822.137494
31
0
0
LINE
8
DIMENSION
10
-3838.659227
20
-851.720773
30
0
11
-3902.100773
21
-881.304051
31
0
0
LINE
8
DIMENSION
10
-1838.659227
20
-851.720773
30
0
11
-1775.217682
21
-881.304051
31
0
0
LINE
8
DIMENSION
10
-1838.659227
20
-851.720773
30
0
11
-1775.217682
21
-822.137494
31
0
0
TEXT
8
DIMENSION
10
-2838.659227
20
-1021.720773
30
0
40
85
1
2
50
0
7
STANDARD
72
1
73
2
11
-2838.659227
21
-1021.720773
31
0
0
LINE
8
DIMENSION
10
-1838.659227
20
-531.720773
30
0
11
-1838.659227
21
-851.720773
31
0
0
LINE
8
DIMENSION
10
161.350773
20
-531.720773
30
0
11
161.350773
21
-851.720773
31
0
0
LINE
8
DIMENSION
10
-1838.659227
20
-851.720773
30
0
11
161.350773
21
-851.720773
31
0
0
LINE
8
DIMENSION
10
-1838.659227
20
-851.720773
30
0
11
-1902.100773
21
-822.137494
31
0
0
LINE
8
DIMENSION
10
-1838.659227
20
-851.720773
30
0
11
-1902.100773
21
-881.304051
31
0
0
LINE
8
DIMENSION
10
161.350773
20
-851.720773
30
0
11
224.792318
21
-881.304051
31
0
0
LINE
8
DIMENSION
10
161.350773
20
-851.720773
30
0
11
224.792318
21
-822.137494
31
0
0
TEXT
8
DIMENSION
10
-838.654227
20
-1021.720773
30
0
40
85
1
2
50
0
7
STANDARD
72
1
73
2
11
-838.654227
21
-1021.720773
31
0
0
LINE
8
DIMENSION
10
161.350773
20
-531.720773
30
0
11
161.350773
21
-851.720773
31
0
0
LINE
8
DIMENSION
10
2161.350773
20
-531.720773
30
0
11
2161.350773
21
-851.720773
31
0
0
LINE
8
DIMENSION
10
161.350773
20
-851.720773
30
0
11
2161.350773
21
-851.720773
31
0
0
LINE
8
DIMENSION
10
161.350773
20
-851.720773
30
0
11
97.909227
21
-822.137494
31
0
0
LINE
8
DIMENSION
10
161.350773
20
-851.720773
30
0
11
97.909227
21
-881.304051
31
0
0
LINE
8
DIMENSION
10
2161.350773
20
-851.720773
30
0
11
2224.792318
21
-881.304051
31
0
0
LINE
8
DIMENSION
10
2161.350773
20
-851.720773
30
0
11
2224.792318
21
-822.137494
31
0
0
TEXT
8
DIMENSION
10
1161.350773
20
-1021.720773
30
0
40
85
1
2
50
0
7
STANDARD
72
1
73
2
11
1161.350773
21
-1021.720773
31
0
0
LINE
8
DIMENSION
10
-3838.659227
20
-531.720773
30
0
11
-3838.659227
21
-1221.720773
31
0
0
LINE
8
DIMENSION
10
2161.350773
20
-531.720773
30
0
11
2161.350773
21
-1221.720773
31
0
0
LINE
8
DIMENSION
10
-3838.659227
20
-1221.720773
30
0
11
2161.350773
21
-1221.720773
31
0
0
LINE
8
DIMENSION
10
-3838.659227
20
-1221.720773
30
0
11
-3902.100773
21
-1192.137494
31
0
0
LINE
8
DIMENSION
10
-3838.659227
20
-1221.720773
30
0
11
-3902.100773
21
-1251.304051
31
0
0
LINE
8
DIMENSION
10
2161.350773
20
-1221.720773
30
0
11
2224.792318
21
-1251.304051
31
0
0
LINE
8
DIMENSION
10
2161.350773
20
-1221.720773
30
0
11
2224.792318
21
-1192.137494
31
0
0
TEXT
8
DIMENSION
10
-838.654227
20
-1391.720773
30
0
40
85
1
TOTAL 6
50
0
7
STANDARD
72
1
73
2
11
-838.654227
21
-1391.720773
31
0
0
LINE
8
DIMENSION
10
2221.350773
20
-471.720773
30
0
11
2861.350773
21
-471.720773
31
0
0
LINE
8
DIMENSION
10
2221.350773
20
1328.279227
30
0
11
2861.350773
21
1328.279227
31
0
0
LINE
8
DIMENSION
10
2861.350773
20
-471.720773
30
0
11
2861.350773
21
1328.279227
31
0
0
LINE
8
DIMENSION
10
2861.350773
20
-471.720773
30
0
11
2831.767494
21
-535.162318
31
0
0
LINE
8
DIMENSION
10
2861.350773
20
-471.720773
30
0
11
2890.934051
21
-535.162318
31
0
0
LINE
8
DIMENSION
10
2861.350773
20
1328.279227
30
0
11
2890.934051
21
1391.720773
31
0
0
LINE
8
DIMENSION
10
2861.350773
20
1328.279227
30
0
11
2831.767494
21
1391.720773
31
0
0
TEXT
8
DIMENSION
10
3031.350773
20
428.279227
30
0
40
85
1
1.8
50
90
7
STANDARD
72
1
73
2
11
3031.350773
21
428.279227
31
0
0
LINE
8
DIMENSION
10
2221.350773
20
-471.720773
30
0
11
3311.350773
21
-471.720773
31
0
0
LINE
8
DIMENSION
10
2221.350773
20
1328.279227
30
0
11
3311.350773
21
1328.279227
31
0
0
LINE
8
DIMENSION
10
3311.350773
20
-471.720773
30
0
11
3311.350773
21
1328.279227
31
0
0
LINE
8
DIMENSION
10
3311.350773
20
-471.720773
30
0
11
3281.767494
21
-535.162318
31
0
0
LINE
8
DIMENSION
10
3311.350773
20
-471.720773
30
0
11
3340.934051
21
-535.162318
31
0
0
LINE
8
DIMENSION
10
3311.350773
20
1328.279227
30
0
11
3340.934051
21
1391.720773
31
0
0
LINE
8
DIMENSION
10
3311.350773
20
1328.279227
30
0
11
3281.767494
21
1391.720773
31
0
0
TEXT
8
DIMENSION
10
3481.350773
20
428.279227
30
0
40
85
1
TOTAL 1.8
50
90
7
STANDARD
72
1
73
2
11
3481.350773
21
428.279227
31
0
0
ENDSEC
0
EOF
