0
SECTION
2
HEADER
9
$ACADVER
1
AC1009
9
$INSUNITS
70
4
0
ENDSEC
0
SECTION
2
TABLES
0
TABLE
2
LTYPE
70
2
0
LTYPE
2
CONTINUOUS
70
0
3
Solid
72
65
73
0
40
0
0
LTYPE
2
DASHED
70
0
3
Dashed
72
65
73
2
40
240
49
120
74
0
49
-120
74
0
0
ENDTAB
0
TABLE
2
LAYER
70
5
0
LAYER
2
PIPES
70
0
62
1
6
CONTINUOUS
0
LAYER
2
GRIDLINE
70
0
62
5
6
DASHED
0
LAYER
2
DIMENSION
70
0
62
5
6
CONTINUOUS
0
LAYER
2
BUBBLE
70
0
62
1
6
CONTINUOUS
0
LAYER
2
TIE
70
0
62
6
6
CONTINUOUS
0
ENDTAB
0
ENDSEC
0
SECTION
2
ENTITIES

0
LINE
8
PIPES
6
CONTINUOUS
10
-9405
20
-15020
30
0
11
-9405
21
-14719.999
31
0
0
LINE
8
PIPES
6
CONTINUOUS
10
-8405
20
-15020
30
0
11
-8405
21
-14719.999
31
0
0
LINE
8
PIPES
6
CONTINUOUS
10
-6905
20
-15020
30
0
11
-6905
21
-14719.999
31
0
0
LINE
8
PIPES
6
CONTINUOUS
10
-5404.99
20
-15020
30
0
11
-5404.99
21
-14719.999
31
0
0
LINE
8
PIPES
6
CONTINUOUS
10
-4404.99
20
-15020
30
0
11
-4404.99
21
-14719.999
31
0
0
LINE
8
PIPES
6
CONTINUOUS
10
-8405
20
-14719.999
30
0
11
-9405
21
-14719.999
31
0
0
LINE
8
PIPES
6
CONTINUOUS
10
-8405
20
-14719.999
30
0
11
-6905
21
-14719.999
31
0
0
LINE
8
PIPES
6
CONTINUOUS
10
-5404.99
20
-14719.999
30
0
11
-6905
21
-14719.999
31
0
0
LINE
8
PIPES
6
CONTINUOUS
10
-5404.99
20
-14719.999
30
0
11
-4404.99
21
-14719.999
31
0
0
LINE
8
PIPES
6
CONTINUOUS
10
-9405
20
-14719.999
30
0
11
-9405
21
-13020
31
0
0
LINE
8
PIPES
6
CONTINUOUS
10
-8405
20
-14719.999
30
0
11
-8405
21
-13020
31
0
0
LINE
8
PIPES
6
CONTINUOUS
10
-6905
20
-14719.999
30
0
11
-6905
21
-13020
31
0
0
LINE
8
PIPES
6
CONTINUOUS
10
-5404.99
20
-14719.999
30
0
11
-5404.99
21
-13020
31
0
0
LINE
8
PIPES
6
CONTINUOUS
10
-4404.99
20
-14719.999
30
0
11
-4404.99
21
-13020
31
0
0
LINE
8
PIPES
6
CONTINUOUS
10
-8405
20
-13020
30
0
11
-9405
21
-13020
31
0
0
LINE
8
PIPES
6
CONTINUOUS
10
-8405
20
-13020
30
0
11
-6905
21
-13020
31
0
0
LINE
8
PIPES
6
CONTINUOUS
10
-5404.99
20
-13020
30
0
11
-6905
21
-13020
31
0
0
LINE
8
PIPES
6
CONTINUOUS
10
-5404.99
20
-13020
30
0
11
-4404.99
21
-13020
31
0
0
LINE
8
PIPES
6
CONTINUOUS
10
-9405
20
-13020
30
0
11
-9405
21
-11020
31
0
0
LINE
8
PIPES
6
CONTINUOUS
10
-8405
20
-13020
30
0
11
-8405
21
-11020
31
0
0
LINE
8
PIPES
6
CONTINUOUS
10
-6905
20
-13020
30
0
11
-6905
21
-11020
31
0
0
LINE
8
PIPES
6
CONTINUOUS
10
-5404.99
20
-13020
30
0
11
-5404.99
21
-11020
31
0
0
LINE
8
PIPES
6
CONTINUOUS
10
-4404.99
20
-13020
30
0
11
-4404.99
21
-11020
31
0
0
LINE
8
PIPES
6
CONTINUOUS
10
-8405
20
-11020
30
0
11
-9405
21
-11020
31
0
0
LINE
8
PIPES
6
CONTINUOUS
10
-8405
20
-11020
30
0
11
-6905
21
-11020
31
0
0
LINE
8
PIPES
6
CONTINUOUS
10
-5404.99
20
-11020
30
0
11
-6905
21
-11020
31
0
0
LINE
8
PIPES
6
CONTINUOUS
10
-5404.99
20
-11020
30
0
11
-4404.99
21
-11020
31
0
0
LINE
8
PIPES
6
CONTINUOUS
10
-9405
20
-11020
30
0
11
-9405
21
-9019.99
31
0
0
LINE
8
PIPES
6
CONTINUOUS
10
-8405
20
-11020
30
0
11
-8405
21
-9019.99
31
0
0
LINE
8
PIPES
6
CONTINUOUS
10
-6905
20
-11020
30
0
11
-6905
21
-9019.99
31
0
0
LINE
8
PIPES
6
CONTINUOUS
10
-5404.99
20
-11020
30
0
11
-5404.99
21
-9019.99
31
0
0
LINE
8
PIPES
6
CONTINUOUS
10
-4404.99
20
-11020
30
0
11
-4404.99
21
-9019.99
31
0
0
LINE
8
PIPES
6
CONTINUOUS
10
-8405
20
-9019.99
30
0
11
-9405
21
-9019.99
31
0
0
LINE
8
PIPES
6
CONTINUOUS
10
-8405
20
-9019.99
30
0
11
-6905
21
-9019.99
31
0
0
LINE
8
PIPES
6
CONTINUOUS
10
-5404.99
20
-9019.99
30
0
11
-6905
21
-9019.99
31
0
0
LINE
8
PIPES
6
CONTINUOUS
10
-5404.99
20
-9019.99
30
0
11
-4404.99
21
-9019.99
31
0
0
LINE
8
PIPES
6
CONTINUOUS
10
-9405
20
-9019.99
30
0
11
-9405
21
-8519.99
31
0
0
LINE
8
PIPES
6
CONTINUOUS
10
-8405
20
-9019.99
30
0
11
-8405
21
-8519.99
31
0
0
LINE
8
PIPES
6
CONTINUOUS
10
-6905
20
-9019.99
30
0
11
-6905
21
-8519.99
31
0
0
LINE
8
PIPES
6
CONTINUOUS
10
-5404.99
20
-9019.99
30
0
11
-5404.99
21
-8519.99
31
0
0
LINE
8
PIPES
6
CONTINUOUS
10
-4404.99
20
-9019.99
30
0
11
-4404.99
21
-8519.99
31
0
0
LINE
8
PIPES
6
CONTINUOUS
10
-8405
20
-7019.99
30
0
11
-9405
21
-7019.99
31
0
0
LINE
8
PIPES
6
CONTINUOUS
10
-8405
20
-7019.99
30
0
11
-6905
21
-7019.99
31
0
0
LINE
8
PIPES
6
CONTINUOUS
10
-5404.99
20
-7019.99
30
0
11
-6905
21
-7019.99
31
0
0
LINE
8
PIPES
6
CONTINUOUS
10
-5404.99
20
-7019.99
30
0
11
-4404.99
21
-7019.99
31
0
0
LINE
8
PIPES
6
CONTINUOUS
10
-9405
20
-7019.99
30
0
11
-9405
21
-5020
31
0
0
LINE
8
PIPES
6
CONTINUOUS
10
-8405
20
-7019.99
30
0
11
-8405
21
-5020
31
0
0
LINE
8
PIPES
6
CONTINUOUS
10
-6905
20
-7019.99
30
0
11
-6905
21
-5020
31
0
0
LINE
8
PIPES
6
CONTINUOUS
10
-5404.99
20
-7019.99
30
0
11
-5404.99
21
-5020
31
0
0
LINE
8
PIPES
6
CONTINUOUS
10
-4404.99
20
-7019.99
30
0
11
-4404.99
21
-5020
31
0
0
LINE
8
PIPES
6
CONTINUOUS
10
-8405
20
-5020
30
0
11
-9405
21
-5020
31
0
0
LINE
8
PIPES
6
CONTINUOUS
10
-8405
20
-5020
30
0
11
-6905
21
-5020
31
0
0
LINE
8
PIPES
6
CONTINUOUS
10
-5404.99
20
-5020
30
0
11
-6905
21
-5020
31
0
0
LINE
8
PIPES
6
CONTINUOUS
10
-5404.99
20
-5020
30
0
11
-4404.99
21
-5020
31
0
0
LINE
8
PIPES
6
CONTINUOUS
10
-9405
20
-5020
30
0
11
-9405
21
-3020
31
0
0
LINE
8
PIPES
6
CONTINUOUS
10
-8405
20
-5020
30
0
11
-8405
21
-3020
31
0
0
LINE
8
PIPES
6
CONTINUOUS
10
-6905
20
-5020
30
0
11
-6905
21
-3020
31
0
0
LINE
8
PIPES
6
CONTINUOUS
10
-5404.99
20
-5020
30
0
11
-5404.99
21
-3020
31
0
0
LINE
8
PIPES
6
CONTINUOUS
10
-4404.99
20
-5020
30
0
11
-4404.99
21
-3020
31
0
0
LINE
8
PIPES
6
CONTINUOUS
10
-8405
20
-3020
30
0
11
-9405
21
-3020
31
0
0
LINE
8
PIPES
6
CONTINUOUS
10
-8405
20
-3020
30
0
11
-6905
21
-3020
31
0
0
LINE
8
PIPES
6
CONTINUOUS
10
-5404.99
20
-3020
30
0
11
-6905
21
-3020
31
0
0
LINE
8
PIPES
6
CONTINUOUS
10
-5404.99
20
-3020
30
0
11
-4404.99
21
-3020
31
0
0
LINE
8
PIPES
6
CONTINUOUS
10
-9405
20
-3020
30
0
11
-9405
21
-2520
31
0
0
LINE
8
PIPES
6
CONTINUOUS
10
-8405
20
-3020
30
0
11
-8405
21
-2520
31
0
0
LINE
8
PIPES
6
CONTINUOUS
10
-6905
20
-3020
30
0
11
-6905
21
-2520
31
0
0
LINE
8
PIPES
6
CONTINUOUS
10
-5404.99
20
-3020
30
0
11
-5404.99
21
-2520
31
0
0
LINE
8
PIPES
6
CONTINUOUS
10
-4404.99
20
-3020
30
0
11
-4404.99
21
-2520
31
0
0
LINE
8
PIPES
6
CONTINUOUS
10
-8405
20
-1020
30
0
11
-9405
21
-1020
31
0
0
LINE
8
PIPES
6
CONTINUOUS
10
-8405
20
-1020
30
0
11
-6905
21
-1020
31
0
0
LINE
8
PIPES
6
CONTINUOUS
10
-5404.99
20
-1020
30
0
11
-6905
21
-1020
31
0
0
LINE
8
PIPES
6
CONTINUOUS
10
-5404.99
20
-1020
30
0
11
-4404.99
21
-1020
31
0
0
LINE
8
PIPES
6
CONTINUOUS
10
-9405
20
-1020
30
0
11
-9405
21
980
31
0
0
LINE
8
PIPES
6
CONTINUOUS
10
-8405
20
-1020
30
0
11
-8405
21
980
31
0
0
LINE
8
PIPES
6
CONTINUOUS
10
-6905
20
-1020
30
0
11
-6905
21
980
31
0
0
LINE
8
PIPES
6
CONTINUOUS
10
-5404.99
20
-1020
30
0
11
-5404.99
21
980
31
0
0
LINE
8
PIPES
6
CONTINUOUS
10
-4404.99
20
-1020
30
0
11
-4404.99
21
980
31
0
0
LINE
8
PIPES
6
CONTINUOUS
10
-8405
20
980
30
0
11
-9405
21
980
31
0
0
LINE
8
PIPES
6
CONTINUOUS
10
-8405
20
980
30
0
11
-6905
21
980
31
0
0
LINE
8
PIPES
6
CONTINUOUS
10
-5404.99
20
980
30
0
11
-6905
21
980
31
0
0
LINE
8
PIPES
6
CONTINUOUS
10
-5404.99
20
980
30
0
11
-4404.99
21
980
31
0
0
LINE
8
PIPES
6
CONTINUOUS
10
-9405
20
980
30
0
11
-9405
21
2980
31
0
0
LINE
8
PIPES
6
CONTINUOUS
10
-8405
20
980
30
0
11
-8405
21
2980
31
0
0
LINE
8
PIPES
6
CONTINUOUS
10
-6905
20
980
30
0
11
-6905
21
2980
31
0
0
LINE
8
PIPES
6
CONTINUOUS
10
-5404.99
20
980
30
0
11
-5404.99
21
2980
31
0
0
LINE
8
PIPES
6
CONTINUOUS
10
-4404.99
20
980
30
0
11
-4404.99
21
2980
31
0
0
LINE
8
PIPES
6
CONTINUOUS
10
-8405
20
2980
30
0
11
-9405
21
2980
31
0
0
LINE
8
PIPES
6
CONTINUOUS
10
-8405
20
2980
30
0
11
-6905
21
2980
31
0
0
LINE
8
PIPES
6
CONTINUOUS
10
-5404.99
20
2980
30
0
11
-6905
21
2980
31
0
0
LINE
8
PIPES
6
CONTINUOUS
10
-5404.99
20
2980
30
0
11
-4404.99
21
2980
31
0
0
LINE
8
PIPES
6
CONTINUOUS
10
-9405
20
2980
30
0
11
-9405
21
3480
31
0
0
LINE
8
PIPES
6
CONTINUOUS
10
-8405
20
2980
30
0
11
-8405
21
3480
31
0
0
LINE
8
PIPES
6
CONTINUOUS
10
-6905
20
2980
30
0
11
-6905
21
3480
31
0
0
LINE
8
PIPES
6
CONTINUOUS
10
-5404.99
20
2980
30
0
11
-5404.99
21
3480
31
0
0
LINE
8
PIPES
6
CONTINUOUS
10
-4404.99
20
2980
30
0
11
-4404.99
21
3480
31
0
0
LINE
8
PIPES
6
CONTINUOUS
10
-8405
20
4980
30
0
11
-9405
21
4980
31
0
0
LINE
8
PIPES
6
CONTINUOUS
10
-8405
20
4980
30
0
11
-6905
21
4980
31
0
0
LINE
8
PIPES
6
CONTINUOUS
10
-5404.99
20
4980
30
0
11
-6905
21
4980
31
0
0
LINE
8
PIPES
6
CONTINUOUS
10
-5404.99
20
4980
30
0
11
-4404.99
21
4980
31
0
0
LINE
8
PIPES
6
CONTINUOUS
10
-9405
20
4980
30
0
11
-9405
21
6980
31
0
0
LINE
8
PIPES
6
CONTINUOUS
10
-8405
20
4980
30
0
11
-8405
21
6980
31
0
0
LINE
8
PIPES
6
CONTINUOUS
10
-6905
20
4980
30
0
11
-6905
21
6980
31
0
0
LINE
8
PIPES
6
CONTINUOUS
10
-5404.99
20
4980
30
0
11
-5404.99
21
6980
31
0
0
LINE
8
PIPES
6
CONTINUOUS
10
-4404.99
20
4980
30
0
11
-4404.99
21
6980
31
0
0
LINE
8
PIPES
6
CONTINUOUS
10
-8405
20
6980
30
0
11
-9405
21
6980
31
0
0
LINE
8
PIPES
6
CONTINUOUS
10
-8405
20
6980
30
0
11
-6905
21
6980
31
0
0
LINE
8
PIPES
6
CONTINUOUS
10
-5404.99
20
6980
30
0
11
-6905
21
6980
31
0
0
LINE
8
PIPES
6
CONTINUOUS
10
-5404.99
20
6980
30
0
11
-4404.99
21
6980
31
0
0
LINE
8
PIPES
6
CONTINUOUS
10
-9405
20
6980
30
0
11
-9405
21
8980
31
0
0
LINE
8
PIPES
6
CONTINUOUS
10
-8405
20
6980
30
0
11
-8405
21
8980
31
0
0
LINE
8
PIPES
6
CONTINUOUS
10
-6905
20
6980
30
0
11
-6905
21
8980
31
0
0
LINE
8
PIPES
6
CONTINUOUS
10
-5404.99
20
6980
30
0
11
-5404.99
21
8980
31
0
0
LINE
8
PIPES
6
CONTINUOUS
10
-4404.99
20
6980
30
0
11
-4404.99
21
8980
31
0
0
LINE
8
PIPES
6
CONTINUOUS
10
-8405
20
8980
30
0
11
-9405
21
8980
31
0
0
LINE
8
PIPES
6
CONTINUOUS
10
-8405
20
8980
30
0
11
-6905
21
8980
31
0
0
LINE
8
PIPES
6
CONTINUOUS
10
-5404.99
20
8980
30
0
11
-6905
21
8980
31
0
0
LINE
8
PIPES
6
CONTINUOUS
10
-5404.99
20
8980
30
0
11
-4404.99
21
8980
31
0
0
LINE
8
PIPES
6
CONTINUOUS
10
-9405
20
8980
30
0
11
-9405
21
9480
31
0
0
LINE
8
PIPES
6
CONTINUOUS
10
-8405
20
8980
30
0
11
-8405
21
9480
31
0
0
LINE
8
PIPES
6
CONTINUOUS
10
-6905
20
8980
30
0
11
-6905
21
9480
31
0
0
LINE
8
PIPES
6
CONTINUOUS
10
-5404.99
20
8980
30
0
11
-5404.99
21
9480
31
0
0
LINE
8
PIPES
6
CONTINUOUS
10
-4404.99
20
8980
30
0
11
-4404.99
21
9480
31
0
0
LINE
8
PIPES
6
CONTINUOUS
10
-8405
20
10980
30
0
11
-9405
21
10980
31
0
0
LINE
8
PIPES
6
CONTINUOUS
10
-8405
20
10980
30
0
11
-6905
21
10980
31
0
0
LINE
8
PIPES
6
CONTINUOUS
10
-5404.99
20
10980
30
0
11
-6905
21
10980
31
0
0
LINE
8
PIPES
6
CONTINUOUS
10
-5404.99
20
10980
30
0
11
-4404.99
21
10980
31
0
0
LINE
8
PIPES
6
CONTINUOUS
10
-9405
20
10980
30
0
11
-9405
21
12980.1
31
0
0
LINE
8
PIPES
6
CONTINUOUS
10
-8405
20
10980
30
0
11
-8405
21
12980.1
31
0
0
LINE
8
PIPES
6
CONTINUOUS
10
-6905
20
10980
30
0
11
-6905
21
12980.1
31
0
0
LINE
8
PIPES
6
CONTINUOUS
10
-5404.99
20
10980
30
0
11
-5404.99
21
12980.1
31
0
0
LINE
8
PIPES
6
CONTINUOUS
10
-4404.99
20
10980
30
0
11
-4404.99
21
12980.1
31
0
0
LINE
8
PIPES
6
CONTINUOUS
10
-8405
20
12980.1
30
0
11
-9405
21
12980.1
31
0
0
LINE
8
PIPES
6
CONTINUOUS
10
-8405
20
12980.1
30
0
11
-6905
21
12980.1
31
0
0
LINE
8
PIPES
6
CONTINUOUS
10
-5404.99
20
12980.1
30
0
11
-6905
21
12980.1
31
0
0
LINE
8
PIPES
6
CONTINUOUS
10
-5404.99
20
12980.1
30
0
11
-4404.99
21
12980.1
31
0
0
LINE
8
PIPES
6
CONTINUOUS
10
-9405
20
12980.1
30
0
11
-9405
21
13980.1
31
0
0
LINE
8
PIPES
6
CONTINUOUS
10
-8405
20
12980.1
30
0
11
-8405
21
13980.1
31
0
0
LINE
8
PIPES
6
CONTINUOUS
10
-6905
20
12980.1
30
0
11
-6905
21
13980.1
31
0
0
LINE
8
PIPES
6
CONTINUOUS
10
-5404.99
20
12980.1
30
0
11
-5404.99
21
13980.1
31
0
0
LINE
8
PIPES
6
CONTINUOUS
10
-4404.99
20
12980.1
30
0
11
-4404.99
21
13980.1
31
0
0
LINE
8
PIPES
6
CONTINUOUS
10
-8405
20
13980.1
30
0
11
-9405
21
13980.1
31
0
0
LINE
8
PIPES
6
CONTINUOUS
10
-8405
20
13980.1
30
0
11
-6905
21
13980.1
31
0
0
LINE
8
PIPES
6
CONTINUOUS
10
-5404.99
20
13980.1
30
0
11
-6905
21
13980.1
31
0
0
LINE
8
PIPES
6
CONTINUOUS
10
-5404.99
20
13980.1
30
0
11
-4404.99
21
13980.1
31
0
0
LINE
8
PIPES
6
CONTINUOUS
10
-8405
20
-13020
30
0
11
-9405
21
-14719.999
31
0
0
LINE
8
PIPES
6
CONTINUOUS
10
-6905
20
-13020
30
0
11
-8405
21
-14719.999
31
0
0
LINE
8
PIPES
6
CONTINUOUS
10
-5404.99
20
-13020
30
0
11
-6905
21
-14719.999
31
0
0
LINE
8
PIPES
6
CONTINUOUS
10
-4404.99
20
-13020
30
0
11
-5404.99
21
-14719.999
31
0
0
LINE
8
PIPES
6
CONTINUOUS
10
-9405
20
-11020
30
0
11
-8405
21
-13020
31
0
0
LINE
8
PIPES
6
CONTINUOUS
10
-8405
20
-11020
30
0
11
-6905
21
-13020
31
0
0
LINE
8
PIPES
6
CONTINUOUS
10
-6905
20
-11020
30
0
11
-5404.99
21
-13020
31
0
0
LINE
8
PIPES
6
CONTINUOUS
10
-5404.99
20
-11020
30
0
11
-4404.99
21
-13020
31
0
0
LINE
8
PIPES
6
CONTINUOUS
10
-9405
20
-9019.99
30
0
11
-8405
21
-11020
31
0
0
LINE
8
PIPES
6
CONTINUOUS
10
-8405
20
-9019.99
30
0
11
-6905
21
-11020
31
0
0
LINE
8
PIPES
6
CONTINUOUS
10
-6905
20
-9019.99
30
0
11
-5404.99
21
-11020
31
0
0
LINE
8
PIPES
6
CONTINUOUS
10
-5404.99
20
-9019.99
30
0
11
-4404.99
21
-11020
31
0
0
LINE
8
PIPES
6
CONTINUOUS
10
-9405
20
-7019.99
30
0
11
-8405
21
-9019.99
31
0
0
LINE
8
PIPES
6
CONTINUOUS
10
-8405
20
-7019.99
30
0
11
-6905
21
-9019.99
31
0
0
LINE
8
PIPES
6
CONTINUOUS
10
-6905
20
-7019.99
30
0
11
-5404.99
21
-9019.99
31
0
0
LINE
8
PIPES
6
CONTINUOUS
10
-5404.99
20
-7019.99
30
0
11
-4404.99
21
-9019.99
31
0
0
LINE
8
PIPES
6
CONTINUOUS
10
-9405
20
-5020
30
0
11
-8405
21
-7019.99
31
0
0
LINE
8
PIPES
6
CONTINUOUS
10
-8405
20
-5020
30
0
11
-6905
21
-7019.99
31
0
0
LINE
8
PIPES
6
CONTINUOUS
10
-6905
20
-5020
30
0
11
-5404.99
21
-7019.99
31
0
0
LINE
8
PIPES
6
CONTINUOUS
10
-5404.99
20
-5020
30
0
11
-4404.99
21
-7019.99
31
0
0
LINE
8
PIPES
6
CONTINUOUS
10
-9405
20
-3020
30
0
11
-8405
21
-5020
31
0
0
LINE
8
PIPES
6
CONTINUOUS
10
-8405
20
-3020
30
0
11
-6905
21
-5020
31
0
0
LINE
8
PIPES
6
CONTINUOUS
10
-6905
20
-3020
30
0
11
-5404.99
21
-5020
31
0
0
LINE
8
PIPES
6
CONTINUOUS
10
-5404.99
20
-3020
30
0
11
-4404.99
21
-5020
31
0
0
LINE
8
PIPES
6
CONTINUOUS
10
-9405
20
-1020
30
0
11
-8405
21
-3020
31
0
0
LINE
8
PIPES
6
CONTINUOUS
10
-8405
20
-1020
30
0
11
-6905
21
-3020
31
0
0
LINE
8
PIPES
6
CONTINUOUS
10
-6905
20
-1020
30
0
11
-5404.99
21
-3020
31
0
0
LINE
8
PIPES
6
CONTINUOUS
10
-5404.99
20
-1020
30
0
11
-4404.99
21
-3020
31
0
0
LINE
8
PIPES
6
CONTINUOUS
10
-9405
20
980
30
0
11
-8405
21
-1020
31
0
0
LINE
8
PIPES
6
CONTINUOUS
10
-8405
20
980
30
0
11
-6905
21
-1020
31
0
0
LINE
8
PIPES
6
CONTINUOUS
10
-6905
20
980
30
0
11
-5404.99
21
-1020
31
0
0
LINE
8
PIPES
6
CONTINUOUS
10
-5404.99
20
980
30
0
11
-4404.99
21
-1020
31
0
0
LINE
8
PIPES
6
CONTINUOUS
10
-9405
20
2980
30
0
11
-8405
21
980
31
0
0
LINE
8
PIPES
6
CONTINUOUS
10
-8405
20
2980
30
0
11
-6905
21
980
31
0
0
LINE
8
PIPES
6
CONTINUOUS
10
-6905
20
2980
30
0
11
-5404.99
21
980
31
0
0
LINE
8
PIPES
6
CONTINUOUS
10
-5404.99
20
2980
30
0
11
-4404.99
21
980
31
0
0
LINE
8
PIPES
6
CONTINUOUS
10
-9405
20
4980
30
0
11
-8405
21
2980
31
0
0
LINE
8
PIPES
6
CONTINUOUS
10
-8405
20
4980
30
0
11
-6905
21
2980
31
0
0
LINE
8
PIPES
6
CONTINUOUS
10
-6905
20
4980
30
0
11
-5404.99
21
2980
31
0
0
LINE
8
PIPES
6
CONTINUOUS
10
-5404.99
20
4980
30
0
11
-4404.99
21
2980
31
0
0
LINE
8
PIPES
6
CONTINUOUS
10
-9405
20
6980
30
0
11
-8405
21
4980
31
0
0
LINE
8
PIPES
6
CONTINUOUS
10
-8405
20
6980
30
0
11
-6905
21
4980
31
0
0
LINE
8
PIPES
6
CONTINUOUS
10
-6905
20
6980
30
0
11
-5404.99
21
4980
31
0
0
LINE
8
PIPES
6
CONTINUOUS
10
-5404.99
20
6980
30
0
11
-4404.99
21
4980
31
0
0
LINE
8
PIPES
6
CONTINUOUS
10
-9405
20
8980
30
0
11
-8405
21
6980
31
0
0
LINE
8
PIPES
6
CONTINUOUS
10
-8405
20
8980
30
0
11
-6905
21
6980
31
0
0
LINE
8
PIPES
6
CONTINUOUS
10
-6905
20
8980
30
0
11
-5404.99
21
6980
31
0
0
LINE
8
PIPES
6
CONTINUOUS
10
-5404.99
20
8980
30
0
11
-4404.99
21
6980
31
0
0
LINE
8
PIPES
6
CONTINUOUS
10
-9405
20
10980
30
0
11
-8405
21
8980
31
0
0
LINE
8
PIPES
6
CONTINUOUS
10
-8405
20
10980
30
0
11
-6905
21
8980
31
0
0
LINE
8
PIPES
6
CONTINUOUS
10
-6905
20
10980
30
0
11
-5404.99
21
8980
31
0
0
LINE
8
PIPES
6
CONTINUOUS
10
-5404.99
20
10980
30
0
11
-4404.99
21
8980
31
0
0
LINE
8
PIPES
6
CONTINUOUS
10
-9405
20
12980.1
30
0
11
-8405
21
10980
31
0
0
LINE
8
PIPES
6
CONTINUOUS
10
-8405
20
12980.1
30
0
11
-6905
21
10980
31
0
0
LINE
8
PIPES
6
CONTINUOUS
10
-6905
20
12980.1
30
0
11
-5404.99
21
10980
31
0
0
LINE
8
PIPES
6
CONTINUOUS
10
-5404.99
20
12980.1
30
0
11
-4404.99
21
10980
31
0
0
LINE
8
PIPES
6
CONTINUOUS
10
-9405
20
13980.1
30
0
11
-8405
21
12980.1
31
0
0
LINE
8
PIPES
6
CONTINUOUS
10
-8405
20
13980.1
30
0
11
-6905
21
12980.1
31
0
0
LINE
8
PIPES
6
CONTINUOUS
10
-6905
20
13980.1
30
0
11
-5404.99
21
12980.1
31
0
0
LINE
8
PIPES
6
CONTINUOUS
10
-5404.99
20
13980.1
30
0
11
-4404.99
21
12980.1
31
0
0
LINE
8
PIPES
6
CONTINUOUS
10
-9405
20
13980.1
30
0
11
-9405
21
14480.1
31
0
0
LINE
8
PIPES
6
CONTINUOUS
10
-8405
20
13980.1
30
0
11
-8405
21
14480.1
31
0
0
LINE
8
PIPES
6
CONTINUOUS
10
-6905
20
13980.1
30
0
11
-6905
21
14480.1
31
0
0
LINE
8
PIPES
6
CONTINUOUS
10
-5404.99
20
13980.1
30
0
11
-5404.99
21
14480.1
31
0
0
LINE
8
PIPES
6
CONTINUOUS
10
-4404.99
20
13980.1
30
0
11
-4404.99
21
14480.1
31
0
0
LINE
8
PIPES
6
CONTINUOUS
10
-8405
20
14480.1
30
0
11
-9405
21
14480.1
31
0
0
LINE
8
PIPES
6
CONTINUOUS
10
-8405
20
14480.1
30
0
11
-6905
21
14480.1
31
0
0
LINE
8
PIPES
6
CONTINUOUS
10
-5404.99
20
14480.1
30
0
11
-6905
21
14480.1
31
0
0
LINE
8
PIPES
6
CONTINUOUS
10
-5404.99
20
14480.1
30
0
11
-4404.99
21
14480.1
31
0
0
LINE
8
PIPES
6
CONTINUOUS
10
-9405
20
14480.1
30
0
11
-9405
21
14980.1
31
0
0
LINE
8
PIPES
6
CONTINUOUS
10
-8405
20
14480.1
30
0
11
-8405
21
14980.1
31
0
0
LINE
8
PIPES
6
CONTINUOUS
10
-6905
20
14480.1
30
0
11
-6905
21
14980.1
31
0
0
LINE
8
PIPES
6
CONTINUOUS
10
-5404.99
20
14480.1
30
0
11
-5404.99
21
14980.1
31
0
0
LINE
8
PIPES
6
CONTINUOUS
10
-4404.99
20
14480.1
30
0
11
-4404.99
21
14980.1
31
0
0
LINE
8
PIPES
6
CONTINUOUS
10
-8405
20
14980.1
30
0
11
-9405
21
14980.1
31
0
0
LINE
8
PIPES
6
CONTINUOUS
10
-8405
20
14980.1
30
0
11
-6905
21
14980.1
31
0
0
LINE
8
PIPES
6
CONTINUOUS
10
-5404.99
20
14980.1
30
0
11
-6905
21
14980.1
31
0
0
LINE
8
PIPES
6
CONTINUOUS
10
-5404.99
20
14980.1
30
0
11
-4404.99
21
14980.1
31
0
0
LINE
8
PIPES
6
CONTINUOUS
10
-9405
20
-8519.99
30
0
11
-9405
21
-8019.99
31
0
0
LINE
8
PIPES
6
CONTINUOUS
10
-8405
20
-8519.99
30
0
11
-8405
21
-8019.99
31
0
0
LINE
8
PIPES
6
CONTINUOUS
10
-6905
20
-8519.99
30
0
11
-6905
21
-8019.99
31
0
0
LINE
8
PIPES
6
CONTINUOUS
10
-5404.99
20
-8519.99
30
0
11
-5404.99
21
-8019.99
31
0
0
LINE
8
PIPES
6
CONTINUOUS
10
-4404.99
20
-8519.99
30
0
11
-4404.99
21
-8019.99
31
0
0
LINE
8
PIPES
6
CONTINUOUS
10
-9405
20
-2520
30
0
11
-9405
21
-2020
31
0
0
LINE
8
PIPES
6
CONTINUOUS
10
-8405
20
-2520
30
0
11
-8405
21
-2020
31
0
0
LINE
8
PIPES
6
CONTINUOUS
10
-6905
20
-2520
30
0
11
-6905
21
-2020
31
0
0
LINE
8
PIPES
6
CONTINUOUS
10
-5404.99
20
-2520
30
0
11
-5404.99
21
-2020
31
0
0
LINE
8
PIPES
6
CONTINUOUS
10
-4404.99
20
-2520
30
0
11
-4404.99
21
-2020
31
0
0
LINE
8
PIPES
6
CONTINUOUS
10
-9405
20
3480
30
0
11
-9405
21
3980
31
0
0
LINE
8
PIPES
6
CONTINUOUS
10
-8405
20
3480
30
0
11
-8405
21
3980
31
0
0
LINE
8
PIPES
6
CONTINUOUS
10
-6905
20
3480
30
0
11
-6905
21
3980
31
0
0
LINE
8
PIPES
6
CONTINUOUS
10
-5404.99
20
3480
30
0
11
-5404.99
21
3980
31
0
0
LINE
8
PIPES
6
CONTINUOUS
10
-4404.99
20
3480
30
0
11
-4404.99
21
3980
31
0
0
LINE
8
PIPES
6
CONTINUOUS
10
-9405
20
9480
30
0
11
-9405
21
9980
31
0
0
LINE
8
PIPES
6
CONTINUOUS
10
-8405
20
9480
30
0
11
-8405
21
9980
31
0
0
LINE
8
PIPES
6
CONTINUOUS
10
-6905
20
9480
30
0
11
-6905
21
9980
31
0
0
LINE
8
PIPES
6
CONTINUOUS
10
-5404.99
20
9480
30
0
11
-5404.99
21
9980
31
0
0
LINE
8
PIPES
6
CONTINUOUS
10
-4404.99
20
9480
30
0
11
-4404.99
21
9980
31
0
0
LINE
8
PIPES
6
CONTINUOUS
10
-8405
20
-8519.99
30
0
11
-9405
21
-8519.99
31
0
0
LINE
8
PIPES
6
CONTINUOUS
10
-8405
20
-8519.99
30
0
11
-6905
21
-8519.99
31
0
0
LINE
8
PIPES
6
CONTINUOUS
10
-5404.99
20
-8519.99
30
0
11
-6905
21
-8519.99
31
0
0
LINE
8
PIPES
6
CONTINUOUS
10
-5404.99
20
-8519.99
30
0
11
-4404.99
21
-8519.99
31
0
0
LINE
8
PIPES
6
CONTINUOUS
10
-8405
20
-2520
30
0
11
-9405
21
-2520
31
0
0
LINE
8
PIPES
6
CONTINUOUS
10
-8405
20
-2520
30
0
11
-6905
21
-2520
31
0
0
LINE
8
PIPES
6
CONTINUOUS
10
-5404.99
20
-2520
30
0
11
-6905
21
-2520
31
0
0
LINE
8
PIPES
6
CONTINUOUS
10
-5404.99
20
-2520
30
0
11
-4404.99
21
-2520
31
0
0
LINE
8
PIPES
6
CONTINUOUS
10
-8405
20
3480
30
0
11
-9405
21
3480
31
0
0
LINE
8
PIPES
6
CONTINUOUS
10
-8405
20
3480
30
0
11
-6905
21
3480
31
0
0
LINE
8
PIPES
6
CONTINUOUS
10
-5404.99
20
3480
30
0
11
-6905
21
3480
31
0
0
LINE
8
PIPES
6
CONTINUOUS
10
-5404.99
20
3480
30
0
11
-4404.99
21
3480
31
0
0
LINE
8
PIPES
6
CONTINUOUS
10
-8405
20
9480
30
0
11
-9405
21
9480
31
0
0
LINE
8
PIPES
6
CONTINUOUS
10
-8405
20
9480
30
0
11
-6905
21
9480
31
0
0
LINE
8
PIPES
6
CONTINUOUS
10
-5404.99
20
9480
30
0
11
-6905
21
9480
31
0
0
LINE
8
PIPES
6
CONTINUOUS
10
-5404.99
20
9480
30
0
11
-4404.99
21
9480
31
0
0
LINE
8
PIPES
6
CONTINUOUS
10
-9405
20
-8019.99
30
0
11
-9405
21
-7019.99
31
0
0
LINE
8
PIPES
6
CONTINUOUS
10
-8405
20
-8019.99
30
0
11
-8405
21
-7019.99
31
0
0
LINE
8
PIPES
6
CONTINUOUS
10
-6905
20
-8019.99
30
0
11
-6905
21
-7019.99
31
0
0
LINE
8
PIPES
6
CONTINUOUS
10
-5404.99
20
-8019.99
30
0
11
-5404.99
21
-7019.99
31
0
0
LINE
8
PIPES
6
CONTINUOUS
10
-4404.99
20
-8019.99
30
0
11
-4404.99
21
-7019.99
31
0
0
LINE
8
PIPES
6
CONTINUOUS
10
-9405
20
-2020
30
0
11
-9405
21
-1020
31
0
0
LINE
8
PIPES
6
CONTINUOUS
10
-8405
20
-2020
30
0
11
-8405
21
-1020
31
0
0
LINE
8
PIPES
6
CONTINUOUS
10
-6905
20
-2020
30
0
11
-6905
21
-1020
31
0
0
LINE
8
PIPES
6
CONTINUOUS
10
-5404.99
20
-2020
30
0
11
-5404.99
21
-1020
31
0
0
LINE
8
PIPES
6
CONTINUOUS
10
-4404.99
20
-2020
30
0
11
-4404.99
21
-1020
31
0
0
LINE
8
PIPES
6
CONTINUOUS
10
-9405
20
3980
30
0
11
-9405
21
4980
31
0
0
LINE
8
PIPES
6
CONTINUOUS
10
-8405
20
3980
30
0
11
-8405
21
4980
31
0
0
LINE
8
PIPES
6
CONTINUOUS
10
-6905
20
3980
30
0
11
-6905
21
4980
31
0
0
LINE
8
PIPES
6
CONTINUOUS
10
-5404.99
20
3980
30
0
11
-5404.99
21
4980
31
0
0
LINE
8
PIPES
6
CONTINUOUS
10
-4404.99
20
3980
30
0
11
-4404.99
21
4980
31
0
0
LINE
8
PIPES
6
CONTINUOUS
10
-9405
20
9980
30
0
11
-9405
21
10980
31
0
0
LINE
8
PIPES
6
CONTINUOUS
10
-8405
20
9980
30
0
11
-8405
21
10980
31
0
0
LINE
8
PIPES
6
CONTINUOUS
10
-6905
20
9980
30
0
11
-6905
21
10980
31
0
0
LINE
8
PIPES
6
CONTINUOUS
10
-5404.99
20
9980
30
0
11
-5404.99
21
10980
31
0
0
LINE
8
PIPES
6
CONTINUOUS
10
-4404.99
20
9980
30
0
11
-4404.99
21
10980
31
0
0
LINE
8
PIPES
6
CONTINUOUS
10
-8405
20
-8019.99
30
0
11
-9405
21
-8019.99
31
0
0
LINE
8
PIPES
6
CONTINUOUS
10
-8405
20
-8019.99
30
0
11
-6905
21
-8019.99
31
0
0
LINE
8
PIPES
6
CONTINUOUS
10
-5404.99
20
-8019.99
30
0
11
-6905
21
-8019.99
31
0
0
LINE
8
PIPES
6
CONTINUOUS
10
-5404.99
20
-8019.99
30
0
11
-4404.99
21
-8019.99
31
0
0
LINE
8
PIPES
6
CONTINUOUS
10
-8405
20
-2020
30
0
11
-9405
21
-2020
31
0
0
LINE
8
PIPES
6
CONTINUOUS
10
-8405
20
-2020
30
0
11
-6905
21
-2020
31
0
0
LINE
8
PIPES
6
CONTINUOUS
10
-5404.99
20
-2020
30
0
11
-6905
21
-2020
31
0
0
LINE
8
PIPES
6
CONTINUOUS
10
-5404.99
20
-2020
30
0
11
-4404.99
21
-2020
31
0
0
LINE
8
PIPES
6
CONTINUOUS
10
-8405
20
3980
30
0
11
-9405
21
3980
31
0
0
LINE
8
PIPES
6
CONTINUOUS
10
-8405
20
3980
30
0
11
-6905
21
3980
31
0
0
LINE
8
PIPES
6
CONTINUOUS
10
-5404.99
20
3980
30
0
11
-6905
21
3980
31
0
0
LINE
8
PIPES
6
CONTINUOUS
10
-5404.99
20
3980
30
0
11
-4404.99
21
3980
31
0
0
LINE
8
PIPES
6
CONTINUOUS
10
-8405
20
9980
30
0
11
-9405
21
9980
31
0
0
LINE
8
PIPES
6
CONTINUOUS
10
-8405
20
9980
30
0
11
-6905
21
9980
31
0
0
LINE
8
PIPES
6
CONTINUOUS
10
-5404.99
20
9980
30
0
11
-6905
21
9980
31
0
0
LINE
8
PIPES
6
CONTINUOUS
10
-5404.99
20
9980
30
0
11
-4404.99
21
9980
31
0
0
CIRCLE
8
BUBBLE
10
-9405
20
15320
30
0
40
120
0
TEXT
8
BUBBLE
10
-9405
20
15320
30
0
40
90
1
A
50
0
0
CIRCLE
8
BUBBLE
10
-8405
20
15320
30
0
40
120
0
TEXT
8
BUBBLE
10
-8405
20
15320
30
0
40
90
1
B
50
0
0
CIRCLE
8
BUBBLE
10
-6905
20
15320
30
0
40
120
0
TEXT
8
BUBBLE
10
-6905
20
15320
30
0
40
90
1
C
50
0
0
CIRCLE
8
BUBBLE
10
-5405
20
15320
30
0
40
120
0
TEXT
8
BUBBLE
10
-5405
20
15320
30
0
40
90
1
D
50
0
0
CIRCLE
8
BUBBLE
10
-4405
20
15320
30
0
40
120
0
TEXT
8
BUBBLE
10
-4405
20
15320
30
0
40
90
1
E
50
0
0
LINE
8
DIMENSION
6
CONTINUOUS
10
-9405
20
15040
30
0
11
-9405
21
15160
31
0
0
LINE
8
DIMENSION
6
CONTINUOUS
10
-8405
20
15040
30
0
11
-8405
21
15160
31
0
0
LINE
8
DIMENSION
6
CONTINUOUS
10
-9405
20
15160
30
0
11
-8405
21
15160
31
0
0
LINE
8
DIMENSION
6
CONTINUOUS
10
-9405
20
15160
30
0
11
-9456.9615
21
15190
31
0
0
LINE
8
DIMENSION
6
CONTINUOUS
10
-9405
20
15160
30
0
11
-9456.9615
21
15130
31
0
0
LINE
8
DIMENSION
6
CONTINUOUS
10
-8405
20
15160
30
0
11
-8353.0385
21
15130
31
0
0
LINE
8
DIMENSION
6
CONTINUOUS
10
-8405
20
15160
30
0
11
-8353.0385
21
15190
31
0
0
TEXT
8
DIMENSION
10
-8905
20
15330
30
0
40
70
1
1000
50
0
0
LINE
8
DIMENSION
6
CONTINUOUS
10
-8405
20
15040
30
0
11
-8405
21
15160
31
0
0
LINE
8
DIMENSION
6
CONTINUOUS
10
-6905
20
15040
30
0
11
-6905
21
15160
31
0
0
LINE
8
DIMENSION
6
CONTINUOUS
10
-8405
20
15160
30
0
11
-6905
21
15160
31
0
0
LINE
8
DIMENSION
6
CONTINUOUS
10
-8405
20
15160
30
0
11
-8456.9615
21
15190
31
0
0
LINE
8
DIMENSION
6
CONTINUOUS
10
-8405
20
15160
30
0
11
-8456.9615
21
15130
31
0
0
LINE
8
DIMENSION
6
CONTINUOUS
10
-6905
20
15160
30
0
11
-6853.0385
21
15130
31
0
0
LINE
8
DIMENSION
6
CONTINUOUS
10
-6905
20
15160
30
0
11
-6853.0385
21
15190
31
0
0
TEXT
8
DIMENSION
10
-7655
20
15330
30
0
40
70
1
1500
50
0
0
LINE
8
DIMENSION
6
CONTINUOUS
10
-6905
20
15040
30
0
11
-6905
21
15160
31
0
0
LINE
8
DIMENSION
6
CONTINUOUS
10
-5405
20
15040
30
0
11
-5405
21
15160
31
0
0
LINE
8
DIMENSION
6
CONTINUOUS
10
-6905
20
15160
30
0
11
-5405
21
15160
31
0
0
LINE
8
DIMENSION
6
CONTINUOUS
10
-6905
20
15160
30
0
11
-6956.9615
21
15190
31
0
0
LINE
8
DIMENSION
6
CONTINUOUS
10
-6905
20
15160
30
0
11
-6956.9615
21
15130
31
0
0
LINE
8
DIMENSION
6
CONTINUOUS
10
-5405
20
15160
30
0
11
-5353.0385
21
15130
31
0
0
LINE
8
DIMENSION
6
CONTINUOUS
10
-5405
20
15160
30
0
11
-5353.0385
21
15190
31
0
0
TEXT
8
DIMENSION
10
-6155
20
15330
30
0
40
70
1
1500
50
0
0
LINE
8
DIMENSION
6
CONTINUOUS
10
-5405
20
15040
30
0
11
-5405
21
15160
31
0
0
LINE
8
DIMENSION
6
CONTINUOUS
10
-4405
20
15040
30
0
11
-4405
21
15160
31
0
0
LINE
8
DIMENSION
6
CONTINUOUS
10
-5405
20
15160
30
0
11
-4405
21
15160
31
0
0
LINE
8
DIMENSION
6
CONTINUOUS
10
-5405
20
15160
30
0
11
-5456.9615
21
15190
31
0
0
LINE
8
DIMENSION
6
CONTINUOUS
10
-5405
20
15160
30
0
11
-5456.9615
21
15130
31
0
0
LINE
8
DIMENSION
6
CONTINUOUS
10
-4405
20
15160
30
0
11
-4353.0385
21
15130
31
0
0
LINE
8
DIMENSION
6
CONTINUOUS
10
-4405
20
15160
30
0
11
-4353.0385
21
15190
31
0
0
TEXT
8
DIMENSION
10
-4905
20
15330
30
0
40
70
1
1000
50
0
0
LINE
8
DIMENSION
6
CONTINUOUS
10
-9465
20
-14720
30
0
11
-9745
21
-14720
31
0
0
LINE
8
DIMENSION
6
CONTINUOUS
10
-9465
20
-13020
30
0
11
-9745
21
-13020
31
0
0
LINE
8
DIMENSION
6
CONTINUOUS
10
-9745
20
-14720
30
0
11
-9745
21
-13020
31
0
0
LINE
8
DIMENSION
6
CONTINUOUS
10
-9745
20
-14720
30
0
11
-9775
21
-14771.9615
31
0
0
LINE
8
DIMENSION
6
CONTINUOUS
10
-9745
20
-14720
30
0
11
-9715
21
-14771.9615
31
0
0
LINE
8
DIMENSION
6
CONTINUOUS
10
-9745
20
-13020
30
0
11
-9715
21
-12968.0385
31
0
0
LINE
8
DIMENSION
6
CONTINUOUS
10
-9745
20
-13020
30
0
11
-9775
21
-12968.0385
31
0
0
TEXT
8
DIMENSION
10
-9915
20
-13870
30
0
40
70
1
1700
50
90
0
LINE
8
DIMENSION
6
CONTINUOUS
10
-9465
20
-13020
30
0
11
-9745
21
-13020
31
0
0
LINE
8
DIMENSION
6
CONTINUOUS
10
-9465
20
-11020
30
0
11
-9745
21
-11020
31
0
0
LINE
8
DIMENSION
6
CONTINUOUS
10
-9745
20
-13020
30
0
11
-9745
21
-11020
31
0
0
LINE
8
DIMENSION
6
CONTINUOUS
10
-9745
20
-13020
30
0
11
-9775
21
-13071.9615
31
0
0
LINE
8
DIMENSION
6
CONTINUOUS
10
-9745
20
-13020
30
0
11
-9715
21
-13071.9615
31
0
0
LINE
8
DIMENSION
6
CONTINUOUS
10
-9745
20
-11020
30
0
11
-9715
21
-10968.0385
31
0
0
LINE
8
DIMENSION
6
CONTINUOUS
10
-9745
20
-11020
30
0
11
-9775
21
-10968.0385
31
0
0
TEXT
8
DIMENSION
10
-9915
20
-12020
30
0
40
70
1
2000
50
90
0
LINE
8
DIMENSION
6
CONTINUOUS
10
-9465
20
-11020
30
0
11
-9745
21
-11020
31
0
0
LINE
8
DIMENSION
6
CONTINUOUS
10
-9465
20
-9020
30
0
11
-9745
21
-9020
31
0
0
LINE
8
DIMENSION
6
CONTINUOUS
10
-9745
20
-11020
30
0
11
-9745
21
-9020
31
0
0
LINE
8
DIMENSION
6
CONTINUOUS
10
-9745
20
-11020
30
0
11
-9775
21
-11071.9615
31
0
0
LINE
8
DIMENSION
6
CONTINUOUS
10
-9745
20
-11020
30
0
11
-9715
21
-11071.9615
31
0
0
LINE
8
DIMENSION
6
CONTINUOUS
10
-9745
20
-9020
30
0
11
-9715
21
-8968.0385
31
0
0
LINE
8
DIMENSION
6
CONTINUOUS
10
-9745
20
-9020
30
0
11
-9775
21
-8968.0385
31
0
0
TEXT
8
DIMENSION
10
-9915
20
-10020
30
0
40
70
1
2000
50
90
0
LINE
8
DIMENSION
6
CONTINUOUS
10
-9465
20
-9020
30
0
11
-9745
21
-9020
31
0
0
LINE
8
DIMENSION
6
CONTINUOUS
10
-9465
20
-8520
30
0
11
-9745
21
-8520
31
0
0
LINE
8
DIMENSION
6
CONTINUOUS
10
-9745
20
-9020
30
0
11
-9745
21
-8520
31
0
0
LINE
8
DIMENSION
6
CONTINUOUS
10
-9745
20
-9020
30
0
11
-9775
21
-9071.9615
31
0
0
LINE
8
DIMENSION
6
CONTINUOUS
10
-9745
20
-9020
30
0
11
-9715
21
-9071.9615
31
0
0
LINE
8
DIMENSION
6
CONTINUOUS
10
-9745
20
-8520
30
0
11
-9715
21
-8468.0385
31
0
0
LINE
8
DIMENSION
6
CONTINUOUS
10
-9745
20
-8520
30
0
11
-9775
21
-8468.0385
31
0
0
TEXT
8
DIMENSION
10
-9915
20
-8770
30
0
40
70
1
500
50
90
0
LINE
8
DIMENSION
6
CONTINUOUS
10
-9465
20
-8520
30
0
11
-9745
21
-8520
31
0
0
LINE
8
DIMENSION
6
CONTINUOUS
10
-9465
20
-8020
30
0
11
-9745
21
-8020
31
0
0
LINE
8
DIMENSION
6
CONTINUOUS
10
-9745
20
-8520
30
0
11
-9745
21
-8020
31
0
0
LINE
8
DIMENSION
6
CONTINUOUS
10
-9745
20
-8520
30
0
11
-9775
21
-8571.9615
31
0
0
LINE
8
DIMENSION
6
CONTINUOUS
10
-9745
20
-8520
30
0
11
-9715
21
-8571.9615
31
0
0
LINE
8
DIMENSION
6
CONTINUOUS
10
-9745
20
-8020
30
0
11
-9715
21
-7968.0385
31
0
0
LINE
8
DIMENSION
6
CONTINUOUS
10
-9745
20
-8020
30
0
11
-9775
21
-7968.0385
31
0
0
TEXT
8
DIMENSION
10
-9915
20
-8270
30
0
40
70
1
500
50
90
0
LINE
8
DIMENSION
6
CONTINUOUS
10
-9465
20
-8020
30
0
11
-9745
21
-8020
31
0
0
LINE
8
DIMENSION
6
CONTINUOUS
10
-9465
20
-7020
30
0
11
-9745
21
-7020
31
0
0
LINE
8
DIMENSION
6
CONTINUOUS
10
-9745
20
-8020
30
0
11
-9745
21
-7020
31
0
0
LINE
8
DIMENSION
6
CONTINUOUS
10
-9745
20
-8020
30
0
11
-9775
21
-8071.9615
31
0
0
LINE
8
DIMENSION
6
CONTINUOUS
10
-9745
20
-8020
30
0
11
-9715
21
-8071.9615
31
0
0
LINE
8
DIMENSION
6
CONTINUOUS
10
-9745
20
-7020
30
0
11
-9715
21
-6968.0385
31
0
0
LINE
8
DIMENSION
6
CONTINUOUS
10
-9745
20
-7020
30
0
11
-9775
21
-6968.0385
31
0
0
TEXT
8
DIMENSION
10
-9915
20
-7520
30
0
40
70
1
1000
50
90
0
LINE
8
DIMENSION
6
CONTINUOUS
10
-9465
20
-7020
30
0
11
-9745
21
-7020
31
0
0
LINE
8
DIMENSION
6
CONTINUOUS
10
-9465
20
-5020
30
0
11
-9745
21
-5020
31
0
0
LINE
8
DIMENSION
6
CONTINUOUS
10
-9745
20
-7020
30
0
11
-9745
21
-5020
31
0
0
LINE
8
DIMENSION
6
CONTINUOUS
10
-9745
20
-7020
30
0
11
-9775
21
-7071.9615
31
0
0
LINE
8
DIMENSION
6
CONTINUOUS
10
-9745
20
-7020
30
0
11
-9715
21
-7071.9615
31
0
0
LINE
8
DIMENSION
6
CONTINUOUS
10
-9745
20
-5020
30
0
11
-9715
21
-4968.0385
31
0
0
LINE
8
DIMENSION
6
CONTINUOUS
10
-9745
20
-5020
30
0
11
-9775
21
-4968.0385
31
0
0
TEXT
8
DIMENSION
10
-9915
20
-6020
30
0
40
70
1
2000
50
90
0
LINE
8
DIMENSION
6
CONTINUOUS
10
-9465
20
-5020
30
0
11
-9745
21
-5020
31
0
0
LINE
8
DIMENSION
6
CONTINUOUS
10
-9465
20
-3020
30
0
11
-9745
21
-3020
31
0
0
LINE
8
DIMENSION
6
CONTINUOUS
10
-9745
20
-5020
30
0
11
-9745
21
-3020
31
0
0
LINE
8
DIMENSION
6
CONTINUOUS
10
-9745
20
-5020
30
0
11
-9775
21
-5071.9615
31
0
0
LINE
8
DIMENSION
6
CONTINUOUS
10
-9745
20
-5020
30
0
11
-9715
21
-5071.9615
31
0
0
LINE
8
DIMENSION
6
CONTINUOUS
10
-9745
20
-3020
30
0
11
-9715
21
-2968.0385
31
0
0
LINE
8
DIMENSION
6
CONTINUOUS
10
-9745
20
-3020
30
0
11
-9775
21
-2968.0385
31
0
0
TEXT
8
DIMENSION
10
-9915
20
-4020
30
0
40
70
1
2000
50
90
0
LINE
8
DIMENSION
6
CONTINUOUS
10
-9465
20
-3020
30
0
11
-9745
21
-3020
31
0
0
LINE
8
DIMENSION
6
CONTINUOUS
10
-9465
20
-2520
30
0
11
-9745
21
-2520
31
0
0
LINE
8
DIMENSION
6
CONTINUOUS
10
-9745
20
-3020
30
0
11
-9745
21
-2520
31
0
0
LINE
8
DIMENSION
6
CONTINUOUS
10
-9745
20
-3020
30
0
11
-9775
21
-3071.9615
31
0
0
LINE
8
DIMENSION
6
CONTINUOUS
10
-9745
20
-3020
30
0
11
-9715
21
-3071.9615
31
0
0
LINE
8
DIMENSION
6
CONTINUOUS
10
-9745
20
-2520
30
0
11
-9715
21
-2468.0385
31
0
0
LINE
8
DIMENSION
6
CONTINUOUS
10
-9745
20
-2520
30
0
11
-9775
21
-2468.0385
31
0
0
TEXT
8
DIMENSION
10
-9915
20
-2770
30
0
40
70
1
500
50
90
0
LINE
8
DIMENSION
6
CONTINUOUS
10
-9465
20
-2520
30
0
11
-9745
21
-2520
31
0
0
LINE
8
DIMENSION
6
CONTINUOUS
10
-9465
20
-2020
30
0
11
-9745
21
-2020
31
0
0
LINE
8
DIMENSION
6
CONTINUOUS
10
-9745
20
-2520
30
0
11
-9745
21
-2020
31
0
0
LINE
8
DIMENSION
6
CONTINUOUS
10
-9745
20
-2520
30
0
11
-9775
21
-2571.9615
31
0
0
LINE
8
DIMENSION
6
CONTINUOUS
10
-9745
20
-2520
30
0
11
-9715
21
-2571.9615
31
0
0
LINE
8
DIMENSION
6
CONTINUOUS
10
-9745
20
-2020
30
0
11
-9715
21
-1968.0385
31
0
0
LINE
8
DIMENSION
6
CONTINUOUS
10
-9745
20
-2020
30
0
11
-9775
21
-1968.0385
31
0
0
TEXT
8
DIMENSION
10
-9915
20
-2270
30
0
40
70
1
500
50
90
0
LINE
8
DIMENSION
6
CONTINUOUS
10
-9465
20
-2020
30
0
11
-9745
21
-2020
31
0
0
LINE
8
DIMENSION
6
CONTINUOUS
10
-9465
20
-1020
30
0
11
-9745
21
-1020
31
0
0
LINE
8
DIMENSION
6
CONTINUOUS
10
-9745
20
-2020
30
0
11
-9745
21
-1020
31
0
0
LINE
8
DIMENSION
6
CONTINUOUS
10
-9745
20
-2020
30
0
11
-9775
21
-2071.9615
31
0
0
LINE
8
DIMENSION
6
CONTINUOUS
10
-9745
20
-2020
30
0
11
-9715
21
-2071.9615
31
0
0
LINE
8
DIMENSION
6
CONTINUOUS
10
-9745
20
-1020
30
0
11
-9715
21
-968.0385
31
0
0
LINE
8
DIMENSION
6
CONTINUOUS
10
-9745
20
-1020
30
0
11
-9775
21
-968.0385
31
0
0
TEXT
8
DIMENSION
10
-9915
20
-1520
30
0
40
70
1
1000
50
90
0
LINE
8
DIMENSION
6
CONTINUOUS
10
-9465
20
-1020
30
0
11
-9745
21
-1020
31
0
0
LINE
8
DIMENSION
6
CONTINUOUS
10
-9465
20
980
30
0
11
-9745
21
980
31
0
0
LINE
8
DIMENSION
6
CONTINUOUS
10
-9745
20
-1020
30
0
11
-9745
21
980
31
0
0
LINE
8
DIMENSION
6
CONTINUOUS
10
-9745
20
-1020
30
0
11
-9775
21
-1071.9615
31
0
0
LINE
8
DIMENSION
6
CONTINUOUS
10
-9745
20
-1020
30
0
11
-9715
21
-1071.9615
31
0
0
LINE
8
DIMENSION
6
CONTINUOUS
10
-9745
20
980
30
0
11
-9715
21
1031.9615
31
0
0
LINE
8
DIMENSION
6
CONTINUOUS
10
-9745
20
980
30
0
11
-9775
21
1031.9615
31
0
0
TEXT
8
DIMENSION
10
-9915
20
-20
30
0
40
70
1
2000
50
90
0
LINE
8
DIMENSION
6
CONTINUOUS
10
-9465
20
980
30
0
11
-9745
21
980
31
0
0
LINE
8
DIMENSION
6
CONTINUOUS
10
-9465
20
2980
30
0
11
-9745
21
2980
31
0
0
LINE
8
DIMENSION
6
CONTINUOUS
10
-9745
20
980
30
0
11
-9745
21
2980
31
0
0
LINE
8
DIMENSION
6
CONTINUOUS
10
-9745
20
980
30
0
11
-9775
21
928.0385
31
0
0
LINE
8
DIMENSION
6
CONTINUOUS
10
-9745
20
980
30
0
11
-9715
21
928.0385
31
0
0
LINE
8
DIMENSION
6
CONTINUOUS
10
-9745
20
2980
30
0
11
-9715
21
3031.9615
31
0
0
LINE
8
DIMENSION
6
CONTINUOUS
10
-9745
20
2980
30
0
11
-9775
21
3031.9615
31
0
0
TEXT
8
DIMENSION
10
-9915
20
1980
30
0
40
70
1
2000
50
90
0
LINE
8
DIMENSION
6
CONTINUOUS
10
-9465
20
2980
30
0
11
-9745
21
2980
31
0
0
LINE
8
DIMENSION
6
CONTINUOUS
10
-9465
20
3480
30
0
11
-9745
21
3480
31
0
0
LINE
8
DIMENSION
6
CONTINUOUS
10
-9745
20
2980
30
0
11
-9745
21
3480
31
0
0
LINE
8
DIMENSION
6
CONTINUOUS
10
-9745
20
2980
30
0
11
-9775
21
2928.0385
31
0
0
LINE
8
DIMENSION
6
CONTINUOUS
10
-9745
20
2980
30
0
11
-9715
21
2928.0385
31
0
0
LINE
8
DIMENSION
6
CONTINUOUS
10
-9745
20
3480
30
0
11
-9715
21
3531.9615
31
0
0
LINE
8
DIMENSION
6
CONTINUOUS
10
-9745
20
3480
30
0
11
-9775
21
3531.9615
31
0
0
TEXT
8
DIMENSION
10
-9915
20
3230
30
0
40
70
1
500
50
90
0
LINE
8
DIMENSION
6
CONTINUOUS
10
-9465
20
3480
30
0
11
-9745
21
3480
31
0
0
LINE
8
DIMENSION
6
CONTINUOUS
10
-9465
20
3980
30
0
11
-9745
21
3980
31
0
0
LINE
8
DIMENSION
6
CONTINUOUS
10
-9745
20
3480
30
0
11
-9745
21
3980
31
0
0
LINE
8
DIMENSION
6
CONTINUOUS
10
-9745
20
3480
30
0
11
-9775
21
3428.0385
31
0
0
LINE
8
DIMENSION
6
CONTINUOUS
10
-9745
20
3480
30
0
11
-9715
21
3428.0385
31
0
0
LINE
8
DIMENSION
6
CONTINUOUS
10
-9745
20
3980
30
0
11
-9715
21
4031.9615
31
0
0
LINE
8
DIMENSION
6
CONTINUOUS
10
-9745
20
3980
30
0
11
-9775
21
4031.9615
31
0
0
TEXT
8
DIMENSION
10
-9915
20
3730
30
0
40
70
1
500
50
90
0
LINE
8
DIMENSION
6
CONTINUOUS
10
-9465
20
3980
30
0
11
-9745
21
3980
31
0
0
LINE
8
DIMENSION
6
CONTINUOUS
10
-9465
20
4980
30
0
11
-9745
21
4980
31
0
0
LINE
8
DIMENSION
6
CONTINUOUS
10
-9745
20
3980
30
0
11
-9745
21
4980
31
0
0
LINE
8
DIMENSION
6
CONTINUOUS
10
-9745
20
3980
30
0
11
-9775
21
3928.0385
31
0
0
LINE
8
DIMENSION
6
CONTINUOUS
10
-9745
20
3980
30
0
11
-9715
21
3928.0385
31
0
0
LINE
8
DIMENSION
6
CONTINUOUS
10
-9745
20
4980
30
0
11
-9715
21
5031.9615
31
0
0
LINE
8
DIMENSION
6
CONTINUOUS
10
-9745
20
4980
30
0
11
-9775
21
5031.9615
31
0
0
TEXT
8
DIMENSION
10
-9915
20
4480
30
0
40
70
1
1000
50
90
0
LINE
8
DIMENSION
6
CONTINUOUS
10
-9465
20
4980
30
0
11
-9745
21
4980
31
0
0
LINE
8
DIMENSION
6
CONTINUOUS
10
-9465
20
6980
30
0
11
-9745
21
6980
31
0
0
LINE
8
DIMENSION
6
CONTINUOUS
10
-9745
20
4980
30
0
11
-9745
21
6980
31
0
0
LINE
8
DIMENSION
6
CONTINUOUS
10
-9745
20
4980
30
0
11
-9775
21
4928.0385
31
0
0
LINE
8
DIMENSION
6
CONTINUOUS
10
-9745
20
4980
30
0
11
-9715
21
4928.0385
31
0
0
LINE
8
DIMENSION
6
CONTINUOUS
10
-9745
20
6980
30
0
11
-9715
21
7031.9615
31
0
0
LINE
8
DIMENSION
6
CONTINUOUS
10
-9745
20
6980
30
0
11
-9775
21
7031.9615
31
0
0
TEXT
8
DIMENSION
10
-9915
20
5980
30
0
40
70
1
2000
50
90
0
LINE
8
DIMENSION
6
CONTINUOUS
10
-9465
20
6980
30
0
11
-9745
21
6980
31
0
0
LINE
8
DIMENSION
6
CONTINUOUS
10
-9465
20
8980
30
0
11
-9745
21
8980
31
0
0
LINE
8
DIMENSION
6
CONTINUOUS
10
-9745
20
6980
30
0
11
-9745
21
8980
31
0
0
LINE
8
DIMENSION
6
CONTINUOUS
10
-9745
20
6980
30
0
11
-9775
21
6928.0385
31
0
0
LINE
8
DIMENSION
6
CONTINUOUS
10
-9745
20
6980
30
0
11
-9715
21
6928.0385
31
0
0
LINE
8
DIMENSION
6
CONTINUOUS
10
-9745
20
8980
30
0
11
-9715
21
9031.9615
31
0
0
LINE
8
DIMENSION
6
CONTINUOUS
10
-9745
20
8980
30
0
11
-9775
21
9031.9615
31
0
0
TEXT
8
DIMENSION
10
-9915
20
7980
30
0
40
70
1
2000
50
90
0
LINE
8
DIMENSION
6
CONTINUOUS
10
-9465
20
8980
30
0
11
-9745
21
8980
31
0
0
LINE
8
DIMENSION
6
CONTINUOUS
10
-9465
20
9480
30
0
11
-9745
21
9480
31
0
0
LINE
8
DIMENSION
6
CONTINUOUS
10
-9745
20
8980
30
0
11
-9745
21
9480
31
0
0
LINE
8
DIMENSION
6
CONTINUOUS
10
-9745
20
8980
30
0
11
-9775
21
8928.0385
31
0
0
LINE
8
DIMENSION
6
CONTINUOUS
10
-9745
20
8980
30
0
11
-9715
21
8928.0385
31
0
0
LINE
8
DIMENSION
6
CONTINUOUS
10
-9745
20
9480
30
0
11
-9715
21
9531.9615
31
0
0
LINE
8
DIMENSION
6
CONTINUOUS
10
-9745
20
9480
30
0
11
-9775
21
9531.9615
31
0
0
TEXT
8
DIMENSION
10
-9915
20
9230
30
0
40
70
1
500
50
90
0
LINE
8
DIMENSION
6
CONTINUOUS
10
-9465
20
9480
30
0
11
-9745
21
9480
31
0
0
LINE
8
DIMENSION
6
CONTINUOUS
10
-9465
20
9980
30
0
11
-9745
21
9980
31
0
0
LINE
8
DIMENSION
6
CONTINUOUS
10
-9745
20
9480
30
0
11
-9745
21
9980
31
0
0
LINE
8
DIMENSION
6
CONTINUOUS
10
-9745
20
9480
30
0
11
-9775
21
9428.0385
31
0
0
LINE
8
DIMENSION
6
CONTINUOUS
10
-9745
20
9480
30
0
11
-9715
21
9428.0385
31
0
0
LINE
8
DIMENSION
6
CONTINUOUS
10
-9745
20
9980
30
0
11
-9715
21
10031.9615
31
0
0
LINE
8
DIMENSION
6
CONTINUOUS
10
-9745
20
9980
30
0
11
-9775
21
10031.9615
31
0
0
TEXT
8
DIMENSION
10
-9915
20
9730
30
0
40
70
1
500
50
90
0
LINE
8
DIMENSION
6
CONTINUOUS
10
-9465
20
9980
30
0
11
-9745
21
9980
31
0
0
LINE
8
DIMENSION
6
CONTINUOUS
10
-9465
20
10980
30
0
11
-9745
21
10980
31
0
0
LINE
8
DIMENSION
6
CONTINUOUS
10
-9745
20
9980
30
0
11
-9745
21
10980
31
0
0
LINE
8
DIMENSION
6
CONTINUOUS
10
-9745
20
9980
30
0
11
-9775
21
9928.0385
31
0
0
LINE
8
DIMENSION
6
CONTINUOUS
10
-9745
20
9980
30
0
11
-9715
21
9928.0385
31
0
0
LINE
8
DIMENSION
6
CONTINUOUS
10
-9745
20
10980
30
0
11
-9715
21
11031.9615
31
0
0
LINE
8
DIMENSION
6
CONTINUOUS
10
-9745
20
10980
30
0
11
-9775
21
11031.9615
31
0
0
TEXT
8
DIMENSION
10
-9915
20
10480
30
0
40
70
1
1000
50
90
0
LINE
8
DIMENSION
6
CONTINUOUS
10
-9465
20
10980
30
0
11
-9745
21
10980
31
0
0
LINE
8
DIMENSION
6
CONTINUOUS
10
-9465
20
12980
30
0
11
-9745
21
12980
31
0
0
LINE
8
DIMENSION
6
CONTINUOUS
10
-9745
20
10980
30
0
11
-9745
21
12980
31
0
0
LINE
8
DIMENSION
6
CONTINUOUS
10
-9745
20
10980
30
0
11
-9775
21
10928.0385
31
0
0
LINE
8
DIMENSION
6
CONTINUOUS
10
-9745
20
10980
30
0
11
-9715
21
10928.0385
31
0
0
LINE
8
DIMENSION
6
CONTINUOUS
10
-9745
20
12980
30
0
11
-9715
21
13031.9615
31
0
0
LINE
8
DIMENSION
6
CONTINUOUS
10
-9745
20
12980
30
0
11
-9775
21
13031.9615
31
0
0
TEXT
8
DIMENSION
10
-9915
20
11980
30
0
40
70
1
2000
50
90
0
LINE
8
DIMENSION
6
CONTINUOUS
10
-9465
20
12980
30
0
11
-9745
21
12980
31
0
0
LINE
8
DIMENSION
6
CONTINUOUS
10
-9465
20
13980
30
0
11
-9745
21
13980
31
0
0
LINE
8
DIMENSION
6
CONTINUOUS
10
-9745
20
12980
30
0
11
-9745
21
13980
31
0
0
LINE
8
DIMENSION
6
CONTINUOUS
10
-9745
20
12980
30
0
11
-9775
21
12928.0385
31
0
0
LINE
8
DIMENSION
6
CONTINUOUS
10
-9745
20
12980
30
0
11
-9715
21
12928.0385
31
0
0
LINE
8
DIMENSION
6
CONTINUOUS
10
-9745
20
13980
30
0
11
-9715
21
14031.9615
31
0
0
LINE
8
DIMENSION
6
CONTINUOUS
10
-9745
20
13980
30
0
11
-9775
21
14031.9615
31
0
0
TEXT
8
DIMENSION
10
-9915
20
13480
30
0
40
70
1
1000
50
90
0
LINE
8
DIMENSION
6
CONTINUOUS
10
-9465
20
13980
30
0
11
-9745
21
13980
31
0
0
LINE
8
DIMENSION
6
CONTINUOUS
10
-9465
20
14480
30
0
11
-9745
21
14480
31
0
0
LINE
8
DIMENSION
6
CONTINUOUS
10
-9745
20
13980
30
0
11
-9745
21
14480
31
0
0
LINE
8
DIMENSION
6
CONTINUOUS
10
-9745
20
13980
30
0
11
-9775
21
13928.0385
31
0
0
LINE
8
DIMENSION
6
CONTINUOUS
10
-9745
20
13980
30
0
11
-9715
21
13928.0385
31
0
0
LINE
8
DIMENSION
6
CONTINUOUS
10
-9745
20
14480
30
0
11
-9715
21
14531.9615
31
0
0
LINE
8
DIMENSION
6
CONTINUOUS
10
-9745
20
14480
30
0
11
-9775
21
14531.9615
31
0
0
TEXT
8
DIMENSION
10
-9915
20
14230
30
0
40
70
1
500
50
90
0
LINE
8
DIMENSION
6
CONTINUOUS
10
-9465
20
14480
30
0
11
-9745
21
14480
31
0
0
LINE
8
DIMENSION
6
CONTINUOUS
10
-9465
20
14980
30
0
11
-9745
21
14980
31
0
0
LINE
8
DIMENSION
6
CONTINUOUS
10
-9745
20
14480
30
0
11
-9745
21
14980
31
0
0
LINE
8
DIMENSION
6
CONTINUOUS
10
-9745
20
14480
30
0
11
-9775
21
14428.0385
31
0
0
LINE
8
DIMENSION
6
CONTINUOUS
10
-9745
20
14480
30
0
11
-9715
21
14428.0385
31
0
0
LINE
8
DIMENSION
6
CONTINUOUS
10
-9745
20
14980
30
0
11
-9715
21
15031.9615
31
0
0
LINE
8
DIMENSION
6
CONTINUOUS
10
-9745
20
14980
30
0
11
-9775
21
15031.9615
31
0
0
TEXT
8
DIMENSION
10
-9915
20
14730
30
0
40
70
1
500
50
90
0
TEXT
8
DIMENSION
10
-6905
20
-15280
30
0
40
70
1
SIDE VIEW TYPICAL FOR
50
0
0
TEXT
8
DIMENSION
10
-6905
20
-15440
30
0
40
70
1
GRID LINE 1, 5 (A-E)
50
0
0
LINE
8
PIPES
6
CONTINUOUS
10
-2305
20
-15020
30
0
11
-2305
21
-14719.999
31
0
0
LINE
8
PIPES
6
CONTINUOUS
10
-1305
20
-15020
30
0
11
-1305
21
-14719.999
31
0
0
LINE
8
PIPES
6
CONTINUOUS
10
195
20
-15020
30
0
11
195
21
-14719.999
31
0
0
LINE
8
PIPES
6
CONTINUOUS
10
1695.01
20
-15020
30
0
11
1695.01
21
-14719.999
31
0
0
LINE
8
PIPES
6
CONTINUOUS
10
2695.01
20
-15020
30
0
11
2695.01
21
-14719.999
31
0
0
LINE
8
PIPES
6
CONTINUOUS
10
-1305
20
-14719.999
30
0
11
-2305
21
-14719.999
31
0
0
LINE
8
PIPES
6
CONTINUOUS
10
195
20
-14719.999
30
0
11
-1305
21
-14719.999
31
0
0
LINE
8
PIPES
6
CONTINUOUS
10
195
20
-14719.999
30
0
11
1695.01
21
-14719.999
31
0
0
LINE
8
PIPES
6
CONTINUOUS
10
2695.01
20
-14719.999
30
0
11
1695.01
21
-14719.999
31
0
0
LINE
8
PIPES
6
CONTINUOUS
10
-2305
20
-14719.999
30
0
11
-2305
21
-13020
31
0
0
LINE
8
PIPES
6
CONTINUOUS
10
-1305
20
-14719.999
30
0
11
-1305
21
-13020
31
0
0
LINE
8
PIPES
6
CONTINUOUS
10
195
20
-14719.999
30
0
11
195
21
-13020
31
0
0
LINE
8
PIPES
6
CONTINUOUS
10
1695.01
20
-14719.999
30
0
11
1695.01
21
-13020
31
0
0
LINE
8
PIPES
6
CONTINUOUS
10
2695.01
20
-14719.999
30
0
11
2695.01
21
-13020
31
0
0
LINE
8
PIPES
6
CONTINUOUS
10
-1305
20
-13020
30
0
11
-2305
21
-13020
31
0
0
LINE
8
PIPES
6
CONTINUOUS
10
195
20
-13020
30
0
11
-1305
21
-13020
31
0
0
LINE
8
PIPES
6
CONTINUOUS
10
195
20
-13020
30
0
11
1695.01
21
-13020
31
0
0
LINE
8
PIPES
6
CONTINUOUS
10
2695.01
20
-13020
30
0
11
1695.01
21
-13020
31
0
0
LINE
8
PIPES
6
CONTINUOUS
10
-2305
20
-13020
30
0
11
-2305
21
-11020
31
0
0
LINE
8
PIPES
6
CONTINUOUS
10
-1305
20
-13020
30
0
11
-1305
21
-11020
31
0
0
LINE
8
PIPES
6
CONTINUOUS
10
195
20
-13020
30
0
11
195
21
-11020
31
0
0
LINE
8
PIPES
6
CONTINUOUS
10
1695.01
20
-13020
30
0
11
1695.01
21
-11020
31
0
0
LINE
8
PIPES
6
CONTINUOUS
10
2695.01
20
-13020
30
0
11
2695.01
21
-11020
31
0
0
LINE
8
PIPES
6
CONTINUOUS
10
-1305
20
-11020
30
0
11
-2305
21
-11020
31
0
0
LINE
8
PIPES
6
CONTINUOUS
10
195
20
-11020
30
0
11
-1305
21
-11020
31
0
0
LINE
8
PIPES
6
CONTINUOUS
10
195
20
-11020
30
0
11
1695.01
21
-11020
31
0
0
LINE
8
PIPES
6
CONTINUOUS
10
2695.01
20
-11020
30
0
11
1695.01
21
-11020
31
0
0
LINE
8
PIPES
6
CONTINUOUS
10
-2305
20
-11020
30
0
11
-2305
21
-9019.99
31
0
0
LINE
8
PIPES
6
CONTINUOUS
10
-1305
20
-11020
30
0
11
-1305
21
-9019.99
31
0
0
LINE
8
PIPES
6
CONTINUOUS
10
195
20
-11020
30
0
11
195
21
-9019.99
31
0
0
LINE
8
PIPES
6
CONTINUOUS
10
1695.01
20
-11020
30
0
11
1695.01
21
-9019.99
31
0
0
LINE
8
PIPES
6
CONTINUOUS
10
2695.01
20
-11020
30
0
11
2695.01
21
-9019.99
31
0
0
LINE
8
PIPES
6
CONTINUOUS
10
-1305
20
-9019.99
30
0
11
-2305
21
-9019.99
31
0
0
LINE
8
PIPES
6
CONTINUOUS
10
195
20
-9019.99
30
0
11
-1305
21
-9019.99
31
0
0
LINE
8
PIPES
6
CONTINUOUS
10
195
20
-9019.99
30
0
11
1695.01
21
-9019.99
31
0
0
LINE
8
PIPES
6
CONTINUOUS
10
2695.01
20
-9019.99
30
0
11
1695.01
21
-9019.99
31
0
0
LINE
8
PIPES
6
CONTINUOUS
10
-2305
20
-9019.99
30
0
11
-2305
21
-8519.99
31
0
0
LINE
8
PIPES
6
CONTINUOUS
10
-1305
20
-9019.99
30
0
11
-1305
21
-8519.99
31
0
0
LINE
8
PIPES
6
CONTINUOUS
10
195
20
-9019.99
30
0
11
195
21
-8519.99
31
0
0
LINE
8
PIPES
6
CONTINUOUS
10
1695.01
20
-9019.99
30
0
11
1695.01
21
-8519.99
31
0
0
LINE
8
PIPES
6
CONTINUOUS
10
2695.01
20
-9019.99
30
0
11
2695.01
21
-8519.99
31
0
0
LINE
8
PIPES
6
CONTINUOUS
10
-1305
20
-7019.99
30
0
11
-2305
21
-7019.99
31
0
0
LINE
8
PIPES
6
CONTINUOUS
10
195
20
-7019.99
30
0
11
-1305
21
-7019.99
31
0
0
LINE
8
PIPES
6
CONTINUOUS
10
195
20
-7019.99
30
0
11
1695.01
21
-7019.99
31
0
0
LINE
8
PIPES
6
CONTINUOUS
10
2695.01
20
-7019.99
30
0
11
1695.01
21
-7019.99
31
0
0
LINE
8
PIPES
6
CONTINUOUS
10
-2305
20
-7019.99
30
0
11
-2305
21
-5020
31
0
0
LINE
8
PIPES
6
CONTINUOUS
10
-1305
20
-7019.99
30
0
11
-1305
21
-5020
31
0
0
LINE
8
PIPES
6
CONTINUOUS
10
195
20
-7019.99
30
0
11
195
21
-5020
31
0
0
LINE
8
PIPES
6
CONTINUOUS
10
1695.01
20
-7019.99
30
0
11
1695.01
21
-5020
31
0
0
LINE
8
PIPES
6
CONTINUOUS
10
2695.01
20
-7019.99
30
0
11
2695.01
21
-5020
31
0
0
LINE
8
PIPES
6
CONTINUOUS
10
-1305
20
-5020
30
0
11
-2305
21
-5020
31
0
0
LINE
8
PIPES
6
CONTINUOUS
10
195
20
-5020
30
0
11
-1305
21
-5020
31
0
0
LINE
8
PIPES
6
CONTINUOUS
10
195
20
-5020
30
0
11
1695.01
21
-5020
31
0
0
LINE
8
PIPES
6
CONTINUOUS
10
2695.01
20
-5020
30
0
11
1695.01
21
-5020
31
0
0
LINE
8
PIPES
6
CONTINUOUS
10
-2305
20
-5020
30
0
11
-2305
21
-3020
31
0
0
LINE
8
PIPES
6
CONTINUOUS
10
-1305
20
-5020
30
0
11
-1305
21
-3020
31
0
0
LINE
8
PIPES
6
CONTINUOUS
10
195
20
-5020
30
0
11
195
21
-3020
31
0
0
LINE
8
PIPES
6
CONTINUOUS
10
1695.01
20
-5020
30
0
11
1695.01
21
-3020
31
0
0
LINE
8
PIPES
6
CONTINUOUS
10
2695.01
20
-5020
30
0
11
2695.01
21
-3020
31
0
0
LINE
8
PIPES
6
CONTINUOUS
10
-1305
20
-3020
30
0
11
-2305
21
-3020
31
0
0
LINE
8
PIPES
6
CONTINUOUS
10
195
20
-3020
30
0
11
-1305
21
-3020
31
0
0
LINE
8
PIPES
6
CONTINUOUS
10
195
20
-3020
30
0
11
1695.01
21
-3020
31
0
0
LINE
8
PIPES
6
CONTINUOUS
10
2695.01
20
-3020
30
0
11
1695.01
21
-3020
31
0
0
LINE
8
PIPES
6
CONTINUOUS
10
-2305
20
-3020
30
0
11
-2305
21
-2520
31
0
0
LINE
8
PIPES
6
CONTINUOUS
10
-1305
20
-3020
30
0
11
-1305
21
-2520
31
0
0
LINE
8
PIPES
6
CONTINUOUS
10
195
20
-3020
30
0
11
195
21
-2520
31
0
0
LINE
8
PIPES
6
CONTINUOUS
10
1695.01
20
-3020
30
0
11
1695.01
21
-2520
31
0
0
LINE
8
PIPES
6
CONTINUOUS
10
2695.01
20
-3020
30
0
11
2695.01
21
-2520
31
0
0
LINE
8
PIPES
6
CONTINUOUS
10
-1305
20
-1020
30
0
11
-2305
21
-1020
31
0
0
LINE
8
PIPES
6
CONTINUOUS
10
195
20
-1020
30
0
11
-1305
21
-1020
31
0
0
LINE
8
PIPES
6
CONTINUOUS
10
195
20
-1020
30
0
11
1695.01
21
-1020
31
0
0
LINE
8
PIPES
6
CONTINUOUS
10
2695.01
20
-1020
30
0
11
1695.01
21
-1020
31
0
0
LINE
8
PIPES
6
CONTINUOUS
10
-2305
20
-1020
30
0
11
-2305
21
980
31
0
0
LINE
8
PIPES
6
CONTINUOUS
10
-1305
20
-1020
30
0
11
-1305
21
980
31
0
0
LINE
8
PIPES
6
CONTINUOUS
10
195
20
-1020
30
0
11
195
21
980
31
0
0
LINE
8
PIPES
6
CONTINUOUS
10
1695.01
20
-1020
30
0
11
1695.01
21
980
31
0
0
LINE
8
PIPES
6
CONTINUOUS
10
2695.01
20
-1020
30
0
11
2695.01
21
980
31
0
0
LINE
8
PIPES
6
CONTINUOUS
10
-1305
20
980
30
0
11
-2305
21
980
31
0
0
LINE
8
PIPES
6
CONTINUOUS
10
195
20
980
30
0
11
-1305
21
980
31
0
0
LINE
8
PIPES
6
CONTINUOUS
10
195
20
980
30
0
11
1695.01
21
980
31
0
0
LINE
8
PIPES
6
CONTINUOUS
10
2695.01
20
980
30
0
11
1695.01
21
980
31
0
0
LINE
8
PIPES
6
CONTINUOUS
10
-2305
20
980
30
0
11
-2305
21
2980
31
0
0
LINE
8
PIPES
6
CONTINUOUS
10
-1305
20
980
30
0
11
-1305
21
2980
31
0
0
LINE
8
PIPES
6
CONTINUOUS
10
195
20
980
30
0
11
195
21
2980
31
0
0
LINE
8
PIPES
6
CONTINUOUS
10
1695.01
20
980
30
0
11
1695.01
21
2980
31
0
0
LINE
8
PIPES
6
CONTINUOUS
10
2695.01
20
980
30
0
11
2695.01
21
2980
31
0
0
LINE
8
PIPES
6
CONTINUOUS
10
-1305
20
2980
30
0
11
-2305
21
2980
31
0
0
LINE
8
PIPES
6
CONTINUOUS
10
195
20
2980
30
0
11
-1305
21
2980
31
0
0
LINE
8
PIPES
6
CONTINUOUS
10
195
20
2980
30
0
11
1695.01
21
2980
31
0
0
LINE
8
PIPES
6
CONTINUOUS
10
2695.01
20
2980
30
0
11
1695.01
21
2980
31
0
0
LINE
8
PIPES
6
CONTINUOUS
10
-2305
20
2980
30
0
11
-2305
21
3480
31
0
0
LINE
8
PIPES
6
CONTINUOUS
10
-1305
20
2980
30
0
11
-1305
21
3480
31
0
0
LINE
8
PIPES
6
CONTINUOUS
10
195
20
2980
30
0
11
195
21
3480
31
0
0
LINE
8
PIPES
6
CONTINUOUS
10
1695.01
20
2980
30
0
11
1695.01
21
3480
31
0
0
LINE
8
PIPES
6
CONTINUOUS
10
2695.01
20
2980
30
0
11
2695.01
21
3480
31
0
0
LINE
8
PIPES
6
CONTINUOUS
10
-1305
20
4980
30
0
11
-2305
21
4980
31
0
0
LINE
8
PIPES
6
CONTINUOUS
10
195
20
4980
30
0
11
-1305
21
4980
31
0
0
LINE
8
PIPES
6
CONTINUOUS
10
195
20
4980
30
0
11
1695.01
21
4980
31
0
0
LINE
8
PIPES
6
CONTINUOUS
10
2695.01
20
4980
30
0
11
1695.01
21
4980
31
0
0
LINE
8
PIPES
6
CONTINUOUS
10
-2305
20
4980
30
0
11
-2305
21
6980
31
0
0
LINE
8
PIPES
6
CONTINUOUS
10
-1305
20
4980
30
0
11
-1305
21
6980
31
0
0
LINE
8
PIPES
6
CONTINUOUS
10
195
20
4980
30
0
11
195
21
6980
31
0
0
LINE
8
PIPES
6
CONTINUOUS
10
1695.01
20
4980
30
0
11
1695.01
21
6980
31
0
0
LINE
8
PIPES
6
CONTINUOUS
10
2695.01
20
4980
30
0
11
2695.01
21
6980
31
0
0
LINE
8
PIPES
6
CONTINUOUS
10
-1305
20
6980
30
0
11
-2305
21
6980
31
0
0
LINE
8
PIPES
6
CONTINUOUS
10
195
20
6980
30
0
11
-1305
21
6980
31
0
0
LINE
8
PIPES
6
CONTINUOUS
10
195
20
6980
30
0
11
1695.01
21
6980
31
0
0
LINE
8
PIPES
6
CONTINUOUS
10
2695.01
20
6980
30
0
11
1695.01
21
6980
31
0
0
LINE
8
PIPES
6
CONTINUOUS
10
-2305
20
6980
30
0
11
-2305
21
8980
31
0
0
LINE
8
PIPES
6
CONTINUOUS
10
-1305
20
6980
30
0
11
-1305
21
8980
31
0
0
LINE
8
PIPES
6
CONTINUOUS
10
195
20
6980
30
0
11
195
21
8980
31
0
0
LINE
8
PIPES
6
CONTINUOUS
10
1695.01
20
6980
30
0
11
1695.01
21
8980
31
0
0
LINE
8
PIPES
6
CONTINUOUS
10
2695.01
20
6980
30
0
11
2695.01
21
8980
31
0
0
LINE
8
PIPES
6
CONTINUOUS
10
-1305
20
8980
30
0
11
-2305
21
8980
31
0
0
LINE
8
PIPES
6
CONTINUOUS
10
195
20
8980
30
0
11
-1305
21
8980
31
0
0
LINE
8
PIPES
6
CONTINUOUS
10
195
20
8980
30
0
11
1695.01
21
8980
31
0
0
LINE
8
PIPES
6
CONTINUOUS
10
2695.01
20
8980
30
0
11
1695.01
21
8980
31
0
0
LINE
8
PIPES
6
CONTINUOUS
10
-2305
20
8980
30
0
11
-2305
21
9480
31
0
0
LINE
8
PIPES
6
CONTINUOUS
10
-1305
20
8980
30
0
11
-1305
21
9480
31
0
0
LINE
8
PIPES
6
CONTINUOUS
10
195
20
8980
30
0
11
195
21
9480
31
0
0
LINE
8
PIPES
6
CONTINUOUS
10
1695.01
20
8980
30
0
11
1695.01
21
9480
31
0
0
LINE
8
PIPES
6
CONTINUOUS
10
2695.01
20
8980
30
0
11
2695.01
21
9480
31
0
0
LINE
8
PIPES
6
CONTINUOUS
10
-1305
20
10980
30
0
11
-2305
21
10980
31
0
0
LINE
8
PIPES
6
CONTINUOUS
10
195
20
10980
30
0
11
-1305
21
10980
31
0
0
LINE
8
PIPES
6
CONTINUOUS
10
195
20
10980
30
0
11
1695.01
21
10980
31
0
0
LINE
8
PIPES
6
CONTINUOUS
10
2695.01
20
10980
30
0
11
1695.01
21
10980
31
0
0
LINE
8
PIPES
6
CONTINUOUS
10
-2305
20
10980
30
0
11
-2305
21
12980.1
31
0
0
LINE
8
PIPES
6
CONTINUOUS
10
-1305
20
10980
30
0
11
-1305
21
12980.1
31
0
0
LINE
8
PIPES
6
CONTINUOUS
10
195
20
10980
30
0
11
195
21
12980.1
31
0
0
LINE
8
PIPES
6
CONTINUOUS
10
1695.01
20
10980
30
0
11
1695.01
21
12980.1
31
0
0
LINE
8
PIPES
6
CONTINUOUS
10
2695.01
20
10980
30
0
11
2695.01
21
12980.1
31
0
0
LINE
8
PIPES
6
CONTINUOUS
10
-1305
20
12980.1
30
0
11
-2305
21
12980.1
31
0
0
LINE
8
PIPES
6
CONTINUOUS
10
195
20
12980.1
30
0
11
-1305
21
12980.1
31
0
0
LINE
8
PIPES
6
CONTINUOUS
10
195
20
12980.1
30
0
11
1695.01
21
12980.1
31
0
0
LINE
8
PIPES
6
CONTINUOUS
10
2695.01
20
12980.1
30
0
11
1695.01
21
12980.1
31
0
0
LINE
8
PIPES
6
CONTINUOUS
10
-2305
20
12980.1
30
0
11
-2305
21
13980.1
31
0
0
LINE
8
PIPES
6
CONTINUOUS
10
-1305
20
12980.1
30
0
11
-1305
21
13980.1
31
0
0
LINE
8
PIPES
6
CONTINUOUS
10
195
20
12980.1
30
0
11
195
21
13980.1
31
0
0
LINE
8
PIPES
6
CONTINUOUS
10
1695.01
20
12980.1
30
0
11
1695.01
21
13980.1
31
0
0
LINE
8
PIPES
6
CONTINUOUS
10
2695.01
20
12980.1
30
0
11
2695.01
21
13980.1
31
0
0
LINE
8
PIPES
6
CONTINUOUS
10
-1305
20
13980.1
30
0
11
-2305
21
13980.1
31
0
0
LINE
8
PIPES
6
CONTINUOUS
10
195
20
13980.1
30
0
11
-1305
21
13980.1
31
0
0
LINE
8
PIPES
6
CONTINUOUS
10
195
20
13980.1
30
0
11
1695.01
21
13980.1
31
0
0
LINE
8
PIPES
6
CONTINUOUS
10
2695.01
20
13980.1
30
0
11
1695.01
21
13980.1
31
0
0
LINE
8
PIPES
6
CONTINUOUS
10
-2305
20
-13020
30
0
11
-1305
21
-14719.999
31
0
0
LINE
8
PIPES
6
CONTINUOUS
10
-1305
20
-13020
30
0
11
195
21
-14719.999
31
0
0
LINE
8
PIPES
6
CONTINUOUS
10
195
20
-13020
30
0
11
1695.01
21
-14719.999
31
0
0
LINE
8
PIPES
6
CONTINUOUS
10
1695.01
20
-13020
30
0
11
2695.01
21
-14719.999
31
0
0
LINE
8
PIPES
6
CONTINUOUS
10
-1305
20
-11020
30
0
11
-2305
21
-13020
31
0
0
LINE
8
PIPES
6
CONTINUOUS
10
195
20
-11020
30
0
11
-1305
21
-13020
31
0
0
LINE
8
PIPES
6
CONTINUOUS
10
1695.01
20
-11020
30
0
11
195
21
-13020
31
0
0
LINE
8
PIPES
6
CONTINUOUS
10
2695.01
20
-11020
30
0
11
1695.01
21
-13020
31
0
0
LINE
8
PIPES
6
CONTINUOUS
10
-1305
20
-9019.99
30
0
11
-2305
21
-11020
31
0
0
LINE
8
PIPES
6
CONTINUOUS
10
195
20
-9019.99
30
0
11
-1305
21
-11020
31
0
0
LINE
8
PIPES
6
CONTINUOUS
10
1695.01
20
-9019.99
30
0
11
195
21
-11020
31
0
0
LINE
8
PIPES
6
CONTINUOUS
10
2695.01
20
-9019.99
30
0
11
1695.01
21
-11020
31
0
0
LINE
8
PIPES
6
CONTINUOUS
10
-1305
20
-7019.99
30
0
11
-2305
21
-9019.99
31
0
0
LINE
8
PIPES
6
CONTINUOUS
10
195
20
-7019.99
30
0
11
-1305
21
-9019.99
31
0
0
LINE
8
PIPES
6
CONTINUOUS
10
1695.01
20
-7019.99
30
0
11
195
21
-9019.99
31
0
0
LINE
8
PIPES
6
CONTINUOUS
10
2695.01
20
-7019.99
30
0
11
1695.01
21
-9019.99
31
0
0
LINE
8
PIPES
6
CONTINUOUS
10
-1305
20
-5020
30
0
11
-2305
21
-7019.99
31
0
0
LINE
8
PIPES
6
CONTINUOUS
10
195
20
-5020
30
0
11
-1305
21
-7019.99
31
0
0
LINE
8
PIPES
6
CONTINUOUS
10
1695.01
20
-5020
30
0
11
195
21
-7019.99
31
0
0
LINE
8
PIPES
6
CONTINUOUS
10
2695.01
20
-5020
30
0
11
1695.01
21
-7019.99
31
0
0
LINE
8
PIPES
6
CONTINUOUS
10
-1305
20
-3020
30
0
11
-2305
21
-5020
31
0
0
LINE
8
PIPES
6
CONTINUOUS
10
195
20
-3020
30
0
11
-1305
21
-5020
31
0
0
LINE
8
PIPES
6
CONTINUOUS
10
1695.01
20
-3020
30
0
11
195
21
-5020
31
0
0
LINE
8
PIPES
6
CONTINUOUS
10
2695.01
20
-3020
30
0
11
1695.01
21
-5020
31
0
0
LINE
8
PIPES
6
CONTINUOUS
10
-1305
20
-1020
30
0
11
-2305
21
-3020
31
0
0
LINE
8
PIPES
6
CONTINUOUS
10
195
20
-1020
30
0
11
-1305
21
-3020
31
0
0
LINE
8
PIPES
6
CONTINUOUS
10
1695.01
20
-1020
30
0
11
195
21
-3020
31
0
0
LINE
8
PIPES
6
CONTINUOUS
10
2695.01
20
-1020
30
0
11
1695.01
21
-3020
31
0
0
LINE
8
PIPES
6
CONTINUOUS
10
-1305
20
980
30
0
11
-2305
21
-1020
31
0
0
LINE
8
PIPES
6
CONTINUOUS
10
195
20
980
30
0
11
-1305
21
-1020
31
0
0
LINE
8
PIPES
6
CONTINUOUS
10
1695.01
20
980
30
0
11
195
21
-1020
31
0
0
LINE
8
PIPES
6
CONTINUOUS
10
2695.01
20
980
30
0
11
1695.01
21
-1020
31
0
0
LINE
8
PIPES
6
CONTINUOUS
10
-1305
20
2980
30
0
11
-2305
21
980
31
0
0
LINE
8
PIPES
6
CONTINUOUS
10
195
20
2980
30
0
11
-1305
21
980
31
0
0
LINE
8
PIPES
6
CONTINUOUS
10
1695.01
20
2980
30
0
11
195
21
980
31
0
0
LINE
8
PIPES
6
CONTINUOUS
10
2695.01
20
2980
30
0
11
1695.01
21
980
31
0
0
LINE
8
PIPES
6
CONTINUOUS
10
-1305
20
4980
30
0
11
-2305
21
2980
31
0
0
LINE
8
PIPES
6
CONTINUOUS
10
195
20
4980
30
0
11
-1305
21
2980
31
0
0
LINE
8
PIPES
6
CONTINUOUS
10
1695.01
20
4980
30
0
11
195
21
2980
31
0
0
LINE
8
PIPES
6
CONTINUOUS
10
2695.01
20
4980
30
0
11
1695.01
21
2980
31
0
0
LINE
8
PIPES
6
CONTINUOUS
10
-1305
20
6980
30
0
11
-2305
21
4980
31
0
0
LINE
8
PIPES
6
CONTINUOUS
10
195
20
6980
30
0
11
-1305
21
4980
31
0
0
LINE
8
PIPES
6
CONTINUOUS
10
1695.01
20
6980
30
0
11
195
21
4980
31
0
0
LINE
8
PIPES
6
CONTINUOUS
10
2695.01
20
6980
30
0
11
1695.01
21
4980
31
0
0
LINE
8
PIPES
6
CONTINUOUS
10
-1305
20
8980
30
0
11
-2305
21
6980
31
0
0
LINE
8
PIPES
6
CONTINUOUS
10
195
20
8980
30
0
11
-1305
21
6980
31
0
0
LINE
8
PIPES
6
CONTINUOUS
10
1695.01
20
8980
30
0
11
195
21
6980
31
0
0
LINE
8
PIPES
6
CONTINUOUS
10
2695.01
20
8980
30
0
11
1695.01
21
6980
31
0
0
LINE
8
PIPES
6
CONTINUOUS
10
-1305
20
10980
30
0
11
-2305
21
8980
31
0
0
LINE
8
PIPES
6
CONTINUOUS
10
195
20
10980
30
0
11
-1305
21
8980
31
0
0
LINE
8
PIPES
6
CONTINUOUS
10
1695.01
20
10980
30
0
11
195
21
8980
31
0
0
LINE
8
PIPES
6
CONTINUOUS
10
2695.01
20
10980
30
0
11
1695.01
21
8980
31
0
0
LINE
8
PIPES
6
CONTINUOUS
10
-1305
20
12980.1
30
0
11
-2305
21
10980
31
0
0
LINE
8
PIPES
6
CONTINUOUS
10
195
20
12980.1
30
0
11
-1305
21
10980
31
0
0
LINE
8
PIPES
6
CONTINUOUS
10
1695.01
20
12980.1
30
0
11
195
21
10980
31
0
0
LINE
8
PIPES
6
CONTINUOUS
10
2695.01
20
12980.1
30
0
11
1695.01
21
10980
31
0
0
LINE
8
PIPES
6
CONTINUOUS
10
-1305
20
13980.1
30
0
11
-2305
21
12980.1
31
0
0
LINE
8
PIPES
6
CONTINUOUS
10
195
20
13980.1
30
0
11
-1305
21
12980.1
31
0
0
LINE
8
PIPES
6
CONTINUOUS
10
1695.01
20
13980.1
30
0
11
195
21
12980.1
31
0
0
LINE
8
PIPES
6
CONTINUOUS
10
2695.01
20
13980.1
30
0
11
1695.01
21
12980.1
31
0
0
LINE
8
PIPES
6
CONTINUOUS
10
-2305
20
13980.1
30
0
11
-2305
21
14480.1
31
0
0
LINE
8
PIPES
6
CONTINUOUS
10
-1305
20
13980.1
30
0
11
-1305
21
14480.1
31
0
0
LINE
8
PIPES
6
CONTINUOUS
10
195
20
13980.1
30
0
11
195
21
14480.1
31
0
0
LINE
8
PIPES
6
CONTINUOUS
10
1695.01
20
13980.1
30
0
11
1695.01
21
14480.1
31
0
0
LINE
8
PIPES
6
CONTINUOUS
10
2695.01
20
13980.1
30
0
11
2695.01
21
14480.1
31
0
0
LINE
8
PIPES
6
CONTINUOUS
10
195
20
14480.1
30
0
11
-1305
21
14480.1
31
0
0
LINE
8
PIPES
6
CONTINUOUS
10
195
20
14480.1
30
0
11
1695.01
21
14480.1
31
0
0
LINE
8
PIPES
6
CONTINUOUS
10
-2305
20
14480.1
30
0
11
-2305
21
14980.1
31
0
0
LINE
8
PIPES
6
CONTINUOUS
10
-1305
20
14480.1
30
0
11
-1305
21
14980.1
31
0
0
LINE
8
PIPES
6
CONTINUOUS
10
195
20
14480.1
30
0
11
195
21
14980.1
31
0
0
LINE
8
PIPES
6
CONTINUOUS
10
1695.01
20
14480.1
30
0
11
1695.01
21
14980.1
31
0
0
LINE
8
PIPES
6
CONTINUOUS
10
2695.01
20
14480.1
30
0
11
2695.01
21
14980.1
31
0
0
LINE
8
PIPES
6
CONTINUOUS
10
195
20
14980.1
30
0
11
-1305
21
14980.1
31
0
0
LINE
8
PIPES
6
CONTINUOUS
10
195
20
14980.1
30
0
11
1695.01
21
14980.1
31
0
0
LINE
8
PIPES
6
CONTINUOUS
10
-2305
20
-8519.99
30
0
11
-2305
21
-8019.99
31
0
0
LINE
8
PIPES
6
CONTINUOUS
10
-1305
20
-8519.99
30
0
11
-1305
21
-8019.99
31
0
0
LINE
8
PIPES
6
CONTINUOUS
10
195
20
-8519.99
30
0
11
195
21
-8019.99
31
0
0
LINE
8
PIPES
6
CONTINUOUS
10
1695.01
20
-8519.99
30
0
11
1695.01
21
-8019.99
31
0
0
LINE
8
PIPES
6
CONTINUOUS
10
2695.01
20
-8519.99
30
0
11
2695.01
21
-8019.99
31
0
0
LINE
8
PIPES
6
CONTINUOUS
10
-2305
20
-2520
30
0
11
-2305
21
-2020
31
0
0
LINE
8
PIPES
6
CONTINUOUS
10
-1305
20
-2520
30
0
11
-1305
21
-2020
31
0
0
LINE
8
PIPES
6
CONTINUOUS
10
195
20
-2520
30
0
11
195
21
-2020
31
0
0
LINE
8
PIPES
6
CONTINUOUS
10
1695.01
20
-2520
30
0
11
1695.01
21
-2020
31
0
0
LINE
8
PIPES
6
CONTINUOUS
10
2695.01
20
-2520
30
0
11
2695.01
21
-2020
31
0
0
LINE
8
PIPES
6
CONTINUOUS
10
-2305
20
3480
30
0
11
-2305
21
3980
31
0
0
LINE
8
PIPES
6
CONTINUOUS
10
-1305
20
3480
30
0
11
-1305
21
3980
31
0
0
LINE
8
PIPES
6
CONTINUOUS
10
195
20
3480
30
0
11
195
21
3980
31
0
0
LINE
8
PIPES
6
CONTINUOUS
10
1695.01
20
3480
30
0
11
1695.01
21
3980
31
0
0
LINE
8
PIPES
6
CONTINUOUS
10
2695.01
20
3480
30
0
11
2695.01
21
3980
31
0
0
LINE
8
PIPES
6
CONTINUOUS
10
-2305
20
9480
30
0
11
-2305
21
9980
31
0
0
LINE
8
PIPES
6
CONTINUOUS
10
-1305
20
9480
30
0
11
-1305
21
9980
31
0
0
LINE
8
PIPES
6
CONTINUOUS
10
195
20
9480
30
0
11
195
21
9980
31
0
0
LINE
8
PIPES
6
CONTINUOUS
10
1695.01
20
9480
30
0
11
1695.01
21
9980
31
0
0
LINE
8
PIPES
6
CONTINUOUS
10
2695.01
20
9480
30
0
11
2695.01
21
9980
31
0
0
LINE
8
PIPES
6
CONTINUOUS
10
195
20
-8519.99
30
0
11
-1305
21
-8519.99
31
0
0
LINE
8
PIPES
6
CONTINUOUS
10
195
20
-8519.99
30
0
11
1695.01
21
-8519.99
31
0
0
LINE
8
PIPES
6
CONTINUOUS
10
195
20
-2520
30
0
11
-1305
21
-2520
31
0
0
LINE
8
PIPES
6
CONTINUOUS
10
195
20
-2520
30
0
11
1695.01
21
-2520
31
0
0
LINE
8
PIPES
6
CONTINUOUS
10
195
20
3480
30
0
11
-1305
21
3480
31
0
0
LINE
8
PIPES
6
CONTINUOUS
10
195
20
3480
30
0
11
1695.01
21
3480
31
0
0
LINE
8
PIPES
6
CONTINUOUS
10
195
20
9480
30
0
11
-1305
21
9480
31
0
0
LINE
8
PIPES
6
CONTINUOUS
10
195
20
9480
30
0
11
1695.01
21
9480
31
0
0
LINE
8
PIPES
6
CONTINUOUS
10
-2305
20
-8019.99
30
0
11
-2305
21
-7019.99
31
0
0
LINE
8
PIPES
6
CONTINUOUS
10
-1305
20
-8019.99
30
0
11
-1305
21
-7019.99
31
0
0
LINE
8
PIPES
6
CONTINUOUS
10
195
20
-8019.99
30
0
11
195
21
-7019.99
31
0
0
LINE
8
PIPES
6
CONTINUOUS
10
1695.01
20
-8019.99
30
0
11
1695.01
21
-7019.99
31
0
0
LINE
8
PIPES
6
CONTINUOUS
10
2695.01
20
-8019.99
30
0
11
2695.01
21
-7019.99
31
0
0
LINE
8
PIPES
6
CONTINUOUS
10
-2305
20
-2020
30
0
11
-2305
21
-1020
31
0
0
LINE
8
PIPES
6
CONTINUOUS
10
-1305
20
-2020
30
0
11
-1305
21
-1020
31
0
0
LINE
8
PIPES
6
CONTINUOUS
10
195
20
-2020
30
0
11
195
21
-1020
31
0
0
LINE
8
PIPES
6
CONTINUOUS
10
1695.01
20
-2020
30
0
11
1695.01
21
-1020
31
0
0
LINE
8
PIPES
6
CONTINUOUS
10
2695.01
20
-2020
30
0
11
2695.01
21
-1020
31
0
0
LINE
8
PIPES
6
CONTINUOUS
10
-2305
20
3980
30
0
11
-2305
21
4980
31
0
0
LINE
8
PIPES
6
CONTINUOUS
10
-1305
20
3980
30
0
11
-1305
21
4980
31
0
0
LINE
8
PIPES
6
CONTINUOUS
10
195
20
3980
30
0
11
195
21
4980
31
0
0
LINE
8
PIPES
6
CONTINUOUS
10
1695.01
20
3980
30
0
11
1695.01
21
4980
31
0
0
LINE
8
PIPES
6
CONTINUOUS
10
2695.01
20
3980
30
0
11
2695.01
21
4980
31
0
0
LINE
8
PIPES
6
CONTINUOUS
10
-2305
20
9980
30
0
11
-2305
21
10980
31
0
0
LINE
8
PIPES
6
CONTINUOUS
10
-1305
20
9980
30
0
11
-1305
21
10980
31
0
0
LINE
8
PIPES
6
CONTINUOUS
10
195
20
9980
30
0
11
195
21
10980
31
0
0
LINE
8
PIPES
6
CONTINUOUS
10
1695.01
20
9980
30
0
11
1695.01
21
10980
31
0
0
LINE
8
PIPES
6
CONTINUOUS
10
2695.01
20
9980
30
0
11
2695.01
21
10980
31
0
0
LINE
8
PIPES
6
CONTINUOUS
10
195
20
-8019.99
30
0
11
-1305
21
-8019.99
31
0
0
LINE
8
PIPES
6
CONTINUOUS
10
195
20
-8019.99
30
0
11
1695.01
21
-8019.99
31
0
0
LINE
8
PIPES
6
CONTINUOUS
10
195
20
-2020
30
0
11
-1305
21
-2020
31
0
0
LINE
8
PIPES
6
CONTINUOUS
10
195
20
-2020
30
0
11
1695.01
21
-2020
31
0
0
LINE
8
PIPES
6
CONTINUOUS
10
195
20
3980
30
0
11
-1305
21
3980
31
0
0
LINE
8
PIPES
6
CONTINUOUS
10
195
20
3980
30
0
11
1695.01
21
3980
31
0
0
LINE
8
PIPES
6
CONTINUOUS
10
195
20
9980
30
0
11
-1305
21
9980
31
0
0
LINE
8
PIPES
6
CONTINUOUS
10
195
20
9980
30
0
11
1695.01
21
9980
31
0
0
CIRCLE
8
BUBBLE
10
-2305
20
15320
30
0
40
120
0
TEXT
8
BUBBLE
10
-2305
20
15320
30
0
40
90
1
A
50
0
0
CIRCLE
8
BUBBLE
10
-1305
20
15320
30
0
40
120
0
TEXT
8
BUBBLE
10
-1305
20
15320
30
0
40
90
1
B
50
0
0
CIRCLE
8
BUBBLE
10
195
20
15320
30
0
40
120
0
TEXT
8
BUBBLE
10
195
20
15320
30
0
40
90
1
C
50
0
0
CIRCLE
8
BUBBLE
10
1695
20
15320
30
0
40
120
0
TEXT
8
BUBBLE
10
1695
20
15320
30
0
40
90
1
D
50
0
0
CIRCLE
8
BUBBLE
10
2695
20
15320
30
0
40
120
0
TEXT
8
BUBBLE
10
2695
20
15320
30
0
40
90
1
E
50
0
0
LINE
8
DIMENSION
6
CONTINUOUS
10
-2305
20
15040
30
0
11
-2305
21
15160
31
0
0
LINE
8
DIMENSION
6
CONTINUOUS
10
-1305
20
15040
30
0
11
-1305
21
15160
31
0
0
LINE
8
DIMENSION
6
CONTINUOUS
10
-2305
20
15160
30
0
11
-1305
21
15160
31
0
0
LINE
8
DIMENSION
6
CONTINUOUS
10
-2305
20
15160
30
0
11
-2356.9615
21
15190
31
0
0
LINE
8
DIMENSION
6
CONTINUOUS
10
-2305
20
15160
30
0
11
-2356.9615
21
15130
31
0
0
LINE
8
DIMENSION
6
CONTINUOUS
10
-1305
20
15160
30
0
11
-1253.0385
21
15130
31
0
0
LINE
8
DIMENSION
6
CONTINUOUS
10
-1305
20
15160
30
0
11
-1253.0385
21
15190
31
0
0
TEXT
8
DIMENSION
10
-1805
20
15330
30
0
40
70
1
1000
50
0
0
LINE
8
DIMENSION
6
CONTINUOUS
10
-1305
20
15040
30
0
11
-1305
21
15160
31
0
0
LINE
8
DIMENSION
6
CONTINUOUS
10
195
20
15040
30
0
11
195
21
15160
31
0
0
LINE
8
DIMENSION
6
CONTINUOUS
10
-1305
20
15160
30
0
11
195
21
15160
31
0
0
LINE
8
DIMENSION
6
CONTINUOUS
10
-1305
20
15160
30
0
11
-1356.9615
21
15190
31
0
0
LINE
8
DIMENSION
6
CONTINUOUS
10
-1305
20
15160
30
0
11
-1356.9615
21
15130
31
0
0
LINE
8
DIMENSION
6
CONTINUOUS
10
195
20
15160
30
0
11
246.9615
21
15130
31
0
0
LINE
8
DIMENSION
6
CONTINUOUS
10
195
20
15160
30
0
11
246.9615
21
15190
31
0
0
TEXT
8
DIMENSION
10
-555
20
15330
30
0
40
70
1
1500
50
0
0
LINE
8
DIMENSION
6
CONTINUOUS
10
195
20
15040
30
0
11
195
21
15160
31
0
0
LINE
8
DIMENSION
6
CONTINUOUS
10
1695
20
15040
30
0
11
1695
21
15160
31
0
0
LINE
8
DIMENSION
6
CONTINUOUS
10
195
20
15160
30
0
11
1695
21
15160
31
0
0
LINE
8
DIMENSION
6
CONTINUOUS
10
195
20
15160
30
0
11
143.0385
21
15190
31
0
0
LINE
8
DIMENSION
6
CONTINUOUS
10
195
20
15160
30
0
11
143.0385
21
15130
31
0
0
LINE
8
DIMENSION
6
CONTINUOUS
10
1695
20
15160
30
0
11
1746.9615
21
15130
31
0
0
LINE
8
DIMENSION
6
CONTINUOUS
10
1695
20
15160
30
0
11
1746.9615
21
15190
31
0
0
TEXT
8
DIMENSION
10
945
20
15330
30
0
40
70
1
1500
50
0
0
LINE
8
DIMENSION
6
CONTINUOUS
10
1695
20
15040
30
0
11
1695
21
15160
31
0
0
LINE
8
DIMENSION
6
CONTINUOUS
10
2695
20
15040
30
0
11
2695
21
15160
31
0
0
LINE
8
DIMENSION
6
CONTINUOUS
10
1695
20
15160
30
0
11
2695
21
15160
31
0
0
LINE
8
DIMENSION
6
CONTINUOUS
10
1695
20
15160
30
0
11
1643.0385
21
15190
31
0
0
LINE
8
DIMENSION
6
CONTINUOUS
10
1695
20
15160
30
0
11
1643.0385
21
15130
31
0
0
LINE
8
DIMENSION
6
CONTINUOUS
10
2695
20
15160
30
0
11
2746.9615
21
15130
31
0
0
LINE
8
DIMENSION
6
CONTINUOUS
10
2695
20
15160
30
0
11
2746.9615
21
15190
31
0
0
TEXT
8
DIMENSION
10
2195
20
15330
30
0
40
70
1
1000
50
0
0
LINE
8
DIMENSION
6
CONTINUOUS
10
-2365
20
-14720
30
0
11
-2645
21
-14720
31
0
0
LINE
8
DIMENSION
6
CONTINUOUS
10
-2365
20
-13020
30
0
11
-2645
21
-13020
31
0
0
LINE
8
DIMENSION
6
CONTINUOUS
10
-2645
20
-14720
30
0
11
-2645
21
-13020
31
0
0
LINE
8
DIMENSION
6
CONTINUOUS
10
-2645
20
-14720
30
0
11
-2675
21
-14771.9615
31
0
0
LINE
8
DIMENSION
6
CONTINUOUS
10
-2645
20
-14720
30
0
11
-2615
21
-14771.9615
31
0
0
LINE
8
DIMENSION
6
CONTINUOUS
10
-2645
20
-13020
30
0
11
-2615
21
-12968.0385
31
0
0
LINE
8
DIMENSION
6
CONTINUOUS
10
-2645
20
-13020
30
0
11
-2675
21
-12968.0385
31
0
0
TEXT
8
DIMENSION
10
-2815
20
-13870
30
0
40
70
1
1700
50
90
0
LINE
8
DIMENSION
6
CONTINUOUS
10
-2365
20
-13020
30
0
11
-2645
21
-13020
31
0
0
LINE
8
DIMENSION
6
CONTINUOUS
10
-2365
20
-11020
30
0
11
-2645
21
-11020
31
0
0
LINE
8
DIMENSION
6
CONTINUOUS
10
-2645
20
-13020
30
0
11
-2645
21
-11020
31
0
0
LINE
8
DIMENSION
6
CONTINUOUS
10
-2645
20
-13020
30
0
11
-2675
21
-13071.9615
31
0
0
LINE
8
DIMENSION
6
CONTINUOUS
10
-2645
20
-13020
30
0
11
-2615
21
-13071.9615
31
0
0
LINE
8
DIMENSION
6
CONTINUOUS
10
-2645
20
-11020
30
0
11
-2615
21
-10968.0385
31
0
0
LINE
8
DIMENSION
6
CONTINUOUS
10
-2645
20
-11020
30
0
11
-2675
21
-10968.0385
31
0
0
TEXT
8
DIMENSION
10
-2815
20
-12020
30
0
40
70
1
2000
50
90
0
LINE
8
DIMENSION
6
CONTINUOUS
10
-2365
20
-11020
30
0
11
-2645
21
-11020
31
0
0
LINE
8
DIMENSION
6
CONTINUOUS
10
-2365
20
-9020
30
0
11
-2645
21
-9020
31
0
0
LINE
8
DIMENSION
6
CONTINUOUS
10
-2645
20
-11020
30
0
11
-2645
21
-9020
31
0
0
LINE
8
DIMENSION
6
CONTINUOUS
10
-2645
20
-11020
30
0
11
-2675
21
-11071.9615
31
0
0
LINE
8
DIMENSION
6
CONTINUOUS
10
-2645
20
-11020
30
0
11
-2615
21
-11071.9615
31
0
0
LINE
8
DIMENSION
6
CONTINUOUS
10
-2645
20
-9020
30
0
11
-2615
21
-8968.0385
31
0
0
LINE
8
DIMENSION
6
CONTINUOUS
10
-2645
20
-9020
30
0
11
-2675
21
-8968.0385
31
0
0
TEXT
8
DIMENSION
10
-2815
20
-10020
30
0
40
70
1
2000
50
90
0
LINE
8
DIMENSION
6
CONTINUOUS
10
-2365
20
-9020
30
0
11
-2645
21
-9020
31
0
0
LINE
8
DIMENSION
6
CONTINUOUS
10
-2365
20
-8520
30
0
11
-2645
21
-8520
31
0
0
LINE
8
DIMENSION
6
CONTINUOUS
10
-2645
20
-9020
30
0
11
-2645
21
-8520
31
0
0
LINE
8
DIMENSION
6
CONTINUOUS
10
-2645
20
-9020
30
0
11
-2675
21
-9071.9615
31
0
0
LINE
8
DIMENSION
6
CONTINUOUS
10
-2645
20
-9020
30
0
11
-2615
21
-9071.9615
31
0
0
LINE
8
DIMENSION
6
CONTINUOUS
10
-2645
20
-8520
30
0
11
-2615
21
-8468.0385
31
0
0
LINE
8
DIMENSION
6
CONTINUOUS
10
-2645
20
-8520
30
0
11
-2675
21
-8468.0385
31
0
0
TEXT
8
DIMENSION
10
-2815
20
-8770
30
0
40
70
1
500
50
90
0
LINE
8
DIMENSION
6
CONTINUOUS
10
-2365
20
-8520
30
0
11
-2645
21
-8520
31
0
0
LINE
8
DIMENSION
6
CONTINUOUS
10
-2365
20
-8020
30
0
11
-2645
21
-8020
31
0
0
LINE
8
DIMENSION
6
CONTINUOUS
10
-2645
20
-8520
30
0
11
-2645
21
-8020
31
0
0
LINE
8
DIMENSION
6
CONTINUOUS
10
-2645
20
-8520
30
0
11
-2675
21
-8571.9615
31
0
0
LINE
8
DIMENSION
6
CONTINUOUS
10
-2645
20
-8520
30
0
11
-2615
21
-8571.9615
31
0
0
LINE
8
DIMENSION
6
CONTINUOUS
10
-2645
20
-8020
30
0
11
-2615
21
-7968.0385
31
0
0
LINE
8
DIMENSION
6
CONTINUOUS
10
-2645
20
-8020
30
0
11
-2675
21
-7968.0385
31
0
0
TEXT
8
DIMENSION
10
-2815
20
-8270
30
0
40
70
1
500
50
90
0
LINE
8
DIMENSION
6
CONTINUOUS
10
-2365
20
-8020
30
0
11
-2645
21
-8020
31
0
0
LINE
8
DIMENSION
6
CONTINUOUS
10
-2365
20
-7020
30
0
11
-2645
21
-7020
31
0
0
LINE
8
DIMENSION
6
CONTINUOUS
10
-2645
20
-8020
30
0
11
-2645
21
-7020
31
0
0
LINE
8
DIMENSION
6
CONTINUOUS
10
-2645
20
-8020
30
0
11
-2675
21
-8071.9615
31
0
0
LINE
8
DIMENSION
6
CONTINUOUS
10
-2645
20
-8020
30
0
11
-2615
21
-8071.9615
31
0
0
LINE
8
DIMENSION
6
CONTINUOUS
10
-2645
20
-7020
30
0
11
-2615
21
-6968.0385
31
0
0
LINE
8
DIMENSION
6
CONTINUOUS
10
-2645
20
-7020
30
0
11
-2675
21
-6968.0385
31
0
0
TEXT
8
DIMENSION
10
-2815
20
-7520
30
0
40
70
1
1000
50
90
0
LINE
8
DIMENSION
6
CONTINUOUS
10
-2365
20
-7020
30
0
11
-2645
21
-7020
31
0
0
LINE
8
DIMENSION
6
CONTINUOUS
10
-2365
20
-5020
30
0
11
-2645
21
-5020
31
0
0
LINE
8
DIMENSION
6
CONTINUOUS
10
-2645
20
-7020
30
0
11
-2645
21
-5020
31
0
0
LINE
8
DIMENSION
6
CONTINUOUS
10
-2645
20
-7020
30
0
11
-2675
21
-7071.9615
31
0
0
LINE
8
DIMENSION
6
CONTINUOUS
10
-2645
20
-7020
30
0
11
-2615
21
-7071.9615
31
0
0
LINE
8
DIMENSION
6
CONTINUOUS
10
-2645
20
-5020
30
0
11
-2615
21
-4968.0385
31
0
0
LINE
8
DIMENSION
6
CONTINUOUS
10
-2645
20
-5020
30
0
11
-2675
21
-4968.0385
31
0
0
TEXT
8
DIMENSION
10
-2815
20
-6020
30
0
40
70
1
2000
50
90
0
LINE
8
DIMENSION
6
CONTINUOUS
10
-2365
20
-5020
30
0
11
-2645
21
-5020
31
0
0
LINE
8
DIMENSION
6
CONTINUOUS
10
-2365
20
-3020
30
0
11
-2645
21
-3020
31
0
0
LINE
8
DIMENSION
6
CONTINUOUS
10
-2645
20
-5020
30
0
11
-2645
21
-3020
31
0
0
LINE
8
DIMENSION
6
CONTINUOUS
10
-2645
20
-5020
30
0
11
-2675
21
-5071.9615
31
0
0
LINE
8
DIMENSION
6
CONTINUOUS
10
-2645
20
-5020
30
0
11
-2615
21
-5071.9615
31
0
0
LINE
8
DIMENSION
6
CONTINUOUS
10
-2645
20
-3020
30
0
11
-2615
21
-2968.0385
31
0
0
LINE
8
DIMENSION
6
CONTINUOUS
10
-2645
20
-3020
30
0
11
-2675
21
-2968.0385
31
0
0
TEXT
8
DIMENSION
10
-2815
20
-4020
30
0
40
70
1
2000
50
90
0
LINE
8
DIMENSION
6
CONTINUOUS
10
-2365
20
-3020
30
0
11
-2645
21
-3020
31
0
0
LINE
8
DIMENSION
6
CONTINUOUS
10
-2365
20
-2520
30
0
11
-2645
21
-2520
31
0
0
LINE
8
DIMENSION
6
CONTINUOUS
10
-2645
20
-3020
30
0
11
-2645
21
-2520
31
0
0
LINE
8
DIMENSION
6
CONTINUOUS
10
-2645
20
-3020
30
0
11
-2675
21
-3071.9615
31
0
0
LINE
8
DIMENSION
6
CONTINUOUS
10
-2645
20
-3020
30
0
11
-2615
21
-3071.9615
31
0
0
LINE
8
DIMENSION
6
CONTINUOUS
10
-2645
20
-2520
30
0
11
-2615
21
-2468.0385
31
0
0
LINE
8
DIMENSION
6
CONTINUOUS
10
-2645
20
-2520
30
0
11
-2675
21
-2468.0385
31
0
0
TEXT
8
DIMENSION
10
-2815
20
-2770
30
0
40
70
1
500
50
90
0
LINE
8
DIMENSION
6
CONTINUOUS
10
-2365
20
-2520
30
0
11
-2645
21
-2520
31
0
0
LINE
8
DIMENSION
6
CONTINUOUS
10
-2365
20
-2020
30
0
11
-2645
21
-2020
31
0
0
LINE
8
DIMENSION
6
CONTINUOUS
10
-2645
20
-2520
30
0
11
-2645
21
-2020
31
0
0
LINE
8
DIMENSION
6
CONTINUOUS
10
-2645
20
-2520
30
0
11
-2675
21
-2571.9615
31
0
0
LINE
8
DIMENSION
6
CONTINUOUS
10
-2645
20
-2520
30
0
11
-2615
21
-2571.9615
31
0
0
LINE
8
DIMENSION
6
CONTINUOUS
10
-2645
20
-2020
30
0
11
-2615
21
-1968.0385
31
0
0
LINE
8
DIMENSION
6
CONTINUOUS
10
-2645
20
-2020
30
0
11
-2675
21
-1968.0385
31
0
0
TEXT
8
DIMENSION
10
-2815
20
-2270
30
0
40
70
1
500
50
90
0
LINE
8
DIMENSION
6
CONTINUOUS
10
-2365
20
-2020
30
0
11
-2645
21
-2020
31
0
0
LINE
8
DIMENSION
6
CONTINUOUS
10
-2365
20
-1020
30
0
11
-2645
21
-1020
31
0
0
LINE
8
DIMENSION
6
CONTINUOUS
10
-2645
20
-2020
30
0
11
-2645
21
-1020
31
0
0
LINE
8
DIMENSION
6
CONTINUOUS
10
-2645
20
-2020
30
0
11
-2675
21
-2071.9615
31
0
0
LINE
8
DIMENSION
6
CONTINUOUS
10
-2645
20
-2020
30
0
11
-2615
21
-2071.9615
31
0
0
LINE
8
DIMENSION
6
CONTINUOUS
10
-2645
20
-1020
30
0
11
-2615
21
-968.0385
31
0
0
LINE
8
DIMENSION
6
CONTINUOUS
10
-2645
20
-1020
30
0
11
-2675
21
-968.0385
31
0
0
TEXT
8
DIMENSION
10
-2815
20
-1520
30
0
40
70
1
1000
50
90
0
LINE
8
DIMENSION
6
CONTINUOUS
10
-2365
20
-1020
30
0
11
-2645
21
-1020
31
0
0
LINE
8
DIMENSION
6
CONTINUOUS
10
-2365
20
980
30
0
11
-2645
21
980
31
0
0
LINE
8
DIMENSION
6
CONTINUOUS
10
-2645
20
-1020
30
0
11
-2645
21
980
31
0
0
LINE
8
DIMENSION
6
CONTINUOUS
10
-2645
20
-1020
30
0
11
-2675
21
-1071.9615
31
0
0
LINE
8
DIMENSION
6
CONTINUOUS
10
-2645
20
-1020
30
0
11
-2615
21
-1071.9615
31
0
0
LINE
8
DIMENSION
6
CONTINUOUS
10
-2645
20
980
30
0
11
-2615
21
1031.9615
31
0
0
LINE
8
DIMENSION
6
CONTINUOUS
10
-2645
20
980
30
0
11
-2675
21
1031.9615
31
0
0
TEXT
8
DIMENSION
10
-2815
20
-20
30
0
40
70
1
2000
50
90
0
LINE
8
DIMENSION
6
CONTINUOUS
10
-2365
20
980
30
0
11
-2645
21
980
31
0
0
LINE
8
DIMENSION
6
CONTINUOUS
10
-2365
20
2980
30
0
11
-2645
21
2980
31
0
0
LINE
8
DIMENSION
6
CONTINUOUS
10
-2645
20
980
30
0
11
-2645
21
2980
31
0
0
LINE
8
DIMENSION
6
CONTINUOUS
10
-2645
20
980
30
0
11
-2675
21
928.0385
31
0
0
LINE
8
DIMENSION
6
CONTINUOUS
10
-2645
20
980
30
0
11
-2615
21
928.0385
31
0
0
LINE
8
DIMENSION
6
CONTINUOUS
10
-2645
20
2980
30
0
11
-2615
21
3031.9615
31
0
0
LINE
8
DIMENSION
6
CONTINUOUS
10
-2645
20
2980
30
0
11
-2675
21
3031.9615
31
0
0
TEXT
8
DIMENSION
10
-2815
20
1980
30
0
40
70
1
2000
50
90
0
LINE
8
DIMENSION
6
CONTINUOUS
10
-2365
20
2980
30
0
11
-2645
21
2980
31
0
0
LINE
8
DIMENSION
6
CONTINUOUS
10
-2365
20
3480
30
0
11
-2645
21
3480
31
0
0
LINE
8
DIMENSION
6
CONTINUOUS
10
-2645
20
2980
30
0
11
-2645
21
3480
31
0
0
LINE
8
DIMENSION
6
CONTINUOUS
10
-2645
20
2980
30
0
11
-2675
21
2928.0385
31
0
0
LINE
8
DIMENSION
6
CONTINUOUS
10
-2645
20
2980
30
0
11
-2615
21
2928.0385
31
0
0
LINE
8
DIMENSION
6
CONTINUOUS
10
-2645
20
3480
30
0
11
-2615
21
3531.9615
31
0
0
LINE
8
DIMENSION
6
CONTINUOUS
10
-2645
20
3480
30
0
11
-2675
21
3531.9615
31
0
0
TEXT
8
DIMENSION
10
-2815
20
3230
30
0
40
70
1
500
50
90
0
LINE
8
DIMENSION
6
CONTINUOUS
10
-2365
20
3480
30
0
11
-2645
21
3480
31
0
0
LINE
8
DIMENSION
6
CONTINUOUS
10
-2365
20
3980
30
0
11
-2645
21
3980
31
0
0
LINE
8
DIMENSION
6
CONTINUOUS
10
-2645
20
3480
30
0
11
-2645
21
3980
31
0
0
LINE
8
DIMENSION
6
CONTINUOUS
10
-2645
20
3480
30
0
11
-2675
21
3428.0385
31
0
0
LINE
8
DIMENSION
6
CONTINUOUS
10
-2645
20
3480
30
0
11
-2615
21
3428.0385
31
0
0
LINE
8
DIMENSION
6
CONTINUOUS
10
-2645
20
3980
30
0
11
-2615
21
4031.9615
31
0
0
LINE
8
DIMENSION
6
CONTINUOUS
10
-2645
20
3980
30
0
11
-2675
21
4031.9615
31
0
0
TEXT
8
DIMENSION
10
-2815
20
3730
30
0
40
70
1
500
50
90
0
LINE
8
DIMENSION
6
CONTINUOUS
10
-2365
20
3980
30
0
11
-2645
21
3980
31
0
0
LINE
8
DIMENSION
6
CONTINUOUS
10
-2365
20
4980
30
0
11
-2645
21
4980
31
0
0
LINE
8
DIMENSION
6
CONTINUOUS
10
-2645
20
3980
30
0
11
-2645
21
4980
31
0
0
LINE
8
DIMENSION
6
CONTINUOUS
10
-2645
20
3980
30
0
11
-2675
21
3928.0385
31
0
0
LINE
8
DIMENSION
6
CONTINUOUS
10
-2645
20
3980
30
0
11
-2615
21
3928.0385
31
0
0
LINE
8
DIMENSION
6
CONTINUOUS
10
-2645
20
4980
30
0
11
-2615
21
5031.9615
31
0
0
LINE
8
DIMENSION
6
CONTINUOUS
10
-2645
20
4980
30
0
11
-2675
21
5031.9615
31
0
0
TEXT
8
DIMENSION
10
-2815
20
4480
30
0
40
70
1
1000
50
90
0
LINE
8
DIMENSION
6
CONTINUOUS
10
-2365
20
4980
30
0
11
-2645
21
4980
31
0
0
LINE
8
DIMENSION
6
CONTINUOUS
10
-2365
20
6980
30
0
11
-2645
21
6980
31
0
0
LINE
8
DIMENSION
6
CONTINUOUS
10
-2645
20
4980
30
0
11
-2645
21
6980
31
0
0
LINE
8
DIMENSION
6
CONTINUOUS
10
-2645
20
4980
30
0
11
-2675
21
4928.0385
31
0
0
LINE
8
DIMENSION
6
CONTINUOUS
10
-2645
20
4980
30
0
11
-2615
21
4928.0385
31
0
0
LINE
8
DIMENSION
6
CONTINUOUS
10
-2645
20
6980
30
0
11
-2615
21
7031.9615
31
0
0
LINE
8
DIMENSION
6
CONTINUOUS
10
-2645
20
6980
30
0
11
-2675
21
7031.9615
31
0
0
TEXT
8
DIMENSION
10
-2815
20
5980
30
0
40
70
1
2000
50
90
0
LINE
8
DIMENSION
6
CONTINUOUS
10
-2365
20
6980
30
0
11
-2645
21
6980
31
0
0
LINE
8
DIMENSION
6
CONTINUOUS
10
-2365
20
8980
30
0
11
-2645
21
8980
31
0
0
LINE
8
DIMENSION
6
CONTINUOUS
10
-2645
20
6980
30
0
11
-2645
21
8980
31
0
0
LINE
8
DIMENSION
6
CONTINUOUS
10
-2645
20
6980
30
0
11
-2675
21
6928.0385
31
0
0
LINE
8
DIMENSION
6
CONTINUOUS
10
-2645
20
6980
30
0
11
-2615
21
6928.0385
31
0
0
LINE
8
DIMENSION
6
CONTINUOUS
10
-2645
20
8980
30
0
11
-2615
21
9031.9615
31
0
0
LINE
8
DIMENSION
6
CONTINUOUS
10
-2645
20
8980
30
0
11
-2675
21
9031.9615
31
0
0
TEXT
8
DIMENSION
10
-2815
20
7980
30
0
40
70
1
2000
50
90
0
LINE
8
DIMENSION
6
CONTINUOUS
10
-2365
20
8980
30
0
11
-2645
21
8980
31
0
0
LINE
8
DIMENSION
6
CONTINUOUS
10
-2365
20
9480
30
0
11
-2645
21
9480
31
0
0
LINE
8
DIMENSION
6
CONTINUOUS
10
-2645
20
8980
30
0
11
-2645
21
9480
31
0
0
LINE
8
DIMENSION
6
CONTINUOUS
10
-2645
20
8980
30
0
11
-2675
21
8928.0385
31
0
0
LINE
8
DIMENSION
6
CONTINUOUS
10
-2645
20
8980
30
0
11
-2615
21
8928.0385
31
0
0
LINE
8
DIMENSION
6
CONTINUOUS
10
-2645
20
9480
30
0
11
-2615
21
9531.9615
31
0
0
LINE
8
DIMENSION
6
CONTINUOUS
10
-2645
20
9480
30
0
11
-2675
21
9531.9615
31
0
0
TEXT
8
DIMENSION
10
-2815
20
9230
30
0
40
70
1
500
50
90
0
LINE
8
DIMENSION
6
CONTINUOUS
10
-2365
20
9480
30
0
11
-2645
21
9480
31
0
0
LINE
8
DIMENSION
6
CONTINUOUS
10
-2365
20
9980
30
0
11
-2645
21
9980
31
0
0
LINE
8
DIMENSION
6
CONTINUOUS
10
-2645
20
9480
30
0
11
-2645
21
9980
31
0
0
LINE
8
DIMENSION
6
CONTINUOUS
10
-2645
20
9480
30
0
11
-2675
21
9428.0385
31
0
0
LINE
8
DIMENSION
6
CONTINUOUS
10
-2645
20
9480
30
0
11
-2615
21
9428.0385
31
0
0
LINE
8
DIMENSION
6
CONTINUOUS
10
-2645
20
9980
30
0
11
-2615
21
10031.9615
31
0
0
LINE
8
DIMENSION
6
CONTINUOUS
10
-2645
20
9980
30
0
11
-2675
21
10031.9615
31
0
0
TEXT
8
DIMENSION
10
-2815
20
9730
30
0
40
70
1
500
50
90
0
LINE
8
DIMENSION
6
CONTINUOUS
10
-2365
20
9980
30
0
11
-2645
21
9980
31
0
0
LINE
8
DIMENSION
6
CONTINUOUS
10
-2365
20
10980
30
0
11
-2645
21
10980
31
0
0
LINE
8
DIMENSION
6
CONTINUOUS
10
-2645
20
9980
30
0
11
-2645
21
10980
31
0
0
LINE
8
DIMENSION
6
CONTINUOUS
10
-2645
20
9980
30
0
11
-2675
21
9928.0385
31
0
0
LINE
8
DIMENSION
6
CONTINUOUS
10
-2645
20
9980
30
0
11
-2615
21
9928.0385
31
0
0
LINE
8
DIMENSION
6
CONTINUOUS
10
-2645
20
10980
30
0
11
-2615
21
11031.9615
31
0
0
LINE
8
DIMENSION
6
CONTINUOUS
10
-2645
20
10980
30
0
11
-2675
21
11031.9615
31
0
0
TEXT
8
DIMENSION
10
-2815
20
10480
30
0
40
70
1
1000
50
90
0
LINE
8
DIMENSION
6
CONTINUOUS
10
-2365
20
10980
30
0
11
-2645
21
10980
31
0
0
LINE
8
DIMENSION
6
CONTINUOUS
10
-2365
20
12980
30
0
11
-2645
21
12980
31
0
0
LINE
8
DIMENSION
6
CONTINUOUS
10
-2645
20
10980
30
0
11
-2645
21
12980
31
0
0
LINE
8
DIMENSION
6
CONTINUOUS
10
-2645
20
10980
30
0
11
-2675
21
10928.0385
31
0
0
LINE
8
DIMENSION
6
CONTINUOUS
10
-2645
20
10980
30
0
11
-2615
21
10928.0385
31
0
0
LINE
8
DIMENSION
6
CONTINUOUS
10
-2645
20
12980
30
0
11
-2615
21
13031.9615
31
0
0
LINE
8
DIMENSION
6
CONTINUOUS
10
-2645
20
12980
30
0
11
-2675
21
13031.9615
31
0
0
TEXT
8
DIMENSION
10
-2815
20
11980
30
0
40
70
1
2000
50
90
0
LINE
8
DIMENSION
6
CONTINUOUS
10
-2365
20
12980
30
0
11
-2645
21
12980
31
0
0
LINE
8
DIMENSION
6
CONTINUOUS
10
-2365
20
13980
30
0
11
-2645
21
13980
31
0
0
LINE
8
DIMENSION
6
CONTINUOUS
10
-2645
20
12980
30
0
11
-2645
21
13980
31
0
0
LINE
8
DIMENSION
6
CONTINUOUS
10
-2645
20
12980
30
0
11
-2675
21
12928.0385
31
0
0
LINE
8
DIMENSION
6
CONTINUOUS
10
-2645
20
12980
30
0
11
-2615
21
12928.0385
31
0
0
LINE
8
DIMENSION
6
CONTINUOUS
10
-2645
20
13980
30
0
11
-2615
21
14031.9615
31
0
0
LINE
8
DIMENSION
6
CONTINUOUS
10
-2645
20
13980
30
0
11
-2675
21
14031.9615
31
0
0
TEXT
8
DIMENSION
10
-2815
20
13480
30
0
40
70
1
1000
50
90
0
LINE
8
DIMENSION
6
CONTINUOUS
10
-2365
20
13980
30
0
11
-2645
21
13980
31
0
0
LINE
8
DIMENSION
6
CONTINUOUS
10
-2365
20
14480
30
0
11
-2645
21
14480
31
0
0
LINE
8
DIMENSION
6
CONTINUOUS
10
-2645
20
13980
30
0
11
-2645
21
14480
31
0
0
LINE
8
DIMENSION
6
CONTINUOUS
10
-2645
20
13980
30
0
11
-2675
21
13928.0385
31
0
0
LINE
8
DIMENSION
6
CONTINUOUS
10
-2645
20
13980
30
0
11
-2615
21
13928.0385
31
0
0
LINE
8
DIMENSION
6
CONTINUOUS
10
-2645
20
14480
30
0
11
-2615
21
14531.9615
31
0
0
LINE
8
DIMENSION
6
CONTINUOUS
10
-2645
20
14480
30
0
11
-2675
21
14531.9615
31
0
0
TEXT
8
DIMENSION
10
-2815
20
14230
30
0
40
70
1
500
50
90
0
LINE
8
DIMENSION
6
CONTINUOUS
10
-2365
20
14480
30
0
11
-2645
21
14480
31
0
0
LINE
8
DIMENSION
6
CONTINUOUS
10
-2365
20
14980
30
0
11
-2645
21
14980
31
0
0
LINE
8
DIMENSION
6
CONTINUOUS
10
-2645
20
14480
30
0
11
-2645
21
14980
31
0
0
LINE
8
DIMENSION
6
CONTINUOUS
10
-2645
20
14480
30
0
11
-2675
21
14428.0385
31
0
0
LINE
8
DIMENSION
6
CONTINUOUS
10
-2645
20
14480
30
0
11
-2615
21
14428.0385
31
0
0
LINE
8
DIMENSION
6
CONTINUOUS
10
-2645
20
14980
30
0
11
-2615
21
15031.9615
31
0
0
LINE
8
DIMENSION
6
CONTINUOUS
10
-2645
20
14980
30
0
11
-2675
21
15031.9615
31
0
0
TEXT
8
DIMENSION
10
-2815
20
14730
30
0
40
70
1
500
50
90
0
TEXT
8
DIMENSION
10
195
20
-15280
30
0
40
70
1
SIDE VIEW TYPICAL FOR
50
0
0
TEXT
8
DIMENSION
10
195
20
-15440
30
0
40
70
1
GRID LINE 2, 4 (A-E)
50
0
0
LINE
8
PIPES
6
CONTINUOUS
10
4795
20
-15020
30
0
11
4795
21
-14719.999
31
0
0
LINE
8
PIPES
6
CONTINUOUS
10
5795
20
-15020
30
0
11
5795
21
-14719.999
31
0
0
LINE
8
PIPES
6
CONTINUOUS
10
8795.01
20
-15020
30
0
11
8795.01
21
-14719.999
31
0
0
LINE
8
PIPES
6
CONTINUOUS
10
9795.01
20
-15020
30
0
11
9795.01
21
-14719.999
31
0
0
LINE
8
PIPES
6
CONTINUOUS
10
5795
20
-14719.999
30
0
11
4795
21
-14719.999
31
0
0
LINE
8
PIPES
6
CONTINUOUS
10
8795.01
20
-14719.999
30
0
11
9795.01
21
-14719.999
31
0
0
LINE
8
PIPES
6
CONTINUOUS
10
4795
20
-14719.999
30
0
11
4795
21
-13020
31
0
0
LINE
8
PIPES
6
CONTINUOUS
10
5795
20
-14719.999
30
0
11
5795
21
-13020
31
0
0
LINE
8
PIPES
6
CONTINUOUS
10
8795.01
20
-14719.999
30
0
11
8795.01
21
-13020
31
0
0
LINE
8
PIPES
6
CONTINUOUS
10
9795.01
20
-14719.999
30
0
11
9795.01
21
-13020
31
0
0
LINE
8
PIPES
6
CONTINUOUS
10
5795
20
-13020
30
0
11
4795
21
-13020
31
0
0
LINE
8
PIPES
6
CONTINUOUS
10
8795.01
20
-13020
30
0
11
9795.01
21
-13020
31
0
0
LINE
8
PIPES
6
CONTINUOUS
10
4795
20
-13020
30
0
11
4795
21
-11020
31
0
0
LINE
8
PIPES
6
CONTINUOUS
10
5795
20
-13020
30
0
11
5795
21
-11020
31
0
0
LINE
8
PIPES
6
CONTINUOUS
10
8795.01
20
-13020
30
0
11
8795.01
21
-11020
31
0
0
LINE
8
PIPES
6
CONTINUOUS
10
9795.01
20
-13020
30
0
11
9795.01
21
-11020
31
0
0
LINE
8
PIPES
6
CONTINUOUS
10
5795
20
-11020
30
0
11
4795
21
-11020
31
0
0
LINE
8
PIPES
6
CONTINUOUS
10
8795.01
20
-11020
30
0
11
9795.01
21
-11020
31
0
0
LINE
8
PIPES
6
CONTINUOUS
10
4795
20
-11020
30
0
11
4795
21
-9019.99
31
0
0
LINE
8
PIPES
6
CONTINUOUS
10
5795
20
-11020
30
0
11
5795
21
-9019.99
31
0
0
LINE
8
PIPES
6
CONTINUOUS
10
8795.01
20
-11020
30
0
11
8795.01
21
-9019.99
31
0
0
LINE
8
PIPES
6
CONTINUOUS
10
9795.01
20
-11020
30
0
11
9795.01
21
-9019.99
31
0
0
LINE
8
PIPES
6
CONTINUOUS
10
5795
20
-9019.99
30
0
11
4795
21
-9019.99
31
0
0
LINE
8
PIPES
6
CONTINUOUS
10
8795.01
20
-9019.99
30
0
11
9795.01
21
-9019.99
31
0
0
LINE
8
PIPES
6
CONTINUOUS
10
4795
20
-9019.99
30
0
11
4795
21
-8519.99
31
0
0
LINE
8
PIPES
6
CONTINUOUS
10
5795
20
-9019.99
30
0
11
5795
21
-8519.99
31
0
0
LINE
8
PIPES
6
CONTINUOUS
10
8795.01
20
-9019.99
30
0
11
8795.01
21
-8519.99
31
0
0
LINE
8
PIPES
6
CONTINUOUS
10
9795.01
20
-9019.99
30
0
11
9795.01
21
-8519.99
31
0
0
LINE
8
PIPES
6
CONTINUOUS
10
5795
20
-7019.99
30
0
11
4795
21
-7019.99
31
0
0
LINE
8
PIPES
6
CONTINUOUS
10
8795.01
20
-7019.99
30
0
11
9795.01
21
-7019.99
31
0
0
LINE
8
PIPES
6
CONTINUOUS
10
4795
20
-7019.99
30
0
11
4795
21
-5020
31
0
0
LINE
8
PIPES
6
CONTINUOUS
10
5795
20
-7019.99
30
0
11
5795
21
-5020
31
0
0
LINE
8
PIPES
6
CONTINUOUS
10
8795.01
20
-7019.99
30
0
11
8795.01
21
-5020
31
0
0
LINE
8
PIPES
6
CONTINUOUS
10
9795.01
20
-7019.99
30
0
11
9795.01
21
-5020
31
0
0
LINE
8
PIPES
6
CONTINUOUS
10
5795
20
-5020
30
0
11
4795
21
-5020
31
0
0
LINE
8
PIPES
6
CONTINUOUS
10
8795.01
20
-5020
30
0
11
9795.01
21
-5020
31
0
0
LINE
8
PIPES
6
CONTINUOUS
10
4795
20
-5020
30
0
11
4795
21
-3020
31
0
0
LINE
8
PIPES
6
CONTINUOUS
10
5795
20
-5020
30
0
11
5795
21
-3020
31
0
0
LINE
8
PIPES
6
CONTINUOUS
10
8795.01
20
-5020
30
0
11
8795.01
21
-3020
31
0
0
LINE
8
PIPES
6
CONTINUOUS
10
9795.01
20
-5020
30
0
11
9795.01
21
-3020
31
0
0
LINE
8
PIPES
6
CONTINUOUS
10
5795
20
-3020
30
0
11
4795
21
-3020
31
0
0
LINE
8
PIPES
6
CONTINUOUS
10
8795.01
20
-3020
30
0
11
9795.01
21
-3020
31
0
0
LINE
8
PIPES
6
CONTINUOUS
10
4795
20
-3020
30
0
11
4795
21
-2520
31
0
0
LINE
8
PIPES
6
CONTINUOUS
10
5795
20
-3020
30
0
11
5795
21
-2520
31
0
0
LINE
8
PIPES
6
CONTINUOUS
10
8795.01
20
-3020
30
0
11
8795.01
21
-2520
31
0
0
LINE
8
PIPES
6
CONTINUOUS
10
9795.01
20
-3020
30
0
11
9795.01
21
-2520
31
0
0
LINE
8
PIPES
6
CONTINUOUS
10
5795
20
-1020
30
0
11
4795
21
-1020
31
0
0
LINE
8
PIPES
6
CONTINUOUS
10
8795.01
20
-1020
30
0
11
9795.01
21
-1020
31
0
0
LINE
8
PIPES
6
CONTINUOUS
10
4795
20
-1020
30
0
11
4795
21
980
31
0
0
LINE
8
PIPES
6
CONTINUOUS
10
5795
20
-1020
30
0
11
5795
21
980
31
0
0
LINE
8
PIPES
6
CONTINUOUS
10
8795.01
20
-1020
30
0
11
8795.01
21
980
31
0
0
LINE
8
PIPES
6
CONTINUOUS
10
9795.01
20
-1020
30
0
11
9795.01
21
980
31
0
0
LINE
8
PIPES
6
CONTINUOUS
10
5795
20
980
30
0
11
4795
21
980
31
0
0
LINE
8
PIPES
6
CONTINUOUS
10
8795.01
20
980
30
0
11
9795.01
21
980
31
0
0
LINE
8
PIPES
6
CONTINUOUS
10
4795
20
980
30
0
11
4795
21
2980
31
0
0
LINE
8
PIPES
6
CONTINUOUS
10
5795
20
980
30
0
11
5795
21
2980
31
0
0
LINE
8
PIPES
6
CONTINUOUS
10
8795.01
20
980
30
0
11
8795.01
21
2980
31
0
0
LINE
8
PIPES
6
CONTINUOUS
10
9795.01
20
980
30
0
11
9795.01
21
2980
31
0
0
LINE
8
PIPES
6
CONTINUOUS
10
5795
20
2980
30
0
11
4795
21
2980
31
0
0
LINE
8
PIPES
6
CONTINUOUS
10
8795.01
20
2980
30
0
11
9795.01
21
2980
31
0
0
LINE
8
PIPES
6
CONTINUOUS
10
4795
20
2980
30
0
11
4795
21
3480
31
0
0
LINE
8
PIPES
6
CONTINUOUS
10
5795
20
2980
30
0
11
5795
21
3480
31
0
0
LINE
8
PIPES
6
CONTINUOUS
10
8795.01
20
2980
30
0
11
8795.01
21
3480
31
0
0
LINE
8
PIPES
6
CONTINUOUS
10
9795.01
20
2980
30
0
11
9795.01
21
3480
31
0
0
LINE
8
PIPES
6
CONTINUOUS
10
5795
20
4980
30
0
11
4795
21
4980
31
0
0
LINE
8
PIPES
6
CONTINUOUS
10
8795.01
20
4980
30
0
11
9795.01
21
4980
31
0
0
LINE
8
PIPES
6
CONTINUOUS
10
4795
20
4980
30
0
11
4795
21
6980
31
0
0
LINE
8
PIPES
6
CONTINUOUS
10
5795
20
4980
30
0
11
5795
21
6980
31
0
0
LINE
8
PIPES
6
CONTINUOUS
10
8795.01
20
4980
30
0
11
8795.01
21
6980
31
0
0
LINE
8
PIPES
6
CONTINUOUS
10
9795.01
20
4980
30
0
11
9795.01
21
6980
31
0
0
LINE
8
PIPES
6
CONTINUOUS
10
5795
20
6980
30
0
11
4795
21
6980
31
0
0
LINE
8
PIPES
6
CONTINUOUS
10
8795.01
20
6980
30
0
11
9795.01
21
6980
31
0
0
LINE
8
PIPES
6
CONTINUOUS
10
4795
20
6980
30
0
11
4795
21
8980
31
0
0
LINE
8
PIPES
6
CONTINUOUS
10
5795
20
6980
30
0
11
5795
21
8980
31
0
0
LINE
8
PIPES
6
CONTINUOUS
10
8795.01
20
6980
30
0
11
8795.01
21
8980
31
0
0
LINE
8
PIPES
6
CONTINUOUS
10
9795.01
20
6980
30
0
11
9795.01
21
8980
31
0
0
LINE
8
PIPES
6
CONTINUOUS
10
5795
20
8980
30
0
11
4795
21
8980
31
0
0
LINE
8
PIPES
6
CONTINUOUS
10
8795.01
20
8980
30
0
11
9795.01
21
8980
31
0
0
LINE
8
PIPES
6
CONTINUOUS
10
4795
20
8980
30
0
11
4795
21
9480
31
0
0
LINE
8
PIPES
6
CONTINUOUS
10
5795
20
8980
30
0
11
5795
21
9480
31
0
0
LINE
8
PIPES
6
CONTINUOUS
10
8795.01
20
8980
30
0
11
8795.01
21
9480
31
0
0
LINE
8
PIPES
6
CONTINUOUS
10
9795.01
20
8980
30
0
11
9795.01
21
9480
31
0
0
LINE
8
PIPES
6
CONTINUOUS
10
5795
20
10980
30
0
11
4795
21
10980
31
0
0
LINE
8
PIPES
6
CONTINUOUS
10
8795.01
20
10980
30
0
11
9795.01
21
10980
31
0
0
LINE
8
PIPES
6
CONTINUOUS
10
4795
20
10980
30
0
11
4795
21
12980.1
31
0
0
LINE
8
PIPES
6
CONTINUOUS
10
5795
20
10980
30
0
11
5795
21
12980.1
31
0
0
LINE
8
PIPES
6
CONTINUOUS
10
8795.01
20
10980
30
0
11
8795.01
21
12980.1
31
0
0
LINE
8
PIPES
6
CONTINUOUS
10
9795.01
20
10980
30
0
11
9795.01
21
12980.1
31
0
0
LINE
8
PIPES
6
CONTINUOUS
10
5795
20
12980.1
30
0
11
4795
21
12980.1
31
0
0
LINE
8
PIPES
6
CONTINUOUS
10
8795.01
20
12980.1
30
0
11
9795.01
21
12980.1
31
0
0
LINE
8
PIPES
6
CONTINUOUS
10
4795
20
12980.1
30
0
11
4795
21
13980.1
31
0
0
LINE
8
PIPES
6
CONTINUOUS
10
5795
20
12980.1
30
0
11
5795
21
13980.1
31
0
0
LINE
8
PIPES
6
CONTINUOUS
10
8795.01
20
12980.1
30
0
11
8795.01
21
13980.1
31
0
0
LINE
8
PIPES
6
CONTINUOUS
10
9795.01
20
12980.1
30
0
11
9795.01
21
13980.1
31
0
0
LINE
8
PIPES
6
CONTINUOUS
10
5795
20
13980.1
30
0
11
4795
21
13980.1
31
0
0
LINE
8
PIPES
6
CONTINUOUS
10
8795.01
20
13980.1
30
0
11
9795.01
21
13980.1
31
0
0
LINE
8
PIPES
6
CONTINUOUS
10
5795
20
-13020
30
0
11
4795
21
-14719.999
31
0
0
LINE
8
PIPES
6
CONTINUOUS
10
9795.01
20
-13020
30
0
11
8795.01
21
-14719.999
31
0
0
LINE
8
PIPES
6
CONTINUOUS
10
4795
20
-11020
30
0
11
5795
21
-13020
31
0
0
LINE
8
PIPES
6
CONTINUOUS
10
8795.01
20
-11020
30
0
11
9795.01
21
-13020
31
0
0
LINE
8
PIPES
6
CONTINUOUS
10
4795
20
-9019.99
30
0
11
5795
21
-11020
31
0
0
LINE
8
PIPES
6
CONTINUOUS
10
8795.01
20
-9019.99
30
0
11
9795.01
21
-11020
31
0
0
LINE
8
PIPES
6
CONTINUOUS
10
4795
20
-7019.99
30
0
11
5795
21
-9019.99
31
0
0
LINE
8
PIPES
6
CONTINUOUS
10
8795.01
20
-7019.99
30
0
11
9795.01
21
-9019.99
31
0
0
LINE
8
PIPES
6
CONTINUOUS
10
4795
20
-5020
30
0
11
5795
21
-7019.99
31
0
0
LINE
8
PIPES
6
CONTINUOUS
10
8795.01
20
-5020
30
0
11
9795.01
21
-7019.99
31
0
0
LINE
8
PIPES
6
CONTINUOUS
10
4795
20
-3020
30
0
11
5795
21
-5020
31
0
0
LINE
8
PIPES
6
CONTINUOUS
10
8795.01
20
-3020
30
0
11
9795.01
21
-5020
31
0
0
LINE
8
PIPES
6
CONTINUOUS
10
4795
20
-1020
30
0
11
5795
21
-3020
31
0
0
LINE
8
PIPES
6
CONTINUOUS
10
8795.01
20
-1020
30
0
11
9795.01
21
-3020
31
0
0
LINE
8
PIPES
6
CONTINUOUS
10
4795
20
980
30
0
11
5795
21
-1020
31
0
0
LINE
8
PIPES
6
CONTINUOUS
10
8795.01
20
980
30
0
11
9795.01
21
-1020
31
0
0
LINE
8
PIPES
6
CONTINUOUS
10
4795
20
2980
30
0
11
5795
21
980
31
0
0
LINE
8
PIPES
6
CONTINUOUS
10
8795.01
20
2980
30
0
11
9795.01
21
980
31
0
0
LINE
8
PIPES
6
CONTINUOUS
10
4795
20
4980
30
0
11
5795
21
2980
31
0
0
LINE
8
PIPES
6
CONTINUOUS
10
8795.01
20
4980
30
0
11
9795.01
21
2980
31
0
0
LINE
8
PIPES
6
CONTINUOUS
10
4795
20
6980
30
0
11
5795
21
4980
31
0
0
LINE
8
PIPES
6
CONTINUOUS
10
8795.01
20
6980
30
0
11
9795.01
21
4980
31
0
0
LINE
8
PIPES
6
CONTINUOUS
10
4795
20
8980
30
0
11
5795
21
6980
31
0
0
LINE
8
PIPES
6
CONTINUOUS
10
8795.01
20
8980
30
0
11
9795.01
21
6980
31
0
0
LINE
8
PIPES
6
CONTINUOUS
10
4795
20
10980
30
0
11
5795
21
8980
31
0
0
LINE
8
PIPES
6
CONTINUOUS
10
8795.01
20
10980
30
0
11
9795.01
21
8980
31
0
0
LINE
8
PIPES
6
CONTINUOUS
10
4795
20
12980.1
30
0
11
5795
21
10980
31
0
0
LINE
8
PIPES
6
CONTINUOUS
10
8795.01
20
12980.1
30
0
11
9795.01
21
10980
31
0
0
LINE
8
PIPES
6
CONTINUOUS
10
4795
20
13980.1
30
0
11
5795
21
12980.1
31
0
0
LINE
8
PIPES
6
CONTINUOUS
10
8795.01
20
13980.1
30
0
11
9795.01
21
12980.1
31
0
0
LINE
8
PIPES
6
CONTINUOUS
10
4795
20
13980.1
30
0
11
4795
21
14480.1
31
0
0
LINE
8
PIPES
6
CONTINUOUS
10
5795
20
13980.1
30
0
11
5795
21
14480.1
31
0
0
LINE
8
PIPES
6
CONTINUOUS
10
8795.01
20
13980.1
30
0
11
8795.01
21
14480.1
31
0
0
LINE
8
PIPES
6
CONTINUOUS
10
9795.01
20
13980.1
30
0
11
9795.01
21
14480.1
31
0
0
LINE
8
PIPES
6
CONTINUOUS
10
4795
20
14480.1
30
0
11
4795
21
14980.1
31
0
0
LINE
8
PIPES
6
CONTINUOUS
10
5795
20
14480.1
30
0
11
5795
21
14980.1
31
0
0
LINE
8
PIPES
6
CONTINUOUS
10
8795.01
20
14480.1
30
0
11
8795.01
21
14980.1
31
0
0
LINE
8
PIPES
6
CONTINUOUS
10
9795.01
20
14480.1
30
0
11
9795.01
21
14980.1
31
0
0
LINE
8
PIPES
6
CONTINUOUS
10
4795
20
-8519.99
30
0
11
4795
21
-8019.99
31
0
0
LINE
8
PIPES
6
CONTINUOUS
10
5795
20
-8519.99
30
0
11
5795
21
-8019.99
31
0
0
LINE
8
PIPES
6
CONTINUOUS
10
8795.01
20
-8519.99
30
0
11
8795.01
21
-8019.99
31
0
0
LINE
8
PIPES
6
CONTINUOUS
10
9795.01
20
-8519.99
30
0
11
9795.01
21
-8019.99
31
0
0
LINE
8
PIPES
6
CONTINUOUS
10
4795
20
-2520
30
0
11
4795
21
-2020
31
0
0
LINE
8
PIPES
6
CONTINUOUS
10
5795
20
-2520
30
0
11
5795
21
-2020
31
0
0
LINE
8
PIPES
6
CONTINUOUS
10
8795.01
20
-2520
30
0
11
8795.01
21
-2020
31
0
0
LINE
8
PIPES
6
CONTINUOUS
10
9795.01
20
-2520
30
0
11
9795.01
21
-2020
31
0
0
LINE
8
PIPES
6
CONTINUOUS
10
4795
20
3480
30
0
11
4795
21
3980
31
0
0
LINE
8
PIPES
6
CONTINUOUS
10
5795
20
3480
30
0
11
5795
21
3980
31
0
0
LINE
8
PIPES
6
CONTINUOUS
10
8795.01
20
3480
30
0
11
8795.01
21
3980
31
0
0
LINE
8
PIPES
6
CONTINUOUS
10
9795.01
20
3480
30
0
11
9795.01
21
3980
31
0
0
LINE
8
PIPES
6
CONTINUOUS
10
4795
20
9480
30
0
11
4795
21
9980
31
0
0
LINE
8
PIPES
6
CONTINUOUS
10
5795
20
9480
30
0
11
5795
21
9980
31
0
0
LINE
8
PIPES
6
CONTINUOUS
10
8795.01
20
9480
30
0
11
8795.01
21
9980
31
0
0
LINE
8
PIPES
6
CONTINUOUS
10
9795.01
20
9480
30
0
11
9795.01
21
9980
31
0
0
LINE
8
PIPES
6
CONTINUOUS
10
4795
20
-8019.99
30
0
11
4795
21
-7019.99
31
0
0
LINE
8
PIPES
6
CONTINUOUS
10
5795
20
-8019.99
30
0
11
5795
21
-7019.99
31
0
0
LINE
8
PIPES
6
CONTINUOUS
10
8795.01
20
-8019.99
30
0
11
8795.01
21
-7019.99
31
0
0
LINE
8
PIPES
6
CONTINUOUS
10
9795.01
20
-8019.99
30
0
11
9795.01
21
-7019.99
31
0
0
LINE
8
PIPES
6
CONTINUOUS
10
4795
20
-2020
30
0
11
4795
21
-1020
31
0
0
LINE
8
PIPES
6
CONTINUOUS
10
5795
20
-2020
30
0
11
5795
21
-1020
31
0
0
LINE
8
PIPES
6
CONTINUOUS
10
8795.01
20
-2020
30
0
11
8795.01
21
-1020
31
0
0
LINE
8
PIPES
6
CONTINUOUS
10
9795.01
20
-2020
30
0
11
9795.01
21
-1020
31
0
0
LINE
8
PIPES
6
CONTINUOUS
10
4795
20
3980
30
0
11
4795
21
4980
31
0
0
LINE
8
PIPES
6
CONTINUOUS
10
5795
20
3980
30
0
11
5795
21
4980
31
0
0
LINE
8
PIPES
6
CONTINUOUS
10
8795.01
20
3980
30
0
11
8795.01
21
4980
31
0
0
LINE
8
PIPES
6
CONTINUOUS
10
9795.01
20
3980
30
0
11
9795.01
21
4980
31
0
0
LINE
8
PIPES
6
CONTINUOUS
10
4795
20
9980
30
0
11
4795
21
10980
31
0
0
LINE
8
PIPES
6
CONTINUOUS
10
5795
20
9980
30
0
11
5795
21
10980
31
0
0
LINE
8
PIPES
6
CONTINUOUS
10
8795.01
20
9980
30
0
11
8795.01
21
10980
31
0
0
LINE
8
PIPES
6
CONTINUOUS
10
9795.01
20
9980
30
0
11
9795.01
21
10980
31
0
0
CIRCLE
8
BUBBLE
10
4795
20
15320
30
0
40
120
0
TEXT
8
BUBBLE
10
4795
20
15320
30
0
40
90
1
A
50
0
0
CIRCLE
8
BUBBLE
10
5795
20
15320
30
0
40
120
0
TEXT
8
BUBBLE
10
5795
20
15320
30
0
40
90
1
B
50
0
0
CIRCLE
8
BUBBLE
10
7295
20
15320
30
0
40
120
0
TEXT
8
BUBBLE
10
7295
20
15320
30
0
40
90
1
C
50
0
0
CIRCLE
8
BUBBLE
10
8795
20
15320
30
0
40
120
0
TEXT
8
BUBBLE
10
8795
20
15320
30
0
40
90
1
D
50
0
0
CIRCLE
8
BUBBLE
10
9795
20
15320
30
0
40
120
0
TEXT
8
BUBBLE
10
9795
20
15320
30
0
40
90
1
E
50
0
0
LINE
8
DIMENSION
6
CONTINUOUS
10
4795
20
15040
30
0
11
4795
21
15160
31
0
0
LINE
8
DIMENSION
6
CONTINUOUS
10
5795
20
15040
30
0
11
5795
21
15160
31
0
0
LINE
8
DIMENSION
6
CONTINUOUS
10
4795
20
15160
30
0
11
5795
21
15160
31
0
0
LINE
8
DIMENSION
6
CONTINUOUS
10
4795
20
15160
30
0
11
4743.0385
21
15190
31
0
0
LINE
8
DIMENSION
6
CONTINUOUS
10
4795
20
15160
30
0
11
4743.0385
21
15130
31
0
0
LINE
8
DIMENSION
6
CONTINUOUS
10
5795
20
15160
30
0
11
5846.9615
21
15130
31
0
0
LINE
8
DIMENSION
6
CONTINUOUS
10
5795
20
15160
30
0
11
5846.9615
21
15190
31
0
0
TEXT
8
DIMENSION
10
5295
20
15330
30
0
40
70
1
1000
50
0
0
LINE
8
DIMENSION
6
CONTINUOUS
10
5795
20
15040
30
0
11
5795
21
15160
31
0
0
LINE
8
DIMENSION
6
CONTINUOUS
10
7295
20
15040
30
0
11
7295
21
15160
31
0
0
LINE
8
DIMENSION
6
CONTINUOUS
10
5795
20
15160
30
0
11
7295
21
15160
31
0
0
LINE
8
DIMENSION
6
CONTINUOUS
10
5795
20
15160
30
0
11
5743.0385
21
15190
31
0
0
LINE
8
DIMENSION
6
CONTINUOUS
10
5795
20
15160
30
0
11
5743.0385
21
15130
31
0
0
LINE
8
DIMENSION
6
CONTINUOUS
10
7295
20
15160
30
0
11
7346.9615
21
15130
31
0
0
LINE
8
DIMENSION
6
CONTINUOUS
10
7295
20
15160
30
0
11
7346.9615
21
15190
31
0
0
TEXT
8
DIMENSION
10
6545
20
15330
30
0
40
70
1
1500
50
0
0
LINE
8
DIMENSION
6
CONTINUOUS
10
7295
20
15040
30
0
11
7295
21
15160
31
0
0
LINE
8
DIMENSION
6
CONTINUOUS
10
8795
20
15040
30
0
11
8795
21
15160
31
0
0
LINE
8
DIMENSION
6
CONTINUOUS
10
7295
20
15160
30
0
11
8795
21
15160
31
0
0
LINE
8
DIMENSION
6
CONTINUOUS
10
7295
20
15160
30
0
11
7243.0385
21
15190
31
0
0
LINE
8
DIMENSION
6
CONTINUOUS
10
7295
20
15160
30
0
11
7243.0385
21
15130
31
0
0
LINE
8
DIMENSION
6
CONTINUOUS
10
8795
20
15160
30
0
11
8846.9615
21
15130
31
0
0
LINE
8
DIMENSION
6
CONTINUOUS
10
8795
20
15160
30
0
11
8846.9615
21
15190
31
0
0
TEXT
8
DIMENSION
10
8045
20
15330
30
0
40
70
1
1500
50
0
0
LINE
8
DIMENSION
6
CONTINUOUS
10
8795
20
15040
30
0
11
8795
21
15160
31
0
0
LINE
8
DIMENSION
6
CONTINUOUS
10
9795
20
15040
30
0
11
9795
21
15160
31
0
0
LINE
8
DIMENSION
6
CONTINUOUS
10
8795
20
15160
30
0
11
9795
21
15160
31
0
0
LINE
8
DIMENSION
6
CONTINUOUS
10
8795
20
15160
30
0
11
8743.0385
21
15190
31
0
0
LINE
8
DIMENSION
6
CONTINUOUS
10
8795
20
15160
30
0
11
8743.0385
21
15130
31
0
0
LINE
8
DIMENSION
6
CONTINUOUS
10
9795
20
15160
30
0
11
9846.9615
21
15130
31
0
0
LINE
8
DIMENSION
6
CONTINUOUS
10
9795
20
15160
30
0
11
9846.9615
21
15190
31
0
0
TEXT
8
DIMENSION
10
9295
20
15330
30
0
40
70
1
1000
50
0
0
LINE
8
DIMENSION
6
CONTINUOUS
10
4735
20
-14720
30
0
11
4455
21
-14720
31
0
0
LINE
8
DIMENSION
6
CONTINUOUS
10
4735
20
-13020
30
0
11
4455
21
-13020
31
0
0
LINE
8
DIMENSION
6
CONTINUOUS
10
4455
20
-14720
30
0
11
4455
21
-13020
31
0
0
LINE
8
DIMENSION
6
CONTINUOUS
10
4455
20
-14720
30
0
11
4425
21
-14771.9615
31
0
0
LINE
8
DIMENSION
6
CONTINUOUS
10
4455
20
-14720
30
0
11
4485
21
-14771.9615
31
0
0
LINE
8
DIMENSION
6
CONTINUOUS
10
4455
20
-13020
30
0
11
4485
21
-12968.0385
31
0
0
LINE
8
DIMENSION
6
CONTINUOUS
10
4455
20
-13020
30
0
11
4425
21
-12968.0385
31
0
0
TEXT
8
DIMENSION
10
4285
20
-13870
30
0
40
70
1
1700
50
90
0
LINE
8
DIMENSION
6
CONTINUOUS
10
4735
20
-13020
30
0
11
4455
21
-13020
31
0
0
LINE
8
DIMENSION
6
CONTINUOUS
10
4735
20
-11020
30
0
11
4455
21
-11020
31
0
0
LINE
8
DIMENSION
6
CONTINUOUS
10
4455
20
-13020
30
0
11
4455
21
-11020
31
0
0
LINE
8
DIMENSION
6
CONTINUOUS
10
4455
20
-13020
30
0
11
4425
21
-13071.9615
31
0
0
LINE
8
DIMENSION
6
CONTINUOUS
10
4455
20
-13020
30
0
11
4485
21
-13071.9615
31
0
0
LINE
8
DIMENSION
6
CONTINUOUS
10
4455
20
-11020
30
0
11
4485
21
-10968.0385
31
0
0
LINE
8
DIMENSION
6
CONTINUOUS
10
4455
20
-11020
30
0
11
4425
21
-10968.0385
31
0
0
TEXT
8
DIMENSION
10
4285
20
-12020
30
0
40
70
1
2000
50
90
0
LINE
8
DIMENSION
6
CONTINUOUS
10
4735
20
-11020
30
0
11
4455
21
-11020
31
0
0
LINE
8
DIMENSION
6
CONTINUOUS
10
4735
20
-9020
30
0
11
4455
21
-9020
31
0
0
LINE
8
DIMENSION
6
CONTINUOUS
10
4455
20
-11020
30
0
11
4455
21
-9020
31
0
0
LINE
8
DIMENSION
6
CONTINUOUS
10
4455
20
-11020
30
0
11
4425
21
-11071.9615
31
0
0
LINE
8
DIMENSION
6
CONTINUOUS
10
4455
20
-11020
30
0
11
4485
21
-11071.9615
31
0
0
LINE
8
DIMENSION
6
CONTINUOUS
10
4455
20
-9020
30
0
11
4485
21
-8968.0385
31
0
0
LINE
8
DIMENSION
6
CONTINUOUS
10
4455
20
-9020
30
0
11
4425
21
-8968.0385
31
0
0
TEXT
8
DIMENSION
10
4285
20
-10020
30
0
40
70
1
2000
50
90
0
LINE
8
DIMENSION
6
CONTINUOUS
10
4735
20
-9020
30
0
11
4455
21
-9020
31
0
0
LINE
8
DIMENSION
6
CONTINUOUS
10
4735
20
-8520
30
0
11
4455
21
-8520
31
0
0
LINE
8
DIMENSION
6
CONTINUOUS
10
4455
20
-9020
30
0
11
4455
21
-8520
31
0
0
LINE
8
DIMENSION
6
CONTINUOUS
10
4455
20
-9020
30
0
11
4425
21
-9071.9615
31
0
0
LINE
8
DIMENSION
6
CONTINUOUS
10
4455
20
-9020
30
0
11
4485
21
-9071.9615
31
0
0
LINE
8
DIMENSION
6
CONTINUOUS
10
4455
20
-8520
30
0
11
4485
21
-8468.0385
31
0
0
LINE
8
DIMENSION
6
CONTINUOUS
10
4455
20
-8520
30
0
11
4425
21
-8468.0385
31
0
0
TEXT
8
DIMENSION
10
4285
20
-8770
30
0
40
70
1
500
50
90
0
LINE
8
DIMENSION
6
CONTINUOUS
10
4735
20
-8520
30
0
11
4455
21
-8520
31
0
0
LINE
8
DIMENSION
6
CONTINUOUS
10
4735
20
-8020
30
0
11
4455
21
-8020
31
0
0
LINE
8
DIMENSION
6
CONTINUOUS
10
4455
20
-8520
30
0
11
4455
21
-8020
31
0
0
LINE
8
DIMENSION
6
CONTINUOUS
10
4455
20
-8520
30
0
11
4425
21
-8571.9615
31
0
0
LINE
8
DIMENSION
6
CONTINUOUS
10
4455
20
-8520
30
0
11
4485
21
-8571.9615
31
0
0
LINE
8
DIMENSION
6
CONTINUOUS
10
4455
20
-8020
30
0
11
4485
21
-7968.0385
31
0
0
LINE
8
DIMENSION
6
CONTINUOUS
10
4455
20
-8020
30
0
11
4425
21
-7968.0385
31
0
0
TEXT
8
DIMENSION
10
4285
20
-8270
30
0
40
70
1
500
50
90
0
LINE
8
DIMENSION
6
CONTINUOUS
10
4735
20
-8020
30
0
11
4455
21
-8020
31
0
0
LINE
8
DIMENSION
6
CONTINUOUS
10
4735
20
-7020
30
0
11
4455
21
-7020
31
0
0
LINE
8
DIMENSION
6
CONTINUOUS
10
4455
20
-8020
30
0
11
4455
21
-7020
31
0
0
LINE
8
DIMENSION
6
CONTINUOUS
10
4455
20
-8020
30
0
11
4425
21
-8071.9615
31
0
0
LINE
8
DIMENSION
6
CONTINUOUS
10
4455
20
-8020
30
0
11
4485
21
-8071.9615
31
0
0
LINE
8
DIMENSION
6
CONTINUOUS
10
4455
20
-7020
30
0
11
4485
21
-6968.0385
31
0
0
LINE
8
DIMENSION
6
CONTINUOUS
10
4455
20
-7020
30
0
11
4425
21
-6968.0385
31
0
0
TEXT
8
DIMENSION
10
4285
20
-7520
30
0
40
70
1
1000
50
90
0
LINE
8
DIMENSION
6
CONTINUOUS
10
4735
20
-7020
30
0
11
4455
21
-7020
31
0
0
LINE
8
DIMENSION
6
CONTINUOUS
10
4735
20
-5020
30
0
11
4455
21
-5020
31
0
0
LINE
8
DIMENSION
6
CONTINUOUS
10
4455
20
-7020
30
0
11
4455
21
-5020
31
0
0
LINE
8
DIMENSION
6
CONTINUOUS
10
4455
20
-7020
30
0
11
4425
21
-7071.9615
31
0
0
LINE
8
DIMENSION
6
CONTINUOUS
10
4455
20
-7020
30
0
11
4485
21
-7071.9615
31
0
0
LINE
8
DIMENSION
6
CONTINUOUS
10
4455
20
-5020
30
0
11
4485
21
-4968.0385
31
0
0
LINE
8
DIMENSION
6
CONTINUOUS
10
4455
20
-5020
30
0
11
4425
21
-4968.0385
31
0
0
TEXT
8
DIMENSION
10
4285
20
-6020
30
0
40
70
1
2000
50
90
0
LINE
8
DIMENSION
6
CONTINUOUS
10
4735
20
-5020
30
0
11
4455
21
-5020
31
0
0
LINE
8
DIMENSION
6
CONTINUOUS
10
4735
20
-3020
30
0
11
4455
21
-3020
31
0
0
LINE
8
DIMENSION
6
CONTINUOUS
10
4455
20
-5020
30
0
11
4455
21
-3020
31
0
0
LINE
8
DIMENSION
6
CONTINUOUS
10
4455
20
-5020
30
0
11
4425
21
-5071.9615
31
0
0
LINE
8
DIMENSION
6
CONTINUOUS
10
4455
20
-5020
30
0
11
4485
21
-5071.9615
31
0
0
LINE
8
DIMENSION
6
CONTINUOUS
10
4455
20
-3020
30
0
11
4485
21
-2968.0385
31
0
0
LINE
8
DIMENSION
6
CONTINUOUS
10
4455
20
-3020
30
0
11
4425
21
-2968.0385
31
0
0
TEXT
8
DIMENSION
10
4285
20
-4020
30
0
40
70
1
2000
50
90
0
LINE
8
DIMENSION
6
CONTINUOUS
10
4735
20
-3020
30
0
11
4455
21
-3020
31
0
0
LINE
8
DIMENSION
6
CONTINUOUS
10
4735
20
-2520
30
0
11
4455
21
-2520
31
0
0
LINE
8
DIMENSION
6
CONTINUOUS
10
4455
20
-3020
30
0
11
4455
21
-2520
31
0
0
LINE
8
DIMENSION
6
CONTINUOUS
10
4455
20
-3020
30
0
11
4425
21
-3071.9615
31
0
0
LINE
8
DIMENSION
6
CONTINUOUS
10
4455
20
-3020
30
0
11
4485
21
-3071.9615
31
0
0
LINE
8
DIMENSION
6
CONTINUOUS
10
4455
20
-2520
30
0
11
4485
21
-2468.0385
31
0
0
LINE
8
DIMENSION
6
CONTINUOUS
10
4455
20
-2520
30
0
11
4425
21
-2468.0385
31
0
0
TEXT
8
DIMENSION
10
4285
20
-2770
30
0
40
70
1
500
50
90
0
LINE
8
DIMENSION
6
CONTINUOUS
10
4735
20
-2520
30
0
11
4455
21
-2520
31
0
0
LINE
8
DIMENSION
6
CONTINUOUS
10
4735
20
-2020
30
0
11
4455
21
-2020
31
0
0
LINE
8
DIMENSION
6
CONTINUOUS
10
4455
20
-2520
30
0
11
4455
21
-2020
31
0
0
LINE
8
DIMENSION
6
CONTINUOUS
10
4455
20
-2520
30
0
11
4425
21
-2571.9615
31
0
0
LINE
8
DIMENSION
6
CONTINUOUS
10
4455
20
-2520
30
0
11
4485
21
-2571.9615
31
0
0
LINE
8
DIMENSION
6
CONTINUOUS
10
4455
20
-2020
30
0
11
4485
21
-1968.0385
31
0
0
LINE
8
DIMENSION
6
CONTINUOUS
10
4455
20
-2020
30
0
11
4425
21
-1968.0385
31
0
0
TEXT
8
DIMENSION
10
4285
20
-2270
30
0
40
70
1
500
50
90
0
LINE
8
DIMENSION
6
CONTINUOUS
10
4735
20
-2020
30
0
11
4455
21
-2020
31
0
0
LINE
8
DIMENSION
6
CONTINUOUS
10
4735
20
-1020
30
0
11
4455
21
-1020
31
0
0
LINE
8
DIMENSION
6
CONTINUOUS
10
4455
20
-2020
30
0
11
4455
21
-1020
31
0
0
LINE
8
DIMENSION
6
CONTINUOUS
10
4455
20
-2020
30
0
11
4425
21
-2071.9615
31
0
0
LINE
8
DIMENSION
6
CONTINUOUS
10
4455
20
-2020
30
0
11
4485
21
-2071.9615
31
0
0
LINE
8
DIMENSION
6
CONTINUOUS
10
4455
20
-1020
30
0
11
4485
21
-968.0385
31
0
0
LINE
8
DIMENSION
6
CONTINUOUS
10
4455
20
-1020
30
0
11
4425
21
-968.0385
31
0
0
TEXT
8
DIMENSION
10
4285
20
-1520
30
0
40
70
1
1000
50
90
0
LINE
8
DIMENSION
6
CONTINUOUS
10
4735
20
-1020
30
0
11
4455
21
-1020
31
0
0
LINE
8
DIMENSION
6
CONTINUOUS
10
4735
20
980
30
0
11
4455
21
980
31
0
0
LINE
8
DIMENSION
6
CONTINUOUS
10
4455
20
-1020
30
0
11
4455
21
980
31
0
0
LINE
8
DIMENSION
6
CONTINUOUS
10
4455
20
-1020
30
0
11
4425
21
-1071.9615
31
0
0
LINE
8
DIMENSION
6
CONTINUOUS
10
4455
20
-1020
30
0
11
4485
21
-1071.9615
31
0
0
LINE
8
DIMENSION
6
CONTINUOUS
10
4455
20
980
30
0
11
4485
21
1031.9615
31
0
0
LINE
8
DIMENSION
6
CONTINUOUS
10
4455
20
980
30
0
11
4425
21
1031.9615
31
0
0
TEXT
8
DIMENSION
10
4285
20
-20
30
0
40
70
1
2000
50
90
0
LINE
8
DIMENSION
6
CONTINUOUS
10
4735
20
980
30
0
11
4455
21
980
31
0
0
LINE
8
DIMENSION
6
CONTINUOUS
10
4735
20
2980
30
0
11
4455
21
2980
31
0
0
LINE
8
DIMENSION
6
CONTINUOUS
10
4455
20
980
30
0
11
4455
21
2980
31
0
0
LINE
8
DIMENSION
6
CONTINUOUS
10
4455
20
980
30
0
11
4425
21
928.0385
31
0
0
LINE
8
DIMENSION
6
CONTINUOUS
10
4455
20
980
30
0
11
4485
21
928.0385
31
0
0
LINE
8
DIMENSION
6
CONTINUOUS
10
4455
20
2980
30
0
11
4485
21
3031.9615
31
0
0
LINE
8
DIMENSION
6
CONTINUOUS
10
4455
20
2980
30
0
11
4425
21
3031.9615
31
0
0
TEXT
8
DIMENSION
10
4285
20
1980
30
0
40
70
1
2000
50
90
0
LINE
8
DIMENSION
6
CONTINUOUS
10
4735
20
2980
30
0
11
4455
21
2980
31
0
0
LINE
8
DIMENSION
6
CONTINUOUS
10
4735
20
3480
30
0
11
4455
21
3480
31
0
0
LINE
8
DIMENSION
6
CONTINUOUS
10
4455
20
2980
30
0
11
4455
21
3480
31
0
0
LINE
8
DIMENSION
6
CONTINUOUS
10
4455
20
2980
30
0
11
4425
21
2928.0385
31
0
0
LINE
8
DIMENSION
6
CONTINUOUS
10
4455
20
2980
30
0
11
4485
21
2928.0385
31
0
0
LINE
8
DIMENSION
6
CONTINUOUS
10
4455
20
3480
30
0
11
4485
21
3531.9615
31
0
0
LINE
8
DIMENSION
6
CONTINUOUS
10
4455
20
3480
30
0
11
4425
21
3531.9615
31
0
0
TEXT
8
DIMENSION
10
4285
20
3230
30
0
40
70
1
500
50
90
0
LINE
8
DIMENSION
6
CONTINUOUS
10
4735
20
3480
30
0
11
4455
21
3480
31
0
0
LINE
8
DIMENSION
6
CONTINUOUS
10
4735
20
3980
30
0
11
4455
21
3980
31
0
0
LINE
8
DIMENSION
6
CONTINUOUS
10
4455
20
3480
30
0
11
4455
21
3980
31
0
0
LINE
8
DIMENSION
6
CONTINUOUS
10
4455
20
3480
30
0
11
4425
21
3428.0385
31
0
0
LINE
8
DIMENSION
6
CONTINUOUS
10
4455
20
3480
30
0
11
4485
21
3428.0385
31
0
0
LINE
8
DIMENSION
6
CONTINUOUS
10
4455
20
3980
30
0
11
4485
21
4031.9615
31
0
0
LINE
8
DIMENSION
6
CONTINUOUS
10
4455
20
3980
30
0
11
4425
21
4031.9615
31
0
0
TEXT
8
DIMENSION
10
4285
20
3730
30
0
40
70
1
500
50
90
0
LINE
8
DIMENSION
6
CONTINUOUS
10
4735
20
3980
30
0
11
4455
21
3980
31
0
0
LINE
8
DIMENSION
6
CONTINUOUS
10
4735
20
4980
30
0
11
4455
21
4980
31
0
0
LINE
8
DIMENSION
6
CONTINUOUS
10
4455
20
3980
30
0
11
4455
21
4980
31
0
0
LINE
8
DIMENSION
6
CONTINUOUS
10
4455
20
3980
30
0
11
4425
21
3928.0385
31
0
0
LINE
8
DIMENSION
6
CONTINUOUS
10
4455
20
3980
30
0
11
4485
21
3928.0385
31
0
0
LINE
8
DIMENSION
6
CONTINUOUS
10
4455
20
4980
30
0
11
4485
21
5031.9615
31
0
0
LINE
8
DIMENSION
6
CONTINUOUS
10
4455
20
4980
30
0
11
4425
21
5031.9615
31
0
0
TEXT
8
DIMENSION
10
4285
20
4480
30
0
40
70
1
1000
50
90
0
LINE
8
DIMENSION
6
CONTINUOUS
10
4735
20
4980
30
0
11
4455
21
4980
31
0
0
LINE
8
DIMENSION
6
CONTINUOUS
10
4735
20
6980
30
0
11
4455
21
6980
31
0
0
LINE
8
DIMENSION
6
CONTINUOUS
10
4455
20
4980
30
0
11
4455
21
6980
31
0
0
LINE
8
DIMENSION
6
CONTINUOUS
10
4455
20
4980
30
0
11
4425
21
4928.0385
31
0
0
LINE
8
DIMENSION
6
CONTINUOUS
10
4455
20
4980
30
0
11
4485
21
4928.0385
31
0
0
LINE
8
DIMENSION
6
CONTINUOUS
10
4455
20
6980
30
0
11
4485
21
7031.9615
31
0
0
LINE
8
DIMENSION
6
CONTINUOUS
10
4455
20
6980
30
0
11
4425
21
7031.9615
31
0
0
TEXT
8
DIMENSION
10
4285
20
5980
30
0
40
70
1
2000
50
90
0
LINE
8
DIMENSION
6
CONTINUOUS
10
4735
20
6980
30
0
11
4455
21
6980
31
0
0
LINE
8
DIMENSION
6
CONTINUOUS
10
4735
20
8980
30
0
11
4455
21
8980
31
0
0
LINE
8
DIMENSION
6
CONTINUOUS
10
4455
20
6980
30
0
11
4455
21
8980
31
0
0
LINE
8
DIMENSION
6
CONTINUOUS
10
4455
20
6980
30
0
11
4425
21
6928.0385
31
0
0
LINE
8
DIMENSION
6
CONTINUOUS
10
4455
20
6980
30
0
11
4485
21
6928.0385
31
0
0
LINE
8
DIMENSION
6
CONTINUOUS
10
4455
20
8980
30
0
11
4485
21
9031.9615
31
0
0
LINE
8
DIMENSION
6
CONTINUOUS
10
4455
20
8980
30
0
11
4425
21
9031.9615
31
0
0
TEXT
8
DIMENSION
10
4285
20
7980
30
0
40
70
1
2000
50
90
0
LINE
8
DIMENSION
6
CONTINUOUS
10
4735
20
8980
30
0
11
4455
21
8980
31
0
0
LINE
8
DIMENSION
6
CONTINUOUS
10
4735
20
9480
30
0
11
4455
21
9480
31
0
0
LINE
8
DIMENSION
6
CONTINUOUS
10
4455
20
8980
30
0
11
4455
21
9480
31
0
0
LINE
8
DIMENSION
6
CONTINUOUS
10
4455
20
8980
30
0
11
4425
21
8928.0385
31
0
0
LINE
8
DIMENSION
6
CONTINUOUS
10
4455
20
8980
30
0
11
4485
21
8928.0385
31
0
0
LINE
8
DIMENSION
6
CONTINUOUS
10
4455
20
9480
30
0
11
4485
21
9531.9615
31
0
0
LINE
8
DIMENSION
6
CONTINUOUS
10
4455
20
9480
30
0
11
4425
21
9531.9615
31
0
0
TEXT
8
DIMENSION
10
4285
20
9230
30
0
40
70
1
500
50
90
0
LINE
8
DIMENSION
6
CONTINUOUS
10
4735
20
9480
30
0
11
4455
21
9480
31
0
0
LINE
8
DIMENSION
6
CONTINUOUS
10
4735
20
9980
30
0
11
4455
21
9980
31
0
0
LINE
8
DIMENSION
6
CONTINUOUS
10
4455
20
9480
30
0
11
4455
21
9980
31
0
0
LINE
8
DIMENSION
6
CONTINUOUS
10
4455
20
9480
30
0
11
4425
21
9428.0385
31
0
0
LINE
8
DIMENSION
6
CONTINUOUS
10
4455
20
9480
30
0
11
4485
21
9428.0385
31
0
0
LINE
8
DIMENSION
6
CONTINUOUS
10
4455
20
9980
30
0
11
4485
21
10031.9615
31
0
0
LINE
8
DIMENSION
6
CONTINUOUS
10
4455
20
9980
30
0
11
4425
21
10031.9615
31
0
0
TEXT
8
DIMENSION
10
4285
20
9730
30
0
40
70
1
500
50
90
0
LINE
8
DIMENSION
6
CONTINUOUS
10
4735
20
9980
30
0
11
4455
21
9980
31
0
0
LINE
8
DIMENSION
6
CONTINUOUS
10
4735
20
10980
30
0
11
4455
21
10980
31
0
0
LINE
8
DIMENSION
6
CONTINUOUS
10
4455
20
9980
30
0
11
4455
21
10980
31
0
0
LINE
8
DIMENSION
6
CONTINUOUS
10
4455
20
9980
30
0
11
4425
21
9928.0385
31
0
0
LINE
8
DIMENSION
6
CONTINUOUS
10
4455
20
9980
30
0
11
4485
21
9928.0385
31
0
0
LINE
8
DIMENSION
6
CONTINUOUS
10
4455
20
10980
30
0
11
4485
21
11031.9615
31
0
0
LINE
8
DIMENSION
6
CONTINUOUS
10
4455
20
10980
30
0
11
4425
21
11031.9615
31
0
0
TEXT
8
DIMENSION
10
4285
20
10480
30
0
40
70
1
1000
50
90
0
LINE
8
DIMENSION
6
CONTINUOUS
10
4735
20
10980
30
0
11
4455
21
10980
31
0
0
LINE
8
DIMENSION
6
CONTINUOUS
10
4735
20
12980
30
0
11
4455
21
12980
31
0
0
LINE
8
DIMENSION
6
CONTINUOUS
10
4455
20
10980
30
0
11
4455
21
12980
31
0
0
LINE
8
DIMENSION
6
CONTINUOUS
10
4455
20
10980
30
0
11
4425
21
10928.0385
31
0
0
LINE
8
DIMENSION
6
CONTINUOUS
10
4455
20
10980
30
0
11
4485
21
10928.0385
31
0
0
LINE
8
DIMENSION
6
CONTINUOUS
10
4455
20
12980
30
0
11
4485
21
13031.9615
31
0
0
LINE
8
DIMENSION
6
CONTINUOUS
10
4455
20
12980
30
0
11
4425
21
13031.9615
31
0
0
TEXT
8
DIMENSION
10
4285
20
11980
30
0
40
70
1
2000
50
90
0
LINE
8
DIMENSION
6
CONTINUOUS
10
4735
20
12980
30
0
11
4455
21
12980
31
0
0
LINE
8
DIMENSION
6
CONTINUOUS
10
4735
20
13980
30
0
11
4455
21
13980
31
0
0
LINE
8
DIMENSION
6
CONTINUOUS
10
4455
20
12980
30
0
11
4455
21
13980
31
0
0
LINE
8
DIMENSION
6
CONTINUOUS
10
4455
20
12980
30
0
11
4425
21
12928.0385
31
0
0
LINE
8
DIMENSION
6
CONTINUOUS
10
4455
20
12980
30
0
11
4485
21
12928.0385
31
0
0
LINE
8
DIMENSION
6
CONTINUOUS
10
4455
20
13980
30
0
11
4485
21
14031.9615
31
0
0
LINE
8
DIMENSION
6
CONTINUOUS
10
4455
20
13980
30
0
11
4425
21
14031.9615
31
0
0
TEXT
8
DIMENSION
10
4285
20
13480
30
0
40
70
1
1000
50
90
0
LINE
8
DIMENSION
6
CONTINUOUS
10
4735
20
13980
30
0
11
4455
21
13980
31
0
0
LINE
8
DIMENSION
6
CONTINUOUS
10
4735
20
14480
30
0
11
4455
21
14480
31
0
0
LINE
8
DIMENSION
6
CONTINUOUS
10
4455
20
13980
30
0
11
4455
21
14480
31
0
0
LINE
8
DIMENSION
6
CONTINUOUS
10
4455
20
13980
30
0
11
4425
21
13928.0385
31
0
0
LINE
8
DIMENSION
6
CONTINUOUS
10
4455
20
13980
30
0
11
4485
21
13928.0385
31
0
0
LINE
8
DIMENSION
6
CONTINUOUS
10
4455
20
14480
30
0
11
4485
21
14531.9615
31
0
0
LINE
8
DIMENSION
6
CONTINUOUS
10
4455
20
14480
30
0
11
4425
21
14531.9615
31
0
0
TEXT
8
DIMENSION
10
4285
20
14230
30
0
40
70
1
500
50
90
0
LINE
8
DIMENSION
6
CONTINUOUS
10
4735
20
14480
30
0
11
4455
21
14480
31
0
0
LINE
8
DIMENSION
6
CONTINUOUS
10
4735
20
14980
30
0
11
4455
21
14980
31
0
0
LINE
8
DIMENSION
6
CONTINUOUS
10
4455
20
14480
30
0
11
4455
21
14980
31
0
0
LINE
8
DIMENSION
6
CONTINUOUS
10
4455
20
14480
30
0
11
4425
21
14428.0385
31
0
0
LINE
8
DIMENSION
6
CONTINUOUS
10
4455
20
14480
30
0
11
4485
21
14428.0385
31
0
0
LINE
8
DIMENSION
6
CONTINUOUS
10
4455
20
14980
30
0
11
4485
21
15031.9615
31
0
0
LINE
8
DIMENSION
6
CONTINUOUS
10
4455
20
14980
30
0
11
4425
21
15031.9615
31
0
0
TEXT
8
DIMENSION
10
4285
20
14730
30
0
40
70
1
500
50
90
0
TEXT
8
DIMENSION
10
7295
20
-15280
30
0
40
70
1
SIDE VIEW TYPICAL FOR
50
0
0
TEXT
8
DIMENSION
10
7295
20
-15440
30
0
40
70
1
GRID LINE 3 (A-E)
50
0
0
ENDSEC
0
EOF
