0
SECTION
2
HEADER
9
$ACADVER
1
AC1009
9
$INSUNITS
70
4
9
$MEASUREMENT
70
1
9
$LUNITS
70
2
9
$LUPREC
70
1
9
$TILEMODE
70
1
9
$EXTMIN
10
-20355.395773
20
-2491.725773
30
0
9
$EXTMAX
10
20355.395773
20
2491.725773
30
0
9
$PEXTMIN
10
-20355.395773
20
-2491.725773
30
0
9
$PEXTMAX
10
20355.395773
20
2491.725773
30
0
9
$LIMMIN
10
-20855.395773
20
-2991.725773
9
$LIMMAX
10
20855.395773
20
2991.725773
9
$PLIMMIN
10
-20855.395773
20
-2991.725773
9
$PLIMMAX
10
20855.395773
20
2991.725773
0
ENDSEC
0
SECTION
2
TABLES
0
TABLE
2
VPORT
70
1
0
VPORT
2
*ACTIVE
70
0
10
0
20
0
11
1
21
1
12
0
22
0
40
5983.451545
41
6.971025
42
50
43
0
44
0
50
0
51
0
71
0
72
100
73
1
74
3
75
0
76
0
77
0
78
0
0
ENDTAB
0
TABLE
2
LTYPE
70
2
0
LTYPE
2
CONTINUOUS
70
0
3
Solid line
72
65
73
0
40
0
0
LTYPE
2
DASHED
70
0
3
Dashed
72
65
73
2
40
240
49
120
74
0
49
-120
74
0
0
ENDTAB
0
TABLE
2
LAYER
70
6
0
LAYER
2
PIPES
70
0
62
5
6
CONTINUOUS
0
LAYER
2
PIPE_ENDS
70
0
62
5
6
CONTINUOUS
0
LAYER
2
DIMENSION
70
0
62
1
6
CONTINUOUS
0
LAYER
2
LEVEL_GUIDE
70
0
62
1
6
DASHED
0
LAYER
2
LEVEL_TEXT
70
0
62
1
6
CONTINUOUS
0
LAYER
2
FRAME
70
0
62
5
6
CONTINUOUS
0
ENDTAB
0
TABLE
2
STYLE
70
1
0
STYLE
2
STANDARD
70
0
40
0
41
1
50
0
71
0
42
100
3
txt
4

0
ENDTAB
0
ENDSEC
0
SECTION
2
BLOCKS
0
BLOCK
8
0
2
$MODEL_SPACE
70
0
10
0
20
0
30
0
3
$MODEL_SPACE
0
ENDBLK
8
0
0
BLOCK
67
1
8
0
2
$PAPER_SPACE
70
0
10
0
20
0
30
0
3
$PAPER_SPACE
0
ENDBLK
67
1
8
0
0
ENDSEC
0
SECTION
2
ENTITIES
0
LINE
8
PIPES
10
-20291.954227
20
2428.284227
30
0
11
-19073.204227
21
2428.284227
31
0
0
LINE
8
PIPES
10
18708.145773
20
2428.284227
30
0
11
18708.145773
21
428.274227
31
0
0
LINE
8
PIPES
10
17489.345773
20
-1571.725773
30
0
11
18708.145773
21
-1571.725773
31
0
0
LINE
8
PIPES
10
-20291.954227
20
-1571.725773
30
0
11
-20291.954227
21
428.274227
31
0
0
LINE
8
PIPES
10
16270.645773
20
-1571.725773
30
0
11
17489.345773
21
-1571.725773
31
0
0
LINE
8
PIPES
10
15051.845773
20
-1571.725773
30
0
11
16270.645773
21
-1571.725773
31
0
0
LINE
8
PIPES
10
13833.145773
20
-1571.725773
30
0
11
15051.845773
21
-1571.725773
31
0
0
LINE
8
PIPES
10
12614.345773
20
-1571.725773
30
0
11
13833.145773
21
-1571.725773
31
0
0
LINE
8
PIPES
10
11395.645773
20
-1571.725773
30
0
11
12614.345773
21
-1571.725773
31
0
0
LINE
8
PIPES
10
10176.845773
20
-1571.725773
30
0
11
11395.645773
21
-1571.725773
31
0
0
LINE
8
PIPES
10
8958.145773
20
-1571.725773
30
0
11
10176.845773
21
-1571.725773
31
0
0
LINE
8
PIPES
10
7739.345773
20
-1571.725773
30
0
11
8958.145773
21
-1571.725773
31
0
0
LINE
8
PIPES
10
6520.645773
20
-1571.725773
30
0
11
7739.345773
21
-1571.725773
31
0
0
LINE
8
PIPES
10
5301.845773
20
-1571.725773
30
0
11
6520.645773
21
-1571.725773
31
0
0
LINE
8
PIPES
10
4083.045773
20
-1571.725773
30
0
11
5301.845773
21
-1571.725773
31
0
0
LINE
8
PIPES
10
2864.345773
20
-1571.725773
30
0
11
4083.045773
21
-1571.725773
31
0
0
LINE
8
PIPES
10
1645.545773
20
-1571.725773
30
0
11
2864.345773
21
-1571.725773
31
0
0
LINE
8
PIPES
10
426.845773
20
-1571.725773
30
0
11
1645.545773
21
-1571.725773
31
0
0
LINE
8
PIPES
10
-791.954227
20
-1571.725773
30
0
11
426.845773
21
-1571.725773
31
0
0
LINE
8
PIPES
10
-2010.654227
20
-1571.725773
30
0
11
-791.954227
21
-1571.725773
31
0
0
LINE
8
PIPES
10
-3229.454227
20
-1571.725773
30
0
11
-2010.654227
21
-1571.725773
31
0
0
LINE
8
PIPES
10
-4448.154227
20
-1571.725773
30
0
11
-3229.454227
21
-1571.725773
31
0
0
LINE
8
PIPES
10
-5666.954227
20
-1571.725773
30
0
11
-4448.154227
21
-1571.725773
31
0
0
LINE
8
PIPES
10
-6885.654227
20
-1571.725773
30
0
11
-5666.954227
21
-1571.725773
31
0
0
LINE
8
PIPES
10
-8104.454227
20
-1571.725773
30
0
11
-6885.654227
21
-1571.725773
31
0
0
LINE
8
PIPES
10
-9323.154227
20
-1571.725773
30
0
11
-8104.454227
21
-1571.725773
31
0
0
LINE
8
PIPES
10
-10541.934227
20
-1571.725773
30
0
11
-9323.154227
21
-1571.725773
31
0
0
LINE
8
PIPES
10
-11760.684227
20
-1571.725773
30
0
11
-10541.934227
21
-1571.725773
31
0
0
LINE
8
PIPES
10
-12979.444227
20
-1571.725773
30
0
11
-11760.684227
21
-1571.725773
31
0
0
LINE
8
PIPES
10
-14198.194227
20
-1571.725773
30
0
11
-12979.444227
21
-1571.725773
31
0
0
LINE
8
PIPES
10
-15416.944227
20
-1571.725773
30
0
11
-14198.194227
21
-1571.725773
31
0
0
LINE
8
PIPES
10
-16635.694227
20
-1571.725773
30
0
11
-15416.944227
21
-1571.725773
31
0
0
LINE
8
PIPES
10
-17854.444227
20
-1571.725773
30
0
11
-16635.694227
21
-1571.725773
31
0
0
LINE
8
PIPES
10
-19073.204227
20
-1571.725773
30
0
11
-17854.444227
21
-1571.725773
31
0
0
LINE
8
PIPES
10
-20291.954227
20
-1571.725773
30
0
11
-19073.204227
21
-1571.725773
31
0
0
LINE
8
PIPES
10
17489.345773
20
2428.284227
30
0
11
18708.145773
21
2428.284227
31
0
0
LINE
8
PIPES
10
17489.345773
20
-1571.725773
30
0
11
17489.345773
21
428.274227
31
0
0
LINE
8
PIPES
10
16270.645773
20
2428.284227
30
0
11
17489.345773
21
2428.284227
31
0
0
LINE
8
PIPES
10
16270.645773
20
-1571.725773
30
0
11
16270.645773
21
428.274227
31
0
0
LINE
8
PIPES
10
15051.845773
20
2428.284227
30
0
11
16270.645773
21
2428.284227
31
0
0
LINE
8
PIPES
10
15051.845773
20
-1571.725773
30
0
11
15051.845773
21
428.274227
31
0
0
LINE
8
PIPES
10
13833.145773
20
2428.284227
30
0
11
15051.845773
21
2428.284227
31
0
0
LINE
8
PIPES
10
13833.145773
20
-1571.725773
30
0
11
13833.145773
21
428.274227
31
0
0
LINE
8
PIPES
10
12614.345773
20
2428.284227
30
0
11
13833.145773
21
2428.284227
31
0
0
LINE
8
PIPES
10
12614.345773
20
-1571.725773
30
0
11
12614.345773
21
428.274227
31
0
0
LINE
8
PIPES
10
11395.645773
20
2428.284227
30
0
11
12614.345773
21
2428.284227
31
0
0
LINE
8
PIPES
10
11395.645773
20
-1571.725773
30
0
11
11395.645773
21
428.274227
31
0
0
LINE
8
PIPES
10
10176.845773
20
2428.284227
30
0
11
11395.645773
21
2428.284227
31
0
0
LINE
8
PIPES
10
10176.845773
20
-1571.725773
30
0
11
10176.845773
21
428.274227
31
0
0
LINE
8
PIPES
10
8958.145773
20
2428.284227
30
0
11
10176.845773
21
2428.284227
31
0
0
LINE
8
PIPES
10
8958.145773
20
-1571.725773
30
0
11
8958.145773
21
428.274227
31
0
0
LINE
8
PIPES
10
7739.345773
20
2428.284227
30
0
11
8958.145773
21
2428.284227
31
0
0
LINE
8
PIPES
10
7739.345773
20
-1571.725773
30
0
11
7739.345773
21
428.274227
31
0
0
LINE
8
PIPES
10
6520.645773
20
2428.284227
30
0
11
7739.345773
21
2428.284227
31
0
0
LINE
8
PIPES
10
6520.645773
20
-1571.725773
30
0
11
6520.645773
21
428.274227
31
0
0
LINE
8
PIPES
10
5301.845773
20
2428.284227
30
0
11
6520.645773
21
2428.284227
31
0
0
LINE
8
PIPES
10
5301.845773
20
-1571.725773
30
0
11
5301.845773
21
428.274227
31
0
0
LINE
8
PIPES
10
4083.045773
20
2428.284227
30
0
11
5301.845773
21
2428.284227
31
0
0
LINE
8
PIPES
10
4083.045773
20
-1571.725773
30
0
11
4083.045773
21
428.274227
31
0
0
LINE
8
PIPES
10
2864.345773
20
2428.284227
30
0
11
4083.045773
21
2428.284227
31
0
0
LINE
8
PIPES
10
2864.345773
20
-1571.725773
30
0
11
2864.345773
21
428.274227
31
0
0
LINE
8
PIPES
10
1645.545773
20
2428.284227
30
0
11
2864.345773
21
2428.284227
31
0
0
LINE
8
PIPES
10
1645.545773
20
-1571.725773
30
0
11
1645.545773
21
428.274227
31
0
0
LINE
8
PIPES
10
426.845773
20
2428.284227
30
0
11
1645.545773
21
2428.284227
31
0
0
LINE
8
PIPES
10
426.845773
20
-1571.725773
30
0
11
426.845773
21
428.274227
31
0
0
LINE
8
PIPES
10
-791.954227
20
2428.284227
30
0
11
426.845773
21
2428.284227
31
0
0
LINE
8
PIPES
10
-791.954227
20
-1571.725773
30
0
11
-791.954227
21
428.274227
31
0
0
LINE
8
PIPES
10
-2010.654227
20
2428.284227
30
0
11
-791.954227
21
2428.284227
31
0
0
LINE
8
PIPES
10
-2010.654227
20
-1571.725773
30
0
11
-2010.654227
21
428.274227
31
0
0
LINE
8
PIPES
10
-3229.454227
20
2428.284227
30
0
11
-2010.654227
21
2428.284227
31
0
0
LINE
8
PIPES
10
-3229.454227
20
-1571.725773
30
0
11
-3229.454227
21
428.274227
31
0
0
LINE
8
PIPES
10
-4448.154227
20
2428.284227
30
0
11
-3229.454227
21
2428.284227
31
0
0
LINE
8
PIPES
10
-4448.154227
20
-1571.725773
30
0
11
-4448.154227
21
428.274227
31
0
0
LINE
8
PIPES
10
-5666.954227
20
2428.284227
30
0
11
-4448.154227
21
2428.284227
31
0
0
LINE
8
PIPES
10
-5666.954227
20
-1571.725773
30
0
11
-5666.954227
21
428.274227
31
0
0
LINE
8
PIPES
10
-6885.654227
20
2428.284227
30
0
11
-5666.954227
21
2428.284227
31
0
0
LINE
8
PIPES
10
-6885.654227
20
-1571.725773
30
0
11
-6885.654227
21
428.274227
31
0
0
LINE
8
PIPES
10
-8104.454227
20
2428.284227
30
0
11
-6885.654227
21
2428.284227
31
0
0
LINE
8
PIPES
10
-8104.454227
20
-1571.725773
30
0
11
-8104.454227
21
428.274227
31
0
0
LINE
8
PIPES
10
-9323.154227
20
2428.284227
30
0
11
-8104.454227
21
2428.284227
31
0
0
LINE
8
PIPES
10
-9323.154227
20
-1571.725773
30
0
11
-9323.154227
21
428.274227
31
0
0
LINE
8
PIPES
10
-10541.934227
20
2428.284227
30
0
11
-9323.154227
21
2428.284227
31
0
0
LINE
8
PIPES
10
-10541.934227
20
-1571.725773
30
0
11
-10541.934227
21
428.274227
31
0
0
LINE
8
PIPES
10
-11760.684227
20
2428.284227
30
0
11
-10541.934227
21
2428.284227
31
0
0
LINE
8
PIPES
10
-11760.684227
20
-1571.725773
30
0
11
-11760.684227
21
428.274227
31
0
0
LINE
8
PIPES
10
-12979.444227
20
2428.284227
30
0
11
-11760.684227
21
2428.284227
31
0
0
LINE
8
PIPES
10
-12979.444227
20
-1571.725773
30
0
11
-12979.444227
21
428.274227
31
0
0
LINE
8
PIPES
10
-14198.194227
20
2428.284227
30
0
11
-12979.444227
21
2428.284227
31
0
0
LINE
8
PIPES
10
-14198.194227
20
-1571.725773
30
0
11
-14198.194227
21
428.274227
31
0
0
LINE
8
PIPES
10
-15416.944227
20
2428.284227
30
0
11
-14198.194227
21
2428.284227
31
0
0
LINE
8
PIPES
10
-15416.944227
20
-1571.725773
30
0
11
-15416.944227
21
428.274227
31
0
0
LINE
8
PIPES
10
-16635.694227
20
2428.284227
30
0
11
-15416.944227
21
2428.284227
31
0
0
LINE
8
PIPES
10
-16635.694227
20
-1571.725773
30
0
11
-16635.694227
21
428.274227
31
0
0
LINE
8
PIPES
10
-17854.444227
20
2428.284227
30
0
11
-16635.694227
21
2428.284227
31
0
0
LINE
8
PIPES
10
-17854.444227
20
-1571.725773
30
0
11
-17854.444227
21
428.274227
31
0
0
LINE
8
PIPES
10
-19073.204227
20
2428.284227
30
0
11
-17854.444227
21
2428.284227
31
0
0
LINE
8
PIPES
10
-19073.204227
20
-1571.725773
30
0
11
-19073.204227
21
428.274227
31
0
0
LINE
8
PIPES
10
18708.145773
20
-1571.725773
30
0
11
18708.145773
21
428.274227
31
0
0
LINE
8
PIPES
10
-20291.954227
20
428.274227
30
0
11
-20291.954227
21
2428.284227
31
0
0
LINE
8
PIPES
10
17489.345773
20
428.274227
30
0
11
17489.345773
21
2428.284227
31
0
0
LINE
8
PIPES
10
16270.645773
20
428.274227
30
0
11
16270.645773
21
2428.284227
31
0
0
LINE
8
PIPES
10
15051.845773
20
428.274227
30
0
11
15051.845773
21
2428.284227
31
0
0
LINE
8
PIPES
10
13833.145773
20
428.274227
30
0
11
13833.145773
21
2428.284227
31
0
0
LINE
8
PIPES
10
12614.345773
20
428.274227
30
0
11
12614.345773
21
2428.284227
31
0
0
LINE
8
PIPES
10
11395.645773
20
428.274227
30
0
11
11395.645773
21
2428.284227
31
0
0
LINE
8
PIPES
10
10176.845773
20
428.274227
30
0
11
10176.845773
21
2428.284227
31
0
0
LINE
8
PIPES
10
8958.145773
20
428.274227
30
0
11
8958.145773
21
2428.284227
31
0
0
LINE
8
PIPES
10
7739.345773
20
428.274227
30
0
11
7739.345773
21
2428.284227
31
0
0
LINE
8
PIPES
10
6520.645773
20
428.274227
30
0
11
6520.645773
21
2428.284227
31
0
0
LINE
8
PIPES
10
5301.845773
20
428.274227
30
0
11
5301.845773
21
2428.284227
31
0
0
LINE
8
PIPES
10
4083.045773
20
428.274227
30
0
11
4083.045773
21
2428.284227
31
0
0
LINE
8
PIPES
10
2864.345773
20
428.274227
30
0
11
2864.345773
21
2428.284227
31
0
0
LINE
8
PIPES
10
1645.545773
20
428.274227
30
0
11
1645.545773
21
2428.284227
31
0
0
LINE
8
PIPES
10
426.845773
20
428.274227
30
0
11
426.845773
21
2428.284227
31
0
0
LINE
8
PIPES
10
-791.954227
20
428.274227
30
0
11
-791.954227
21
2428.284227
31
0
0
LINE
8
PIPES
10
-2010.654227
20
428.274227
30
0
11
-2010.654227
21
2428.284227
31
0
0
LINE
8
PIPES
10
-3229.454227
20
428.274227
30
0
11
-3229.454227
21
2428.284227
31
0
0
LINE
8
PIPES
10
-4448.154227
20
428.274227
30
0
11
-4448.154227
21
2428.284227
31
0
0
LINE
8
PIPES
10
-5666.954227
20
428.274227
30
0
11
-5666.954227
21
2428.284227
31
0
0
LINE
8
PIPES
10
-6885.654227
20
428.274227
30
0
11
-6885.654227
21
2428.284227
31
0
0
LINE
8
PIPES
10
-8104.454227
20
428.274227
30
0
11
-8104.454227
21
2428.284227
31
0
0
LINE
8
PIPES
10
-9323.154227
20
428.274227
30
0
11
-9323.154227
21
2428.284227
31
0
0
LINE
8
PIPES
10
-10541.934227
20
428.274227
30
0
11
-10541.934227
21
2428.284227
31
0
0
LINE
8
PIPES
10
-11760.684227
20
428.274227
30
0
11
-11760.684227
21
2428.284227
31
0
0
LINE
8
PIPES
10
-12979.444227
20
428.274227
30
0
11
-12979.444227
21
2428.284227
31
0
0
LINE
8
PIPES
10
-14198.194227
20
428.274227
30
0
11
-14198.194227
21
2428.284227
31
0
0
LINE
8
PIPES
10
-15416.944227
20
428.274227
30
0
11
-15416.944227
21
2428.284227
31
0
0
LINE
8
PIPES
10
-16635.694227
20
428.274227
30
0
11
-16635.694227
21
2428.284227
31
0
0
LINE
8
PIPES
10
-17854.444227
20
428.274227
30
0
11
-17854.444227
21
2428.284227
31
0
0
LINE
8
PIPES
10
-19073.204227
20
428.274227
30
0
11
-19073.204227
21
2428.284227
31
0
0
LINE
8
PIPES
10
18708.145773
20
428.274227
30
0
11
17489.345773
21
428.274227
31
0
0
LINE
8
PIPES
10
17489.345773
20
428.274227
30
0
11
16270.645773
21
428.274227
31
0
0
LINE
8
PIPES
10
16270.645773
20
428.274227
30
0
11
15051.845773
21
428.274227
31
0
0
LINE
8
PIPES
10
15051.845773
20
428.274227
30
0
11
13833.145773
21
428.274227
31
0
0
LINE
8
PIPES
10
13833.145773
20
428.274227
30
0
11
12614.345773
21
428.274227
31
0
0
LINE
8
PIPES
10
12614.345773
20
428.274227
30
0
11
11395.645773
21
428.274227
31
0
0
LINE
8
PIPES
10
11395.645773
20
428.274227
30
0
11
10176.845773
21
428.274227
31
0
0
LINE
8
PIPES
10
10176.845773
20
428.274227
30
0
11
8958.145773
21
428.274227
31
0
0
LINE
8
PIPES
10
8958.145773
20
428.274227
30
0
11
7739.345773
21
428.274227
31
0
0
LINE
8
PIPES
10
7739.345773
20
428.274227
30
0
11
6520.645773
21
428.274227
31
0
0
LINE
8
PIPES
10
6520.645773
20
428.274227
30
0
11
5301.845773
21
428.274227
31
0
0
LINE
8
PIPES
10
5301.845773
20
428.274227
30
0
11
4083.045773
21
428.274227
31
0
0
LINE
8
PIPES
10
4083.045773
20
428.274227
30
0
11
2864.345773
21
428.274227
31
0
0
LINE
8
PIPES
10
2864.345773
20
428.274227
30
0
11
1645.545773
21
428.274227
31
0
0
LINE
8
PIPES
10
1645.545773
20
428.274227
30
0
11
426.845773
21
428.274227
31
0
0
LINE
8
PIPES
10
426.845773
20
428.274227
30
0
11
-791.954227
21
428.274227
31
0
0
LINE
8
PIPES
10
-791.954227
20
428.274227
30
0
11
-2010.654227
21
428.274227
31
0
0
LINE
8
PIPES
10
-2010.654227
20
428.274227
30
0
11
-3229.454227
21
428.274227
31
0
0
LINE
8
PIPES
10
-3229.454227
20
428.274227
30
0
11
-4448.154227
21
428.274227
31
0
0
LINE
8
PIPES
10
-4448.154227
20
428.274227
30
0
11
-5666.954227
21
428.274227
31
0
0
LINE
8
PIPES
10
-5666.954227
20
428.274227
30
0
11
-6885.654227
21
428.274227
31
0
0
LINE
8
PIPES
10
-6885.654227
20
428.274227
30
0
11
-8104.454227
21
428.274227
31
0
0
LINE
8
PIPES
10
-8104.454227
20
428.274227
30
0
11
-9323.154227
21
428.274227
31
0
0
LINE
8
PIPES
10
-9323.154227
20
428.274227
30
0
11
-10541.934227
21
428.274227
31
0
0
LINE
8
PIPES
10
-10541.934227
20
428.274227
30
0
11
-11760.684227
21
428.274227
31
0
0
LINE
8
PIPES
10
-11760.684227
20
428.274227
30
0
11
-12979.444227
21
428.274227
31
0
0
LINE
8
PIPES
10
-12979.444227
20
428.274227
30
0
11
-14198.194227
21
428.274227
31
0
0
LINE
8
PIPES
10
-14198.194227
20
428.274227
30
0
11
-15416.944227
21
428.274227
31
0
0
LINE
8
PIPES
10
-15416.944227
20
428.274227
30
0
11
-16635.694227
21
428.274227
31
0
0
LINE
8
PIPES
10
-16635.694227
20
428.274227
30
0
11
-17854.444227
21
428.274227
31
0
0
LINE
8
PIPES
10
-17854.444227
20
428.274227
30
0
11
-19073.204227
21
428.274227
31
0
0
LINE
8
PIPES
10
-19073.204227
20
428.274227
30
0
11
-20291.954227
21
428.274227
31
0
0
CIRCLE
8
PIPE_ENDS
10
-20291.954227
20
2428.274227
30
0
40
32
0
CIRCLE
8
PIPE_ENDS
10
18708.145773
20
2428.274227
30
0
40
32
0
CIRCLE
8
PIPE_ENDS
10
18708.145773
20
-1571.725773
30
0
40
32
0
CIRCLE
8
PIPE_ENDS
10
-20291.954227
20
-1571.725773
30
0
40
32
0
CIRCLE
8
PIPE_ENDS
10
17489.345773
20
-1571.725773
30
0
40
32
0
CIRCLE
8
PIPE_ENDS
10
16270.645773
20
-1571.725773
30
0
40
32
0
CIRCLE
8
PIPE_ENDS
10
15051.845773
20
-1571.725773
30
0
40
32
0
CIRCLE
8
PIPE_ENDS
10
13833.145773
20
-1571.725773
30
0
40
32
0
CIRCLE
8
PIPE_ENDS
10
12614.345773
20
-1571.725773
30
0
40
32
0
CIRCLE
8
PIPE_ENDS
10
11395.645773
20
-1571.725773
30
0
40
32
0
CIRCLE
8
PIPE_ENDS
10
10176.845773
20
-1571.725773
30
0
40
32
0
CIRCLE
8
PIPE_ENDS
10
8958.145773
20
-1571.725773
30
0
40
32
0
CIRCLE
8
PIPE_ENDS
10
7739.345773
20
-1571.725773
30
0
40
32
0
CIRCLE
8
PIPE_ENDS
10
6520.645773
20
-1571.725773
30
0
40
32
0
CIRCLE
8
PIPE_ENDS
10
5301.845773
20
-1571.725773
30
0
40
32
0
CIRCLE
8
PIPE_ENDS
10
4083.045773
20
-1571.725773
30
0
40
32
0
CIRCLE
8
PIPE_ENDS
10
2864.345773
20
-1571.725773
30
0
40
32
0
CIRCLE
8
PIPE_ENDS
10
1645.545773
20
-1571.725773
30
0
40
32
0
CIRCLE
8
PIPE_ENDS
10
426.845773
20
-1571.725773
30
0
40
32
0
CIRCLE
8
PIPE_ENDS
10
-791.954227
20
-1571.725773
30
0
40
32
0
CIRCLE
8
PIPE_ENDS
10
-2010.654227
20
-1571.725773
30
0
40
32
0
CIRCLE
8
PIPE_ENDS
10
-3229.454227
20
-1571.725773
30
0
40
32
0
CIRCLE
8
PIPE_ENDS
10
-4448.154227
20
-1571.725773
30
0
40
32
0
CIRCLE
8
PIPE_ENDS
10
-5666.954227
20
-1571.725773
30
0
40
32
0
CIRCLE
8
PIPE_ENDS
10
-6885.654227
20
-1571.725773
30
0
40
32
0
CIRCLE
8
PIPE_ENDS
10
-8104.454227
20
-1571.725773
30
0
40
32
0
CIRCLE
8
PIPE_ENDS
10
-9323.154227
20
-1571.725773
30
0
40
32
0
CIRCLE
8
PIPE_ENDS
10
-10541.954227
20
-1571.725773
30
0
40
32
0
CIRCLE
8
PIPE_ENDS
10
-11760.654227
20
-1571.725773
30
0
40
32
0
CIRCLE
8
PIPE_ENDS
10
-12979.454227
20
-1571.725773
30
0
40
32
0
CIRCLE
8
PIPE_ENDS
10
-14198.154227
20
-1571.725773
30
0
40
32
0
CIRCLE
8
PIPE_ENDS
10
-15416.954227
20
-1571.725773
30
0
40
32
0
CIRCLE
8
PIPE_ENDS
10
-16635.654227
20
-1571.725773
30
0
40
32
0
CIRCLE
8
PIPE_ENDS
10
-17854.454227
20
-1571.725773
30
0
40
32
0
CIRCLE
8
PIPE_ENDS
10
-19073.154227
20
-1571.725773
30
0
40
32
0
CIRCLE
8
PIPE_ENDS
10
17489.345773
20
2428.274227
30
0
40
32
0
CIRCLE
8
PIPE_ENDS
10
16270.645773
20
2428.274227
30
0
40
32
0
CIRCLE
8
PIPE_ENDS
10
15051.845773
20
2428.274227
30
0
40
32
0
CIRCLE
8
PIPE_ENDS
10
13833.145773
20
2428.274227
30
0
40
32
0
CIRCLE
8
PIPE_ENDS
10
12614.345773
20
2428.274227
30
0
40
32
0
CIRCLE
8
PIPE_ENDS
10
11395.645773
20
2428.274227
30
0
40
32
0
CIRCLE
8
PIPE_ENDS
10
10176.845773
20
2428.274227
30
0
40
32
0
CIRCLE
8
PIPE_ENDS
10
8958.145773
20
2428.274227
30
0
40
32
0
CIRCLE
8
PIPE_ENDS
10
7739.345773
20
2428.274227
30
0
40
32
0
CIRCLE
8
PIPE_ENDS
10
6520.645773
20
2428.274227
30
0
40
32
0
CIRCLE
8
PIPE_ENDS
10
5301.845773
20
2428.274227
30
0
40
32
0
CIRCLE
8
PIPE_ENDS
10
4083.045773
20
2428.274227
30
0
40
32
0
CIRCLE
8
PIPE_ENDS
10
2864.345773
20
2428.274227
30
0
40
32
0
CIRCLE
8
PIPE_ENDS
10
1645.545773
20
2428.274227
30
0
40
32
0
CIRCLE
8
PIPE_ENDS
10
426.845773
20
2428.274227
30
0
40
32
0
CIRCLE
8
PIPE_ENDS
10
-791.954227
20
2428.274227
30
0
40
32
0
CIRCLE
8
PIPE_ENDS
10
-2010.654227
20
2428.274227
30
0
40
32
0
CIRCLE
8
PIPE_ENDS
10
-3229.454227
20
2428.274227
30
0
40
32
0
CIRCLE
8
PIPE_ENDS
10
-4448.154227
20
2428.274227
30
0
40
32
0
CIRCLE
8
PIPE_ENDS
10
-5666.954227
20
2428.274227
30
0
40
32
0
CIRCLE
8
PIPE_ENDS
10
-6885.654227
20
2428.274227
30
0
40
32
0
CIRCLE
8
PIPE_ENDS
10
-8104.454227
20
2428.274227
30
0
40
32
0
CIRCLE
8
PIPE_ENDS
10
-9323.154227
20
2428.274227
30
0
40
32
0
CIRCLE
8
PIPE_ENDS
10
-10541.954227
20
2428.274227
30
0
40
32
0
CIRCLE
8
PIPE_ENDS
10
-11760.654227
20
2428.274227
30
0
40
32
0
CIRCLE
8
PIPE_ENDS
10
-12979.454227
20
2428.274227
30
0
40
32
0
CIRCLE
8
PIPE_ENDS
10
-14198.154227
20
2428.274227
30
0
40
32
0
CIRCLE
8
PIPE_ENDS
10
-15416.954227
20
2428.274227
30
0
40
32
0
CIRCLE
8
PIPE_ENDS
10
-16635.654227
20
2428.274227
30
0
40
32
0
CIRCLE
8
PIPE_ENDS
10
-17854.454227
20
2428.274227
30
0
40
32
0
CIRCLE
8
PIPE_ENDS
10
-19073.154227
20
2428.274227
30
0
40
32
0
CIRCLE
8
PIPE_ENDS
10
18708.145773
20
428.274227
30
0
40
32
0
CIRCLE
8
PIPE_ENDS
10
-20291.954227
20
428.274227
30
0
40
32
0
CIRCLE
8
PIPE_ENDS
10
17489.345773
20
428.274227
30
0
40
32
0
CIRCLE
8
PIPE_ENDS
10
16270.645773
20
428.274227
30
0
40
32
0
CIRCLE
8
PIPE_ENDS
10
15051.845773
20
428.274227
30
0
40
32
0
CIRCLE
8
PIPE_ENDS
10
13833.145773
20
428.274227
30
0
40
32
0
CIRCLE
8
PIPE_ENDS
10
12614.345773
20
428.274227
30
0
40
32
0
CIRCLE
8
PIPE_ENDS
10
11395.645773
20
428.274227
30
0
40
32
0
CIRCLE
8
PIPE_ENDS
10
10176.845773
20
428.274227
30
0
40
32
0
CIRCLE
8
PIPE_ENDS
10
8958.145773
20
428.274227
30
0
40
32
0
CIRCLE
8
PIPE_ENDS
10
7739.345773
20
428.274227
30
0
40
32
0
CIRCLE
8
PIPE_ENDS
10
6520.645773
20
428.274227
30
0
40
32
0
CIRCLE
8
PIPE_ENDS
10
5301.845773
20
428.274227
30
0
40
32
0
CIRCLE
8
PIPE_ENDS
10
4083.045773
20
428.274227
30
0
40
32
0
CIRCLE
8
PIPE_ENDS
10
2864.345773
20
428.274227
30
0
40
32
0
CIRCLE
8
PIPE_ENDS
10
1645.545773
20
428.274227
30
0
40
32
0
CIRCLE
8
PIPE_ENDS
10
426.845773
20
428.274227
30
0
40
32
0
CIRCLE
8
PIPE_ENDS
10
-791.954227
20
428.274227
30
0
40
32
0
CIRCLE
8
PIPE_ENDS
10
-2010.654227
20
428.274227
30
0
40
32
0
CIRCLE
8
PIPE_ENDS
10
-3229.454227
20
428.274227
30
0
40
32
0
CIRCLE
8
PIPE_ENDS
10
-4448.154227
20
428.274227
30
0
40
32
0
CIRCLE
8
PIPE_ENDS
10
-5666.954227
20
428.274227
30
0
40
32
0
CIRCLE
8
PIPE_ENDS
10
-6885.654227
20
428.274227
30
0
40
32
0
CIRCLE
8
PIPE_ENDS
10
-8104.454227
20
428.274227
30
0
40
32
0
CIRCLE
8
PIPE_ENDS
10
-9323.154227
20
428.274227
30
0
40
32
0
CIRCLE
8
PIPE_ENDS
10
-10541.954227
20
428.274227
30
0
40
32
0
CIRCLE
8
PIPE_ENDS
10
-11760.654227
20
428.274227
30
0
40
32
0
CIRCLE
8
PIPE_ENDS
10
-12979.454227
20
428.274227
30
0
40
32
0
CIRCLE
8
PIPE_ENDS
10
-14198.154227
20
428.274227
30
0
40
32
0
CIRCLE
8
PIPE_ENDS
10
-15416.954227
20
428.274227
30
0
40
32
0
CIRCLE
8
PIPE_ENDS
10
-16635.654227
20
428.274227
30
0
40
32
0
CIRCLE
8
PIPE_ENDS
10
-17854.454227
20
428.274227
30
0
40
32
0
CIRCLE
8
PIPE_ENDS
10
-19073.154227
20
428.274227
30
0
40
32
0
LINE
8
DIMENSION
10
-20291.954227
20
-1631.725773
30
0
11
-20291.954227
21
-1951.725773
31
0
0
LINE
8
DIMENSION
10
8958.145773
20
-1631.725773
30
0
11
8958.145773
21
-1951.725773
31
0
0
LINE
8
DIMENSION
10
-20291.954227
20
-1951.725773
30
0
11
8958.145773
21
-1951.725773
31
0
0
LINE
8
DIMENSION
10
-20291.954227
20
-1951.725773
30
0
11
-20355.395773
21
-1922.142494
31
0
0
LINE
8
DIMENSION
10
-20291.954227
20
-1951.725773
30
0
11
-20355.395773
21
-1981.309051
31
0
0
LINE
8
DIMENSION
10
8958.145773
20
-1951.725773
30
0
11
9021.587318
21
-1981.309051
31
0
0
LINE
8
DIMENSION
10
8958.145773
20
-1951.725773
30
0
11
9021.587318
21
-1922.142494
31
0
0
TEXT
8
DIMENSION
10
-5666.904227
20
-2121.725773
30
0
40
85
1
29.25
50
0
7
STANDARD
72
1
73
2
11
-5666.904227
21
-2121.725773
31
0
0
LINE
8
DIMENSION
10
8958.145773
20
-1631.725773
30
0
11
8958.145773
21
-1951.725773
31
0
0
LINE
8
DIMENSION
10
10176.845773
20
-1631.725773
30
0
11
10176.845773
21
-1951.725773
31
0
0
LINE
8
DIMENSION
10
8958.145773
20
-1951.725773
30
0
11
10176.845773
21
-1951.725773
31
0
0
LINE
8
DIMENSION
10
8958.145773
20
-1951.725773
30
0
11
8894.704227
21
-1922.142494
31
0
0
LINE
8
DIMENSION
10
8958.145773
20
-1951.725773
30
0
11
8894.704227
21
-1981.309051
31
0
0
LINE
8
DIMENSION
10
10176.845773
20
-1951.725773
30
0
11
10240.287318
21
-1981.309051
31
0
0
LINE
8
DIMENSION
10
10176.845773
20
-1951.725773
30
0
11
10240.287318
21
-1922.142494
31
0
0
TEXT
8
DIMENSION
10
9567.495773
20
-2121.725773
30
0
40
85
1
1.219
50
0
7
STANDARD
72
1
73
2
11
9567.495773
21
-2121.725773
31
0
0
LINE
8
DIMENSION
10
10176.845773
20
-1631.725773
30
0
11
10176.845773
21
-1951.725773
31
0
0
LINE
8
DIMENSION
10
11395.645773
20
-1631.725773
30
0
11
11395.645773
21
-1951.725773
31
0
0
LINE
8
DIMENSION
10
10176.845773
20
-1951.725773
30
0
11
11395.645773
21
-1951.725773
31
0
0
LINE
8
DIMENSION
10
10176.845773
20
-1951.725773
30
0
11
10113.404227
21
-1922.142494
31
0
0
LINE
8
DIMENSION
10
10176.845773
20
-1951.725773
30
0
11
10113.404227
21
-1981.309051
31
0
0
LINE
8
DIMENSION
10
11395.645773
20
-1951.725773
30
0
11
11459.087318
21
-1981.309051
31
0
0
LINE
8
DIMENSION
10
11395.645773
20
-1951.725773
30
0
11
11459.087318
21
-1922.142494
31
0
0
TEXT
8
DIMENSION
10
10786.245773
20
-2121.725773
30
0
40
85
1
1.219
50
0
7
STANDARD
72
1
73
2
11
10786.245773
21
-2121.725773
31
0
0
LINE
8
DIMENSION
10
11395.645773
20
-1631.725773
30
0
11
11395.645773
21
-1951.725773
31
0
0
LINE
8
DIMENSION
10
12614.345773
20
-1631.725773
30
0
11
12614.345773
21
-1951.725773
31
0
0
LINE
8
DIMENSION
10
11395.645773
20
-1951.725773
30
0
11
12614.345773
21
-1951.725773
31
0
0
LINE
8
DIMENSION
10
11395.645773
20
-1951.725773
30
0
11
11332.204227
21
-1922.142494
31
0
0
LINE
8
DIMENSION
10
11395.645773
20
-1951.725773
30
0
11
11332.204227
21
-1981.309051
31
0
0
LINE
8
DIMENSION
10
12614.345773
20
-1951.725773
30
0
11
12677.787318
21
-1981.309051
31
0
0
LINE
8
DIMENSION
10
12614.345773
20
-1951.725773
30
0
11
12677.787318
21
-1922.142494
31
0
0
TEXT
8
DIMENSION
10
12004.995773
20
-2121.725773
30
0
40
85
1
1.219
50
0
7
STANDARD
72
1
73
2
11
12004.995773
21
-2121.725773
31
0
0
LINE
8
DIMENSION
10
12614.345773
20
-1631.725773
30
0
11
12614.345773
21
-1951.725773
31
0
0
LINE
8
DIMENSION
10
13833.145773
20
-1631.725773
30
0
11
13833.145773
21
-1951.725773
31
0
0
LINE
8
DIMENSION
10
12614.345773
20
-1951.725773
30
0
11
13833.145773
21
-1951.725773
31
0
0
LINE
8
DIMENSION
10
12614.345773
20
-1951.725773
30
0
11
12550.904227
21
-1922.142494
31
0
0
LINE
8
DIMENSION
10
12614.345773
20
-1951.725773
30
0
11
12550.904227
21
-1981.309051
31
0
0
LINE
8
DIMENSION
10
13833.145773
20
-1951.725773
30
0
11
13896.587318
21
-1981.309051
31
0
0
LINE
8
DIMENSION
10
13833.145773
20
-1951.725773
30
0
11
13896.587318
21
-1922.142494
31
0
0
TEXT
8
DIMENSION
10
13223.745773
20
-2121.725773
30
0
40
85
1
1.219
50
0
7
STANDARD
72
1
73
2
11
13223.745773
21
-2121.725773
31
0
0
LINE
8
DIMENSION
10
13833.145773
20
-1631.725773
30
0
11
13833.145773
21
-1951.725773
31
0
0
LINE
8
DIMENSION
10
15051.845773
20
-1631.725773
30
0
11
15051.845773
21
-1951.725773
31
0
0
LINE
8
DIMENSION
10
13833.145773
20
-1951.725773
30
0
11
15051.845773
21
-1951.725773
31
0
0
LINE
8
DIMENSION
10
13833.145773
20
-1951.725773
30
0
11
13769.704227
21
-1922.142494
31
0
0
LINE
8
DIMENSION
10
13833.145773
20
-1951.725773
30
0
11
13769.704227
21
-1981.309051
31
0
0
LINE
8
DIMENSION
10
15051.845773
20
-1951.725773
30
0
11
15115.287318
21
-1981.309051
31
0
0
LINE
8
DIMENSION
10
15051.845773
20
-1951.725773
30
0
11
15115.287318
21
-1922.142494
31
0
0
TEXT
8
DIMENSION
10
14442.495773
20
-2121.725773
30
0
40
85
1
1.219
50
0
7
STANDARD
72
1
73
2
11
14442.495773
21
-2121.725773
31
0
0
LINE
8
DIMENSION
10
15051.845773
20
-1631.725773
30
0
11
15051.845773
21
-1951.725773
31
0
0
LINE
8
DIMENSION
10
16270.645773
20
-1631.725773
30
0
11
16270.645773
21
-1951.725773
31
0
0
LINE
8
DIMENSION
10
15051.845773
20
-1951.725773
30
0
11
16270.645773
21
-1951.725773
31
0
0
LINE
8
DIMENSION
10
15051.845773
20
-1951.725773
30
0
11
14988.404227
21
-1922.142494
31
0
0
LINE
8
DIMENSION
10
15051.845773
20
-1951.725773
30
0
11
14988.404227
21
-1981.309051
31
0
0
LINE
8
DIMENSION
10
16270.645773
20
-1951.725773
30
0
11
16334.087318
21
-1981.309051
31
0
0
LINE
8
DIMENSION
10
16270.645773
20
-1951.725773
30
0
11
16334.087318
21
-1922.142494
31
0
0
TEXT
8
DIMENSION
10
15661.245773
20
-2121.725773
30
0
40
85
1
1.219
50
0
7
STANDARD
72
1
73
2
11
15661.245773
21
-2121.725773
31
0
0
LINE
8
DIMENSION
10
16270.645773
20
-1631.725773
30
0
11
16270.645773
21
-1951.725773
31
0
0
LINE
8
DIMENSION
10
17489.345773
20
-1631.725773
30
0
11
17489.345773
21
-1951.725773
31
0
0
LINE
8
DIMENSION
10
16270.645773
20
-1951.725773
30
0
11
17489.345773
21
-1951.725773
31
0
0
LINE
8
DIMENSION
10
16270.645773
20
-1951.725773
30
0
11
16207.204227
21
-1922.142494
31
0
0
LINE
8
DIMENSION
10
16270.645773
20
-1951.725773
30
0
11
16207.204227
21
-1981.309051
31
0
0
LINE
8
DIMENSION
10
17489.345773
20
-1951.725773
30
0
11
17552.787318
21
-1981.309051
31
0
0
LINE
8
DIMENSION
10
17489.345773
20
-1951.725773
30
0
11
17552.787318
21
-1922.142494
31
0
0
TEXT
8
DIMENSION
10
16879.995773
20
-2121.725773
30
0
40
85
1
1.219
50
0
7
STANDARD
72
1
73
2
11
16879.995773
21
-2121.725773
31
0
0
LINE
8
DIMENSION
10
17489.345773
20
-1631.725773
30
0
11
17489.345773
21
-1951.725773
31
0
0
LINE
8
DIMENSION
10
18708.145773
20
-1631.725773
30
0
11
18708.145773
21
-1951.725773
31
0
0
LINE
8
DIMENSION
10
17489.345773
20
-1951.725773
30
0
11
18708.145773
21
-1951.725773
31
0
0
LINE
8
DIMENSION
10
17489.345773
20
-1951.725773
30
0
11
17425.904227
21
-1922.142494
31
0
0
LINE
8
DIMENSION
10
17489.345773
20
-1951.725773
30
0
11
17425.904227
21
-1981.309051
31
0
0
LINE
8
DIMENSION
10
18708.145773
20
-1951.725773
30
0
11
18771.587318
21
-1981.309051
31
0
0
LINE
8
DIMENSION
10
18708.145773
20
-1951.725773
30
0
11
18771.587318
21
-1922.142494
31
0
0
TEXT
8
DIMENSION
10
18098.745773
20
-2121.725773
30
0
40
85
1
1.219
50
0
7
STANDARD
72
1
73
2
11
18098.745773
21
-2121.725773
31
0
0
LINE
8
DIMENSION
10
-20291.954227
20
-1631.725773
30
0
11
-20291.954227
21
-2321.725773
31
0
0
LINE
8
DIMENSION
10
18708.145773
20
-1631.725773
30
0
11
18708.145773
21
-2321.725773
31
0
0
LINE
8
DIMENSION
10
-20291.954227
20
-2321.725773
30
0
11
18708.145773
21
-2321.725773
31
0
0
LINE
8
DIMENSION
10
-20291.954227
20
-2321.725773
30
0
11
-20355.395773
21
-2292.142494
31
0
0
LINE
8
DIMENSION
10
-20291.954227
20
-2321.725773
30
0
11
-20355.395773
21
-2351.309051
31
0
0
LINE
8
DIMENSION
10
18708.145773
20
-2321.725773
30
0
11
18771.587318
21
-2351.309051
31
0
0
LINE
8
DIMENSION
10
18708.145773
20
-2321.725773
30
0
11
18771.587318
21
-2292.142494
31
0
0
TEXT
8
DIMENSION
10
-791.904227
20
-2491.725773
30
0
40
85
1
TOTAL 39
50
0
7
STANDARD
72
1
73
2
11
-791.904227
21
-2491.725773
31
0
0
LINE
8
DIMENSION
10
18768.145773
20
-1571.725773
30
0
11
19408.145773
21
-1571.725773
31
0
0
LINE
8
DIMENSION
10
18768.145773
20
428.274227
30
0
11
19408.145773
21
428.274227
31
0
0
LINE
8
DIMENSION
10
19408.145773
20
-1571.725773
30
0
11
19408.145773
21
428.274227
31
0
0
LINE
8
DIMENSION
10
19408.145773
20
-1571.725773
30
0
11
19378.562494
21
-1635.167318
31
0
0
LINE
8
DIMENSION
10
19408.145773
20
-1571.725773
30
0
11
19437.729051
21
-1635.167318
31
0
0
LINE
8
DIMENSION
10
19408.145773
20
428.274227
30
0
11
19437.729051
21
491.715773
31
0
0
LINE
8
DIMENSION
10
19408.145773
20
428.274227
30
0
11
19378.562494
21
491.715773
31
0
0
TEXT
8
DIMENSION
10
19578.145773
20
-571.725773
30
0
40
85
1
2
50
90
7
STANDARD
72
1
73
2
11
19578.145773
21
-571.725773
31
0
0
LINE
8
DIMENSION
10
18768.145773
20
428.274227
30
0
11
19408.145773
21
428.274227
31
0
0
LINE
8
DIMENSION
10
18768.145773
20
2428.284227
30
0
11
19408.145773
21
2428.284227
31
0
0
LINE
8
DIMENSION
10
19408.145773
20
428.274227
30
0
11
19408.145773
21
2428.284227
31
0
0
LINE
8
DIMENSION
10
19408.145773
20
428.274227
30
0
11
19378.562494
21
364.832682
31
0
0
LINE
8
DIMENSION
10
19408.145773
20
428.274227
30
0
11
19437.729051
21
364.832682
31
0
0
LINE
8
DIMENSION
10
19408.145773
20
2428.284227
30
0
11
19437.729051
21
2491.725773
31
0
0
LINE
8
DIMENSION
10
19408.145773
20
2428.284227
30
0
11
19378.562494
21
2491.725773
31
0
0
TEXT
8
DIMENSION
10
19578.145773
20
1428.279227
30
0
40
85
1
2
50
90
7
STANDARD
72
1
73
2
11
19578.145773
21
1428.279227
31
0
0
LINE
8
DIMENSION
10
18768.145773
20
-1571.725773
30
0
11
19858.145773
21
-1571.725773
31
0
0
LINE
8
DIMENSION
10
18768.145773
20
2428.284227
30
0
11
19858.145773
21
2428.284227
31
0
0
LINE
8
DIMENSION
10
19858.145773
20
-1571.725773
30
0
11
19858.145773
21
2428.284227
31
0
0
LINE
8
DIMENSION
10
19858.145773
20
-1571.725773
30
0
11
19828.562494
21
-1635.167318
31
0
0
LINE
8
DIMENSION
10
19858.145773
20
-1571.725773
30
0
11
19887.729051
21
-1635.167318
31
0
0
LINE
8
DIMENSION
10
19858.145773
20
2428.284227
30
0
11
19887.729051
21
2491.725773
31
0
0
LINE
8
DIMENSION
10
19858.145773
20
2428.284227
30
0
11
19828.562494
21
2491.725773
31
0
0
TEXT
8
DIMENSION
10
20028.145773
20
428.279227
30
0
40
85
1
TOTAL 4
50
90
7
STANDARD
72
1
73
2
11
20028.145773
21
428.279227
31
0
0
ENDSEC
0
EOF
