0
SECTION
2
HEADER
9
$ACADVER
1
AC1009
9
$INSUNITS
70
4
9
$MEASUREMENT
70
1
9
$LUNITS
70
2
9
$LUPREC
70
1
9
$TILEMODE
70
1
9
$EXTMIN
10
-2983.465299
20
-2400.003
30
0
9
$EXTMAX
10
2983.465299
20
2400.003
30
0
9
$PEXTMIN
10
-2983.465299
20
-2400.003
30
0
9
$PEXTMAX
10
2983.465299
20
2400.003
30
0
9
$LIMMIN
10
-3483.465299
20
-2900.003
9
$LIMMAX
10
3483.465299
20
2900.003
9
$PLIMMIN
10
-3483.465299
20
-2900.003
9
$PLIMMAX
10
3483.465299
20
2900.003
0
ENDSEC
0
SECTION
2
TABLES
0
TABLE
2
VPORT
70
1
0
VPORT
2
*ACTIVE
70
0
10
0
20
0
11
1
21
1
12
0
22
0
40
5800.006
41
1.201194
42
50
43
0
44
0
50
0
51
0
71
0
72
100
73
1
74
3
75
0
76
0
77
0
78
0
0
ENDTAB
0
TABLE
2
LTYPE
70
2
0
LTYPE
2
CONTINUOUS
70
0
3
Solid line
72
65
73
0
40
0
0
LTYPE
2
DASHED
70
0
3
Dashed
72
65
73
2
40
240
49
120
74
0
49
-120
74
0
0
ENDTAB
0
TABLE
2
LAYER
70
6
0
LAYER
2
PIPES
70
0
62
5
6
CONTINUOUS
0
LAYER
2
PIPE_ENDS
70
0
62
5
6
CONTINUOUS
0
LAYER
2
DIMENSION
70
0
62
1
6
CONTINUOUS
0
LAYER
2
LEVEL_GUIDE
70
0
62
1
6
DASHED
0
LAYER
2
LEVEL_TEXT
70
0
62
1
6
CONTINUOUS
0
LAYER
2
FRAME
70
0
62
5
6
CONTINUOUS
0
ENDTAB
0
TABLE
2
STYLE
70
1
0
STYLE
2
STANDARD
70
0
40
0
41
1
50
0
71
0
42
100
3
txt
4

0
ENDTAB
0
ENDSEC
0
SECTION
2
BLOCKS
0
BLOCK
8
0
2
$MODEL_SPACE
70
0
10
0
20
0
30
0
3
$MODEL_SPACE
0
ENDBLK
8
0
0
BLOCK
67
1
8
0
2
$PAPER_SPACE
70
0
10
0
20
0
30
0
3
$PAPER_SPACE
0
ENDBLK
67
1
8
0
0
ENDSEC
0
SECTION
2
ENTITIES
0
LINE
8
PIPES
10
-1339.619572
20
-2100.002
30
0
11
-40.581467
21
-1350.002
31
0
0
LINE
8
PIPES
10
1258.465299
20
-599.997
30
0
11
479.040704
21
-149.996
31
0
0
LINE
8
PIPES
10
-300.380428
20
300.003
30
0
11
-1599.427194
21
-450.002
31
0
0
LINE
8
PIPES
10
-2898.465299
20
-1200.002
30
0
11
-2119.044168
21
-1650.001
31
0
0
LINE
8
PIPES
10
-40.581467
20
-1350.002
30
0
11
1258.465299
21
-599.997
31
0
0
LINE
8
PIPES
10
-1599.427194
20
-450.002
30
0
11
-2898.465299
21
-1200.002
31
0
0
LINE
8
PIPES
10
-1339.619572
20
-2100.002
30
0
11
-1339.619572
21
-2400.003
31
0
0
LINE
8
PIPES
10
1258.465299
20
-599.997
30
0
11
1258.465299
21
-899.998
31
0
0
LINE
8
PIPES
10
-300.380428
20
300.003
30
0
11
-300.380428
21
0.002
31
0
0
LINE
8
PIPES
10
-2898.465299
20
-1200.002
30
0
11
-2898.465299
21
-1500.003
31
0
0
LINE
8
PIPES
10
-40.581467
20
-1350.002
30
0
11
-40.581467
21
-1650.003
31
0
0
LINE
8
PIPES
10
-1599.427194
20
-450.002
30
0
11
-1599.427194
21
-750.003
31
0
0
LINE
8
PIPES
10
-40.581467
20
-1350.002
30
0
11
-820.006062
21
-900.001
31
0
0
LINE
8
PIPES
10
-1339.619572
20
-2100.002
30
0
11
-1339.619572
21
-600.002
31
0
0
LINE
8
PIPES
10
1258.465299
20
-599.997
30
0
11
1258.465299
21
900.003
31
0
0
LINE
8
PIPES
10
-300.380428
20
300.003
30
0
11
-300.380428
21
1800.003
31
0
0
LINE
8
PIPES
10
-2898.465299
20
-1200.002
30
0
11
-2898.465299
21
299.998
31
0
0
LINE
8
PIPES
10
-40.581467
20
-1350.002
30
0
11
-40.581467
21
149.998
31
0
0
LINE
8
PIPES
10
-1599.427194
20
-450.002
30
0
11
-1599.427194
21
1049.998
31
0
0
LINE
8
PIPES
10
-1339.619572
20
-600.002
30
0
11
-690.10052
21
-225.002
31
0
0
LINE
8
PIPES
10
1258.465299
20
900.003
30
0
11
479.040704
21
1350.004
31
0
0
LINE
8
PIPES
10
-300.380428
20
1800.003
30
0
11
-949.89948
21
1425.003
31
0
0
LINE
8
PIPES
10
-2898.465299
20
299.998
30
0
11
-2119.044168
21
-150.001
31
0
0
LINE
8
PIPES
10
-40.581467
20
149.998
30
0
11
608.946246
21
525.003
31
0
0
LINE
8
PIPES
10
-1599.427194
20
1049.998
30
0
11
-2248.946246
21
674.998
31
0
0
LINE
8
PIPES
10
-40.581467
20
149.998
30
0
11
-820.006062
21
599.999
31
0
0
LINE
8
PIPES
10
-2119.044168
20
-1650.001
30
0
11
-1339.619572
21
-2100.002
31
0
0
LINE
8
PIPES
10
-820.006062
20
-900.001
30
0
11
-1599.427194
21
-450.002
31
0
0
LINE
8
PIPES
10
-820.006062
20
-900.001
30
0
11
-2119.044168
21
-1650.001
31
0
0
LINE
8
PIPES
10
479.040704
20
-149.996
30
0
11
-300.380428
21
300.003
31
0
0
LINE
8
PIPES
10
479.040704
20
-149.996
30
0
11
-820.006062
21
-900.001
31
0
0
LINE
8
PIPES
10
-2119.044168
20
-150.001
30
0
11
-1339.619572
21
-600.002
31
0
0
LINE
8
PIPES
10
-820.006062
20
599.999
30
0
11
-1599.427194
21
1049.998
31
0
0
LINE
8
PIPES
10
-820.006062
20
599.999
30
0
11
-1469.525115
21
224.999
31
0
0
LINE
8
PIPES
10
479.040704
20
1350.004
30
0
11
-300.380428
21
1800.003
31
0
0
LINE
8
PIPES
10
479.040704
20
1350.004
30
0
11
-170.478349
21
975.004
31
0
0
LINE
8
PIPES
10
-1339.619572
20
-600.002
30
0
11
-1339.619572
21
-300.002
31
0
0
LINE
8
PIPES
10
1258.465299
20
900.003
30
0
11
1258.465299
21
1200.003
31
0
0
LINE
8
PIPES
10
-300.380428
20
1800.003
30
0
11
-300.380428
21
2100.003
31
0
0
LINE
8
PIPES
10
-2898.465299
20
299.998
30
0
11
-2898.465299
21
599.998
31
0
0
LINE
8
PIPES
10
-40.581467
20
149.998
30
0
11
-40.581467
21
449.998
31
0
0
LINE
8
PIPES
10
-1599.427194
20
1049.998
30
0
11
-1599.427194
21
1349.998
31
0
0
LINE
8
PIPES
10
-2119.044168
20
-150.001
30
0
11
-2119.044168
21
149.999
31
0
0
LINE
8
PIPES
10
479.040704
20
1350.004
30
0
11
479.040704
21
1650.004
31
0
0
LINE
8
PIPES
10
-1339.619572
20
-300.002
30
0
11
-40.581467
21
449.998
31
0
0
LINE
8
PIPES
10
1258.465299
20
1200.003
30
0
11
479.040704
21
1650.004
31
0
0
LINE
8
PIPES
10
-300.380428
20
2100.003
30
0
11
-1599.427194
21
1349.998
31
0
0
LINE
8
PIPES
10
-40.581467
20
449.998
30
0
11
1258.465299
21
1200.003
31
0
0
LINE
8
PIPES
10
-1599.427194
20
1349.998
30
0
11
-2898.465299
21
599.998
31
0
0
LINE
8
PIPES
10
-2119.044168
20
149.999
30
0
11
-1339.619572
21
-300.002
31
0
0
LINE
8
PIPES
10
479.040704
20
1650.004
30
0
11
-300.380428
21
2100.003
31
0
0
LINE
8
PIPES
10
-1339.619572
20
-300.002
30
0
11
-1339.619572
21
-0.002
31
0
0
LINE
8
PIPES
10
1258.465299
20
1200.003
30
0
11
1258.465299
21
1500.003
31
0
0
LINE
8
PIPES
10
-300.380428
20
2100.003
30
0
11
-300.380428
21
2400.003
31
0
0
LINE
8
PIPES
10
-2898.465299
20
599.998
30
0
11
-2898.465299
21
899.998
31
0
0
LINE
8
PIPES
10
-40.581467
20
449.998
30
0
11
-40.581467
21
749.998
31
0
0
LINE
8
PIPES
10
-1599.427194
20
1349.998
30
0
11
-1599.427194
21
1649.998
31
0
0
LINE
8
PIPES
10
-2119.044168
20
149.999
30
0
11
-2119.044168
21
449.999
31
0
0
LINE
8
PIPES
10
479.040704
20
1650.004
30
0
11
479.040704
21
1950.004
31
0
0
LINE
8
PIPES
10
-1339.619572
20
-0.002
30
0
11
-40.581467
21
749.998
31
0
0
LINE
8
PIPES
10
1258.465299
20
1500.003
30
0
11
479.040704
21
1950.004
31
0
0
LINE
8
PIPES
10
-300.380428
20
2400.003
30
0
11
-1599.427194
21
1649.998
31
0
0
LINE
8
PIPES
10
-40.581467
20
749.998
30
0
11
1258.465299
21
1500.003
31
0
0
LINE
8
PIPES
10
-1599.427194
20
1649.998
30
0
11
-2898.465299
21
899.998
31
0
0
LINE
8
PIPES
10
-2119.044168
20
449.999
30
0
11
-1339.619572
21
-0.002
31
0
0
LINE
8
PIPES
10
479.040704
20
1950.004
30
0
11
-300.380428
21
2400.003
31
0
0
LINE
8
PIPES
10
-2898.465299
20
299.998
30
0
11
-1339.619572
21
-2400.003
31
0
0
LINE
8
PIPES
10
-300.380428
20
1800.003
30
0
11
-1599.427194
21
-750.003
31
0
0
LINE
8
PIPES
10
-1599.427194
20
-750.003
30
0
11
-2898.465299
21
299.998
31
0
0
LINE
8
PIPES
10
1258.465299
20
900.003
30
0
11
-300.380428
21
0.002
31
0
0
LINE
8
PIPES
10
-40.581467
20
149.998
30
0
11
-1339.619572
21
-2400.003
31
0
0
LINE
8
PIPES
10
-40.581467
20
149.998
30
0
11
1258.465299
21
-899.998
31
0
0
LINE
8
PIPES
10
-690.10052
20
-225.002
30
0
11
-40.581467
21
149.998
31
0
0
LINE
8
PIPES
10
-1469.525115
20
224.999
30
0
11
-2119.044168
21
-150.001
31
0
0
LINE
8
PIPES
10
-1469.525115
20
224.999
30
0
11
-690.10052
21
-225.002
31
0
0
LINE
8
PIPES
10
-2248.946246
20
674.998
30
0
11
-2898.465299
21
299.998
31
0
0
LINE
8
PIPES
10
-2248.946246
20
674.998
30
0
11
-1469.525115
21
224.999
31
0
0
LINE
8
PIPES
10
-949.89948
20
1425.003
30
0
11
-1599.427194
21
1049.998
31
0
0
LINE
8
PIPES
10
-170.478349
20
975.004
30
0
11
-820.006062
21
599.999
31
0
0
LINE
8
PIPES
10
-949.89948
20
1425.003
30
0
11
-170.478349
21
975.004
31
0
0
LINE
8
PIPES
10
608.946246
20
525.003
30
0
11
1258.465299
21
900.003
31
0
0
LINE
8
PIPES
10
608.946246
20
525.003
30
0
11
-170.478349
21
975.004
31
0
0
CIRCLE
8
DIMENSION
62
6
10
-1339.619572
20
-2100.002
30
0
40
85
0
CIRCLE
8
DIMENSION
62
6
10
1258.465299
20
-599.997
30
0
40
85
0
CIRCLE
8
DIMENSION
62
6
10
-300.380428
20
300.003
30
0
40
85
0
CIRCLE
8
DIMENSION
62
6
10
-2898.465299
20
-1200.002
30
0
40
85
0
CIRCLE
8
DIMENSION
62
6
10
-1339.619572
20
-600.002
30
0
40
85
0
CIRCLE
8
DIMENSION
62
6
10
1258.465299
20
900.003
30
0
40
85
0
CIRCLE
8
DIMENSION
62
6
10
-300.380428
20
1800.003
30
0
40
85
0
CIRCLE
8
DIMENSION
62
6
10
-2898.465299
20
299.998
30
0
40
85
0
LINE
8
DIMENSION
62
6
10
-1339.619572
20
-2100.002
30
0
11
1808.465299
21
-2100.002
31
0
0
LINE
8
DIMENSION
62
6
10
1808.465299
20
-2100.002
30
0
11
1808.465299
21
1980.003
31
0
0
LINE
8
DIMENSION
62
6
10
1258.465299
20
-599.997
30
0
11
1808.465299
21
-599.997
31
0
0
LINE
8
DIMENSION
62
6
10
1808.465299
20
-599.997
30
0
11
1808.465299
21
1980.003
31
0
0
LINE
8
DIMENSION
62
6
10
-300.380428
20
300.003
30
0
11
1808.465299
21
300.003
31
0
0
LINE
8
DIMENSION
62
6
10
1808.465299
20
300.003
30
0
11
1808.465299
21
1980.003
31
0
0
LINE
8
DIMENSION
62
6
10
-2898.465299
20
-1200.002
30
0
11
1808.465299
21
-1200.002
31
0
0
LINE
8
DIMENSION
62
6
10
1808.465299
20
-1200.002
30
0
11
1808.465299
21
1980.003
31
0
0
LINE
8
DIMENSION
62
6
10
-1339.619572
20
-600.002
30
0
11
1808.465299
21
-600.002
31
0
0
LINE
8
DIMENSION
62
6
10
1808.465299
20
-600.002
30
0
11
1808.465299
21
1980.003
31
0
0
LINE
8
DIMENSION
62
6
10
1258.465299
20
900.003
30
0
11
1808.465299
21
900.003
31
0
0
LINE
8
DIMENSION
62
6
10
1808.465299
20
900.003
30
0
11
1808.465299
21
1980.003
31
0
0
LINE
8
DIMENSION
62
6
10
-300.380428
20
1800.003
30
0
11
1808.465299
21
1800.003
31
0
0
LINE
8
DIMENSION
62
6
10
1808.465299
20
1800.003
30
0
11
1808.465299
21
1980.003
31
0
0
LINE
8
DIMENSION
62
6
10
-2898.465299
20
299.998
30
0
11
1808.465299
21
299.998
31
0
0
LINE
8
DIMENSION
62
6
10
1808.465299
20
299.998
30
0
11
1808.465299
21
1980.003
31
0
0
LINE
8
DIMENSION
62
6
10
1808.465299
20
1980.003
30
0
11
2078.465299
21
1980.003
31
0
0
TEXT
8
DIMENSION
62
6
10
2158.465299
20
1980.003
30
0
40
75
1
Tie points to
50
0
7
STANDARD
0
TEXT
8
DIMENSION
62
6
10
2158.465299
20
1850.003
30
0
40
75
1
existing structures
50
0
7
STANDARD
0
TEXT
8
DIMENSION
62
6
10
2158.465299
20
1720.003
30
0
40
75
1
at indicated points.
50
0
7
STANDARD
0
ENDSEC
0
EOF
