0
SECTION
2
HEADER
9
$ACADVER
1
AC1009
9
$INSUNITS
70
4
9
$MEASUREMENT
70
1
9
$LUNITS
70
2
9
$LUPREC
70
1
9
$TILEMODE
70
1
9
$EXTMIN
10
-3377.503405
20
-4450.0075
30
0
9
$EXTMAX
10
3377.503405
20
4450.0075
30
0
9
$PEXTMIN
10
-3377.503405
20
-4450.0075
30
0
9
$PEXTMAX
10
3377.503405
20
4450.0075
30
0
9
$LIMMIN
10
-3877.503405
20
-4950.0075
9
$LIMMAX
10
3877.503405
20
4950.0075
9
$PLIMMIN
10
-3877.503405
20
-4950.0075
9
$PLIMMAX
10
3877.503405
20
4950.0075
0
ENDSEC
0
SECTION
2
TABLES
0
TABLE
2
VPORT
70
1
0
VPORT
2
*ACTIVE
70
0
10
0
20
0
11
1
21
1
12
0
22
0
40
9900.015
41
0.783333
42
50
43
0
44
0
50
0
51
0
71
0
72
100
73
1
74
3
75
0
76
0
77
0
78
0
0
ENDTAB
0
TABLE
2
LTYPE
70
2
0
LTYPE
2
CONTINUOUS
70
0
3
Solid line
72
65
73
0
40
0
0
LTYPE
2
DASHED
70
0
3
Dashed
72
65
73
2
40
240
49
120
74
0
49
-120
74
0
0
ENDTAB
0
TABLE
2
LAYER
70
6
0
LAYER
2
PIPES
70
0
62
5
6
CONTINUOUS
0
LAYER
2
PIPE_ENDS
70
0
62
5
6
CONTINUOUS
0
LAYER
2
DIMENSION
70
0
62
1
6
CONTINUOUS
0
LAYER
2
LEVEL_GUIDE
70
0
62
1
6
DASHED
0
LAYER
2
LEVEL_TEXT
70
0
62
1
6
CONTINUOUS
0
LAYER
2
FRAME
70
0
62
5
6
CONTINUOUS
0
ENDTAB
0
TABLE
2
STYLE
70
1
0
STYLE
2
STANDARD
70
0
40
0
41
1
50
0
71
0
42
100
3
txt
4

0
ENDTAB
0
ENDSEC
0
SECTION
2
BLOCKS
0
BLOCK
8
0
2
$MODEL_SPACE
70
0
10
0
20
0
30
0
3
$MODEL_SPACE
0
ENDBLK
8
0
0
BLOCK
67
1
8
0
2
$PAPER_SPACE
70
0
10
0
20
0
30
0
3
$PAPER_SPACE
0
ENDBLK
67
1
8
0
0
ENDSEC
0
SECTION
2
ENTITIES
0
LINE
8
PIPES
10
-1818.657678
20
550.0025
30
0
11
-3377.503405
21
1450.0025
31
0
0
LINE
8
PIPES
10
-3377.503405
20
1450.0025
30
0
11
-1645.452597
21
2450.0025
31
0
0
LINE
8
PIPES
10
-1645.452597
20
2450.0025
30
0
11
86.606871
21
3450.0075
31
0
0
LINE
8
PIPES
10
86.606871
20
3450.0075
30
0
11
1818.657678
21
4450.0075
31
0
0
LINE
8
PIPES
10
1818.657678
20
4450.0075
30
0
11
3377.503405
21
3550.0075
31
0
0
LINE
8
PIPES
10
3377.503405
20
3550.0075
30
0
11
1645.452597
21
2550.0075
31
0
0
LINE
8
PIPES
10
1645.452597
20
2550.0075
30
0
11
-86.606871
21
1550.0025
31
0
0
LINE
8
PIPES
10
-86.606871
20
1550.0025
30
0
11
-1818.657678
21
550.0025
31
0
0
LINE
8
PIPES
10
-86.606871
20
1550.0025
30
0
11
-1645.452597
21
2450.0025
31
0
0
LINE
8
PIPES
10
86.606871
20
3450.0075
30
0
11
1645.452597
21
2550.0075
31
0
0
LINE
8
PIPES
10
-1818.657678
20
550.0025
30
0
11
-1818.657678
21
-449.9975
31
0
0
LINE
8
PIPES
10
-3377.503405
20
1450.0025
30
0
11
-3377.503405
21
450.0025
31
0
0
LINE
8
PIPES
10
-1645.452597
20
2450.0025
30
0
11
-1645.452597
21
1450.0025
31
0
0
LINE
8
PIPES
10
86.606871
20
3450.0075
30
0
11
86.606871
21
2450.0075
31
0
0
LINE
8
PIPES
10
1818.657678
20
4450.0075
30
0
11
1818.657678
21
3450.0075
31
0
0
LINE
8
PIPES
10
3377.503405
20
3550.0075
30
0
11
3377.503405
21
2550.0075
31
0
0
LINE
8
PIPES
10
1645.452597
20
2550.0075
30
0
11
1645.452597
21
1550.0075
31
0
0
LINE
8
PIPES
10
-86.606871
20
1550.0025
30
0
11
-86.606871
21
550.0025
31
0
0
LINE
8
PIPES
10
-1818.657678
20
-449.9975
30
0
11
-3377.503405
21
450.0025
31
0
0
LINE
8
PIPES
10
-3377.503405
20
450.0025
30
0
11
-1645.452597
21
1450.0025
31
0
0
LINE
8
PIPES
10
-1645.452597
20
1450.0025
30
0
11
86.606871
21
2450.0075
31
0
0
LINE
8
PIPES
10
86.606871
20
2450.0075
30
0
11
1818.657678
21
3450.0075
31
0
0
LINE
8
PIPES
10
1818.657678
20
3450.0075
30
0
11
3377.503405
21
2550.0075
31
0
0
LINE
8
PIPES
10
3377.503405
20
2550.0075
30
0
11
1645.452597
21
1550.0075
31
0
0
LINE
8
PIPES
10
1645.452597
20
1550.0075
30
0
11
-86.606871
21
550.0025
31
0
0
LINE
8
PIPES
10
-86.606871
20
550.0025
30
0
11
-1818.657678
21
-449.9975
31
0
0
LINE
8
PIPES
10
-86.606871
20
550.0025
30
0
11
-1645.452597
21
1450.0025
31
0
0
LINE
8
PIPES
10
86.606871
20
2450.0075
30
0
11
1645.452597
21
1550.0075
31
0
0
LINE
8
PIPES
10
-1818.657678
20
-449.9975
30
0
11
-1818.657678
21
-2450.0075
31
0
0
LINE
8
PIPES
10
-3377.503405
20
450.0025
30
0
11
-3377.503405
21
-1550.0075
31
0
0
LINE
8
PIPES
10
-1645.452597
20
1450.0025
30
0
11
-1645.452597
21
-550.0075
31
0
0
LINE
8
PIPES
10
86.606871
20
2450.0075
30
0
11
86.606871
21
449.9975
31
0
0
LINE
8
PIPES
10
1818.657678
20
3450.0075
30
0
11
1818.657678
21
1449.9975
31
0
0
LINE
8
PIPES
10
3377.503405
20
2550.0075
30
0
11
3377.503405
21
549.9975
31
0
0
LINE
8
PIPES
10
1645.452597
20
1550.0075
30
0
11
1645.452597
21
-450.0025
31
0
0
LINE
8
PIPES
10
-86.606871
20
550.0025
30
0
11
-86.606871
21
-1450.0075
31
0
0
LINE
8
PIPES
10
-1818.657678
20
-2450.0075
30
0
11
-3377.503405
21
-1550.0075
31
0
0
LINE
8
PIPES
10
-3377.503405
20
-1550.0075
30
0
11
-1645.452597
21
-550.0075
31
0
0
LINE
8
PIPES
10
-1645.452597
20
-550.0075
30
0
11
86.606871
21
449.9975
31
0
0
LINE
8
PIPES
10
86.606871
20
449.9975
30
0
11
1818.657678
21
1449.9975
31
0
0
LINE
8
PIPES
10
1818.657678
20
1449.9975
30
0
11
3377.503405
21
549.9975
31
0
0
LINE
8
PIPES
10
3377.503405
20
549.9975
30
0
11
1645.452597
21
-450.0025
31
0
0
LINE
8
PIPES
10
1645.452597
20
-450.0025
30
0
11
-86.606871
21
-1450.0075
31
0
0
LINE
8
PIPES
10
-86.606871
20
-1450.0075
30
0
11
-1818.657678
21
-2450.0075
31
0
0
LINE
8
PIPES
10
-86.606871
20
-1450.0075
30
0
11
-1645.452597
21
-550.0075
31
0
0
LINE
8
PIPES
10
86.606871
20
449.9975
30
0
11
1645.452597
21
-450.0025
31
0
0
LINE
8
PIPES
10
-1818.657678
20
-2450.0075
30
0
11
-1818.657678
21
-3450.0075
31
0
0
LINE
8
PIPES
10
-3377.503405
20
-1550.0075
30
0
11
-3377.503405
21
-2550.0075
31
0
0
LINE
8
PIPES
10
-1645.452597
20
-550.0075
30
0
11
-1645.452597
21
-1550.0075
31
0
0
LINE
8
PIPES
10
86.606871
20
449.9975
30
0
11
86.606871
21
-550.0025
31
0
0
LINE
8
PIPES
10
1818.657678
20
1449.9975
30
0
11
1818.657678
21
449.9975
31
0
0
LINE
8
PIPES
10
3377.503405
20
549.9975
30
0
11
3377.503405
21
-450.0025
31
0
0
LINE
8
PIPES
10
1645.452597
20
-450.0025
30
0
11
1645.452597
21
-1450.0025
31
0
0
LINE
8
PIPES
10
-86.606871
20
-1450.0075
30
0
11
-86.606871
21
-2450.0075
31
0
0
LINE
8
PIPES
10
-1818.657678
20
-4450.0075
30
0
11
-3377.503405
21
-3550.0075
31
0
0
LINE
8
PIPES
10
-3377.503405
20
-3550.0075
30
0
11
-1645.452597
21
-2550.0075
31
0
0
LINE
8
PIPES
10
-1645.452597
20
-2550.0075
30
0
11
86.606871
21
-1550.0025
31
0
0
LINE
8
PIPES
10
86.606871
20
-1550.0025
30
0
11
1818.657678
21
-550.0025
31
0
0
LINE
8
PIPES
10
1818.657678
20
-550.0025
30
0
11
3377.503405
21
-1450.0025
31
0
0
LINE
8
PIPES
10
3377.503405
20
-1450.0025
30
0
11
1645.452597
21
-2450.0025
31
0
0
LINE
8
PIPES
10
1645.452597
20
-2450.0025
30
0
11
-86.606871
21
-3450.0075
31
0
0
LINE
8
PIPES
10
-86.606871
20
-3450.0075
30
0
11
-1818.657678
21
-4450.0075
31
0
0
LINE
8
PIPES
10
-86.606871
20
-3450.0075
30
0
11
-1645.452597
21
-2550.0075
31
0
0
LINE
8
PIPES
10
86.606871
20
-1550.0025
30
0
11
1645.452597
21
-2450.0025
31
0
0
LINE
8
PIPES
10
-1818.657678
20
-3950.0075
30
0
11
-1818.657678
21
-4450.0075
31
0
0
LINE
8
PIPES
10
-3377.503405
20
-3050.0075
30
0
11
-3377.503405
21
-3550.0075
31
0
0
LINE
8
PIPES
10
-1645.452597
20
-2050.0075
30
0
11
-1645.452597
21
-2550.0075
31
0
0
LINE
8
PIPES
10
86.606871
20
-1050.0025
30
0
11
86.606871
21
-1550.0025
31
0
0
LINE
8
PIPES
10
1818.657678
20
-50.0025
30
0
11
1818.657678
21
-550.0025
31
0
0
LINE
8
PIPES
10
3377.503405
20
-950.0025
30
0
11
3377.503405
21
-1450.0025
31
0
0
LINE
8
PIPES
10
1645.452597
20
-1950.0025
30
0
11
1645.452597
21
-2450.0025
31
0
0
LINE
8
PIPES
10
-86.606871
20
-2950.0075
30
0
11
-86.606871
21
-3450.0075
31
0
0
LINE
8
PIPES
10
-1818.657678
20
-3950.0075
30
0
11
-3377.503405
21
-3050.0075
31
0
0
LINE
8
PIPES
10
-3377.503405
20
-3050.0075
30
0
11
-1645.452597
21
-2050.0075
31
0
0
LINE
8
PIPES
10
-1645.452597
20
-2050.0075
30
0
11
86.606871
21
-1050.0025
31
0
0
LINE
8
PIPES
10
86.606871
20
-1050.0025
30
0
11
1818.657678
21
-50.0025
31
0
0
LINE
8
PIPES
10
1818.657678
20
-50.0025
30
0
11
3377.503405
21
-950.0025
31
0
0
LINE
8
PIPES
10
3377.503405
20
-950.0025
30
0
11
1645.452597
21
-1950.0025
31
0
0
LINE
8
PIPES
10
1645.452597
20
-1950.0025
30
0
11
-86.606871
21
-2950.0075
31
0
0
LINE
8
PIPES
10
-86.606871
20
-2950.0075
30
0
11
-1818.657678
21
-3950.0075
31
0
0
LINE
8
PIPES
10
-1818.657678
20
-3450.0075
30
0
11
-1818.657678
21
-3950.0075
31
0
0
LINE
8
PIPES
10
-3377.503405
20
-2550.0075
30
0
11
-3377.503405
21
-3050.0075
31
0
0
LINE
8
PIPES
10
-1645.452597
20
-1550.0075
30
0
11
-1645.452597
21
-2050.0075
31
0
0
LINE
8
PIPES
10
86.606871
20
-550.0025
30
0
11
86.606871
21
-1050.0025
31
0
0
LINE
8
PIPES
10
1818.657678
20
449.9975
30
0
11
1818.657678
21
-50.0025
31
0
0
LINE
8
PIPES
10
3377.503405
20
-450.0025
30
0
11
3377.503405
21
-950.0025
31
0
0
LINE
8
PIPES
10
1645.452597
20
-1450.0025
30
0
11
1645.452597
21
-1950.0025
31
0
0
LINE
8
PIPES
10
-86.606871
20
-2450.0075
30
0
11
-86.606871
21
-2950.0075
31
0
0
LINE
8
PIPES
10
-1818.657678
20
-3450.0075
30
0
11
-3377.503405
21
-2550.0075
31
0
0
LINE
8
PIPES
10
-3377.503405
20
-2550.0075
30
0
11
-1645.452597
21
-1550.0075
31
0
0
LINE
8
PIPES
10
-1645.452597
20
-1550.0075
30
0
11
86.606871
21
-550.0025
31
0
0
LINE
8
PIPES
10
86.606871
20
-550.0025
30
0
11
1818.657678
21
449.9975
31
0
0
LINE
8
PIPES
10
1818.657678
20
449.9975
30
0
11
3377.503405
21
-450.0025
31
0
0
LINE
8
PIPES
10
3377.503405
20
-450.0025
30
0
11
1645.452597
21
-1450.0025
31
0
0
LINE
8
PIPES
10
1645.452597
20
-1450.0025
30
0
11
-86.606871
21
-2450.0075
31
0
0
LINE
8
PIPES
10
-86.606871
20
-2450.0075
30
0
11
-1818.657678
21
-3450.0075
31
0
0
LINE
8
PIPES
10
-86.606871
20
1550.0025
30
0
11
-1818.657678
21
-449.9975
31
0
0
LINE
8
PIPES
10
-1818.657678
20
-449.9975
30
0
11
-86.606871
21
-1450.0075
31
0
0
LINE
8
PIPES
10
1645.452597
20
2550.0075
30
0
11
-86.606871
21
550.0025
31
0
0
LINE
8
PIPES
10
-86.606871
20
550.0025
30
0
11
1645.452597
21
-450.0025
31
0
0
LINE
8
PIPES
10
3377.503405
20
3550.0075
30
0
11
1645.452597
21
1550.0075
31
0
0
LINE
8
PIPES
10
1645.452597
20
1550.0075
30
0
11
3377.503405
21
549.9975
31
0
0
LINE
8
PIPES
10
-3377.503405
20
1450.0025
30
0
11
-1645.452597
21
1450.0025
31
0
0
LINE
8
PIPES
10
-1645.452597
20
1450.0025
30
0
11
-3377.503405
21
-1550.0075
31
0
0
LINE
8
PIPES
10
-3377.503405
20
-1550.0075
30
0
11
-1645.452597
21
-2550.0075
31
0
0
LINE
8
PIPES
10
-1645.452597
20
2450.0025
30
0
11
86.606871
21
2450.0075
31
0
0
LINE
8
PIPES
10
86.606871
20
2450.0075
30
0
11
-1645.452597
21
-550.0075
31
0
0
LINE
8
PIPES
10
-1645.452597
20
-550.0075
30
0
11
86.606871
21
-1550.0025
31
0
0
LINE
8
PIPES
10
86.606871
20
3450.0075
30
0
11
1818.657678
21
3450.0075
31
0
0
LINE
8
PIPES
10
1818.657678
20
3450.0075
30
0
11
86.606871
21
449.9975
31
0
0
LINE
8
PIPES
10
86.606871
20
449.9975
30
0
11
1818.657678
21
-550.0025
31
0
0
LINE
8
PIPES
10
-1818.657678
20
550.0025
30
0
11
-3377.503405
21
450.0025
31
0
0
LINE
8
PIPES
10
-3377.503405
20
450.0025
30
0
11
-1818.657678
21
-2450.0075
31
0
0
LINE
8
PIPES
10
-1818.657678
20
-2450.0075
30
0
11
-3377.503405
21
-3550.0075
31
0
0
LINE
8
PIPES
10
1818.657678
20
4450.0075
30
0
11
3377.503405
21
2550.0075
31
0
0
LINE
8
PIPES
10
3377.503405
20
2550.0075
30
0
11
1818.657678
21
1449.9975
31
0
0
LINE
8
PIPES
10
1818.657678
20
1449.9975
30
0
11
3377.503405
21
-1450.0025
31
0
0
LINE
8
PIPES
10
-86.606871
20
550.0025
30
0
11
-1645.452597
21
-550.0075
31
0
0
LINE
8
PIPES
10
-86.606871
20
550.0025
30
0
11
-1645.452597
21
2450.0025
31
0
0
LINE
8
PIPES
10
1645.452597
20
2550.0075
30
0
11
86.606871
21
2450.0075
31
0
0
LINE
8
PIPES
10
86.606871
20
2450.0075
30
0
11
1645.452597
21
-450.0025
31
0
0
ENDSEC
0
EOF
