0
SECTION
2
HEADER
9
$ACADVER
1
AC1009
9
$INSUNITS
70
4
9
$MEASUREMENT
70
1
9
$LUNITS
70
2
9
$LUPREC
70
1
9
$TILEMODE
70
1
9
$EXTMIN
10
-2663.63
20
-1991.726273
30
0
9
$EXTMAX
10
2663.63
20
1991.726273
30
0
9
$PEXTMIN
10
-2663.63
20
-1991.726273
30
0
9
$PEXTMAX
10
2663.63
20
1991.726273
30
0
9
$LIMMIN
10
-3163.63
20
-2491.726273
9
$LIMMAX
10
3163.63
20
2491.726273
9
$PLIMMIN
10
-3163.63
20
-2491.726273
9
$PLIMMAX
10
3163.63
20
2491.726273
0
ENDSEC
0
SECTION
2
TABLES
0
TABLE
2
VPORT
70
1
0
VPORT
2
*ACTIVE
70
0
10
0
20
0
11
1
21
1
12
0
22
0
40
4983.452545
41
1.269654
42
50
43
0
44
0
50
0
51
0
71
0
72
100
73
1
74
3
75
0
76
0
77
0
78
0
0
ENDTAB
0
TABLE
2
LTYPE
70
2
0
LTYPE
2
CONTINUOUS
70
0
3
Solid line
72
65
73
0
40
0
0
LTYPE
2
DASHED
70
0
3
Dashed
72
65
73
2
40
240
49
120
74
0
49
-120
74
0
0
ENDTAB
0
TABLE
2
LAYER
70
6
0
LAYER
2
PIPES
70
0
62
5
6
CONTINUOUS
0
LAYER
2
PIPE_ENDS
70
0
62
5
6
CONTINUOUS
0
LAYER
2
DIMENSION
70
0
62
1
6
CONTINUOUS
0
LAYER
2
LEVEL_GUIDE
70
0
62
1
6
DASHED
0
LAYER
2
LEVEL_TEXT
70
0
62
1
6
CONTINUOUS
0
LAYER
2
FRAME
70
0
62
5
6
CONTINUOUS
0
ENDTAB
0
TABLE
2
STYLE
70
1
0
STYLE
2
STANDARD
70
0
40
0
41
1
50
0
71
0
42
100
3
txt
4

0
ENDTAB
0
ENDSEC
0
SECTION
2
BLOCKS
0
BLOCK
8
0
2
$MODEL_SPACE
70
0
10
0
20
0
30
0
3
$MODEL_SPACE
0
ENDBLK
8
0
0
BLOCK
67
1
8
0
2
$PAPER_SPACE
70
0
10
0
20
0
30
0
3
$PAPER_SPACE
0
ENDBLK
67
1
8
0
0
ENDSEC
0
SECTION
2
ENTITIES
0
LINE
8
PIPES
10
-2483.63
20
-771.725273
30
0
11
-1608.628
21
-771.725273
31
0
0
LINE
8
PIPES
10
1016.38
20
-771.725273
30
0
11
-733.63
21
-771.725273
31
0
0
LINE
8
PIPES
10
-733.63
20
-771.725273
30
0
11
-2483.63
21
-771.725273
31
0
0
LINE
8
PIPES
10
-2483.63
20
-771.725273
30
0
11
-2483.63
21
-1071.726273
31
0
0
LINE
8
PIPES
10
1016.38
20
-771.725273
30
0
11
1016.38
21
-1071.726273
31
0
0
LINE
8
PIPES
10
-733.63
20
-771.725273
30
0
11
-733.63
21
-1071.726273
31
0
0
LINE
8
PIPES
10
-2483.63
20
428.274727
30
0
11
-2483.63
21
-771.725273
31
0
0
LINE
8
PIPES
10
1016.38
20
428.274727
30
0
11
1016.38
21
-771.725273
31
0
0
LINE
8
PIPES
10
-2483.63
20
-771.725273
30
0
11
-2483.63
21
-271.724273
31
0
0
LINE
8
PIPES
10
1016.38
20
-771.725273
30
0
11
1016.38
21
-271.724273
31
0
0
LINE
8
PIPES
10
-733.63
20
428.274727
30
0
11
-733.63
21
-771.725273
31
0
0
LINE
8
PIPES
10
-733.63
20
428.274727
30
0
11
1016.38
21
428.274727
31
0
0
LINE
8
PIPES
10
-2483.63
20
428.274727
30
0
11
-733.63
21
428.274727
31
0
0
LINE
8
PIPES
10
-2483.63
20
1928.284727
30
0
11
-2483.63
21
428.274727
31
0
0
LINE
8
PIPES
10
1016.38
20
1928.284727
30
0
11
1016.38
21
428.274727
31
0
0
LINE
8
PIPES
10
-733.63
20
1928.284727
30
0
11
-733.63
21
428.274727
31
0
0
LINE
8
PIPES
10
-733.63
20
1928.284727
30
0
11
1016.38
21
1928.284727
31
0
0
LINE
8
PIPES
10
-733.63
20
1928.284727
30
0
11
-2483.63
21
1928.284727
31
0
0
LINE
8
PIPES
10
-733.63
20
-771.725273
30
0
11
141.38
21
-771.725273
31
0
0
LINE
8
PIPES
10
-2483.63
20
-271.724273
30
0
11
-2483.63
21
228.274727
31
0
0
LINE
8
PIPES
10
1016.38
20
-271.724273
30
0
11
1016.38
21
228.274727
31
0
0
LINE
8
PIPES
10
-2483.63
20
-271.724273
30
0
11
-733.63
21
-271.724273
31
0
0
LINE
8
PIPES
10
-2483.63
20
228.274727
30
0
11
-2483.63
21
428.274727
31
0
0
LINE
8
PIPES
10
1016.38
20
228.274727
30
0
11
1016.38
21
428.274727
31
0
0
LINE
8
PIPES
10
-2483.63
20
228.274727
30
0
11
-733.63
21
228.274727
31
0
0
LINE
8
PIPES
10
-1608.628
20
-771.725273
30
0
11
-733.63
21
-771.725273
31
0
0
LINE
8
PIPES
10
141.38
20
-771.725273
30
0
11
1016.38
21
-771.725273
31
0
0
LINE
8
PIPES
10
1016.38
20
1928.284727
30
0
11
1016.38
21
228.274727
31
0
0
LINE
8
PIPES
10
-2483.63
20
1928.284727
30
0
11
-2483.63
21
228.274727
31
0
0
LINE
8
PIPES
10
-2483.63
20
1928.284727
30
0
11
-733.63
21
428.274727
31
0
0
LINE
8
PIPES
10
-733.63
20
428.274727
30
0
11
-2483.63
21
-771.725273
31
0
0
LINE
8
PIPES
10
-733.63
20
1928.284727
30
0
11
1016.38
21
428.274727
31
0
0
LINE
8
PIPES
10
1016.38
20
428.274727
30
0
11
-733.63
21
-771.725273
31
0
0
LINE
8
PIPES
10
-733.63
20
1928.284727
30
0
11
-2483.63
21
428.274727
31
0
0
LINE
8
PIPES
10
-2483.63
20
428.274727
30
0
11
-733.63
21
-771.725273
31
0
0
LINE
8
PIPES
10
1016.38
20
1928.284727
30
0
11
-733.63
21
428.274727
31
0
0
LINE
8
PIPES
10
-733.63
20
428.274727
30
0
11
1016.38
21
-771.725273
31
0
0
LINE
8
PIPES
10
-733.63
20
228.274727
30
0
11
1016.38
21
228.274727
31
0
0
LINE
8
PIPES
10
-733.63
20
-271.724273
30
0
11
1016.38
21
-271.724273
31
0
0
LINE
8
PIPES
10
-733.63
20
-271.724273
30
0
11
-733.63
21
-771.725273
31
0
0
LINE
8
PIPES
10
-733.63
20
-271.724273
30
0
11
-733.63
21
228.274727
31
0
0
CIRCLE
8
PIPE_ENDS
10
-2483.63
20
-771.725273
30
0
40
32
0
CIRCLE
8
PIPE_ENDS
10
1016.37
20
-771.725273
30
0
40
32
0
CIRCLE
8
PIPE_ENDS
10
-733.63
20
-771.725273
30
0
40
32
0
CIRCLE
8
PIPE_ENDS
10
-2483.63
20
428.274727
30
0
40
32
0
CIRCLE
8
PIPE_ENDS
10
1016.37
20
428.274727
30
0
40
25
0
CIRCLE
8
PIPE_ENDS
10
-733.63
20
428.274727
30
0
40
32
0
CIRCLE
8
PIPE_ENDS
10
-2483.63
20
1928.274727
30
0
40
32
0
CIRCLE
8
PIPE_ENDS
10
1016.37
20
1928.274727
30
0
40
32
0
CIRCLE
8
PIPE_ENDS
10
-733.63
20
1928.274727
30
0
40
32
0
CIRCLE
8
PIPE_ENDS
10
1016.37
20
-271.725273
30
0
40
25
0
CIRCLE
8
PIPE_ENDS
10
-2483.63
20
-271.725273
30
0
40
25
0
CIRCLE
8
PIPE_ENDS
10
1016.37
20
228.274727
30
0
40
25
0
CIRCLE
8
PIPE_ENDS
10
-2483.63
20
228.274727
30
0
40
25
0
CIRCLE
8
PIPE_ENDS
10
-1608.63
20
-771.725273
30
0
40
25
0
CIRCLE
8
PIPE_ENDS
10
141.37
20
-771.725273
30
0
40
25
0
LINE
8
LEVEL_GUIDE
6
DASHED
10
-2663.63
20
-1071.725273
30
0
11
1196.38
21
-1071.725273
31
0
0
LINE
8
LEVEL_GUIDE
6
DASHED
10
-2663.63
20
-771.725273
30
0
11
1196.38
21
-771.725273
31
0
0
LINE
8
LEVEL_GUIDE
6
DASHED
10
-2663.63
20
-271.725273
30
0
11
1196.38
21
-271.725273
31
0
0
LINE
8
LEVEL_GUIDE
6
DASHED
10
-2663.63
20
228.274727
30
0
11
1196.38
21
228.274727
31
0
0
LINE
8
LEVEL_GUIDE
6
DASHED
10
-2663.63
20
428.274727
30
0
11
1196.38
21
428.274727
31
0
0
LINE
8
LEVEL_GUIDE
6
DASHED
10
-2663.63
20
1928.284727
30
0
11
1196.38
21
1928.284727
31
0
0
LINE
8
DIMENSION
10
-2483.63
20
-1131.726273
30
0
11
-2483.63
21
-1451.726273
31
0
0
LINE
8
DIMENSION
10
-1608.63
20
-1131.726273
30
0
11
-1608.63
21
-1451.726273
31
0
0
LINE
8
DIMENSION
10
-2483.63
20
-1451.726273
30
0
11
-1608.63
21
-1451.726273
31
0
0
LINE
8
DIMENSION
10
-2483.63
20
-1451.726273
30
0
11
-2547.071545
21
-1422.142994
31
0
0
LINE
8
DIMENSION
10
-2483.63
20
-1451.726273
30
0
11
-2547.071545
21
-1481.309551
31
0
0
LINE
8
DIMENSION
10
-1608.63
20
-1451.726273
30
0
11
-1545.188455
21
-1481.309551
31
0
0
LINE
8
DIMENSION
10
-1608.63
20
-1451.726273
30
0
11
-1545.188455
21
-1422.142994
31
0
0
TEXT
8
DIMENSION
10
-2046.13
20
-1621.726273
30
0
40
85
1
0.875
50
0
7
STANDARD
72
1
73
2
11
-2046.13
21
-1621.726273
31
0
0
LINE
8
DIMENSION
10
-1608.63
20
-1131.726273
30
0
11
-1608.63
21
-1451.726273
31
0
0
LINE
8
DIMENSION
10
-733.63
20
-1131.726273
30
0
11
-733.63
21
-1451.726273
31
0
0
LINE
8
DIMENSION
10
-1608.63
20
-1451.726273
30
0
11
-733.63
21
-1451.726273
31
0
0
LINE
8
DIMENSION
10
-1608.63
20
-1451.726273
30
0
11
-1672.071545
21
-1422.142994
31
0
0
LINE
8
DIMENSION
10
-1608.63
20
-1451.726273
30
0
11
-1672.071545
21
-1481.309551
31
0
0
LINE
8
DIMENSION
10
-733.63
20
-1451.726273
30
0
11
-670.188455
21
-1481.309551
31
0
0
LINE
8
DIMENSION
10
-733.63
20
-1451.726273
30
0
11
-670.188455
21
-1422.142994
31
0
0
TEXT
8
DIMENSION
10
-1171.13
20
-1621.726273
30
0
40
85
1
0.875
50
0
7
STANDARD
72
1
73
2
11
-1171.13
21
-1621.726273
31
0
0
LINE
8
DIMENSION
10
-733.63
20
-1131.726273
30
0
11
-733.63
21
-1451.726273
31
0
0
LINE
8
DIMENSION
10
141.38
20
-1131.726273
30
0
11
141.38
21
-1451.726273
31
0
0
LINE
8
DIMENSION
10
-733.63
20
-1451.726273
30
0
11
141.38
21
-1451.726273
31
0
0
LINE
8
DIMENSION
10
-733.63
20
-1451.726273
30
0
11
-797.071545
21
-1422.142994
31
0
0
LINE
8
DIMENSION
10
-733.63
20
-1451.726273
30
0
11
-797.071545
21
-1481.309551
31
0
0
LINE
8
DIMENSION
10
141.38
20
-1451.726273
30
0
11
204.821545
21
-1481.309551
31
0
0
LINE
8
DIMENSION
10
141.38
20
-1451.726273
30
0
11
204.821545
21
-1422.142994
31
0
0
TEXT
8
DIMENSION
10
-296.125
20
-1621.726273
30
0
40
85
1
0.875
50
0
7
STANDARD
72
1
73
2
11
-296.125
21
-1621.726273
31
0
0
LINE
8
DIMENSION
10
141.38
20
-1131.726273
30
0
11
141.38
21
-1451.726273
31
0
0
LINE
8
DIMENSION
10
1016.38
20
-1131.726273
30
0
11
1016.38
21
-1451.726273
31
0
0
LINE
8
DIMENSION
10
141.38
20
-1451.726273
30
0
11
1016.38
21
-1451.726273
31
0
0
LINE
8
DIMENSION
10
141.38
20
-1451.726273
30
0
11
77.938455
21
-1422.142994
31
0
0
LINE
8
DIMENSION
10
141.38
20
-1451.726273
30
0
11
77.938455
21
-1481.309551
31
0
0
LINE
8
DIMENSION
10
1016.38
20
-1451.726273
30
0
11
1079.821545
21
-1481.309551
31
0
0
LINE
8
DIMENSION
10
1016.38
20
-1451.726273
30
0
11
1079.821545
21
-1422.142994
31
0
0
TEXT
8
DIMENSION
10
578.88
20
-1621.726273
30
0
40
85
1
0.875
50
0
7
STANDARD
72
1
73
2
11
578.88
21
-1621.726273
31
0
0
LINE
8
DIMENSION
10
-2483.63
20
-1131.726273
30
0
11
-2483.63
21
-1821.726273
31
0
0
LINE
8
DIMENSION
10
1016.38
20
-1131.726273
30
0
11
1016.38
21
-1821.726273
31
0
0
LINE
8
DIMENSION
10
-2483.63
20
-1821.726273
30
0
11
1016.38
21
-1821.726273
31
0
0
LINE
8
DIMENSION
10
-2483.63
20
-1821.726273
30
0
11
-2547.071545
21
-1792.142994
31
0
0
LINE
8
DIMENSION
10
-2483.63
20
-1821.726273
30
0
11
-2547.071545
21
-1851.309551
31
0
0
LINE
8
DIMENSION
10
1016.38
20
-1821.726273
30
0
11
1079.821545
21
-1851.309551
31
0
0
LINE
8
DIMENSION
10
1016.38
20
-1821.726273
30
0
11
1079.821545
21
-1792.142994
31
0
0
TEXT
8
DIMENSION
10
-733.625
20
-1991.726273
30
0
40
85
1
TOTAL 3.5
50
0
7
STANDARD
72
1
73
2
11
-733.625
21
-1991.726273
31
0
0
LINE
8
DIMENSION
10
1076.38
20
-1071.725273
30
0
11
1716.38
21
-1071.725273
31
0
0
LINE
8
DIMENSION
10
1076.38
20
-771.725273
30
0
11
1716.38
21
-771.725273
31
0
0
LINE
8
DIMENSION
10
1716.38
20
-1071.725273
30
0
11
1716.38
21
-771.725273
31
0
0
LINE
8
DIMENSION
10
1716.38
20
-1071.725273
30
0
11
1686.796722
21
-1135.166818
31
0
0
LINE
8
DIMENSION
10
1716.38
20
-1071.725273
30
0
11
1745.963278
21
-1135.166818
31
0
0
LINE
8
DIMENSION
10
1716.38
20
-771.725273
30
0
11
1745.963278
21
-708.283727
31
0
0
LINE
8
DIMENSION
10
1716.38
20
-771.725273
30
0
11
1686.796722
21
-708.283727
31
0
0
TEXT
8
DIMENSION
10
1886.38
20
-921.725273
30
0
40
85
1
0.3
50
90
7
STANDARD
72
1
73
2
11
1886.38
21
-921.725273
31
0
0
LINE
8
DIMENSION
10
1076.38
20
-771.725273
30
0
11
1716.38
21
-771.725273
31
0
0
LINE
8
DIMENSION
10
1076.38
20
-271.725273
30
0
11
1716.38
21
-271.725273
31
0
0
LINE
8
DIMENSION
10
1716.38
20
-771.725273
30
0
11
1716.38
21
-271.725273
31
0
0
LINE
8
DIMENSION
10
1716.38
20
-771.725273
30
0
11
1686.796722
21
-835.166818
31
0
0
LINE
8
DIMENSION
10
1716.38
20
-771.725273
30
0
11
1745.963278
21
-835.166818
31
0
0
LINE
8
DIMENSION
10
1716.38
20
-271.725273
30
0
11
1745.963278
21
-208.283727
31
0
0
LINE
8
DIMENSION
10
1716.38
20
-271.725273
30
0
11
1686.796722
21
-208.283727
31
0
0
TEXT
8
DIMENSION
10
1886.38
20
-521.725273
30
0
40
85
1
0.5
50
90
7
STANDARD
72
1
73
2
11
1886.38
21
-521.725273
31
0
0
LINE
8
DIMENSION
10
1076.38
20
-271.725273
30
0
11
1716.38
21
-271.725273
31
0
0
LINE
8
DIMENSION
10
1076.38
20
228.274727
30
0
11
1716.38
21
228.274727
31
0
0
LINE
8
DIMENSION
10
1716.38
20
-271.725273
30
0
11
1716.38
21
228.274727
31
0
0
LINE
8
DIMENSION
10
1716.38
20
-271.725273
30
0
11
1686.796722
21
-335.166818
31
0
0
LINE
8
DIMENSION
10
1716.38
20
-271.725273
30
0
11
1745.963278
21
-335.166818
31
0
0
LINE
8
DIMENSION
10
1716.38
20
228.274727
30
0
11
1745.963278
21
291.716273
31
0
0
LINE
8
DIMENSION
10
1716.38
20
228.274727
30
0
11
1686.796722
21
291.716273
31
0
0
TEXT
8
DIMENSION
10
1886.38
20
-21.725273
30
0
40
85
1
0.5
50
90
7
STANDARD
72
1
73
2
11
1886.38
21
-21.725273
31
0
0
LINE
8
DIMENSION
10
1076.38
20
228.274727
30
0
11
1716.38
21
228.274727
31
0
0
LINE
8
DIMENSION
10
1076.38
20
428.274727
30
0
11
1716.38
21
428.274727
31
0
0
LINE
8
DIMENSION
10
1716.38
20
228.274727
30
0
11
1716.38
21
428.274727
31
0
0
LINE
8
DIMENSION
10
1716.38
20
228.274727
30
0
11
1686.796722
21
164.833182
31
0
0
LINE
8
DIMENSION
10
1716.38
20
228.274727
30
0
11
1745.963278
21
164.833182
31
0
0
LINE
8
DIMENSION
10
1716.38
20
428.274727
30
0
11
1745.963278
21
491.716273
31
0
0
LINE
8
DIMENSION
10
1716.38
20
428.274727
30
0
11
1686.796722
21
491.716273
31
0
0
TEXT
8
DIMENSION
10
1886.38
20
328.274727
30
0
40
85
1
0.2
50
90
7
STANDARD
72
1
73
2
11
1886.38
21
328.274727
31
0
0
LINE
8
DIMENSION
10
1076.38
20
428.274727
30
0
11
1716.38
21
428.274727
31
0
0
LINE
8
DIMENSION
10
1076.38
20
1928.284727
30
0
11
1716.38
21
1928.284727
31
0
0
LINE
8
DIMENSION
10
1716.38
20
428.274727
30
0
11
1716.38
21
1928.284727
31
0
0
LINE
8
DIMENSION
10
1716.38
20
428.274727
30
0
11
1686.796722
21
364.833182
31
0
0
LINE
8
DIMENSION
10
1716.38
20
428.274727
30
0
11
1745.963278
21
364.833182
31
0
0
LINE
8
DIMENSION
10
1716.38
20
1928.284727
30
0
11
1745.963278
21
1991.726273
31
0
0
LINE
8
DIMENSION
10
1716.38
20
1928.284727
30
0
11
1686.796722
21
1991.726273
31
0
0
TEXT
8
DIMENSION
10
1886.38
20
1178.279727
30
0
40
85
1
1.5
50
90
7
STANDARD
72
1
73
2
11
1886.38
21
1178.279727
31
0
0
LINE
8
DIMENSION
10
1076.38
20
-1071.725273
30
0
11
2166.38
21
-1071.725273
31
0
0
LINE
8
DIMENSION
10
1076.38
20
1928.284727
30
0
11
2166.38
21
1928.284727
31
0
0
LINE
8
DIMENSION
10
2166.38
20
-1071.725273
30
0
11
2166.38
21
1928.284727
31
0
0
LINE
8
DIMENSION
10
2166.38
20
-1071.725273
30
0
11
2136.796722
21
-1135.166818
31
0
0
LINE
8
DIMENSION
10
2166.38
20
-1071.725273
30
0
11
2195.963278
21
-1135.166818
31
0
0
LINE
8
DIMENSION
10
2166.38
20
1928.284727
30
0
11
2195.963278
21
1991.726273
31
0
0
LINE
8
DIMENSION
10
2166.38
20
1928.284727
30
0
11
2136.796722
21
1991.726273
31
0
0
TEXT
8
DIMENSION
10
2336.38
20
428.279727
30
0
40
85
1
TOTAL 3
50
90
7
STANDARD
72
1
73
2
11
2336.38
21
428.279727
31
0
0
ENDSEC
0
EOF
