0
SECTION
2
HEADER
9
$ACADVER
1
AC1009
9
$INSUNITS
70
4
9
$MEASUREMENT
70
1
9
$LUNITS
70
2
9
$LUPREC
70
1
9
$TILEMODE
70
1
9
$EXTMIN
10
-3913.63
20
-2991.725773
30
0
9
$EXTMAX
10
3913.63
20
2991.725773
30
0
9
$PEXTMIN
10
-3913.63
20
-2991.725773
30
0
9
$PEXTMAX
10
3913.63
20
2991.725773
30
0
9
$LIMMIN
10
-4413.63
20
-3491.725773
9
$LIMMAX
10
4413.63
20
3491.725773
9
$PLIMMIN
10
-4413.63
20
-3491.725773
9
$PLIMMAX
10
4413.63
20
3491.725773
0
ENDSEC
0
SECTION
2
TABLES
0
TABLE
2
VPORT
70
1
0
VPORT
2
*ACTIVE
70
0
10
0
20
0
11
1
21
1
12
0
22
0
40
6983.451545
41
1.264025
42
50
43
0
44
0
50
0
51
0
71
0
72
100
73
1
74
3
75
0
76
0
77
0
78
0
0
ENDTAB
0
TABLE
2
LTYPE
70
2
0
LTYPE
2
CONTINUOUS
70
0
3
Solid line
72
65
73
0
40
0
0
LTYPE
2
DASHED
70
0
3
Dashed
72
65
73
2
40
240
49
120
74
0
49
-120
74
0
0
ENDTAB
0
TABLE
2
LAYER
70
6
0
LAYER
2
PIPES
70
0
62
5
6
CONTINUOUS
0
LAYER
2
PIPE_ENDS
70
0
62
5
6
CONTINUOUS
0
LAYER
2
DIMENSION
70
0
62
1
6
CONTINUOUS
0
LAYER
2
LEVEL_GUIDE
70
0
62
1
6
DASHED
0
LAYER
2
LEVEL_TEXT
70
0
62
1
6
CONTINUOUS
0
LAYER
2
FRAME
70
0
62
5
6
CONTINUOUS
0
ENDTAB
0
TABLE
2
STYLE
70
1
0
STYLE
2
STANDARD
70
0
40
0
41
1
50
0
71
0
42
100
3
txt
4

0
ENDTAB
0
ENDSEC
0
SECTION
2
BLOCKS
0
BLOCK
8
0
2
$MODEL_SPACE
70
0
10
0
20
0
30
0
3
$MODEL_SPACE
0
ENDBLK
8
0
0
BLOCK
67
1
8
0
2
$PAPER_SPACE
70
0
10
0
20
0
30
0
3
$PAPER_SPACE
0
ENDBLK
67
1
8
0
0
ENDSEC
0
SECTION
2
ENTITIES
0
LINE
8
PIPES
10
-1733.63
20
2928.284227
30
0
11
-3733.63
21
2928.284227
31
0
0
LINE
8
PIPES
10
266.38
20
2928.284227
30
0
11
-1733.63
21
2928.284227
31
0
0
LINE
8
PIPES
10
2266.38
20
2928.284227
30
0
11
266.38
21
2928.284227
31
0
0
LINE
8
PIPES
10
-3733.63
20
2928.284227
30
0
11
-3733.63
21
1928.284227
31
0
0
LINE
8
PIPES
10
-1733.63
20
1928.284227
30
0
11
-1733.63
21
2928.284227
31
0
0
LINE
8
PIPES
10
266.38
20
2928.284227
30
0
11
266.38
21
1928.284227
31
0
0
LINE
8
PIPES
10
2266.38
20
2928.284227
30
0
11
2266.38
21
1928.284227
31
0
0
LINE
8
PIPES
10
-1733.63
20
1928.284227
30
0
11
-3733.63
21
1928.284227
31
0
0
LINE
8
PIPES
10
266.38
20
1928.284227
30
0
11
-1733.63
21
1928.284227
31
0
0
LINE
8
PIPES
10
2266.38
20
1928.284227
30
0
11
266.38
21
1928.284227
31
0
0
LINE
8
PIPES
10
-3733.63
20
1928.284227
30
0
11
-3733.63
21
-71.725773
31
0
0
LINE
8
PIPES
10
-1733.63
20
1928.284227
30
0
11
-1733.63
21
-71.725773
31
0
0
LINE
8
PIPES
10
266.38
20
1928.284227
30
0
11
266.38
21
-71.725773
31
0
0
LINE
8
PIPES
10
2266.38
20
1928.284227
30
0
11
2266.38
21
-71.725773
31
0
0
LINE
8
PIPES
10
-1733.63
20
-71.725773
30
0
11
-3733.63
21
-71.725773
31
0
0
LINE
8
PIPES
10
266.38
20
-71.725773
30
0
11
-1733.63
21
-71.725773
31
0
0
LINE
8
PIPES
10
2266.38
20
-71.725773
30
0
11
266.38
21
-71.725773
31
0
0
LINE
8
PIPES
10
-3733.63
20
-71.725773
30
0
11
-3733.63
21
-1071.725773
31
0
0
LINE
8
PIPES
10
-1733.63
20
-71.725773
30
0
11
-1733.63
21
-1071.725773
31
0
0
LINE
8
PIPES
10
266.38
20
-71.725773
30
0
11
266.38
21
-1071.725773
31
0
0
LINE
8
PIPES
10
2266.38
20
-71.725773
30
0
11
2266.38
21
-1071.725773
31
0
0
LINE
8
PIPES
10
-1733.63
20
-2071.725773
30
0
11
-3733.63
21
-2071.725773
31
0
0
LINE
8
PIPES
10
266.38
20
-2071.725773
30
0
11
-1733.63
21
-2071.725773
31
0
0
LINE
8
PIPES
10
2266.38
20
-2071.725773
30
0
11
266.38
21
-2071.725773
31
0
0
LINE
8
PIPES
10
-3733.63
20
-1571.725773
30
0
11
-3733.63
21
-2071.725773
31
0
0
LINE
8
PIPES
10
-1733.63
20
-1571.725773
30
0
11
-1733.63
21
-2071.725773
31
0
0
LINE
8
PIPES
10
266.38
20
-1571.725773
30
0
11
266.38
21
-2071.725773
31
0
0
LINE
8
PIPES
10
2266.38
20
-1571.725773
30
0
11
2266.38
21
-2071.725773
31
0
0
LINE
8
PIPES
10
-1733.63
20
-1571.725773
30
0
11
-3733.63
21
-1571.725773
31
0
0
LINE
8
PIPES
10
266.38
20
-1571.725773
30
0
11
-1733.63
21
-1571.725773
31
0
0
LINE
8
PIPES
10
2266.38
20
-1571.725773
30
0
11
266.38
21
-1571.725773
31
0
0
LINE
8
PIPES
10
-3733.63
20
-1071.725773
30
0
11
-3733.63
21
-1571.725773
31
0
0
LINE
8
PIPES
10
-1733.63
20
-1071.725773
30
0
11
-1733.63
21
-1571.725773
31
0
0
LINE
8
PIPES
10
266.38
20
-1071.725773
30
0
11
266.38
21
-1571.725773
31
0
0
LINE
8
PIPES
10
2266.38
20
-1071.725773
30
0
11
2266.38
21
-1571.725773
31
0
0
LINE
8
PIPES
10
-1733.63
20
-1071.725773
30
0
11
-3733.63
21
-1071.725773
31
0
0
LINE
8
PIPES
10
266.38
20
-1071.725773
30
0
11
-1733.63
21
-1071.725773
31
0
0
LINE
8
PIPES
10
2266.38
20
-1071.725773
30
0
11
266.38
21
-1071.725773
31
0
0
LINE
8
PIPES
10
-1733.63
20
2928.284227
30
0
11
-3733.63
21
1928.284227
31
0
0
LINE
8
PIPES
10
-3733.63
20
1928.284227
30
0
11
-1733.63
21
-71.725773
31
0
0
LINE
8
PIPES
10
266.38
20
2928.284227
30
0
11
-1733.63
21
1928.284227
31
0
0
LINE
8
PIPES
10
-1733.63
20
1928.284227
30
0
11
266.38
21
-71.725773
31
0
0
LINE
8
PIPES
10
2266.38
20
2928.284227
30
0
11
266.38
21
1928.284227
31
0
0
LINE
8
PIPES
10
266.38
20
1928.284227
30
0
11
2266.38
21
-71.725773
31
0
0
LINE
8
PIPES
10
-3733.63
20
2928.284227
30
0
11
-1733.63
21
1928.284227
31
0
0
LINE
8
PIPES
10
-1733.63
20
1928.284227
30
0
11
-3733.63
21
-71.725773
31
0
0
LINE
8
PIPES
10
-3733.63
20
-71.725773
30
0
11
-1733.63
21
-2071.725773
31
0
0
LINE
8
PIPES
10
-1733.63
20
2928.284227
30
0
11
266.38
21
1928.284227
31
0
0
LINE
8
PIPES
10
266.38
20
1928.284227
30
0
11
-1733.63
21
-71.725773
31
0
0
LINE
8
PIPES
10
-1733.63
20
-71.725773
30
0
11
266.38
21
-2071.725773
31
0
0
LINE
8
PIPES
10
266.38
20
2928.284227
30
0
11
2266.38
21
1928.284227
31
0
0
LINE
8
PIPES
10
2266.38
20
1928.284227
30
0
11
266.38
21
-71.725773
31
0
0
LINE
8
PIPES
10
266.38
20
-71.725773
30
0
11
2266.38
21
-2071.725773
31
0
0
LINE
8
PIPES
10
-3733.63
20
-71.725773
30
0
11
-3733.63
21
-2071.725773
31
0
0
LINE
8
PIPES
10
2266.38
20
-71.725773
30
0
11
2266.38
21
-2071.725773
31
0
0
CIRCLE
8
PIPE_ENDS
10
-3733.63
20
2928.284227
30
0
40
25
0
CIRCLE
8
PIPE_ENDS
10
2266.37
20
2928.284227
30
0
40
25
0
CIRCLE
8
PIPE_ENDS
10
-1733.63
20
2928.284227
30
0
40
25
0
CIRCLE
8
PIPE_ENDS
10
266.37
20
2928.284227
30
0
40
25
0
CIRCLE
8
PIPE_ENDS
10
-3733.63
20
1928.284227
30
0
40
25
0
CIRCLE
8
PIPE_ENDS
10
2266.37
20
1928.284227
30
0
40
25
0
CIRCLE
8
PIPE_ENDS
10
-1733.63
20
1928.284227
30
0
40
25
0
CIRCLE
8
PIPE_ENDS
10
266.37
20
1928.284227
30
0
40
25
0
CIRCLE
8
PIPE_ENDS
10
-3733.63
20
-71.715773
30
0
40
25
0
CIRCLE
8
PIPE_ENDS
10
2266.37
20
-71.715773
30
0
40
25
0
CIRCLE
8
PIPE_ENDS
10
-1733.63
20
-71.715773
30
0
40
25
0
CIRCLE
8
PIPE_ENDS
10
266.37
20
-71.715773
30
0
40
25
0
CIRCLE
8
PIPE_ENDS
10
-3733.63
20
-2071.715773
30
0
40
25
0
CIRCLE
8
PIPE_ENDS
10
2266.37
20
-2071.715773
30
0
40
25
0
CIRCLE
8
PIPE_ENDS
10
-1733.63
20
-2071.715773
30
0
40
25
0
CIRCLE
8
PIPE_ENDS
10
266.37
20
-2071.715773
30
0
40
25
0
CIRCLE
8
PIPE_ENDS
10
-3733.63
20
-1571.715773
30
0
40
25
0
CIRCLE
8
PIPE_ENDS
10
2266.37
20
-1571.715773
30
0
40
25
0
CIRCLE
8
PIPE_ENDS
10
-3733.63
20
-1071.715773
30
0
40
25
0
CIRCLE
8
PIPE_ENDS
10
2266.37
20
-1071.715773
30
0
40
25
0
LINE
8
LEVEL_GUIDE
6
DASHED
10
-3913.63
20
-2071.725773
30
0
11
2446.38
21
-2071.725773
31
0
0
LINE
8
LEVEL_GUIDE
6
DASHED
10
-3913.63
20
-1571.725773
30
0
11
2446.38
21
-1571.725773
31
0
0
LINE
8
LEVEL_GUIDE
6
DASHED
10
-3913.63
20
-1071.725773
30
0
11
2446.38
21
-1071.725773
31
0
0
LINE
8
LEVEL_GUIDE
6
DASHED
10
-3913.63
20
-71.725773
30
0
11
2446.38
21
-71.725773
31
0
0
LINE
8
LEVEL_GUIDE
6
DASHED
10
-3913.63
20
1928.284227
30
0
11
2446.38
21
1928.284227
31
0
0
LINE
8
LEVEL_GUIDE
6
DASHED
10
-3913.63
20
2928.284227
30
0
11
2446.38
21
2928.284227
31
0
0
LINE
8
DIMENSION
10
-3733.63
20
-2131.725773
30
0
11
-3733.63
21
-2451.725773
31
0
0
LINE
8
DIMENSION
10
-1733.63
20
-2131.725773
30
0
11
-1733.63
21
-2451.725773
31
0
0
LINE
8
DIMENSION
10
-3733.63
20
-2451.725773
30
0
11
-1733.63
21
-2451.725773
31
0
0
LINE
8
DIMENSION
10
-3733.63
20
-2451.725773
30
0
11
-3797.071545
21
-2422.142494
31
0
0
LINE
8
DIMENSION
10
-3733.63
20
-2451.725773
30
0
11
-3797.071545
21
-2481.309051
31
0
0
LINE
8
DIMENSION
10
-1733.63
20
-2451.725773
30
0
11
-1670.188455
21
-2481.309051
31
0
0
LINE
8
DIMENSION
10
-1733.63
20
-2451.725773
30
0
11
-1670.188455
21
-2422.142494
31
0
0
TEXT
8
DIMENSION
10
-2733.63
20
-2621.725773
30
0
40
85
1
2
50
0
7
STANDARD
72
1
73
2
11
-2733.63
21
-2621.725773
31
0
0
LINE
8
DIMENSION
10
-1733.63
20
-2131.725773
30
0
11
-1733.63
21
-2451.725773
31
0
0
LINE
8
DIMENSION
10
266.38
20
-2131.725773
30
0
11
266.38
21
-2451.725773
31
0
0
LINE
8
DIMENSION
10
-1733.63
20
-2451.725773
30
0
11
266.38
21
-2451.725773
31
0
0
LINE
8
DIMENSION
10
-1733.63
20
-2451.725773
30
0
11
-1797.071545
21
-2422.142494
31
0
0
LINE
8
DIMENSION
10
-1733.63
20
-2451.725773
30
0
11
-1797.071545
21
-2481.309051
31
0
0
LINE
8
DIMENSION
10
266.38
20
-2451.725773
30
0
11
329.821545
21
-2481.309051
31
0
0
LINE
8
DIMENSION
10
266.38
20
-2451.725773
30
0
11
329.821545
21
-2422.142494
31
0
0
TEXT
8
DIMENSION
10
-733.625
20
-2621.725773
30
0
40
85
1
2
50
0
7
STANDARD
72
1
73
2
11
-733.625
21
-2621.725773
31
0
0
LINE
8
DIMENSION
10
266.38
20
-2131.725773
30
0
11
266.38
21
-2451.725773
31
0
0
LINE
8
DIMENSION
10
2266.38
20
-2131.725773
30
0
11
2266.38
21
-2451.725773
31
0
0
LINE
8
DIMENSION
10
266.38
20
-2451.725773
30
0
11
2266.38
21
-2451.725773
31
0
0
LINE
8
DIMENSION
10
266.38
20
-2451.725773
30
0
11
202.938455
21
-2422.142494
31
0
0
LINE
8
DIMENSION
10
266.38
20
-2451.725773
30
0
11
202.938455
21
-2481.309051
31
0
0
LINE
8
DIMENSION
10
2266.38
20
-2451.725773
30
0
11
2329.821545
21
-2481.309051
31
0
0
LINE
8
DIMENSION
10
2266.38
20
-2451.725773
30
0
11
2329.821545
21
-2422.142494
31
0
0
TEXT
8
DIMENSION
10
1266.38
20
-2621.725773
30
0
40
85
1
2
50
0
7
STANDARD
72
1
73
2
11
1266.38
21
-2621.725773
31
0
0
LINE
8
DIMENSION
10
-3733.63
20
-2131.725773
30
0
11
-3733.63
21
-2821.725773
31
0
0
LINE
8
DIMENSION
10
2266.38
20
-2131.725773
30
0
11
2266.38
21
-2821.725773
31
0
0
LINE
8
DIMENSION
10
-3733.63
20
-2821.725773
30
0
11
2266.38
21
-2821.725773
31
0
0
LINE
8
DIMENSION
10
-3733.63
20
-2821.725773
30
0
11
-3797.071545
21
-2792.142494
31
0
0
LINE
8
DIMENSION
10
-3733.63
20
-2821.725773
30
0
11
-3797.071545
21
-2851.309051
31
0
0
LINE
8
DIMENSION
10
2266.38
20
-2821.725773
30
0
11
2329.821545
21
-2851.309051
31
0
0
LINE
8
DIMENSION
10
2266.38
20
-2821.725773
30
0
11
2329.821545
21
-2792.142494
31
0
0
TEXT
8
DIMENSION
10
-733.625
20
-2991.725773
30
0
40
85
1
TOTAL 6
50
0
7
STANDARD
72
1
73
2
11
-733.625
21
-2991.725773
31
0
0
LINE
8
DIMENSION
10
2326.38
20
-2071.725773
30
0
11
2966.38
21
-2071.725773
31
0
0
LINE
8
DIMENSION
10
2326.38
20
-1571.725773
30
0
11
2966.38
21
-1571.725773
31
0
0
LINE
8
DIMENSION
10
2966.38
20
-2071.725773
30
0
11
2966.38
21
-1571.725773
31
0
0
LINE
8
DIMENSION
10
2966.38
20
-2071.725773
30
0
11
2936.796722
21
-2135.167318
31
0
0
LINE
8
DIMENSION
10
2966.38
20
-2071.725773
30
0
11
2995.963278
21
-2135.167318
31
0
0
LINE
8
DIMENSION
10
2966.38
20
-1571.725773
30
0
11
2995.963278
21
-1508.284227
31
0
0
LINE
8
DIMENSION
10
2966.38
20
-1571.725773
30
0
11
2936.796722
21
-1508.284227
31
0
0
TEXT
8
DIMENSION
10
3136.38
20
-1821.725773
30
0
40
85
1
0.5
50
90
7
STANDARD
72
1
73
2
11
3136.38
21
-1821.725773
31
0
0
LINE
8
DIMENSION
10
2326.38
20
-1571.725773
30
0
11
2966.38
21
-1571.725773
31
0
0
LINE
8
DIMENSION
10
2326.38
20
-1071.725773
30
0
11
2966.38
21
-1071.725773
31
0
0
LINE
8
DIMENSION
10
2966.38
20
-1571.725773
30
0
11
2966.38
21
-1071.725773
31
0
0
LINE
8
DIMENSION
10
2966.38
20
-1571.725773
30
0
11
2936.796722
21
-1635.167318
31
0
0
LINE
8
DIMENSION
10
2966.38
20
-1571.725773
30
0
11
2995.963278
21
-1635.167318
31
0
0
LINE
8
DIMENSION
10
2966.38
20
-1071.725773
30
0
11
2995.963278
21
-1008.284227
31
0
0
LINE
8
DIMENSION
10
2966.38
20
-1071.725773
30
0
11
2936.796722
21
-1008.284227
31
0
0
TEXT
8
DIMENSION
10
3136.38
20
-1321.725773
30
0
40
85
1
0.5
50
90
7
STANDARD
72
1
73
2
11
3136.38
21
-1321.725773
31
0
0
LINE
8
DIMENSION
10
2326.38
20
-1071.725773
30
0
11
2966.38
21
-1071.725773
31
0
0
LINE
8
DIMENSION
10
2326.38
20
-71.725773
30
0
11
2966.38
21
-71.725773
31
0
0
LINE
8
DIMENSION
10
2966.38
20
-1071.725773
30
0
11
2966.38
21
-71.725773
31
0
0
LINE
8
DIMENSION
10
2966.38
20
-1071.725773
30
0
11
2936.796722
21
-1135.167318
31
0
0
LINE
8
DIMENSION
10
2966.38
20
-1071.725773
30
0
11
2995.963278
21
-1135.167318
31
0
0
LINE
8
DIMENSION
10
2966.38
20
-71.725773
30
0
11
2995.963278
21
-8.284227
31
0
0
LINE
8
DIMENSION
10
2966.38
20
-71.725773
30
0
11
2936.796722
21
-8.284227
31
0
0
TEXT
8
DIMENSION
10
3136.38
20
-571.725773
30
0
40
85
1
1
50
90
7
STANDARD
72
1
73
2
11
3136.38
21
-571.725773
31
0
0
LINE
8
DIMENSION
10
2326.38
20
-71.725773
30
0
11
2966.38
21
-71.725773
31
0
0
LINE
8
DIMENSION
10
2326.38
20
1928.284227
30
0
11
2966.38
21
1928.284227
31
0
0
LINE
8
DIMENSION
10
2966.38
20
-71.725773
30
0
11
2966.38
21
1928.284227
31
0
0
LINE
8
DIMENSION
10
2966.38
20
-71.725773
30
0
11
2936.796722
21
-135.167318
31
0
0
LINE
8
DIMENSION
10
2966.38
20
-71.725773
30
0
11
2995.963278
21
-135.167318
31
0
0
LINE
8
DIMENSION
10
2966.38
20
1928.284227
30
0
11
2995.963278
21
1991.725773
31
0
0
LINE
8
DIMENSION
10
2966.38
20
1928.284227
30
0
11
2936.796722
21
1991.725773
31
0
0
TEXT
8
DIMENSION
10
3136.38
20
928.279227
30
0
40
85
1
2
50
90
7
STANDARD
72
1
73
2
11
3136.38
21
928.279227
31
0
0
LINE
8
DIMENSION
10
2326.38
20
1928.284227
30
0
11
2966.38
21
1928.284227
31
0
0
LINE
8
DIMENSION
10
2326.38
20
2928.284227
30
0
11
2966.38
21
2928.284227
31
0
0
LINE
8
DIMENSION
10
2966.38
20
1928.284227
30
0
11
2966.38
21
2928.284227
31
0
0
LINE
8
DIMENSION
10
2966.38
20
1928.284227
30
0
11
2936.796722
21
1864.842682
31
0
0
LINE
8
DIMENSION
10
2966.38
20
1928.284227
30
0
11
2995.963278
21
1864.842682
31
0
0
LINE
8
DIMENSION
10
2966.38
20
2928.284227
30
0
11
2995.963278
21
2991.725773
31
0
0
LINE
8
DIMENSION
10
2966.38
20
2928.284227
30
0
11
2936.796722
21
2991.725773
31
0
0
TEXT
8
DIMENSION
10
3136.38
20
2428.284227
30
0
40
85
1
1
50
90
7
STANDARD
72
1
73
2
11
3136.38
21
2428.284227
31
0
0
LINE
8
DIMENSION
10
2326.38
20
-2071.725773
30
0
11
3416.38
21
-2071.725773
31
0
0
LINE
8
DIMENSION
10
2326.38
20
2928.284227
30
0
11
3416.38
21
2928.284227
31
0
0
LINE
8
DIMENSION
10
3416.38
20
-2071.725773
30
0
11
3416.38
21
2928.284227
31
0
0
LINE
8
DIMENSION
10
3416.38
20
-2071.725773
30
0
11
3386.796722
21
-2135.167318
31
0
0
LINE
8
DIMENSION
10
3416.38
20
-2071.725773
30
0
11
3445.963278
21
-2135.167318
31
0
0
LINE
8
DIMENSION
10
3416.38
20
2928.284227
30
0
11
3445.963278
21
2991.725773
31
0
0
LINE
8
DIMENSION
10
3416.38
20
2928.284227
30
0
11
3386.796722
21
2991.725773
31
0
0
TEXT
8
DIMENSION
10
3586.38
20
428.279227
30
0
40
85
1
TOTAL 5
50
90
7
STANDARD
72
1
73
2
11
3586.38
21
428.279227
31
0
0
ENDSEC
0
EOF
