0
SECTION
2
HEADER
9
$ACADVER
1
AC1009
9
$INSUNITS
70
4
9
$MEASUREMENT
70
1
9
$LUNITS
70
2
9
$LUPREC
70
1
9
$TILEMODE
70
1
9
$EXTMIN
10
-4124.531908
20
-2350.003
30
0
9
$EXTMAX
10
4124.531908
20
2350.003
30
0
9
$PEXTMIN
10
-4124.531908
20
-2350.003
30
0
9
$PEXTMAX
10
4124.531908
20
2350.003
30
0
9
$LIMMIN
10
-4624.531908
20
-2850.003
9
$LIMMAX
10
4624.531908
20
2850.003
9
$PLIMMIN
10
-4624.531908
20
-2850.003
9
$PLIMMAX
10
4624.531908
20
2850.003
0
ENDSEC
0
SECTION
2
TABLES
0
TABLE
2
VPORT
70
1
0
VPORT
2
*ACTIVE
70
0
10
0
20
0
11
1
21
1
12
0
22
0
40
5700.006
41
1.622641
42
50
43
0
44
0
50
0
51
0
71
0
72
100
73
1
74
3
75
0
76
0
77
0
78
0
0
ENDTAB
0
TABLE
2
LTYPE
70
2
0
LTYPE
2
CONTINUOUS
70
0
3
Solid line
72
65
73
0
40
0
0
LTYPE
2
DASHED
70
0
3
Dashed
72
65
73
2
40
240
49
120
74
0
49
-120
74
0
0
ENDTAB
0
TABLE
2
LAYER
70
6
0
LAYER
2
PIPES
70
0
62
5
6
CONTINUOUS
0
LAYER
2
PIPE_ENDS
70
0
62
5
6
CONTINUOUS
0
LAYER
2
DIMENSION
70
0
62
1
6
CONTINUOUS
0
LAYER
2
LEVEL_GUIDE
70
0
62
1
6
DASHED
0
LAYER
2
LEVEL_TEXT
70
0
62
1
6
CONTINUOUS
0
LAYER
2
FRAME
70
0
62
5
6
CONTINUOUS
0
ENDTAB
0
TABLE
2
STYLE
70
1
0
STYLE
2
STANDARD
70
0
40
0
41
1
50
0
71
0
42
100
3
txt
4

0
ENDTAB
0
ENDSEC
0
SECTION
2
BLOCKS
0
BLOCK
8
0
2
$MODEL_SPACE
70
0
10
0
20
0
30
0
3
$MODEL_SPACE
0
ENDBLK
8
0
0
BLOCK
67
1
8
0
2
$PAPER_SPACE
70
0
10
0
20
0
30
0
3
$PAPER_SPACE
0
ENDBLK
67
1
8
0
0
ENDSEC
0
SECTION
2
ENTITIES
0
LINE
8
PIPES
10
-2565.686181
20
-2050.002
30
0
11
-2305.877694
21
-1900.0015
31
0
0
LINE
8
PIPES
10
1764.449498
20
450.003
30
0
11
985.024903
21
900.004
31
0
0
LINE
8
PIPES
10
205.603772
20
1350.003
30
0
11
32.398691
21
1250.003
31
0
0
LINE
8
PIPES
10
-4124.531908
20
-1150.002
30
0
11
-3345.110776
21
-1600.001
31
0
0
LINE
8
PIPES
10
-1122.307621
20
-1216.667
30
0
11
-1006.840454
21
-1150.002
31
0
0
LINE
8
PIPES
10
321.070939
20
-383.332
30
0
11
552.013933
21
-249.997
31
0
0
LINE
8
PIPES
10
-1237.774788
20
516.668
30
0
11
-1266.639415
21
500.003
31
0
0
LINE
8
PIPES
10
-2681.153348
20
-316.667
30
0
11
-2825.493802
21
-400.002
31
0
0
LINE
8
PIPES
10
-1122.307621
20
-1216.667
30
0
11
-1901.732217
21
-766.666
31
0
0
LINE
8
PIPES
10
321.070939
20
-383.332
30
0
11
-458.353657
21
66.669
31
0
0
LINE
8
PIPES
10
-3345.110776
20
-1600.001
30
0
11
-2565.686181
21
-2050.002
31
0
0
LINE
8
PIPES
10
-1901.732217
20
-766.666
30
0
11
-2681.153348
21
-316.667
31
0
0
LINE
8
PIPES
10
-458.353657
20
66.669
30
0
11
-1237.774788
21
516.668
31
0
0
LINE
8
PIPES
10
985.024903
20
900.004
30
0
11
205.603772
21
1350.003
31
0
0
LINE
8
PIPES
10
-3345.110776
20
-1600.001
30
0
11
-2623.709883
21
-1183.5
31
0
0
LINE
8
PIPES
10
-1901.732217
20
-766.666
30
0
11
-1180.333055
21
-350.166
31
0
0
LINE
8
PIPES
10
-458.353657
20
66.669
30
0
11
263.045504
21
483.169
31
0
0
LINE
8
PIPES
10
-2565.686181
20
-2050.002
30
0
11
-2565.686181
21
-2350.003
31
0
0
LINE
8
PIPES
10
-4124.531908
20
-1150.002
30
0
11
-4124.531908
21
-1450.003
31
0
0
LINE
8
PIPES
10
-2565.686181
20
-2050.002
30
0
11
-2565.686181
21
-1550.001
31
0
0
LINE
8
PIPES
10
1764.449498
20
450.003
30
0
11
1764.449498
21
950.004
31
0
0
LINE
8
PIPES
10
205.603772
20
1350.003
30
0
11
205.603772
21
1850.004
31
0
0
LINE
8
PIPES
10
-4124.531908
20
-1150.002
30
0
11
-4124.531908
21
-650.001
31
0
0
LINE
8
PIPES
10
-1122.307621
20
-1216.667
30
0
11
-1122.307621
21
-716.666
31
0
0
LINE
8
PIPES
10
321.070939
20
-383.332
30
0
11
321.070939
21
116.669
31
0
0
LINE
8
PIPES
10
-1237.774788
20
516.668
30
0
11
-1237.774788
21
1016.669
31
0
0
LINE
8
PIPES
10
-2681.153348
20
-316.667
30
0
11
-2681.153348
21
183.334
31
0
0
LINE
8
PIPES
10
-3345.110776
20
-1600.001
30
0
11
-3345.110776
21
-1100
31
0
0
LINE
8
PIPES
10
985.024903
20
900.004
30
0
11
985.024903
21
1400.005
31
0
0
LINE
8
PIPES
10
-2565.686181
20
-1550.001
30
0
11
-1122.307621
21
-716.666
31
0
0
LINE
8
PIPES
10
1764.449498
20
950.004
30
0
11
985.024903
21
1400.005
31
0
0
LINE
8
PIPES
10
205.603772
20
1850.004
30
0
11
-1237.774788
21
1016.669
31
0
0
LINE
8
PIPES
10
321.070939
20
116.669
30
0
11
1764.449498
21
950.004
31
0
0
LINE
8
PIPES
10
-1237.774788
20
1016.669
30
0
11
-2681.153348
21
183.334
31
0
0
LINE
8
PIPES
10
-2681.153348
20
183.334
30
0
11
-4124.531908
21
-650.001
31
0
0
LINE
8
PIPES
10
-3345.110776
20
-1100
30
0
11
-2565.686181
21
-1550.001
31
0
0
LINE
8
PIPES
10
985.024903
20
1400.005
30
0
11
205.603772
21
1850.004
31
0
0
LINE
8
PIPES
10
-2565.686181
20
-1550.001
30
0
11
-2565.686181
21
-1050.002
31
0
0
LINE
8
PIPES
10
1764.449498
20
950.004
30
0
11
1764.449498
21
1450.003
31
0
0
LINE
8
PIPES
10
205.603772
20
1850.004
30
0
11
205.603772
21
2350.003
31
0
0
LINE
8
PIPES
10
-4124.531908
20
-650.001
30
0
11
-4124.531908
21
-150.002
31
0
0
LINE
8
PIPES
10
-1122.307621
20
-716.666
30
0
11
-1122.307621
21
-216.667
31
0
0
LINE
8
PIPES
10
321.070939
20
116.669
30
0
11
321.070939
21
616.668
31
0
0
LINE
8
PIPES
10
-1237.774788
20
1016.669
30
0
11
-1237.774788
21
1516.668
31
0
0
LINE
8
PIPES
10
-2681.153348
20
183.334
30
0
11
-2681.153348
21
683.333
31
0
0
LINE
8
PIPES
10
-3345.110776
20
-1100
30
0
11
-3345.110776
21
-600.001
31
0
0
LINE
8
PIPES
10
985.024903
20
1400.005
30
0
11
985.024903
21
1900.004
31
0
0
LINE
8
PIPES
10
-2565.686181
20
-1050.002
30
0
11
-1122.307621
21
-216.667
31
0
0
LINE
8
PIPES
10
1764.449498
20
1450.003
30
0
11
985.024903
21
1900.004
31
0
0
LINE
8
PIPES
10
205.603772
20
2350.003
30
0
11
-1237.774788
21
1516.668
31
0
0
LINE
8
PIPES
10
321.070939
20
616.668
30
0
11
1764.449498
21
1450.003
31
0
0
LINE
8
PIPES
10
-1237.774788
20
1516.668
30
0
11
-2681.153348
21
683.333
31
0
0
LINE
8
PIPES
10
-2681.153348
20
683.333
30
0
11
-4124.531908
21
-150.002
31
0
0
LINE
8
PIPES
10
-3345.110776
20
-600.001
30
0
11
-2565.686181
21
-1050.002
31
0
0
LINE
8
PIPES
10
985.024903
20
1900.004
30
0
11
205.603772
21
2350.003
31
0
0
LINE
8
PIPES
10
-2305.877694
20
-1900.0015
30
0
11
-2046.070073
21
-1750.0015
31
0
0
LINE
8
PIPES
10
-3864.723421
20
-1000.0015
30
0
11
-4124.531908
21
-1150.002
31
0
0
LINE
8
PIPES
10
-2565.686181
20
-2350.003
30
0
11
-2305.877694
21
-2200.0025
31
0
0
LINE
8
PIPES
10
-4124.531908
20
-1450.003
30
0
11
-3864.723421
21
-1300.0025
31
0
0
LINE
8
PIPES
10
-2305.877694
20
-1900.0015
30
0
11
-2305.877694
21
-2200.0025
31
0
0
LINE
8
PIPES
10
-3864.723421
20
-1000.0015
30
0
11
-3864.723421
21
-1300.0025
31
0
0
LINE
8
PIPES
10
-2046.070073
20
-1750.0015
30
0
11
-1844.285287
21
-1633.501
31
0
0
LINE
8
PIPES
10
-3604.915799
20
-850.0015
30
0
11
-3864.723421
21
-1000.0015
31
0
0
LINE
8
PIPES
10
-2305.877694
20
-2200.0025
30
0
11
-2046.070073
21
-2050.0025
31
0
0
LINE
8
PIPES
10
-3864.723421
20
-1300.0025
30
0
11
-3604.915799
21
-1150.0025
31
0
0
LINE
8
PIPES
10
-2046.070073
20
-1750.0015
30
0
11
-2046.070073
21
-2050.0025
31
0
0
LINE
8
PIPES
10
-3604.915799
20
-850.0015
30
0
11
-3604.915799
21
-1150.0025
31
0
0
LINE
8
PIPES
10
-1786.261585
20
-1600.001
30
0
11
-1526.455696
21
-1450.002
31
0
0
LINE
8
PIPES
10
-3345.107312
20
-700.001
30
0
11
-3403.131014
21
-733.501
31
0
0
LINE
8
PIPES
10
-2046.070073
20
-2050.0025
30
0
11
-1786.261585
21
-1900.002
31
0
0
LINE
8
PIPES
10
-3604.915799
20
-1150.0025
30
0
11
-3345.107312
21
-1000.002
31
0
0
LINE
8
PIPES
10
-1786.261585
20
-1600.001
30
0
11
-1786.261585
21
-1900.002
31
0
0
LINE
8
PIPES
10
-3345.107312
20
-700.001
30
0
11
-3345.107312
21
-1000.002
31
0
0
LINE
8
PIPES
10
-1526.455696
20
-1450.002
30
0
11
-1266.648075
21
-1300.002
31
0
0
LINE
8
PIPES
10
-3085.301423
20
-550.002
30
0
11
-3345.107312
21
-700.001
31
0
0
LINE
8
PIPES
10
-1786.261585
20
-1900.002
30
0
11
-1526.455696
21
-1750.003
31
0
0
LINE
8
PIPES
10
-3345.107312
20
-1000.002
30
0
11
-3085.301423
21
-850.003
31
0
0
LINE
8
PIPES
10
-1526.455696
20
-1450.002
30
0
11
-1526.455696
21
-1750.003
31
0
0
LINE
8
PIPES
10
-3085.301423
20
-550.002
30
0
11
-3085.301423
21
-850.003
31
0
0
LINE
8
PIPES
10
-1266.648075
20
-1300.002
30
0
11
-1122.307621
21
-1216.667
31
0
0
LINE
8
PIPES
10
-2825.493802
20
-400.002
30
0
11
-3085.301423
21
-550.002
31
0
0
LINE
8
PIPES
10
-1526.455696
20
-1750.003
30
0
11
-1266.648075
21
-1600.003
31
0
0
LINE
8
PIPES
10
-3085.301423
20
-850.003
30
0
11
-2825.493802
21
-700.003
31
0
0
LINE
8
PIPES
10
-1266.648075
20
-1300.002
30
0
11
-1266.648075
21
-1600.003
31
0
0
LINE
8
PIPES
10
-2825.493802
20
-400.002
30
0
11
-2825.493802
21
-700.003
31
0
0
LINE
8
PIPES
10
-1006.840454
20
-1150.002
30
0
11
-747.032833
21
-1000.002
31
0
0
LINE
8
PIPES
10
-1266.648075
20
-1300.002
30
0
11
-1006.840454
21
-1150.002
31
0
0
LINE
8
PIPES
10
-2565.686181
20
-250.002
30
0
11
-2681.153348
21
-316.667
31
0
0
LINE
8
PIPES
10
-2825.493802
20
-400.002
30
0
11
-2565.686181
21
-250.002
31
0
0
LINE
8
PIPES
10
-1266.648075
20
-1600.003
30
0
11
-1006.840454
21
-1450.003
31
0
0
LINE
8
PIPES
10
-2825.493802
20
-700.003
30
0
11
-2565.686181
21
-550.003
31
0
0
LINE
8
PIPES
10
-1006.840454
20
-1150.002
30
0
11
-1006.840454
21
-1450.003
31
0
0
LINE
8
PIPES
10
-2565.686181
20
-250.002
30
0
11
-2565.686181
21
-550.003
31
0
0
LINE
8
PIPES
10
-747.032833
20
-1000.002
30
0
11
-487.225212
21
-850.002
31
0
0
LINE
8
PIPES
10
-2305.87856
20
-100.002
30
0
11
-2565.686181
21
-250.002
31
0
0
LINE
8
PIPES
10
-1006.840454
20
-1450.003
30
0
11
-747.032833
21
-1300.003
31
0
0
LINE
8
PIPES
10
-2565.686181
20
-550.003
30
0
11
-2305.87856
21
-400.003
31
0
0
LINE
8
PIPES
10
-747.032833
20
-1000.002
30
0
11
-747.032833
21
-1300.003
31
0
0
LINE
8
PIPES
10
-2305.87856
20
-100.002
30
0
11
-2305.87856
21
-400.003
31
0
0
LINE
8
PIPES
10
-487.225212
20
-850.002
30
0
11
-400.90846
21
-800.167
31
0
0
LINE
8
PIPES
10
-2046.070939
20
49.998
30
0
11
-2305.87856
21
-100.002
31
0
0
LINE
8
PIPES
10
-747.032833
20
-1300.003
30
0
11
-487.225212
21
-1150.003
31
0
0
LINE
8
PIPES
10
-2305.87856
20
-400.003
30
0
11
-2046.070939
21
-250.003
31
0
0
LINE
8
PIPES
10
-487.225212
20
-850.002
30
0
11
-487.225212
21
-1150.003
31
0
0
LINE
8
PIPES
10
-2046.070939
20
49.998
30
0
11
-2046.070939
21
-250.003
31
0
0
LINE
8
PIPES
10
-227.40893
20
-699.997
30
0
11
32.398691
21
-549.997
31
0
0
LINE
8
PIPES
10
-1786.254657
20
200.003
30
0
11
-1959.754187
21
99.833
31
0
0
LINE
8
PIPES
10
-487.225212
20
-1150.003
30
0
11
-227.40893
21
-999.998
31
0
0
LINE
8
PIPES
10
-2046.070939
20
-250.003
30
0
11
-1786.254657
21
-99.998
31
0
0
LINE
8
PIPES
10
-227.40893
20
-699.997
30
0
11
-227.40893
21
-999.998
31
0
0
LINE
8
PIPES
10
-1786.254657
20
200.003
30
0
11
-1786.254657
21
-99.998
31
0
0
LINE
8
PIPES
10
32.398691
20
-549.997
30
0
11
292.206312
21
-399.997
31
0
0
LINE
8
PIPES
10
-1526.447036
20
350.003
30
0
11
-1786.254657
21
200.003
31
0
0
LINE
8
PIPES
10
-227.40893
20
-999.998
30
0
11
32.398691
21
-849.998
31
0
0
LINE
8
PIPES
10
-1786.254657
20
-99.998
30
0
11
-1526.447036
21
50.002
31
0
0
LINE
8
PIPES
10
32.398691
20
-549.997
30
0
11
32.398691
21
-849.998
31
0
0
LINE
8
PIPES
10
-1526.447036
20
350.003
30
0
11
-1526.447036
21
50.002
31
0
0
LINE
8
PIPES
10
292.206312
20
-399.997
30
0
11
321.070939
21
-383.332
31
0
0
LINE
8
PIPES
10
-1266.639415
20
500.003
30
0
11
-1526.447036
21
350.003
31
0
0
LINE
8
PIPES
10
32.398691
20
-849.998
30
0
11
292.206312
21
-699.998
31
0
0
LINE
8
PIPES
10
-1526.447036
20
50.002
30
0
11
-1266.639415
21
200.002
31
0
0
LINE
8
PIPES
10
292.206312
20
-399.997
30
0
11
292.206312
21
-699.998
31
0
0
LINE
8
PIPES
10
-1266.639415
20
500.003
30
0
11
-1266.639415
21
200.002
31
0
0
LINE
8
PIPES
10
552.013933
20
-249.997
30
0
11
811.821554
21
-99.997
31
0
0
LINE
8
PIPES
10
292.206312
20
-399.997
30
0
11
552.013933
21
-249.997
31
0
0
LINE
8
PIPES
10
-1006.831794
20
650.003
30
0
11
-1237.774788
21
516.668
31
0
0
LINE
8
PIPES
10
-1266.639415
20
500.003
30
0
11
-1006.831794
21
650.003
31
0
0
LINE
8
PIPES
10
292.206312
20
-699.998
30
0
11
552.013933
21
-549.998
31
0
0
LINE
8
PIPES
10
-1266.639415
20
200.002
30
0
11
-1006.831794
21
350.002
31
0
0
LINE
8
PIPES
10
552.013933
20
-249.997
30
0
11
552.013933
21
-549.998
31
0
0
LINE
8
PIPES
10
-1006.831794
20
650.003
30
0
11
-1006.831794
21
350.002
31
0
0
LINE
8
PIPES
10
811.821554
20
-99.997
30
0
11
1042.4701
21
33.168
31
0
0
LINE
8
PIPES
10
-747.024173
20
800.003
30
0
11
-1006.831794
21
650.003
31
0
0
LINE
8
PIPES
10
552.013933
20
-549.998
30
0
11
811.821554
21
-399.998
31
0
0
LINE
8
PIPES
10
-1006.831794
20
350.002
30
0
11
-747.024173
21
500.002
31
0
0
LINE
8
PIPES
10
811.821554
20
-99.997
30
0
11
811.821554
21
-399.998
31
0
0
LINE
8
PIPES
10
-747.024173
20
800.003
30
0
11
-747.024173
21
500.002
31
0
0
LINE
8
PIPES
10
1071.629175
20
50.003
30
0
11
1331.436796
21
200.003
31
0
0
LINE
8
PIPES
10
-487.216552
20
950.003
30
0
11
-516.375627
21
933.168
31
0
0
LINE
8
PIPES
10
811.821554
20
-399.998
30
0
11
1071.629175
21
-249.998
31
0
0
LINE
8
PIPES
10
-747.024173
20
500.002
30
0
11
-487.216552
21
650.002
31
0
0
LINE
8
PIPES
10
1071.629175
20
50.003
30
0
11
1071.629175
21
-249.998
31
0
0
LINE
8
PIPES
10
-487.216552
20
950.003
30
0
11
-487.216552
21
650.002
31
0
0
LINE
8
PIPES
10
1331.436796
20
200.003
30
0
11
1591.244418
21
350.003
31
0
0
LINE
8
PIPES
10
-227.40893
20
1100.003
30
0
11
-487.216552
21
950.003
31
0
0
LINE
8
PIPES
10
1071.629175
20
-249.998
30
0
11
1331.436796
21
-99.998
31
0
0
LINE
8
PIPES
10
-487.216552
20
650.002
30
0
11
-227.40893
21
800.002
31
0
0
LINE
8
PIPES
10
1331.436796
20
200.003
30
0
11
1331.436796
21
-99.998
31
0
0
LINE
8
PIPES
10
-227.40893
20
1100.003
30
0
11
-227.40893
21
800.002
31
0
0
LINE
8
PIPES
10
1591.244418
20
350.003
30
0
11
1764.449498
21
450.003
31
0
0
LINE
8
PIPES
10
32.398691
20
1250.003
30
0
11
-227.40893
21
1100.003
31
0
0
LINE
8
PIPES
10
1331.436796
20
-99.998
30
0
11
1591.244418
21
50.002
31
0
0
LINE
8
PIPES
10
-227.40893
20
800.002
30
0
11
32.398691
21
950.002
31
0
0
LINE
8
PIPES
10
1591.244418
20
350.003
30
0
11
1591.244418
21
50.002
31
0
0
LINE
8
PIPES
10
32.398691
20
1250.003
30
0
11
32.398691
21
950.002
31
0
0
LINE
8
PIPES
10
1591.244418
20
50.002
30
0
11
1764.449498
21
150.002
31
0
0
LINE
8
PIPES
10
32.398691
20
950.002
30
0
11
205.603772
21
1050.002
31
0
0
LINE
8
PIPES
10
1764.449498
20
450.003
30
0
11
1764.449498
21
150.002
31
0
0
LINE
8
PIPES
10
205.603772
20
1350.003
30
0
11
205.603772
21
1050.002
31
0
0
LINE
8
PIPES
10
-1122.307621
20
-716.666
30
0
11
956.153348
21
-1916.666
31
0
0
LINE
8
PIPES
10
321.070939
20
116.669
30
0
11
2399.531908
21
-1083.331
31
0
0
LINE
8
PIPES
10
-1122.307621
20
-216.667
30
0
11
956.153348
21
-1416.667
31
0
0
LINE
8
PIPES
10
321.070939
20
616.668
30
0
11
2399.531908
21
-583.332
31
0
0
LINE
8
PIPES
10
956.153348
20
-1916.666
30
0
11
956.153348
21
-1416.667
31
0
0
LINE
8
PIPES
10
2399.531908
20
-1083.331
30
0
11
2399.531908
21
-583.332
31
0
0
LINE
8
PIPES
10
956.153348
20
-1416.667
30
0
11
2399.531908
21
-583.332
31
0
0
LINE
8
PIPES
10
956.153348
20
-1916.666
30
0
11
2399.531908
21
-1083.331
31
0
0
LINE
8
PIPES
10
1764.449498
20
1450.003
30
0
11
205.603772
21
1350.003
31
0
0
LINE
8
PIPES
10
-3345.110776
20
-600.001
30
0
11
-2565.686181
21
-2050.002
31
0
0
LINE
8
PIPES
10
-2565.686181
20
-1050.002
30
0
11
-1122.307621
21
-1216.667
31
0
0
LINE
8
PIPES
10
-2681.153348
20
-316.667
30
0
11
-4124.531908
21
-150.002
31
0
0
LINE
8
PIPES
10
-2681.153348
20
-316.667
30
0
11
-1237.774788
21
1516.668
31
0
0
LINE
8
PIPES
10
-1237.774788
20
1516.668
30
0
11
205.603772
21
1350.003
31
0
0
LINE
8
PIPES
10
1764.449498
20
1450.003
30
0
11
321.070939
21
-383.332
31
0
0
LINE
8
PIPES
10
956.153348
20
-1416.667
30
0
11
2399.531908
21
-1083.331
31
0
0
LINE
8
PIPES
10
956.153348
20
-1416.667
30
0
11
-1122.307621
21
-716.666
31
0
0
LINE
8
PIPES
10
2399.531908
20
-1083.331
30
0
11
321.070939
21
616.668
31
0
0
LINE
8
PIPES
10
-1844.285287
20
-1633.501
30
0
11
-1786.261585
21
-1600.001
31
0
0
LINE
8
PIPES
10
-3403.131014
20
-733.501
30
0
11
-3604.915799
21
-850.0015
31
0
0
LINE
8
PIPES
10
-2623.709883
20
-1183.5
30
0
11
-1901.732217
21
-766.666
31
0
0
LINE
8
PIPES
10
-3403.131014
20
-733.501
30
0
11
-2623.709883
21
-1183.5
31
0
0
LINE
8
PIPES
10
-2623.709883
20
-1183.5
30
0
11
-1844.285287
21
-1633.501
31
0
0
LINE
8
PIPES
10
-400.90846
20
-800.167
30
0
11
-227.40893
21
-699.997
31
0
0
LINE
8
PIPES
10
-1959.754187
20
99.833
30
0
11
-2046.070939
21
49.998
31
0
0
LINE
8
PIPES
10
-1180.333055
20
-350.166
30
0
11
-458.353657
21
66.669
31
0
0
LINE
8
PIPES
10
-400.90846
20
-800.167
30
0
11
-1180.333055
21
-350.166
31
0
0
LINE
8
PIPES
10
-1180.333055
20
-350.166
30
0
11
-1959.754187
21
99.833
31
0
0
LINE
8
PIPES
10
1042.4701
20
33.168
30
0
11
1071.629175
21
50.003
31
0
0
LINE
8
PIPES
10
-516.375627
20
933.168
30
0
11
-747.024173
21
800.003
31
0
0
LINE
8
PIPES
10
263.045504
20
483.169
30
0
11
985.024903
21
900.004
31
0
0
LINE
8
PIPES
10
1042.4701
20
33.168
30
0
11
263.045504
21
483.169
31
0
0
LINE
8
PIPES
10
263.045504
20
483.169
30
0
11
-516.375627
21
933.168
31
0
0
CIRCLE
8
DIMENSION
62
6
10
-1122.307621
20
-1216.667
30
0
40
85
0
CIRCLE
8
DIMENSION
62
6
10
321.070939
20
-383.332
30
0
40
85
0
CIRCLE
8
DIMENSION
62
6
10
-1237.774788
20
516.668
30
0
40
85
0
CIRCLE
8
DIMENSION
62
6
10
-2681.153348
20
-316.667
30
0
40
85
0
LINE
8
DIMENSION
62
6
10
-1122.307621
20
-1216.667
30
0
11
2949.531908
21
-1216.667
31
0
0
LINE
8
DIMENSION
62
6
10
2949.531908
20
-1216.667
30
0
11
2949.531908
21
696.668
31
0
0
LINE
8
DIMENSION
62
6
10
321.070939
20
-383.332
30
0
11
2949.531908
21
-383.332
31
0
0
LINE
8
DIMENSION
62
6
10
2949.531908
20
-383.332
30
0
11
2949.531908
21
696.668
31
0
0
LINE
8
DIMENSION
62
6
10
-1237.774788
20
516.668
30
0
11
2949.531908
21
516.668
31
0
0
LINE
8
DIMENSION
62
6
10
2949.531908
20
516.668
30
0
11
2949.531908
21
696.668
31
0
0
LINE
8
DIMENSION
62
6
10
-2681.153348
20
-316.667
30
0
11
2949.531908
21
-316.667
31
0
0
LINE
8
DIMENSION
62
6
10
2949.531908
20
-316.667
30
0
11
2949.531908
21
696.668
31
0
0
LINE
8
DIMENSION
62
6
10
2949.531908
20
696.668
30
0
11
3219.531908
21
696.668
31
0
0
TEXT
8
DIMENSION
62
6
10
3299.531908
20
696.668
30
0
40
75
1
Tie points to
50
0
7
STANDARD
0
TEXT
8
DIMENSION
62
6
10
3299.531908
20
566.668
30
0
40
75
1
existing structures
50
0
7
STANDARD
0
TEXT
8
DIMENSION
62
6
10
3299.531908
20
436.668
30
0
40
75
1
at indicated points.
50
0
7
STANDARD
0
ENDSEC
0
EOF
