0
SECTION
2
HEADER
9
$ACADVER
1
AC1009
9
$INSUNITS
70
4
9
$MEASUREMENT
70
1
9
$LUNITS
70
2
9
$LUPREC
70
1
9
$TILEMODE
70
1
9
$EXTMIN
10
-2060.375
20
-4141.730773
30
0
9
$EXTMAX
10
2060.375
20
4141.730773
30
0
9
$PEXTMIN
10
-2060.375
20
-4141.730773
30
0
9
$PEXTMAX
10
2060.375
20
4141.730773
30
0
9
$LIMMIN
10
-2560.375
20
-4641.730773
9
$LIMMAX
10
2560.375
20
4641.730773
9
$PLIMMIN
10
-2560.375
20
-4641.730773
9
$PLIMMAX
10
2560.375
20
4641.730773
0
ENDSEC
0
SECTION
2
TABLES
0
TABLE
2
VPORT
70
1
0
VPORT
2
*ACTIVE
70
0
10
0
20
0
11
1
21
1
12
0
22
0
40
9283.461545
41
0.551599
42
50
43
0
44
0
50
0
51
0
71
0
72
100
73
1
74
3
75
0
76
0
77
0
78
0
0
ENDTAB
0
TABLE
2
LTYPE
70
2
0
LTYPE
2
CONTINUOUS
70
0
3
Solid line
72
65
73
0
40
0
0
LTYPE
2
DASHED
70
0
3
Dashed
72
65
73
2
40
240
49
120
74
0
49
-120
74
0
0
ENDTAB
0
TABLE
2
LAYER
70
6
0
LAYER
2
PIPES
70
0
62
5
6
CONTINUOUS
0
LAYER
2
PIPE_ENDS
70
0
62
5
6
CONTINUOUS
0
LAYER
2
DIMENSION
70
0
62
1
6
CONTINUOUS
0
LAYER
2
LEVEL_GUIDE
70
0
62
1
6
DASHED
0
LAYER
2
LEVEL_TEXT
70
0
62
1
6
CONTINUOUS
0
LAYER
2
FRAME
70
0
62
5
6
CONTINUOUS
0
ENDTAB
0
TABLE
2
STYLE
70
1
0
STYLE
2
STANDARD
70
0
40
0
41
1
50
0
71
0
42
100
3
txt
4

0
ENDTAB
0
ENDSEC
0
SECTION
2
BLOCKS
0
BLOCK
8
0
2
$MODEL_SPACE
70
0
10
0
20
0
30
0
3
$MODEL_SPACE
0
ENDBLK
8
0
0
BLOCK
67
1
8
0
2
$PAPER_SPACE
70
0
10
0
20
0
30
0
3
$PAPER_SPACE
0
ENDBLK
67
1
8
0
0
ENDSEC
0
SECTION
2
ENTITIES
0
LINE
8
PIPES
10
-780.375
20
1378.280227
30
0
11
-1680.375
21
1378.280227
31
0
0
LINE
8
PIPES
10
-480.375
20
1378.280227
30
0
11
119.625
21
1378.280227
31
0
0
LINE
8
PIPES
10
-1080.374
20
1378.280227
30
0
11
-480.375
21
1378.280227
31
0
0
LINE
8
PIPES
10
-1680.375
20
1378.280227
30
0
11
-1080.374
21
1378.280227
31
0
0
LINE
8
PIPES
10
119.625
20
1378.280227
30
0
11
-780.375
21
1378.280227
31
0
0
LINE
8
PIPES
10
-1680.375
20
1378.280227
30
0
11
-1680.375
21
1078.279227
31
0
0
LINE
8
PIPES
10
119.625
20
1378.280227
30
0
11
119.625
21
1078.279227
31
0
0
LINE
8
PIPES
10
-480.375
20
1378.280227
30
0
11
-480.375
21
1078.279227
31
0
0
LINE
8
PIPES
10
-1080.374
20
1378.280227
30
0
11
-1080.374
21
1078.279227
31
0
0
LINE
8
PIPES
10
-780.375
20
1378.280227
30
0
11
-780.375
21
1078.279615
31
0
0
LINE
8
PIPES
10
-1680.375
20
1378.280227
30
0
11
-1680.375
21
2078.279227
31
0
0
LINE
8
PIPES
10
119.625
20
2078.279227
30
0
11
119.625
21
1378.280227
31
0
0
LINE
8
PIPES
10
-480.375
20
2078.279227
30
0
11
-480.375
21
1378.280227
31
0
0
LINE
8
PIPES
10
-1080.374
20
2078.279227
30
0
11
-1080.374
21
1378.280227
31
0
0
LINE
8
PIPES
10
-780.375
20
2078.279227
30
0
11
-780.375
21
1378.280227
31
0
0
LINE
8
PIPES
10
-780.375
20
2078.279227
30
0
11
-1680.375
21
2078.279227
31
0
0
LINE
8
PIPES
10
-480.375
20
2078.279227
30
0
11
119.625
21
2078.279227
31
0
0
LINE
8
PIPES
10
-1080.374
20
2078.279227
30
0
11
-480.375
21
2078.279227
31
0
0
LINE
8
PIPES
10
-1680.375
20
2078.279227
30
0
11
-1080.374
21
2078.279227
31
0
0
LINE
8
PIPES
10
119.625
20
2078.279227
30
0
11
-780.375
21
2078.279227
31
0
0
LINE
8
PIPES
10
-1680.375
20
2378.279227
30
0
11
-1680.375
21
2078.279227
31
0
0
LINE
8
PIPES
10
-1680.375
20
2078.279227
30
0
11
-1680.375
21
3228.289227
31
0
0
LINE
8
PIPES
10
119.625
20
2378.279227
30
0
11
119.625
21
2078.279227
31
0
0
LINE
8
PIPES
10
-1680.375
20
4078.289227
30
0
11
-1680.375
21
2078.279227
31
0
0
LINE
8
PIPES
10
119.625
20
2078.279227
30
0
11
119.625
21
3228.289227
31
0
0
LINE
8
PIPES
10
-780.373
20
2078.279227
30
0
11
-780.373
21
3778.289227
31
0
0
LINE
8
PIPES
10
-780.375
20
2078.279227
30
0
11
-780.375
21
4078.289227
31
0
0
LINE
8
PIPES
10
-1680.375
20
4078.289227
30
0
11
-780.375
21
4078.289227
31
0
0
LINE
8
PIPES
10
-780.375
20
4078.289227
30
0
11
119.625
21
4078.289227
31
0
0
LINE
8
PIPES
10
-780.373
20
3778.289227
30
0
11
-780.373
21
4078.289227
31
0
0
LINE
8
PIPES
10
-1680.375
20
2378.279227
30
0
11
-1680.375
21
3228.289227
31
0
0
LINE
8
PIPES
10
119.625
20
2378.279227
30
0
11
119.625
21
3228.289227
31
0
0
LINE
8
PIPES
10
119.625
20
2378.279227
30
0
11
119.625
21
4078.289227
31
0
0
LINE
8
PIPES
10
-1680.375
20
3228.289227
30
0
11
-1680.375
21
4078.289227
31
0
0
LINE
8
PIPES
10
119.625
20
3228.289227
30
0
11
119.625
21
4078.289227
31
0
0
LINE
8
PIPES
10
-1680.375
20
1078.276902
30
0
11
-1680.375
21
2078.279227
31
0
0
LINE
8
PIPES
10
119.625
20
2078.279227
30
0
11
119.625
21
1078.276902
31
0
0
LINE
8
PIPES
10
-1680.375
20
-2921.730773
30
0
11
-780.375
21
-2921.730773
31
0
0
LINE
8
PIPES
10
-780.375
20
-2921.730773
30
0
11
119.625
21
-2921.730773
31
0
0
LINE
8
PIPES
10
119.625
20
-2421.730773
30
0
11
119.625
21
-2921.730773
31
0
0
LINE
8
PIPES
10
-1680.375
20
-2421.730773
30
0
11
-1680.375
21
-2921.730773
31
0
0
LINE
8
PIPES
10
-1680.375
20
-1921.730773
30
0
11
-1680.375
21
-921.730773
31
0
0
LINE
8
PIPES
10
119.625
20
-921.730773
30
0
11
119.625
21
-1921.730773
31
0
0
LINE
8
PIPES
10
119.625
20
-421.730773
30
0
11
119.625
21
-921.730773
31
0
0
LINE
8
PIPES
10
-1680.375
20
-421.730773
30
0
11
-1680.375
21
-921.730773
31
0
0
LINE
8
PIPES
10
-1680.375
20
78.269227
30
0
11
-1680.375
21
1078.276902
31
0
0
LINE
8
PIPES
10
119.625
20
1078.276902
30
0
11
119.625
21
78.269227
31
0
0
LINE
8
PIPES
10
-780.375
20
-921.730773
30
0
11
-1680.375
21
-921.730773
31
0
0
LINE
8
PIPES
10
-1680.375
20
1078.276902
30
0
11
119.625
21
1078.276902
31
0
0
LINE
8
PIPES
10
119.625
20
-1921.730773
30
0
11
119.625
21
-2421.730773
31
0
0
LINE
8
PIPES
10
-1680.375
20
-1921.730773
30
0
11
-1680.375
21
-2421.730773
31
0
0
LINE
8
PIPES
10
-780.375
20
-2921.730773
30
0
11
-780.375
21
-2421.730773
31
0
0
LINE
8
PIPES
10
-1680.375
20
-2421.730773
30
0
11
-780.375
21
-2421.730773
31
0
0
LINE
8
PIPES
10
-780.375
20
-2421.730773
30
0
11
119.625
21
-2421.730773
31
0
0
LINE
8
PIPES
10
-780.375
20
-2421.730773
30
0
11
-780.375
21
-1921.730773
31
0
0
LINE
8
PIPES
10
-1680.375
20
-1921.730773
30
0
11
-780.375
21
-1921.730773
31
0
0
LINE
8
PIPES
10
-780.375
20
-1921.730773
30
0
11
119.625
21
-1921.730773
31
0
0
LINE
8
PIPES
10
-1680.375
20
2078.279227
30
0
11
119.625
21
2078.279227
31
0
0
LINE
8
PIPES
10
-1680.375
20
-2921.730773
30
0
11
-1680.375
21
-3221.730773
31
0
0
LINE
8
PIPES
10
119.625
20
-2921.730773
30
0
11
119.625
21
-3221.730773
31
0
0
LINE
8
PIPES
10
-780.375
20
-2921.730773
30
0
11
-780.375
21
-3221.730773
31
0
0
LINE
8
PIPES
10
-1680.375
20
-3221.730773
30
0
11
-1480.375
21
-3221.730773
31
0
0
LINE
8
PIPES
10
119.625
20
-3221.730773
30
0
11
319.625
21
-3221.730773
31
0
0
LINE
8
PIPES
10
-780.375
20
-3221.730773
30
0
11
-580.375
21
-3221.730773
31
0
0
LINE
8
PIPES
10
-1680.375
20
-3221.730773
30
0
11
-1880.375
21
-3221.730773
31
0
0
LINE
8
PIPES
10
119.625
20
-3221.730773
30
0
11
-80.375
21
-3221.730773
31
0
0
LINE
8
PIPES
10
-780.375
20
-3221.730773
30
0
11
-980.375
21
-3221.730773
31
0
0
LINE
8
PIPES
10
-780.373
20
3778.289227
30
0
11
-780.373
21
1078.283878
31
0
0
LINE
8
PIPES
10
119.625
20
-921.730773
30
0
11
-780.375
21
-921.730773
31
0
0
LINE
8
PIPES
10
119.625
20
78.269227
30
0
11
119.625
21
-421.730773
31
0
0
LINE
8
PIPES
10
-1680.375
20
78.269227
30
0
11
-1680.375
21
-421.730773
31
0
0
LINE
8
PIPES
10
-780.375
20
-921.730773
30
0
11
-780.375
21
-421.730773
31
0
0
LINE
8
PIPES
10
-1680.375
20
-421.730773
30
0
11
-780.375
21
-421.730773
31
0
0
LINE
8
PIPES
10
-780.375
20
-421.730773
30
0
11
119.625
21
-421.730773
31
0
0
LINE
8
PIPES
10
-780.375
20
-421.730773
30
0
11
-780.375
21
78.269227
31
0
0
LINE
8
PIPES
10
-1680.375
20
78.269227
30
0
11
-780.375
21
78.269227
31
0
0
LINE
8
PIPES
10
-780.375
20
78.269227
30
0
11
119.625
21
78.269227
31
0
0
LINE
8
PIPES
10
-1680.375
20
-921.730773
30
0
11
-1680.375
21
78.269227
31
0
0
LINE
8
PIPES
10
-1680.375
20
-2921.730773
30
0
11
-1680.375
21
-1921.730773
31
0
0
LINE
8
PIPES
10
119.625
20
2078.279227
30
0
11
119.625
21
4078.289227
31
0
0
LINE
8
PIPES
10
119.625
20
78.269227
30
0
11
119.625
21
-921.730773
31
0
0
LINE
8
PIPES
10
119.625
20
-1921.730773
30
0
11
119.625
21
-2921.730773
31
0
0
LINE
8
PIPES
10
119.625
20
4078.289227
30
0
11
-1680.375
21
2078.279227
31
0
0
LINE
8
PIPES
10
-1680.375
20
2078.279227
30
0
11
119.625
21
1378.280227
31
0
0
LINE
8
PIPES
10
-1680.375
20
2078.279227
30
0
11
119.625
21
1078.276902
31
0
0
LINE
8
PIPES
10
119.625
20
1078.276902
30
0
11
-1680.375
21
78.269227
31
0
0
LINE
8
PIPES
10
-1680.375
20
78.269227
30
0
11
119.625
21
-921.730773
31
0
0
LINE
8
PIPES
10
119.625
20
-921.730773
30
0
11
-1680.375
21
-1921.730773
31
0
0
LINE
8
PIPES
10
-1680.375
20
-1921.730773
30
0
11
119.625
21
-2921.730773
31
0
0
LINE
8
PIPES
10
119.625
20
2378.279227
30
0
11
-1680.375
21
2378.279227
31
0
0
LINE
8
PIPES
10
-1680.375
20
4078.289227
30
0
11
119.625
21
4078.289227
31
0
0
LINE
8
PIPES
10
-1680.375
20
2378.279227
30
0
11
-1680.375
21
4078.279227
31
0
0
LINE
8
PIPES
10
119.625
20
2378.279227
30
0
11
119.625
21
4078.279227
31
0
0
LINE
8
PIPES
10
-1680.375
20
4078.279227
30
0
11
119.625
21
4078.279227
31
0
0
LINE
8
PIPES
10
-1680.375
20
4078.279227
30
0
11
-1680.375
21
4078.289227
31
0
0
LINE
8
PIPES
10
119.625
20
4078.279227
30
0
11
119.625
21
4078.289227
31
0
0
LINE
8
PIPES
10
-1680.375
20
4078.289227
30
0
11
-1680.375
21
2378.279227
31
0
0
LINE
8
PIPES
10
-1680.375
20
4078.279227
30
0
11
119.625
21
2378.279227
31
0
0
LINE
8
PIPES
10
119.625
20
2078.279227
30
0
11
-1680.375
21
1378.280227
31
0
0
CIRCLE
8
PIPE_ENDS
10
-1680.375
20
1378.279227
30
0
40
32
0
CIRCLE
8
PIPE_ENDS
10
119.625
20
1378.279227
30
0
40
32
0
CIRCLE
8
PIPE_ENDS
10
-480.375
20
1378.279227
30
0
40
32
0
CIRCLE
8
PIPE_ENDS
10
-1080.375
20
1378.279227
30
0
40
32
0
CIRCLE
8
PIPE_ENDS
10
-1680.375
20
2078.279227
30
0
40
32
0
CIRCLE
8
PIPE_ENDS
10
119.625
20
2078.279227
30
0
40
32
0
CIRCLE
8
PIPE_ENDS
10
-480.375
20
2078.279227
30
0
40
32
0
CIRCLE
8
PIPE_ENDS
10
-1080.375
20
2078.279227
30
0
40
32
0
CIRCLE
8
PIPE_ENDS
10
-1680.375
20
4078.279227
30
0
40
32
0
CIRCLE
8
PIPE_ENDS
10
119.625
20
4078.279227
30
0
40
32
0
CIRCLE
8
PIPE_ENDS
10
-780.375
20
4078.279227
30
0
40
32
0
CIRCLE
8
PIPE_ENDS
10
-780.375
20
3778.279227
30
0
40
32
0
CIRCLE
8
PIPE_ENDS
10
-1680.375
20
2378.279227
30
0
40
32
0
CIRCLE
8
PIPE_ENDS
10
119.625
20
2378.279227
30
0
40
32
0
CIRCLE
8
PIPE_ENDS
10
-1680.375
20
3228.279227
30
0
40
32
0
CIRCLE
8
PIPE_ENDS
10
119.625
20
3228.279227
30
0
40
32
0
CIRCLE
8
PIPE_ENDS
10
-1680.375
20
-2921.720773
30
0
40
32
0
CIRCLE
8
PIPE_ENDS
10
119.625
20
-2921.720773
30
0
40
32
0
CIRCLE
8
PIPE_ENDS
10
-780.375
20
-2921.720773
30
0
40
32
0
CIRCLE
8
PIPE_ENDS
10
-1680.375
20
-921.720773
30
0
40
32
0
CIRCLE
8
PIPE_ENDS
10
119.625
20
-921.720773
30
0
40
32
0
CIRCLE
8
PIPE_ENDS
10
119.625
20
1078.279227
30
0
40
32
0
CIRCLE
8
PIPE_ENDS
10
-1680.375
20
1078.279227
30
0
40
32
0
CIRCLE
8
PIPE_ENDS
10
-1680.375
20
-2421.720773
30
0
40
32
0
CIRCLE
8
PIPE_ENDS
10
119.625
20
-2421.720773
30
0
40
32
0
CIRCLE
8
PIPE_ENDS
10
-1680.375
20
-1921.720773
30
0
40
32
0
CIRCLE
8
PIPE_ENDS
10
119.625
20
-1921.720773
30
0
40
32
0
CIRCLE
8
PIPE_ENDS
10
-780.375
20
-921.720773
30
0
40
32
0
CIRCLE
8
PIPE_ENDS
10
-1680.375
20
-421.720773
30
0
40
32
0
CIRCLE
8
PIPE_ENDS
10
119.625
20
-421.720773
30
0
40
32
0
CIRCLE
8
PIPE_ENDS
10
-1680.375
20
78.279227
30
0
40
32
0
CIRCLE
8
PIPE_ENDS
10
119.625
20
78.279227
30
0
40
32
0
LINE
8
LEVEL_GUIDE
6
DASHED
10
-2060.375
20
-3221.730773
30
0
11
499.625
21
-3221.730773
31
0
0
LINE
8
LEVEL_GUIDE
6
DASHED
10
-2060.375
20
-2921.730773
30
0
11
499.625
21
-2921.730773
31
0
0
LINE
8
LEVEL_GUIDE
6
DASHED
10
-2060.375
20
-921.730773
30
0
11
499.625
21
-921.730773
31
0
0
LINE
8
LEVEL_GUIDE
6
DASHED
10
-2060.375
20
1078.279227
30
0
11
499.625
21
1078.279227
31
0
0
LINE
8
LEVEL_GUIDE
6
DASHED
10
-2060.375
20
1378.279227
30
0
11
499.625
21
1378.279227
31
0
0
LINE
8
LEVEL_GUIDE
6
DASHED
10
-2060.375
20
2078.279227
30
0
11
499.625
21
2078.279227
31
0
0
LINE
8
LEVEL_GUIDE
6
DASHED
10
-2060.375
20
2378.279227
30
0
11
499.625
21
2378.279227
31
0
0
LINE
8
LEVEL_GUIDE
6
DASHED
10
-2060.375
20
3228.289227
30
0
11
499.625
21
3228.289227
31
0
0
LINE
8
LEVEL_GUIDE
6
DASHED
10
-2060.375
20
3778.289227
30
0
11
499.625
21
3778.289227
31
0
0
LINE
8
LEVEL_GUIDE
6
DASHED
10
-2060.375
20
4078.279227
30
0
11
499.625
21
4078.279227
31
0
0
LINE
8
LEVEL_GUIDE
6
DASHED
10
-2060.375
20
4078.289227
30
0
11
499.625
21
4078.289227
31
0
0
LINE
8
DIMENSION
10
-1880.375
20
-3281.730773
30
0
11
-1880.375
21
-3601.730773
31
0
0
LINE
8
DIMENSION
10
-1680.375
20
-3281.730773
30
0
11
-1680.375
21
-3601.730773
31
0
0
LINE
8
DIMENSION
10
-1880.375
20
-3601.730773
30
0
11
-1680.375
21
-3601.730773
31
0
0
LINE
8
DIMENSION
10
-1880.375
20
-3601.730773
30
0
11
-1943.816545
21
-3572.147494
31
0
0
LINE
8
DIMENSION
10
-1880.375
20
-3601.730773
30
0
11
-1943.816545
21
-3631.314051
31
0
0
LINE
8
DIMENSION
10
-1680.375
20
-3601.730773
30
0
11
-1616.933455
21
-3631.314051
31
0
0
LINE
8
DIMENSION
10
-1680.375
20
-3601.730773
30
0
11
-1616.933455
21
-3572.147494
31
0
0
TEXT
8
DIMENSION
10
-1780.375
20
-3771.730773
30
0
40
85
1
0.2
50
0
7
STANDARD
72
1
73
2
11
-1780.375
21
-3771.730773
31
0
0
LINE
8
DIMENSION
10
-1680.375
20
-3281.730773
30
0
11
-1680.375
21
-3601.730773
31
0
0
LINE
8
DIMENSION
10
-1480.375
20
-3281.730773
30
0
11
-1480.375
21
-3601.730773
31
0
0
LINE
8
DIMENSION
10
-1680.375
20
-3601.730773
30
0
11
-1480.375
21
-3601.730773
31
0
0
LINE
8
DIMENSION
10
-1680.375
20
-3601.730773
30
0
11
-1743.816545
21
-3572.147494
31
0
0
LINE
8
DIMENSION
10
-1680.375
20
-3601.730773
30
0
11
-1743.816545
21
-3631.314051
31
0
0
LINE
8
DIMENSION
10
-1480.375
20
-3601.730773
30
0
11
-1416.933455
21
-3631.314051
31
0
0
LINE
8
DIMENSION
10
-1480.375
20
-3601.730773
30
0
11
-1416.933455
21
-3572.147494
31
0
0
TEXT
8
DIMENSION
10
-1580.375
20
-3771.730773
30
0
40
85
1
0.2
50
0
7
STANDARD
72
1
73
2
11
-1580.375
21
-3771.730773
31
0
0
LINE
8
DIMENSION
10
-1480.375
20
-3281.730773
30
0
11
-1480.375
21
-3601.730773
31
0
0
LINE
8
DIMENSION
10
-1080.375
20
-3281.730773
30
0
11
-1080.375
21
-3601.730773
31
0
0
LINE
8
DIMENSION
10
-1480.375
20
-3601.730773
30
0
11
-1080.375
21
-3601.730773
31
0
0
LINE
8
DIMENSION
10
-1480.375
20
-3601.730773
30
0
11
-1543.816545
21
-3572.147494
31
0
0
LINE
8
DIMENSION
10
-1480.375
20
-3601.730773
30
0
11
-1543.816545
21
-3631.314051
31
0
0
LINE
8
DIMENSION
10
-1080.375
20
-3601.730773
30
0
11
-1016.933455
21
-3631.314051
31
0
0
LINE
8
DIMENSION
10
-1080.375
20
-3601.730773
30
0
11
-1016.933455
21
-3572.147494
31
0
0
TEXT
8
DIMENSION
10
-1280.375
20
-3771.730773
30
0
40
85
1
0.4
50
0
7
STANDARD
72
1
73
2
11
-1280.375
21
-3771.730773
31
0
0
LINE
8
DIMENSION
10
-1080.375
20
-3281.730773
30
0
11
-1080.375
21
-3601.730773
31
0
0
LINE
8
DIMENSION
10
-980.375
20
-3281.730773
30
0
11
-980.375
21
-3601.730773
31
0
0
LINE
8
DIMENSION
10
-1080.375
20
-3601.730773
30
0
11
-980.375
21
-3601.730773
31
0
0
LINE
8
DIMENSION
10
-1080.375
20
-3601.730773
30
0
11
-1143.816545
21
-3572.147494
31
0
0
LINE
8
DIMENSION
10
-1080.375
20
-3601.730773
30
0
11
-1143.816545
21
-3631.314051
31
0
0
LINE
8
DIMENSION
10
-980.375
20
-3601.730773
30
0
11
-916.933455
21
-3631.314051
31
0
0
LINE
8
DIMENSION
10
-980.375
20
-3601.730773
30
0
11
-916.933455
21
-3572.147494
31
0
0
TEXT
8
DIMENSION
10
-1030.375
20
-3771.730773
30
0
40
85
1
0.1
50
0
7
STANDARD
72
1
73
2
11
-1030.375
21
-3771.730773
31
0
0
LINE
8
DIMENSION
10
-980.375
20
-3281.730773
30
0
11
-980.375
21
-3601.730773
31
0
0
LINE
8
DIMENSION
10
-780.375
20
-3281.730773
30
0
11
-780.375
21
-3601.730773
31
0
0
LINE
8
DIMENSION
10
-980.375
20
-3601.730773
30
0
11
-780.375
21
-3601.730773
31
0
0
LINE
8
DIMENSION
10
-980.375
20
-3601.730773
30
0
11
-1043.816545
21
-3572.147494
31
0
0
LINE
8
DIMENSION
10
-980.375
20
-3601.730773
30
0
11
-1043.816545
21
-3631.314051
31
0
0
LINE
8
DIMENSION
10
-780.375
20
-3601.730773
30
0
11
-716.933455
21
-3631.314051
31
0
0
LINE
8
DIMENSION
10
-780.375
20
-3601.730773
30
0
11
-716.933455
21
-3572.147494
31
0
0
TEXT
8
DIMENSION
10
-880.375
20
-3771.730773
30
0
40
85
1
0.2
50
0
7
STANDARD
72
1
73
2
11
-880.375
21
-3771.730773
31
0
0
LINE
8
DIMENSION
10
-780.375
20
-3281.730773
30
0
11
-780.375
21
-3601.730773
31
0
0
LINE
8
DIMENSION
10
-580.375
20
-3281.730773
30
0
11
-580.375
21
-3601.730773
31
0
0
LINE
8
DIMENSION
10
-780.375
20
-3601.730773
30
0
11
-580.375
21
-3601.730773
31
0
0
LINE
8
DIMENSION
10
-780.375
20
-3601.730773
30
0
11
-843.816545
21
-3572.147494
31
0
0
LINE
8
DIMENSION
10
-780.375
20
-3601.730773
30
0
11
-843.816545
21
-3631.314051
31
0
0
LINE
8
DIMENSION
10
-580.375
20
-3601.730773
30
0
11
-516.933455
21
-3631.314051
31
0
0
LINE
8
DIMENSION
10
-580.375
20
-3601.730773
30
0
11
-516.933455
21
-3572.147494
31
0
0
TEXT
8
DIMENSION
10
-680.375
20
-3771.730773
30
0
40
85
1
0.2
50
0
7
STANDARD
72
1
73
2
11
-680.375
21
-3771.730773
31
0
0
LINE
8
DIMENSION
10
-580.375
20
-3281.730773
30
0
11
-580.375
21
-3601.730773
31
0
0
LINE
8
DIMENSION
10
-480.375
20
-3281.730773
30
0
11
-480.375
21
-3601.730773
31
0
0
LINE
8
DIMENSION
10
-580.375
20
-3601.730773
30
0
11
-480.375
21
-3601.730773
31
0
0
LINE
8
DIMENSION
10
-580.375
20
-3601.730773
30
0
11
-643.816545
21
-3572.147494
31
0
0
LINE
8
DIMENSION
10
-580.375
20
-3601.730773
30
0
11
-643.816545
21
-3631.314051
31
0
0
LINE
8
DIMENSION
10
-480.375
20
-3601.730773
30
0
11
-416.933455
21
-3631.314051
31
0
0
LINE
8
DIMENSION
10
-480.375
20
-3601.730773
30
0
11
-416.933455
21
-3572.147494
31
0
0
TEXT
8
DIMENSION
10
-530.375
20
-3771.730773
30
0
40
85
1
0.1
50
0
7
STANDARD
72
1
73
2
11
-530.375
21
-3771.730773
31
0
0
LINE
8
DIMENSION
10
-480.375
20
-3281.730773
30
0
11
-480.375
21
-3601.730773
31
0
0
LINE
8
DIMENSION
10
-80.375
20
-3281.730773
30
0
11
-80.375
21
-3601.730773
31
0
0
LINE
8
DIMENSION
10
-480.375
20
-3601.730773
30
0
11
-80.375
21
-3601.730773
31
0
0
LINE
8
DIMENSION
10
-480.375
20
-3601.730773
30
0
11
-543.816545
21
-3572.147494
31
0
0
LINE
8
DIMENSION
10
-480.375
20
-3601.730773
30
0
11
-543.816545
21
-3631.314051
31
0
0
LINE
8
DIMENSION
10
-80.375
20
-3601.730773
30
0
11
-16.933455
21
-3631.314051
31
0
0
LINE
8
DIMENSION
10
-80.375
20
-3601.730773
30
0
11
-16.933455
21
-3572.147494
31
0
0
TEXT
8
DIMENSION
10
-280.375
20
-3771.730773
30
0
40
85
1
0.4
50
0
7
STANDARD
72
1
73
2
11
-280.375
21
-3771.730773
31
0
0
LINE
8
DIMENSION
10
-80.375
20
-3281.730773
30
0
11
-80.375
21
-3601.730773
31
0
0
LINE
8
DIMENSION
10
119.625
20
-3281.730773
30
0
11
119.625
21
-3601.730773
31
0
0
LINE
8
DIMENSION
10
-80.375
20
-3601.730773
30
0
11
119.625
21
-3601.730773
31
0
0
LINE
8
DIMENSION
10
-80.375
20
-3601.730773
30
0
11
-143.816545
21
-3572.147494
31
0
0
LINE
8
DIMENSION
10
-80.375
20
-3601.730773
30
0
11
-143.816545
21
-3631.314051
31
0
0
LINE
8
DIMENSION
10
119.625
20
-3601.730773
30
0
11
183.066545
21
-3631.314051
31
0
0
LINE
8
DIMENSION
10
119.625
20
-3601.730773
30
0
11
183.066545
21
-3572.147494
31
0
0
TEXT
8
DIMENSION
10
19.625
20
-3771.730773
30
0
40
85
1
0.2
50
0
7
STANDARD
72
1
73
2
11
19.625
21
-3771.730773
31
0
0
LINE
8
DIMENSION
10
119.625
20
-3281.730773
30
0
11
119.625
21
-3601.730773
31
0
0
LINE
8
DIMENSION
10
319.625
20
-3281.730773
30
0
11
319.625
21
-3601.730773
31
0
0
LINE
8
DIMENSION
10
119.625
20
-3601.730773
30
0
11
319.625
21
-3601.730773
31
0
0
LINE
8
DIMENSION
10
119.625
20
-3601.730773
30
0
11
56.183455
21
-3572.147494
31
0
0
LINE
8
DIMENSION
10
119.625
20
-3601.730773
30
0
11
56.183455
21
-3631.314051
31
0
0
LINE
8
DIMENSION
10
319.625
20
-3601.730773
30
0
11
383.066545
21
-3631.314051
31
0
0
LINE
8
DIMENSION
10
319.625
20
-3601.730773
30
0
11
383.066545
21
-3572.147494
31
0
0
TEXT
8
DIMENSION
10
219.625
20
-3771.730773
30
0
40
85
1
0.2
50
0
7
STANDARD
72
1
73
2
11
219.625
21
-3771.730773
31
0
0
LINE
8
DIMENSION
10
-1880.375
20
-3281.730773
30
0
11
-1880.375
21
-3971.730773
31
0
0
LINE
8
DIMENSION
10
319.625
20
-3281.730773
30
0
11
319.625
21
-3971.730773
31
0
0
LINE
8
DIMENSION
10
-1880.375
20
-3971.730773
30
0
11
319.625
21
-3971.730773
31
0
0
LINE
8
DIMENSION
10
-1880.375
20
-3971.730773
30
0
11
-1943.816545
21
-3942.147494
31
0
0
LINE
8
DIMENSION
10
-1880.375
20
-3971.730773
30
0
11
-1943.816545
21
-4001.314051
31
0
0
LINE
8
DIMENSION
10
319.625
20
-3971.730773
30
0
11
383.066545
21
-4001.314051
31
0
0
LINE
8
DIMENSION
10
319.625
20
-3971.730773
30
0
11
383.066545
21
-3942.147494
31
0
0
TEXT
8
DIMENSION
10
-780.375
20
-4141.730773
30
0
40
85
1
TOTAL 2.2
50
0
7
STANDARD
72
1
73
2
11
-780.375
21
-4141.730773
31
0
0
LINE
8
DIMENSION
10
379.625
20
-3221.730773
30
0
11
1019.625
21
-3221.730773
31
0
0
LINE
8
DIMENSION
10
379.625
20
-2921.730773
30
0
11
1019.625
21
-2921.730773
31
0
0
LINE
8
DIMENSION
10
1019.625
20
-3221.730773
30
0
11
1019.625
21
-2921.730773
31
0
0
LINE
8
DIMENSION
10
1019.625
20
-3221.730773
30
0
11
990.041722
21
-3285.172318
31
0
0
LINE
8
DIMENSION
10
1019.625
20
-3221.730773
30
0
11
1049.208278
21
-3285.172318
31
0
0
LINE
8
DIMENSION
10
1019.625
20
-2921.730773
30
0
11
1049.208278
21
-2858.289227
31
0
0
LINE
8
DIMENSION
10
1019.625
20
-2921.730773
30
0
11
990.041722
21
-2858.289227
31
0
0
TEXT
8
DIMENSION
10
1189.625
20
-3071.730773
30
0
40
85
1
0.3
50
90
7
STANDARD
72
1
73
2
11
1189.625
21
-3071.730773
31
0
0
LINE
8
DIMENSION
10
379.625
20
-2921.730773
30
0
11
1019.625
21
-2921.730773
31
0
0
LINE
8
DIMENSION
10
379.625
20
-921.730773
30
0
11
1019.625
21
-921.730773
31
0
0
LINE
8
DIMENSION
10
1019.625
20
-2921.730773
30
0
11
1019.625
21
-921.730773
31
0
0
LINE
8
DIMENSION
10
1019.625
20
-2921.730773
30
0
11
990.041722
21
-2985.172318
31
0
0
LINE
8
DIMENSION
10
1019.625
20
-2921.730773
30
0
11
1049.208278
21
-2985.172318
31
0
0
LINE
8
DIMENSION
10
1019.625
20
-921.730773
30
0
11
1049.208278
21
-858.289227
31
0
0
LINE
8
DIMENSION
10
1019.625
20
-921.730773
30
0
11
990.041722
21
-858.289227
31
0
0
TEXT
8
DIMENSION
10
1189.625
20
-1921.730773
30
0
40
85
1
2
50
90
7
STANDARD
72
1
73
2
11
1189.625
21
-1921.730773
31
0
0
LINE
8
DIMENSION
10
379.625
20
-921.730773
30
0
11
1019.625
21
-921.730773
31
0
0
LINE
8
DIMENSION
10
379.625
20
1078.279227
30
0
11
1019.625
21
1078.279227
31
0
0
LINE
8
DIMENSION
10
1019.625
20
-921.730773
30
0
11
1019.625
21
1078.279227
31
0
0
LINE
8
DIMENSION
10
1019.625
20
-921.730773
30
0
11
990.041722
21
-985.172318
31
0
0
LINE
8
DIMENSION
10
1019.625
20
-921.730773
30
0
11
1049.208278
21
-985.172318
31
0
0
LINE
8
DIMENSION
10
1019.625
20
1078.279227
30
0
11
1049.208278
21
1141.720773
31
0
0
LINE
8
DIMENSION
10
1019.625
20
1078.279227
30
0
11
990.041722
21
1141.720773
31
0
0
TEXT
8
DIMENSION
10
1189.625
20
78.274227
30
0
40
85
1
2
50
90
7
STANDARD
72
1
73
2
11
1189.625
21
78.274227
31
0
0
LINE
8
DIMENSION
10
379.625
20
1078.279227
30
0
11
1019.625
21
1078.279227
31
0
0
LINE
8
DIMENSION
10
379.625
20
1378.279227
30
0
11
1019.625
21
1378.279227
31
0
0
LINE
8
DIMENSION
10
1019.625
20
1078.279227
30
0
11
1019.625
21
1378.279227
31
0
0
LINE
8
DIMENSION
10
1019.625
20
1078.279227
30
0
11
990.041722
21
1014.837682
31
0
0
LINE
8
DIMENSION
10
1019.625
20
1078.279227
30
0
11
1049.208278
21
1014.837682
31
0
0
LINE
8
DIMENSION
10
1019.625
20
1378.279227
30
0
11
1049.208278
21
1441.720773
31
0
0
LINE
8
DIMENSION
10
1019.625
20
1378.279227
30
0
11
990.041722
21
1441.720773
31
0
0
TEXT
8
DIMENSION
10
1189.625
20
1228.279227
30
0
40
85
1
0.3
50
90
7
STANDARD
72
1
73
2
11
1189.625
21
1228.279227
31
0
0
LINE
8
DIMENSION
10
379.625
20
1378.279227
30
0
11
1019.625
21
1378.279227
31
0
0
LINE
8
DIMENSION
10
379.625
20
2078.279227
30
0
11
1019.625
21
2078.279227
31
0
0
LINE
8
DIMENSION
10
1019.625
20
1378.279227
30
0
11
1019.625
21
2078.279227
31
0
0
LINE
8
DIMENSION
10
1019.625
20
1378.279227
30
0
11
990.041722
21
1314.837682
31
0
0
LINE
8
DIMENSION
10
1019.625
20
1378.279227
30
0
11
1049.208278
21
1314.837682
31
0
0
LINE
8
DIMENSION
10
1019.625
20
2078.279227
30
0
11
1049.208278
21
2141.720773
31
0
0
LINE
8
DIMENSION
10
1019.625
20
2078.279227
30
0
11
990.041722
21
2141.720773
31
0
0
TEXT
8
DIMENSION
10
1189.625
20
1728.279227
30
0
40
85
1
0.7
50
90
7
STANDARD
72
1
73
2
11
1189.625
21
1728.279227
31
0
0
LINE
8
DIMENSION
10
379.625
20
2078.279227
30
0
11
1019.625
21
2078.279227
31
0
0
LINE
8
DIMENSION
10
379.625
20
2378.279227
30
0
11
1019.625
21
2378.279227
31
0
0
LINE
8
DIMENSION
10
1019.625
20
2078.279227
30
0
11
1019.625
21
2378.279227
31
0
0
LINE
8
DIMENSION
10
1019.625
20
2078.279227
30
0
11
990.041722
21
2014.837682
31
0
0
LINE
8
DIMENSION
10
1019.625
20
2078.279227
30
0
11
1049.208278
21
2014.837682
31
0
0
LINE
8
DIMENSION
10
1019.625
20
2378.279227
30
0
11
1049.208278
21
2441.720773
31
0
0
LINE
8
DIMENSION
10
1019.625
20
2378.279227
30
0
11
990.041722
21
2441.720773
31
0
0
TEXT
8
DIMENSION
10
1189.625
20
2228.279227
30
0
40
85
1
0.3
50
90
7
STANDARD
72
1
73
2
11
1189.625
21
2228.279227
31
0
0
LINE
8
DIMENSION
10
379.625
20
2378.279227
30
0
11
1019.625
21
2378.279227
31
0
0
LINE
8
DIMENSION
10
379.625
20
3228.289227
30
0
11
1019.625
21
3228.289227
31
0
0
LINE
8
DIMENSION
10
1019.625
20
2378.279227
30
0
11
1019.625
21
3228.289227
31
0
0
LINE
8
DIMENSION
10
1019.625
20
2378.279227
30
0
11
990.041722
21
2314.837682
31
0
0
LINE
8
DIMENSION
10
1019.625
20
2378.279227
30
0
11
1049.208278
21
2314.837682
31
0
0
LINE
8
DIMENSION
10
1019.625
20
3228.289227
30
0
11
1049.208278
21
3291.730773
31
0
0
LINE
8
DIMENSION
10
1019.625
20
3228.289227
30
0
11
990.041722
21
3291.730773
31
0
0
TEXT
8
DIMENSION
10
1189.625
20
2803.284227
30
0
40
85
1
0.85
50
90
7
STANDARD
72
1
73
2
11
1189.625
21
2803.284227
31
0
0
LINE
8
DIMENSION
10
379.625
20
3228.289227
30
0
11
1019.625
21
3228.289227
31
0
0
LINE
8
DIMENSION
10
379.625
20
3778.289227
30
0
11
1019.625
21
3778.289227
31
0
0
LINE
8
DIMENSION
10
1019.625
20
3228.289227
30
0
11
1019.625
21
3778.289227
31
0
0
LINE
8
DIMENSION
10
1019.625
20
3228.289227
30
0
11
990.041722
21
3164.847682
31
0
0
LINE
8
DIMENSION
10
1019.625
20
3228.289227
30
0
11
1049.208278
21
3164.847682
31
0
0
LINE
8
DIMENSION
10
1019.625
20
3778.289227
30
0
11
1049.208278
21
3841.730773
31
0
0
LINE
8
DIMENSION
10
1019.625
20
3778.289227
30
0
11
990.041722
21
3841.730773
31
0
0
TEXT
8
DIMENSION
10
1189.625
20
3503.289227
30
0
40
85
1
0.55
50
90
7
STANDARD
72
1
73
2
11
1189.625
21
3503.289227
31
0
0
LINE
8
DIMENSION
10
379.625
20
3778.289227
30
0
11
1019.625
21
3778.289227
31
0
0
LINE
8
DIMENSION
10
379.625
20
4078.289227
30
0
11
1019.625
21
4078.289227
31
0
0
LINE
8
DIMENSION
10
1019.625
20
3778.289227
30
0
11
1019.625
21
4078.289227
31
0
0
LINE
8
DIMENSION
10
1019.625
20
3778.289227
30
0
11
990.041722
21
3714.847682
31
0
0
LINE
8
DIMENSION
10
1019.625
20
3778.289227
30
0
11
1049.208278
21
3714.847682
31
0
0
LINE
8
DIMENSION
10
1019.625
20
4078.289227
30
0
11
1049.208278
21
4141.730773
31
0
0
LINE
8
DIMENSION
10
1019.625
20
4078.289227
30
0
11
990.041722
21
4141.730773
31
0
0
TEXT
8
DIMENSION
10
1189.625
20
3928.289227
30
0
40
85
1
0.3
50
90
7
STANDARD
72
1
73
2
11
1189.625
21
3928.289227
31
0
0
LINE
8
DIMENSION
10
379.625
20
-3221.730773
30
0
11
1469.625
21
-3221.730773
31
0
0
LINE
8
DIMENSION
10
379.625
20
4078.289227
30
0
11
1469.625
21
4078.289227
31
0
0
LINE
8
DIMENSION
10
1469.625
20
-3221.730773
30
0
11
1469.625
21
4078.289227
31
0
0
LINE
8
DIMENSION
10
1469.625
20
-3221.730773
30
0
11
1440.041722
21
-3285.172318
31
0
0
LINE
8
DIMENSION
10
1469.625
20
-3221.730773
30
0
11
1499.208278
21
-3285.172318
31
0
0
LINE
8
DIMENSION
10
1469.625
20
4078.289227
30
0
11
1499.208278
21
4141.730773
31
0
0
LINE
8
DIMENSION
10
1469.625
20
4078.289227
30
0
11
1440.041722
21
4141.730773
31
0
0
TEXT
8
DIMENSION
10
1639.625
20
428.279227
30
0
40
85
1
TOTAL 7.3
50
90
7
STANDARD
72
1
73
2
11
1639.625
21
428.279227
31
0
0
ENDSEC
0
EOF
