0
SECTION
2
HEADER
9
$ACADVER
1
AC1009
9
$INSUNITS
70
4
9
$MEASUREMENT
70
1
9
$LUNITS
70
2
9
$LUPREC
70
1
9
$TILEMODE
70
1
9
$EXTMIN
10
-3420.805541
20
-4550.005
30
0
9
$EXTMAX
10
3420.805541
20
4550.005
30
0
9
$PEXTMIN
10
-3420.805541
20
-4550.005
30
0
9
$PEXTMAX
10
3420.805541
20
4550.005
30
0
9
$LIMMIN
10
-3920.805541
20
-5050.005
9
$LIMMAX
10
3920.805541
20
5050.005
9
$PLIMMIN
10
-3920.805541
20
-5050.005
9
$PLIMMAX
10
3920.805541
20
5050.005
0
ENDSEC
0
SECTION
2
TABLES
0
TABLE
2
VPORT
70
1
0
VPORT
2
*ACTIVE
70
0
10
0
20
0
11
1
21
1
12
0
22
0
40
10100.01
41
0.776396
42
50
43
0
44
0
50
0
51
0
71
0
72
100
73
1
74
3
75
0
76
0
77
0
78
0
0
ENDTAB
0
TABLE
2
LTYPE
70
2
0
LTYPE
2
CONTINUOUS
70
0
3
Solid line
72
65
73
0
40
0
0
LTYPE
2
DASHED
70
0
3
Dashed
72
65
73
2
40
240
49
120
74
0
49
-120
74
0
0
ENDTAB
0
TABLE
2
LAYER
70
6
0
LAYER
2
PIPES
70
0
62
5
6
CONTINUOUS
0
LAYER
2
PIPE_ENDS
70
0
62
5
6
CONTINUOUS
0
LAYER
2
DIMENSION
70
0
62
1
6
CONTINUOUS
0
LAYER
2
LEVEL_GUIDE
70
0
62
1
6
DASHED
0
LAYER
2
LEVEL_TEXT
70
0
62
1
6
CONTINUOUS
0
LAYER
2
FRAME
70
0
62
5
6
CONTINUOUS
0
ENDTAB
0
TABLE
2
STYLE
70
1
0
STYLE
2
STANDARD
70
0
40
0
41
1
50
0
71
0
42
100
3
txt
4

0
ENDTAB
0
ENDSEC
0
SECTION
2
BLOCKS
0
BLOCK
8
0
2
$MODEL_SPACE
70
0
10
0
20
0
30
0
3
$MODEL_SPACE
0
ENDBLK
8
0
0
BLOCK
67
1
8
0
2
$PAPER_SPACE
70
0
10
0
20
0
30
0
3
$PAPER_SPACE
0
ENDBLK
67
1
8
0
0
ENDSEC
0
SECTION
2
ENTITIES
0
LINE
8
PIPES
10
-1775.355542
20
-1949.999
30
0
11
-1342.341974
21
-1699.9985
31
0
0
LINE
8
PIPES
10
-43.304734
20
-949.999
30
0
11
822.72933
21
-449.994
31
0
0
LINE
8
PIPES
10
1688.754734
20
50.006
30
0
11
909.330138
21
500.007
31
0
0
LINE
8
PIPES
10
129.909007
20
950.006
30
0
11
-736.116397
21
450.006
31
0
0
LINE
8
PIPES
10
-1602.150461
20
-49.999
30
0
11
-2468.175865
21
-549.999
31
0
0
LINE
8
PIPES
10
-3334.201269
20
-1049.999
30
0
11
-2814.586026
21
-1349.999
31
0
0
LINE
8
PIPES
10
-43.304734
20
-949.999
30
0
11
-822.72933
21
-499.998
31
0
0
LINE
8
PIPES
10
-2814.586026
20
-1349.999
30
0
11
-2294.97165
21
-1649.9985
31
0
0
LINE
8
PIPES
10
-2294.97165
20
-1649.9985
30
0
11
-1775.355542
21
-1949.999
31
0
0
LINE
8
PIPES
10
-1342.341974
20
-1699.9985
30
0
11
-909.330138
21
-1449.999
31
0
0
LINE
8
PIPES
10
-2901.187701
20
-799.9985
30
0
11
-3334.201269
21
-1049.999
31
0
0
LINE
8
PIPES
10
-2814.586026
20
-1349.999
30
0
11
-2381.572458
21
-1099.9985
31
0
0
LINE
8
PIPES
10
-2294.97165
20
-1649.9985
30
0
11
-1861.958082
21
-1399.998
31
0
0
LINE
8
PIPES
10
-2901.187701
20
-799.9985
30
0
11
-2381.572458
21
-1099.9985
31
0
0
LINE
8
PIPES
10
-2381.572458
20
-1099.9985
30
0
11
-1861.958082
21
-1399.998
31
0
0
LINE
8
PIPES
10
-1861.958082
20
-1399.998
30
0
11
-1342.341974
21
-1699.9985
31
0
0
LINE
8
PIPES
10
-909.330138
20
-1449.999
30
0
11
-43.304734
21
-949.999
31
0
0
LINE
8
PIPES
10
-2468.175865
20
-549.999
30
0
11
-2901.187701
21
-799.9985
31
0
0
LINE
8
PIPES
10
-2381.572458
20
-1099.9985
30
0
11
-1948.560623
21
-849.999
31
0
0
LINE
8
PIPES
10
-1861.958082
20
-1399.998
30
0
11
-1428.946246
21
-1149.9985
31
0
0
LINE
8
PIPES
10
-2468.175865
20
-549.999
30
0
11
-1948.560623
21
-849.999
31
0
0
LINE
8
PIPES
10
-1948.560623
20
-849.999
30
0
11
-1428.946246
21
-1149.9985
31
0
0
LINE
8
PIPES
10
-1428.946246
20
-1149.9985
30
0
11
-909.330138
21
-1449.999
31
0
0
LINE
8
PIPES
10
-822.72933
20
-499.998
30
0
11
-1602.150461
21
-49.999
31
0
0
LINE
8
PIPES
10
909.330138
20
500.007
30
0
11
129.909007
21
950.006
31
0
0
LINE
8
PIPES
10
822.72933
20
-449.994
30
0
11
1688.754734
21
50.006
31
0
0
LINE
8
PIPES
10
-736.116397
20
450.006
30
0
11
-1602.150461
21
-49.999
31
0
0
LINE
8
PIPES
10
-1775.355542
20
-1949.999
30
0
11
-1775.355542
21
-2250
31
0
0
LINE
8
PIPES
10
-43.304734
20
-949.999
30
0
11
-43.304734
21
-1250
31
0
0
LINE
8
PIPES
10
1688.754734
20
50.006
30
0
11
1688.754734
21
-249.995
31
0
0
LINE
8
PIPES
10
129.909007
20
950.006
30
0
11
129.909007
21
650.005
31
0
0
LINE
8
PIPES
10
-1602.150461
20
-49.999
30
0
11
-1602.150461
21
-350
31
0
0
LINE
8
PIPES
10
-3334.201269
20
-1049.999
30
0
11
-3334.201269
21
-1350
31
0
0
LINE
8
PIPES
10
-2814.586026
20
-1349.999
30
0
11
-2814.586026
21
-1650
31
0
0
LINE
8
PIPES
10
-2294.97165
20
-1649.9985
30
0
11
-2294.97165
21
-1949.9995
31
0
0
LINE
8
PIPES
10
-1342.341974
20
-1699.9985
30
0
11
-1342.341974
21
-1999.9995
31
0
0
LINE
8
PIPES
10
-2901.187701
20
-799.9985
30
0
11
-2901.187701
21
-1099.9995
31
0
0
LINE
8
PIPES
10
-2381.572458
20
-1099.9985
30
0
11
-2381.572458
21
-1399.9995
31
0
0
LINE
8
PIPES
10
-1861.958082
20
-1399.998
30
0
11
-1861.958082
21
-1699.999
31
0
0
LINE
8
PIPES
10
-909.330138
20
-1449.999
30
0
11
-909.330138
21
-1750
31
0
0
LINE
8
PIPES
10
-2468.175865
20
-549.999
30
0
11
-2468.175865
21
-850
31
0
0
LINE
8
PIPES
10
-1948.560623
20
-849.999
30
0
11
-1948.560623
21
-1150
31
0
0
LINE
8
PIPES
10
-1428.946246
20
-1149.9985
30
0
11
-1428.946246
21
-1449.9995
31
0
0
LINE
8
PIPES
10
-822.72933
20
-499.998
30
0
11
-822.72933
21
-799.999
31
0
0
LINE
8
PIPES
10
909.330138
20
500.007
30
0
11
909.330138
21
200.006
31
0
0
LINE
8
PIPES
10
822.72933
20
-449.994
30
0
11
822.72933
21
-749.995
31
0
0
LINE
8
PIPES
10
-736.116397
20
450.006
30
0
11
-736.116397
21
150.005
31
0
0
LINE
8
PIPES
10
-1775.355542
20
-1949.999
30
0
11
-1775.355542
21
-1250
31
0
0
LINE
8
PIPES
10
-43.304734
20
-949.999
30
0
11
-43.304734
21
-250
31
0
0
LINE
8
PIPES
10
1688.754734
20
50.006
30
0
11
1688.754734
21
750.005
31
0
0
LINE
8
PIPES
10
129.909007
20
950.006
30
0
11
129.909007
21
1650.005
31
0
0
LINE
8
PIPES
10
-1602.150461
20
-49.999
30
0
11
-1602.150461
21
650
31
0
0
LINE
8
PIPES
10
-3334.201269
20
-1049.999
30
0
11
-3334.201269
21
-350
31
0
0
LINE
8
PIPES
10
-2814.586026
20
-1349.999
30
0
11
-2814.586026
21
-650
31
0
0
LINE
8
PIPES
10
-2294.97165
20
-1649.9985
30
0
11
-2294.97165
21
-949.9995
31
0
0
LINE
8
PIPES
10
-1342.341974
20
-1699.9985
30
0
11
-1342.341974
21
-999.9995
31
0
0
LINE
8
PIPES
10
-2901.187701
20
-799.9985
30
0
11
-2901.187701
21
-99.9995
31
0
0
LINE
8
PIPES
10
-2381.572458
20
-1099.9985
30
0
11
-2381.572458
21
-399.9995
31
0
0
LINE
8
PIPES
10
-1861.958082
20
-1399.998
30
0
11
-1861.958082
21
-699.999
31
0
0
LINE
8
PIPES
10
-909.330138
20
-1449.999
30
0
11
-909.330138
21
-750
31
0
0
LINE
8
PIPES
10
-2468.175865
20
-549.999
30
0
11
-2468.175865
21
150
31
0
0
LINE
8
PIPES
10
-1948.560623
20
-849.999
30
0
11
-1948.560623
21
-150
31
0
0
LINE
8
PIPES
10
-1428.946246
20
-1149.9985
30
0
11
-1428.946246
21
-449.9995
31
0
0
LINE
8
PIPES
10
-822.72933
20
-499.998
30
0
11
-822.72933
21
200.001
31
0
0
LINE
8
PIPES
10
909.330138
20
500.007
30
0
11
909.330138
21
1200.006
31
0
0
LINE
8
PIPES
10
822.72933
20
-449.994
30
0
11
822.72933
21
250.005
31
0
0
LINE
8
PIPES
10
-736.116397
20
450.006
30
0
11
-736.116397
21
1150.005
31
0
0
LINE
8
PIPES
10
-1775.355542
20
-1250
30
0
11
-1515.547055
21
-1099.9995
31
0
0
LINE
8
PIPES
10
-43.304734
20
-250
30
0
11
43.297806
21
-200
31
0
0
LINE
8
PIPES
10
1688.754734
20
750.005
30
0
11
909.330138
21
1200.006
31
0
0
LINE
8
PIPES
10
129.909007
20
1650.005
30
0
11
43.306466
21
1600.005
31
0
0
LINE
8
PIPES
10
-1602.150461
20
650
30
0
11
-1775.355542
21
550
31
0
0
LINE
8
PIPES
10
-3334.201269
20
-350
30
0
11
-2814.586026
21
-650
31
0
0
LINE
8
PIPES
10
-43.304734
20
-250
30
0
11
-822.72933
21
200.001
31
0
0
LINE
8
PIPES
10
-2814.586026
20
-650
30
0
11
-2294.97165
21
-949.9995
31
0
0
LINE
8
PIPES
10
-2294.97165
20
-949.9995
30
0
11
-1775.355542
21
-1250
31
0
0
LINE
8
PIPES
10
-1342.341974
20
-999.9995
30
0
11
-1255.739434
21
-949.9995
31
0
0
LINE
8
PIPES
10
-2901.187701
20
-99.9995
30
0
11
-3074.392782
21
-199.9995
31
0
0
LINE
8
PIPES
10
-2814.586026
20
-650
30
0
11
-2381.572458
21
-399.9995
31
0
0
LINE
8
PIPES
10
-2294.97165
20
-949.9995
30
0
11
-1861.958082
21
-699.999
31
0
0
LINE
8
PIPES
10
-2901.187701
20
-99.9995
30
0
11
-2381.572458
21
-399.9995
31
0
0
LINE
8
PIPES
10
-2381.572458
20
-399.9995
30
0
11
-1861.958082
21
-699.999
31
0
0
LINE
8
PIPES
10
-1861.958082
20
-699.999
30
0
11
-1342.341974
21
-999.9995
31
0
0
LINE
8
PIPES
10
-909.330138
20
-750
30
0
11
-736.125057
21
-650
31
0
0
LINE
8
PIPES
10
-2468.175865
20
150
30
0
11
-2554.776673
21
100.001
31
0
0
LINE
8
PIPES
10
-2381.572458
20
-399.9995
30
0
11
-1948.560623
21
-150
31
0
0
LINE
8
PIPES
10
-1861.958082
20
-699.999
30
0
11
-1428.946246
21
-449.9995
31
0
0
LINE
8
PIPES
10
-2468.175865
20
150
30
0
11
-1948.560623
21
-150
31
0
0
LINE
8
PIPES
10
-1948.560623
20
-150
30
0
11
-1428.946246
21
-449.9995
31
0
0
LINE
8
PIPES
10
-1428.946246
20
-449.9995
30
0
11
-909.330138
21
-750
31
0
0
LINE
8
PIPES
10
-822.72933
20
200.001
30
0
11
-1602.150461
21
650
31
0
0
LINE
8
PIPES
10
909.330138
20
1200.006
30
0
11
129.909007
21
1650.005
31
0
0
LINE
8
PIPES
10
822.72933
20
250.005
30
0
11
1082.536951
21
400.005
31
0
0
LINE
8
PIPES
10
-736.116397
20
1150.005
30
0
11
-995.924018
21
1000.005
31
0
0
LINE
8
PIPES
10
-1775.355542
20
-1250
30
0
11
-1775.355542
21
-950
31
0
0
LINE
8
PIPES
10
-43.304734
20
-250
30
0
11
-43.304734
21
900.01
31
0
0
LINE
8
PIPES
10
1688.754734
20
750.005
30
0
11
1688.754734
21
1050.005
31
0
0
LINE
8
PIPES
10
129.909007
20
1650.005
30
0
11
129.909007
21
1950.005
31
0
0
LINE
8
PIPES
10
-1602.150461
20
650
30
0
11
-1602.150461
21
950
31
0
0
LINE
8
PIPES
10
-3334.201269
20
-350
30
0
11
-3334.201269
21
-50
31
0
0
LINE
8
PIPES
10
-1342.341974
20
-999.9995
30
0
11
-1342.341974
21
1000.0105
31
0
0
LINE
8
PIPES
10
-2901.187701
20
-99.9995
30
0
11
-2901.187701
21
200.0005
31
0
0
LINE
8
PIPES
10
-909.330138
20
-750
30
0
11
-909.330138
21
400.01
31
0
0
LINE
8
PIPES
10
-2468.175865
20
150
30
0
11
-2468.175865
21
1300.01
31
0
0
LINE
8
PIPES
10
-822.72933
20
200.001
30
0
11
-822.72933
21
1900.011
31
0
0
LINE
8
PIPES
10
909.330138
20
1200.006
30
0
11
909.330138
21
3200.016
31
0
0
LINE
8
PIPES
10
822.72933
20
250.005
30
0
11
822.72933
21
550.005
31
0
0
LINE
8
PIPES
10
-736.116397
20
1150.005
30
0
11
-736.116397
21
1450.005
31
0
0
LINE
8
PIPES
10
-1775.355542
20
750.01
30
0
11
-1342.341974
21
1000.0105
31
0
0
LINE
8
PIPES
10
-43.304734
20
1750.01
30
0
11
822.72933
21
2250.015
31
0
0
LINE
8
PIPES
10
1688.754734
20
2750.015
30
0
11
909.330138
21
3200.016
31
0
0
LINE
8
PIPES
10
129.909007
20
3650.015
30
0
11
-736.116397
21
3150.015
31
0
0
LINE
8
PIPES
10
-1602.150461
20
2650.01
30
0
11
-2468.175865
21
2150.01
31
0
0
LINE
8
PIPES
10
-3334.201269
20
1650.01
30
0
11
-2554.780137
21
1200.011
31
0
0
LINE
8
PIPES
10
-43.304734
20
1750.01
30
0
11
-822.72933
21
2200.011
31
0
0
LINE
8
PIPES
10
-1342.341974
20
1000.0105
30
0
11
-909.330138
21
1250.01
31
0
0
LINE
8
PIPES
10
-2901.187701
20
1900.0105
30
0
11
-3334.201269
21
1650.01
31
0
0
LINE
8
PIPES
10
-909.330138
20
1250.01
30
0
11
-43.304734
21
1750.01
31
0
0
LINE
8
PIPES
10
-2468.175865
20
2150.01
30
0
11
-2901.187701
21
1900.0105
31
0
0
LINE
8
PIPES
10
-2468.175865
20
2150.01
30
0
11
-1688.754734
21
1700.011
31
0
0
LINE
8
PIPES
10
-822.72933
20
2200.011
30
0
11
-1602.150461
21
2650.01
31
0
0
LINE
8
PIPES
10
909.330138
20
3200.016
30
0
11
129.909007
21
3650.015
31
0
0
LINE
8
PIPES
10
822.72933
20
2250.015
30
0
11
1688.754734
21
2750.015
31
0
0
LINE
8
PIPES
10
-736.116397
20
3150.015
30
0
11
-1602.150461
21
2650.01
31
0
0
LINE
8
PIPES
10
-822.72933
20
1900.011
30
0
11
-822.72933
21
2200.011
31
0
0
LINE
8
PIPES
10
-822.72933
20
2200.011
30
0
11
-1082.536951
21
2050.011
31
0
0
LINE
8
PIPES
10
-822.72933
20
1900.011
30
0
11
-1082.536951
21
1750.011
31
0
0
LINE
8
PIPES
10
-1082.536951
20
1750.011
30
0
11
-1082.536951
21
2050.011
31
0
0
LINE
8
PIPES
10
-1082.536951
20
2050.011
30
0
11
-1342.344572
21
1900.011
31
0
0
LINE
8
PIPES
10
-1082.536951
20
1750.011
30
0
11
-1342.344572
21
1600.011
31
0
0
LINE
8
PIPES
10
-1342.344572
20
1600.011
30
0
11
-1342.344572
21
1900.011
31
0
0
LINE
8
PIPES
10
-1342.344572
20
1900.011
30
0
11
-1602.152193
21
1750.011
31
0
0
LINE
8
PIPES
10
-1342.344572
20
1600.011
30
0
11
-1602.152193
21
1450.011
31
0
0
LINE
8
PIPES
10
-1602.152193
20
1450.011
30
0
11
-1602.152193
21
1750.011
31
0
0
LINE
8
PIPES
10
-1602.152193
20
1750.011
30
0
11
-1688.754734
21
1700.011
31
0
0
LINE
8
PIPES
10
-1602.152193
20
1450.011
30
0
11
-1861.958082
21
1300.012
31
0
0
LINE
8
PIPES
10
-1861.958082
20
1300.012
30
0
11
-1861.958082
21
1600.012
31
0
0
LINE
8
PIPES
10
-1861.958082
20
1600.012
30
0
11
-2121.766569
21
1450.0115
31
0
0
LINE
8
PIPES
10
-1861.958082
20
1300.012
30
0
11
-2121.766569
21
1150.0115
31
0
0
LINE
8
PIPES
10
-2121.766569
20
1150.0115
30
0
11
-2121.766569
21
1450.0115
31
0
0
LINE
8
PIPES
10
-2121.766569
20
1450.0115
30
0
11
-2381.575057
21
1300.011
31
0
0
LINE
8
PIPES
10
-2121.766569
20
1150.0115
30
0
11
-2381.575057
21
1000.011
31
0
0
LINE
8
PIPES
10
-2381.575057
20
1000.011
30
0
11
-2381.575057
21
1300.011
31
0
0
LINE
8
PIPES
10
-2381.575057
20
1300.011
30
0
11
-2554.780137
21
1200.011
31
0
0
LINE
8
PIPES
10
-2381.575057
20
1000.011
30
0
11
-2641.382678
21
850.011
31
0
0
LINE
8
PIPES
10
-2641.382678
20
850.011
30
0
11
-2641.382678
21
1150.011
31
0
0
LINE
8
PIPES
10
-2641.382678
20
1150.011
30
0
11
-2901.191165
21
1000.0105
31
0
0
LINE
8
PIPES
10
-2641.382678
20
850.011
30
0
11
-2901.191165
21
700.0105
31
0
0
LINE
8
PIPES
10
-2901.191165
20
700.0105
30
0
11
-2901.191165
21
1000.0105
31
0
0
LINE
8
PIPES
10
-2901.191165
20
1000.0105
30
0
11
-3160.998786
21
850.0105
31
0
0
LINE
8
PIPES
10
-2901.191165
20
700.0105
30
0
11
-3160.998786
21
550.0105
31
0
0
LINE
8
PIPES
10
-3160.998786
20
550.0105
30
0
11
-3160.998786
21
850.0105
31
0
0
LINE
8
PIPES
10
-3160.998786
20
850.0105
30
0
11
-3420.805541
21
700.011
31
0
0
LINE
8
PIPES
10
-3160.998786
20
550.0105
30
0
11
-3420.805541
21
400.011
31
0
0
LINE
8
PIPES
10
-3420.805541
20
400.011
30
0
11
-3420.805541
21
700.011
31
0
0
LINE
8
PIPES
10
-2554.780137
20
1200.011
30
0
11
-1775.355542
21
750.01
31
0
0
LINE
8
PIPES
10
-1688.754734
20
1700.011
30
0
11
-909.330138
21
1250.01
31
0
0
LINE
8
PIPES
10
-1688.754734
20
1700.011
30
0
11
-1861.958082
21
1600.012
31
0
0
LINE
8
PIPES
10
-2554.780137
20
1200.011
30
0
11
-2641.382678
21
1150.011
31
0
0
LINE
8
PIPES
10
-1775.355542
20
-950
30
0
11
-1775.355542
21
-99.99
31
0
0
LINE
8
PIPES
10
-3334.201269
20
-50
30
0
11
-3334.201269
21
800.01
31
0
0
LINE
8
PIPES
10
-1515.547055
20
-1099.9995
30
0
11
-1342.341974
21
-999.9995
31
0
0
LINE
8
PIPES
10
-3074.392782
20
-199.9995
30
0
11
-3334.201269
21
-350
31
0
0
LINE
8
PIPES
10
-1775.355542
20
-950
30
0
11
-1515.547055
21
-799.9995
31
0
0
LINE
8
PIPES
10
-3334.201269
20
-50
30
0
11
-3074.392782
21
100.0005
31
0
0
LINE
8
PIPES
10
-1515.547055
20
-1099.9995
30
0
11
-1515.547055
21
-799.9995
31
0
0
LINE
8
PIPES
10
-3074.392782
20
-199.9995
30
0
11
-3074.392782
21
100.0005
31
0
0
LINE
8
PIPES
10
-1255.739434
20
-949.9995
30
0
11
-995.930946
21
-799.999
31
0
0
LINE
8
PIPES
10
-1515.547055
20
-1099.9995
30
0
11
-1255.739434
21
-949.9995
31
0
0
LINE
8
PIPES
10
-2814.58516
20
-49.9995
30
0
11
-2901.187701
21
-99.9995
31
0
0
LINE
8
PIPES
10
-3074.392782
20
-199.9995
30
0
11
-2814.58516
21
-49.9995
31
0
0
LINE
8
PIPES
10
-1515.547055
20
-799.9995
30
0
11
-1255.739434
21
-649.9995
31
0
0
LINE
8
PIPES
10
-3074.392782
20
100.0005
30
0
11
-2901.187701
21
200.0005
31
0
0
LINE
8
PIPES
10
-1255.739434
20
-949.9995
30
0
11
-1255.739434
21
-649.9995
31
0
0
LINE
8
PIPES
10
-2814.58516
20
-49.9995
30
0
11
-2814.58516
21
250.0005
31
0
0
LINE
8
PIPES
10
-995.930946
20
-799.999
30
0
11
-909.330138
21
-750
31
0
0
LINE
8
PIPES
10
-2554.776673
20
100.001
30
0
11
-2814.58516
21
-49.9995
31
0
0
LINE
8
PIPES
10
-1255.739434
20
-649.9995
30
0
11
-995.930946
21
-499.999
31
0
0
LINE
8
PIPES
10
-2814.58516
20
250.0005
30
0
11
-2554.776673
21
400.001
31
0
0
LINE
8
PIPES
10
-995.930946
20
-799.999
30
0
11
-995.930946
21
-499.999
31
0
0
LINE
8
PIPES
10
-2554.776673
20
100.001
30
0
11
-2554.776673
21
400.001
31
0
0
LINE
8
PIPES
10
-736.125057
20
-650
30
0
11
-476.317436
21
-500
31
0
0
LINE
8
PIPES
10
-995.930946
20
-799.999
30
0
11
-736.125057
21
-650
31
0
0
LINE
8
PIPES
10
-2294.970784
20
250
30
0
11
-2468.175865
21
150
31
0
0
LINE
8
PIPES
10
-2554.776673
20
100.001
30
0
11
-2294.970784
21
250
31
0
0
LINE
8
PIPES
10
-995.930946
20
-499.999
30
0
11
-736.125057
21
-350
31
0
0
LINE
8
PIPES
10
-2554.776673
20
400.001
30
0
11
-2294.970784
21
550
31
0
0
LINE
8
PIPES
10
-736.125057
20
-650
30
0
11
-736.125057
21
-350
31
0
0
LINE
8
PIPES
10
-2294.970784
20
250
30
0
11
-2294.970784
21
550
31
0
0
LINE
8
PIPES
10
-476.317436
20
-500
30
0
11
-216.509815
21
-350
31
0
0
LINE
8
PIPES
10
-2035.163163
20
400
30
0
11
-2294.970784
21
250
31
0
0
LINE
8
PIPES
10
-736.125057
20
-350
30
0
11
-476.317436
21
-200
31
0
0
LINE
8
PIPES
10
-2294.970784
20
550
30
0
11
-2035.163163
21
700
31
0
0
LINE
8
PIPES
10
-476.317436
20
-500
30
0
11
-476.317436
21
-200
31
0
0
LINE
8
PIPES
10
-2035.163163
20
400
30
0
11
-2035.163163
21
700
31
0
0
LINE
8
PIPES
10
-216.509815
20
-350
30
0
11
-43.304734
21
-250
31
0
0
LINE
8
PIPES
10
-1775.355542
20
550
30
0
11
-2035.163163
21
400
31
0
0
LINE
8
PIPES
10
-476.317436
20
-200
30
0
11
-216.509815
21
-50
31
0
0
LINE
8
PIPES
10
-2035.163163
20
700
30
0
11
-1775.355542
21
850
31
0
0
LINE
8
PIPES
10
-216.509815
20
-350
30
0
11
-216.509815
21
-50
31
0
0
LINE
8
PIPES
10
-1775.355542
20
550
30
0
11
-1775.355542
21
850
31
0
0
LINE
8
PIPES
10
43.297806
20
-200
30
0
11
303.105427
21
-50
31
0
0
LINE
8
PIPES
10
-216.509815
20
-350
30
0
11
43.297806
21
-200
31
0
0
LINE
8
PIPES
10
-1515.547921
20
700
30
0
11
-1602.150461
21
650
31
0
0
LINE
8
PIPES
10
-1775.355542
20
550
30
0
11
-1515.547921
21
700
31
0
0
LINE
8
PIPES
10
-216.509815
20
-50
30
0
11
43.297806
21
100
31
0
0
LINE
8
PIPES
10
-1775.355542
20
850
30
0
11
-1602.150461
21
950
31
0
0
LINE
8
PIPES
10
43.297806
20
-200
30
0
11
43.297806
21
100
31
0
0
LINE
8
PIPES
10
-1515.547921
20
700
30
0
11
-1515.547921
21
1000
31
0
0
LINE
8
PIPES
10
303.105427
20
-50
30
0
11
562.921709
21
100.005
31
0
0
LINE
8
PIPES
10
-1255.7403
20
850
30
0
11
-1515.547921
21
700
31
0
0
LINE
8
PIPES
10
43.297806
20
100
30
0
11
303.105427
21
250
31
0
0
LINE
8
PIPES
10
-1515.547921
20
1000
30
0
11
-1255.7403
21
1150
31
0
0
LINE
8
PIPES
10
303.105427
20
-50
30
0
11
303.105427
21
250
31
0
0
LINE
8
PIPES
10
-1255.7403
20
850
30
0
11
-1255.7403
21
1150
31
0
0
LINE
8
PIPES
10
562.921709
20
100.005
30
0
11
822.72933
21
250.005
31
0
0
LINE
8
PIPES
10
-995.924018
20
1000.005
30
0
11
-1255.7403
21
850
31
0
0
LINE
8
PIPES
10
303.105427
20
250
30
0
11
562.921709
21
400.005
31
0
0
LINE
8
PIPES
10
-1255.7403
20
1150
30
0
11
-995.924018
21
1300.005
31
0
0
LINE
8
PIPES
10
562.921709
20
100.005
30
0
11
562.921709
21
400.005
31
0
0
LINE
8
PIPES
10
-995.924018
20
1000.005
30
0
11
-995.924018
21
1300.005
31
0
0
LINE
8
PIPES
10
822.72933
20
550.005
30
0
11
822.72933
21
1400.015
31
0
0
LINE
8
PIPES
10
562.921709
20
400.005
30
0
11
822.72933
21
550.005
31
0
0
LINE
8
PIPES
10
-736.116397
20
1450.005
30
0
11
-736.116397
21
2300.015
31
0
0
LINE
8
PIPES
10
-995.924018
20
1300.005
30
0
11
-736.116397
21
1450.005
31
0
0
LINE
8
PIPES
10
1082.536951
20
400.005
30
0
11
1342.344572
21
550.005
31
0
0
LINE
8
PIPES
10
-476.308776
20
1300.005
30
0
11
-736.116397
21
1150.005
31
0
0
LINE
8
PIPES
10
822.72933
20
550.005
30
0
11
1082.536951
21
700.005
31
0
0
LINE
8
PIPES
10
-736.116397
20
1450.005
30
0
11
-476.308776
21
1600.005
31
0
0
LINE
8
PIPES
10
1082.536951
20
400.005
30
0
11
1082.536951
21
700.005
31
0
0
LINE
8
PIPES
10
-476.308776
20
1300.005
30
0
11
-476.308776
21
1600.005
31
0
0
LINE
8
PIPES
10
1342.344572
20
550.005
30
0
11
1602.152193
21
700.005
31
0
0
LINE
8
PIPES
10
-216.501155
20
1450.005
30
0
11
-476.308776
21
1300.005
31
0
0
LINE
8
PIPES
10
1082.536951
20
700.005
30
0
11
1342.344572
21
850.005
31
0
0
LINE
8
PIPES
10
-476.308776
20
1600.005
30
0
11
-216.501155
21
1750.005
31
0
0
LINE
8
PIPES
10
1342.344572
20
550.005
30
0
11
1342.344572
21
850.005
31
0
0
LINE
8
PIPES
10
-216.501155
20
1450.005
30
0
11
-216.501155
21
1750.005
31
0
0
LINE
8
PIPES
10
1602.152193
20
700.005
30
0
11
1688.754734
21
750.005
31
0
0
LINE
8
PIPES
10
43.306466
20
1600.005
30
0
11
-216.501155
21
1450.005
31
0
0
LINE
8
PIPES
10
1342.344572
20
850.005
30
0
11
1602.152193
21
1000.005
31
0
0
LINE
8
PIPES
10
-216.501155
20
1750.005
30
0
11
43.306466
21
1900.005
31
0
0
LINE
8
PIPES
10
43.306466
20
1600.005
30
0
11
303.114087
21
1750.005
31
0
0
LINE
8
PIPES
10
1602.152193
20
1000.005
30
0
11
1688.754734
21
1050.005
31
0
0
LINE
8
PIPES
10
43.306466
20
1900.005
30
0
11
129.909007
21
1950.005
31
0
0
LINE
8
PIPES
10
1861.959814
20
850.005
30
0
11
1861.959814
21
1150.005
31
0
0
LINE
8
PIPES
10
303.114087
20
1750.005
30
0
11
303.114087
21
2050.005
31
0
0
LINE
8
PIPES
10
1861.959814
20
850.005
30
0
11
2121.767435
21
1000.005
31
0
0
LINE
8
PIPES
10
303.114087
20
1750.005
30
0
11
562.921709
21
1900.005
31
0
0
LINE
8
PIPES
10
1861.959814
20
1150.005
30
0
11
2121.767435
21
1300.005
31
0
0
LINE
8
PIPES
10
303.114087
20
2050.005
30
0
11
562.921709
21
2200.005
31
0
0
LINE
8
PIPES
10
2121.767435
20
1000.005
30
0
11
2121.767435
21
1300.005
31
0
0
LINE
8
PIPES
10
562.921709
20
1900.005
30
0
11
562.921709
21
2200.005
31
0
0
LINE
8
PIPES
10
2121.767435
20
1000.005
30
0
11
2381.575057
21
1150.005
31
0
0
LINE
8
PIPES
10
562.921709
20
1900.005
30
0
11
822.72933
21
2050.005
31
0
0
LINE
8
PIPES
10
2121.767435
20
1300.005
30
0
11
2381.575057
21
1450.005
31
0
0
LINE
8
PIPES
10
562.921709
20
2200.005
30
0
11
822.72933
21
2350.005
31
0
0
LINE
8
PIPES
10
2381.575057
20
1150.005
30
0
11
2381.575057
21
1450.005
31
0
0
LINE
8
PIPES
10
822.72933
20
2050.005
30
0
11
822.72933
21
2350.005
31
0
0
LINE
8
PIPES
10
2381.575057
20
1150.005
30
0
11
2554.780137
21
1250.005
31
0
0
LINE
8
PIPES
10
822.72933
20
2050.005
30
0
11
995.934411
21
2150.005
31
0
0
LINE
8
PIPES
10
2381.575057
20
1450.005
30
0
11
2641.382678
21
1600.005
31
0
0
LINE
8
PIPES
10
822.72933
20
2350.005
30
0
11
1082.536951
21
2500.005
31
0
0
LINE
8
PIPES
10
2641.382678
20
1300.005
30
0
11
2641.382678
21
1600.005
31
0
0
LINE
8
PIPES
10
1082.536951
20
2200.005
30
0
11
1082.536951
21
2500.005
31
0
0
LINE
8
PIPES
10
2641.382678
20
1300.005
30
0
11
2901.190299
21
1450.005
31
0
0
LINE
8
PIPES
10
1082.536951
20
2200.005
30
0
11
1342.344572
21
2350.005
31
0
0
LINE
8
PIPES
10
2641.382678
20
1600.005
30
0
11
2901.190299
21
1750.005
31
0
0
LINE
8
PIPES
10
1082.536951
20
2500.005
30
0
11
1342.344572
21
2650.005
31
0
0
LINE
8
PIPES
10
2901.190299
20
1450.005
30
0
11
2901.190299
21
1750.005
31
0
0
LINE
8
PIPES
10
1342.344572
20
2350.005
30
0
11
1342.344572
21
2650.005
31
0
0
LINE
8
PIPES
10
2901.190299
20
1450.005
30
0
11
3160.99792
21
1600.005
31
0
0
LINE
8
PIPES
10
1342.344572
20
2350.005
30
0
11
1602.152193
21
2500.005
31
0
0
LINE
8
PIPES
10
2901.190299
20
1750.005
30
0
11
3160.99792
21
1900.005
31
0
0
LINE
8
PIPES
10
1342.344572
20
2650.005
30
0
11
1602.152193
21
2800.005
31
0
0
LINE
8
PIPES
10
3160.99792
20
1600.005
30
0
11
3160.99792
21
1900.005
31
0
0
LINE
8
PIPES
10
1602.152193
20
2500.005
30
0
11
1602.152193
21
2800.005
31
0
0
LINE
8
PIPES
10
129.909007
20
1950.005
30
0
11
129.909007
21
2800.015
31
0
0
LINE
8
PIPES
10
-1602.150461
20
950
30
0
11
-1602.150461
21
1800.01
31
0
0
LINE
8
PIPES
10
-2901.187701
20
200.0005
30
0
11
-2901.187701
21
1900.0105
31
0
0
LINE
8
PIPES
10
-2901.187701
20
200.0005
30
0
11
-2814.58516
21
250.0005
31
0
0
LINE
8
PIPES
10
-1602.150461
20
950
30
0
11
-1515.547921
21
1000
31
0
0
LINE
8
PIPES
10
129.909007
20
1950.005
30
0
11
303.114087
21
2050.005
31
0
0
LINE
8
PIPES
10
-1775.355542
20
-99.99
30
0
11
-1775.355542
21
750.01
31
0
0
LINE
8
PIPES
10
-3334.201269
20
800.01
30
0
11
-3334.201269
21
1650.01
31
0
0
LINE
8
PIPES
10
-909.330138
20
400.01
30
0
11
-909.330138
21
1250.01
31
0
0
LINE
8
PIPES
10
-1775.355542
20
-99.99
30
0
11
-909.330138
21
400.01
31
0
0
LINE
8
PIPES
10
-2468.175865
20
1300.01
30
0
11
-2468.175865
21
2150.01
31
0
0
LINE
8
PIPES
10
-3334.201269
20
800.01
30
0
11
-2468.175865
21
1300.01
31
0
0
LINE
8
PIPES
10
-43.304734
20
900.01
30
0
11
-43.304734
21
1750.01
31
0
0
LINE
8
PIPES
10
-909.330138
20
400.01
30
0
11
-43.304734
21
900.01
31
0
0
LINE
8
PIPES
10
-1602.150461
20
1800.01
30
0
11
-1602.150461
21
2650.01
31
0
0
LINE
8
PIPES
10
-2468.175865
20
1300.01
30
0
11
-1602.150461
21
1800.01
31
0
0
LINE
8
PIPES
10
822.72933
20
1400.015
30
0
11
822.72933
21
2250.015
31
0
0
LINE
8
PIPES
10
-43.304734
20
900.01
30
0
11
822.72933
21
1400.015
31
0
0
LINE
8
PIPES
10
-736.116397
20
2300.015
30
0
11
-736.116397
21
3150.015
31
0
0
LINE
8
PIPES
10
-1602.150461
20
1800.01
30
0
11
-736.116397
21
2300.015
31
0
0
LINE
8
PIPES
10
1688.754734
20
1900.015
30
0
11
1688.754734
21
2750.015
31
0
0
LINE
8
PIPES
10
822.72933
20
1400.015
30
0
11
1688.754734
21
1900.015
31
0
0
LINE
8
PIPES
10
129.909007
20
2800.015
30
0
11
129.909007
21
3650.015
31
0
0
LINE
8
PIPES
10
-736.116397
20
2300.015
30
0
11
129.909007
21
2800.015
31
0
0
LINE
8
PIPES
10
3160.99792
20
1600.005
30
0
11
3247.60046
21
1650.005
31
0
0
LINE
8
PIPES
10
1602.152193
20
2500.005
30
0
11
1688.754734
21
2550.005
31
0
0
LINE
8
PIPES
10
3160.99792
20
1900.005
30
0
11
3247.60046
21
1950.005
31
0
0
LINE
8
PIPES
10
1602.152193
20
2800.005
30
0
11
1688.754734
21
2850.005
31
0
0
LINE
8
PIPES
10
3247.60046
20
1650.005
30
0
11
3247.60046
21
1950.005
31
0
0
LINE
8
PIPES
10
1688.754734
20
2550.005
30
0
11
1688.754734
21
2850.005
31
0
0
LINE
8
PIPES
10
1861.959814
20
850.005
30
0
11
1861.959814
21
-149.997325
31
0
0
LINE
8
PIPES
10
303.114087
20
1750.005
30
0
11
303.114087
21
750.002675
31
0
0
LINE
8
PIPES
10
3247.60046
20
1650.005
30
0
11
3247.60046
21
650.002675
31
0
0
LINE
8
PIPES
10
1688.754734
20
2550.005
30
0
11
1688.754734
21
1550.002675
31
0
0
LINE
8
PIPES
10
1861.959814
20
-4150.005
30
0
11
1082.536951
21
-3700.005
31
0
0
LINE
8
PIPES
10
1861.959814
20
-4150.005
30
0
11
2554.780137
21
-3750.005
31
0
0
LINE
8
PIPES
10
3247.60046
20
-3350.005
30
0
11
2468.177597
21
-2900.005
31
0
0
LINE
8
PIPES
10
303.114087
20
-3250.005
30
0
11
995.934411
21
-2850.005
31
0
0
LINE
8
PIPES
10
995.934411
20
-2850.005
30
0
11
1688.754734
21
-2450.005
31
0
0
LINE
8
PIPES
10
2554.780137
20
-3750.005
30
0
11
3247.60046
21
-3350.005
31
0
0
LINE
8
PIPES
10
1082.536951
20
-3700.005
30
0
11
303.114087
21
-3250.005
31
0
0
LINE
8
PIPES
10
2468.177597
20
-2900.005
30
0
11
1688.754734
21
-2450.005
31
0
0
LINE
8
PIPES
10
2468.177597
20
-2900.005
30
0
11
1775.357274
21
-3300.005
31
0
0
LINE
8
PIPES
10
2554.780137
20
-3750.005
30
0
11
1775.357274
21
-3300.005
31
0
0
LINE
8
PIPES
10
995.934411
20
2150.005
30
0
11
1082.536951
21
2200.005
31
0
0
LINE
8
PIPES
10
995.934411
20
-2850.005
30
0
11
995.934411
21
-2350.005
31
0
0
LINE
8
PIPES
10
2554.780137
20
1250.005
30
0
11
2641.382678
21
1300.005
31
0
0
LINE
8
PIPES
10
2554.780137
20
-3750.005
30
0
11
2554.780137
21
-3250.005
31
0
0
LINE
8
PIPES
10
1861.959814
20
-2150.005
30
0
11
1861.959814
21
-3150.005
31
0
0
LINE
8
PIPES
10
303.114087
20
-1250.005
30
0
11
303.114087
21
-2250.005
31
0
0
LINE
8
PIPES
10
3247.60046
20
-1350.005
30
0
11
3247.60046
21
-2350.005
31
0
0
LINE
8
PIPES
10
1688.754734
20
-450.005
30
0
11
1688.754734
21
-1450.005
31
0
0
LINE
8
PIPES
10
995.934411
20
-850.005
30
0
11
995.934411
21
-350.005
31
0
0
LINE
8
PIPES
10
2554.780137
20
-1750.005
30
0
11
2554.780137
21
-1250.005
31
0
0
LINE
8
PIPES
10
1861.959814
20
-149.997325
30
0
11
1861.959814
21
-1150.005
31
0
0
LINE
8
PIPES
10
303.114087
20
750.002675
30
0
11
303.114087
21
-250.005
31
0
0
LINE
8
PIPES
10
3247.60046
20
650.002675
30
0
11
3247.60046
21
-350.005
31
0
0
LINE
8
PIPES
10
1688.754734
20
1550.002675
30
0
11
1688.754734
21
549.995
31
0
0
LINE
8
PIPES
10
995.934411
20
1150.002675
30
0
11
995.934411
21
2150.005
31
0
0
LINE
8
PIPES
10
2554.780137
20
250.002675
30
0
11
2554.780137
21
1250.005
31
0
0
LINE
8
PIPES
10
1861.959814
20
-2150.005
30
0
11
2554.780137
21
-1750.005
31
0
0
LINE
8
PIPES
10
2554.780137
20
-1750.005
30
0
11
3247.60046
21
-1350.005
31
0
0
LINE
8
PIPES
10
1861.959814
20
-2150.005
30
0
11
1082.536951
21
-1700.005
31
0
0
LINE
8
PIPES
10
303.114087
20
-1250.005
30
0
11
995.934411
21
-850.005
31
0
0
LINE
8
PIPES
10
995.934411
20
-850.005
30
0
11
1688.754734
21
-450.005
31
0
0
LINE
8
PIPES
10
3247.60046
20
-1350.005
30
0
11
2468.177597
21
-900.005
31
0
0
LINE
8
PIPES
10
303.114087
20
750.002675
30
0
11
995.934411
21
1150.002675
31
0
0
LINE
8
PIPES
10
995.934411
20
1150.002675
30
0
11
1688.754734
21
1550.002675
31
0
0
LINE
8
PIPES
10
1688.754734
20
1550.002675
30
0
11
3247.60046
21
650.002675
31
0
0
LINE
8
PIPES
10
3247.60046
20
650.002675
30
0
11
2554.780137
21
250.002675
31
0
0
LINE
8
PIPES
10
2554.780137
20
250.002675
30
0
11
1861.959814
21
-149.997325
31
0
0
LINE
8
PIPES
10
1861.959814
20
-149.997325
30
0
11
303.114087
21
750.002675
31
0
0
LINE
8
PIPES
10
1861.959814
20
-3650.005
30
0
11
1861.959814
21
-4150.005
31
0
0
LINE
8
PIPES
10
303.114087
20
-2750.005
30
0
11
303.114087
21
-3250.005
31
0
0
LINE
8
PIPES
10
3247.60046
20
-2850.005
30
0
11
3247.60046
21
-3350.005
31
0
0
LINE
8
PIPES
10
1688.754734
20
-1950.005
30
0
11
1688.754734
21
-2450.005
31
0
0
LINE
8
PIPES
10
995.934411
20
-2350.005
30
0
11
995.934411
21
-1850.005
31
0
0
LINE
8
PIPES
10
2554.780137
20
-3250.005
30
0
11
2554.780137
21
-2750.005
31
0
0
LINE
8
PIPES
10
1082.536951
20
-3700.005
30
0
11
1082.536951
21
-3200.005
31
0
0
LINE
8
PIPES
10
2468.177597
20
-2900.005
30
0
11
2468.177597
21
-2400.005
31
0
0
LINE
8
PIPES
10
1861.959814
20
-3650.005
30
0
11
1082.536951
21
-3200.005
31
0
0
LINE
8
PIPES
10
1861.959814
20
-3650.005
30
0
11
2554.780137
21
-3250.005
31
0
0
LINE
8
PIPES
10
3247.60046
20
-2850.005
30
0
11
2468.177597
21
-2400.005
31
0
0
LINE
8
PIPES
10
303.114087
20
-2750.005
30
0
11
995.934411
21
-2350.005
31
0
0
LINE
8
PIPES
10
995.934411
20
-2350.005
30
0
11
1688.754734
21
-1950.005
31
0
0
LINE
8
PIPES
10
2554.780137
20
-3250.005
30
0
11
3247.60046
21
-2850.005
31
0
0
LINE
8
PIPES
10
1082.536951
20
-3200.005
30
0
11
303.114087
21
-2750.005
31
0
0
LINE
8
PIPES
10
2468.177597
20
-2400.005
30
0
11
1688.754734
21
-1950.005
31
0
0
LINE
8
PIPES
10
1861.959814
20
-3150.005
30
0
11
1861.959814
21
-3650.005
31
0
0
LINE
8
PIPES
10
303.114087
20
-2250.005
30
0
11
303.114087
21
-2750.005
31
0
0
LINE
8
PIPES
10
3247.60046
20
-2350.005
30
0
11
3247.60046
21
-2850.005
31
0
0
LINE
8
PIPES
10
1688.754734
20
-1450.005
30
0
11
1688.754734
21
-1950.005
31
0
0
LINE
8
PIPES
10
995.934411
20
-1850.005
30
0
11
995.934411
21
-850.005
31
0
0
LINE
8
PIPES
10
2554.780137
20
-2750.005
30
0
11
2554.780137
21
-1750.005
31
0
0
LINE
8
PIPES
10
1082.536951
20
-3200.005
30
0
11
1082.536951
21
-2700.005
31
0
0
LINE
8
PIPES
10
2468.177597
20
-2400.005
30
0
11
2468.177597
21
-1900.005
31
0
0
LINE
8
PIPES
10
1861.959814
20
-3150.005
30
0
11
1082.536951
21
-2700.005
31
0
0
LINE
8
PIPES
10
1861.959814
20
-3150.005
30
0
11
2554.780137
21
-2750.005
31
0
0
LINE
8
PIPES
10
3247.60046
20
-2350.005
30
0
11
2468.177597
21
-1900.005
31
0
0
LINE
8
PIPES
10
303.114087
20
-2250.005
30
0
11
995.934411
21
-1850.005
31
0
0
LINE
8
PIPES
10
995.934411
20
-1850.005
30
0
11
1688.754734
21
-1450.005
31
0
0
LINE
8
PIPES
10
2554.780137
20
-2750.005
30
0
11
3247.60046
21
-2350.005
31
0
0
LINE
8
PIPES
10
1082.536951
20
-2700.005
30
0
11
303.114087
21
-2250.005
31
0
0
LINE
8
PIPES
10
2468.177597
20
-1900.005
30
0
11
1688.754734
21
-1450.005
31
0
0
LINE
8
PIPES
10
3247.60046
20
1650.005
30
0
11
1688.754734
21
2550.005
31
0
0
LINE
8
PIPES
10
1775.357274
20
-3300.005
30
0
11
1082.536951
21
-3700.005
31
0
0
LINE
8
PIPES
10
1775.357274
20
-3300.005
30
0
11
995.934411
21
-2850.005
31
0
0
LINE
8
PIPES
10
1861.959814
20
-4150.005
30
0
11
1861.959814
21
-4450.005
31
0
0
LINE
8
PIPES
10
303.114087
20
-3250.005
30
0
11
303.114087
21
-3550.005
31
0
0
LINE
8
PIPES
10
3247.60046
20
-3350.005
30
0
11
3247.60046
21
-3650.005
31
0
0
LINE
8
PIPES
10
1688.754734
20
-2450.005
30
0
11
1688.754734
21
-2750.005
31
0
0
LINE
8
PIPES
10
995.934411
20
-2850.005
30
0
11
995.934411
21
-3150.005
31
0
0
LINE
8
PIPES
10
2554.780137
20
-3750.005
30
0
11
2554.780137
21
-4050.005
31
0
0
LINE
8
PIPES
10
1082.536951
20
-3700.005
30
0
11
1082.536951
21
-4000.005
31
0
0
LINE
8
PIPES
10
2468.177597
20
-2900.005
30
0
11
2468.177597
21
-3200.005
31
0
0
LINE
8
PIPES
10
1775.357274
20
-3300.005
30
0
11
1775.357274
21
-3600.005
31
0
0
LINE
8
PIPES
10
1861.959814
20
-4450.005
30
0
11
1688.754734
21
-4350.005
31
0
0
LINE
8
PIPES
10
303.114087
20
-3550.005
30
0
11
129.909007
21
-3450.005
31
0
0
LINE
8
PIPES
10
3247.60046
20
-3650.005
30
0
11
3074.39538
21
-3550.005
31
0
0
LINE
8
PIPES
10
1688.754734
20
-2750.005
30
0
11
1515.549653
21
-2650.005
31
0
0
LINE
8
PIPES
10
995.934411
20
-3150.005
30
0
11
822.72933
21
-3050.005
31
0
0
LINE
8
PIPES
10
2554.780137
20
-4050.005
30
0
11
2381.575057
21
-3950.005
31
0
0
LINE
8
PIPES
10
1082.536951
20
-4000.005
30
0
11
909.33187
21
-3900.005
31
0
0
LINE
8
PIPES
10
2468.177597
20
-3200.005
30
0
11
2294.972516
21
-3100.005
31
0
0
LINE
8
PIPES
10
1775.357274
20
-3600.005
30
0
11
1602.152193
21
-3500.005
31
0
0
LINE
8
PIPES
10
1861.959814
20
-4450.005
30
0
11
2035.164895
21
-4550.005
31
0
0
LINE
8
PIPES
10
303.114087
20
-3550.005
30
0
11
476.319168
21
-3650.005
31
0
0
LINE
8
PIPES
10
3247.60046
20
-3650.005
30
0
11
3420.805541
21
-3750.005
31
0
0
LINE
8
PIPES
10
1688.754734
20
-2750.005
30
0
11
1861.959814
21
-2850.005
31
0
0
LINE
8
PIPES
10
995.934411
20
-3150.005
30
0
11
1169.139491
21
-3250.005
31
0
0
LINE
8
PIPES
10
2554.780137
20
-4050.005
30
0
11
2727.985218
21
-4150.005
31
0
0
LINE
8
PIPES
10
1082.536951
20
-4000.005
30
0
11
1255.742032
21
-4100.005
31
0
0
LINE
8
PIPES
10
2468.177597
20
-3200.005
30
0
11
2641.382678
21
-3300.005
31
0
0
LINE
8
PIPES
10
1775.357274
20
-3600.005
30
0
11
1948.562355
21
-3700.005
31
0
0
LINE
8
PIPES
10
822.72933
20
2250.015
30
0
11
43.306466
21
2700.015
31
0
0
LINE
8
PIPES
10
-3420.805541
20
400.011
30
0
11
-3420.805541
21
-2299.994349
31
0
0
LINE
8
PIPES
10
1082.536951
20
-1700.005
30
0
11
303.114087
21
-1250.005
31
0
0
LINE
8
PIPES
10
2468.177597
20
-900.005
30
0
11
1688.754734
21
-450.005
31
0
0
LINE
8
PIPES
10
2468.177597
20
-900.005
30
0
11
1775.357274
21
-1300.005
31
0
0
LINE
8
PIPES
10
995.934411
20
-850.005
30
0
11
1775.357274
21
-1300.005
31
0
0
LINE
8
PIPES
10
1775.357274
20
-1300.005
30
0
11
1082.536951
21
-1700.005
31
0
0
LINE
8
PIPES
10
1775.357274
20
-1300.005
30
0
11
2554.780137
21
-1750.005
31
0
0
LINE
8
PIPES
10
1861.959814
20
-1650.005
30
0
11
1861.959814
21
-2150.005
31
0
0
LINE
8
PIPES
10
303.114087
20
-750.005
30
0
11
303.114087
21
-1250.005
31
0
0
LINE
8
PIPES
10
3247.60046
20
-850.005
30
0
11
3247.60046
21
-1350.005
31
0
0
LINE
8
PIPES
10
1688.754734
20
49.995
30
0
11
1688.754734
21
-450.005
31
0
0
LINE
8
PIPES
10
995.934411
20
-350.005
30
0
11
995.934411
21
149.995
31
0
0
LINE
8
PIPES
10
2554.780137
20
-1250.005
30
0
11
2554.780137
21
-750.005
31
0
0
LINE
8
PIPES
10
1082.536951
20
-1700.005
30
0
11
1082.536951
21
-1200.005
31
0
0
LINE
8
PIPES
10
2468.177597
20
-900.005
30
0
11
2468.177597
21
-400.005
31
0
0
LINE
8
PIPES
10
1861.959814
20
-1650.005
30
0
11
2554.780137
21
-1250.005
31
0
0
LINE
8
PIPES
10
2554.780137
20
-1250.005
30
0
11
3247.60046
21
-850.005
31
0
0
LINE
8
PIPES
10
1861.959814
20
-1650.005
30
0
11
1082.536951
21
-1200.005
31
0
0
LINE
8
PIPES
10
303.114087
20
-750.005
30
0
11
995.934411
21
-350.005
31
0
0
LINE
8
PIPES
10
995.934411
20
-350.005
30
0
11
1688.754734
21
49.995
31
0
0
LINE
8
PIPES
10
3247.60046
20
-850.005
30
0
11
2468.177597
21
-400.005
31
0
0
LINE
8
PIPES
10
1082.536951
20
-1200.005
30
0
11
303.114087
21
-750.005
31
0
0
LINE
8
PIPES
10
2468.177597
20
-400.005
30
0
11
1688.754734
21
49.995
31
0
0
LINE
8
PIPES
10
1861.959814
20
-1150.005
30
0
11
1861.959814
21
-1650.005
31
0
0
LINE
8
PIPES
10
303.114087
20
-250.005
30
0
11
303.114087
21
-750.005
31
0
0
LINE
8
PIPES
10
3247.60046
20
-350.005
30
0
11
3247.60046
21
-850.005
31
0
0
LINE
8
PIPES
10
1688.754734
20
549.995
30
0
11
1688.754734
21
49.995
31
0
0
LINE
8
PIPES
10
995.934411
20
149.995
30
0
11
995.934411
21
1150.002675
31
0
0
LINE
8
PIPES
10
2554.780137
20
-750.005
30
0
11
2554.780137
21
250.002675
31
0
0
LINE
8
PIPES
10
1082.536951
20
-1200.005
30
0
11
1082.536951
21
-700.005
31
0
0
LINE
8
PIPES
10
2468.177597
20
-400.005
30
0
11
2468.177597
21
99.995
31
0
0
LINE
8
PIPES
10
1861.959814
20
-1150.005
30
0
11
2554.780137
21
-750.005
31
0
0
LINE
8
PIPES
10
2554.780137
20
-750.005
30
0
11
3247.60046
21
-350.005
31
0
0
LINE
8
PIPES
10
1861.959814
20
-1150.005
30
0
11
1082.536951
21
-700.005
31
0
0
LINE
8
PIPES
10
303.114087
20
-250.005
30
0
11
995.934411
21
149.995
31
0
0
LINE
8
PIPES
10
995.934411
20
149.995
30
0
11
1688.754734
21
549.995
31
0
0
LINE
8
PIPES
10
3247.60046
20
-350.005
30
0
11
2468.177597
21
99.995
31
0
0
LINE
8
PIPES
10
1082.536951
20
-700.005
30
0
11
303.114087
21
-250.005
31
0
0
LINE
8
PIPES
10
2468.177597
20
99.995
30
0
11
1688.754734
21
549.995
31
0
0
LINE
8
PIPES
10
-909.330138
20
1250.01
30
0
11
-1775.355542
21
-1250
31
0
0
LINE
8
PIPES
10
-909.330138
20
1250.01
30
0
11
-43.304734
21
-250
31
0
0
LINE
8
PIPES
10
-43.304734
20
-250
30
0
11
822.72933
21
2250.015
31
0
0
LINE
8
PIPES
10
822.72933
20
2250.015
30
0
11
1688.754734
21
750.005
31
0
0
LINE
8
PIPES
10
-1775.355542
20
-1250
30
0
11
-909.330138
21
-1449.999
31
0
0
LINE
8
PIPES
10
-909.330138
20
-1449.999
30
0
11
-43.304734
21
-250
31
0
0
LINE
8
PIPES
10
-43.304734
20
-250
30
0
11
822.72933
21
-449.994
31
0
0
LINE
8
PIPES
10
822.72933
20
-449.994
30
0
11
1688.754734
21
750.005
31
0
0
LINE
8
PIPES
10
1861.959814
20
850.005
30
0
11
2554.780137
21
250.002675
31
0
0
LINE
8
PIPES
10
2554.780137
20
250.002675
30
0
11
3247.60046
21
1650.005
31
0
0
LINE
8
PIPES
10
1861.959814
20
-149.997325
30
0
11
2554.780137
21
-750.005
31
0
0
LINE
8
PIPES
10
2554.780137
20
-750.005
30
0
11
3247.60046
21
650.002675
31
0
0
LINE
8
PIPES
10
1861.959814
20
-1150.005
30
0
11
2554.780137
21
-1750.005
31
0
0
LINE
8
PIPES
10
2554.780137
20
-1750.005
30
0
11
3247.60046
21
-350.005
31
0
0
LINE
8
PIPES
10
1861.959814
20
-2150.005
30
0
11
2554.780137
21
-2750.005
31
0
0
LINE
8
PIPES
10
2554.780137
20
-2750.005
30
0
11
3247.60046
21
-1350.005
31
0
0
LINE
8
PIPES
10
1861.959814
20
-3150.005
30
0
11
2554.780137
21
-3750.005
31
0
0
LINE
8
PIPES
10
2554.780137
20
-3750.005
30
0
11
3247.60046
21
-2350.005
31
0
0
LINE
8
PIPES
10
-3334.201269
20
1650.01
30
0
11
-2468.175865
21
150
31
0
0
LINE
8
PIPES
10
-2468.175865
20
150
30
0
11
-1602.150461
21
2650.01
31
0
0
LINE
8
PIPES
10
-1602.150461
20
2650.01
30
0
11
-736.116397
21
1150.005
31
0
0
LINE
8
PIPES
10
-736.116397
20
1150.005
30
0
11
129.909007
21
3650.015
31
0
0
LINE
8
PIPES
10
995.934411
20
2150.005
30
0
11
303.114087
21
750.002675
31
0
0
LINE
8
PIPES
10
995.934411
20
2150.005
30
0
11
1688.754734
21
1550.002675
31
0
0
LINE
8
PIPES
10
995.934411
20
1150.002675
30
0
11
303.114087
21
-250.005
31
0
0
LINE
8
PIPES
10
995.934411
20
1150.002675
30
0
11
1688.754734
21
549.995
31
0
0
LINE
8
PIPES
10
995.934411
20
149.995
30
0
11
303.114087
21
-1250.005
31
0
0
LINE
8
PIPES
10
995.934411
20
149.995
30
0
11
1688.754734
21
-450.005
31
0
0
LINE
8
PIPES
10
995.934411
20
-850.005
30
0
11
303.114087
21
-2250.005
31
0
0
LINE
8
PIPES
10
995.934411
20
-850.005
30
0
11
1688.754734
21
-1450.005
31
0
0
LINE
8
PIPES
10
995.934411
20
-1850.005
30
0
11
303.114087
21
-3250.005
31
0
0
LINE
8
PIPES
10
995.934411
20
-1850.005
30
0
11
1688.754734
21
-2450.005
31
0
0
LINE
8
PIPES
10
-3334.201269
20
-1049.999
30
0
11
-2468.175865
21
150
31
0
0
LINE
8
PIPES
10
-2468.175865
20
150
30
0
11
-1602.150461
21
-49.999
31
0
0
LINE
8
PIPES
10
-1602.150461
20
-49.999
30
0
11
-736.116397
21
1150.005
31
0
0
LINE
8
PIPES
10
-736.116397
20
1150.005
30
0
11
129.909007
21
950.006
31
0
0
LINE
8
PIPES
10
-2468.175865
20
2150.01
30
0
11
-909.330138
21
-750
31
0
0
LINE
8
PIPES
10
-1602.150461
20
2650.01
30
0
11
-43.304734
21
-250
31
0
0
LINE
8
PIPES
10
-43.304734
20
-250
30
0
11
-1602.150461
21
-49.999
31
0
0
LINE
8
PIPES
10
-909.330138
20
-750
30
0
11
-2468.175865
21
-549.999
31
0
0
LINE
8
PIPES
10
-736.116397
20
1150.005
30
0
11
43.306466
21
700.005
31
0
0
LINE
8
PIPES
10
-736.116397
20
3150.015
30
0
11
822.72933
21
250.005
31
0
0
LINE
8
PIPES
10
-736.116397
20
450.006
30
0
11
43.306466
21
0.006
31
0
0
LINE
8
PIPES
10
822.72933
20
250.005
30
0
11
-736.116397
21
450.006
31
0
0
LINE
8
PIPES
10
129.909007
20
3650.015
30
0
11
1688.754734
21
750.005
31
0
0
LINE
8
PIPES
10
1688.754734
20
750.005
30
0
11
129.909007
21
950.006
31
0
0
LINE
8
PIPES
10
3247.60046
20
1650.005
30
0
11
1688.754734
21
1550.002675
31
0
0
LINE
8
PIPES
10
1688.754734
20
1550.002675
30
0
11
3247.60046
21
-350.005
31
0
0
LINE
8
PIPES
10
3247.60046
20
-350.005
30
0
11
1688.754734
21
-450.005
31
0
0
LINE
8
PIPES
10
1688.754734
20
-450.005
30
0
11
3247.60046
21
-2350.005
31
0
0
LINE
8
PIPES
10
3247.60046
20
-2350.005
30
0
11
1688.754734
21
-2450.005
31
0
0
LINE
8
PIPES
10
1688.754734
20
2850.005
30
0
11
3247.60046
21
1950.005
31
0
0
LINE
8
PIPES
10
822.72933
20
2250.015
30
0
11
129.909007
21
3650.015
31
0
0
LINE
8
PIPES
10
822.72933
20
2250.015
30
0
11
-1602.150461
21
2650.01
31
0
0
LINE
8
PIPES
10
-1602.150461
20
2650.01
30
0
11
-909.330138
21
1250.01
31
0
0
LINE
8
PIPES
10
-909.330138
20
1250.01
30
0
11
-3334.201269
21
1650.01
31
0
0
LINE
8
PIPES
10
-909.330138
20
-750
30
0
11
-1602.150461
21
650
31
0
0
LINE
8
PIPES
10
-1602.150461
20
650
30
0
11
822.72933
21
250.005
31
0
0
LINE
8
PIPES
10
822.72933
20
250.005
30
0
11
129.909007
21
1650.005
31
0
0
LINE
8
PIPES
10
43.306466
20
2700.015
30
0
11
-736.116397
21
3150.015
31
0
0
LINE
8
PIPES
10
43.306466
20
700.005
30
0
11
822.72933
21
250.005
31
0
0
LINE
8
PIPES
10
43.306466
20
700.005
30
0
11
43.306466
21
2700.015
31
0
0
LINE
8
PIPES
10
43.306466
20
0.006
30
0
11
822.72933
21
-449.994
31
0
0
LINE
8
PIPES
10
43.306466
20
700.005
30
0
11
43.306466
21
0.006
31
0
0
LINE
8
PIPES
10
43.306466
20
0.006
30
0
11
43.306466
21
-299.994612
31
0
0
LINE
8
PIPES
10
303.114087
20
750.002675
30
0
11
1861.959814
21
-1150.005
31
0
0
LINE
8
PIPES
10
1688.754734
20
750.005
30
0
11
1861.959814
21
850.005
31
0
0
LINE
8
PIPES
10
1688.754734
20
1050.005
30
0
11
1688.754734
21
1900.015
31
0
0
LINE
8
PIPES
10
1688.754734
20
1050.005
30
0
11
1861.959814
21
1150.005
31
0
0
LINE
8
PIPES
10
1602.152193
20
1000.005
30
0
11
1602.152193
21
700.005
31
0
0
LINE
8
PIPES
10
43.306466
20
1900.005
30
0
11
43.306466
21
1600.005
31
0
0
LINE
8
PIPES
10
3247.60046
20
1650.005
30
0
11
303.114087
21
1750.005
31
0
0
LINE
8
PIPES
10
1861.959814
20
850.005
30
0
11
303.114087
21
1750.005
31
0
0
LINE
8
PIPES
10
1688.754734
20
1050.005
30
0
11
1861.959814
21
850.005
31
0
0
LINE
8
PIPES
10
1861.959814
20
850.005
30
0
11
303.114087
21
750.002675
31
0
0
LINE
8
PIPES
10
3247.60046
20
1950.005
30
0
11
3247.60046
21
3650.005
31
0
0
LINE
8
PIPES
10
1688.754734
20
2850.005
30
0
11
1688.754734
21
4550.005
31
0
0
LINE
8
PIPES
10
3247.60046
20
3650.005
30
0
11
1688.754734
21
4550.005
31
0
0
LINE
8
PIPES
10
3247.60046
20
3650.005
30
0
11
1688.754734
21
2750.015
31
0
0
LINE
8
PIPES
10
1688.754734
20
4550.005
30
0
11
129.909007
21
3650.015
31
0
0
LINE
8
PIPES
10
129.909007
20
1950.005
30
0
11
1688.754734
21
4550.005
31
0
0
LINE
8
PIPES
10
1688.754734
20
2750.015
30
0
11
3247.60046
21
1950.005
31
0
0
LINE
8
PIPES
10
3247.60046
20
3650.005
30
0
11
1688.754734
21
2850.005
31
0
0
LINE
8
PIPES
10
-1428.946246
20
-449.9995
30
0
11
-2294.97165
21
-1649.9985
31
0
0
LINE
8
PIPES
10
-2814.586026
20
-650
30
0
11
-1948.560623
21
-849.999
31
0
0
LINE
8
PIPES
10
-3334.201269
20
-350
30
0
11
-1775.355542
21
-1949.999
31
0
0
LINE
8
PIPES
10
-1775.355542
20
-1949.999
30
0
11
-1428.946246
21
-1149.9985
31
0
0
LINE
8
PIPES
10
-1428.946246
20
-1149.9985
30
0
11
-2814.586026
21
-1349.999
31
0
0
LINE
8
PIPES
10
-2814.586026
20
-1349.999
30
0
11
-2468.175865
21
-549.999
31
0
0
LINE
8
PIPES
10
-909.330138
20
-750
30
0
11
-2294.97165
21
-949.9995
31
0
0
LINE
8
PIPES
10
-2294.97165
20
-949.9995
30
0
11
-1948.560623
21
-150
31
0
0
LINE
8
PIPES
10
-1948.560623
20
-150
30
0
11
-3334.201269
21
-350
31
0
0
ENDSEC
0
EOF
