0
SECTION
2
HEADER
9
$ACADVER
1
AC1009
9
$INSUNITS
70
4
9
$MEASUREMENT
70
1
9
$LUNITS
70
2
9
$LUPREC
70
1
9
$TILEMODE
70
1
9
$EXTMIN
10
-3402.100773
20
-2591.720773
30
0
9
$EXTMAX
10
3402.100773
20
2591.720773
30
0
9
$PEXTMIN
10
-3402.100773
20
-2591.720773
30
0
9
$PEXTMAX
10
3402.100773
20
2591.720773
30
0
9
$LIMMIN
10
-3902.100773
20
-3091.720773
9
$LIMMAX
10
3902.100773
20
3091.720773
9
$PLIMMIN
10
-3902.100773
20
-3091.720773
9
$PLIMMAX
10
3902.100773
20
3091.720773
0
ENDSEC
0
SECTION
2
TABLES
0
TABLE
2
VPORT
70
1
0
VPORT
2
*ACTIVE
70
0
10
0
20
0
11
1
21
1
12
0
22
0
40
6183.441545
41
1.262113
42
50
43
0
44
0
50
0
51
0
71
0
72
100
73
1
74
3
75
0
76
0
77
0
78
0
0
ENDTAB
0
TABLE
2
LTYPE
70
2
0
LTYPE
2
CONTINUOUS
70
0
3
Solid line
72
65
73
0
40
0
0
LTYPE
2
DASHED
70
0
3
Dashed
72
65
73
2
40
240
49
120
74
0
49
-120
74
0
0
ENDTAB
0
TABLE
2
LAYER
70
6
0
LAYER
2
PIPES
70
0
62
5
6
CONTINUOUS
0
LAYER
2
PIPE_ENDS
70
0
62
5
6
CONTINUOUS
0
LAYER
2
DIMENSION
70
0
62
1
6
CONTINUOUS
0
LAYER
2
LEVEL_GUIDE
70
0
62
1
6
DASHED
0
LAYER
2
LEVEL_TEXT
70
0
62
1
6
CONTINUOUS
0
LAYER
2
FRAME
70
0
62
5
6
CONTINUOUS
0
ENDTAB
0
TABLE
2
STYLE
70
1
0
STYLE
2
STANDARD
70
0
40
0
41
1
50
0
71
0
42
100
3
txt
4

0
ENDTAB
0
ENDSEC
0
SECTION
2
BLOCKS
0
BLOCK
8
0
2
$MODEL_SPACE
70
0
10
0
20
0
30
0
3
$MODEL_SPACE
0
ENDBLK
8
0
0
BLOCK
67
1
8
0
2
$PAPER_SPACE
70
0
10
0
20
0
30
0
3
$PAPER_SPACE
0
ENDBLK
67
1
8
0
0
ENDSEC
0
SECTION
2
ENTITIES
0
LINE
8
PIPES
10
-3338.659227
20
728.279227
30
0
11
-3038.658227
21
728.279227
31
0
0
LINE
8
PIPES
10
1661.350773
20
728.279227
30
0
11
1661.350773
21
1628.281227
31
0
0
LINE
8
PIPES
10
1461.350773
20
2528.279227
30
0
11
1661.350773
21
2528.279227
31
0
0
LINE
8
PIPES
10
-3338.659227
20
2528.279227
30
0
11
-3338.659227
21
1628.281227
31
0
0
LINE
8
PIPES
10
-1671.989227
20
728.279227
30
0
11
-1538.659227
21
728.279227
31
0
0
LINE
8
PIPES
10
-5.319227
20
728.279227
30
0
11
261.350773
21
728.279227
31
0
0
LINE
8
PIPES
10
-5.319227
20
2528.279227
30
0
11
-38.649227
21
2528.279227
31
0
0
LINE
8
PIPES
10
-1671.989227
20
2528.279227
30
0
11
-1838.659227
21
2528.279227
31
0
0
LINE
8
PIPES
10
-1671.989227
20
728.279227
30
0
11
-1671.989227
21
1628.281227
31
0
0
LINE
8
PIPES
10
-5.319227
20
728.279227
30
0
11
-5.319227
21
1628.281227
31
0
0
LINE
8
PIPES
10
-3338.659227
20
1628.281227
30
0
11
-3338.659227
21
728.279227
31
0
0
LINE
8
PIPES
10
-1671.989227
20
1628.281227
30
0
11
-1671.989227
21
2528.279227
31
0
0
LINE
8
PIPES
10
-5.319227
20
1628.281227
30
0
11
-5.319227
21
2528.279227
31
0
0
LINE
8
PIPES
10
1661.350773
20
1628.281227
30
0
11
1661.350773
21
2528.279227
31
0
0
LINE
8
PIPES
10
-3338.659227
20
1628.281227
30
0
11
-2505.657227
21
1628.281227
31
0
0
LINE
8
PIPES
10
-1671.989227
20
1628.281227
30
0
11
-838.989227
21
1628.281227
31
0
0
LINE
8
PIPES
10
-5.319227
20
1628.281227
30
0
11
827.680773
21
1628.281227
31
0
0
LINE
8
PIPES
10
-3338.659227
20
728.279227
30
0
11
-1671.989227
21
728.279227
31
0
0
LINE
8
PIPES
10
-5.319227
20
2528.279227
30
0
11
1661.350773
21
2528.279227
31
0
0
LINE
8
PIPES
10
1661.350773
20
728.279227
30
0
11
-5.319227
21
728.279227
31
0
0
LINE
8
PIPES
10
-1671.989227
20
2528.279227
30
0
11
-5.319227
21
2528.279227
31
0
0
LINE
8
PIPES
10
-1671.989227
20
2528.279227
30
0
11
-3338.659227
21
2528.279227
31
0
0
LINE
8
PIPES
10
-3038.658227
20
728.279227
30
0
11
-2738.658227
21
728.279227
31
0
0
LINE
8
PIPES
10
-3338.659227
20
2528.279227
30
0
11
-3038.658227
21
2528.279227
31
0
0
LINE
8
PIPES
10
-2738.658227
20
728.279227
30
0
11
-2505.657227
21
728.279227
31
0
0
LINE
8
PIPES
10
-3038.658227
20
2528.279227
30
0
11
-2738.658227
21
2528.279227
31
0
0
LINE
8
PIPES
10
-2438.657227
20
728.279227
30
0
11
-2138.659227
21
728.279227
31
0
0
LINE
8
PIPES
10
-2438.657227
20
2528.279227
30
0
11
-2505.657227
21
2528.279227
31
0
0
LINE
8
PIPES
10
-2738.658227
20
728.279227
30
0
11
-2438.657227
21
728.279227
31
0
0
LINE
8
PIPES
10
-2738.658227
20
2528.279227
30
0
11
-2438.657227
21
2528.279227
31
0
0
LINE
8
PIPES
10
-2138.659227
20
728.279227
30
0
11
-1838.659227
21
728.279227
31
0
0
LINE
8
PIPES
10
-2438.657227
20
2528.279227
30
0
11
-2138.659227
21
2528.279227
31
0
0
LINE
8
PIPES
10
-1838.659227
20
728.279227
30
0
11
-1671.989227
21
728.279227
31
0
0
LINE
8
PIPES
10
-2138.659227
20
2528.279227
30
0
11
-1838.659227
21
2528.279227
31
0
0
LINE
8
PIPES
10
-1538.659227
20
728.279227
30
0
11
-1238.659227
21
728.279227
31
0
0
LINE
8
PIPES
10
-1838.659227
20
728.279227
30
0
11
-1538.659227
21
728.279227
31
0
0
LINE
8
PIPES
10
-1538.659227
20
2528.279227
30
0
11
-1671.989227
21
2528.279227
31
0
0
LINE
8
PIPES
10
-1838.659227
20
2528.279227
30
0
11
-1538.659227
21
2528.279227
31
0
0
LINE
8
PIPES
10
-1238.659227
20
728.279227
30
0
11
-938.659227
21
728.279227
31
0
0
LINE
8
PIPES
10
-1538.659227
20
2528.279227
30
0
11
-1238.659227
21
2528.279227
31
0
0
LINE
8
PIPES
10
-938.659227
20
728.279227
30
0
11
-838.989227
21
728.279227
31
0
0
LINE
8
PIPES
10
-1238.659227
20
2528.279227
30
0
11
-938.659227
21
2528.279227
31
0
0
LINE
8
PIPES
10
-638.649227
20
728.279227
30
0
11
-338.649227
21
728.279227
31
0
0
LINE
8
PIPES
10
-638.649227
20
2528.279227
30
0
11
-838.989227
21
2528.279227
31
0
0
LINE
8
PIPES
10
-938.659227
20
728.279227
30
0
11
-638.649227
21
728.279227
31
0
0
LINE
8
PIPES
10
-938.659227
20
2528.279227
30
0
11
-638.649227
21
2528.279227
31
0
0
LINE
8
PIPES
10
-338.649227
20
728.279227
30
0
11
-38.649227
21
728.279227
31
0
0
LINE
8
PIPES
10
-638.649227
20
2528.279227
30
0
11
-338.649227
21
2528.279227
31
0
0
LINE
8
PIPES
10
-38.649227
20
728.279227
30
0
11
-5.319227
21
728.279227
31
0
0
LINE
8
PIPES
10
-338.649227
20
2528.279227
30
0
11
-38.649227
21
2528.279227
31
0
0
LINE
8
PIPES
10
261.350773
20
728.279227
30
0
11
561.350773
21
728.279227
31
0
0
LINE
8
PIPES
10
-38.649227
20
728.279227
30
0
11
261.350773
21
728.279227
31
0
0
LINE
8
PIPES
10
261.350773
20
2528.279227
30
0
11
-5.319227
21
2528.279227
31
0
0
LINE
8
PIPES
10
-38.649227
20
2528.279227
30
0
11
261.350773
21
2528.279227
31
0
0
LINE
8
PIPES
10
561.350773
20
728.279227
30
0
11
827.680773
21
728.279227
31
0
0
LINE
8
PIPES
10
261.350773
20
2528.279227
30
0
11
561.350773
21
2528.279227
31
0
0
LINE
8
PIPES
10
861.350773
20
728.279227
30
0
11
1161.350773
21
728.279227
31
0
0
LINE
8
PIPES
10
861.350773
20
2528.279227
30
0
11
827.680773
21
2528.279227
31
0
0
LINE
8
PIPES
10
561.350773
20
728.279227
30
0
11
861.350773
21
728.279227
31
0
0
LINE
8
PIPES
10
561.350773
20
2528.279227
30
0
11
861.350773
21
2528.279227
31
0
0
LINE
8
PIPES
10
1161.350773
20
728.279227
30
0
11
1461.350773
21
728.279227
31
0
0
LINE
8
PIPES
10
861.350773
20
2528.279227
30
0
11
1161.350773
21
2528.279227
31
0
0
LINE
8
PIPES
10
1461.350773
20
728.279227
30
0
11
1661.350773
21
728.279227
31
0
0
LINE
8
PIPES
10
1161.350773
20
2528.279227
30
0
11
1461.350773
21
2528.279227
31
0
0
LINE
8
PIPES
10
-1671.989227
20
-1671.720773
30
0
11
-1671.989227
21
728.279227
31
0
0
LINE
8
PIPES
10
-5.319227
20
-1671.720773
30
0
11
-5.319227
21
728.279227
31
0
0
LINE
8
PIPES
10
-1671.989227
20
-1671.720773
30
0
11
-5.319227
21
-1671.720773
31
0
0
LINE
8
PIPES
10
1661.350773
20
728.279227
30
0
11
1661.350773
21
2528.279227
31
0
0
LINE
8
PIPES
10
-2505.657227
20
728.279227
30
0
11
-2438.657227
21
728.279227
31
0
0
LINE
8
PIPES
10
-2505.657227
20
2528.279227
30
0
11
-2738.658227
21
2528.279227
31
0
0
LINE
8
PIPES
10
-2505.657227
20
1628.281227
30
0
11
-1671.989227
21
1628.281227
31
0
0
LINE
8
PIPES
10
-2505.657227
20
2528.279227
30
0
11
-2505.657227
21
1628.281227
31
0
0
LINE
8
PIPES
10
-2505.657227
20
1628.281227
30
0
11
-2505.657227
21
728.279227
31
0
0
LINE
8
PIPES
10
-838.989227
20
728.279227
30
0
11
-638.649227
21
728.279227
31
0
0
LINE
8
PIPES
10
-838.989227
20
2528.279227
30
0
11
-938.659227
21
2528.279227
31
0
0
LINE
8
PIPES
10
-838.989227
20
1628.281227
30
0
11
-5.319227
21
1628.281227
31
0
0
LINE
8
PIPES
10
-838.989227
20
728.279227
30
0
11
-838.989227
21
1628.281227
31
0
0
LINE
8
PIPES
10
-838.989227
20
1628.281227
30
0
11
-838.989227
21
2528.279227
31
0
0
LINE
8
PIPES
10
827.680773
20
728.279227
30
0
11
861.350773
21
728.279227
31
0
0
LINE
8
PIPES
10
827.680773
20
2528.279227
30
0
11
561.350773
21
2528.279227
31
0
0
LINE
8
PIPES
10
827.680773
20
1628.281227
30
0
11
1661.350773
21
1628.281227
31
0
0
LINE
8
PIPES
10
827.680773
20
728.279227
30
0
11
827.680773
21
1628.281227
31
0
0
LINE
8
PIPES
10
827.680773
20
1628.281227
30
0
11
827.680773
21
2528.279227
31
0
0
CIRCLE
8
PIPE_ENDS
10
-3338.659227
20
728.279227
30
0
40
32
0
CIRCLE
8
PIPE_ENDS
10
-3338.659227
20
2528.279227
30
0
40
32
0
CIRCLE
8
PIPE_ENDS
10
1661.340773
20
728.279227
30
0
40
32
0
CIRCLE
8
PIPE_ENDS
10
1661.340773
20
2528.279227
30
0
40
32
0
CIRCLE
8
PIPE_ENDS
10
-1671.959227
20
728.279227
30
0
40
32
0
CIRCLE
8
PIPE_ENDS
10
-5.359227
20
728.279227
30
0
40
32
0
CIRCLE
8
PIPE_ENDS
10
-5.359227
20
2528.279227
30
0
40
32
0
CIRCLE
8
PIPE_ENDS
10
-1671.959227
20
2528.279227
30
0
40
32
0
CIRCLE
8
PIPE_ENDS
10
-3338.659227
20
1628.279227
30
0
40
32
0
CIRCLE
8
PIPE_ENDS
10
1661.340773
20
1628.279227
30
0
40
32
0
CIRCLE
8
PIPE_ENDS
10
-3038.659227
20
728.279227
30
0
40
25
0
CIRCLE
8
PIPE_ENDS
10
-3038.659227
20
2528.279227
30
0
40
25
0
CIRCLE
8
PIPE_ENDS
10
-2738.659227
20
728.279227
30
0
40
25
0
CIRCLE
8
PIPE_ENDS
10
-2738.659227
20
2528.279227
30
0
40
25
0
CIRCLE
8
PIPE_ENDS
10
-2438.659227
20
728.279227
30
0
40
25
0
CIRCLE
8
PIPE_ENDS
10
-2438.659227
20
2528.279227
30
0
40
25
0
CIRCLE
8
PIPE_ENDS
10
-2138.659227
20
728.279227
30
0
40
25
0
CIRCLE
8
PIPE_ENDS
10
-2138.659227
20
2528.279227
30
0
40
25
0
CIRCLE
8
PIPE_ENDS
10
-1838.659227
20
728.279227
30
0
40
25
0
CIRCLE
8
PIPE_ENDS
10
-1838.659227
20
2528.279227
30
0
40
25
0
CIRCLE
8
PIPE_ENDS
10
-1538.659227
20
728.279227
30
0
40
25
0
CIRCLE
8
PIPE_ENDS
10
-1538.659227
20
2528.279227
30
0
40
25
0
CIRCLE
8
PIPE_ENDS
10
-1238.659227
20
728.279227
30
0
40
25
0
CIRCLE
8
PIPE_ENDS
10
-1238.659227
20
2528.279227
30
0
40
25
0
CIRCLE
8
PIPE_ENDS
10
-938.659227
20
728.279227
30
0
40
25
0
CIRCLE
8
PIPE_ENDS
10
-938.659227
20
2528.279227
30
0
40
25
0
CIRCLE
8
PIPE_ENDS
10
-638.659227
20
728.279227
30
0
40
25
0
CIRCLE
8
PIPE_ENDS
10
-638.659227
20
2528.279227
30
0
40
25
0
CIRCLE
8
PIPE_ENDS
10
-338.659227
20
728.279227
30
0
40
25
0
CIRCLE
8
PIPE_ENDS
10
-338.659227
20
2528.279227
30
0
40
25
0
CIRCLE
8
PIPE_ENDS
10
-38.659227
20
728.279227
30
0
40
25
0
CIRCLE
8
PIPE_ENDS
10
-38.659227
20
2528.279227
30
0
40
25
0
CIRCLE
8
PIPE_ENDS
10
261.340773
20
728.279227
30
0
40
25
0
CIRCLE
8
PIPE_ENDS
10
261.340773
20
2528.279227
30
0
40
25
0
CIRCLE
8
PIPE_ENDS
10
561.340773
20
728.279227
30
0
40
25
0
CIRCLE
8
PIPE_ENDS
10
561.340773
20
2528.279227
30
0
40
25
0
CIRCLE
8
PIPE_ENDS
10
861.340773
20
728.279227
30
0
40
25
0
CIRCLE
8
PIPE_ENDS
10
861.340773
20
2528.279227
30
0
40
25
0
CIRCLE
8
PIPE_ENDS
10
1161.340773
20
728.279227
30
0
40
25
0
CIRCLE
8
PIPE_ENDS
10
1161.340773
20
2528.279227
30
0
40
25
0
CIRCLE
8
PIPE_ENDS
10
1461.340773
20
728.279227
30
0
40
25
0
CIRCLE
8
PIPE_ENDS
10
1461.340773
20
2528.279227
30
0
40
25
0
CIRCLE
8
PIPE_ENDS
10
-1671.959227
20
-1671.720773
30
0
40
25
0
CIRCLE
8
PIPE_ENDS
10
-5.359227
20
-1671.720773
30
0
40
25
0
LINE
8
DIMENSION
10
-3338.659227
20
-1731.720773
30
0
11
-3338.659227
21
-2051.720773
31
0
0
LINE
8
DIMENSION
10
-2738.659227
20
-1731.720773
30
0
11
-2738.659227
21
-2051.720773
31
0
0
LINE
8
DIMENSION
10
-3338.659227
20
-2051.720773
30
0
11
-2738.659227
21
-2051.720773
31
0
0
LINE
8
DIMENSION
10
-3338.659227
20
-2051.720773
30
0
11
-3402.100773
21
-2022.137494
31
0
0
LINE
8
DIMENSION
10
-3338.659227
20
-2051.720773
30
0
11
-3402.100773
21
-2081.304051
31
0
0
LINE
8
DIMENSION
10
-2738.659227
20
-2051.720773
30
0
11
-2675.217682
21
-2081.304051
31
0
0
LINE
8
DIMENSION
10
-2738.659227
20
-2051.720773
30
0
11
-2675.217682
21
-2022.137494
31
0
0
TEXT
8
DIMENSION
10
-3038.659227
20
-2221.720773
30
0
40
85
1
0.6
50
0
7
STANDARD
72
1
73
2
11
-3038.659227
21
-2221.720773
31
0
0
LINE
8
DIMENSION
10
-2738.659227
20
-1731.720773
30
0
11
-2738.659227
21
-2051.720773
31
0
0
LINE
8
DIMENSION
10
-2138.659227
20
-1731.720773
30
0
11
-2138.659227
21
-2051.720773
31
0
0
LINE
8
DIMENSION
10
-2738.659227
20
-2051.720773
30
0
11
-2138.659227
21
-2051.720773
31
0
0
LINE
8
DIMENSION
10
-2738.659227
20
-2051.720773
30
0
11
-2802.100773
21
-2022.137494
31
0
0
LINE
8
DIMENSION
10
-2738.659227
20
-2051.720773
30
0
11
-2802.100773
21
-2081.304051
31
0
0
LINE
8
DIMENSION
10
-2138.659227
20
-2051.720773
30
0
11
-2075.217682
21
-2081.304051
31
0
0
LINE
8
DIMENSION
10
-2138.659227
20
-2051.720773
30
0
11
-2075.217682
21
-2022.137494
31
0
0
TEXT
8
DIMENSION
10
-2438.659227
20
-2221.720773
30
0
40
85
1
0.6
50
0
7
STANDARD
72
1
73
2
11
-2438.659227
21
-2221.720773
31
0
0
LINE
8
DIMENSION
10
-2138.659227
20
-1731.720773
30
0
11
-2138.659227
21
-2051.720773
31
0
0
LINE
8
DIMENSION
10
-1671.989227
20
-1731.720773
30
0
11
-1671.989227
21
-2051.720773
31
0
0
LINE
8
DIMENSION
10
-2138.659227
20
-2051.720773
30
0
11
-1671.989227
21
-2051.720773
31
0
0
LINE
8
DIMENSION
10
-2138.659227
20
-2051.720773
30
0
11
-2202.100773
21
-2022.137494
31
0
0
LINE
8
DIMENSION
10
-2138.659227
20
-2051.720773
30
0
11
-2202.100773
21
-2081.304051
31
0
0
LINE
8
DIMENSION
10
-1671.989227
20
-2051.720773
30
0
11
-1608.547682
21
-2081.304051
31
0
0
LINE
8
DIMENSION
10
-1671.989227
20
-2051.720773
30
0
11
-1608.547682
21
-2022.137494
31
0
0
TEXT
8
DIMENSION
10
-1905.324227
20
-2221.720773
30
0
40
85
1
0.467
50
0
7
STANDARD
72
1
73
2
11
-1905.324227
21
-2221.720773
31
0
0
LINE
8
DIMENSION
10
-1671.989227
20
-1731.720773
30
0
11
-1671.989227
21
-2051.720773
31
0
0
LINE
8
DIMENSION
10
-5.319227
20
-1731.720773
30
0
11
-5.319227
21
-2051.720773
31
0
0
LINE
8
DIMENSION
10
-1671.989227
20
-2051.720773
30
0
11
-5.319227
21
-2051.720773
31
0
0
LINE
8
DIMENSION
10
-1671.989227
20
-2051.720773
30
0
11
-1735.430773
21
-2022.137494
31
0
0
LINE
8
DIMENSION
10
-1671.989227
20
-2051.720773
30
0
11
-1735.430773
21
-2081.304051
31
0
0
LINE
8
DIMENSION
10
-5.319227
20
-2051.720773
30
0
11
58.122318
21
-2081.304051
31
0
0
LINE
8
DIMENSION
10
-5.319227
20
-2051.720773
30
0
11
58.122318
21
-2022.137494
31
0
0
TEXT
8
DIMENSION
10
-838.654227
20
-2221.720773
30
0
40
85
1
1.667
50
0
7
STANDARD
72
1
73
2
11
-838.654227
21
-2221.720773
31
0
0
LINE
8
DIMENSION
10
-5.319227
20
-1731.720773
30
0
11
-5.319227
21
-2051.720773
31
0
0
LINE
8
DIMENSION
10
1661.350773
20
-1731.720773
30
0
11
1661.350773
21
-2051.720773
31
0
0
LINE
8
DIMENSION
10
-5.319227
20
-2051.720773
30
0
11
1661.350773
21
-2051.720773
31
0
0
LINE
8
DIMENSION
10
-5.319227
20
-2051.720773
30
0
11
-68.760773
21
-2022.137494
31
0
0
LINE
8
DIMENSION
10
-5.319227
20
-2051.720773
30
0
11
-68.760773
21
-2081.304051
31
0
0
LINE
8
DIMENSION
10
1661.350773
20
-2051.720773
30
0
11
1724.792318
21
-2081.304051
31
0
0
LINE
8
DIMENSION
10
1661.350773
20
-2051.720773
30
0
11
1724.792318
21
-2022.137494
31
0
0
TEXT
8
DIMENSION
10
828.015773
20
-2221.720773
30
0
40
85
1
1.667
50
0
7
STANDARD
72
1
73
2
11
828.015773
21
-2221.720773
31
0
0
LINE
8
DIMENSION
10
-3338.659227
20
-1731.720773
30
0
11
-3338.659227
21
-2421.720773
31
0
0
LINE
8
DIMENSION
10
1661.350773
20
-1731.720773
30
0
11
1661.350773
21
-2421.720773
31
0
0
LINE
8
DIMENSION
10
-3338.659227
20
-2421.720773
30
0
11
1661.350773
21
-2421.720773
31
0
0
LINE
8
DIMENSION
10
-3338.659227
20
-2421.720773
30
0
11
-3402.100773
21
-2392.137494
31
0
0
LINE
8
DIMENSION
10
-3338.659227
20
-2421.720773
30
0
11
-3402.100773
21
-2451.304051
31
0
0
LINE
8
DIMENSION
10
1661.350773
20
-2421.720773
30
0
11
1724.792318
21
-2451.304051
31
0
0
LINE
8
DIMENSION
10
1661.350773
20
-2421.720773
30
0
11
1724.792318
21
-2392.137494
31
0
0
TEXT
8
DIMENSION
10
-838.654227
20
-2591.720773
30
0
40
85
1
TOTAL 5
50
0
7
STANDARD
72
1
73
2
11
-838.654227
21
-2591.720773
31
0
0
LINE
8
DIMENSION
10
1721.350773
20
-1671.720773
30
0
11
2361.350773
21
-1671.720773
31
0
0
LINE
8
DIMENSION
10
1721.350773
20
728.279227
30
0
11
2361.350773
21
728.279227
31
0
0
LINE
8
DIMENSION
10
2361.350773
20
-1671.720773
30
0
11
2361.350773
21
728.279227
31
0
0
LINE
8
DIMENSION
10
2361.350773
20
-1671.720773
30
0
11
2331.767494
21
-1735.162318
31
0
0
LINE
8
DIMENSION
10
2361.350773
20
-1671.720773
30
0
11
2390.934051
21
-1735.162318
31
0
0
LINE
8
DIMENSION
10
2361.350773
20
728.279227
30
0
11
2390.934051
21
791.720773
31
0
0
LINE
8
DIMENSION
10
2361.350773
20
728.279227
30
0
11
2331.767494
21
791.720773
31
0
0
TEXT
8
DIMENSION
10
2531.350773
20
-471.720773
30
0
40
85
1
2.4
50
90
7
STANDARD
72
1
73
2
11
2531.350773
21
-471.720773
31
0
0
LINE
8
DIMENSION
10
1721.350773
20
728.279227
30
0
11
2361.350773
21
728.279227
31
0
0
LINE
8
DIMENSION
10
1721.350773
20
1628.279227
30
0
11
2361.350773
21
1628.279227
31
0
0
LINE
8
DIMENSION
10
2361.350773
20
728.279227
30
0
11
2361.350773
21
1628.279227
31
0
0
LINE
8
DIMENSION
10
2361.350773
20
728.279227
30
0
11
2331.767494
21
664.837682
31
0
0
LINE
8
DIMENSION
10
2361.350773
20
728.279227
30
0
11
2390.934051
21
664.837682
31
0
0
LINE
8
DIMENSION
10
2361.350773
20
1628.279227
30
0
11
2390.934051
21
1691.720773
31
0
0
LINE
8
DIMENSION
10
2361.350773
20
1628.279227
30
0
11
2331.767494
21
1691.720773
31
0
0
TEXT
8
DIMENSION
10
2531.350773
20
1178.279227
30
0
40
85
1
0.9
50
90
7
STANDARD
72
1
73
2
11
2531.350773
21
1178.279227
31
0
0
LINE
8
DIMENSION
10
1721.350773
20
1628.279227
30
0
11
2361.350773
21
1628.279227
31
0
0
LINE
8
DIMENSION
10
1721.350773
20
2528.279227
30
0
11
2361.350773
21
2528.279227
31
0
0
LINE
8
DIMENSION
10
2361.350773
20
1628.279227
30
0
11
2361.350773
21
2528.279227
31
0
0
LINE
8
DIMENSION
10
2361.350773
20
1628.279227
30
0
11
2331.767494
21
1564.837682
31
0
0
LINE
8
DIMENSION
10
2361.350773
20
1628.279227
30
0
11
2390.934051
21
1564.837682
31
0
0
LINE
8
DIMENSION
10
2361.350773
20
2528.279227
30
0
11
2390.934051
21
2591.720773
31
0
0
LINE
8
DIMENSION
10
2361.350773
20
2528.279227
30
0
11
2331.767494
21
2591.720773
31
0
0
TEXT
8
DIMENSION
10
2531.350773
20
2078.279227
30
0
40
85
1
0.9
50
90
7
STANDARD
72
1
73
2
11
2531.350773
21
2078.279227
31
0
0
LINE
8
DIMENSION
10
1721.350773
20
-1671.720773
30
0
11
2811.350773
21
-1671.720773
31
0
0
LINE
8
DIMENSION
10
1721.350773
20
2528.279227
30
0
11
2811.350773
21
2528.279227
31
0
0
LINE
8
DIMENSION
10
2811.350773
20
-1671.720773
30
0
11
2811.350773
21
2528.279227
31
0
0
LINE
8
DIMENSION
10
2811.350773
20
-1671.720773
30
0
11
2781.767494
21
-1735.162318
31
0
0
LINE
8
DIMENSION
10
2811.350773
20
-1671.720773
30
0
11
2840.934051
21
-1735.162318
31
0
0
LINE
8
DIMENSION
10
2811.350773
20
2528.279227
30
0
11
2840.934051
21
2591.720773
31
0
0
LINE
8
DIMENSION
10
2811.350773
20
2528.279227
30
0
11
2781.767494
21
2591.720773
31
0
0
TEXT
8
DIMENSION
10
2981.350773
20
428.279227
30
0
40
85
1
TOTAL 4.2
50
90
7
STANDARD
72
1
73
2
11
2981.350773
21
428.279227
31
0
0
ENDSEC
0
EOF
