0
SECTION
2
HEADER
9
$ACADVER
1
AC1009
9
$INSUNITS
70
4
9
$MEASUREMENT
70
1
9
$LUNITS
70
2
9
$LUPREC
70
1
9
$TILEMODE
70
1
9
$EXTMIN
10
-3355.350773
20
-2491.725773
30
0
9
$EXTMAX
10
3355.350773
20
2491.725773
30
0
9
$PEXTMIN
10
-3355.350773
20
-2491.725773
30
0
9
$PEXTMAX
10
3355.350773
20
2491.725773
30
0
9
$LIMMIN
10
-3855.350773
20
-2991.725773
9
$LIMMAX
10
3855.350773
20
2991.725773
9
$PLIMMIN
10
-3855.350773
20
-2991.725773
9
$PLIMMAX
10
3855.350773
20
2991.725773
0
ENDSEC
0
SECTION
2
TABLES
0
TABLE
2
VPORT
70
1
0
VPORT
2
*ACTIVE
70
0
10
0
20
0
11
1
21
1
12
0
22
0
40
5983.451545
41
1.288671
42
50
43
0
44
0
50
0
51
0
71
0
72
100
73
1
74
3
75
0
76
0
77
0
78
0
0
ENDTAB
0
TABLE
2
LTYPE
70
2
0
LTYPE
2
CONTINUOUS
70
0
3
Solid line
72
65
73
0
40
0
0
LTYPE
2
DASHED
70
0
3
Dashed
72
65
73
2
40
240
49
120
74
0
49
-120
74
0
0
ENDTAB
0
TABLE
2
LAYER
70
6
0
LAYER
2
PIPES
70
0
62
5
6
CONTINUOUS
0
LAYER
2
PIPE_ENDS
70
0
62
5
6
CONTINUOUS
0
LAYER
2
DIMENSION
70
0
62
1
6
CONTINUOUS
0
LAYER
2
LEVEL_GUIDE
70
0
62
1
6
DASHED
0
LAYER
2
LEVEL_TEXT
70
0
62
1
6
CONTINUOUS
0
LAYER
2
FRAME
70
0
62
5
6
CONTINUOUS
0
ENDTAB
0
TABLE
2
STYLE
70
1
0
STYLE
2
STANDARD
70
0
40
0
41
1
50
0
71
0
42
100
3
txt
4

0
ENDTAB
0
ENDSEC
0
SECTION
2
BLOCKS
0
BLOCK
8
0
2
$MODEL_SPACE
70
0
10
0
20
0
30
0
3
$MODEL_SPACE
0
ENDBLK
8
0
0
BLOCK
67
1
8
0
2
$PAPER_SPACE
70
0
10
0
20
0
30
0
3
$PAPER_SPACE
0
ENDBLK
67
1
8
0
0
ENDSEC
0
SECTION
2
ENTITIES
0
LINE
8
PIPES
10
-3291.909227
20
-1571.725773
30
0
11
-3291.909227
21
-571.725773
31
0
0
LINE
8
PIPES
10
-3291.909227
20
-571.725773
30
0
11
-3291.909227
21
428.274227
31
0
0
LINE
8
PIPES
10
-3291.909227
20
428.274227
30
0
11
-3291.909227
21
1428.284227
31
0
0
LINE
8
PIPES
10
-3291.909227
20
1428.284227
30
0
11
-3291.909227
21
2428.284227
31
0
0
LINE
8
PIPES
10
-3291.909227
20
2428.284227
30
0
11
-2291.909227
21
2428.284227
31
0
0
LINE
8
PIPES
10
-2291.909227
20
2428.284227
30
0
11
-2291.909227
21
1428.284227
31
0
0
LINE
8
PIPES
10
-2291.909227
20
1428.284227
30
0
11
-3291.909227
21
1428.284227
31
0
0
LINE
8
PIPES
10
-2291.909227
20
1428.284227
30
0
11
-2291.909227
21
428.274227
31
0
0
LINE
8
PIPES
10
-3291.909227
20
428.274227
30
0
11
-2291.909227
21
428.274227
31
0
0
LINE
8
PIPES
10
-2291.909227
20
428.274227
30
0
11
-2291.909227
21
-571.725773
31
0
0
LINE
8
PIPES
10
-2291.909227
20
-571.725773
30
0
11
-3291.909227
21
-571.725773
31
0
0
LINE
8
PIPES
10
-2291.909227
20
-571.725773
30
0
11
-2291.909227
21
-1571.725773
31
0
0
LINE
8
PIPES
10
-2291.909227
20
-1571.725773
30
0
11
-3291.909227
21
-1571.725773
31
0
0
LINE
8
PIPES
10
-2291.909227
20
-1571.725773
30
0
11
-791.909227
21
-1571.725773
31
0
0
LINE
8
PIPES
10
-791.909227
20
-1571.725773
30
0
11
-791.909227
21
-571.725773
31
0
0
LINE
8
PIPES
10
-791.909227
20
-571.725773
30
0
11
-2291.909227
21
-571.725773
31
0
0
LINE
8
PIPES
10
-791.909227
20
-571.725773
30
0
11
708.100773
21
-571.725773
31
0
0
LINE
8
PIPES
10
708.100773
20
-571.725773
30
0
11
708.100773
21
-1571.725773
31
0
0
LINE
8
PIPES
10
708.100773
20
-1571.725773
30
0
11
-791.909227
21
-1571.725773
31
0
0
LINE
8
PIPES
10
708.100773
20
-1571.725773
30
0
11
1708.100773
21
-1571.725773
31
0
0
LINE
8
PIPES
10
1708.100773
20
-1571.725773
30
0
11
1708.100773
21
-571.725773
31
0
0
LINE
8
PIPES
10
1708.100773
20
-571.725773
30
0
11
708.100773
21
-571.725773
31
0
0
LINE
8
PIPES
10
708.100773
20
-571.725773
30
0
11
708.100773
21
428.274227
31
0
0
LINE
8
PIPES
10
708.100773
20
428.274227
30
0
11
1708.100773
21
428.274227
31
0
0
LINE
8
PIPES
10
1708.100773
20
428.274227
30
0
11
1708.100773
21
1428.284227
31
0
0
LINE
8
PIPES
10
1708.100773
20
1428.284227
30
0
11
1708.100773
21
2428.284227
31
0
0
LINE
8
PIPES
10
1708.100773
20
2428.284227
30
0
11
708.100773
21
2428.284227
31
0
0
LINE
8
PIPES
10
708.100773
20
2428.284227
30
0
11
708.100773
21
1428.284227
31
0
0
LINE
8
PIPES
10
708.100773
20
1428.284227
30
0
11
-791.909227
21
1428.284227
31
0
0
LINE
8
PIPES
10
-791.909227
20
1428.284227
30
0
11
-791.909227
21
2428.284227
31
0
0
LINE
8
PIPES
10
-791.909227
20
2428.284227
30
0
11
708.100773
21
2428.284227
31
0
0
LINE
8
PIPES
10
1708.100773
20
1428.284227
30
0
11
708.100773
21
1428.284227
31
0
0
LINE
8
PIPES
10
708.100773
20
1428.284227
30
0
11
708.100773
21
428.274227
31
0
0
LINE
8
PIPES
10
1708.100773
20
428.274227
30
0
11
1708.100773
21
-571.725773
31
0
0
LINE
8
PIPES
10
-791.909227
20
2428.284227
30
0
11
-2291.909227
21
2428.284227
31
0
0
LINE
8
PIPES
10
-2291.909227
20
1428.284227
30
0
11
-791.909227
21
1428.284227
31
0
0
CIRCLE
8
PIPE_ENDS
10
-3291.909227
20
-1571.725773
30
0
40
32
0
CIRCLE
8
PIPE_ENDS
10
-3291.909227
20
-571.725773
30
0
40
32
0
CIRCLE
8
PIPE_ENDS
10
-3291.909227
20
428.274227
30
0
40
32
0
CIRCLE
8
PIPE_ENDS
10
-3291.909227
20
1428.274227
30
0
40
32
0
CIRCLE
8
PIPE_ENDS
10
-3291.909227
20
2428.274227
30
0
40
32
0
CIRCLE
8
PIPE_ENDS
10
-2291.909227
20
2428.274227
30
0
40
32
0
CIRCLE
8
PIPE_ENDS
10
-2291.909227
20
1428.274227
30
0
40
32
0
CIRCLE
8
PIPE_ENDS
10
-2291.909227
20
428.274227
30
0
40
32
0
CIRCLE
8
PIPE_ENDS
10
-2291.909227
20
-571.725773
30
0
40
32
0
CIRCLE
8
PIPE_ENDS
10
-2291.909227
20
-1571.725773
30
0
40
32
0
CIRCLE
8
PIPE_ENDS
10
-791.909227
20
-1571.725773
30
0
40
32
0
CIRCLE
8
PIPE_ENDS
10
-791.909227
20
-571.725773
30
0
40
32
0
CIRCLE
8
PIPE_ENDS
10
708.090773
20
-571.725773
30
0
40
32
0
CIRCLE
8
PIPE_ENDS
10
708.090773
20
-1571.725773
30
0
40
32
0
CIRCLE
8
PIPE_ENDS
10
1708.090773
20
-1571.725773
30
0
40
32
0
CIRCLE
8
PIPE_ENDS
10
1708.090773
20
-571.725773
30
0
40
32
0
CIRCLE
8
PIPE_ENDS
10
708.090773
20
428.274227
30
0
40
32
0
CIRCLE
8
PIPE_ENDS
10
1708.090773
20
428.274227
30
0
40
32
0
CIRCLE
8
PIPE_ENDS
10
1708.090773
20
1428.274227
30
0
40
32
0
CIRCLE
8
PIPE_ENDS
10
1708.090773
20
2428.274227
30
0
40
32
0
CIRCLE
8
PIPE_ENDS
10
708.090773
20
2428.274227
30
0
40
32
0
CIRCLE
8
PIPE_ENDS
10
708.090773
20
1428.274227
30
0
40
32
0
CIRCLE
8
PIPE_ENDS
10
-791.909227
20
1428.274227
30
0
40
32
0
CIRCLE
8
PIPE_ENDS
10
-791.909227
20
2428.274227
30
0
40
32
0
LINE
8
DIMENSION
10
-3291.909227
20
-1631.725773
30
0
11
-3291.909227
21
-1951.725773
31
0
0
LINE
8
DIMENSION
10
-2291.909227
20
-1631.725773
30
0
11
-2291.909227
21
-1951.725773
31
0
0
LINE
8
DIMENSION
10
-3291.909227
20
-1951.725773
30
0
11
-2291.909227
21
-1951.725773
31
0
0
LINE
8
DIMENSION
10
-3291.909227
20
-1951.725773
30
0
11
-3355.350773
21
-1922.142494
31
0
0
LINE
8
DIMENSION
10
-3291.909227
20
-1951.725773
30
0
11
-3355.350773
21
-1981.309051
31
0
0
LINE
8
DIMENSION
10
-2291.909227
20
-1951.725773
30
0
11
-2228.467682
21
-1981.309051
31
0
0
LINE
8
DIMENSION
10
-2291.909227
20
-1951.725773
30
0
11
-2228.467682
21
-1922.142494
31
0
0
TEXT
8
DIMENSION
10
-2791.909227
20
-2121.725773
30
0
40
85
1
1
50
0
7
STANDARD
72
1
73
2
11
-2791.909227
21
-2121.725773
31
0
0
LINE
8
DIMENSION
10
-2291.909227
20
-1631.725773
30
0
11
-2291.909227
21
-1951.725773
31
0
0
LINE
8
DIMENSION
10
-791.909227
20
-1631.725773
30
0
11
-791.909227
21
-1951.725773
31
0
0
LINE
8
DIMENSION
10
-2291.909227
20
-1951.725773
30
0
11
-791.909227
21
-1951.725773
31
0
0
LINE
8
DIMENSION
10
-2291.909227
20
-1951.725773
30
0
11
-2355.350773
21
-1922.142494
31
0
0
LINE
8
DIMENSION
10
-2291.909227
20
-1951.725773
30
0
11
-2355.350773
21
-1981.309051
31
0
0
LINE
8
DIMENSION
10
-791.909227
20
-1951.725773
30
0
11
-728.467682
21
-1981.309051
31
0
0
LINE
8
DIMENSION
10
-791.909227
20
-1951.725773
30
0
11
-728.467682
21
-1922.142494
31
0
0
TEXT
8
DIMENSION
10
-1541.909227
20
-2121.725773
30
0
40
85
1
1.5
50
0
7
STANDARD
72
1
73
2
11
-1541.909227
21
-2121.725773
31
0
0
LINE
8
DIMENSION
10
-791.909227
20
-1631.725773
30
0
11
-791.909227
21
-1951.725773
31
0
0
LINE
8
DIMENSION
10
708.100773
20
-1631.725773
30
0
11
708.100773
21
-1951.725773
31
0
0
LINE
8
DIMENSION
10
-791.909227
20
-1951.725773
30
0
11
708.100773
21
-1951.725773
31
0
0
LINE
8
DIMENSION
10
-791.909227
20
-1951.725773
30
0
11
-855.350773
21
-1922.142494
31
0
0
LINE
8
DIMENSION
10
-791.909227
20
-1951.725773
30
0
11
-855.350773
21
-1981.309051
31
0
0
LINE
8
DIMENSION
10
708.100773
20
-1951.725773
30
0
11
771.542318
21
-1981.309051
31
0
0
LINE
8
DIMENSION
10
708.100773
20
-1951.725773
30
0
11
771.542318
21
-1922.142494
31
0
0
TEXT
8
DIMENSION
10
-41.904227
20
-2121.725773
30
0
40
85
1
1.5
50
0
7
STANDARD
72
1
73
2
11
-41.904227
21
-2121.725773
31
0
0
LINE
8
DIMENSION
10
708.100773
20
-1631.725773
30
0
11
708.100773
21
-1951.725773
31
0
0
LINE
8
DIMENSION
10
1708.100773
20
-1631.725773
30
0
11
1708.100773
21
-1951.725773
31
0
0
LINE
8
DIMENSION
10
708.100773
20
-1951.725773
30
0
11
1708.100773
21
-1951.725773
31
0
0
LINE
8
DIMENSION
10
708.100773
20
-1951.725773
30
0
11
644.659227
21
-1922.142494
31
0
0
LINE
8
DIMENSION
10
708.100773
20
-1951.725773
30
0
11
644.659227
21
-1981.309051
31
0
0
LINE
8
DIMENSION
10
1708.100773
20
-1951.725773
30
0
11
1771.542318
21
-1981.309051
31
0
0
LINE
8
DIMENSION
10
1708.100773
20
-1951.725773
30
0
11
1771.542318
21
-1922.142494
31
0
0
TEXT
8
DIMENSION
10
1208.100773
20
-2121.725773
30
0
40
85
1
1
50
0
7
STANDARD
72
1
73
2
11
1208.100773
21
-2121.725773
31
0
0
LINE
8
DIMENSION
10
-3291.909227
20
-1631.725773
30
0
11
-3291.909227
21
-2321.725773
31
0
0
LINE
8
DIMENSION
10
1708.100773
20
-1631.725773
30
0
11
1708.100773
21
-2321.725773
31
0
0
LINE
8
DIMENSION
10
-3291.909227
20
-2321.725773
30
0
11
1708.100773
21
-2321.725773
31
0
0
LINE
8
DIMENSION
10
-3291.909227
20
-2321.725773
30
0
11
-3355.350773
21
-2292.142494
31
0
0
LINE
8
DIMENSION
10
-3291.909227
20
-2321.725773
30
0
11
-3355.350773
21
-2351.309051
31
0
0
LINE
8
DIMENSION
10
1708.100773
20
-2321.725773
30
0
11
1771.542318
21
-2351.309051
31
0
0
LINE
8
DIMENSION
10
1708.100773
20
-2321.725773
30
0
11
1771.542318
21
-2292.142494
31
0
0
TEXT
8
DIMENSION
10
-791.904227
20
-2491.725773
30
0
40
85
1
TOTAL 5
50
0
7
STANDARD
72
1
73
2
11
-791.904227
21
-2491.725773
31
0
0
LINE
8
DIMENSION
10
1768.100773
20
-1571.725773
30
0
11
2408.100773
21
-1571.725773
31
0
0
LINE
8
DIMENSION
10
1768.100773
20
-571.725773
30
0
11
2408.100773
21
-571.725773
31
0
0
LINE
8
DIMENSION
10
2408.100773
20
-1571.725773
30
0
11
2408.100773
21
-571.725773
31
0
0
LINE
8
DIMENSION
10
2408.100773
20
-1571.725773
30
0
11
2378.517494
21
-1635.167318
31
0
0
LINE
8
DIMENSION
10
2408.100773
20
-1571.725773
30
0
11
2437.684051
21
-1635.167318
31
0
0
LINE
8
DIMENSION
10
2408.100773
20
-571.725773
30
0
11
2437.684051
21
-508.284227
31
0
0
LINE
8
DIMENSION
10
2408.100773
20
-571.725773
30
0
11
2378.517494
21
-508.284227
31
0
0
TEXT
8
DIMENSION
10
2578.100773
20
-1071.725773
30
0
40
85
1
1
50
90
7
STANDARD
72
1
73
2
11
2578.100773
21
-1071.725773
31
0
0
LINE
8
DIMENSION
10
1768.100773
20
-571.725773
30
0
11
2408.100773
21
-571.725773
31
0
0
LINE
8
DIMENSION
10
1768.100773
20
428.274227
30
0
11
2408.100773
21
428.274227
31
0
0
LINE
8
DIMENSION
10
2408.100773
20
-571.725773
30
0
11
2408.100773
21
428.274227
31
0
0
LINE
8
DIMENSION
10
2408.100773
20
-571.725773
30
0
11
2378.517494
21
-635.167318
31
0
0
LINE
8
DIMENSION
10
2408.100773
20
-571.725773
30
0
11
2437.684051
21
-635.167318
31
0
0
LINE
8
DIMENSION
10
2408.100773
20
428.274227
30
0
11
2437.684051
21
491.715773
31
0
0
LINE
8
DIMENSION
10
2408.100773
20
428.274227
30
0
11
2378.517494
21
491.715773
31
0
0
TEXT
8
DIMENSION
10
2578.100773
20
-71.725773
30
0
40
85
1
1
50
90
7
STANDARD
72
1
73
2
11
2578.100773
21
-71.725773
31
0
0
LINE
8
DIMENSION
10
1768.100773
20
428.274227
30
0
11
2408.100773
21
428.274227
31
0
0
LINE
8
DIMENSION
10
1768.100773
20
1428.284227
30
0
11
2408.100773
21
1428.284227
31
0
0
LINE
8
DIMENSION
10
2408.100773
20
428.274227
30
0
11
2408.100773
21
1428.284227
31
0
0
LINE
8
DIMENSION
10
2408.100773
20
428.274227
30
0
11
2378.517494
21
364.832682
31
0
0
LINE
8
DIMENSION
10
2408.100773
20
428.274227
30
0
11
2437.684051
21
364.832682
31
0
0
LINE
8
DIMENSION
10
2408.100773
20
1428.284227
30
0
11
2437.684051
21
1491.725773
31
0
0
LINE
8
DIMENSION
10
2408.100773
20
1428.284227
30
0
11
2378.517494
21
1491.725773
31
0
0
TEXT
8
DIMENSION
10
2578.100773
20
928.279227
30
0
40
85
1
1
50
90
7
STANDARD
72
1
73
2
11
2578.100773
21
928.279227
31
0
0
LINE
8
DIMENSION
10
1768.100773
20
1428.284227
30
0
11
2408.100773
21
1428.284227
31
0
0
LINE
8
DIMENSION
10
1768.100773
20
2428.284227
30
0
11
2408.100773
21
2428.284227
31
0
0
LINE
8
DIMENSION
10
2408.100773
20
1428.284227
30
0
11
2408.100773
21
2428.284227
31
0
0
LINE
8
DIMENSION
10
2408.100773
20
1428.284227
30
0
11
2378.517494
21
1364.842682
31
0
0
LINE
8
DIMENSION
10
2408.100773
20
1428.284227
30
0
11
2437.684051
21
1364.842682
31
0
0
LINE
8
DIMENSION
10
2408.100773
20
2428.284227
30
0
11
2437.684051
21
2491.725773
31
0
0
LINE
8
DIMENSION
10
2408.100773
20
2428.284227
30
0
11
2378.517494
21
2491.725773
31
0
0
TEXT
8
DIMENSION
10
2578.100773
20
1928.284227
30
0
40
85
1
1
50
90
7
STANDARD
72
1
73
2
11
2578.100773
21
1928.284227
31
0
0
LINE
8
DIMENSION
10
1768.100773
20
-1571.725773
30
0
11
2858.100773
21
-1571.725773
31
0
0
LINE
8
DIMENSION
10
1768.100773
20
2428.284227
30
0
11
2858.100773
21
2428.284227
31
0
0
LINE
8
DIMENSION
10
2858.100773
20
-1571.725773
30
0
11
2858.100773
21
2428.284227
31
0
0
LINE
8
DIMENSION
10
2858.100773
20
-1571.725773
30
0
11
2828.517494
21
-1635.167318
31
0
0
LINE
8
DIMENSION
10
2858.100773
20
-1571.725773
30
0
11
2887.684051
21
-1635.167318
31
0
0
LINE
8
DIMENSION
10
2858.100773
20
2428.284227
30
0
11
2887.684051
21
2491.725773
31
0
0
LINE
8
DIMENSION
10
2858.100773
20
2428.284227
30
0
11
2828.517494
21
2491.725773
31
0
0
TEXT
8
DIMENSION
10
3028.100773
20
428.279227
30
0
40
85
1
TOTAL 4
50
90
7
STANDARD
72
1
73
2
11
3028.100773
21
428.279227
31
0
0
ENDSEC
0
EOF
