0
SECTION
2
HEADER
9
$ACADVER
1
AC1009
9
$INSUNITS
70
4
9
$MEASUREMENT
70
1
9
$LUNITS
70
2
9
$LUPREC
70
1
9
$TILEMODE
70
1
9
$EXTMIN
10
-4302.100773
20
-1591.720773
30
0
9
$EXTMAX
10
4302.100773
20
1591.720773
30
0
9
$PEXTMIN
10
-4302.100773
20
-1591.720773
30
0
9
$PEXTMAX
10
4302.100773
20
1591.720773
30
0
9
$LIMMIN
10
-4802.100773
20
-2091.720773
9
$LIMMAX
10
4802.100773
20
2091.720773
9
$PLIMMIN
10
-4802.100773
20
-2091.720773
9
$PLIMMAX
10
4802.100773
20
2091.720773
0
ENDSEC
0
SECTION
2
TABLES
0
TABLE
2
VPORT
70
1
0
VPORT
2
*ACTIVE
70
0
10
0
20
0
11
1
21
1
12
0
22
0
40
4183.441545
41
2.295766
42
50
43
0
44
0
50
0
51
0
71
0
72
100
73
1
74
3
75
0
76
0
77
0
78
0
0
ENDTAB
0
TABLE
2
LTYPE
70
2
0
LTYPE
2
CONTINUOUS
70
0
3
Solid line
72
65
73
0
40
0
0
LTYPE
2
DASHED
70
0
3
Dashed
72
65
73
2
40
240
49
120
74
0
49
-120
74
0
0
ENDTAB
0
TABLE
2
LAYER
70
6
0
LAYER
2
PIPES
70
0
62
5
6
CONTINUOUS
0
LAYER
2
PIPE_ENDS
70
0
62
5
6
CONTINUOUS
0
LAYER
2
DIMENSION
70
0
62
1
6
CONTINUOUS
0
LAYER
2
LEVEL_GUIDE
70
0
62
1
6
DASHED
0
LAYER
2
LEVEL_TEXT
70
0
62
1
6
CONTINUOUS
0
LAYER
2
FRAME
70
0
62
5
6
CONTINUOUS
0
ENDTAB
0
TABLE
2
STYLE
70
1
0
STYLE
2
STANDARD
70
0
40
0
41
1
50
0
71
0
42
100
3
txt
4

0
ENDTAB
0
ENDSEC
0
SECTION
2
BLOCKS
0
BLOCK
8
0
2
$MODEL_SPACE
70
0
10
0
20
0
30
0
3
$MODEL_SPACE
0
ENDBLK
8
0
0
BLOCK
67
1
8
0
2
$PAPER_SPACE
70
0
10
0
20
0
30
0
3
$PAPER_SPACE
0
ENDBLK
67
1
8
0
0
ENDSEC
0
SECTION
2
ENTITIES
0
LINE
8
PIPES
10
-3238.659227
20
-471.720773
30
0
11
-2738.658227
21
-471.720773
31
0
0
LINE
8
PIPES
10
-1238.659227
20
-471.720773
30
0
11
-238.649227
21
-471.720773
31
0
0
LINE
8
PIPES
10
761.350773
20
-471.720773
30
0
11
761.350773
21
428.281227
31
0
0
LINE
8
PIPES
10
-238.649227
20
1328.279227
30
0
11
761.350773
21
1328.279227
31
0
0
LINE
8
PIPES
10
-2238.659227
20
1328.279227
30
0
11
-1238.659227
21
1328.279227
31
0
0
LINE
8
PIPES
10
-3238.659227
20
1328.279227
30
0
11
-3238.659227
21
728.279227
31
0
0
LINE
8
PIPES
10
-1238.659227
20
-471.720773
30
0
11
-1238.659227
21
428.281227
31
0
0
LINE
8
PIPES
10
-3238.659227
20
728.279227
30
0
11
-3238.659227
21
128.280227
31
0
0
LINE
8
PIPES
10
-3238.659227
20
128.280227
30
0
11
-3238.659227
21
-471.720773
31
0
0
LINE
8
PIPES
10
-2738.658227
20
-471.720773
30
0
11
-2238.659227
21
-471.720773
31
0
0
LINE
8
PIPES
10
-2738.658227
20
1328.279227
30
0
11
-3238.659227
21
1328.279227
31
0
0
LINE
8
PIPES
10
-3238.659227
20
728.279227
30
0
11
-2738.658227
21
728.279227
31
0
0
LINE
8
PIPES
10
-3238.659227
20
128.280227
30
0
11
-2738.658227
21
128.280227
31
0
0
LINE
8
PIPES
10
-2738.658227
20
1328.279227
30
0
11
-2738.658227
21
728.279227
31
0
0
LINE
8
PIPES
10
-2738.658227
20
728.279227
30
0
11
-2738.658227
21
128.280227
31
0
0
LINE
8
PIPES
10
-2738.658227
20
128.280227
30
0
11
-2738.658227
21
-471.720773
31
0
0
LINE
8
PIPES
10
-2238.659227
20
-471.720773
30
0
11
-1238.659227
21
-471.720773
31
0
0
LINE
8
PIPES
10
-2238.659227
20
1328.279227
30
0
11
-2738.658227
21
1328.279227
31
0
0
LINE
8
PIPES
10
-2738.658227
20
728.279227
30
0
11
-2238.659227
21
728.279227
31
0
0
LINE
8
PIPES
10
-2738.658227
20
128.280227
30
0
11
-2238.659227
21
128.280227
31
0
0
LINE
8
PIPES
10
-2238.659227
20
1328.279227
30
0
11
-2238.659227
21
728.279227
31
0
0
LINE
8
PIPES
10
-2238.659227
20
728.279227
30
0
11
-2238.659227
21
128.280227
31
0
0
LINE
8
PIPES
10
-2238.659227
20
128.280227
30
0
11
-2238.659227
21
-471.720773
31
0
0
LINE
8
PIPES
10
-1238.659227
20
428.281227
30
0
11
-1238.659227
21
1328.279227
31
0
0
LINE
8
PIPES
10
761.350773
20
428.281227
30
0
11
761.350773
21
1328.279227
31
0
0
LINE
8
PIPES
10
-238.649227
20
-471.720773
30
0
11
761.350773
21
-471.720773
31
0
0
LINE
8
PIPES
10
-1238.659227
20
1328.279227
30
0
11
-238.649227
21
1328.279227
31
0
0
LINE
8
PIPES
10
-3238.659227
20
-471.720773
30
0
11
-2938.658227
21
-471.720773
31
0
0
LINE
8
PIPES
10
-1238.659227
20
-471.720773
30
0
11
-1138.659227
21
-471.720773
31
0
0
LINE
8
PIPES
10
661.350773
20
1328.279227
30
0
11
761.350773
21
1328.279227
31
0
0
LINE
8
PIPES
10
-1438.659227
20
1328.279227
30
0
11
-1238.659227
21
1328.279227
31
0
0
LINE
8
PIPES
10
-2738.658227
20
-471.720773
30
0
11
-2638.658227
21
-471.720773
31
0
0
LINE
8
PIPES
10
-2938.658227
20
1328.279227
30
0
11
-2738.658227
21
1328.279227
31
0
0
LINE
8
PIPES
10
-2238.659227
20
-471.720773
30
0
11
-2038.659227
21
-471.720773
31
0
0
LINE
8
PIPES
10
-2238.659227
20
1328.279227
30
0
11
-2338.657227
21
1328.279227
31
0
0
LINE
8
PIPES
10
-238.649227
20
-471.720773
30
0
11
61.350773
21
-471.720773
31
0
0
LINE
8
PIPES
10
-538.649227
20
1328.279227
30
0
11
-238.649227
21
1328.279227
31
0
0
LINE
8
PIPES
10
-3238.659227
20
1328.279227
30
0
11
-3238.659227
21
428.281227
31
0
0
LINE
8
PIPES
10
-2238.659227
20
1328.279227
30
0
11
-2238.659227
21
428.281227
31
0
0
LINE
8
PIPES
10
-1238.659227
20
428.281227
30
0
11
-1538.659227
21
428.281227
31
0
0
LINE
8
PIPES
10
-1538.659227
20
428.281227
30
0
11
-1838.659227
21
428.281227
31
0
0
LINE
8
PIPES
10
-1838.659227
20
428.281227
30
0
11
-2138.659227
21
428.281227
31
0
0
LINE
8
PIPES
10
-2138.659227
20
428.281227
30
0
11
-2238.659227
21
428.281227
31
0
0
LINE
8
PIPES
10
-2138.659227
20
428.281227
30
0
11
-2438.657227
21
428.281227
31
0
0
LINE
8
PIPES
10
-2438.657227
20
428.281227
30
0
11
-2738.658227
21
428.281227
31
0
0
LINE
8
PIPES
10
-2738.658227
20
428.281227
30
0
11
-3038.659227
21
428.281227
31
0
0
LINE
8
PIPES
10
-3038.659227
20
428.281227
30
0
11
-3238.659227
21
428.281227
31
0
0
LINE
8
PIPES
10
-3038.659227
20
428.281227
30
0
11
-3338.659227
21
428.281227
31
0
0
LINE
8
PIPES
10
-3338.659227
20
428.281227
30
0
11
-3638.660227
21
428.281227
31
0
0
LINE
8
PIPES
10
-3638.660227
20
428.281227
30
0
11
-3938.660227
21
428.281227
31
0
0
LINE
8
PIPES
10
-3938.660227
20
428.281227
30
0
11
-4238.659227
21
428.281227
31
0
0
LINE
8
PIPES
10
-3238.659227
20
428.281227
30
0
11
-3238.659227
21
-471.720773
31
0
0
LINE
8
PIPES
10
-2238.659227
20
428.281227
30
0
11
-2238.659227
21
-471.720773
31
0
0
LINE
8
PIPES
10
-2238.659227
20
428.281227
30
0
11
-2438.657227
21
428.281227
31
0
0
LINE
8
PIPES
10
-3238.659227
20
428.281227
30
0
11
-3338.659227
21
428.281227
31
0
0
LINE
8
PIPES
10
-2938.658227
20
-471.720773
30
0
11
-2738.658227
21
-471.720773
31
0
0
LINE
8
PIPES
10
-3238.659227
20
1328.279227
30
0
11
-2938.658227
21
1328.279227
31
0
0
LINE
8
PIPES
10
-2638.658227
20
-471.720773
30
0
11
-2338.657227
21
-471.720773
31
0
0
LINE
8
PIPES
10
-2938.658227
20
-471.720773
30
0
11
-2638.658227
21
-471.720773
31
0
0
LINE
8
PIPES
10
-2738.658227
20
1328.279227
30
0
11
-2638.658227
21
1328.279227
31
0
0
LINE
8
PIPES
10
-2938.658227
20
1328.279227
30
0
11
-2638.658227
21
1328.279227
31
0
0
LINE
8
PIPES
10
-2338.657227
20
-471.720773
30
0
11
-2238.659227
21
-471.720773
31
0
0
LINE
8
PIPES
10
-2638.658227
20
1328.279227
30
0
11
-2338.657227
21
1328.279227
31
0
0
LINE
8
PIPES
10
-2038.659227
20
-471.720773
30
0
11
-1738.659227
21
-471.720773
31
0
0
LINE
8
PIPES
10
-2338.657227
20
-471.720773
30
0
11
-2038.659227
21
-471.720773
31
0
0
LINE
8
PIPES
10
-2038.659227
20
1328.279227
30
0
11
-2238.659227
21
1328.279227
31
0
0
LINE
8
PIPES
10
-2338.657227
20
1328.279227
30
0
11
-2038.659227
21
1328.279227
31
0
0
LINE
8
PIPES
10
-1738.659227
20
-471.720773
30
0
11
-1438.659227
21
-471.720773
31
0
0
LINE
8
PIPES
10
-2038.659227
20
1328.279227
30
0
11
-1738.659227
21
1328.279227
31
0
0
LINE
8
PIPES
10
-1438.659227
20
-471.720773
30
0
11
-1238.659227
21
-471.720773
31
0
0
LINE
8
PIPES
10
-1738.659227
20
1328.279227
30
0
11
-1438.659227
21
1328.279227
31
0
0
LINE
8
PIPES
10
-1138.659227
20
-471.720773
30
0
11
-838.659227
21
-471.720773
31
0
0
LINE
8
PIPES
10
-1438.659227
20
-471.720773
30
0
11
-1138.659227
21
-471.720773
31
0
0
LINE
8
PIPES
10
-1238.659227
20
1328.279227
30
0
11
-1138.659227
21
1328.279227
31
0
0
LINE
8
PIPES
10
-1438.659227
20
1328.279227
30
0
11
-1138.659227
21
1328.279227
31
0
0
LINE
8
PIPES
10
-838.659227
20
-471.720773
30
0
11
-538.649227
21
-471.720773
31
0
0
LINE
8
PIPES
10
-1138.659227
20
1328.279227
30
0
11
-838.659227
21
1328.279227
31
0
0
LINE
8
PIPES
10
-538.649227
20
-471.720773
30
0
11
-238.649227
21
-471.720773
31
0
0
LINE
8
PIPES
10
-838.659227
20
1328.279227
30
0
11
-538.649227
21
1328.279227
31
0
0
LINE
8
PIPES
10
61.350773
20
-471.720773
30
0
11
361.350773
21
-471.720773
31
0
0
LINE
8
PIPES
10
-238.649227
20
1328.279227
30
0
11
61.350773
21
1328.279227
31
0
0
LINE
8
PIPES
10
361.350773
20
-471.720773
30
0
11
661.350773
21
-471.720773
31
0
0
LINE
8
PIPES
10
61.350773
20
1328.279227
30
0
11
361.350773
21
1328.279227
31
0
0
LINE
8
PIPES
10
661.350773
20
-471.720773
30
0
11
761.350773
21
-471.720773
31
0
0
LINE
8
PIPES
10
361.350773
20
1328.279227
30
0
11
661.350773
21
1328.279227
31
0
0
LINE
8
PIPES
10
661.350773
20
1328.279227
30
0
11
961.350773
21
1328.279227
31
0
0
LINE
8
PIPES
10
961.350773
20
-471.720773
30
0
11
1261.350773
21
-471.720773
31
0
0
LINE
8
PIPES
10
961.350773
20
1328.279227
30
0
11
1261.350773
21
1328.279227
31
0
0
LINE
8
PIPES
10
1261.350773
20
-471.720773
30
0
11
1561.350773
21
-471.720773
31
0
0
LINE
8
PIPES
10
1261.350773
20
1328.279227
30
0
11
1561.350773
21
1328.279227
31
0
0
LINE
8
PIPES
10
1561.350773
20
-471.720773
30
0
11
1761.350773
21
-471.720773
31
0
0
LINE
8
PIPES
10
1561.350773
20
1328.279227
30
0
11
1761.350773
21
1328.279227
31
0
0
LINE
8
PIPES
10
1561.350773
20
-471.720773
30
0
11
1861.350773
21
-471.720773
31
0
0
LINE
8
PIPES
10
1561.350773
20
1328.279227
30
0
11
1861.350773
21
1328.279227
31
0
0
LINE
8
PIPES
10
1861.350773
20
-471.720773
30
0
11
2161.350773
21
-471.720773
31
0
0
LINE
8
PIPES
10
1861.350773
20
1328.279227
30
0
11
2161.350773
21
1328.279227
31
0
0
LINE
8
PIPES
10
2161.350773
20
-471.720773
30
0
11
2461.350773
21
-471.720773
31
0
0
LINE
8
PIPES
10
2161.350773
20
1328.279227
30
0
11
2461.350773
21
1328.279227
31
0
0
LINE
8
PIPES
10
761.350773
20
1328.279227
30
0
11
961.350773
21
1328.279227
31
0
0
LINE
8
PIPES
10
-3238.659227
20
-471.720773
30
0
11
-2238.659227
21
-471.720773
31
0
0
LINE
8
PIPES
10
-3238.659227
20
1328.279227
30
0
11
-2238.659227
21
1328.279227
31
0
0
LINE
8
PIPES
10
2461.350773
20
-471.720773
30
0
11
2561.350773
21
-471.720773
31
0
0
LINE
8
PIPES
10
2461.350773
20
1328.279227
30
0
11
2561.350773
21
1328.279227
31
0
0
LINE
8
PIPES
10
961.350773
20
-471.720773
30
0
11
961.350773
21
428.279227
31
0
0
LINE
8
PIPES
10
961.350773
20
-471.720773
30
0
11
1761.350773
21
-471.720773
31
0
0
LINE
8
PIPES
10
2561.350773
20
-471.720773
30
0
11
2561.350773
21
428.279227
31
0
0
LINE
8
PIPES
10
1761.350773
20
1328.279227
30
0
11
961.350773
21
1328.279227
31
0
0
LINE
8
PIPES
10
1761.350773
20
1328.279227
30
0
11
2561.350773
21
1328.279227
31
0
0
LINE
8
PIPES
10
1761.350773
20
-471.720773
30
0
11
2561.350773
21
-471.720773
31
0
0
LINE
8
PIPES
10
961.350773
20
428.279227
30
0
11
961.350773
21
1328.279227
31
0
0
LINE
8
PIPES
10
2561.350773
20
428.279227
30
0
11
2561.350773
21
1328.279227
31
0
0
LINE
8
PIPES
10
2561.350773
20
428.279227
30
0
11
1761.350773
21
428.279227
31
0
0
LINE
8
PIPES
10
1761.350773
20
428.279227
30
0
11
1761.350773
21
-471.720773
31
0
0
LINE
8
PIPES
10
1761.350773
20
1328.279227
30
0
11
1861.350773
21
1328.279227
31
0
0
LINE
8
PIPES
10
1761.350773
20
-471.720773
30
0
11
1861.350773
21
-471.720773
31
0
0
LINE
8
PIPES
10
2561.350773
20
-471.720773
30
0
11
2561.350773
21
1328.279227
31
0
0
LINE
8
PIPES
10
961.350773
20
-471.720773
30
0
11
961.350773
21
1328.279227
31
0
0
LINE
8
PIPES
10
1761.350773
20
428.279227
30
0
11
961.350773
21
428.279227
31
0
0
LINE
8
PIPES
10
1761.350773
20
1328.279227
30
0
11
1761.350773
21
428.279227
31
0
0
LINE
8
PIPES
10
961.350773
20
-471.720773
30
0
11
961.350773
21
-271.720773
31
0
0
LINE
8
PIPES
10
961.350773
20
1328.279227
30
0
11
961.350773
21
1528.279227
31
0
0
LINE
8
PIPES
10
2561.350773
20
-471.720773
30
0
11
2561.350773
21
-271.720773
31
0
0
LINE
8
PIPES
10
2561.350773
20
1328.279227
30
0
11
2561.350773
21
1528.279227
31
0
0
LINE
8
PIPES
10
1761.350773
20
1328.279227
30
0
11
1761.350773
21
1528.279227
31
0
0
LINE
8
PIPES
10
1761.350773
20
-471.720773
30
0
11
1761.350773
21
-271.720773
31
0
0
LINE
8
PIPES
10
961.350773
20
428.279227
30
0
11
961.350773
21
628.279227
31
0
0
LINE
8
PIPES
10
2561.350773
20
428.279227
30
0
11
2561.350773
21
628.279227
31
0
0
LINE
8
PIPES
10
1761.350773
20
428.279227
30
0
11
1761.350773
21
628.279227
31
0
0
LINE
8
PIPES
10
961.350773
20
-471.720773
30
0
11
961.350773
21
-671.720773
31
0
0
LINE
8
PIPES
10
961.350773
20
1328.279227
30
0
11
961.350773
21
1128.279227
31
0
0
LINE
8
PIPES
10
2561.350773
20
-471.720773
30
0
11
2561.350773
21
-671.720773
31
0
0
LINE
8
PIPES
10
2561.350773
20
1328.279227
30
0
11
2561.350773
21
1128.279227
31
0
0
LINE
8
PIPES
10
1761.350773
20
1328.279227
30
0
11
1761.350773
21
1128.279227
31
0
0
LINE
8
PIPES
10
1761.350773
20
-471.720773
30
0
11
1761.350773
21
-671.720773
31
0
0
LINE
8
PIPES
10
961.350773
20
428.279227
30
0
11
961.350773
21
228.279227
31
0
0
LINE
8
PIPES
10
2561.350773
20
428.279227
30
0
11
2561.350773
21
228.279227
31
0
0
LINE
8
PIPES
10
1761.350773
20
428.279227
30
0
11
1761.350773
21
228.279227
31
0
0
LINE
8
PIPES
10
-238.649227
20
428.279227
30
0
11
-238.649227
21
-471.720773
31
0
0
LINE
8
PIPES
10
-2238.659227
20
-471.720773
30
0
11
-2238.659227
21
1328.279227
31
0
0
LINE
8
PIPES
10
-1238.659227
20
-471.720773
30
0
11
-1238.659227
21
1328.279227
31
0
0
LINE
8
PIPES
10
-238.649227
20
428.279227
30
0
11
-238.649227
21
1328.279227
31
0
0
LINE
8
PIPES
10
-238.649227
20
-471.720773
30
0
11
-238.649227
21
1328.279227
31
0
0
LINE
8
PIPES
10
761.350773
20
-471.720773
30
0
11
761.350773
21
1328.279227
31
0
0
LINE
8
PIPES
10
-238.649227
20
-471.720773
30
0
11
761.350773
21
1328.279227
31
0
0
LINE
8
PIPES
10
-1238.659227
20
1328.279227
30
0
11
-238.649227
21
-471.720773
31
0
0
LINE
8
PIPES
10
-2238.659227
20
-471.720773
30
0
11
-1238.659227
21
1328.279227
31
0
0
LINE
8
PIPES
10
-2238.659227
20
-471.720773
30
0
11
-3238.659227
21
1328.279227
31
0
0
LINE
8
PIPES
10
761.350773
20
-471.720773
30
0
11
961.350773
21
-471.720773
31
0
0
LINE
8
PIPES
10
2561.350773
20
-471.720773
30
0
11
961.350773
21
1328.279227
31
0
0
LINE
8
PIPES
10
761.350773
20
-471.720773
30
0
11
2561.350773
21
-471.720773
31
0
0
LINE
8
PIPES
10
761.350773
20
1328.279227
30
0
11
2561.350773
21
1328.279227
31
0
0
LINE
8
PIPES
10
-2238.659227
20
128.280227
30
0
11
-3238.659227
21
128.280227
31
0
0
LINE
8
PIPES
10
-3238.659227
20
728.279227
30
0
11
-2238.659227
21
728.279227
31
0
0
LINE
8
PIPES
10
-3238.659227
20
1328.279227
30
0
11
-3238.659227
21
-471.720773
31
0
0
LINE
8
PIPES
10
-3238.659227
20
-471.720773
30
0
11
-2238.659227
21
128.280227
31
0
0
LINE
8
PIPES
10
-2238.659227
20
128.280227
30
0
11
-3238.659227
21
728.279227
31
0
0
LINE
8
PIPES
10
-3238.659227
20
728.279227
30
0
11
-2238.659227
21
1328.279227
31
0
0
LINE
8
PIPES
10
-2238.659227
20
-471.720773
30
0
11
-3238.659227
21
128.280227
31
0
0
LINE
8
PIPES
10
-3238.659227
20
128.280227
30
0
11
-2238.659227
21
728.279227
31
0
0
LINE
8
PIPES
10
-2238.659227
20
728.279227
30
0
11
-3238.659227
21
1328.279227
31
0
0
CIRCLE
8
PIPE_ENDS
10
-3238.659227
20
-471.720773
30
0
40
32
0
CIRCLE
8
PIPE_ENDS
10
-1238.659227
20
-471.720773
30
0
40
32
0
CIRCLE
8
PIPE_ENDS
10
761.340773
20
-471.720773
30
0
40
32
0
CIRCLE
8
PIPE_ENDS
10
761.340773
20
1328.279227
30
0
40
32
0
CIRCLE
8
PIPE_ENDS
10
-1238.659227
20
1328.279227
30
0
40
32
0
CIRCLE
8
PIPE_ENDS
10
-3238.659227
20
1328.279227
30
0
40
32
0
CIRCLE
8
PIPE_ENDS
10
-3238.659227
20
728.279227
30
0
40
32
0
CIRCLE
8
PIPE_ENDS
10
-3238.659227
20
128.279227
30
0
40
32
0
CIRCLE
8
PIPE_ENDS
10
-2738.659227
20
-471.720773
30
0
40
32
0
CIRCLE
8
PIPE_ENDS
10
-2738.659227
20
1328.279227
30
0
40
32
0
CIRCLE
8
PIPE_ENDS
10
-2738.659227
20
728.279227
30
0
40
32
0
CIRCLE
8
PIPE_ENDS
10
-2738.659227
20
128.279227
30
0
40
32
0
CIRCLE
8
PIPE_ENDS
10
-2238.659227
20
-471.720773
30
0
40
32
0
CIRCLE
8
PIPE_ENDS
10
-2238.659227
20
1328.279227
30
0
40
32
0
CIRCLE
8
PIPE_ENDS
10
-2238.659227
20
728.279227
30
0
40
32
0
CIRCLE
8
PIPE_ENDS
10
-2238.659227
20
128.279227
30
0
40
32
0
CIRCLE
8
PIPE_ENDS
10
-1238.659227
20
428.279227
30
0
40
32
0
CIRCLE
8
PIPE_ENDS
10
761.340773
20
428.279227
30
0
40
32
0
CIRCLE
8
PIPE_ENDS
10
-238.659227
20
-471.720773
30
0
40
32
0
CIRCLE
8
PIPE_ENDS
10
-238.659227
20
1328.279227
30
0
40
32
0
CIRCLE
8
PIPE_ENDS
10
-1538.659227
20
428.279227
30
0
40
25
0
CIRCLE
8
PIPE_ENDS
10
-1838.659227
20
428.279227
30
0
40
25
0
CIRCLE
8
PIPE_ENDS
10
-2138.659227
20
428.279227
30
0
40
25
0
CIRCLE
8
PIPE_ENDS
10
-2438.659227
20
428.279227
30
0
40
25
0
CIRCLE
8
PIPE_ENDS
10
-2738.659227
20
428.279227
30
0
40
25
0
CIRCLE
8
PIPE_ENDS
10
-3038.659227
20
428.279227
30
0
40
25
0
CIRCLE
8
PIPE_ENDS
10
-3338.659227
20
428.279227
30
0
40
25
0
CIRCLE
8
PIPE_ENDS
10
-3638.659227
20
428.279227
30
0
40
25
0
CIRCLE
8
PIPE_ENDS
10
-3938.659227
20
428.279227
30
0
40
25
0
CIRCLE
8
PIPE_ENDS
10
-4238.659227
20
428.279227
30
0
40
32
0
CIRCLE
8
PIPE_ENDS
10
-2938.659227
20
-471.720773
30
0
40
25
0
CIRCLE
8
PIPE_ENDS
10
-2938.659227
20
1328.279227
30
0
40
25
0
CIRCLE
8
PIPE_ENDS
10
-2638.659227
20
-471.720773
30
0
40
25
0
CIRCLE
8
PIPE_ENDS
10
-2638.659227
20
1328.279227
30
0
40
25
0
CIRCLE
8
PIPE_ENDS
10
-2338.659227
20
-471.720773
30
0
40
25
0
CIRCLE
8
PIPE_ENDS
10
-2338.659227
20
1328.279227
30
0
40
25
0
CIRCLE
8
PIPE_ENDS
10
-2038.659227
20
-471.720773
30
0
40
25
0
CIRCLE
8
PIPE_ENDS
10
-2038.659227
20
1328.279227
30
0
40
25
0
CIRCLE
8
PIPE_ENDS
10
-1738.659227
20
-471.720773
30
0
40
25
0
CIRCLE
8
PIPE_ENDS
10
-1738.659227
20
1328.279227
30
0
40
25
0
CIRCLE
8
PIPE_ENDS
10
-1438.659227
20
-471.720773
30
0
40
25
0
CIRCLE
8
PIPE_ENDS
10
-1438.659227
20
1328.279227
30
0
40
25
0
CIRCLE
8
PIPE_ENDS
10
-1138.659227
20
-471.720773
30
0
40
25
0
CIRCLE
8
PIPE_ENDS
10
-1138.659227
20
1328.279227
30
0
40
25
0
CIRCLE
8
PIPE_ENDS
10
-838.659227
20
-471.720773
30
0
40
25
0
CIRCLE
8
PIPE_ENDS
10
-838.659227
20
1328.279227
30
0
40
25
0
CIRCLE
8
PIPE_ENDS
10
-538.659227
20
-471.720773
30
0
40
25
0
CIRCLE
8
PIPE_ENDS
10
-538.659227
20
1328.279227
30
0
40
25
0
CIRCLE
8
PIPE_ENDS
10
61.340773
20
-471.720773
30
0
40
25
0
CIRCLE
8
PIPE_ENDS
10
61.340773
20
1328.279227
30
0
40
25
0
CIRCLE
8
PIPE_ENDS
10
361.340773
20
-471.720773
30
0
40
25
0
CIRCLE
8
PIPE_ENDS
10
361.340773
20
1328.279227
30
0
40
25
0
CIRCLE
8
PIPE_ENDS
10
961.340773
20
-471.720773
30
0
40
32
0
CIRCLE
8
PIPE_ENDS
10
961.340773
20
1328.279227
30
0
40
32
0
CIRCLE
8
PIPE_ENDS
10
1261.340773
20
-471.720773
30
0
40
25
0
CIRCLE
8
PIPE_ENDS
10
1261.340773
20
1328.279227
30
0
40
25
0
CIRCLE
8
PIPE_ENDS
10
1561.340773
20
-471.720773
30
0
40
25
0
CIRCLE
8
PIPE_ENDS
10
1561.340773
20
1328.279227
30
0
40
25
0
CIRCLE
8
PIPE_ENDS
10
1861.340773
20
-471.720773
30
0
40
25
0
CIRCLE
8
PIPE_ENDS
10
1861.340773
20
1328.279227
30
0
40
25
0
CIRCLE
8
PIPE_ENDS
10
2161.340773
20
-471.720773
30
0
40
25
0
CIRCLE
8
PIPE_ENDS
10
2161.340773
20
1328.279227
30
0
40
25
0
CIRCLE
8
PIPE_ENDS
10
2461.340773
20
-471.720773
30
0
40
25
0
CIRCLE
8
PIPE_ENDS
10
2461.340773
20
1328.279227
30
0
40
25
0
CIRCLE
8
PIPE_ENDS
10
2561.340773
20
-471.720773
30
0
40
32
0
CIRCLE
8
PIPE_ENDS
10
2561.340773
20
1328.279227
30
0
40
32
0
CIRCLE
8
PIPE_ENDS
10
1761.340773
20
1328.279227
30
0
40
32
0
CIRCLE
8
PIPE_ENDS
10
1761.340773
20
-471.720773
30
0
40
32
0
CIRCLE
8
PIPE_ENDS
10
961.340773
20
428.279227
30
0
40
32
0
CIRCLE
8
PIPE_ENDS
10
2561.340773
20
428.279227
30
0
40
32
0
CIRCLE
8
PIPE_ENDS
10
1761.340773
20
428.279227
30
0
40
25
0
CIRCLE
8
PIPE_ENDS
10
-238.659227
20
428.279227
30
0
40
32
0
CIRCLE
8
PIPE_ENDS
10
661.340773
20
-471.720773
30
0
40
25
0
CIRCLE
8
PIPE_ENDS
10
661.340773
20
1328.279227
30
0
40
25
0
LINE
8
DIMENSION
10
-4238.659227
20
-731.720773
30
0
11
-4238.659227
21
-1051.720773
31
0
0
LINE
8
DIMENSION
10
-3238.659227
20
-731.720773
30
0
11
-3238.659227
21
-1051.720773
31
0
0
LINE
8
DIMENSION
10
-4238.659227
20
-1051.720773
30
0
11
-3238.659227
21
-1051.720773
31
0
0
LINE
8
DIMENSION
10
-4238.659227
20
-1051.720773
30
0
11
-4302.100773
21
-1022.137494
31
0
0
LINE
8
DIMENSION
10
-4238.659227
20
-1051.720773
30
0
11
-4302.100773
21
-1081.304051
31
0
0
LINE
8
DIMENSION
10
-3238.659227
20
-1051.720773
30
0
11
-3175.217682
21
-1081.304051
31
0
0
LINE
8
DIMENSION
10
-3238.659227
20
-1051.720773
30
0
11
-3175.217682
21
-1022.137494
31
0
0
TEXT
8
DIMENSION
10
-3738.659227
20
-1221.720773
30
0
40
85
1
1
50
0
7
STANDARD
72
1
73
2
11
-3738.659227
21
-1221.720773
31
0
0
LINE
8
DIMENSION
10
-3238.659227
20
-731.720773
30
0
11
-3238.659227
21
-1051.720773
31
0
0
LINE
8
DIMENSION
10
-2738.659227
20
-731.720773
30
0
11
-2738.659227
21
-1051.720773
31
0
0
LINE
8
DIMENSION
10
-3238.659227
20
-1051.720773
30
0
11
-2738.659227
21
-1051.720773
31
0
0
LINE
8
DIMENSION
10
-3238.659227
20
-1051.720773
30
0
11
-3302.100773
21
-1022.137494
31
0
0
LINE
8
DIMENSION
10
-3238.659227
20
-1051.720773
30
0
11
-3302.100773
21
-1081.304051
31
0
0
LINE
8
DIMENSION
10
-2738.659227
20
-1051.720773
30
0
11
-2675.217682
21
-1081.304051
31
0
0
LINE
8
DIMENSION
10
-2738.659227
20
-1051.720773
30
0
11
-2675.217682
21
-1022.137494
31
0
0
TEXT
8
DIMENSION
10
-2988.659227
20
-1221.720773
30
0
40
85
1
0.5
50
0
7
STANDARD
72
1
73
2
11
-2988.659227
21
-1221.720773
31
0
0
LINE
8
DIMENSION
10
-2738.659227
20
-731.720773
30
0
11
-2738.659227
21
-1051.720773
31
0
0
LINE
8
DIMENSION
10
-2238.659227
20
-731.720773
30
0
11
-2238.659227
21
-1051.720773
31
0
0
LINE
8
DIMENSION
10
-2738.659227
20
-1051.720773
30
0
11
-2238.659227
21
-1051.720773
31
0
0
LINE
8
DIMENSION
10
-2738.659227
20
-1051.720773
30
0
11
-2802.100773
21
-1022.137494
31
0
0
LINE
8
DIMENSION
10
-2738.659227
20
-1051.720773
30
0
11
-2802.100773
21
-1081.304051
31
0
0
LINE
8
DIMENSION
10
-2238.659227
20
-1051.720773
30
0
11
-2175.217682
21
-1081.304051
31
0
0
LINE
8
DIMENSION
10
-2238.659227
20
-1051.720773
30
0
11
-2175.217682
21
-1022.137494
31
0
0
TEXT
8
DIMENSION
10
-2488.659227
20
-1221.720773
30
0
40
85
1
0.5
50
0
7
STANDARD
72
1
73
2
11
-2488.659227
21
-1221.720773
31
0
0
LINE
8
DIMENSION
10
-2238.659227
20
-731.720773
30
0
11
-2238.659227
21
-1051.720773
31
0
0
LINE
8
DIMENSION
10
-1238.659227
20
-731.720773
30
0
11
-1238.659227
21
-1051.720773
31
0
0
LINE
8
DIMENSION
10
-2238.659227
20
-1051.720773
30
0
11
-1238.659227
21
-1051.720773
31
0
0
LINE
8
DIMENSION
10
-2238.659227
20
-1051.720773
30
0
11
-2302.100773
21
-1022.137494
31
0
0
LINE
8
DIMENSION
10
-2238.659227
20
-1051.720773
30
0
11
-2302.100773
21
-1081.304051
31
0
0
LINE
8
DIMENSION
10
-1238.659227
20
-1051.720773
30
0
11
-1175.217682
21
-1081.304051
31
0
0
LINE
8
DIMENSION
10
-1238.659227
20
-1051.720773
30
0
11
-1175.217682
21
-1022.137494
31
0
0
TEXT
8
DIMENSION
10
-1738.659227
20
-1221.720773
30
0
40
85
1
1
50
0
7
STANDARD
72
1
73
2
11
-1738.659227
21
-1221.720773
31
0
0
LINE
8
DIMENSION
10
-1238.659227
20
-731.720773
30
0
11
-1238.659227
21
-1051.720773
31
0
0
LINE
8
DIMENSION
10
-238.649227
20
-731.720773
30
0
11
-238.649227
21
-1051.720773
31
0
0
LINE
8
DIMENSION
10
-1238.659227
20
-1051.720773
30
0
11
-238.649227
21
-1051.720773
31
0
0
LINE
8
DIMENSION
10
-1238.659227
20
-1051.720773
30
0
11
-1302.100773
21
-1022.137494
31
0
0
LINE
8
DIMENSION
10
-1238.659227
20
-1051.720773
30
0
11
-1302.100773
21
-1081.304051
31
0
0
LINE
8
DIMENSION
10
-238.649227
20
-1051.720773
30
0
11
-175.207682
21
-1081.304051
31
0
0
LINE
8
DIMENSION
10
-238.649227
20
-1051.720773
30
0
11
-175.207682
21
-1022.137494
31
0
0
TEXT
8
DIMENSION
10
-738.654227
20
-1221.720773
30
0
40
85
1
1
50
0
7
STANDARD
72
1
73
2
11
-738.654227
21
-1221.720773
31
0
0
LINE
8
DIMENSION
10
-238.649227
20
-731.720773
30
0
11
-238.649227
21
-1051.720773
31
0
0
LINE
8
DIMENSION
10
961.350773
20
-731.720773
30
0
11
961.350773
21
-1051.720773
31
0
0
LINE
8
DIMENSION
10
-238.649227
20
-1051.720773
30
0
11
961.350773
21
-1051.720773
31
0
0
LINE
8
DIMENSION
10
-238.649227
20
-1051.720773
30
0
11
-302.090773
21
-1022.137494
31
0
0
LINE
8
DIMENSION
10
-238.649227
20
-1051.720773
30
0
11
-302.090773
21
-1081.304051
31
0
0
LINE
8
DIMENSION
10
961.350773
20
-1051.720773
30
0
11
1024.792318
21
-1081.304051
31
0
0
LINE
8
DIMENSION
10
961.350773
20
-1051.720773
30
0
11
1024.792318
21
-1022.137494
31
0
0
TEXT
8
DIMENSION
10
361.350773
20
-1221.720773
30
0
40
85
1
1.2
50
0
7
STANDARD
72
1
73
2
11
361.350773
21
-1221.720773
31
0
0
LINE
8
DIMENSION
10
961.350773
20
-731.720773
30
0
11
961.350773
21
-1051.720773
31
0
0
LINE
8
DIMENSION
10
1761.350773
20
-731.720773
30
0
11
1761.350773
21
-1051.720773
31
0
0
LINE
8
DIMENSION
10
961.350773
20
-1051.720773
30
0
11
1761.350773
21
-1051.720773
31
0
0
LINE
8
DIMENSION
10
961.350773
20
-1051.720773
30
0
11
897.909227
21
-1022.137494
31
0
0
LINE
8
DIMENSION
10
961.350773
20
-1051.720773
30
0
11
897.909227
21
-1081.304051
31
0
0
LINE
8
DIMENSION
10
1761.350773
20
-1051.720773
30
0
11
1824.792318
21
-1081.304051
31
0
0
LINE
8
DIMENSION
10
1761.350773
20
-1051.720773
30
0
11
1824.792318
21
-1022.137494
31
0
0
TEXT
8
DIMENSION
10
1361.350773
20
-1221.720773
30
0
40
85
1
0.8
50
0
7
STANDARD
72
1
73
2
11
1361.350773
21
-1221.720773
31
0
0
LINE
8
DIMENSION
10
1761.350773
20
-731.720773
30
0
11
1761.350773
21
-1051.720773
31
0
0
LINE
8
DIMENSION
10
2561.350773
20
-731.720773
30
0
11
2561.350773
21
-1051.720773
31
0
0
LINE
8
DIMENSION
10
1761.350773
20
-1051.720773
30
0
11
2561.350773
21
-1051.720773
31
0
0
LINE
8
DIMENSION
10
1761.350773
20
-1051.720773
30
0
11
1697.909227
21
-1022.137494
31
0
0
LINE
8
DIMENSION
10
1761.350773
20
-1051.720773
30
0
11
1697.909227
21
-1081.304051
31
0
0
LINE
8
DIMENSION
10
2561.350773
20
-1051.720773
30
0
11
2624.792318
21
-1081.304051
31
0
0
LINE
8
DIMENSION
10
2561.350773
20
-1051.720773
30
0
11
2624.792318
21
-1022.137494
31
0
0
TEXT
8
DIMENSION
10
2161.350773
20
-1221.720773
30
0
40
85
1
0.8
50
0
7
STANDARD
72
1
73
2
11
2161.350773
21
-1221.720773
31
0
0
LINE
8
DIMENSION
10
-4238.659227
20
-731.720773
30
0
11
-4238.659227
21
-1421.720773
31
0
0
LINE
8
DIMENSION
10
2561.350773
20
-731.720773
30
0
11
2561.350773
21
-1421.720773
31
0
0
LINE
8
DIMENSION
10
-4238.659227
20
-1421.720773
30
0
11
2561.350773
21
-1421.720773
31
0
0
LINE
8
DIMENSION
10
-4238.659227
20
-1421.720773
30
0
11
-4302.100773
21
-1392.137494
31
0
0
LINE
8
DIMENSION
10
-4238.659227
20
-1421.720773
30
0
11
-4302.100773
21
-1451.304051
31
0
0
LINE
8
DIMENSION
10
2561.350773
20
-1421.720773
30
0
11
2624.792318
21
-1451.304051
31
0
0
LINE
8
DIMENSION
10
2561.350773
20
-1421.720773
30
0
11
2624.792318
21
-1392.137494
31
0
0
TEXT
8
DIMENSION
10
-838.654227
20
-1591.720773
30
0
40
85
1
TOTAL 6.8
50
0
7
STANDARD
72
1
73
2
11
-838.654227
21
-1591.720773
31
0
0
LINE
8
DIMENSION
10
2621.350773
20
-671.720773
30
0
11
3261.350773
21
-671.720773
31
0
0
LINE
8
DIMENSION
10
2621.350773
20
-471.720773
30
0
11
3261.350773
21
-471.720773
31
0
0
LINE
8
DIMENSION
10
3261.350773
20
-671.720773
30
0
11
3261.350773
21
-471.720773
31
0
0
LINE
8
DIMENSION
10
3261.350773
20
-671.720773
30
0
11
3231.767494
21
-735.162318
31
0
0
LINE
8
DIMENSION
10
3261.350773
20
-671.720773
30
0
11
3290.934051
21
-735.162318
31
0
0
LINE
8
DIMENSION
10
3261.350773
20
-471.720773
30
0
11
3290.934051
21
-408.279227
31
0
0
LINE
8
DIMENSION
10
3261.350773
20
-471.720773
30
0
11
3231.767494
21
-408.279227
31
0
0
TEXT
8
DIMENSION
10
3431.350773
20
-571.720773
30
0
40
85
1
0.2
50
90
7
STANDARD
72
1
73
2
11
3431.350773
21
-571.720773
31
0
0
LINE
8
DIMENSION
10
2621.350773
20
-471.720773
30
0
11
3261.350773
21
-471.720773
31
0
0
LINE
8
DIMENSION
10
2621.350773
20
-271.720773
30
0
11
3261.350773
21
-271.720773
31
0
0
LINE
8
DIMENSION
10
3261.350773
20
-471.720773
30
0
11
3261.350773
21
-271.720773
31
0
0
LINE
8
DIMENSION
10
3261.350773
20
-471.720773
30
0
11
3231.767494
21
-535.162318
31
0
0
LINE
8
DIMENSION
10
3261.350773
20
-471.720773
30
0
11
3290.934051
21
-535.162318
31
0
0
LINE
8
DIMENSION
10
3261.350773
20
-271.720773
30
0
11
3290.934051
21
-208.279227
31
0
0
LINE
8
DIMENSION
10
3261.350773
20
-271.720773
30
0
11
3231.767494
21
-208.279227
31
0
0
TEXT
8
DIMENSION
10
3431.350773
20
-371.720773
30
0
40
85
1
0.2
50
90
7
STANDARD
72
1
73
2
11
3431.350773
21
-371.720773
31
0
0
LINE
8
DIMENSION
10
2621.350773
20
-271.720773
30
0
11
3261.350773
21
-271.720773
31
0
0
LINE
8
DIMENSION
10
2621.350773
20
128.279227
30
0
11
3261.350773
21
128.279227
31
0
0
LINE
8
DIMENSION
10
3261.350773
20
-271.720773
30
0
11
3261.350773
21
128.279227
31
0
0
LINE
8
DIMENSION
10
3261.350773
20
-271.720773
30
0
11
3231.767494
21
-335.162318
31
0
0
LINE
8
DIMENSION
10
3261.350773
20
-271.720773
30
0
11
3290.934051
21
-335.162318
31
0
0
LINE
8
DIMENSION
10
3261.350773
20
128.279227
30
0
11
3290.934051
21
191.720773
31
0
0
LINE
8
DIMENSION
10
3261.350773
20
128.279227
30
0
11
3231.767494
21
191.720773
31
0
0
TEXT
8
DIMENSION
10
3431.350773
20
-71.720773
30
0
40
85
1
0.4
50
90
7
STANDARD
72
1
73
2
11
3431.350773
21
-71.720773
31
0
0
LINE
8
DIMENSION
10
2621.350773
20
128.279227
30
0
11
3261.350773
21
128.279227
31
0
0
LINE
8
DIMENSION
10
2621.350773
20
228.279227
30
0
11
3261.350773
21
228.279227
31
0
0
LINE
8
DIMENSION
10
3261.350773
20
128.279227
30
0
11
3261.350773
21
228.279227
31
0
0
LINE
8
DIMENSION
10
3261.350773
20
128.279227
30
0
11
3231.767494
21
64.837682
31
0
0
LINE
8
DIMENSION
10
3261.350773
20
128.279227
30
0
11
3290.934051
21
64.837682
31
0
0
LINE
8
DIMENSION
10
3261.350773
20
228.279227
30
0
11
3290.934051
21
291.720773
31
0
0
LINE
8
DIMENSION
10
3261.350773
20
228.279227
30
0
11
3231.767494
21
291.720773
31
0
0
TEXT
8
DIMENSION
10
3431.350773
20
178.279227
30
0
40
85
1
0.1
50
90
7
STANDARD
72
1
73
2
11
3431.350773
21
178.279227
31
0
0
LINE
8
DIMENSION
10
2621.350773
20
228.279227
30
0
11
3261.350773
21
228.279227
31
0
0
LINE
8
DIMENSION
10
2621.350773
20
428.279227
30
0
11
3261.350773
21
428.279227
31
0
0
LINE
8
DIMENSION
10
3261.350773
20
228.279227
30
0
11
3261.350773
21
428.279227
31
0
0
LINE
8
DIMENSION
10
3261.350773
20
228.279227
30
0
11
3231.767494
21
164.837682
31
0
0
LINE
8
DIMENSION
10
3261.350773
20
228.279227
30
0
11
3290.934051
21
164.837682
31
0
0
LINE
8
DIMENSION
10
3261.350773
20
428.279227
30
0
11
3290.934051
21
491.720773
31
0
0
LINE
8
DIMENSION
10
3261.350773
20
428.279227
30
0
11
3231.767494
21
491.720773
31
0
0
TEXT
8
DIMENSION
10
3431.350773
20
328.279227
30
0
40
85
1
0.2
50
90
7
STANDARD
72
1
73
2
11
3431.350773
21
328.279227
31
0
0
LINE
8
DIMENSION
10
2621.350773
20
428.279227
30
0
11
3261.350773
21
428.279227
31
0
0
LINE
8
DIMENSION
10
2621.350773
20
628.279227
30
0
11
3261.350773
21
628.279227
31
0
0
LINE
8
DIMENSION
10
3261.350773
20
428.279227
30
0
11
3261.350773
21
628.279227
31
0
0
LINE
8
DIMENSION
10
3261.350773
20
428.279227
30
0
11
3231.767494
21
364.837682
31
0
0
LINE
8
DIMENSION
10
3261.350773
20
428.279227
30
0
11
3290.934051
21
364.837682
31
0
0
LINE
8
DIMENSION
10
3261.350773
20
628.279227
30
0
11
3290.934051
21
691.720773
31
0
0
LINE
8
DIMENSION
10
3261.350773
20
628.279227
30
0
11
3231.767494
21
691.720773
31
0
0
TEXT
8
DIMENSION
10
3431.350773
20
528.279227
30
0
40
85
1
0.2
50
90
7
STANDARD
72
1
73
2
11
3431.350773
21
528.279227
31
0
0
LINE
8
DIMENSION
10
2621.350773
20
628.279227
30
0
11
3261.350773
21
628.279227
31
0
0
LINE
8
DIMENSION
10
2621.350773
20
728.279227
30
0
11
3261.350773
21
728.279227
31
0
0
LINE
8
DIMENSION
10
3261.350773
20
628.279227
30
0
11
3261.350773
21
728.279227
31
0
0
LINE
8
DIMENSION
10
3261.350773
20
628.279227
30
0
11
3231.767494
21
564.837682
31
0
0
LINE
8
DIMENSION
10
3261.350773
20
628.279227
30
0
11
3290.934051
21
564.837682
31
0
0
LINE
8
DIMENSION
10
3261.350773
20
728.279227
30
0
11
3290.934051
21
791.720773
31
0
0
LINE
8
DIMENSION
10
3261.350773
20
728.279227
30
0
11
3231.767494
21
791.720773
31
0
0
TEXT
8
DIMENSION
10
3431.350773
20
678.279227
30
0
40
85
1
0.1
50
90
7
STANDARD
72
1
73
2
11
3431.350773
21
678.279227
31
0
0
LINE
8
DIMENSION
10
2621.350773
20
728.279227
30
0
11
3261.350773
21
728.279227
31
0
0
LINE
8
DIMENSION
10
2621.350773
20
1128.279227
30
0
11
3261.350773
21
1128.279227
31
0
0
LINE
8
DIMENSION
10
3261.350773
20
728.279227
30
0
11
3261.350773
21
1128.279227
31
0
0
LINE
8
DIMENSION
10
3261.350773
20
728.279227
30
0
11
3231.767494
21
664.837682
31
0
0
LINE
8
DIMENSION
10
3261.350773
20
728.279227
30
0
11
3290.934051
21
664.837682
31
0
0
LINE
8
DIMENSION
10
3261.350773
20
1128.279227
30
0
11
3290.934051
21
1191.720773
31
0
0
LINE
8
DIMENSION
10
3261.350773
20
1128.279227
30
0
11
3231.767494
21
1191.720773
31
0
0
TEXT
8
DIMENSION
10
3431.350773
20
928.279227
30
0
40
85
1
0.4
50
90
7
STANDARD
72
1
73
2
11
3431.350773
21
928.279227
31
0
0
LINE
8
DIMENSION
10
2621.350773
20
1128.279227
30
0
11
3261.350773
21
1128.279227
31
0
0
LINE
8
DIMENSION
10
2621.350773
20
1328.279227
30
0
11
3261.350773
21
1328.279227
31
0
0
LINE
8
DIMENSION
10
3261.350773
20
1128.279227
30
0
11
3261.350773
21
1328.279227
31
0
0
LINE
8
DIMENSION
10
3261.350773
20
1128.279227
30
0
11
3231.767494
21
1064.837682
31
0
0
LINE
8
DIMENSION
10
3261.350773
20
1128.279227
30
0
11
3290.934051
21
1064.837682
31
0
0
LINE
8
DIMENSION
10
3261.350773
20
1328.279227
30
0
11
3290.934051
21
1391.720773
31
0
0
LINE
8
DIMENSION
10
3261.350773
20
1328.279227
30
0
11
3231.767494
21
1391.720773
31
0
0
TEXT
8
DIMENSION
10
3431.350773
20
1228.279227
30
0
40
85
1
0.2
50
90
7
STANDARD
72
1
73
2
11
3431.350773
21
1228.279227
31
0
0
LINE
8
DIMENSION
10
2621.350773
20
1328.279227
30
0
11
3261.350773
21
1328.279227
31
0
0
LINE
8
DIMENSION
10
2621.350773
20
1528.279227
30
0
11
3261.350773
21
1528.279227
31
0
0
LINE
8
DIMENSION
10
3261.350773
20
1328.279227
30
0
11
3261.350773
21
1528.279227
31
0
0
LINE
8
DIMENSION
10
3261.350773
20
1328.279227
30
0
11
3231.767494
21
1264.837682
31
0
0
LINE
8
DIMENSION
10
3261.350773
20
1328.279227
30
0
11
3290.934051
21
1264.837682
31
0
0
LINE
8
DIMENSION
10
3261.350773
20
1528.279227
30
0
11
3290.934051
21
1591.720773
31
0
0
LINE
8
DIMENSION
10
3261.350773
20
1528.279227
30
0
11
3231.767494
21
1591.720773
31
0
0
TEXT
8
DIMENSION
10
3431.350773
20
1428.279227
30
0
40
85
1
0.2
50
90
7
STANDARD
72
1
73
2
11
3431.350773
21
1428.279227
31
0
0
LINE
8
DIMENSION
10
2621.350773
20
-671.720773
30
0
11
3711.350773
21
-671.720773
31
0
0
LINE
8
DIMENSION
10
2621.350773
20
1528.279227
30
0
11
3711.350773
21
1528.279227
31
0
0
LINE
8
DIMENSION
10
3711.350773
20
-671.720773
30
0
11
3711.350773
21
1528.279227
31
0
0
LINE
8
DIMENSION
10
3711.350773
20
-671.720773
30
0
11
3681.767494
21
-735.162318
31
0
0
LINE
8
DIMENSION
10
3711.350773
20
-671.720773
30
0
11
3740.934051
21
-735.162318
31
0
0
LINE
8
DIMENSION
10
3711.350773
20
1528.279227
30
0
11
3740.934051
21
1591.720773
31
0
0
LINE
8
DIMENSION
10
3711.350773
20
1528.279227
30
0
11
3681.767494
21
1591.720773
31
0
0
TEXT
8
DIMENSION
10
3881.350773
20
428.279227
30
0
40
85
1
TOTAL 2.2
50
90
7
STANDARD
72
1
73
2
11
3881.350773
21
428.279227
31
0
0
ENDSEC
0
EOF
