0
SECTION
2
HEADER
9
$ACADVER
1
AC1009
9
$INSUNITS
70
4
9
$MEASUREMENT
70
1
9
$LUNITS
70
2
9
$LUPREC
70
1
9
$TILEMODE
70
1
9
$EXTMIN
10
-1860.375
20
-1891.726273
30
0
9
$EXTMAX
10
1860.375
20
1891.726273
30
0
9
$PEXTMIN
10
-1860.375
20
-1891.726273
30
0
9
$PEXTMAX
10
1860.375
20
1891.726273
30
0
9
$LIMMIN
10
-2360.375
20
-2391.726273
9
$LIMMAX
10
2360.375
20
2391.726273
9
$PLIMMIN
10
-2360.375
20
-2391.726273
9
$PLIMMAX
10
2360.375
20
2391.726273
0
ENDSEC
0
SECTION
2
TABLES
0
TABLE
2
VPORT
70
1
0
VPORT
2
*ACTIVE
70
0
10
0
20
0
11
1
21
1
12
0
22
0
40
4783.452545
41
0.986892
42
50
43
0
44
0
50
0
51
0
71
0
72
100
73
1
74
3
75
0
76
0
77
0
78
0
0
ENDTAB
0
TABLE
2
LTYPE
70
2
0
LTYPE
2
CONTINUOUS
70
0
3
Solid line
72
65
73
0
40
0
0
LTYPE
2
DASHED
70
0
3
Dashed
72
65
73
2
40
240
49
120
74
0
49
-120
74
0
0
ENDTAB
0
TABLE
2
LAYER
70
6
0
LAYER
2
PIPES
70
0
62
5
6
CONTINUOUS
0
LAYER
2
PIPE_ENDS
70
0
62
5
6
CONTINUOUS
0
LAYER
2
DIMENSION
70
0
62
1
6
CONTINUOUS
0
LAYER
2
LEVEL_GUIDE
70
0
62
1
6
DASHED
0
LAYER
2
LEVEL_TEXT
70
0
62
1
6
CONTINUOUS
0
LAYER
2
FRAME
70
0
62
5
6
CONTINUOUS
0
ENDTAB
0
TABLE
2
STYLE
70
1
0
STYLE
2
STANDARD
70
0
40
0
41
1
50
0
71
0
42
100
3
txt
4

0
ENDTAB
0
ENDSEC
0
SECTION
2
BLOCKS
0
BLOCK
8
0
2
$MODEL_SPACE
70
0
10
0
20
0
30
0
3
$MODEL_SPACE
0
ENDBLK
8
0
0
BLOCK
67
1
8
0
2
$PAPER_SPACE
70
0
10
0
20
0
30
0
3
$PAPER_SPACE
0
ENDBLK
67
1
8
0
0
ENDSEC
0
SECTION
2
ENTITIES
0
LINE
8
PIPES
10
119.625
20
-971.726273
30
0
11
-1680.375
21
-971.726273
31
0
0
LINE
8
PIPES
10
-1680.375
20
828.274727
30
0
11
-1680.375
21
-971.726273
31
0
0
LINE
8
PIPES
10
119.625
20
-971.726273
30
0
11
119.625
21
828.274727
31
0
0
LINE
8
PIPES
10
-780.373
20
828.274727
30
0
11
-1680.375
21
828.274727
31
0
0
LINE
8
PIPES
10
-780.373
20
828.274727
30
0
11
119.625
21
828.274727
31
0
0
LINE
8
PIPES
10
-1680.375
20
828.274727
30
0
11
-1680.375
21
1328.274727
31
0
0
LINE
8
PIPES
10
119.625
20
828.274727
30
0
11
119.625
21
1328.274727
31
0
0
LINE
8
PIPES
10
-780.373
20
828.274727
30
0
11
-780.373
21
1328.274727
31
0
0
LINE
8
PIPES
10
-1680.375
20
1328.274727
30
0
11
-780.373
21
1328.274727
31
0
0
LINE
8
PIPES
10
-780.373
20
1328.274727
30
0
11
119.625
21
1328.274727
31
0
0
LINE
8
PIPES
10
-1680.375
20
1328.274727
30
0
11
-1680.375
21
1828.284727
31
0
0
LINE
8
PIPES
10
119.625
20
1328.274727
30
0
11
119.625
21
1828.284727
31
0
0
LINE
8
PIPES
10
-780.373
20
1328.274727
30
0
11
-780.373
21
1828.284727
31
0
0
LINE
8
PIPES
10
-1680.375
20
1828.284727
30
0
11
-780.373
21
1828.284727
31
0
0
LINE
8
PIPES
10
-780.373
20
1828.284727
30
0
11
119.625
21
1828.284727
31
0
0
LINE
8
PIPES
10
119.625
20
828.274727
30
0
11
-1680.375
21
-971.726273
31
0
0
LINE
8
PIPES
10
-1680.375
20
828.274727
30
0
11
119.625
21
-971.726273
31
0
0
CIRCLE
8
PIPE_ENDS
10
119.625
20
-971.725273
30
0
40
25
0
CIRCLE
8
PIPE_ENDS
10
-1680.375
20
-971.725273
30
0
40
25
0
CIRCLE
8
PIPE_ENDS
10
119.625
20
828.274727
30
0
40
32
0
CIRCLE
8
PIPE_ENDS
10
-1680.375
20
828.274727
30
0
40
32
0
CIRCLE
8
PIPE_ENDS
10
-780.375
20
828.274727
30
0
40
32
0
CIRCLE
8
PIPE_ENDS
10
119.625
20
1328.274727
30
0
40
32
0
CIRCLE
8
PIPE_ENDS
10
-1680.375
20
1328.274727
30
0
40
32
0
CIRCLE
8
PIPE_ENDS
10
119.625
20
1828.274727
30
0
40
32
0
CIRCLE
8
PIPE_ENDS
10
-1680.375
20
1828.274727
30
0
40
32
0
LINE
8
LEVEL_GUIDE
6
DASHED
10
-1860.375
20
-971.725273
30
0
11
299.625
21
-971.725273
31
0
0
LINE
8
LEVEL_GUIDE
6
DASHED
10
-1860.375
20
828.274727
30
0
11
299.625
21
828.274727
31
0
0
LINE
8
LEVEL_GUIDE
6
DASHED
10
-1860.375
20
1328.274727
30
0
11
299.625
21
1328.274727
31
0
0
LINE
8
LEVEL_GUIDE
6
DASHED
10
-1860.375
20
1828.284727
30
0
11
299.625
21
1828.284727
31
0
0
LINE
8
DIMENSION
10
-1680.375
20
-1031.726273
30
0
11
-1680.375
21
-1351.726273
31
0
0
LINE
8
DIMENSION
10
-780.375
20
-1031.726273
30
0
11
-780.375
21
-1351.726273
31
0
0
LINE
8
DIMENSION
10
-1680.375
20
-1351.726273
30
0
11
-780.375
21
-1351.726273
31
0
0
LINE
8
DIMENSION
10
-1680.375
20
-1351.726273
30
0
11
-1743.816545
21
-1322.142994
31
0
0
LINE
8
DIMENSION
10
-1680.375
20
-1351.726273
30
0
11
-1743.816545
21
-1381.309551
31
0
0
LINE
8
DIMENSION
10
-780.375
20
-1351.726273
30
0
11
-716.933455
21
-1381.309551
31
0
0
LINE
8
DIMENSION
10
-780.375
20
-1351.726273
30
0
11
-716.933455
21
-1322.142994
31
0
0
TEXT
8
DIMENSION
10
-1230.375
20
-1521.726273
30
0
40
85
1
0.9
50
0
7
STANDARD
72
1
73
2
11
-1230.375
21
-1521.726273
31
0
0
LINE
8
DIMENSION
10
-780.375
20
-1031.726273
30
0
11
-780.375
21
-1351.726273
31
0
0
LINE
8
DIMENSION
10
119.625
20
-1031.726273
30
0
11
119.625
21
-1351.726273
31
0
0
LINE
8
DIMENSION
10
-780.375
20
-1351.726273
30
0
11
119.625
21
-1351.726273
31
0
0
LINE
8
DIMENSION
10
-780.375
20
-1351.726273
30
0
11
-843.816545
21
-1322.142994
31
0
0
LINE
8
DIMENSION
10
-780.375
20
-1351.726273
30
0
11
-843.816545
21
-1381.309551
31
0
0
LINE
8
DIMENSION
10
119.625
20
-1351.726273
30
0
11
183.066545
21
-1381.309551
31
0
0
LINE
8
DIMENSION
10
119.625
20
-1351.726273
30
0
11
183.066545
21
-1322.142994
31
0
0
TEXT
8
DIMENSION
10
-330.375
20
-1521.726273
30
0
40
85
1
0.9
50
0
7
STANDARD
72
1
73
2
11
-330.375
21
-1521.726273
31
0
0
LINE
8
DIMENSION
10
-1680.375
20
-1031.726273
30
0
11
-1680.375
21
-1721.726273
31
0
0
LINE
8
DIMENSION
10
119.625
20
-1031.726273
30
0
11
119.625
21
-1721.726273
31
0
0
LINE
8
DIMENSION
10
-1680.375
20
-1721.726273
30
0
11
119.625
21
-1721.726273
31
0
0
LINE
8
DIMENSION
10
-1680.375
20
-1721.726273
30
0
11
-1743.816545
21
-1692.142994
31
0
0
LINE
8
DIMENSION
10
-1680.375
20
-1721.726273
30
0
11
-1743.816545
21
-1751.309551
31
0
0
LINE
8
DIMENSION
10
119.625
20
-1721.726273
30
0
11
183.066545
21
-1751.309551
31
0
0
LINE
8
DIMENSION
10
119.625
20
-1721.726273
30
0
11
183.066545
21
-1692.142994
31
0
0
TEXT
8
DIMENSION
10
-780.375
20
-1891.726273
30
0
40
85
1
TOTAL 1.8
50
0
7
STANDARD
72
1
73
2
11
-780.375
21
-1891.726273
31
0
0
LINE
8
DIMENSION
10
179.625
20
-971.725273
30
0
11
819.625
21
-971.725273
31
0
0
LINE
8
DIMENSION
10
179.625
20
828.274727
30
0
11
819.625
21
828.274727
31
0
0
LINE
8
DIMENSION
10
819.625
20
-971.725273
30
0
11
819.625
21
828.274727
31
0
0
LINE
8
DIMENSION
10
819.625
20
-971.725273
30
0
11
790.041722
21
-1035.166818
31
0
0
LINE
8
DIMENSION
10
819.625
20
-971.725273
30
0
11
849.208278
21
-1035.166818
31
0
0
LINE
8
DIMENSION
10
819.625
20
828.274727
30
0
11
849.208278
21
891.716273
31
0
0
LINE
8
DIMENSION
10
819.625
20
828.274727
30
0
11
790.041722
21
891.716273
31
0
0
TEXT
8
DIMENSION
10
989.625
20
-71.725273
30
0
40
85
1
1.8
50
90
7
STANDARD
72
1
73
2
11
989.625
21
-71.725273
31
0
0
LINE
8
DIMENSION
10
179.625
20
828.274727
30
0
11
819.625
21
828.274727
31
0
0
LINE
8
DIMENSION
10
179.625
20
1328.274727
30
0
11
819.625
21
1328.274727
31
0
0
LINE
8
DIMENSION
10
819.625
20
828.274727
30
0
11
819.625
21
1328.274727
31
0
0
LINE
8
DIMENSION
10
819.625
20
828.274727
30
0
11
790.041722
21
764.833182
31
0
0
LINE
8
DIMENSION
10
819.625
20
828.274727
30
0
11
849.208278
21
764.833182
31
0
0
LINE
8
DIMENSION
10
819.625
20
1328.274727
30
0
11
849.208278
21
1391.716273
31
0
0
LINE
8
DIMENSION
10
819.625
20
1328.274727
30
0
11
790.041722
21
1391.716273
31
0
0
TEXT
8
DIMENSION
10
989.625
20
1078.274727
30
0
40
85
1
0.5
50
90
7
STANDARD
72
1
73
2
11
989.625
21
1078.274727
31
0
0
LINE
8
DIMENSION
10
179.625
20
1328.274727
30
0
11
819.625
21
1328.274727
31
0
0
LINE
8
DIMENSION
10
179.625
20
1828.284727
30
0
11
819.625
21
1828.284727
31
0
0
LINE
8
DIMENSION
10
819.625
20
1328.274727
30
0
11
819.625
21
1828.284727
31
0
0
LINE
8
DIMENSION
10
819.625
20
1328.274727
30
0
11
790.041722
21
1264.833182
31
0
0
LINE
8
DIMENSION
10
819.625
20
1328.274727
30
0
11
849.208278
21
1264.833182
31
0
0
LINE
8
DIMENSION
10
819.625
20
1828.284727
30
0
11
849.208278
21
1891.726273
31
0
0
LINE
8
DIMENSION
10
819.625
20
1828.284727
30
0
11
790.041722
21
1891.726273
31
0
0
TEXT
8
DIMENSION
10
989.625
20
1578.279727
30
0
40
85
1
0.5
50
90
7
STANDARD
72
1
73
2
11
989.625
21
1578.279727
31
0
0
LINE
8
DIMENSION
10
179.625
20
-971.725273
30
0
11
1269.625
21
-971.725273
31
0
0
LINE
8
DIMENSION
10
179.625
20
1828.284727
30
0
11
1269.625
21
1828.284727
31
0
0
LINE
8
DIMENSION
10
1269.625
20
-971.725273
30
0
11
1269.625
21
1828.284727
31
0
0
LINE
8
DIMENSION
10
1269.625
20
-971.725273
30
0
11
1240.041722
21
-1035.166818
31
0
0
LINE
8
DIMENSION
10
1269.625
20
-971.725273
30
0
11
1299.208278
21
-1035.166818
31
0
0
LINE
8
DIMENSION
10
1269.625
20
1828.284727
30
0
11
1299.208278
21
1891.726273
31
0
0
LINE
8
DIMENSION
10
1269.625
20
1828.284727
30
0
11
1240.041722
21
1891.726273
31
0
0
TEXT
8
DIMENSION
10
1439.625
20
428.279727
30
0
40
85
1
TOTAL 2.8
50
90
7
STANDARD
72
1
73
2
11
1439.625
21
428.279727
31
0
0
ENDSEC
0
EOF
