0
SECTION
2
HEADER
9
$ACADVER
1
AC1009
9
$INSUNITS
70
4
9
$MEASUREMENT
70
1
9
$LUNITS
70
2
9
$LUPREC
70
1
9
$TILEMODE
70
1
9
$EXTMIN
10
-20437.05
20
-7991.720773
30
0
9
$EXTMAX
10
20437.05
20
7991.720773
30
0
9
$PEXTMIN
10
-20437.05
20
-7991.720773
30
0
9
$PEXTMAX
10
20437.05
20
7991.720773
30
0
9
$LIMMIN
10
-20937.05
20
-8491.720773
9
$LIMMAX
10
20937.05
20
8491.720773
9
$PLIMMIN
10
-20937.05
20
-8491.720773
9
$PLIMMAX
10
20937.05
20
8491.720773
0
ENDSEC
0
SECTION
2
TABLES
0
TABLE
2
VPORT
70
1
0
VPORT
2
*ACTIVE
70
0
10
0
20
0
11
1
21
1
12
0
22
0
40
16983.441545
41
2.465584
42
50
43
0
44
0
50
0
51
0
71
0
72
100
73
1
74
3
75
0
76
0
77
0
78
0
0
ENDTAB
0
TABLE
2
LTYPE
70
2
0
LTYPE
2
CONTINUOUS
70
0
3
Solid line
72
65
73
0
40
0
0
LTYPE
2
DASHED
70
0
3
Dashed
72
65
73
2
40
240
49
120
74
0
49
-120
74
0
0
ENDTAB
0
TABLE
2
LAYER
70
6
0
LAYER
2
PIPES
70
0
62
5
6
CONTINUOUS
0
LAYER
2
PIPE_ENDS
70
0
62
5
6
CONTINUOUS
0
LAYER
2
DIMENSION
70
0
62
1
6
CONTINUOUS
0
LAYER
2
LEVEL_GUIDE
70
0
62
1
6
DASHED
0
LAYER
2
LEVEL_TEXT
70
0
62
1
6
CONTINUOUS
0
LAYER
2
FRAME
70
0
62
5
6
CONTINUOUS
0
ENDTAB
0
TABLE
2
STYLE
70
1
0
STYLE
2
STANDARD
70
0
40
0
41
1
50
0
71
0
42
100
3
txt
4

0
ENDTAB
0
ENDSEC
0
SECTION
2
BLOCKS
0
BLOCK
8
0
2
$MODEL_SPACE
70
0
10
0
20
0
30
0
3
$MODEL_SPACE
0
ENDBLK
8
0
0
BLOCK
67
1
8
0
2
$PAPER_SPACE
70
0
10
0
20
0
30
0
3
$PAPER_SPACE
0
ENDBLK
67
1
8
0
0
ENDSEC
0
SECTION
2
ENTITIES
0
LINE
8
PIPES
10
-19038.3
20
-6771.719773
30
0
11
-20257.05
21
-6771.719773
31
0
0
LINE
8
PIPES
10
18743.05
20
-6771.719773
30
0
11
17524.25
21
-6771.719773
31
0
0
LINE
8
PIPES
10
17524.25
20
-6771.719773
30
0
11
16305.55
21
-6771.719773
31
0
0
LINE
8
PIPES
10
16305.55
20
-6771.719773
30
0
11
15086.75
21
-6771.719773
31
0
0
LINE
8
PIPES
10
15086.75
20
-6771.719773
30
0
11
13868.05
21
-6771.719773
31
0
0
LINE
8
PIPES
10
13868.05
20
-6771.719773
30
0
11
12649.25
21
-6771.719773
31
0
0
LINE
8
PIPES
10
12649.25
20
-6771.719773
30
0
11
11430.55
21
-6771.719773
31
0
0
LINE
8
PIPES
10
11430.55
20
-6771.719773
30
0
11
10211.75
21
-6771.719773
31
0
0
LINE
8
PIPES
10
10211.75
20
-6771.719773
30
0
11
8993.05
21
-6771.719773
31
0
0
LINE
8
PIPES
10
8993.05
20
-6771.719773
30
0
11
7774.25
21
-6771.719773
31
0
0
LINE
8
PIPES
10
7774.25
20
-6771.719773
30
0
11
6555.55
21
-6771.719773
31
0
0
LINE
8
PIPES
10
6555.55
20
-6771.719773
30
0
11
5336.75
21
-6771.719773
31
0
0
LINE
8
PIPES
10
5336.75
20
-6771.719773
30
0
11
4117.95
21
-6771.719773
31
0
0
LINE
8
PIPES
10
4117.95
20
-6771.719773
30
0
11
2899.25
21
-6771.719773
31
0
0
LINE
8
PIPES
10
2899.25
20
-6771.719773
30
0
11
1680.45
21
-6771.719773
31
0
0
LINE
8
PIPES
10
1680.45
20
-6771.719773
30
0
11
461.75
21
-6771.719773
31
0
0
LINE
8
PIPES
10
461.75
20
-6771.719773
30
0
11
-757.05
21
-6771.719773
31
0
0
LINE
8
PIPES
10
-757.05
20
-6771.719773
30
0
11
-1975.75
21
-6771.719773
31
0
0
LINE
8
PIPES
10
-1975.75
20
-6771.719773
30
0
11
-3194.55
21
-6771.719773
31
0
0
LINE
8
PIPES
10
-3194.55
20
-6771.719773
30
0
11
-4413.25
21
-6771.719773
31
0
0
LINE
8
PIPES
10
-4413.25
20
-6771.719773
30
0
11
-5632.05
21
-6771.719773
31
0
0
LINE
8
PIPES
10
-5632.05
20
-6771.719773
30
0
11
-6850.75
21
-6771.719773
31
0
0
LINE
8
PIPES
10
-6850.75
20
-6771.719773
30
0
11
-8069.55
21
-6771.719773
31
0
0
LINE
8
PIPES
10
-8069.55
20
-6771.719773
30
0
11
-9288.25
21
-6771.719773
31
0
0
LINE
8
PIPES
10
-9288.25
20
-6771.719773
30
0
11
-10507.03
21
-6771.719773
31
0
0
LINE
8
PIPES
10
-10507.03
20
-6771.719773
30
0
11
-11725.78
21
-6771.719773
31
0
0
LINE
8
PIPES
10
-11725.78
20
-6771.719773
30
0
11
-12944.54
21
-6771.719773
31
0
0
LINE
8
PIPES
10
-12944.54
20
-6771.719773
30
0
11
-14163.29
21
-6771.719773
31
0
0
LINE
8
PIPES
10
-14163.29
20
-6771.719773
30
0
11
-15382.04
21
-6771.719773
31
0
0
LINE
8
PIPES
10
-15382.04
20
-6771.719773
30
0
11
-16600.79
21
-6771.719773
31
0
0
LINE
8
PIPES
10
-16600.79
20
-6771.719773
30
0
11
-17819.54
21
-6771.719773
31
0
0
LINE
8
PIPES
10
-17819.54
20
-6771.719773
30
0
11
-19038.3
21
-6771.719773
31
0
0
LINE
8
PIPES
10
-20257.05
20
-6771.719773
30
0
11
-20257.05
21
-7071.720773
31
0
0
LINE
8
PIPES
10
18743.05
20
-6771.719773
30
0
11
18743.05
21
-7071.720773
31
0
0
LINE
8
PIPES
10
17524.25
20
-6771.719773
30
0
11
17524.25
21
-7071.720773
31
0
0
LINE
8
PIPES
10
16305.55
20
-6771.719773
30
0
11
16305.55
21
-7071.720773
31
0
0
LINE
8
PIPES
10
15086.75
20
-6771.719773
30
0
11
15086.75
21
-7071.720773
31
0
0
LINE
8
PIPES
10
13868.05
20
-6771.719773
30
0
11
13868.05
21
-7071.720773
31
0
0
LINE
8
PIPES
10
12649.25
20
-6771.719773
30
0
11
12649.25
21
-7071.720773
31
0
0
LINE
8
PIPES
10
11430.55
20
-6771.719773
30
0
11
11430.55
21
-7071.720773
31
0
0
LINE
8
PIPES
10
10211.75
20
-6771.719773
30
0
11
10211.75
21
-7071.720773
31
0
0
LINE
8
PIPES
10
8993.05
20
-6771.719773
30
0
11
8993.05
21
-7071.720773
31
0
0
LINE
8
PIPES
10
7774.25
20
-6771.719773
30
0
11
7774.25
21
-7071.720773
31
0
0
LINE
8
PIPES
10
6555.55
20
-6771.719773
30
0
11
6555.55
21
-7071.720773
31
0
0
LINE
8
PIPES
10
5336.75
20
-6771.719773
30
0
11
5336.75
21
-7071.720773
31
0
0
LINE
8
PIPES
10
4117.95
20
-6771.719773
30
0
11
4117.95
21
-7071.720773
31
0
0
LINE
8
PIPES
10
2899.25
20
-6771.719773
30
0
11
2899.25
21
-7071.720773
31
0
0
LINE
8
PIPES
10
1680.45
20
-6771.719773
30
0
11
1680.45
21
-7071.720773
31
0
0
LINE
8
PIPES
10
461.75
20
-6771.719773
30
0
11
461.75
21
-7071.720773
31
0
0
LINE
8
PIPES
10
-757.05
20
-6771.719773
30
0
11
-757.05
21
-7071.720773
31
0
0
LINE
8
PIPES
10
-1975.75
20
-6771.719773
30
0
11
-1975.75
21
-7071.720773
31
0
0
LINE
8
PIPES
10
-3194.55
20
-6771.719773
30
0
11
-3194.55
21
-7071.720773
31
0
0
LINE
8
PIPES
10
-4413.25
20
-6771.719773
30
0
11
-4413.25
21
-7071.720773
31
0
0
LINE
8
PIPES
10
-5632.05
20
-6771.719773
30
0
11
-5632.05
21
-7071.720773
31
0
0
LINE
8
PIPES
10
-6850.75
20
-6771.719773
30
0
11
-6850.75
21
-7071.720773
31
0
0
LINE
8
PIPES
10
-8069.55
20
-6771.719773
30
0
11
-8069.55
21
-7071.720773
31
0
0
LINE
8
PIPES
10
-9288.25
20
-6771.719773
30
0
11
-9288.25
21
-7071.720773
31
0
0
LINE
8
PIPES
10
-10507.03
20
-6771.719773
30
0
11
-10507.03
21
-7071.720773
31
0
0
LINE
8
PIPES
10
-11725.78
20
-6771.719773
30
0
11
-11725.78
21
-7071.720773
31
0
0
LINE
8
PIPES
10
-12944.54
20
-6771.719773
30
0
11
-12944.54
21
-7071.720773
31
0
0
LINE
8
PIPES
10
-14163.29
20
-6771.719773
30
0
11
-14163.29
21
-7071.720773
31
0
0
LINE
8
PIPES
10
-15382.04
20
-6771.719773
30
0
11
-15382.04
21
-7071.720773
31
0
0
LINE
8
PIPES
10
-16600.79
20
-6771.719773
30
0
11
-16600.79
21
-7071.720773
31
0
0
LINE
8
PIPES
10
-17819.54
20
-6771.719773
30
0
11
-17819.54
21
-7071.720773
31
0
0
LINE
8
PIPES
10
-19038.3
20
-6771.719773
30
0
11
-19038.3
21
-7071.720773
31
0
0
LINE
8
PIPES
10
-20257.05
20
-6771.719773
30
0
11
-20257.05
21
-5071.720773
31
0
0
LINE
8
PIPES
10
18743.05
20
-6771.719773
30
0
11
18743.05
21
-5071.720773
31
0
0
LINE
8
PIPES
10
17524.25
20
-5071.720773
30
0
11
17524.25
21
-6771.719773
31
0
0
LINE
8
PIPES
10
16305.55
20
-6771.719773
30
0
11
16305.55
21
-5071.720773
31
0
0
LINE
8
PIPES
10
15086.75
20
-5071.720773
30
0
11
15086.75
21
-6771.719773
31
0
0
LINE
8
PIPES
10
13868.05
20
-6771.719773
30
0
11
13868.05
21
-5071.720773
31
0
0
LINE
8
PIPES
10
12649.25
20
-5071.720773
30
0
11
12649.25
21
-6771.719773
31
0
0
LINE
8
PIPES
10
11430.55
20
-6771.719773
30
0
11
11430.55
21
-5071.720773
31
0
0
LINE
8
PIPES
10
10211.75
20
-5071.720773
30
0
11
10211.75
21
-6771.719773
31
0
0
LINE
8
PIPES
10
8993.05
20
-6771.719773
30
0
11
8993.05
21
-5071.720773
31
0
0
LINE
8
PIPES
10
7774.25
20
-5071.720773
30
0
11
7774.25
21
-6771.719773
31
0
0
LINE
8
PIPES
10
6555.55
20
-6771.719773
30
0
11
6555.55
21
-5071.720773
31
0
0
LINE
8
PIPES
10
5336.75
20
-5071.720773
30
0
11
5336.75
21
-6771.719773
31
0
0
LINE
8
PIPES
10
4117.95
20
-6771.719773
30
0
11
4117.95
21
-5071.720773
31
0
0
LINE
8
PIPES
10
2899.25
20
-5071.720773
30
0
11
2899.25
21
-6771.719773
31
0
0
LINE
8
PIPES
10
1680.45
20
-6771.719773
30
0
11
1680.45
21
-5071.720773
31
0
0
LINE
8
PIPES
10
461.75
20
-5071.720773
30
0
11
461.75
21
-6771.719773
31
0
0
LINE
8
PIPES
10
-757.05
20
-6771.719773
30
0
11
-757.05
21
-5071.720773
31
0
0
LINE
8
PIPES
10
-1975.75
20
-5071.720773
30
0
11
-1975.75
21
-6771.719773
31
0
0
LINE
8
PIPES
10
-3194.55
20
-6771.719773
30
0
11
-3194.55
21
-5071.720773
31
0
0
LINE
8
PIPES
10
-4413.25
20
-5071.720773
30
0
11
-4413.25
21
-6771.719773
31
0
0
LINE
8
PIPES
10
-5632.05
20
-6771.719773
30
0
11
-5632.05
21
-5071.720773
31
0
0
LINE
8
PIPES
10
-6850.75
20
-5071.720773
30
0
11
-6850.75
21
-6771.719773
31
0
0
LINE
8
PIPES
10
-8069.55
20
-6771.719773
30
0
11
-8069.55
21
-5071.720773
31
0
0
LINE
8
PIPES
10
-9288.25
20
-5071.720773
30
0
11
-9288.25
21
-6771.719773
31
0
0
LINE
8
PIPES
10
-10507.03
20
-6771.719773
30
0
11
-10507.03
21
-5071.720773
31
0
0
LINE
8
PIPES
10
-11725.78
20
-5071.720773
30
0
11
-11725.78
21
-6771.719773
31
0
0
LINE
8
PIPES
10
-12944.54
20
-6771.719773
30
0
11
-12944.54
21
-5071.720773
31
0
0
LINE
8
PIPES
10
-14163.29
20
-5071.720773
30
0
11
-14163.29
21
-6771.719773
31
0
0
LINE
8
PIPES
10
-15382.04
20
-6771.719773
30
0
11
-15382.04
21
-5071.720773
31
0
0
LINE
8
PIPES
10
-16600.79
20
-5071.720773
30
0
11
-16600.79
21
-6771.719773
31
0
0
LINE
8
PIPES
10
-17819.54
20
-6771.719773
30
0
11
-17819.54
21
-5071.720773
31
0
0
LINE
8
PIPES
10
-19038.3
20
-5071.720773
30
0
11
-19038.3
21
-6771.719773
31
0
0
LINE
8
PIPES
10
-19038.3
20
-5071.720773
30
0
11
-20257.05
21
-5071.720773
31
0
0
LINE
8
PIPES
10
18743.05
20
-5071.720773
30
0
11
17524.25
21
-5071.720773
31
0
0
LINE
8
PIPES
10
17524.25
20
-5071.720773
30
0
11
16305.55
21
-5071.720773
31
0
0
LINE
8
PIPES
10
16305.55
20
-5071.720773
30
0
11
15086.75
21
-5071.720773
31
0
0
LINE
8
PIPES
10
15086.75
20
-5071.720773
30
0
11
13868.05
21
-5071.720773
31
0
0
LINE
8
PIPES
10
13868.05
20
-5071.720773
30
0
11
12649.25
21
-5071.720773
31
0
0
LINE
8
PIPES
10
12649.25
20
-5071.720773
30
0
11
11430.55
21
-5071.720773
31
0
0
LINE
8
PIPES
10
11430.55
20
-5071.720773
30
0
11
10211.75
21
-5071.720773
31
0
0
LINE
8
PIPES
10
10211.75
20
-5071.720773
30
0
11
8993.05
21
-5071.720773
31
0
0
LINE
8
PIPES
10
8993.05
20
-5071.720773
30
0
11
7774.25
21
-5071.720773
31
0
0
LINE
8
PIPES
10
7774.25
20
-5071.720773
30
0
11
6555.55
21
-5071.720773
31
0
0
LINE
8
PIPES
10
6555.55
20
-5071.720773
30
0
11
5336.75
21
-5071.720773
31
0
0
LINE
8
PIPES
10
5336.75
20
-5071.720773
30
0
11
4117.95
21
-5071.720773
31
0
0
LINE
8
PIPES
10
4117.95
20
-5071.720773
30
0
11
2899.25
21
-5071.720773
31
0
0
LINE
8
PIPES
10
2899.25
20
-5071.720773
30
0
11
1680.45
21
-5071.720773
31
0
0
LINE
8
PIPES
10
1680.45
20
-5071.720773
30
0
11
461.75
21
-5071.720773
31
0
0
LINE
8
PIPES
10
461.75
20
-5071.720773
30
0
11
-757.05
21
-5071.720773
31
0
0
LINE
8
PIPES
10
-757.05
20
-5071.720773
30
0
11
-1975.75
21
-5071.720773
31
0
0
LINE
8
PIPES
10
-1975.75
20
-5071.720773
30
0
11
-3194.55
21
-5071.720773
31
0
0
LINE
8
PIPES
10
-3194.55
20
-5071.720773
30
0
11
-4413.25
21
-5071.720773
31
0
0
LINE
8
PIPES
10
-4413.25
20
-5071.720773
30
0
11
-5632.05
21
-5071.720773
31
0
0
LINE
8
PIPES
10
-5632.05
20
-5071.720773
30
0
11
-6850.75
21
-5071.720773
31
0
0
LINE
8
PIPES
10
-6850.75
20
-5071.720773
30
0
11
-8069.55
21
-5071.720773
31
0
0
LINE
8
PIPES
10
-8069.55
20
-5071.720773
30
0
11
-9288.25
21
-5071.720773
31
0
0
LINE
8
PIPES
10
-9288.25
20
-5071.720773
30
0
11
-10507.03
21
-5071.720773
31
0
0
LINE
8
PIPES
10
-10507.03
20
-5071.720773
30
0
11
-11725.78
21
-5071.720773
31
0
0
LINE
8
PIPES
10
-11725.78
20
-5071.720773
30
0
11
-12944.54
21
-5071.720773
31
0
0
LINE
8
PIPES
10
-12944.54
20
-5071.720773
30
0
11
-14163.29
21
-5071.720773
31
0
0
LINE
8
PIPES
10
-14163.29
20
-5071.720773
30
0
11
-15382.04
21
-5071.720773
31
0
0
LINE
8
PIPES
10
-15382.04
20
-5071.720773
30
0
11
-16600.79
21
-5071.720773
31
0
0
LINE
8
PIPES
10
-16600.79
20
-5071.720773
30
0
11
-17819.54
21
-5071.720773
31
0
0
LINE
8
PIPES
10
-17819.54
20
-5071.720773
30
0
11
-19038.3
21
-5071.720773
31
0
0
LINE
8
PIPES
10
-20257.05
20
-6771.719773
30
0
11
-19038.3
21
-5071.720773
31
0
0
LINE
8
PIPES
10
-19038.3
20
-5071.720773
30
0
11
-17819.54
21
-6771.719773
31
0
0
LINE
8
PIPES
10
-17819.54
20
-6771.719773
30
0
11
-16600.79
21
-5071.720773
31
0
0
LINE
8
PIPES
10
-16600.79
20
-5071.720773
30
0
11
-15382.04
21
-6771.719773
31
0
0
LINE
8
PIPES
10
-15382.04
20
-6771.719773
30
0
11
-14163.29
21
-5071.720773
31
0
0
LINE
8
PIPES
10
-14163.29
20
-5071.720773
30
0
11
-12944.54
21
-6771.719773
31
0
0
LINE
8
PIPES
10
-12944.54
20
-6771.719773
30
0
11
-11725.78
21
-5071.720773
31
0
0
LINE
8
PIPES
10
-11725.78
20
-5071.720773
30
0
11
-10507.03
21
-6771.719773
31
0
0
LINE
8
PIPES
10
-10507.03
20
-6771.719773
30
0
11
-9288.25
21
-5071.720773
31
0
0
LINE
8
PIPES
10
-9288.25
20
-5071.720773
30
0
11
-8069.55
21
-6771.719773
31
0
0
LINE
8
PIPES
10
-8069.55
20
-6771.719773
30
0
11
-6850.75
21
-5071.720773
31
0
0
LINE
8
PIPES
10
-6850.75
20
-5071.720773
30
0
11
-5632.05
21
-6771.719773
31
0
0
LINE
8
PIPES
10
-5632.05
20
-6771.719773
30
0
11
-4413.25
21
-5071.720773
31
0
0
LINE
8
PIPES
10
-4413.25
20
-5071.720773
30
0
11
-3194.55
21
-6771.719773
31
0
0
LINE
8
PIPES
10
-3194.55
20
-6771.719773
30
0
11
-1975.75
21
-5071.720773
31
0
0
LINE
8
PIPES
10
-1975.75
20
-5071.720773
30
0
11
-757.05
21
-6771.719773
31
0
0
LINE
8
PIPES
10
-757.05
20
-6771.719773
30
0
11
461.75
21
-5071.720773
31
0
0
LINE
8
PIPES
10
461.75
20
-5071.720773
30
0
11
1680.45
21
-6771.719773
31
0
0
LINE
8
PIPES
10
1680.45
20
-6771.719773
30
0
11
2899.25
21
-5071.720773
31
0
0
LINE
8
PIPES
10
2899.25
20
-5071.720773
30
0
11
4117.95
21
-6771.719773
31
0
0
LINE
8
PIPES
10
4117.95
20
-6771.719773
30
0
11
5336.75
21
-5071.720773
31
0
0
LINE
8
PIPES
10
5336.75
20
-5071.720773
30
0
11
6555.55
21
-6771.719773
31
0
0
LINE
8
PIPES
10
6555.55
20
-6771.719773
30
0
11
7774.25
21
-5071.720773
31
0
0
LINE
8
PIPES
10
7774.25
20
-5071.720773
30
0
11
8993.05
21
-6771.719773
31
0
0
LINE
8
PIPES
10
8993.05
20
-6771.719773
30
0
11
10211.75
21
-5071.720773
31
0
0
LINE
8
PIPES
10
10211.75
20
-5071.720773
30
0
11
11430.55
21
-6771.719773
31
0
0
LINE
8
PIPES
10
11430.55
20
-6771.719773
30
0
11
12649.25
21
-5071.720773
31
0
0
LINE
8
PIPES
10
12649.25
20
-5071.720773
30
0
11
13868.05
21
-6771.719773
31
0
0
LINE
8
PIPES
10
13868.05
20
-6771.719773
30
0
11
15086.75
21
-5071.720773
31
0
0
LINE
8
PIPES
10
15086.75
20
-5071.720773
30
0
11
16305.55
21
-6771.719773
31
0
0
LINE
8
PIPES
10
16305.55
20
-6771.719773
30
0
11
17524.25
21
-5071.720773
31
0
0
LINE
8
PIPES
10
17524.25
20
-5071.720773
30
0
11
18743.05
21
-6771.719773
31
0
0
LINE
8
PIPES
10
-20257.05
20
-5071.720773
30
0
11
-19038.3
21
-6771.719773
31
0
0
LINE
8
PIPES
10
-19038.3
20
-6771.719773
30
0
11
-17819.54
21
-5071.720773
31
0
0
LINE
8
PIPES
10
-17819.54
20
-5071.720773
30
0
11
-16600.79
21
-6771.719773
31
0
0
LINE
8
PIPES
10
-16600.79
20
-6771.719773
30
0
11
-15382.04
21
-5071.720773
31
0
0
LINE
8
PIPES
10
-15382.04
20
-5071.720773
30
0
11
-14163.29
21
-6771.719773
31
0
0
LINE
8
PIPES
10
-14163.29
20
-6771.719773
30
0
11
-12944.54
21
-5071.720773
31
0
0
LINE
8
PIPES
10
-12944.54
20
-5071.720773
30
0
11
-11725.78
21
-6771.719773
31
0
0
LINE
8
PIPES
10
-11725.78
20
-6771.719773
30
0
11
-10507.03
21
-5071.720773
31
0
0
LINE
8
PIPES
10
-10507.03
20
-5071.720773
30
0
11
-9288.25
21
-6771.719773
31
0
0
LINE
8
PIPES
10
-9288.25
20
-6771.719773
30
0
11
-8069.55
21
-5071.720773
31
0
0
LINE
8
PIPES
10
-8069.55
20
-5071.720773
30
0
11
-6850.75
21
-6771.719773
31
0
0
LINE
8
PIPES
10
-6850.75
20
-6771.719773
30
0
11
-5632.05
21
-5071.720773
31
0
0
LINE
8
PIPES
10
-5632.05
20
-5071.720773
30
0
11
-4413.25
21
-6771.719773
31
0
0
LINE
8
PIPES
10
-4413.25
20
-6771.719773
30
0
11
-3194.55
21
-5071.720773
31
0
0
LINE
8
PIPES
10
-3194.55
20
-5071.720773
30
0
11
-1975.75
21
-6771.719773
31
0
0
LINE
8
PIPES
10
-1975.75
20
-6771.719773
30
0
11
-757.05
21
-5071.720773
31
0
0
LINE
8
PIPES
10
-757.05
20
-5071.720773
30
0
11
461.75
21
-6771.719773
31
0
0
LINE
8
PIPES
10
461.75
20
-6771.719773
30
0
11
1680.45
21
-5071.720773
31
0
0
LINE
8
PIPES
10
1680.45
20
-5071.720773
30
0
11
2899.25
21
-6771.719773
31
0
0
LINE
8
PIPES
10
2899.25
20
-6771.719773
30
0
11
4117.95
21
-5071.720773
31
0
0
LINE
8
PIPES
10
4117.95
20
-5071.720773
30
0
11
5336.75
21
-6771.719773
31
0
0
LINE
8
PIPES
10
5336.75
20
-6771.719773
30
0
11
6555.55
21
-5071.720773
31
0
0
LINE
8
PIPES
10
6555.55
20
-5071.720773
30
0
11
7774.25
21
-6771.719773
31
0
0
LINE
8
PIPES
10
7774.25
20
-6771.719773
30
0
11
8993.05
21
-5071.720773
31
0
0
LINE
8
PIPES
10
8993.05
20
-5071.720773
30
0
11
10211.75
21
-6771.719773
31
0
0
LINE
8
PIPES
10
10211.75
20
-6771.719773
30
0
11
11430.55
21
-5071.720773
31
0
0
LINE
8
PIPES
10
11430.55
20
-5071.720773
30
0
11
12649.25
21
-6771.719773
31
0
0
LINE
8
PIPES
10
12649.25
20
-6771.719773
30
0
11
13868.05
21
-5071.720773
31
0
0
LINE
8
PIPES
10
13868.05
20
-5071.720773
30
0
11
15086.75
21
-6771.719773
31
0
0
LINE
8
PIPES
10
15086.75
20
-6771.719773
30
0
11
16305.55
21
-5071.720773
31
0
0
LINE
8
PIPES
10
16305.55
20
-5071.720773
30
0
11
17524.25
21
-6771.719773
31
0
0
LINE
8
PIPES
10
17524.25
20
-6771.719773
30
0
11
18743.05
21
-5071.720773
31
0
0
LINE
8
PIPES
10
-20257.05
20
-5071.720773
30
0
11
-20257.05
21
-3071.710773
31
0
0
LINE
8
PIPES
10
18743.05
20
-5071.720773
30
0
11
18743.05
21
-3071.710773
31
0
0
LINE
8
PIPES
10
17524.25
20
-3071.710773
30
0
11
17524.25
21
-5071.720773
31
0
0
LINE
8
PIPES
10
16305.55
20
-5071.720773
30
0
11
16305.55
21
-3071.710773
31
0
0
LINE
8
PIPES
10
15086.75
20
-3071.710773
30
0
11
15086.75
21
-5071.720773
31
0
0
LINE
8
PIPES
10
13868.05
20
-5071.720773
30
0
11
13868.05
21
-3071.710773
31
0
0
LINE
8
PIPES
10
12649.25
20
-3071.710773
30
0
11
12649.25
21
-5071.720773
31
0
0
LINE
8
PIPES
10
11430.55
20
-5071.720773
30
0
11
11430.55
21
-3071.710773
31
0
0
LINE
8
PIPES
10
10211.75
20
-3071.710773
30
0
11
10211.75
21
-5071.720773
31
0
0
LINE
8
PIPES
10
8993.05
20
-5071.720773
30
0
11
8993.05
21
-3071.710773
31
0
0
LINE
8
PIPES
10
7774.25
20
-3071.710773
30
0
11
7774.25
21
-5071.720773
31
0
0
LINE
8
PIPES
10
6555.55
20
-5071.720773
30
0
11
6555.55
21
-3071.710773
31
0
0
LINE
8
PIPES
10
5336.75
20
-3071.710773
30
0
11
5336.75
21
-5071.720773
31
0
0
LINE
8
PIPES
10
4117.95
20
-5071.720773
30
0
11
4117.95
21
-3071.710773
31
0
0
LINE
8
PIPES
10
2899.25
20
-3071.710773
30
0
11
2899.25
21
-5071.720773
31
0
0
LINE
8
PIPES
10
1680.45
20
-5071.720773
30
0
11
1680.45
21
-3071.710773
31
0
0
LINE
8
PIPES
10
461.75
20
-3071.710773
30
0
11
461.75
21
-5071.720773
31
0
0
LINE
8
PIPES
10
-757.05
20
-5071.720773
30
0
11
-757.05
21
-3071.710773
31
0
0
LINE
8
PIPES
10
-1975.75
20
-3071.710773
30
0
11
-1975.75
21
-5071.720773
31
0
0
LINE
8
PIPES
10
-3194.55
20
-5071.720773
30
0
11
-3194.55
21
-3071.710773
31
0
0
LINE
8
PIPES
10
-4413.25
20
-3071.710773
30
0
11
-4413.25
21
-5071.720773
31
0
0
LINE
8
PIPES
10
-5632.05
20
-5071.720773
30
0
11
-5632.05
21
-3071.710773
31
0
0
LINE
8
PIPES
10
-6850.75
20
-3071.710773
30
0
11
-6850.75
21
-5071.720773
31
0
0
LINE
8
PIPES
10
-8069.55
20
-5071.720773
30
0
11
-8069.55
21
-3071.710773
31
0
0
LINE
8
PIPES
10
-9288.25
20
-3071.710773
30
0
11
-9288.25
21
-5071.720773
31
0
0
LINE
8
PIPES
10
-10507.03
20
-5071.720773
30
0
11
-10507.03
21
-3071.710773
31
0
0
LINE
8
PIPES
10
-11725.78
20
-3071.710773
30
0
11
-11725.78
21
-5071.720773
31
0
0
LINE
8
PIPES
10
-12944.54
20
-5071.720773
30
0
11
-12944.54
21
-3071.710773
31
0
0
LINE
8
PIPES
10
-14163.29
20
-3071.710773
30
0
11
-14163.29
21
-5071.720773
31
0
0
LINE
8
PIPES
10
-15382.04
20
-5071.720773
30
0
11
-15382.04
21
-3071.710773
31
0
0
LINE
8
PIPES
10
-16600.79
20
-3071.710773
30
0
11
-16600.79
21
-5071.720773
31
0
0
LINE
8
PIPES
10
-17819.54
20
-5071.720773
30
0
11
-17819.54
21
-3071.710773
31
0
0
LINE
8
PIPES
10
-19038.3
20
-3071.710773
30
0
11
-19038.3
21
-5071.720773
31
0
0
LINE
8
PIPES
10
-19038.3
20
-3071.710773
30
0
11
-20257.05
21
-3071.710773
31
0
0
LINE
8
PIPES
10
18743.05
20
-3071.710773
30
0
11
17524.25
21
-3071.710773
31
0
0
LINE
8
PIPES
10
17524.25
20
-3071.710773
30
0
11
16305.55
21
-3071.710773
31
0
0
LINE
8
PIPES
10
16305.55
20
-3071.710773
30
0
11
15086.75
21
-3071.710773
31
0
0
LINE
8
PIPES
10
15086.75
20
-3071.710773
30
0
11
13868.05
21
-3071.710773
31
0
0
LINE
8
PIPES
10
13868.05
20
-3071.710773
30
0
11
12649.25
21
-3071.710773
31
0
0
LINE
8
PIPES
10
12649.25
20
-3071.710773
30
0
11
11430.55
21
-3071.710773
31
0
0
LINE
8
PIPES
10
11430.55
20
-3071.710773
30
0
11
10211.75
21
-3071.710773
31
0
0
LINE
8
PIPES
10
10211.75
20
-3071.710773
30
0
11
8993.05
21
-3071.710773
31
0
0
LINE
8
PIPES
10
8993.05
20
-3071.710773
30
0
11
7774.25
21
-3071.710773
31
0
0
LINE
8
PIPES
10
7774.25
20
-3071.710773
30
0
11
6555.55
21
-3071.710773
31
0
0
LINE
8
PIPES
10
6555.55
20
-3071.710773
30
0
11
5336.75
21
-3071.710773
31
0
0
LINE
8
PIPES
10
5336.75
20
-3071.710773
30
0
11
4117.95
21
-3071.710773
31
0
0
LINE
8
PIPES
10
4117.95
20
-3071.710773
30
0
11
2899.25
21
-3071.710773
31
0
0
LINE
8
PIPES
10
2899.25
20
-3071.710773
30
0
11
1680.45
21
-3071.710773
31
0
0
LINE
8
PIPES
10
1680.45
20
-3071.710773
30
0
11
461.75
21
-3071.710773
31
0
0
LINE
8
PIPES
10
461.75
20
-3071.710773
30
0
11
-757.05
21
-3071.710773
31
0
0
LINE
8
PIPES
10
-757.05
20
-3071.710773
30
0
11
-1975.75
21
-3071.710773
31
0
0
LINE
8
PIPES
10
-1975.75
20
-3071.710773
30
0
11
-3194.55
21
-3071.710773
31
0
0
LINE
8
PIPES
10
-3194.55
20
-3071.710773
30
0
11
-4413.25
21
-3071.710773
31
0
0
LINE
8
PIPES
10
-4413.25
20
-3071.710773
30
0
11
-5632.05
21
-3071.710773
31
0
0
LINE
8
PIPES
10
-5632.05
20
-3071.710773
30
0
11
-6850.75
21
-3071.710773
31
0
0
LINE
8
PIPES
10
-6850.75
20
-3071.710773
30
0
11
-8069.55
21
-3071.710773
31
0
0
LINE
8
PIPES
10
-8069.55
20
-3071.710773
30
0
11
-9288.25
21
-3071.710773
31
0
0
LINE
8
PIPES
10
-9288.25
20
-3071.710773
30
0
11
-10507.03
21
-3071.710773
31
0
0
LINE
8
PIPES
10
-10507.03
20
-3071.710773
30
0
11
-11725.78
21
-3071.710773
31
0
0
LINE
8
PIPES
10
-11725.78
20
-3071.710773
30
0
11
-12944.54
21
-3071.710773
31
0
0
LINE
8
PIPES
10
-12944.54
20
-3071.710773
30
0
11
-14163.29
21
-3071.710773
31
0
0
LINE
8
PIPES
10
-14163.29
20
-3071.710773
30
0
11
-15382.04
21
-3071.710773
31
0
0
LINE
8
PIPES
10
-15382.04
20
-3071.710773
30
0
11
-16600.79
21
-3071.710773
31
0
0
LINE
8
PIPES
10
-16600.79
20
-3071.710773
30
0
11
-17819.54
21
-3071.710773
31
0
0
LINE
8
PIPES
10
-17819.54
20
-3071.710773
30
0
11
-19038.3
21
-3071.710773
31
0
0
LINE
8
PIPES
10
-20257.05
20
-5071.720773
30
0
11
-19038.3
21
-3071.710773
31
0
0
LINE
8
PIPES
10
-19038.3
20
-3071.710773
30
0
11
-17819.54
21
-5071.720773
31
0
0
LINE
8
PIPES
10
-17819.54
20
-5071.720773
30
0
11
-16600.79
21
-3071.710773
31
0
0
LINE
8
PIPES
10
-16600.79
20
-3071.710773
30
0
11
-15382.04
21
-5071.720773
31
0
0
LINE
8
PIPES
10
-15382.04
20
-5071.720773
30
0
11
-14163.29
21
-3071.710773
31
0
0
LINE
8
PIPES
10
-14163.29
20
-3071.710773
30
0
11
-12944.54
21
-5071.720773
31
0
0
LINE
8
PIPES
10
-12944.54
20
-5071.720773
30
0
11
-11725.78
21
-3071.710773
31
0
0
LINE
8
PIPES
10
-11725.78
20
-3071.710773
30
0
11
-10507.03
21
-5071.720773
31
0
0
LINE
8
PIPES
10
-10507.03
20
-5071.720773
30
0
11
-9288.25
21
-3071.710773
31
0
0
LINE
8
PIPES
10
-9288.25
20
-3071.710773
30
0
11
-8069.55
21
-5071.720773
31
0
0
LINE
8
PIPES
10
-8069.55
20
-5071.720773
30
0
11
-6850.75
21
-3071.710773
31
0
0
LINE
8
PIPES
10
-6850.75
20
-3071.710773
30
0
11
-5632.05
21
-5071.720773
31
0
0
LINE
8
PIPES
10
-5632.05
20
-5071.720773
30
0
11
-4413.25
21
-3071.710773
31
0
0
LINE
8
PIPES
10
-4413.25
20
-3071.710773
30
0
11
-3194.55
21
-5071.720773
31
0
0
LINE
8
PIPES
10
-3194.55
20
-5071.720773
30
0
11
-1975.75
21
-3071.710773
31
0
0
LINE
8
PIPES
10
-1975.75
20
-3071.710773
30
0
11
-757.05
21
-5071.720773
31
0
0
LINE
8
PIPES
10
-757.05
20
-5071.720773
30
0
11
461.75
21
-3071.710773
31
0
0
LINE
8
PIPES
10
461.75
20
-3071.710773
30
0
11
1680.45
21
-5071.720773
31
0
0
LINE
8
PIPES
10
1680.45
20
-5071.720773
30
0
11
2899.25
21
-3071.710773
31
0
0
LINE
8
PIPES
10
2899.25
20
-3071.710773
30
0
11
4117.95
21
-5071.720773
31
0
0
LINE
8
PIPES
10
4117.95
20
-5071.720773
30
0
11
5336.75
21
-3071.710773
31
0
0
LINE
8
PIPES
10
5336.75
20
-3071.710773
30
0
11
6555.55
21
-5071.720773
31
0
0
LINE
8
PIPES
10
6555.55
20
-5071.720773
30
0
11
7774.25
21
-3071.710773
31
0
0
LINE
8
PIPES
10
7774.25
20
-3071.710773
30
0
11
8993.05
21
-5071.720773
31
0
0
LINE
8
PIPES
10
8993.05
20
-5071.720773
30
0
11
10211.75
21
-3071.710773
31
0
0
LINE
8
PIPES
10
10211.75
20
-3071.710773
30
0
11
11430.55
21
-5071.720773
31
0
0
LINE
8
PIPES
10
11430.55
20
-5071.720773
30
0
11
12649.25
21
-3071.710773
31
0
0
LINE
8
PIPES
10
12649.25
20
-3071.710773
30
0
11
13868.05
21
-5071.720773
31
0
0
LINE
8
PIPES
10
13868.05
20
-5071.720773
30
0
11
15086.75
21
-3071.710773
31
0
0
LINE
8
PIPES
10
15086.75
20
-3071.710773
30
0
11
16305.55
21
-5071.720773
31
0
0
LINE
8
PIPES
10
16305.55
20
-5071.720773
30
0
11
17524.25
21
-3071.710773
31
0
0
LINE
8
PIPES
10
17524.25
20
-3071.710773
30
0
11
18743.05
21
-5071.720773
31
0
0
LINE
8
PIPES
10
-20257.05
20
-3071.710773
30
0
11
-19038.3
21
-5071.720773
31
0
0
LINE
8
PIPES
10
-19038.3
20
-5071.720773
30
0
11
-17819.54
21
-3071.710773
31
0
0
LINE
8
PIPES
10
-17819.54
20
-3071.710773
30
0
11
-16600.79
21
-5071.720773
31
0
0
LINE
8
PIPES
10
-16600.79
20
-5071.720773
30
0
11
-15382.04
21
-3071.710773
31
0
0
LINE
8
PIPES
10
-15382.04
20
-3071.710773
30
0
11
-14163.29
21
-5071.720773
31
0
0
LINE
8
PIPES
10
-14163.29
20
-5071.720773
30
0
11
-12944.54
21
-3071.710773
31
0
0
LINE
8
PIPES
10
-12944.54
20
-3071.710773
30
0
11
-11725.78
21
-5071.720773
31
0
0
LINE
8
PIPES
10
-11725.78
20
-5071.720773
30
0
11
-10507.03
21
-3071.710773
31
0
0
LINE
8
PIPES
10
-10507.03
20
-3071.710773
30
0
11
-9288.25
21
-5071.720773
31
0
0
LINE
8
PIPES
10
-9288.25
20
-5071.720773
30
0
11
-8069.55
21
-3071.710773
31
0
0
LINE
8
PIPES
10
-8069.55
20
-3071.710773
30
0
11
-6850.75
21
-5071.720773
31
0
0
LINE
8
PIPES
10
-6850.75
20
-5071.720773
30
0
11
-5632.05
21
-3071.710773
31
0
0
LINE
8
PIPES
10
-5632.05
20
-3071.710773
30
0
11
-4413.25
21
-5071.720773
31
0
0
LINE
8
PIPES
10
-4413.25
20
-5071.720773
30
0
11
-3194.55
21
-3071.710773
31
0
0
LINE
8
PIPES
10
-3194.55
20
-3071.710773
30
0
11
-1975.75
21
-5071.720773
31
0
0
LINE
8
PIPES
10
-1975.75
20
-5071.720773
30
0
11
-757.05
21
-3071.710773
31
0
0
LINE
8
PIPES
10
-757.05
20
-3071.710773
30
0
11
461.75
21
-5071.720773
31
0
0
LINE
8
PIPES
10
461.75
20
-5071.720773
30
0
11
1680.45
21
-3071.710773
31
0
0
LINE
8
PIPES
10
1680.45
20
-3071.710773
30
0
11
2899.25
21
-5071.720773
31
0
0
LINE
8
PIPES
10
2899.25
20
-5071.720773
30
0
11
4117.95
21
-3071.710773
31
0
0
LINE
8
PIPES
10
4117.95
20
-3071.710773
30
0
11
5336.75
21
-5071.720773
31
0
0
LINE
8
PIPES
10
5336.75
20
-5071.720773
30
0
11
6555.55
21
-3071.710773
31
0
0
LINE
8
PIPES
10
6555.55
20
-3071.710773
30
0
11
7774.25
21
-5071.720773
31
0
0
LINE
8
PIPES
10
7774.25
20
-5071.720773
30
0
11
8993.05
21
-3071.710773
31
0
0
LINE
8
PIPES
10
8993.05
20
-3071.710773
30
0
11
10211.75
21
-5071.720773
31
0
0
LINE
8
PIPES
10
10211.75
20
-5071.720773
30
0
11
11430.55
21
-3071.710773
31
0
0
LINE
8
PIPES
10
11430.55
20
-3071.710773
30
0
11
12649.25
21
-5071.720773
31
0
0
LINE
8
PIPES
10
12649.25
20
-5071.720773
30
0
11
13868.05
21
-3071.710773
31
0
0
LINE
8
PIPES
10
13868.05
20
-3071.710773
30
0
11
15086.75
21
-5071.720773
31
0
0
LINE
8
PIPES
10
15086.75
20
-5071.720773
30
0
11
16305.55
21
-3071.710773
31
0
0
LINE
8
PIPES
10
16305.55
20
-3071.710773
30
0
11
17524.25
21
-5071.720773
31
0
0
LINE
8
PIPES
10
17524.25
20
-5071.720773
30
0
11
18743.05
21
-3071.710773
31
0
0
LINE
8
PIPES
10
-20257.05
20
-3071.710773
30
0
11
-20257.05
21
-1071.710773
31
0
0
LINE
8
PIPES
10
18743.05
20
-3071.710773
30
0
11
18743.05
21
-1071.710773
31
0
0
LINE
8
PIPES
10
17524.25
20
-1071.710773
30
0
11
17524.25
21
-3071.710773
31
0
0
LINE
8
PIPES
10
16305.55
20
-3071.710773
30
0
11
16305.55
21
-1071.710773
31
0
0
LINE
8
PIPES
10
15086.75
20
-1071.710773
30
0
11
15086.75
21
-3071.710773
31
0
0
LINE
8
PIPES
10
13868.05
20
-3071.710773
30
0
11
13868.05
21
-1071.710773
31
0
0
LINE
8
PIPES
10
12649.25
20
-1071.710773
30
0
11
12649.25
21
-3071.710773
31
0
0
LINE
8
PIPES
10
11430.55
20
-3071.710773
30
0
11
11430.55
21
-1071.710773
31
0
0
LINE
8
PIPES
10
10211.75
20
-1071.710773
30
0
11
10211.75
21
-3071.710773
31
0
0
LINE
8
PIPES
10
8993.05
20
-3071.710773
30
0
11
8993.05
21
-1071.710773
31
0
0
LINE
8
PIPES
10
7774.25
20
-1071.710773
30
0
11
7774.25
21
-3071.710773
31
0
0
LINE
8
PIPES
10
6555.55
20
-3071.710773
30
0
11
6555.55
21
-1071.710773
31
0
0
LINE
8
PIPES
10
5336.75
20
-1071.710773
30
0
11
5336.75
21
-3071.710773
31
0
0
LINE
8
PIPES
10
4117.95
20
-3071.710773
30
0
11
4117.95
21
-1071.710773
31
0
0
LINE
8
PIPES
10
2899.25
20
-1071.710773
30
0
11
2899.25
21
-3071.710773
31
0
0
LINE
8
PIPES
10
1680.45
20
-3071.710773
30
0
11
1680.45
21
-1071.710773
31
0
0
LINE
8
PIPES
10
461.75
20
-1071.710773
30
0
11
461.75
21
-3071.710773
31
0
0
LINE
8
PIPES
10
-757.05
20
-3071.710773
30
0
11
-757.05
21
-1071.710773
31
0
0
LINE
8
PIPES
10
-1975.75
20
-1071.710773
30
0
11
-1975.75
21
-3071.710773
31
0
0
LINE
8
PIPES
10
-3194.55
20
-3071.710773
30
0
11
-3194.55
21
-1071.710773
31
0
0
LINE
8
PIPES
10
-4413.25
20
-1071.710773
30
0
11
-4413.25
21
-3071.710773
31
0
0
LINE
8
PIPES
10
-5632.05
20
-3071.710773
30
0
11
-5632.05
21
-1071.710773
31
0
0
LINE
8
PIPES
10
-6850.75
20
-1071.710773
30
0
11
-6850.75
21
-3071.710773
31
0
0
LINE
8
PIPES
10
-8069.55
20
-3071.710773
30
0
11
-8069.55
21
-1071.710773
31
0
0
LINE
8
PIPES
10
-9288.25
20
-1071.710773
30
0
11
-9288.25
21
-3071.710773
31
0
0
LINE
8
PIPES
10
-10507.03
20
-3071.710773
30
0
11
-10507.03
21
-1071.710773
31
0
0
LINE
8
PIPES
10
-11725.78
20
-1071.710773
30
0
11
-11725.78
21
-3071.710773
31
0
0
LINE
8
PIPES
10
-12944.54
20
-3071.710773
30
0
11
-12944.54
21
-1071.710773
31
0
0
LINE
8
PIPES
10
-14163.29
20
-1071.710773
30
0
11
-14163.29
21
-3071.710773
31
0
0
LINE
8
PIPES
10
-15382.04
20
-3071.710773
30
0
11
-15382.04
21
-1071.710773
31
0
0
LINE
8
PIPES
10
-16600.79
20
-1071.710773
30
0
11
-16600.79
21
-3071.710773
31
0
0
LINE
8
PIPES
10
-17819.54
20
-3071.710773
30
0
11
-17819.54
21
-1071.710773
31
0
0
LINE
8
PIPES
10
-19038.3
20
-1071.710773
30
0
11
-19038.3
21
-3071.710773
31
0
0
LINE
8
PIPES
10
-19038.3
20
-1071.710773
30
0
11
-20257.05
21
-1071.710773
31
0
0
LINE
8
PIPES
10
18743.05
20
-1071.710773
30
0
11
17524.25
21
-1071.710773
31
0
0
LINE
8
PIPES
10
17524.25
20
-1071.710773
30
0
11
16305.55
21
-1071.710773
31
0
0
LINE
8
PIPES
10
16305.55
20
-1071.710773
30
0
11
15086.75
21
-1071.710773
31
0
0
LINE
8
PIPES
10
15086.75
20
-1071.710773
30
0
11
13868.05
21
-1071.710773
31
0
0
LINE
8
PIPES
10
13868.05
20
-1071.710773
30
0
11
12649.25
21
-1071.710773
31
0
0
LINE
8
PIPES
10
12649.25
20
-1071.710773
30
0
11
11430.55
21
-1071.710773
31
0
0
LINE
8
PIPES
10
11430.55
20
-1071.710773
30
0
11
10211.75
21
-1071.710773
31
0
0
LINE
8
PIPES
10
10211.75
20
-1071.710773
30
0
11
8993.05
21
-1071.710773
31
0
0
LINE
8
PIPES
10
8993.05
20
-1071.710773
30
0
11
7774.25
21
-1071.710773
31
0
0
LINE
8
PIPES
10
7774.25
20
-1071.710773
30
0
11
6555.55
21
-1071.710773
31
0
0
LINE
8
PIPES
10
6555.55
20
-1071.710773
30
0
11
5336.75
21
-1071.710773
31
0
0
LINE
8
PIPES
10
5336.75
20
-1071.710773
30
0
11
4117.95
21
-1071.710773
31
0
0
LINE
8
PIPES
10
4117.95
20
-1071.710773
30
0
11
2899.25
21
-1071.710773
31
0
0
LINE
8
PIPES
10
2899.25
20
-1071.710773
30
0
11
1680.45
21
-1071.710773
31
0
0
LINE
8
PIPES
10
1680.45
20
-1071.710773
30
0
11
461.75
21
-1071.710773
31
0
0
LINE
8
PIPES
10
461.75
20
-1071.710773
30
0
11
-757.05
21
-1071.710773
31
0
0
LINE
8
PIPES
10
-757.05
20
-1071.710773
30
0
11
-1975.75
21
-1071.710773
31
0
0
LINE
8
PIPES
10
-1975.75
20
-1071.710773
30
0
11
-3194.55
21
-1071.710773
31
0
0
LINE
8
PIPES
10
-3194.55
20
-1071.710773
30
0
11
-4413.25
21
-1071.710773
31
0
0
LINE
8
PIPES
10
-4413.25
20
-1071.710773
30
0
11
-5632.05
21
-1071.710773
31
0
0
LINE
8
PIPES
10
-5632.05
20
-1071.710773
30
0
11
-6850.75
21
-1071.710773
31
0
0
LINE
8
PIPES
10
-6850.75
20
-1071.710773
30
0
11
-8069.55
21
-1071.710773
31
0
0
LINE
8
PIPES
10
-8069.55
20
-1071.710773
30
0
11
-9288.25
21
-1071.710773
31
0
0
LINE
8
PIPES
10
-9288.25
20
-1071.710773
30
0
11
-10507.03
21
-1071.710773
31
0
0
LINE
8
PIPES
10
-10507.03
20
-1071.710773
30
0
11
-11725.78
21
-1071.710773
31
0
0
LINE
8
PIPES
10
-11725.78
20
-1071.710773
30
0
11
-12944.54
21
-1071.710773
31
0
0
LINE
8
PIPES
10
-12944.54
20
-1071.710773
30
0
11
-14163.29
21
-1071.710773
31
0
0
LINE
8
PIPES
10
-14163.29
20
-1071.710773
30
0
11
-15382.04
21
-1071.710773
31
0
0
LINE
8
PIPES
10
-15382.04
20
-1071.710773
30
0
11
-16600.79
21
-1071.710773
31
0
0
LINE
8
PIPES
10
-16600.79
20
-1071.710773
30
0
11
-17819.54
21
-1071.710773
31
0
0
LINE
8
PIPES
10
-17819.54
20
-1071.710773
30
0
11
-19038.3
21
-1071.710773
31
0
0
LINE
8
PIPES
10
-20257.05
20
-3071.710773
30
0
11
-19038.3
21
-1071.710773
31
0
0
LINE
8
PIPES
10
-19038.3
20
-1071.710773
30
0
11
-17819.54
21
-3071.710773
31
0
0
LINE
8
PIPES
10
-17819.54
20
-3071.710773
30
0
11
-16600.79
21
-1071.710773
31
0
0
LINE
8
PIPES
10
-16600.79
20
-1071.710773
30
0
11
-15382.04
21
-3071.710773
31
0
0
LINE
8
PIPES
10
-15382.04
20
-3071.710773
30
0
11
-14163.29
21
-1071.710773
31
0
0
LINE
8
PIPES
10
-14163.29
20
-1071.710773
30
0
11
-12944.54
21
-3071.710773
31
0
0
LINE
8
PIPES
10
-12944.54
20
-3071.710773
30
0
11
-11725.78
21
-1071.710773
31
0
0
LINE
8
PIPES
10
-11725.78
20
-1071.710773
30
0
11
-10507.03
21
-3071.710773
31
0
0
LINE
8
PIPES
10
-10507.03
20
-3071.710773
30
0
11
-9288.25
21
-1071.710773
31
0
0
LINE
8
PIPES
10
-9288.25
20
-1071.710773
30
0
11
-8069.55
21
-3071.710773
31
0
0
LINE
8
PIPES
10
-8069.55
20
-3071.710773
30
0
11
-6850.75
21
-1071.710773
31
0
0
LINE
8
PIPES
10
-6850.75
20
-1071.710773
30
0
11
-5632.05
21
-3071.710773
31
0
0
LINE
8
PIPES
10
-5632.05
20
-3071.710773
30
0
11
-4413.25
21
-1071.710773
31
0
0
LINE
8
PIPES
10
-4413.25
20
-1071.710773
30
0
11
-3194.55
21
-3071.710773
31
0
0
LINE
8
PIPES
10
-3194.55
20
-3071.710773
30
0
11
-1975.75
21
-1071.710773
31
0
0
LINE
8
PIPES
10
-1975.75
20
-1071.710773
30
0
11
-757.05
21
-3071.710773
31
0
0
LINE
8
PIPES
10
-757.05
20
-3071.710773
30
0
11
461.75
21
-1071.710773
31
0
0
LINE
8
PIPES
10
461.75
20
-1071.710773
30
0
11
1680.45
21
-3071.710773
31
0
0
LINE
8
PIPES
10
1680.45
20
-3071.710773
30
0
11
2899.25
21
-1071.710773
31
0
0
LINE
8
PIPES
10
2899.25
20
-1071.710773
30
0
11
4117.95
21
-3071.710773
31
0
0
LINE
8
PIPES
10
4117.95
20
-3071.710773
30
0
11
5336.75
21
-1071.710773
31
0
0
LINE
8
PIPES
10
5336.75
20
-1071.710773
30
0
11
6555.55
21
-3071.710773
31
0
0
LINE
8
PIPES
10
6555.55
20
-3071.710773
30
0
11
7774.25
21
-1071.710773
31
0
0
LINE
8
PIPES
10
7774.25
20
-1071.710773
30
0
11
8993.05
21
-3071.710773
31
0
0
LINE
8
PIPES
10
8993.05
20
-3071.710773
30
0
11
10211.75
21
-1071.710773
31
0
0
LINE
8
PIPES
10
10211.75
20
-1071.710773
30
0
11
11430.55
21
-3071.710773
31
0
0
LINE
8
PIPES
10
11430.55
20
-3071.710773
30
0
11
12649.25
21
-1071.710773
31
0
0
LINE
8
PIPES
10
12649.25
20
-1071.710773
30
0
11
13868.05
21
-3071.710773
31
0
0
LINE
8
PIPES
10
13868.05
20
-3071.710773
30
0
11
15086.75
21
-1071.710773
31
0
0
LINE
8
PIPES
10
15086.75
20
-1071.710773
30
0
11
16305.55
21
-3071.710773
31
0
0
LINE
8
PIPES
10
16305.55
20
-3071.710773
30
0
11
17524.25
21
-1071.710773
31
0
0
LINE
8
PIPES
10
17524.25
20
-1071.710773
30
0
11
18743.05
21
-3071.710773
31
0
0
LINE
8
PIPES
10
-20257.05
20
-1071.710773
30
0
11
-19038.3
21
-3071.710773
31
0
0
LINE
8
PIPES
10
-19038.3
20
-3071.710773
30
0
11
-17819.54
21
-1071.710773
31
0
0
LINE
8
PIPES
10
-17819.54
20
-1071.710773
30
0
11
-16600.79
21
-3071.710773
31
0
0
LINE
8
PIPES
10
-16600.79
20
-3071.710773
30
0
11
-15382.04
21
-1071.710773
31
0
0
LINE
8
PIPES
10
-15382.04
20
-1071.710773
30
0
11
-14163.29
21
-3071.710773
31
0
0
LINE
8
PIPES
10
-14163.29
20
-3071.710773
30
0
11
-12944.54
21
-1071.710773
31
0
0
LINE
8
PIPES
10
-12944.54
20
-1071.710773
30
0
11
-11725.78
21
-3071.710773
31
0
0
LINE
8
PIPES
10
-11725.78
20
-3071.710773
30
0
11
-10507.03
21
-1071.710773
31
0
0
LINE
8
PIPES
10
-10507.03
20
-1071.710773
30
0
11
-9288.25
21
-3071.710773
31
0
0
LINE
8
PIPES
10
-9288.25
20
-3071.710773
30
0
11
-8069.55
21
-1071.710773
31
0
0
LINE
8
PIPES
10
-8069.55
20
-1071.710773
30
0
11
-6850.75
21
-3071.710773
31
0
0
LINE
8
PIPES
10
-6850.75
20
-3071.710773
30
0
11
-5632.05
21
-1071.710773
31
0
0
LINE
8
PIPES
10
-5632.05
20
-1071.710773
30
0
11
-4413.25
21
-3071.710773
31
0
0
LINE
8
PIPES
10
-4413.25
20
-3071.710773
30
0
11
-3194.55
21
-1071.710773
31
0
0
LINE
8
PIPES
10
-3194.55
20
-1071.710773
30
0
11
-1975.75
21
-3071.710773
31
0
0
LINE
8
PIPES
10
-1975.75
20
-3071.710773
30
0
11
-757.05
21
-1071.710773
31
0
0
LINE
8
PIPES
10
-757.05
20
-1071.710773
30
0
11
461.75
21
-3071.710773
31
0
0
LINE
8
PIPES
10
461.75
20
-3071.710773
30
0
11
1680.45
21
-1071.710773
31
0
0
LINE
8
PIPES
10
1680.45
20
-1071.710773
30
0
11
2899.25
21
-3071.710773
31
0
0
LINE
8
PIPES
10
2899.25
20
-3071.710773
30
0
11
4117.95
21
-1071.710773
31
0
0
LINE
8
PIPES
10
4117.95
20
-1071.710773
30
0
11
5336.75
21
-3071.710773
31
0
0
LINE
8
PIPES
10
5336.75
20
-3071.710773
30
0
11
6555.55
21
-1071.710773
31
0
0
LINE
8
PIPES
10
6555.55
20
-1071.710773
30
0
11
7774.25
21
-3071.710773
31
0
0
LINE
8
PIPES
10
7774.25
20
-3071.710773
30
0
11
8993.05
21
-1071.710773
31
0
0
LINE
8
PIPES
10
8993.05
20
-1071.710773
30
0
11
10211.75
21
-3071.710773
31
0
0
LINE
8
PIPES
10
10211.75
20
-3071.710773
30
0
11
11430.55
21
-1071.710773
31
0
0
LINE
8
PIPES
10
11430.55
20
-1071.710773
30
0
11
12649.25
21
-3071.710773
31
0
0
LINE
8
PIPES
10
12649.25
20
-3071.710773
30
0
11
13868.05
21
-1071.710773
31
0
0
LINE
8
PIPES
10
13868.05
20
-1071.710773
30
0
11
15086.75
21
-3071.710773
31
0
0
LINE
8
PIPES
10
15086.75
20
-3071.710773
30
0
11
16305.55
21
-1071.710773
31
0
0
LINE
8
PIPES
10
16305.55
20
-1071.710773
30
0
11
17524.25
21
-3071.710773
31
0
0
LINE
8
PIPES
10
17524.25
20
-3071.710773
30
0
11
18743.05
21
-1071.710773
31
0
0
LINE
8
PIPES
10
-20257.05
20
-1071.710773
30
0
11
-20257.05
21
928.299227
31
0
0
LINE
8
PIPES
10
18743.05
20
-1071.710773
30
0
11
18743.05
21
928.299227
31
0
0
LINE
8
PIPES
10
17524.25
20
928.299227
30
0
11
17524.25
21
-1071.710773
31
0
0
LINE
8
PIPES
10
16305.55
20
-1071.710773
30
0
11
16305.55
21
928.299227
31
0
0
LINE
8
PIPES
10
15086.75
20
928.299227
30
0
11
15086.75
21
-1071.710773
31
0
0
LINE
8
PIPES
10
13868.05
20
-1071.710773
30
0
11
13868.05
21
928.299227
31
0
0
LINE
8
PIPES
10
12649.25
20
928.299227
30
0
11
12649.25
21
-1071.710773
31
0
0
LINE
8
PIPES
10
11430.55
20
-1071.710773
30
0
11
11430.55
21
928.299227
31
0
0
LINE
8
PIPES
10
10211.75
20
928.299227
30
0
11
10211.75
21
-1071.710773
31
0
0
LINE
8
PIPES
10
8993.05
20
-1071.710773
30
0
11
8993.05
21
928.299227
31
0
0
LINE
8
PIPES
10
7774.25
20
928.299227
30
0
11
7774.25
21
-1071.710773
31
0
0
LINE
8
PIPES
10
6555.55
20
-1071.710773
30
0
11
6555.55
21
928.299227
31
0
0
LINE
8
PIPES
10
5336.75
20
928.299227
30
0
11
5336.75
21
-1071.710773
31
0
0
LINE
8
PIPES
10
4117.95
20
-1071.710773
30
0
11
4117.95
21
928.299227
31
0
0
LINE
8
PIPES
10
2899.25
20
928.299227
30
0
11
2899.25
21
-1071.710773
31
0
0
LINE
8
PIPES
10
1680.45
20
-1071.710773
30
0
11
1680.45
21
928.299227
31
0
0
LINE
8
PIPES
10
461.75
20
928.299227
30
0
11
461.75
21
-1071.710773
31
0
0
LINE
8
PIPES
10
-757.05
20
-1071.710773
30
0
11
-757.05
21
928.299227
31
0
0
LINE
8
PIPES
10
-1975.75
20
928.299227
30
0
11
-1975.75
21
-1071.710773
31
0
0
LINE
8
PIPES
10
-3194.55
20
-1071.710773
30
0
11
-3194.55
21
928.299227
31
0
0
LINE
8
PIPES
10
-4413.25
20
928.299227
30
0
11
-4413.25
21
-1071.710773
31
0
0
LINE
8
PIPES
10
-5632.05
20
-1071.710773
30
0
11
-5632.05
21
928.299227
31
0
0
LINE
8
PIPES
10
-6850.75
20
928.299227
30
0
11
-6850.75
21
-1071.710773
31
0
0
LINE
8
PIPES
10
-8069.55
20
-1071.710773
30
0
11
-8069.55
21
928.299227
31
0
0
LINE
8
PIPES
10
-9288.25
20
928.299227
30
0
11
-9288.25
21
-1071.710773
31
0
0
LINE
8
PIPES
10
-10507.03
20
-1071.710773
30
0
11
-10507.03
21
928.299227
31
0
0
LINE
8
PIPES
10
-11725.78
20
928.299227
30
0
11
-11725.78
21
-1071.710773
31
0
0
LINE
8
PIPES
10
-12944.54
20
-1071.710773
30
0
11
-12944.54
21
928.299227
31
0
0
LINE
8
PIPES
10
-14163.29
20
928.299227
30
0
11
-14163.29
21
-1071.710773
31
0
0
LINE
8
PIPES
10
-15382.04
20
-1071.710773
30
0
11
-15382.04
21
928.299227
31
0
0
LINE
8
PIPES
10
-16600.79
20
928.299227
30
0
11
-16600.79
21
-1071.710773
31
0
0
LINE
8
PIPES
10
-17819.54
20
-1071.710773
30
0
11
-17819.54
21
928.299227
31
0
0
LINE
8
PIPES
10
-19038.3
20
928.299227
30
0
11
-19038.3
21
-1071.710773
31
0
0
LINE
8
PIPES
10
-19038.3
20
928.299227
30
0
11
-20257.05
21
928.299227
31
0
0
LINE
8
PIPES
10
18743.05
20
928.299227
30
0
11
17524.25
21
928.299227
31
0
0
LINE
8
PIPES
10
17524.25
20
928.299227
30
0
11
16305.55
21
928.299227
31
0
0
LINE
8
PIPES
10
16305.55
20
928.299227
30
0
11
15086.75
21
928.299227
31
0
0
LINE
8
PIPES
10
15086.75
20
928.299227
30
0
11
13868.05
21
928.299227
31
0
0
LINE
8
PIPES
10
13868.05
20
928.299227
30
0
11
12649.25
21
928.299227
31
0
0
LINE
8
PIPES
10
12649.25
20
928.299227
30
0
11
11430.55
21
928.299227
31
0
0
LINE
8
PIPES
10
11430.55
20
928.299227
30
0
11
10211.75
21
928.299227
31
0
0
LINE
8
PIPES
10
10211.75
20
928.299227
30
0
11
8993.05
21
928.299227
31
0
0
LINE
8
PIPES
10
8993.05
20
928.299227
30
0
11
7774.25
21
928.299227
31
0
0
LINE
8
PIPES
10
7774.25
20
928.299227
30
0
11
6555.55
21
928.299227
31
0
0
LINE
8
PIPES
10
6555.55
20
928.299227
30
0
11
5336.75
21
928.299227
31
0
0
LINE
8
PIPES
10
5336.75
20
928.299227
30
0
11
4117.95
21
928.299227
31
0
0
LINE
8
PIPES
10
4117.95
20
928.299227
30
0
11
2899.25
21
928.299227
31
0
0
LINE
8
PIPES
10
2899.25
20
928.299227
30
0
11
1680.45
21
928.299227
31
0
0
LINE
8
PIPES
10
1680.45
20
928.299227
30
0
11
461.75
21
928.299227
31
0
0
LINE
8
PIPES
10
461.75
20
928.299227
30
0
11
-757.05
21
928.299227
31
0
0
LINE
8
PIPES
10
-757.05
20
928.299227
30
0
11
-1975.75
21
928.299227
31
0
0
LINE
8
PIPES
10
-1975.75
20
928.299227
30
0
11
-3194.55
21
928.299227
31
0
0
LINE
8
PIPES
10
-3194.55
20
928.299227
30
0
11
-4413.25
21
928.299227
31
0
0
LINE
8
PIPES
10
-4413.25
20
928.299227
30
0
11
-5632.05
21
928.299227
31
0
0
LINE
8
PIPES
10
-5632.05
20
928.299227
30
0
11
-6850.75
21
928.299227
31
0
0
LINE
8
PIPES
10
-6850.75
20
928.299227
30
0
11
-8069.55
21
928.299227
31
0
0
LINE
8
PIPES
10
-8069.55
20
928.299227
30
0
11
-9288.25
21
928.299227
31
0
0
LINE
8
PIPES
10
-9288.25
20
928.299227
30
0
11
-10507.03
21
928.299227
31
0
0
LINE
8
PIPES
10
-10507.03
20
928.299227
30
0
11
-11725.78
21
928.299227
31
0
0
LINE
8
PIPES
10
-11725.78
20
928.299227
30
0
11
-12944.54
21
928.299227
31
0
0
LINE
8
PIPES
10
-12944.54
20
928.299227
30
0
11
-14163.29
21
928.299227
31
0
0
LINE
8
PIPES
10
-14163.29
20
928.299227
30
0
11
-15382.04
21
928.299227
31
0
0
LINE
8
PIPES
10
-15382.04
20
928.299227
30
0
11
-16600.79
21
928.299227
31
0
0
LINE
8
PIPES
10
-16600.79
20
928.299227
30
0
11
-17819.54
21
928.299227
31
0
0
LINE
8
PIPES
10
-17819.54
20
928.299227
30
0
11
-19038.3
21
928.299227
31
0
0
LINE
8
PIPES
10
-20257.05
20
-1071.710773
30
0
11
-19038.3
21
928.299227
31
0
0
LINE
8
PIPES
10
-19038.3
20
928.299227
30
0
11
-17819.54
21
-1071.710773
31
0
0
LINE
8
PIPES
10
-17819.54
20
-1071.710773
30
0
11
-16600.79
21
928.299227
31
0
0
LINE
8
PIPES
10
-16600.79
20
928.299227
30
0
11
-15382.04
21
-1071.710773
31
0
0
LINE
8
PIPES
10
-15382.04
20
-1071.710773
30
0
11
-14163.29
21
928.299227
31
0
0
LINE
8
PIPES
10
-14163.29
20
928.299227
30
0
11
-12944.54
21
-1071.710773
31
0
0
LINE
8
PIPES
10
-12944.54
20
-1071.710773
30
0
11
-11725.78
21
928.299227
31
0
0
LINE
8
PIPES
10
-11725.78
20
928.299227
30
0
11
-10507.03
21
-1071.710773
31
0
0
LINE
8
PIPES
10
-10507.03
20
-1071.710773
30
0
11
-9288.25
21
928.299227
31
0
0
LINE
8
PIPES
10
-9288.25
20
928.299227
30
0
11
-8069.55
21
-1071.710773
31
0
0
LINE
8
PIPES
10
-8069.55
20
-1071.710773
30
0
11
-6850.75
21
928.299227
31
0
0
LINE
8
PIPES
10
-6850.75
20
928.299227
30
0
11
-5632.05
21
-1071.710773
31
0
0
LINE
8
PIPES
10
-5632.05
20
-1071.710773
30
0
11
-4413.25
21
928.299227
31
0
0
LINE
8
PIPES
10
-4413.25
20
928.299227
30
0
11
-3194.55
21
-1071.710773
31
0
0
LINE
8
PIPES
10
-3194.55
20
-1071.710773
30
0
11
-1975.75
21
928.299227
31
0
0
LINE
8
PIPES
10
-1975.75
20
928.299227
30
0
11
-757.05
21
-1071.710773
31
0
0
LINE
8
PIPES
10
-757.05
20
-1071.710773
30
0
11
461.75
21
928.299227
31
0
0
LINE
8
PIPES
10
461.75
20
928.299227
30
0
11
1680.45
21
-1071.710773
31
0
0
LINE
8
PIPES
10
1680.45
20
-1071.710773
30
0
11
2899.25
21
928.299227
31
0
0
LINE
8
PIPES
10
2899.25
20
928.299227
30
0
11
4117.95
21
-1071.710773
31
0
0
LINE
8
PIPES
10
4117.95
20
-1071.710773
30
0
11
5336.75
21
928.299227
31
0
0
LINE
8
PIPES
10
5336.75
20
928.299227
30
0
11
6555.55
21
-1071.710773
31
0
0
LINE
8
PIPES
10
6555.55
20
-1071.710773
30
0
11
7774.25
21
928.299227
31
0
0
LINE
8
PIPES
10
7774.25
20
928.299227
30
0
11
8993.05
21
-1071.710773
31
0
0
LINE
8
PIPES
10
8993.05
20
-1071.710773
30
0
11
10211.75
21
928.299227
31
0
0
LINE
8
PIPES
10
10211.75
20
928.299227
30
0
11
11430.55
21
-1071.710773
31
0
0
LINE
8
PIPES
10
11430.55
20
-1071.710773
30
0
11
12649.25
21
928.299227
31
0
0
LINE
8
PIPES
10
12649.25
20
928.299227
30
0
11
13868.05
21
-1071.710773
31
0
0
LINE
8
PIPES
10
13868.05
20
-1071.710773
30
0
11
15086.75
21
928.299227
31
0
0
LINE
8
PIPES
10
15086.75
20
928.299227
30
0
11
16305.55
21
-1071.710773
31
0
0
LINE
8
PIPES
10
16305.55
20
-1071.710773
30
0
11
17524.25
21
928.299227
31
0
0
LINE
8
PIPES
10
17524.25
20
928.299227
30
0
11
18743.05
21
-1071.710773
31
0
0
LINE
8
PIPES
10
-20257.05
20
928.299227
30
0
11
-19038.3
21
-1071.710773
31
0
0
LINE
8
PIPES
10
-19038.3
20
-1071.710773
30
0
11
-17819.54
21
928.299227
31
0
0
LINE
8
PIPES
10
-17819.54
20
928.299227
30
0
11
-16600.79
21
-1071.710773
31
0
0
LINE
8
PIPES
10
-16600.79
20
-1071.710773
30
0
11
-15382.04
21
928.299227
31
0
0
LINE
8
PIPES
10
-15382.04
20
928.299227
30
0
11
-14163.29
21
-1071.710773
31
0
0
LINE
8
PIPES
10
-14163.29
20
-1071.710773
30
0
11
-12944.54
21
928.299227
31
0
0
LINE
8
PIPES
10
-12944.54
20
928.299227
30
0
11
-11725.78
21
-1071.710773
31
0
0
LINE
8
PIPES
10
-11725.78
20
-1071.710773
30
0
11
-10507.03
21
928.299227
31
0
0
LINE
8
PIPES
10
-10507.03
20
928.299227
30
0
11
-9288.25
21
-1071.710773
31
0
0
LINE
8
PIPES
10
-9288.25
20
-1071.710773
30
0
11
-8069.55
21
928.299227
31
0
0
LINE
8
PIPES
10
-8069.55
20
928.299227
30
0
11
-6850.75
21
-1071.710773
31
0
0
LINE
8
PIPES
10
-6850.75
20
-1071.710773
30
0
11
-5632.05
21
928.299227
31
0
0
LINE
8
PIPES
10
-5632.05
20
928.299227
30
0
11
-4413.25
21
-1071.710773
31
0
0
LINE
8
PIPES
10
-4413.25
20
-1071.710773
30
0
11
-3194.55
21
928.299227
31
0
0
LINE
8
PIPES
10
-3194.55
20
928.299227
30
0
11
-1975.75
21
-1071.710773
31
0
0
LINE
8
PIPES
10
-1975.75
20
-1071.710773
30
0
11
-757.05
21
928.299227
31
0
0
LINE
8
PIPES
10
-757.05
20
928.299227
30
0
11
461.75
21
-1071.710773
31
0
0
LINE
8
PIPES
10
461.75
20
-1071.710773
30
0
11
1680.45
21
928.299227
31
0
0
LINE
8
PIPES
10
1680.45
20
928.299227
30
0
11
2899.25
21
-1071.710773
31
0
0
LINE
8
PIPES
10
2899.25
20
-1071.710773
30
0
11
4117.95
21
928.299227
31
0
0
LINE
8
PIPES
10
4117.95
20
928.299227
30
0
11
5336.75
21
-1071.710773
31
0
0
LINE
8
PIPES
10
5336.75
20
-1071.710773
30
0
11
6555.55
21
928.299227
31
0
0
LINE
8
PIPES
10
6555.55
20
928.299227
30
0
11
7774.25
21
-1071.710773
31
0
0
LINE
8
PIPES
10
7774.25
20
-1071.710773
30
0
11
8993.05
21
928.299227
31
0
0
LINE
8
PIPES
10
8993.05
20
928.299227
30
0
11
10211.75
21
-1071.710773
31
0
0
LINE
8
PIPES
10
10211.75
20
-1071.710773
30
0
11
11430.55
21
928.299227
31
0
0
LINE
8
PIPES
10
11430.55
20
928.299227
30
0
11
12649.25
21
-1071.710773
31
0
0
LINE
8
PIPES
10
12649.25
20
-1071.710773
30
0
11
13868.05
21
928.299227
31
0
0
LINE
8
PIPES
10
13868.05
20
928.299227
30
0
11
15086.75
21
-1071.710773
31
0
0
LINE
8
PIPES
10
15086.75
20
-1071.710773
30
0
11
16305.55
21
928.299227
31
0
0
LINE
8
PIPES
10
16305.55
20
928.299227
30
0
11
17524.25
21
-1071.710773
31
0
0
LINE
8
PIPES
10
17524.25
20
-1071.710773
30
0
11
18743.05
21
928.299227
31
0
0
LINE
8
PIPES
10
-20257.05
20
928.299227
30
0
11
-20257.05
21
2928.279227
31
0
0
LINE
8
PIPES
10
18743.05
20
928.299227
30
0
11
18743.05
21
2928.279227
31
0
0
LINE
8
PIPES
10
17524.25
20
2928.279227
30
0
11
17524.25
21
928.299227
31
0
0
LINE
8
PIPES
10
16305.55
20
928.299227
30
0
11
16305.55
21
2928.279227
31
0
0
LINE
8
PIPES
10
15086.75
20
2928.279227
30
0
11
15086.75
21
928.299227
31
0
0
LINE
8
PIPES
10
13868.05
20
928.299227
30
0
11
13868.05
21
2928.279227
31
0
0
LINE
8
PIPES
10
12649.25
20
2928.279227
30
0
11
12649.25
21
928.299227
31
0
0
LINE
8
PIPES
10
11430.55
20
928.299227
30
0
11
11430.55
21
2928.279227
31
0
0
LINE
8
PIPES
10
10211.75
20
2928.279227
30
0
11
10211.75
21
928.299227
31
0
0
LINE
8
PIPES
10
8993.05
20
928.299227
30
0
11
8993.05
21
2928.279227
31
0
0
LINE
8
PIPES
10
7774.25
20
2928.279227
30
0
11
7774.25
21
928.299227
31
0
0
LINE
8
PIPES
10
6555.55
20
928.299227
30
0
11
6555.55
21
2928.279227
31
0
0
LINE
8
PIPES
10
5336.75
20
2928.279227
30
0
11
5336.75
21
928.299227
31
0
0
LINE
8
PIPES
10
4117.95
20
928.299227
30
0
11
4117.95
21
2928.279227
31
0
0
LINE
8
PIPES
10
2899.25
20
2928.279227
30
0
11
2899.25
21
928.299227
31
0
0
LINE
8
PIPES
10
1680.45
20
928.299227
30
0
11
1680.45
21
2928.279227
31
0
0
LINE
8
PIPES
10
461.75
20
2928.279227
30
0
11
461.75
21
928.299227
31
0
0
LINE
8
PIPES
10
-757.05
20
928.299227
30
0
11
-757.05
21
2928.279227
31
0
0
LINE
8
PIPES
10
-1975.75
20
2928.279227
30
0
11
-1975.75
21
928.299227
31
0
0
LINE
8
PIPES
10
-3194.55
20
928.299227
30
0
11
-3194.55
21
2928.279227
31
0
0
LINE
8
PIPES
10
-4413.25
20
2928.279227
30
0
11
-4413.25
21
928.299227
31
0
0
LINE
8
PIPES
10
-5632.05
20
928.299227
30
0
11
-5632.05
21
2928.279227
31
0
0
LINE
8
PIPES
10
-6850.75
20
2928.279227
30
0
11
-6850.75
21
928.299227
31
0
0
LINE
8
PIPES
10
-8069.55
20
928.299227
30
0
11
-8069.55
21
2928.279227
31
0
0
LINE
8
PIPES
10
-9288.25
20
2928.279227
30
0
11
-9288.25
21
928.299227
31
0
0
LINE
8
PIPES
10
-10507.03
20
928.299227
30
0
11
-10507.03
21
2928.279227
31
0
0
LINE
8
PIPES
10
-11725.78
20
2928.279227
30
0
11
-11725.78
21
928.299227
31
0
0
LINE
8
PIPES
10
-12944.54
20
928.299227
30
0
11
-12944.54
21
2928.279227
31
0
0
LINE
8
PIPES
10
-14163.29
20
2928.279227
30
0
11
-14163.29
21
928.299227
31
0
0
LINE
8
PIPES
10
-15382.04
20
928.299227
30
0
11
-15382.04
21
2928.279227
31
0
0
LINE
8
PIPES
10
-16600.79
20
2928.279227
30
0
11
-16600.79
21
928.299227
31
0
0
LINE
8
PIPES
10
-17819.54
20
928.299227
30
0
11
-17819.54
21
2928.279227
31
0
0
LINE
8
PIPES
10
-19038.3
20
2928.279227
30
0
11
-19038.3
21
928.299227
31
0
0
LINE
8
PIPES
10
-19038.3
20
2928.279227
30
0
11
-20257.05
21
2928.279227
31
0
0
LINE
8
PIPES
10
18743.05
20
2928.279227
30
0
11
17524.25
21
2928.279227
31
0
0
LINE
8
PIPES
10
17524.25
20
2928.279227
30
0
11
16305.55
21
2928.279227
31
0
0
LINE
8
PIPES
10
16305.55
20
2928.279227
30
0
11
15086.75
21
2928.279227
31
0
0
LINE
8
PIPES
10
15086.75
20
2928.279227
30
0
11
13868.05
21
2928.279227
31
0
0
LINE
8
PIPES
10
13868.05
20
2928.279227
30
0
11
12649.25
21
2928.279227
31
0
0
LINE
8
PIPES
10
12649.25
20
2928.279227
30
0
11
11430.55
21
2928.279227
31
0
0
LINE
8
PIPES
10
11430.55
20
2928.279227
30
0
11
10211.75
21
2928.279227
31
0
0
LINE
8
PIPES
10
10211.75
20
2928.279227
30
0
11
8993.05
21
2928.279227
31
0
0
LINE
8
PIPES
10
8993.05
20
2928.279227
30
0
11
7774.25
21
2928.279227
31
0
0
LINE
8
PIPES
10
7774.25
20
2928.279227
30
0
11
6555.55
21
2928.279227
31
0
0
LINE
8
PIPES
10
6555.55
20
2928.279227
30
0
11
5336.75
21
2928.279227
31
0
0
LINE
8
PIPES
10
5336.75
20
2928.279227
30
0
11
4117.95
21
2928.279227
31
0
0
LINE
8
PIPES
10
4117.95
20
2928.279227
30
0
11
2899.25
21
2928.279227
31
0
0
LINE
8
PIPES
10
2899.25
20
2928.279227
30
0
11
1680.45
21
2928.279227
31
0
0
LINE
8
PIPES
10
1680.45
20
2928.279227
30
0
11
461.75
21
2928.279227
31
0
0
LINE
8
PIPES
10
461.75
20
2928.279227
30
0
11
-757.05
21
2928.279227
31
0
0
LINE
8
PIPES
10
-757.05
20
2928.279227
30
0
11
-1975.75
21
2928.279227
31
0
0
LINE
8
PIPES
10
-1975.75
20
2928.279227
30
0
11
-3194.55
21
2928.279227
31
0
0
LINE
8
PIPES
10
-3194.55
20
2928.279227
30
0
11
-4413.25
21
2928.279227
31
0
0
LINE
8
PIPES
10
-4413.25
20
2928.279227
30
0
11
-5632.05
21
2928.279227
31
0
0
LINE
8
PIPES
10
-5632.05
20
2928.279227
30
0
11
-6850.75
21
2928.279227
31
0
0
LINE
8
PIPES
10
-6850.75
20
2928.279227
30
0
11
-8069.55
21
2928.279227
31
0
0
LINE
8
PIPES
10
-8069.55
20
2928.279227
30
0
11
-9288.25
21
2928.279227
31
0
0
LINE
8
PIPES
10
-9288.25
20
2928.279227
30
0
11
-10507.03
21
2928.279227
31
0
0
LINE
8
PIPES
10
-10507.03
20
2928.279227
30
0
11
-11725.78
21
2928.279227
31
0
0
LINE
8
PIPES
10
-11725.78
20
2928.279227
30
0
11
-12944.54
21
2928.279227
31
0
0
LINE
8
PIPES
10
-12944.54
20
2928.279227
30
0
11
-14163.29
21
2928.279227
31
0
0
LINE
8
PIPES
10
-14163.29
20
2928.279227
30
0
11
-15382.04
21
2928.279227
31
0
0
LINE
8
PIPES
10
-15382.04
20
2928.279227
30
0
11
-16600.79
21
2928.279227
31
0
0
LINE
8
PIPES
10
-16600.79
20
2928.279227
30
0
11
-17819.54
21
2928.279227
31
0
0
LINE
8
PIPES
10
-17819.54
20
2928.279227
30
0
11
-19038.3
21
2928.279227
31
0
0
LINE
8
PIPES
10
-20257.05
20
928.299227
30
0
11
-19038.3
21
2928.279227
31
0
0
LINE
8
PIPES
10
-19038.3
20
2928.279227
30
0
11
-17819.54
21
928.299227
31
0
0
LINE
8
PIPES
10
-17819.54
20
928.299227
30
0
11
-16600.79
21
2928.279227
31
0
0
LINE
8
PIPES
10
-16600.79
20
2928.279227
30
0
11
-15382.04
21
928.299227
31
0
0
LINE
8
PIPES
10
-15382.04
20
928.299227
30
0
11
-14163.29
21
2928.279227
31
0
0
LINE
8
PIPES
10
-14163.29
20
2928.279227
30
0
11
-12944.54
21
928.299227
31
0
0
LINE
8
PIPES
10
-12944.54
20
928.299227
30
0
11
-11725.78
21
2928.279227
31
0
0
LINE
8
PIPES
10
-11725.78
20
2928.279227
30
0
11
-10507.03
21
928.299227
31
0
0
LINE
8
PIPES
10
-10507.03
20
928.299227
30
0
11
-9288.25
21
2928.279227
31
0
0
LINE
8
PIPES
10
-9288.25
20
2928.279227
30
0
11
-8069.55
21
928.299227
31
0
0
LINE
8
PIPES
10
-8069.55
20
928.299227
30
0
11
-6850.75
21
2928.279227
31
0
0
LINE
8
PIPES
10
-6850.75
20
2928.279227
30
0
11
-5632.05
21
928.299227
31
0
0
LINE
8
PIPES
10
-5632.05
20
928.299227
30
0
11
-4413.25
21
2928.279227
31
0
0
LINE
8
PIPES
10
-4413.25
20
2928.279227
30
0
11
-3194.55
21
928.299227
31
0
0
LINE
8
PIPES
10
-3194.55
20
928.299227
30
0
11
-1975.75
21
2928.279227
31
0
0
LINE
8
PIPES
10
-1975.75
20
2928.279227
30
0
11
-757.05
21
928.299227
31
0
0
LINE
8
PIPES
10
-757.05
20
928.299227
30
0
11
461.75
21
2928.279227
31
0
0
LINE
8
PIPES
10
461.75
20
2928.279227
30
0
11
1680.45
21
928.299227
31
0
0
LINE
8
PIPES
10
1680.45
20
928.299227
30
0
11
2899.25
21
2928.279227
31
0
0
LINE
8
PIPES
10
2899.25
20
2928.279227
30
0
11
4117.95
21
928.299227
31
0
0
LINE
8
PIPES
10
4117.95
20
928.299227
30
0
11
5336.75
21
2928.279227
31
0
0
LINE
8
PIPES
10
5336.75
20
2928.279227
30
0
11
6555.55
21
928.299227
31
0
0
LINE
8
PIPES
10
6555.55
20
928.299227
30
0
11
7774.25
21
2928.279227
31
0
0
LINE
8
PIPES
10
7774.25
20
2928.279227
30
0
11
8993.05
21
928.299227
31
0
0
LINE
8
PIPES
10
8993.05
20
928.299227
30
0
11
10211.75
21
2928.279227
31
0
0
LINE
8
PIPES
10
10211.75
20
2928.279227
30
0
11
11430.55
21
928.299227
31
0
0
LINE
8
PIPES
10
11430.55
20
928.299227
30
0
11
12649.25
21
2928.279227
31
0
0
LINE
8
PIPES
10
12649.25
20
2928.279227
30
0
11
13868.05
21
928.299227
31
0
0
LINE
8
PIPES
10
13868.05
20
928.299227
30
0
11
15086.75
21
2928.279227
31
0
0
LINE
8
PIPES
10
15086.75
20
2928.279227
30
0
11
16305.55
21
928.299227
31
0
0
LINE
8
PIPES
10
16305.55
20
928.299227
30
0
11
17524.25
21
2928.279227
31
0
0
LINE
8
PIPES
10
17524.25
20
2928.279227
30
0
11
18743.05
21
928.299227
31
0
0
LINE
8
PIPES
10
-20257.05
20
2928.279227
30
0
11
-19038.3
21
928.299227
31
0
0
LINE
8
PIPES
10
-19038.3
20
928.299227
30
0
11
-17819.54
21
2928.279227
31
0
0
LINE
8
PIPES
10
-17819.54
20
2928.279227
30
0
11
-16600.79
21
928.299227
31
0
0
LINE
8
PIPES
10
-16600.79
20
928.299227
30
0
11
-15382.04
21
2928.279227
31
0
0
LINE
8
PIPES
10
-15382.04
20
2928.279227
30
0
11
-14163.29
21
928.299227
31
0
0
LINE
8
PIPES
10
-14163.29
20
928.299227
30
0
11
-12944.54
21
2928.279227
31
0
0
LINE
8
PIPES
10
-12944.54
20
2928.279227
30
0
11
-11725.78
21
928.299227
31
0
0
LINE
8
PIPES
10
-11725.78
20
928.299227
30
0
11
-10507.03
21
2928.279227
31
0
0
LINE
8
PIPES
10
-10507.03
20
2928.279227
30
0
11
-9288.25
21
928.299227
31
0
0
LINE
8
PIPES
10
-9288.25
20
928.299227
30
0
11
-8069.55
21
2928.279227
31
0
0
LINE
8
PIPES
10
-8069.55
20
2928.279227
30
0
11
-6850.75
21
928.299227
31
0
0
LINE
8
PIPES
10
-6850.75
20
928.299227
30
0
11
-5632.05
21
2928.279227
31
0
0
LINE
8
PIPES
10
-5632.05
20
2928.279227
30
0
11
-4413.25
21
928.299227
31
0
0
LINE
8
PIPES
10
-4413.25
20
928.299227
30
0
11
-3194.55
21
2928.279227
31
0
0
LINE
8
PIPES
10
-3194.55
20
2928.279227
30
0
11
-1975.75
21
928.299227
31
0
0
LINE
8
PIPES
10
-1975.75
20
928.299227
30
0
11
-757.05
21
2928.279227
31
0
0
LINE
8
PIPES
10
-757.05
20
2928.279227
30
0
11
461.75
21
928.299227
31
0
0
LINE
8
PIPES
10
461.75
20
928.299227
30
0
11
1680.45
21
2928.279227
31
0
0
LINE
8
PIPES
10
1680.45
20
2928.279227
30
0
11
2899.25
21
928.299227
31
0
0
LINE
8
PIPES
10
2899.25
20
928.299227
30
0
11
4117.95
21
2928.279227
31
0
0
LINE
8
PIPES
10
4117.95
20
2928.279227
30
0
11
5336.75
21
928.299227
31
0
0
LINE
8
PIPES
10
5336.75
20
928.299227
30
0
11
6555.55
21
2928.279227
31
0
0
LINE
8
PIPES
10
6555.55
20
2928.279227
30
0
11
7774.25
21
928.299227
31
0
0
LINE
8
PIPES
10
7774.25
20
928.299227
30
0
11
8993.05
21
2928.279227
31
0
0
LINE
8
PIPES
10
8993.05
20
2928.279227
30
0
11
10211.75
21
928.299227
31
0
0
LINE
8
PIPES
10
10211.75
20
928.299227
30
0
11
11430.55
21
2928.279227
31
0
0
LINE
8
PIPES
10
11430.55
20
2928.279227
30
0
11
12649.25
21
928.299227
31
0
0
LINE
8
PIPES
10
12649.25
20
928.299227
30
0
11
13868.05
21
2928.279227
31
0
0
LINE
8
PIPES
10
13868.05
20
2928.279227
30
0
11
15086.75
21
928.299227
31
0
0
LINE
8
PIPES
10
15086.75
20
928.299227
30
0
11
16305.55
21
2928.279227
31
0
0
LINE
8
PIPES
10
16305.55
20
2928.279227
30
0
11
17524.25
21
928.299227
31
0
0
LINE
8
PIPES
10
17524.25
20
928.299227
30
0
11
18743.05
21
2928.279227
31
0
0
LINE
8
PIPES
10
-20257.05
20
2928.279227
30
0
11
-20257.05
21
4928.279227
31
0
0
LINE
8
PIPES
10
18743.05
20
2928.279227
30
0
11
18743.05
21
4928.279227
31
0
0
LINE
8
PIPES
10
17524.25
20
4928.279227
30
0
11
17524.25
21
2928.279227
31
0
0
LINE
8
PIPES
10
16305.55
20
2928.279227
30
0
11
16305.55
21
4928.279227
31
0
0
LINE
8
PIPES
10
15086.75
20
4928.279227
30
0
11
15086.75
21
2928.279227
31
0
0
LINE
8
PIPES
10
13868.05
20
2928.279227
30
0
11
13868.05
21
4928.279227
31
0
0
LINE
8
PIPES
10
12649.25
20
4928.279227
30
0
11
12649.25
21
2928.279227
31
0
0
LINE
8
PIPES
10
11430.55
20
2928.279227
30
0
11
11430.55
21
4928.279227
31
0
0
LINE
8
PIPES
10
10211.75
20
4928.279227
30
0
11
10211.75
21
2928.279227
31
0
0
LINE
8
PIPES
10
8993.05
20
2928.279227
30
0
11
8993.05
21
4928.279227
31
0
0
LINE
8
PIPES
10
7774.25
20
4928.279227
30
0
11
7774.25
21
2928.279227
31
0
0
LINE
8
PIPES
10
6555.55
20
2928.279227
30
0
11
6555.55
21
4928.279227
31
0
0
LINE
8
PIPES
10
5336.75
20
4928.279227
30
0
11
5336.75
21
2928.279227
31
0
0
LINE
8
PIPES
10
4117.95
20
2928.279227
30
0
11
4117.95
21
4928.279227
31
0
0
LINE
8
PIPES
10
2899.25
20
4928.279227
30
0
11
2899.25
21
2928.279227
31
0
0
LINE
8
PIPES
10
1680.45
20
2928.279227
30
0
11
1680.45
21
4928.279227
31
0
0
LINE
8
PIPES
10
461.75
20
4928.279227
30
0
11
461.75
21
2928.279227
31
0
0
LINE
8
PIPES
10
-757.05
20
2928.279227
30
0
11
-757.05
21
4928.279227
31
0
0
LINE
8
PIPES
10
-1975.75
20
4928.279227
30
0
11
-1975.75
21
2928.279227
31
0
0
LINE
8
PIPES
10
-3194.55
20
2928.279227
30
0
11
-3194.55
21
4928.279227
31
0
0
LINE
8
PIPES
10
-4413.25
20
4928.279227
30
0
11
-4413.25
21
2928.279227
31
0
0
LINE
8
PIPES
10
-5632.05
20
2928.279227
30
0
11
-5632.05
21
4928.279227
31
0
0
LINE
8
PIPES
10
-6850.75
20
4928.279227
30
0
11
-6850.75
21
2928.279227
31
0
0
LINE
8
PIPES
10
-8069.55
20
2928.279227
30
0
11
-8069.55
21
4928.279227
31
0
0
LINE
8
PIPES
10
-9288.25
20
4928.279227
30
0
11
-9288.25
21
2928.279227
31
0
0
LINE
8
PIPES
10
-10507.03
20
2928.279227
30
0
11
-10507.03
21
4928.279227
31
0
0
LINE
8
PIPES
10
-11725.78
20
4928.279227
30
0
11
-11725.78
21
2928.279227
31
0
0
LINE
8
PIPES
10
-12944.54
20
2928.279227
30
0
11
-12944.54
21
4928.279227
31
0
0
LINE
8
PIPES
10
-14163.29
20
4928.279227
30
0
11
-14163.29
21
2928.279227
31
0
0
LINE
8
PIPES
10
-15382.04
20
2928.279227
30
0
11
-15382.04
21
4928.279227
31
0
0
LINE
8
PIPES
10
-16600.79
20
4928.279227
30
0
11
-16600.79
21
2928.279227
31
0
0
LINE
8
PIPES
10
-17819.54
20
2928.279227
30
0
11
-17819.54
21
4928.279227
31
0
0
LINE
8
PIPES
10
-19038.3
20
4928.279227
30
0
11
-19038.3
21
2928.279227
31
0
0
LINE
8
PIPES
10
-19038.3
20
4928.279227
30
0
11
-20257.05
21
4928.279227
31
0
0
LINE
8
PIPES
10
18743.05
20
4928.279227
30
0
11
17524.25
21
4928.279227
31
0
0
LINE
8
PIPES
10
17524.25
20
4928.279227
30
0
11
16305.55
21
4928.279227
31
0
0
LINE
8
PIPES
10
16305.55
20
4928.279227
30
0
11
15086.75
21
4928.279227
31
0
0
LINE
8
PIPES
10
15086.75
20
4928.279227
30
0
11
13868.05
21
4928.279227
31
0
0
LINE
8
PIPES
10
13868.05
20
4928.279227
30
0
11
12649.25
21
4928.279227
31
0
0
LINE
8
PIPES
10
12649.25
20
4928.279227
30
0
11
11430.55
21
4928.279227
31
0
0
LINE
8
PIPES
10
11430.55
20
4928.279227
30
0
11
10211.75
21
4928.279227
31
0
0
LINE
8
PIPES
10
10211.75
20
4928.279227
30
0
11
8993.05
21
4928.279227
31
0
0
LINE
8
PIPES
10
8993.05
20
4928.279227
30
0
11
7774.25
21
4928.279227
31
0
0
LINE
8
PIPES
10
7774.25
20
4928.279227
30
0
11
6555.55
21
4928.279227
31
0
0
LINE
8
PIPES
10
6555.55
20
4928.279227
30
0
11
5336.75
21
4928.279227
31
0
0
LINE
8
PIPES
10
5336.75
20
4928.279227
30
0
11
4117.95
21
4928.279227
31
0
0
LINE
8
PIPES
10
4117.95
20
4928.279227
30
0
11
2899.25
21
4928.279227
31
0
0
LINE
8
PIPES
10
2899.25
20
4928.279227
30
0
11
1680.45
21
4928.279227
31
0
0
LINE
8
PIPES
10
1680.45
20
4928.279227
30
0
11
461.75
21
4928.279227
31
0
0
LINE
8
PIPES
10
461.75
20
4928.279227
30
0
11
-757.05
21
4928.279227
31
0
0
LINE
8
PIPES
10
-757.05
20
4928.279227
30
0
11
-1975.75
21
4928.279227
31
0
0
LINE
8
PIPES
10
-1975.75
20
4928.279227
30
0
11
-3194.55
21
4928.279227
31
0
0
LINE
8
PIPES
10
-3194.55
20
4928.279227
30
0
11
-4413.25
21
4928.279227
31
0
0
LINE
8
PIPES
10
-4413.25
20
4928.279227
30
0
11
-5632.05
21
4928.279227
31
0
0
LINE
8
PIPES
10
-5632.05
20
4928.279227
30
0
11
-6850.75
21
4928.279227
31
0
0
LINE
8
PIPES
10
-6850.75
20
4928.279227
30
0
11
-8069.55
21
4928.279227
31
0
0
LINE
8
PIPES
10
-8069.55
20
4928.279227
30
0
11
-9288.25
21
4928.279227
31
0
0
LINE
8
PIPES
10
-9288.25
20
4928.279227
30
0
11
-10507.03
21
4928.279227
31
0
0
LINE
8
PIPES
10
-10507.03
20
4928.279227
30
0
11
-11725.78
21
4928.279227
31
0
0
LINE
8
PIPES
10
-11725.78
20
4928.279227
30
0
11
-12944.54
21
4928.279227
31
0
0
LINE
8
PIPES
10
-12944.54
20
4928.279227
30
0
11
-14163.29
21
4928.279227
31
0
0
LINE
8
PIPES
10
-14163.29
20
4928.279227
30
0
11
-15382.04
21
4928.279227
31
0
0
LINE
8
PIPES
10
-15382.04
20
4928.279227
30
0
11
-16600.79
21
4928.279227
31
0
0
LINE
8
PIPES
10
-16600.79
20
4928.279227
30
0
11
-17819.54
21
4928.279227
31
0
0
LINE
8
PIPES
10
-17819.54
20
4928.279227
30
0
11
-19038.3
21
4928.279227
31
0
0
LINE
8
PIPES
10
-20257.05
20
2928.279227
30
0
11
-19038.3
21
4928.279227
31
0
0
LINE
8
PIPES
10
-19038.3
20
4928.279227
30
0
11
-17819.54
21
2928.279227
31
0
0
LINE
8
PIPES
10
-17819.54
20
2928.279227
30
0
11
-16600.79
21
4928.279227
31
0
0
LINE
8
PIPES
10
-16600.79
20
4928.279227
30
0
11
-15382.04
21
2928.279227
31
0
0
LINE
8
PIPES
10
-15382.04
20
2928.279227
30
0
11
-14163.29
21
4928.279227
31
0
0
LINE
8
PIPES
10
-14163.29
20
4928.279227
30
0
11
-12944.54
21
2928.279227
31
0
0
LINE
8
PIPES
10
-12944.54
20
2928.279227
30
0
11
-11725.78
21
4928.279227
31
0
0
LINE
8
PIPES
10
-11725.78
20
4928.279227
30
0
11
-10507.03
21
2928.279227
31
0
0
LINE
8
PIPES
10
-10507.03
20
2928.279227
30
0
11
-9288.25
21
4928.279227
31
0
0
LINE
8
PIPES
10
-9288.25
20
4928.279227
30
0
11
-8069.55
21
2928.279227
31
0
0
LINE
8
PIPES
10
-8069.55
20
2928.279227
30
0
11
-6850.75
21
4928.279227
31
0
0
LINE
8
PIPES
10
-6850.75
20
4928.279227
30
0
11
-5632.05
21
2928.279227
31
0
0
LINE
8
PIPES
10
-5632.05
20
2928.279227
30
0
11
-4413.25
21
4928.279227
31
0
0
LINE
8
PIPES
10
-4413.25
20
4928.279227
30
0
11
-3194.55
21
2928.279227
31
0
0
LINE
8
PIPES
10
-3194.55
20
2928.279227
30
0
11
-1975.75
21
4928.279227
31
0
0
LINE
8
PIPES
10
-1975.75
20
4928.279227
30
0
11
-757.05
21
2928.279227
31
0
0
LINE
8
PIPES
10
-757.05
20
2928.279227
30
0
11
461.75
21
4928.279227
31
0
0
LINE
8
PIPES
10
461.75
20
4928.279227
30
0
11
1680.45
21
2928.279227
31
0
0
LINE
8
PIPES
10
1680.45
20
2928.279227
30
0
11
2899.25
21
4928.279227
31
0
0
LINE
8
PIPES
10
2899.25
20
4928.279227
30
0
11
4117.95
21
2928.279227
31
0
0
LINE
8
PIPES
10
4117.95
20
2928.279227
30
0
11
5336.75
21
4928.279227
31
0
0
LINE
8
PIPES
10
5336.75
20
4928.279227
30
0
11
6555.55
21
2928.279227
31
0
0
LINE
8
PIPES
10
6555.55
20
2928.279227
30
0
11
7774.25
21
4928.279227
31
0
0
LINE
8
PIPES
10
7774.25
20
4928.279227
30
0
11
8993.05
21
2928.279227
31
0
0
LINE
8
PIPES
10
8993.05
20
2928.279227
30
0
11
10211.75
21
4928.279227
31
0
0
LINE
8
PIPES
10
10211.75
20
4928.279227
30
0
11
11430.55
21
2928.279227
31
0
0
LINE
8
PIPES
10
11430.55
20
2928.279227
30
0
11
12649.25
21
4928.279227
31
0
0
LINE
8
PIPES
10
12649.25
20
4928.279227
30
0
11
13868.05
21
2928.279227
31
0
0
LINE
8
PIPES
10
13868.05
20
2928.279227
30
0
11
15086.75
21
4928.279227
31
0
0
LINE
8
PIPES
10
15086.75
20
4928.279227
30
0
11
16305.55
21
2928.279227
31
0
0
LINE
8
PIPES
10
16305.55
20
2928.279227
30
0
11
17524.25
21
4928.279227
31
0
0
LINE
8
PIPES
10
17524.25
20
4928.279227
30
0
11
18743.05
21
2928.279227
31
0
0
LINE
8
PIPES
10
-20257.05
20
4928.279227
30
0
11
-19038.3
21
2928.279227
31
0
0
LINE
8
PIPES
10
-19038.3
20
2928.279227
30
0
11
-17819.54
21
4928.279227
31
0
0
LINE
8
PIPES
10
-17819.54
20
4928.279227
30
0
11
-16600.79
21
2928.279227
31
0
0
LINE
8
PIPES
10
-16600.79
20
2928.279227
30
0
11
-15382.04
21
4928.279227
31
0
0
LINE
8
PIPES
10
-15382.04
20
4928.279227
30
0
11
-14163.29
21
2928.279227
31
0
0
LINE
8
PIPES
10
-14163.29
20
2928.279227
30
0
11
-12944.54
21
4928.279227
31
0
0
LINE
8
PIPES
10
-12944.54
20
4928.279227
30
0
11
-11725.78
21
2928.279227
31
0
0
LINE
8
PIPES
10
-11725.78
20
2928.279227
30
0
11
-10507.03
21
4928.279227
31
0
0
LINE
8
PIPES
10
-10507.03
20
4928.279227
30
0
11
-9288.25
21
2928.279227
31
0
0
LINE
8
PIPES
10
-9288.25
20
2928.279227
30
0
11
-8069.55
21
4928.279227
31
0
0
LINE
8
PIPES
10
-8069.55
20
4928.279227
30
0
11
-6850.75
21
2928.279227
31
0
0
LINE
8
PIPES
10
-6850.75
20
2928.279227
30
0
11
-5632.05
21
4928.279227
31
0
0
LINE
8
PIPES
10
-5632.05
20
4928.279227
30
0
11
-4413.25
21
2928.279227
31
0
0
LINE
8
PIPES
10
-4413.25
20
2928.279227
30
0
11
-3194.55
21
4928.279227
31
0
0
LINE
8
PIPES
10
-3194.55
20
4928.279227
30
0
11
-1975.75
21
2928.279227
31
0
0
LINE
8
PIPES
10
-1975.75
20
2928.279227
30
0
11
-757.05
21
4928.279227
31
0
0
LINE
8
PIPES
10
-757.05
20
4928.279227
30
0
11
461.75
21
2928.279227
31
0
0
LINE
8
PIPES
10
461.75
20
2928.279227
30
0
11
1680.45
21
4928.279227
31
0
0
LINE
8
PIPES
10
1680.45
20
4928.279227
30
0
11
2899.25
21
2928.279227
31
0
0
LINE
8
PIPES
10
2899.25
20
2928.279227
30
0
11
4117.95
21
4928.279227
31
0
0
LINE
8
PIPES
10
4117.95
20
4928.279227
30
0
11
5336.75
21
2928.279227
31
0
0
LINE
8
PIPES
10
5336.75
20
2928.279227
30
0
11
6555.55
21
4928.279227
31
0
0
LINE
8
PIPES
10
6555.55
20
4928.279227
30
0
11
7774.25
21
2928.279227
31
0
0
LINE
8
PIPES
10
7774.25
20
2928.279227
30
0
11
8993.05
21
4928.279227
31
0
0
LINE
8
PIPES
10
8993.05
20
4928.279227
30
0
11
10211.75
21
2928.279227
31
0
0
LINE
8
PIPES
10
10211.75
20
2928.279227
30
0
11
11430.55
21
4928.279227
31
0
0
LINE
8
PIPES
10
11430.55
20
4928.279227
30
0
11
12649.25
21
2928.279227
31
0
0
LINE
8
PIPES
10
12649.25
20
2928.279227
30
0
11
13868.05
21
4928.279227
31
0
0
LINE
8
PIPES
10
13868.05
20
4928.279227
30
0
11
15086.75
21
2928.279227
31
0
0
LINE
8
PIPES
10
15086.75
20
2928.279227
30
0
11
16305.55
21
4928.279227
31
0
0
LINE
8
PIPES
10
16305.55
20
4928.279227
30
0
11
17524.25
21
2928.279227
31
0
0
LINE
8
PIPES
10
17524.25
20
2928.279227
30
0
11
18743.05
21
4928.279227
31
0
0
LINE
8
PIPES
10
-20257.05
20
4928.279227
30
0
11
-20257.05
21
6928.279227
31
0
0
LINE
8
PIPES
10
18743.05
20
4928.279227
30
0
11
18743.05
21
6928.279227
31
0
0
LINE
8
PIPES
10
17524.25
20
6928.279227
30
0
11
17524.25
21
4928.279227
31
0
0
LINE
8
PIPES
10
16305.55
20
4928.279227
30
0
11
16305.55
21
6928.279227
31
0
0
LINE
8
PIPES
10
15086.75
20
6928.279227
30
0
11
15086.75
21
4928.279227
31
0
0
LINE
8
PIPES
10
13868.05
20
4928.279227
30
0
11
13868.05
21
6928.279227
31
0
0
LINE
8
PIPES
10
12649.25
20
6928.279227
30
0
11
12649.25
21
4928.279227
31
0
0
LINE
8
PIPES
10
11430.55
20
4928.279227
30
0
11
11430.55
21
6928.279227
31
0
0
LINE
8
PIPES
10
10211.75
20
6928.279227
30
0
11
10211.75
21
4928.279227
31
0
0
LINE
8
PIPES
10
8993.05
20
4928.279227
30
0
11
8993.05
21
6928.279227
31
0
0
LINE
8
PIPES
10
7774.25
20
6928.279227
30
0
11
7774.25
21
4928.279227
31
0
0
LINE
8
PIPES
10
6555.55
20
4928.279227
30
0
11
6555.55
21
6928.279227
31
0
0
LINE
8
PIPES
10
5336.75
20
6928.279227
30
0
11
5336.75
21
4928.279227
31
0
0
LINE
8
PIPES
10
4117.95
20
4928.279227
30
0
11
4117.95
21
6928.279227
31
0
0
LINE
8
PIPES
10
2899.25
20
6928.279227
30
0
11
2899.25
21
4928.279227
31
0
0
LINE
8
PIPES
10
1680.45
20
4928.279227
30
0
11
1680.45
21
6928.279227
31
0
0
LINE
8
PIPES
10
461.75
20
6928.279227
30
0
11
461.75
21
4928.279227
31
0
0
LINE
8
PIPES
10
-757.05
20
4928.279227
30
0
11
-757.05
21
6928.279227
31
0
0
LINE
8
PIPES
10
-1975.75
20
6928.279227
30
0
11
-1975.75
21
4928.279227
31
0
0
LINE
8
PIPES
10
-3194.55
20
4928.279227
30
0
11
-3194.55
21
6928.279227
31
0
0
LINE
8
PIPES
10
-4413.25
20
6928.279227
30
0
11
-4413.25
21
4928.279227
31
0
0
LINE
8
PIPES
10
-5632.05
20
4928.279227
30
0
11
-5632.05
21
6928.279227
31
0
0
LINE
8
PIPES
10
-6850.75
20
6928.279227
30
0
11
-6850.75
21
4928.279227
31
0
0
LINE
8
PIPES
10
-8069.55
20
4928.279227
30
0
11
-8069.55
21
6928.279227
31
0
0
LINE
8
PIPES
10
-9288.25
20
6928.279227
30
0
11
-9288.25
21
4928.279227
31
0
0
LINE
8
PIPES
10
-10507.03
20
4928.279227
30
0
11
-10507.03
21
6928.279227
31
0
0
LINE
8
PIPES
10
-11725.78
20
6928.279227
30
0
11
-11725.78
21
4928.279227
31
0
0
LINE
8
PIPES
10
-12944.54
20
4928.279227
30
0
11
-12944.54
21
6928.279227
31
0
0
LINE
8
PIPES
10
-14163.29
20
6928.279227
30
0
11
-14163.29
21
4928.279227
31
0
0
LINE
8
PIPES
10
-15382.04
20
4928.279227
30
0
11
-15382.04
21
6928.279227
31
0
0
LINE
8
PIPES
10
-16600.79
20
6928.279227
30
0
11
-16600.79
21
4928.279227
31
0
0
LINE
8
PIPES
10
-17819.54
20
4928.279227
30
0
11
-17819.54
21
6928.279227
31
0
0
LINE
8
PIPES
10
-19038.3
20
6928.279227
30
0
11
-19038.3
21
4928.279227
31
0
0
LINE
8
PIPES
10
-19038.3
20
6928.279227
30
0
11
-20257.05
21
6928.279227
31
0
0
LINE
8
PIPES
10
18743.05
20
6928.279227
30
0
11
17524.25
21
6928.279227
31
0
0
LINE
8
PIPES
10
17524.25
20
6928.279227
30
0
11
16305.55
21
6928.279227
31
0
0
LINE
8
PIPES
10
16305.55
20
6928.279227
30
0
11
15086.75
21
6928.279227
31
0
0
LINE
8
PIPES
10
15086.75
20
6928.279227
30
0
11
13868.05
21
6928.279227
31
0
0
LINE
8
PIPES
10
13868.05
20
6928.279227
30
0
11
12649.25
21
6928.279227
31
0
0
LINE
8
PIPES
10
12649.25
20
6928.279227
30
0
11
11430.55
21
6928.279227
31
0
0
LINE
8
PIPES
10
11430.55
20
6928.279227
30
0
11
10211.75
21
6928.279227
31
0
0
LINE
8
PIPES
10
10211.75
20
6928.279227
30
0
11
8993.05
21
6928.279227
31
0
0
LINE
8
PIPES
10
8993.05
20
6928.279227
30
0
11
7774.25
21
6928.279227
31
0
0
LINE
8
PIPES
10
7774.25
20
6928.279227
30
0
11
6555.55
21
6928.279227
31
0
0
LINE
8
PIPES
10
6555.55
20
6928.279227
30
0
11
5336.75
21
6928.279227
31
0
0
LINE
8
PIPES
10
5336.75
20
6928.279227
30
0
11
4117.95
21
6928.279227
31
0
0
LINE
8
PIPES
10
4117.95
20
6928.279227
30
0
11
2899.25
21
6928.279227
31
0
0
LINE
8
PIPES
10
2899.25
20
6928.279227
30
0
11
1680.45
21
6928.279227
31
0
0
LINE
8
PIPES
10
1680.45
20
6928.279227
30
0
11
461.75
21
6928.279227
31
0
0
LINE
8
PIPES
10
461.75
20
6928.279227
30
0
11
-757.05
21
6928.279227
31
0
0
LINE
8
PIPES
10
-757.05
20
6928.279227
30
0
11
-1975.75
21
6928.279227
31
0
0
LINE
8
PIPES
10
-1975.75
20
6928.279227
30
0
11
-3194.55
21
6928.279227
31
0
0
LINE
8
PIPES
10
-3194.55
20
6928.279227
30
0
11
-4413.25
21
6928.279227
31
0
0
LINE
8
PIPES
10
-4413.25
20
6928.279227
30
0
11
-5632.05
21
6928.279227
31
0
0
LINE
8
PIPES
10
-5632.05
20
6928.279227
30
0
11
-6850.75
21
6928.279227
31
0
0
LINE
8
PIPES
10
-6850.75
20
6928.279227
30
0
11
-8069.55
21
6928.279227
31
0
0
LINE
8
PIPES
10
-8069.55
20
6928.279227
30
0
11
-9288.25
21
6928.279227
31
0
0
LINE
8
PIPES
10
-9288.25
20
6928.279227
30
0
11
-10507.03
21
6928.279227
31
0
0
LINE
8
PIPES
10
-10507.03
20
6928.279227
30
0
11
-11725.78
21
6928.279227
31
0
0
LINE
8
PIPES
10
-11725.78
20
6928.279227
30
0
11
-12944.54
21
6928.279227
31
0
0
LINE
8
PIPES
10
-12944.54
20
6928.279227
30
0
11
-14163.29
21
6928.279227
31
0
0
LINE
8
PIPES
10
-14163.29
20
6928.279227
30
0
11
-15382.04
21
6928.279227
31
0
0
LINE
8
PIPES
10
-15382.04
20
6928.279227
30
0
11
-16600.79
21
6928.279227
31
0
0
LINE
8
PIPES
10
-16600.79
20
6928.279227
30
0
11
-17819.54
21
6928.279227
31
0
0
LINE
8
PIPES
10
-17819.54
20
6928.279227
30
0
11
-19038.3
21
6928.279227
31
0
0
LINE
8
PIPES
10
-20257.05
20
4928.279227
30
0
11
-19038.3
21
6928.279227
31
0
0
LINE
8
PIPES
10
-19038.3
20
6928.279227
30
0
11
-17819.54
21
4928.279227
31
0
0
LINE
8
PIPES
10
-17819.54
20
4928.279227
30
0
11
-16600.79
21
6928.279227
31
0
0
LINE
8
PIPES
10
-16600.79
20
6928.279227
30
0
11
-15382.04
21
4928.279227
31
0
0
LINE
8
PIPES
10
-15382.04
20
4928.279227
30
0
11
-14163.29
21
6928.279227
31
0
0
LINE
8
PIPES
10
-14163.29
20
6928.279227
30
0
11
-12944.54
21
4928.279227
31
0
0
LINE
8
PIPES
10
-12944.54
20
4928.279227
30
0
11
-11725.78
21
6928.279227
31
0
0
LINE
8
PIPES
10
-11725.78
20
6928.279227
30
0
11
-10507.03
21
4928.279227
31
0
0
LINE
8
PIPES
10
-10507.03
20
4928.279227
30
0
11
-9288.25
21
6928.279227
31
0
0
LINE
8
PIPES
10
-9288.25
20
6928.279227
30
0
11
-8069.55
21
4928.279227
31
0
0
LINE
8
PIPES
10
-8069.55
20
4928.279227
30
0
11
-6850.75
21
6928.279227
31
0
0
LINE
8
PIPES
10
-6850.75
20
6928.279227
30
0
11
-5632.05
21
4928.279227
31
0
0
LINE
8
PIPES
10
-5632.05
20
4928.279227
30
0
11
-4413.25
21
6928.279227
31
0
0
LINE
8
PIPES
10
-4413.25
20
6928.279227
30
0
11
-3194.55
21
4928.279227
31
0
0
LINE
8
PIPES
10
-3194.55
20
4928.279227
30
0
11
-1975.75
21
6928.279227
31
0
0
LINE
8
PIPES
10
-1975.75
20
6928.279227
30
0
11
-757.05
21
4928.279227
31
0
0
LINE
8
PIPES
10
-757.05
20
4928.279227
30
0
11
461.75
21
6928.279227
31
0
0
LINE
8
PIPES
10
461.75
20
6928.279227
30
0
11
1680.45
21
4928.279227
31
0
0
LINE
8
PIPES
10
1680.45
20
4928.279227
30
0
11
2899.25
21
6928.279227
31
0
0
LINE
8
PIPES
10
2899.25
20
6928.279227
30
0
11
4117.95
21
4928.279227
31
0
0
LINE
8
PIPES
10
4117.95
20
4928.279227
30
0
11
5336.75
21
6928.279227
31
0
0
LINE
8
PIPES
10
5336.75
20
6928.279227
30
0
11
6555.55
21
4928.279227
31
0
0
LINE
8
PIPES
10
6555.55
20
4928.279227
30
0
11
7774.25
21
6928.279227
31
0
0
LINE
8
PIPES
10
7774.25
20
6928.279227
30
0
11
8993.05
21
4928.279227
31
0
0
LINE
8
PIPES
10
8993.05
20
4928.279227
30
0
11
10211.75
21
6928.279227
31
0
0
LINE
8
PIPES
10
10211.75
20
6928.279227
30
0
11
11430.55
21
4928.279227
31
0
0
LINE
8
PIPES
10
11430.55
20
4928.279227
30
0
11
12649.25
21
6928.279227
31
0
0
LINE
8
PIPES
10
12649.25
20
6928.279227
30
0
11
13868.05
21
4928.279227
31
0
0
LINE
8
PIPES
10
13868.05
20
4928.279227
30
0
11
15086.75
21
6928.279227
31
0
0
LINE
8
PIPES
10
15086.75
20
6928.279227
30
0
11
16305.55
21
4928.279227
31
0
0
LINE
8
PIPES
10
16305.55
20
4928.279227
30
0
11
17524.25
21
6928.279227
31
0
0
LINE
8
PIPES
10
17524.25
20
6928.279227
30
0
11
18743.05
21
4928.279227
31
0
0
LINE
8
PIPES
10
-20257.05
20
6928.279227
30
0
11
-19038.3
21
4928.279227
31
0
0
LINE
8
PIPES
10
-19038.3
20
4928.279227
30
0
11
-17819.54
21
6928.279227
31
0
0
LINE
8
PIPES
10
-17819.54
20
6928.279227
30
0
11
-16600.79
21
4928.279227
31
0
0
LINE
8
PIPES
10
-16600.79
20
4928.279227
30
0
11
-15382.04
21
6928.279227
31
0
0
LINE
8
PIPES
10
-15382.04
20
6928.279227
30
0
11
-14163.29
21
4928.279227
31
0
0
LINE
8
PIPES
10
-14163.29
20
4928.279227
30
0
11
-12944.54
21
6928.279227
31
0
0
LINE
8
PIPES
10
-12944.54
20
6928.279227
30
0
11
-11725.78
21
4928.279227
31
0
0
LINE
8
PIPES
10
-11725.78
20
4928.279227
30
0
11
-10507.03
21
6928.279227
31
0
0
LINE
8
PIPES
10
-10507.03
20
6928.279227
30
0
11
-9288.25
21
4928.279227
31
0
0
LINE
8
PIPES
10
-9288.25
20
4928.279227
30
0
11
-8069.55
21
6928.279227
31
0
0
LINE
8
PIPES
10
-8069.55
20
6928.279227
30
0
11
-6850.75
21
4928.279227
31
0
0
LINE
8
PIPES
10
-6850.75
20
4928.279227
30
0
11
-5632.05
21
6928.279227
31
0
0
LINE
8
PIPES
10
-5632.05
20
6928.279227
30
0
11
-4413.25
21
4928.279227
31
0
0
LINE
8
PIPES
10
-4413.25
20
4928.279227
30
0
11
-3194.55
21
6928.279227
31
0
0
LINE
8
PIPES
10
-3194.55
20
6928.279227
30
0
11
-1975.75
21
4928.279227
31
0
0
LINE
8
PIPES
10
-1975.75
20
4928.279227
30
0
11
-757.05
21
6928.279227
31
0
0
LINE
8
PIPES
10
-757.05
20
6928.279227
30
0
11
461.75
21
4928.279227
31
0
0
LINE
8
PIPES
10
461.75
20
4928.279227
30
0
11
1680.45
21
6928.279227
31
0
0
LINE
8
PIPES
10
1680.45
20
6928.279227
30
0
11
2899.25
21
4928.279227
31
0
0
LINE
8
PIPES
10
2899.25
20
4928.279227
30
0
11
4117.95
21
6928.279227
31
0
0
LINE
8
PIPES
10
4117.95
20
6928.279227
30
0
11
5336.75
21
4928.279227
31
0
0
LINE
8
PIPES
10
5336.75
20
4928.279227
30
0
11
6555.55
21
6928.279227
31
0
0
LINE
8
PIPES
10
6555.55
20
6928.279227
30
0
11
7774.25
21
4928.279227
31
0
0
LINE
8
PIPES
10
7774.25
20
4928.279227
30
0
11
8993.05
21
6928.279227
31
0
0
LINE
8
PIPES
10
8993.05
20
6928.279227
30
0
11
10211.75
21
4928.279227
31
0
0
LINE
8
PIPES
10
10211.75
20
4928.279227
30
0
11
11430.55
21
6928.279227
31
0
0
LINE
8
PIPES
10
11430.55
20
6928.279227
30
0
11
12649.25
21
4928.279227
31
0
0
LINE
8
PIPES
10
12649.25
20
4928.279227
30
0
11
13868.05
21
6928.279227
31
0
0
LINE
8
PIPES
10
13868.05
20
6928.279227
30
0
11
15086.75
21
4928.279227
31
0
0
LINE
8
PIPES
10
15086.75
20
4928.279227
30
0
11
16305.55
21
6928.279227
31
0
0
LINE
8
PIPES
10
16305.55
20
6928.279227
30
0
11
17524.25
21
4928.279227
31
0
0
LINE
8
PIPES
10
17524.25
20
4928.279227
30
0
11
18743.05
21
6928.279227
31
0
0
LINE
8
PIPES
10
-20257.05
20
6928.279227
30
0
11
-20257.05
21
7428.279227
31
0
0
LINE
8
PIPES
10
18743.05
20
6928.279227
30
0
11
18743.05
21
7428.279227
31
0
0
LINE
8
PIPES
10
17524.25
20
6928.279227
30
0
11
17524.25
21
7428.279227
31
0
0
LINE
8
PIPES
10
16305.55
20
6928.279227
30
0
11
16305.55
21
7428.279227
31
0
0
LINE
8
PIPES
10
15086.75
20
6928.279227
30
0
11
15086.75
21
7428.279227
31
0
0
LINE
8
PIPES
10
13868.05
20
6928.279227
30
0
11
13868.05
21
7428.279227
31
0
0
LINE
8
PIPES
10
12649.25
20
6928.279227
30
0
11
12649.25
21
7428.279227
31
0
0
LINE
8
PIPES
10
11430.55
20
6928.279227
30
0
11
11430.55
21
7428.279227
31
0
0
LINE
8
PIPES
10
10211.75
20
6928.279227
30
0
11
10211.75
21
7428.279227
31
0
0
LINE
8
PIPES
10
8993.05
20
6928.279227
30
0
11
8993.05
21
7428.279227
31
0
0
LINE
8
PIPES
10
7774.25
20
6928.279227
30
0
11
7774.25
21
7428.279227
31
0
0
LINE
8
PIPES
10
6555.55
20
6928.279227
30
0
11
6555.55
21
7428.279227
31
0
0
LINE
8
PIPES
10
5336.75
20
6928.279227
30
0
11
5336.75
21
7428.279227
31
0
0
LINE
8
PIPES
10
4117.95
20
6928.279227
30
0
11
4117.95
21
7428.279227
31
0
0
LINE
8
PIPES
10
2899.25
20
6928.279227
30
0
11
2899.25
21
7428.279227
31
0
0
LINE
8
PIPES
10
1680.45
20
6928.279227
30
0
11
1680.45
21
7428.279227
31
0
0
LINE
8
PIPES
10
461.75
20
6928.279227
30
0
11
461.75
21
7428.279227
31
0
0
LINE
8
PIPES
10
-757.05
20
6928.279227
30
0
11
-757.05
21
7428.279227
31
0
0
LINE
8
PIPES
10
-1975.75
20
6928.279227
30
0
11
-1975.75
21
7428.279227
31
0
0
LINE
8
PIPES
10
-3194.55
20
6928.279227
30
0
11
-3194.55
21
7428.279227
31
0
0
LINE
8
PIPES
10
-4413.25
20
6928.279227
30
0
11
-4413.25
21
7428.279227
31
0
0
LINE
8
PIPES
10
-5632.05
20
6928.279227
30
0
11
-5632.05
21
7428.279227
31
0
0
LINE
8
PIPES
10
-6850.75
20
6928.279227
30
0
11
-6850.75
21
7428.279227
31
0
0
LINE
8
PIPES
10
-8069.55
20
6928.279227
30
0
11
-8069.55
21
7428.279227
31
0
0
LINE
8
PIPES
10
-9288.25
20
6928.279227
30
0
11
-9288.25
21
7428.279227
31
0
0
LINE
8
PIPES
10
-10507.03
20
6928.279227
30
0
11
-10507.03
21
7428.279227
31
0
0
LINE
8
PIPES
10
-11725.78
20
6928.279227
30
0
11
-11725.78
21
7428.279227
31
0
0
LINE
8
PIPES
10
-12944.54
20
6928.279227
30
0
11
-12944.54
21
7428.279227
31
0
0
LINE
8
PIPES
10
-14163.29
20
6928.279227
30
0
11
-14163.29
21
7428.279227
31
0
0
LINE
8
PIPES
10
-15382.04
20
6928.279227
30
0
11
-15382.04
21
7428.279227
31
0
0
LINE
8
PIPES
10
-16600.79
20
6928.279227
30
0
11
-16600.79
21
7428.279227
31
0
0
LINE
8
PIPES
10
-17819.54
20
6928.279227
30
0
11
-17819.54
21
7428.279227
31
0
0
LINE
8
PIPES
10
-19038.3
20
6928.279227
30
0
11
-19038.3
21
7428.279227
31
0
0
LINE
8
PIPES
10
-19038.3
20
7428.279227
30
0
11
-20257.05
21
7428.279227
31
0
0
LINE
8
PIPES
10
18743.05
20
7428.279227
30
0
11
17524.25
21
7428.279227
31
0
0
LINE
8
PIPES
10
17524.25
20
7428.279227
30
0
11
16305.55
21
7428.279227
31
0
0
LINE
8
PIPES
10
16305.55
20
7428.279227
30
0
11
15086.75
21
7428.279227
31
0
0
LINE
8
PIPES
10
15086.75
20
7428.279227
30
0
11
13868.05
21
7428.279227
31
0
0
LINE
8
PIPES
10
13868.05
20
7428.279227
30
0
11
12649.25
21
7428.279227
31
0
0
LINE
8
PIPES
10
12649.25
20
7428.279227
30
0
11
11430.55
21
7428.279227
31
0
0
LINE
8
PIPES
10
11430.55
20
7428.279227
30
0
11
10211.75
21
7428.279227
31
0
0
LINE
8
PIPES
10
10211.75
20
7428.279227
30
0
11
8993.05
21
7428.279227
31
0
0
LINE
8
PIPES
10
8993.05
20
7428.279227
30
0
11
7774.25
21
7428.279227
31
0
0
LINE
8
PIPES
10
7774.25
20
7428.279227
30
0
11
6555.55
21
7428.279227
31
0
0
LINE
8
PIPES
10
6555.55
20
7428.279227
30
0
11
5336.75
21
7428.279227
31
0
0
LINE
8
PIPES
10
5336.75
20
7428.279227
30
0
11
4117.95
21
7428.279227
31
0
0
LINE
8
PIPES
10
4117.95
20
7428.279227
30
0
11
2899.25
21
7428.279227
31
0
0
LINE
8
PIPES
10
2899.25
20
7428.279227
30
0
11
1680.45
21
7428.279227
31
0
0
LINE
8
PIPES
10
1680.45
20
7428.279227
30
0
11
461.75
21
7428.279227
31
0
0
LINE
8
PIPES
10
461.75
20
7428.279227
30
0
11
-757.05
21
7428.279227
31
0
0
LINE
8
PIPES
10
-757.05
20
7428.279227
30
0
11
-1975.75
21
7428.279227
31
0
0
LINE
8
PIPES
10
-1975.75
20
7428.279227
30
0
11
-3194.55
21
7428.279227
31
0
0
LINE
8
PIPES
10
-3194.55
20
7428.279227
30
0
11
-4413.25
21
7428.279227
31
0
0
LINE
8
PIPES
10
-4413.25
20
7428.279227
30
0
11
-5632.05
21
7428.279227
31
0
0
LINE
8
PIPES
10
-5632.05
20
7428.279227
30
0
11
-6850.75
21
7428.279227
31
0
0
LINE
8
PIPES
10
-6850.75
20
7428.279227
30
0
11
-8069.55
21
7428.279227
31
0
0
LINE
8
PIPES
10
-8069.55
20
7428.279227
30
0
11
-9288.25
21
7428.279227
31
0
0
LINE
8
PIPES
10
-9288.25
20
7428.279227
30
0
11
-10507.03
21
7428.279227
31
0
0
LINE
8
PIPES
10
-10507.03
20
7428.279227
30
0
11
-11725.78
21
7428.279227
31
0
0
LINE
8
PIPES
10
-11725.78
20
7428.279227
30
0
11
-12944.54
21
7428.279227
31
0
0
LINE
8
PIPES
10
-12944.54
20
7428.279227
30
0
11
-14163.29
21
7428.279227
31
0
0
LINE
8
PIPES
10
-14163.29
20
7428.279227
30
0
11
-15382.04
21
7428.279227
31
0
0
LINE
8
PIPES
10
-15382.04
20
7428.279227
30
0
11
-16600.79
21
7428.279227
31
0
0
LINE
8
PIPES
10
-16600.79
20
7428.279227
30
0
11
-17819.54
21
7428.279227
31
0
0
LINE
8
PIPES
10
-17819.54
20
7428.279227
30
0
11
-19038.3
21
7428.279227
31
0
0
LINE
8
PIPES
10
-20257.05
20
7428.279227
30
0
11
-20257.05
21
7928.279227
31
0
0
LINE
8
PIPES
10
18743.05
20
7428.279227
30
0
11
18743.05
21
7928.279227
31
0
0
LINE
8
PIPES
10
17524.25
20
7428.279227
30
0
11
17524.25
21
7928.279227
31
0
0
LINE
8
PIPES
10
16305.55
20
7428.279227
30
0
11
16305.55
21
7928.279227
31
0
0
LINE
8
PIPES
10
15086.75
20
7428.279227
30
0
11
15086.75
21
7928.279227
31
0
0
LINE
8
PIPES
10
13868.05
20
7428.279227
30
0
11
13868.05
21
7928.279227
31
0
0
LINE
8
PIPES
10
12649.25
20
7428.279227
30
0
11
12649.25
21
7928.279227
31
0
0
LINE
8
PIPES
10
11430.55
20
7428.279227
30
0
11
11430.55
21
7928.279227
31
0
0
LINE
8
PIPES
10
10211.75
20
7428.279227
30
0
11
10211.75
21
7928.279227
31
0
0
LINE
8
PIPES
10
8993.05
20
7428.279227
30
0
11
8993.05
21
7928.279227
31
0
0
LINE
8
PIPES
10
7774.25
20
7428.279227
30
0
11
7774.25
21
7928.279227
31
0
0
LINE
8
PIPES
10
6555.55
20
7428.279227
30
0
11
6555.55
21
7928.279227
31
0
0
LINE
8
PIPES
10
5336.75
20
7428.279227
30
0
11
5336.75
21
7928.279227
31
0
0
LINE
8
PIPES
10
4117.95
20
7428.279227
30
0
11
4117.95
21
7928.279227
31
0
0
LINE
8
PIPES
10
2899.25
20
7428.279227
30
0
11
2899.25
21
7928.279227
31
0
0
LINE
8
PIPES
10
1680.45
20
7428.279227
30
0
11
1680.45
21
7928.279227
31
0
0
LINE
8
PIPES
10
461.75
20
7428.279227
30
0
11
461.75
21
7928.279227
31
0
0
LINE
8
PIPES
10
-757.05
20
7428.279227
30
0
11
-757.05
21
7928.279227
31
0
0
LINE
8
PIPES
10
-1975.75
20
7428.279227
30
0
11
-1975.75
21
7928.279227
31
0
0
LINE
8
PIPES
10
-3194.55
20
7428.279227
30
0
11
-3194.55
21
7928.279227
31
0
0
LINE
8
PIPES
10
-4413.25
20
7428.279227
30
0
11
-4413.25
21
7928.279227
31
0
0
LINE
8
PIPES
10
-5632.05
20
7428.279227
30
0
11
-5632.05
21
7928.279227
31
0
0
LINE
8
PIPES
10
-6850.75
20
7428.279227
30
0
11
-6850.75
21
7928.279227
31
0
0
LINE
8
PIPES
10
-8069.55
20
7428.279227
30
0
11
-8069.55
21
7928.279227
31
0
0
LINE
8
PIPES
10
-9288.25
20
7428.279227
30
0
11
-9288.25
21
7928.279227
31
0
0
LINE
8
PIPES
10
-10507.03
20
7428.279227
30
0
11
-10507.03
21
7928.279227
31
0
0
LINE
8
PIPES
10
-11725.78
20
7428.279227
30
0
11
-11725.78
21
7928.279227
31
0
0
LINE
8
PIPES
10
-12944.54
20
7428.279227
30
0
11
-12944.54
21
7928.279227
31
0
0
LINE
8
PIPES
10
-14163.29
20
7428.279227
30
0
11
-14163.29
21
7928.279227
31
0
0
LINE
8
PIPES
10
-15382.04
20
7428.279227
30
0
11
-15382.04
21
7928.279227
31
0
0
LINE
8
PIPES
10
-16600.79
20
7428.279227
30
0
11
-16600.79
21
7928.279227
31
0
0
LINE
8
PIPES
10
-17819.54
20
7428.279227
30
0
11
-17819.54
21
7928.279227
31
0
0
LINE
8
PIPES
10
-19038.3
20
7428.279227
30
0
11
-19038.3
21
7928.279227
31
0
0
LINE
8
PIPES
10
-19038.3
20
7928.279227
30
0
11
-20257.05
21
7928.279227
31
0
0
LINE
8
PIPES
10
18743.05
20
7928.279227
30
0
11
17524.25
21
7928.279227
31
0
0
LINE
8
PIPES
10
17524.25
20
7928.279227
30
0
11
16305.55
21
7928.279227
31
0
0
LINE
8
PIPES
10
16305.55
20
7928.279227
30
0
11
15086.75
21
7928.279227
31
0
0
LINE
8
PIPES
10
15086.75
20
7928.279227
30
0
11
13868.05
21
7928.279227
31
0
0
LINE
8
PIPES
10
13868.05
20
7928.279227
30
0
11
12649.25
21
7928.279227
31
0
0
LINE
8
PIPES
10
12649.25
20
7928.279227
30
0
11
11430.55
21
7928.279227
31
0
0
LINE
8
PIPES
10
11430.55
20
7928.279227
30
0
11
10211.75
21
7928.279227
31
0
0
LINE
8
PIPES
10
10211.75
20
7928.279227
30
0
11
8993.05
21
7928.279227
31
0
0
LINE
8
PIPES
10
8993.05
20
7928.279227
30
0
11
7774.25
21
7928.279227
31
0
0
LINE
8
PIPES
10
7774.25
20
7928.279227
30
0
11
6555.55
21
7928.279227
31
0
0
LINE
8
PIPES
10
6555.55
20
7928.279227
30
0
11
5336.75
21
7928.279227
31
0
0
LINE
8
PIPES
10
5336.75
20
7928.279227
30
0
11
4117.95
21
7928.279227
31
0
0
LINE
8
PIPES
10
4117.95
20
7928.279227
30
0
11
2899.25
21
7928.279227
31
0
0
LINE
8
PIPES
10
2899.25
20
7928.279227
30
0
11
1680.45
21
7928.279227
31
0
0
LINE
8
PIPES
10
1680.45
20
7928.279227
30
0
11
461.75
21
7928.279227
31
0
0
LINE
8
PIPES
10
461.75
20
7928.279227
30
0
11
-757.05
21
7928.279227
31
0
0
LINE
8
PIPES
10
-757.05
20
7928.279227
30
0
11
-1975.75
21
7928.279227
31
0
0
LINE
8
PIPES
10
-1975.75
20
7928.279227
30
0
11
-3194.55
21
7928.279227
31
0
0
LINE
8
PIPES
10
-3194.55
20
7928.279227
30
0
11
-4413.25
21
7928.279227
31
0
0
LINE
8
PIPES
10
-4413.25
20
7928.279227
30
0
11
-5632.05
21
7928.279227
31
0
0
LINE
8
PIPES
10
-5632.05
20
7928.279227
30
0
11
-6850.75
21
7928.279227
31
0
0
LINE
8
PIPES
10
-6850.75
20
7928.279227
30
0
11
-8069.55
21
7928.279227
31
0
0
LINE
8
PIPES
10
-8069.55
20
7928.279227
30
0
11
-9288.25
21
7928.279227
31
0
0
LINE
8
PIPES
10
-9288.25
20
7928.279227
30
0
11
-10507.03
21
7928.279227
31
0
0
LINE
8
PIPES
10
-10507.03
20
7928.279227
30
0
11
-11725.78
21
7928.279227
31
0
0
LINE
8
PIPES
10
-11725.78
20
7928.279227
30
0
11
-12944.54
21
7928.279227
31
0
0
LINE
8
PIPES
10
-12944.54
20
7928.279227
30
0
11
-14163.29
21
7928.279227
31
0
0
LINE
8
PIPES
10
-14163.29
20
7928.279227
30
0
11
-15382.04
21
7928.279227
31
0
0
LINE
8
PIPES
10
-15382.04
20
7928.279227
30
0
11
-16600.79
21
7928.279227
31
0
0
LINE
8
PIPES
10
-16600.79
20
7928.279227
30
0
11
-17819.54
21
7928.279227
31
0
0
LINE
8
PIPES
10
-17819.54
20
7928.279227
30
0
11
-19038.3
21
7928.279227
31
0
0
CIRCLE
8
PIPE_ENDS
10
18743.05
20
-6771.720773
30
0
40
32
0
CIRCLE
8
PIPE_ENDS
10
-20257.05
20
-6771.720773
30
0
40
32
0
CIRCLE
8
PIPE_ENDS
10
17524.25
20
-6771.720773
30
0
40
32
0
CIRCLE
8
PIPE_ENDS
10
16305.55
20
-6771.720773
30
0
40
32
0
CIRCLE
8
PIPE_ENDS
10
15086.75
20
-6771.720773
30
0
40
32
0
CIRCLE
8
PIPE_ENDS
10
13868.05
20
-6771.720773
30
0
40
32
0
CIRCLE
8
PIPE_ENDS
10
12649.25
20
-6771.720773
30
0
40
32
0
CIRCLE
8
PIPE_ENDS
10
11430.55
20
-6771.720773
30
0
40
32
0
CIRCLE
8
PIPE_ENDS
10
10211.75
20
-6771.720773
30
0
40
32
0
CIRCLE
8
PIPE_ENDS
10
8993.05
20
-6771.720773
30
0
40
32
0
CIRCLE
8
PIPE_ENDS
10
7774.25
20
-6771.720773
30
0
40
32
0
CIRCLE
8
PIPE_ENDS
10
6555.55
20
-6771.720773
30
0
40
32
0
CIRCLE
8
PIPE_ENDS
10
5336.75
20
-6771.720773
30
0
40
32
0
CIRCLE
8
PIPE_ENDS
10
4117.95
20
-6771.720773
30
0
40
32
0
CIRCLE
8
PIPE_ENDS
10
2899.25
20
-6771.720773
30
0
40
32
0
CIRCLE
8
PIPE_ENDS
10
1680.45
20
-6771.720773
30
0
40
32
0
CIRCLE
8
PIPE_ENDS
10
461.75
20
-6771.720773
30
0
40
32
0
CIRCLE
8
PIPE_ENDS
10
-757.05
20
-6771.720773
30
0
40
32
0
CIRCLE
8
PIPE_ENDS
10
-1975.75
20
-6771.720773
30
0
40
32
0
CIRCLE
8
PIPE_ENDS
10
-3194.55
20
-6771.720773
30
0
40
32
0
CIRCLE
8
PIPE_ENDS
10
-4413.25
20
-6771.720773
30
0
40
32
0
CIRCLE
8
PIPE_ENDS
10
-5632.05
20
-6771.720773
30
0
40
32
0
CIRCLE
8
PIPE_ENDS
10
-6850.75
20
-6771.720773
30
0
40
32
0
CIRCLE
8
PIPE_ENDS
10
-8069.55
20
-6771.720773
30
0
40
32
0
CIRCLE
8
PIPE_ENDS
10
-9288.25
20
-6771.720773
30
0
40
32
0
CIRCLE
8
PIPE_ENDS
10
-10507.05
20
-6771.720773
30
0
40
32
0
CIRCLE
8
PIPE_ENDS
10
-11725.75
20
-6771.720773
30
0
40
32
0
CIRCLE
8
PIPE_ENDS
10
-12944.55
20
-6771.720773
30
0
40
32
0
CIRCLE
8
PIPE_ENDS
10
-14163.25
20
-6771.720773
30
0
40
32
0
CIRCLE
8
PIPE_ENDS
10
-15382.05
20
-6771.720773
30
0
40
32
0
CIRCLE
8
PIPE_ENDS
10
-16600.75
20
-6771.720773
30
0
40
32
0
CIRCLE
8
PIPE_ENDS
10
-17819.55
20
-6771.720773
30
0
40
32
0
CIRCLE
8
PIPE_ENDS
10
-19038.25
20
-6771.720773
30
0
40
32
0
CIRCLE
8
PIPE_ENDS
10
18743.05
20
-5071.720773
30
0
40
32
0
CIRCLE
8
PIPE_ENDS
10
-20257.05
20
-5071.720773
30
0
40
32
0
CIRCLE
8
PIPE_ENDS
10
17524.25
20
-5071.720773
30
0
40
32
0
CIRCLE
8
PIPE_ENDS
10
16305.55
20
-5071.720773
30
0
40
32
0
CIRCLE
8
PIPE_ENDS
10
15086.75
20
-5071.720773
30
0
40
32
0
CIRCLE
8
PIPE_ENDS
10
13868.05
20
-5071.720773
30
0
40
32
0
CIRCLE
8
PIPE_ENDS
10
12649.25
20
-5071.720773
30
0
40
32
0
CIRCLE
8
PIPE_ENDS
10
11430.55
20
-5071.720773
30
0
40
32
0
CIRCLE
8
PIPE_ENDS
10
10211.75
20
-5071.720773
30
0
40
32
0
CIRCLE
8
PIPE_ENDS
10
8993.05
20
-5071.720773
30
0
40
32
0
CIRCLE
8
PIPE_ENDS
10
7774.25
20
-5071.720773
30
0
40
32
0
CIRCLE
8
PIPE_ENDS
10
6555.55
20
-5071.720773
30
0
40
32
0
CIRCLE
8
PIPE_ENDS
10
5336.75
20
-5071.720773
30
0
40
32
0
CIRCLE
8
PIPE_ENDS
10
4117.95
20
-5071.720773
30
0
40
32
0
CIRCLE
8
PIPE_ENDS
10
2899.25
20
-5071.720773
30
0
40
32
0
CIRCLE
8
PIPE_ENDS
10
1680.45
20
-5071.720773
30
0
40
32
0
CIRCLE
8
PIPE_ENDS
10
461.75
20
-5071.720773
30
0
40
32
0
CIRCLE
8
PIPE_ENDS
10
-757.05
20
-5071.720773
30
0
40
32
0
CIRCLE
8
PIPE_ENDS
10
-1975.75
20
-5071.720773
30
0
40
32
0
CIRCLE
8
PIPE_ENDS
10
-3194.55
20
-5071.720773
30
0
40
32
0
CIRCLE
8
PIPE_ENDS
10
-4413.25
20
-5071.720773
30
0
40
32
0
CIRCLE
8
PIPE_ENDS
10
-5632.05
20
-5071.720773
30
0
40
32
0
CIRCLE
8
PIPE_ENDS
10
-6850.75
20
-5071.720773
30
0
40
32
0
CIRCLE
8
PIPE_ENDS
10
-8069.55
20
-5071.720773
30
0
40
32
0
CIRCLE
8
PIPE_ENDS
10
-9288.25
20
-5071.720773
30
0
40
32
0
CIRCLE
8
PIPE_ENDS
10
-10507.05
20
-5071.720773
30
0
40
32
0
CIRCLE
8
PIPE_ENDS
10
-11725.75
20
-5071.720773
30
0
40
32
0
CIRCLE
8
PIPE_ENDS
10
-12944.55
20
-5071.720773
30
0
40
32
0
CIRCLE
8
PIPE_ENDS
10
-14163.25
20
-5071.720773
30
0
40
32
0
CIRCLE
8
PIPE_ENDS
10
-15382.05
20
-5071.720773
30
0
40
32
0
CIRCLE
8
PIPE_ENDS
10
-16600.75
20
-5071.720773
30
0
40
32
0
CIRCLE
8
PIPE_ENDS
10
-17819.55
20
-5071.720773
30
0
40
32
0
CIRCLE
8
PIPE_ENDS
10
-19038.25
20
-5071.720773
30
0
40
32
0
CIRCLE
8
PIPE_ENDS
10
18743.05
20
-3071.720773
30
0
40
32
0
CIRCLE
8
PIPE_ENDS
10
-20257.05
20
-3071.720773
30
0
40
32
0
CIRCLE
8
PIPE_ENDS
10
17524.25
20
-3071.720773
30
0
40
32
0
CIRCLE
8
PIPE_ENDS
10
16305.55
20
-3071.720773
30
0
40
32
0
CIRCLE
8
PIPE_ENDS
10
15086.75
20
-3071.720773
30
0
40
32
0
CIRCLE
8
PIPE_ENDS
10
13868.05
20
-3071.720773
30
0
40
32
0
CIRCLE
8
PIPE_ENDS
10
12649.25
20
-3071.720773
30
0
40
32
0
CIRCLE
8
PIPE_ENDS
10
11430.55
20
-3071.720773
30
0
40
32
0
CIRCLE
8
PIPE_ENDS
10
10211.75
20
-3071.720773
30
0
40
32
0
CIRCLE
8
PIPE_ENDS
10
8993.05
20
-3071.720773
30
0
40
32
0
CIRCLE
8
PIPE_ENDS
10
7774.25
20
-3071.720773
30
0
40
32
0
CIRCLE
8
PIPE_ENDS
10
6555.55
20
-3071.720773
30
0
40
32
0
CIRCLE
8
PIPE_ENDS
10
5336.75
20
-3071.720773
30
0
40
32
0
CIRCLE
8
PIPE_ENDS
10
4117.95
20
-3071.720773
30
0
40
32
0
CIRCLE
8
PIPE_ENDS
10
2899.25
20
-3071.720773
30
0
40
32
0
CIRCLE
8
PIPE_ENDS
10
1680.45
20
-3071.720773
30
0
40
32
0
CIRCLE
8
PIPE_ENDS
10
461.75
20
-3071.720773
30
0
40
32
0
CIRCLE
8
PIPE_ENDS
10
-757.05
20
-3071.720773
30
0
40
32
0
CIRCLE
8
PIPE_ENDS
10
-1975.75
20
-3071.720773
30
0
40
32
0
CIRCLE
8
PIPE_ENDS
10
-3194.55
20
-3071.720773
30
0
40
32
0
CIRCLE
8
PIPE_ENDS
10
-4413.25
20
-3071.720773
30
0
40
32
0
CIRCLE
8
PIPE_ENDS
10
-5632.05
20
-3071.720773
30
0
40
32
0
CIRCLE
8
PIPE_ENDS
10
-6850.75
20
-3071.720773
30
0
40
32
0
CIRCLE
8
PIPE_ENDS
10
-8069.55
20
-3071.720773
30
0
40
32
0
CIRCLE
8
PIPE_ENDS
10
-9288.25
20
-3071.720773
30
0
40
32
0
CIRCLE
8
PIPE_ENDS
10
-10507.05
20
-3071.720773
30
0
40
32
0
CIRCLE
8
PIPE_ENDS
10
-11725.75
20
-3071.720773
30
0
40
32
0
CIRCLE
8
PIPE_ENDS
10
-12944.55
20
-3071.720773
30
0
40
32
0
CIRCLE
8
PIPE_ENDS
10
-14163.25
20
-3071.720773
30
0
40
32
0
CIRCLE
8
PIPE_ENDS
10
-15382.05
20
-3071.720773
30
0
40
32
0
CIRCLE
8
PIPE_ENDS
10
-16600.75
20
-3071.720773
30
0
40
32
0
CIRCLE
8
PIPE_ENDS
10
-17819.55
20
-3071.720773
30
0
40
32
0
CIRCLE
8
PIPE_ENDS
10
-19038.25
20
-3071.720773
30
0
40
32
0
CIRCLE
8
PIPE_ENDS
10
18743.05
20
-1071.720773
30
0
40
32
0
CIRCLE
8
PIPE_ENDS
10
-20257.05
20
-1071.720773
30
0
40
32
0
CIRCLE
8
PIPE_ENDS
10
17524.25
20
-1071.720773
30
0
40
32
0
CIRCLE
8
PIPE_ENDS
10
16305.55
20
-1071.720773
30
0
40
32
0
CIRCLE
8
PIPE_ENDS
10
15086.75
20
-1071.720773
30
0
40
32
0
CIRCLE
8
PIPE_ENDS
10
13868.05
20
-1071.720773
30
0
40
32
0
CIRCLE
8
PIPE_ENDS
10
12649.25
20
-1071.720773
30
0
40
32
0
CIRCLE
8
PIPE_ENDS
10
11430.55
20
-1071.720773
30
0
40
32
0
CIRCLE
8
PIPE_ENDS
10
10211.75
20
-1071.720773
30
0
40
32
0
CIRCLE
8
PIPE_ENDS
10
8993.05
20
-1071.720773
30
0
40
32
0
CIRCLE
8
PIPE_ENDS
10
7774.25
20
-1071.720773
30
0
40
32
0
CIRCLE
8
PIPE_ENDS
10
6555.55
20
-1071.720773
30
0
40
32
0
CIRCLE
8
PIPE_ENDS
10
5336.75
20
-1071.720773
30
0
40
32
0
CIRCLE
8
PIPE_ENDS
10
4117.95
20
-1071.720773
30
0
40
32
0
CIRCLE
8
PIPE_ENDS
10
2899.25
20
-1071.720773
30
0
40
32
0
CIRCLE
8
PIPE_ENDS
10
1680.45
20
-1071.720773
30
0
40
32
0
CIRCLE
8
PIPE_ENDS
10
461.75
20
-1071.720773
30
0
40
32
0
CIRCLE
8
PIPE_ENDS
10
-757.05
20
-1071.720773
30
0
40
32
0
CIRCLE
8
PIPE_ENDS
10
-1975.75
20
-1071.720773
30
0
40
32
0
CIRCLE
8
PIPE_ENDS
10
-3194.55
20
-1071.720773
30
0
40
32
0
CIRCLE
8
PIPE_ENDS
10
-4413.25
20
-1071.720773
30
0
40
32
0
CIRCLE
8
PIPE_ENDS
10
-5632.05
20
-1071.720773
30
0
40
32
0
CIRCLE
8
PIPE_ENDS
10
-6850.75
20
-1071.720773
30
0
40
32
0
CIRCLE
8
PIPE_ENDS
10
-8069.55
20
-1071.720773
30
0
40
32
0
CIRCLE
8
PIPE_ENDS
10
-9288.25
20
-1071.720773
30
0
40
32
0
CIRCLE
8
PIPE_ENDS
10
-10507.05
20
-1071.720773
30
0
40
32
0
CIRCLE
8
PIPE_ENDS
10
-11725.75
20
-1071.720773
30
0
40
32
0
CIRCLE
8
PIPE_ENDS
10
-12944.55
20
-1071.720773
30
0
40
32
0
CIRCLE
8
PIPE_ENDS
10
-14163.25
20
-1071.720773
30
0
40
32
0
CIRCLE
8
PIPE_ENDS
10
-15382.05
20
-1071.720773
30
0
40
32
0
CIRCLE
8
PIPE_ENDS
10
-16600.75
20
-1071.720773
30
0
40
32
0
CIRCLE
8
PIPE_ENDS
10
-17819.55
20
-1071.720773
30
0
40
32
0
CIRCLE
8
PIPE_ENDS
10
-19038.25
20
-1071.720773
30
0
40
32
0
CIRCLE
8
PIPE_ENDS
10
18743.05
20
928.279227
30
0
40
32
0
CIRCLE
8
PIPE_ENDS
10
-20257.05
20
928.279227
30
0
40
32
0
CIRCLE
8
PIPE_ENDS
10
17524.25
20
928.279227
30
0
40
32
0
CIRCLE
8
PIPE_ENDS
10
16305.55
20
928.279227
30
0
40
32
0
CIRCLE
8
PIPE_ENDS
10
15086.75
20
928.279227
30
0
40
32
0
CIRCLE
8
PIPE_ENDS
10
13868.05
20
928.279227
30
0
40
32
0
CIRCLE
8
PIPE_ENDS
10
12649.25
20
928.279227
30
0
40
32
0
CIRCLE
8
PIPE_ENDS
10
11430.55
20
928.279227
30
0
40
32
0
CIRCLE
8
PIPE_ENDS
10
10211.75
20
928.279227
30
0
40
32
0
CIRCLE
8
PIPE_ENDS
10
8993.05
20
928.279227
30
0
40
32
0
CIRCLE
8
PIPE_ENDS
10
7774.25
20
928.279227
30
0
40
32
0
CIRCLE
8
PIPE_ENDS
10
6555.55
20
928.279227
30
0
40
32
0
CIRCLE
8
PIPE_ENDS
10
5336.75
20
928.279227
30
0
40
32
0
CIRCLE
8
PIPE_ENDS
10
4117.95
20
928.279227
30
0
40
32
0
CIRCLE
8
PIPE_ENDS
10
2899.25
20
928.279227
30
0
40
32
0
CIRCLE
8
PIPE_ENDS
10
1680.45
20
928.279227
30
0
40
32
0
CIRCLE
8
PIPE_ENDS
10
461.75
20
928.279227
30
0
40
32
0
CIRCLE
8
PIPE_ENDS
10
-757.05
20
928.279227
30
0
40
32
0
CIRCLE
8
PIPE_ENDS
10
-1975.75
20
928.279227
30
0
40
32
0
CIRCLE
8
PIPE_ENDS
10
-3194.55
20
928.279227
30
0
40
32
0
CIRCLE
8
PIPE_ENDS
10
-4413.25
20
928.279227
30
0
40
32
0
CIRCLE
8
PIPE_ENDS
10
-5632.05
20
928.279227
30
0
40
32
0
CIRCLE
8
PIPE_ENDS
10
-6850.75
20
928.279227
30
0
40
32
0
CIRCLE
8
PIPE_ENDS
10
-8069.55
20
928.279227
30
0
40
32
0
CIRCLE
8
PIPE_ENDS
10
-9288.25
20
928.279227
30
0
40
32
0
CIRCLE
8
PIPE_ENDS
10
-10507.05
20
928.279227
30
0
40
32
0
CIRCLE
8
PIPE_ENDS
10
-11725.75
20
928.279227
30
0
40
32
0
CIRCLE
8
PIPE_ENDS
10
-12944.55
20
928.279227
30
0
40
32
0
CIRCLE
8
PIPE_ENDS
10
-14163.25
20
928.279227
30
0
40
32
0
CIRCLE
8
PIPE_ENDS
10
-15382.05
20
928.279227
30
0
40
32
0
CIRCLE
8
PIPE_ENDS
10
-16600.75
20
928.279227
30
0
40
32
0
CIRCLE
8
PIPE_ENDS
10
-17819.55
20
928.279227
30
0
40
32
0
CIRCLE
8
PIPE_ENDS
10
-19038.25
20
928.279227
30
0
40
32
0
CIRCLE
8
PIPE_ENDS
10
18743.05
20
2928.279227
30
0
40
32
0
CIRCLE
8
PIPE_ENDS
10
-20257.05
20
2928.279227
30
0
40
32
0
CIRCLE
8
PIPE_ENDS
10
17524.25
20
2928.279227
30
0
40
32
0
CIRCLE
8
PIPE_ENDS
10
16305.55
20
2928.279227
30
0
40
32
0
CIRCLE
8
PIPE_ENDS
10
15086.75
20
2928.279227
30
0
40
32
0
CIRCLE
8
PIPE_ENDS
10
13868.05
20
2928.279227
30
0
40
32
0
CIRCLE
8
PIPE_ENDS
10
12649.25
20
2928.279227
30
0
40
32
0
CIRCLE
8
PIPE_ENDS
10
11430.55
20
2928.279227
30
0
40
32
0
CIRCLE
8
PIPE_ENDS
10
10211.75
20
2928.279227
30
0
40
32
0
CIRCLE
8
PIPE_ENDS
10
8993.05
20
2928.279227
30
0
40
32
0
CIRCLE
8
PIPE_ENDS
10
7774.25
20
2928.279227
30
0
40
32
0
CIRCLE
8
PIPE_ENDS
10
6555.55
20
2928.279227
30
0
40
32
0
CIRCLE
8
PIPE_ENDS
10
5336.75
20
2928.279227
30
0
40
32
0
CIRCLE
8
PIPE_ENDS
10
4117.95
20
2928.279227
30
0
40
32
0
CIRCLE
8
PIPE_ENDS
10
2899.25
20
2928.279227
30
0
40
32
0
CIRCLE
8
PIPE_ENDS
10
1680.45
20
2928.279227
30
0
40
32
0
CIRCLE
8
PIPE_ENDS
10
461.75
20
2928.279227
30
0
40
32
0
CIRCLE
8
PIPE_ENDS
10
-757.05
20
2928.279227
30
0
40
32
0
CIRCLE
8
PIPE_ENDS
10
-1975.75
20
2928.279227
30
0
40
32
0
CIRCLE
8
PIPE_ENDS
10
-3194.55
20
2928.279227
30
0
40
32
0
CIRCLE
8
PIPE_ENDS
10
-4413.25
20
2928.279227
30
0
40
32
0
CIRCLE
8
PIPE_ENDS
10
-5632.05
20
2928.279227
30
0
40
32
0
CIRCLE
8
PIPE_ENDS
10
-6850.75
20
2928.279227
30
0
40
32
0
CIRCLE
8
PIPE_ENDS
10
-8069.55
20
2928.279227
30
0
40
32
0
CIRCLE
8
PIPE_ENDS
10
-9288.25
20
2928.279227
30
0
40
32
0
CIRCLE
8
PIPE_ENDS
10
-10507.05
20
2928.279227
30
0
40
32
0
CIRCLE
8
PIPE_ENDS
10
-11725.75
20
2928.279227
30
0
40
32
0
CIRCLE
8
PIPE_ENDS
10
-12944.55
20
2928.279227
30
0
40
32
0
CIRCLE
8
PIPE_ENDS
10
-14163.25
20
2928.279227
30
0
40
32
0
CIRCLE
8
PIPE_ENDS
10
-15382.05
20
2928.279227
30
0
40
32
0
CIRCLE
8
PIPE_ENDS
10
-16600.75
20
2928.279227
30
0
40
32
0
CIRCLE
8
PIPE_ENDS
10
-17819.55
20
2928.279227
30
0
40
32
0
CIRCLE
8
PIPE_ENDS
10
-19038.25
20
2928.279227
30
0
40
32
0
CIRCLE
8
PIPE_ENDS
10
18743.05
20
4928.279227
30
0
40
32
0
CIRCLE
8
PIPE_ENDS
10
-20257.05
20
4928.279227
30
0
40
32
0
CIRCLE
8
PIPE_ENDS
10
17524.25
20
4928.279227
30
0
40
32
0
CIRCLE
8
PIPE_ENDS
10
16305.55
20
4928.279227
30
0
40
32
0
CIRCLE
8
PIPE_ENDS
10
15086.75
20
4928.279227
30
0
40
32
0
CIRCLE
8
PIPE_ENDS
10
13868.05
20
4928.279227
30
0
40
32
0
CIRCLE
8
PIPE_ENDS
10
12649.25
20
4928.279227
30
0
40
32
0
CIRCLE
8
PIPE_ENDS
10
11430.55
20
4928.279227
30
0
40
32
0
CIRCLE
8
PIPE_ENDS
10
10211.75
20
4928.279227
30
0
40
32
0
CIRCLE
8
PIPE_ENDS
10
8993.05
20
4928.279227
30
0
40
32
0
CIRCLE
8
PIPE_ENDS
10
7774.25
20
4928.279227
30
0
40
32
0
CIRCLE
8
PIPE_ENDS
10
6555.55
20
4928.279227
30
0
40
32
0
CIRCLE
8
PIPE_ENDS
10
5336.75
20
4928.279227
30
0
40
32
0
CIRCLE
8
PIPE_ENDS
10
4117.95
20
4928.279227
30
0
40
32
0
CIRCLE
8
PIPE_ENDS
10
2899.25
20
4928.279227
30
0
40
32
0
CIRCLE
8
PIPE_ENDS
10
1680.45
20
4928.279227
30
0
40
32
0
CIRCLE
8
PIPE_ENDS
10
461.75
20
4928.279227
30
0
40
32
0
CIRCLE
8
PIPE_ENDS
10
-757.05
20
4928.279227
30
0
40
32
0
CIRCLE
8
PIPE_ENDS
10
-1975.75
20
4928.279227
30
0
40
32
0
CIRCLE
8
PIPE_ENDS
10
-3194.55
20
4928.279227
30
0
40
32
0
CIRCLE
8
PIPE_ENDS
10
-4413.25
20
4928.279227
30
0
40
32
0
CIRCLE
8
PIPE_ENDS
10
-5632.05
20
4928.279227
30
0
40
32
0
CIRCLE
8
PIPE_ENDS
10
-6850.75
20
4928.279227
30
0
40
32
0
CIRCLE
8
PIPE_ENDS
10
-8069.55
20
4928.279227
30
0
40
32
0
CIRCLE
8
PIPE_ENDS
10
-9288.25
20
4928.279227
30
0
40
32
0
CIRCLE
8
PIPE_ENDS
10
-10507.05
20
4928.279227
30
0
40
32
0
CIRCLE
8
PIPE_ENDS
10
-11725.75
20
4928.279227
30
0
40
32
0
CIRCLE
8
PIPE_ENDS
10
-12944.55
20
4928.279227
30
0
40
32
0
CIRCLE
8
PIPE_ENDS
10
-14163.25
20
4928.279227
30
0
40
32
0
CIRCLE
8
PIPE_ENDS
10
-15382.05
20
4928.279227
30
0
40
32
0
CIRCLE
8
PIPE_ENDS
10
-16600.75
20
4928.279227
30
0
40
32
0
CIRCLE
8
PIPE_ENDS
10
-17819.55
20
4928.279227
30
0
40
32
0
CIRCLE
8
PIPE_ENDS
10
-19038.25
20
4928.279227
30
0
40
32
0
CIRCLE
8
PIPE_ENDS
10
18743.05
20
6928.279227
30
0
40
32
0
CIRCLE
8
PIPE_ENDS
10
-20257.05
20
6928.279227
30
0
40
32
0
CIRCLE
8
PIPE_ENDS
10
17524.25
20
6928.279227
30
0
40
32
0
CIRCLE
8
PIPE_ENDS
10
16305.55
20
6928.279227
30
0
40
32
0
CIRCLE
8
PIPE_ENDS
10
15086.75
20
6928.279227
30
0
40
32
0
CIRCLE
8
PIPE_ENDS
10
13868.05
20
6928.279227
30
0
40
32
0
CIRCLE
8
PIPE_ENDS
10
12649.25
20
6928.279227
30
0
40
32
0
CIRCLE
8
PIPE_ENDS
10
11430.55
20
6928.279227
30
0
40
32
0
CIRCLE
8
PIPE_ENDS
10
10211.75
20
6928.279227
30
0
40
32
0
CIRCLE
8
PIPE_ENDS
10
8993.05
20
6928.279227
30
0
40
32
0
CIRCLE
8
PIPE_ENDS
10
7774.25
20
6928.279227
30
0
40
32
0
CIRCLE
8
PIPE_ENDS
10
6555.55
20
6928.279227
30
0
40
32
0
CIRCLE
8
PIPE_ENDS
10
5336.75
20
6928.279227
30
0
40
32
0
CIRCLE
8
PIPE_ENDS
10
4117.95
20
6928.279227
30
0
40
32
0
CIRCLE
8
PIPE_ENDS
10
2899.25
20
6928.279227
30
0
40
32
0
CIRCLE
8
PIPE_ENDS
10
1680.45
20
6928.279227
30
0
40
32
0
CIRCLE
8
PIPE_ENDS
10
461.75
20
6928.279227
30
0
40
32
0
CIRCLE
8
PIPE_ENDS
10
-757.05
20
6928.279227
30
0
40
32
0
CIRCLE
8
PIPE_ENDS
10
-1975.75
20
6928.279227
30
0
40
32
0
CIRCLE
8
PIPE_ENDS
10
-3194.55
20
6928.279227
30
0
40
32
0
CIRCLE
8
PIPE_ENDS
10
-4413.25
20
6928.279227
30
0
40
32
0
CIRCLE
8
PIPE_ENDS
10
-5632.05
20
6928.279227
30
0
40
32
0
CIRCLE
8
PIPE_ENDS
10
-6850.75
20
6928.279227
30
0
40
32
0
CIRCLE
8
PIPE_ENDS
10
-8069.55
20
6928.279227
30
0
40
32
0
CIRCLE
8
PIPE_ENDS
10
-9288.25
20
6928.279227
30
0
40
32
0
CIRCLE
8
PIPE_ENDS
10
-10507.05
20
6928.279227
30
0
40
32
0
CIRCLE
8
PIPE_ENDS
10
-11725.75
20
6928.279227
30
0
40
32
0
CIRCLE
8
PIPE_ENDS
10
-12944.55
20
6928.279227
30
0
40
32
0
CIRCLE
8
PIPE_ENDS
10
-14163.25
20
6928.279227
30
0
40
32
0
CIRCLE
8
PIPE_ENDS
10
-15382.05
20
6928.279227
30
0
40
32
0
CIRCLE
8
PIPE_ENDS
10
-16600.75
20
6928.279227
30
0
40
32
0
CIRCLE
8
PIPE_ENDS
10
-17819.55
20
6928.279227
30
0
40
32
0
CIRCLE
8
PIPE_ENDS
10
-19038.25
20
6928.279227
30
0
40
32
0
CIRCLE
8
PIPE_ENDS
10
18743.05
20
7428.279227
30
0
40
25
0
CIRCLE
8
PIPE_ENDS
10
-20257.05
20
7428.279227
30
0
40
25
0
CIRCLE
8
PIPE_ENDS
10
18743.05
20
7928.279227
30
0
40
25
0
CIRCLE
8
PIPE_ENDS
10
-20257.05
20
7928.279227
30
0
40
25
0
LINE
8
LEVEL_GUIDE
6
DASHED
10
-20437.05
20
-7071.720773
30
0
11
18923.05
21
-7071.720773
31
0
0
LINE
8
LEVEL_GUIDE
6
DASHED
10
-20437.05
20
-6771.720773
30
0
11
18923.05
21
-6771.720773
31
0
0
LINE
8
LEVEL_GUIDE
6
DASHED
10
-20437.05
20
-5071.720773
30
0
11
18923.05
21
-5071.720773
31
0
0
LINE
8
LEVEL_GUIDE
6
DASHED
10
-20437.05
20
-3071.710773
30
0
11
18923.05
21
-3071.710773
31
0
0
LINE
8
LEVEL_GUIDE
6
DASHED
10
-20437.05
20
-1071.710773
30
0
11
18923.05
21
-1071.710773
31
0
0
LINE
8
LEVEL_GUIDE
6
DASHED
10
-20437.05
20
928.299227
30
0
11
18923.05
21
928.299227
31
0
0
LINE
8
LEVEL_GUIDE
6
DASHED
10
-20437.05
20
2928.279227
30
0
11
18923.05
21
2928.279227
31
0
0
LINE
8
LEVEL_GUIDE
6
DASHED
10
-20437.05
20
4928.279227
30
0
11
18923.05
21
4928.279227
31
0
0
LINE
8
LEVEL_GUIDE
6
DASHED
10
-20437.05
20
6928.279227
30
0
11
18923.05
21
6928.279227
31
0
0
LINE
8
LEVEL_GUIDE
6
DASHED
10
-20437.05
20
7428.279227
30
0
11
18923.05
21
7428.279227
31
0
0
LINE
8
LEVEL_GUIDE
6
DASHED
10
-20437.05
20
7928.279227
30
0
11
18923.05
21
7928.279227
31
0
0
LINE
8
DIMENSION
10
-20257.05
20
-7131.720773
30
0
11
-20257.05
21
-7451.720773
31
0
0
LINE
8
DIMENSION
10
8993.05
20
-7131.720773
30
0
11
8993.05
21
-7451.720773
31
0
0
LINE
8
DIMENSION
10
-20257.05
20
-7451.720773
30
0
11
8993.05
21
-7451.720773
31
0
0
LINE
8
DIMENSION
10
-20257.05
20
-7451.720773
30
0
11
-20320.491545
21
-7422.137494
31
0
0
LINE
8
DIMENSION
10
-20257.05
20
-7451.720773
30
0
11
-20320.491545
21
-7481.304051
31
0
0
LINE
8
DIMENSION
10
8993.05
20
-7451.720773
30
0
11
9056.491545
21
-7481.304051
31
0
0
LINE
8
DIMENSION
10
8993.05
20
-7451.720773
30
0
11
9056.491545
21
-7422.137494
31
0
0
TEXT
8
DIMENSION
10
-5632
20
-7621.720773
30
0
40
85
1
29.25
50
0
7
STANDARD
72
1
73
2
11
-5632
21
-7621.720773
31
0
0
LINE
8
DIMENSION
10
8993.05
20
-7131.720773
30
0
11
8993.05
21
-7451.720773
31
0
0
LINE
8
DIMENSION
10
10211.75
20
-7131.720773
30
0
11
10211.75
21
-7451.720773
31
0
0
LINE
8
DIMENSION
10
8993.05
20
-7451.720773
30
0
11
10211.75
21
-7451.720773
31
0
0
LINE
8
DIMENSION
10
8993.05
20
-7451.720773
30
0
11
8929.608455
21
-7422.137494
31
0
0
LINE
8
DIMENSION
10
8993.05
20
-7451.720773
30
0
11
8929.608455
21
-7481.304051
31
0
0
LINE
8
DIMENSION
10
10211.75
20
-7451.720773
30
0
11
10275.191545
21
-7481.304051
31
0
0
LINE
8
DIMENSION
10
10211.75
20
-7451.720773
30
0
11
10275.191545
21
-7422.137494
31
0
0
TEXT
8
DIMENSION
10
9602.4
20
-7621.720773
30
0
40
85
1
1.219
50
0
7
STANDARD
72
1
73
2
11
9602.4
21
-7621.720773
31
0
0
LINE
8
DIMENSION
10
10211.75
20
-7131.720773
30
0
11
10211.75
21
-7451.720773
31
0
0
LINE
8
DIMENSION
10
11430.55
20
-7131.720773
30
0
11
11430.55
21
-7451.720773
31
0
0
LINE
8
DIMENSION
10
10211.75
20
-7451.720773
30
0
11
11430.55
21
-7451.720773
31
0
0
LINE
8
DIMENSION
10
10211.75
20
-7451.720773
30
0
11
10148.308455
21
-7422.137494
31
0
0
LINE
8
DIMENSION
10
10211.75
20
-7451.720773
30
0
11
10148.308455
21
-7481.304051
31
0
0
LINE
8
DIMENSION
10
11430.55
20
-7451.720773
30
0
11
11493.991545
21
-7481.304051
31
0
0
LINE
8
DIMENSION
10
11430.55
20
-7451.720773
30
0
11
11493.991545
21
-7422.137494
31
0
0
TEXT
8
DIMENSION
10
10821.15
20
-7621.720773
30
0
40
85
1
1.219
50
0
7
STANDARD
72
1
73
2
11
10821.15
21
-7621.720773
31
0
0
LINE
8
DIMENSION
10
11430.55
20
-7131.720773
30
0
11
11430.55
21
-7451.720773
31
0
0
LINE
8
DIMENSION
10
12649.25
20
-7131.720773
30
0
11
12649.25
21
-7451.720773
31
0
0
LINE
8
DIMENSION
10
11430.55
20
-7451.720773
30
0
11
12649.25
21
-7451.720773
31
0
0
LINE
8
DIMENSION
10
11430.55
20
-7451.720773
30
0
11
11367.108455
21
-7422.137494
31
0
0
LINE
8
DIMENSION
10
11430.55
20
-7451.720773
30
0
11
11367.108455
21
-7481.304051
31
0
0
LINE
8
DIMENSION
10
12649.25
20
-7451.720773
30
0
11
12712.691545
21
-7481.304051
31
0
0
LINE
8
DIMENSION
10
12649.25
20
-7451.720773
30
0
11
12712.691545
21
-7422.137494
31
0
0
TEXT
8
DIMENSION
10
12039.9
20
-7621.720773
30
0
40
85
1
1.219
50
0
7
STANDARD
72
1
73
2
11
12039.9
21
-7621.720773
31
0
0
LINE
8
DIMENSION
10
12649.25
20
-7131.720773
30
0
11
12649.25
21
-7451.720773
31
0
0
LINE
8
DIMENSION
10
13868.05
20
-7131.720773
30
0
11
13868.05
21
-7451.720773
31
0
0
LINE
8
DIMENSION
10
12649.25
20
-7451.720773
30
0
11
13868.05
21
-7451.720773
31
0
0
LINE
8
DIMENSION
10
12649.25
20
-7451.720773
30
0
11
12585.808455
21
-7422.137494
31
0
0
LINE
8
DIMENSION
10
12649.25
20
-7451.720773
30
0
11
12585.808455
21
-7481.304051
31
0
0
LINE
8
DIMENSION
10
13868.05
20
-7451.720773
30
0
11
13931.491545
21
-7481.304051
31
0
0
LINE
8
DIMENSION
10
13868.05
20
-7451.720773
30
0
11
13931.491545
21
-7422.137494
31
0
0
TEXT
8
DIMENSION
10
13258.65
20
-7621.720773
30
0
40
85
1
1.219
50
0
7
STANDARD
72
1
73
2
11
13258.65
21
-7621.720773
31
0
0
LINE
8
DIMENSION
10
13868.05
20
-7131.720773
30
0
11
13868.05
21
-7451.720773
31
0
0
LINE
8
DIMENSION
10
15086.75
20
-7131.720773
30
0
11
15086.75
21
-7451.720773
31
0
0
LINE
8
DIMENSION
10
13868.05
20
-7451.720773
30
0
11
15086.75
21
-7451.720773
31
0
0
LINE
8
DIMENSION
10
13868.05
20
-7451.720773
30
0
11
13804.608455
21
-7422.137494
31
0
0
LINE
8
DIMENSION
10
13868.05
20
-7451.720773
30
0
11
13804.608455
21
-7481.304051
31
0
0
LINE
8
DIMENSION
10
15086.75
20
-7451.720773
30
0
11
15150.191545
21
-7481.304051
31
0
0
LINE
8
DIMENSION
10
15086.75
20
-7451.720773
30
0
11
15150.191545
21
-7422.137494
31
0
0
TEXT
8
DIMENSION
10
14477.4
20
-7621.720773
30
0
40
85
1
1.219
50
0
7
STANDARD
72
1
73
2
11
14477.4
21
-7621.720773
31
0
0
LINE
8
DIMENSION
10
15086.75
20
-7131.720773
30
0
11
15086.75
21
-7451.720773
31
0
0
LINE
8
DIMENSION
10
16305.55
20
-7131.720773
30
0
11
16305.55
21
-7451.720773
31
0
0
LINE
8
DIMENSION
10
15086.75
20
-7451.720773
30
0
11
16305.55
21
-7451.720773
31
0
0
LINE
8
DIMENSION
10
15086.75
20
-7451.720773
30
0
11
15023.308455
21
-7422.137494
31
0
0
LINE
8
DIMENSION
10
15086.75
20
-7451.720773
30
0
11
15023.308455
21
-7481.304051
31
0
0
LINE
8
DIMENSION
10
16305.55
20
-7451.720773
30
0
11
16368.991545
21
-7481.304051
31
0
0
LINE
8
DIMENSION
10
16305.55
20
-7451.720773
30
0
11
16368.991545
21
-7422.137494
31
0
0
TEXT
8
DIMENSION
10
15696.15
20
-7621.720773
30
0
40
85
1
1.219
50
0
7
STANDARD
72
1
73
2
11
15696.15
21
-7621.720773
31
0
0
LINE
8
DIMENSION
10
16305.55
20
-7131.720773
30
0
11
16305.55
21
-7451.720773
31
0
0
LINE
8
DIMENSION
10
17524.25
20
-7131.720773
30
0
11
17524.25
21
-7451.720773
31
0
0
LINE
8
DIMENSION
10
16305.55
20
-7451.720773
30
0
11
17524.25
21
-7451.720773
31
0
0
LINE
8
DIMENSION
10
16305.55
20
-7451.720773
30
0
11
16242.108455
21
-7422.137494
31
0
0
LINE
8
DIMENSION
10
16305.55
20
-7451.720773
30
0
11
16242.108455
21
-7481.304051
31
0
0
LINE
8
DIMENSION
10
17524.25
20
-7451.720773
30
0
11
17587.691545
21
-7481.304051
31
0
0
LINE
8
DIMENSION
10
17524.25
20
-7451.720773
30
0
11
17587.691545
21
-7422.137494
31
0
0
TEXT
8
DIMENSION
10
16914.9
20
-7621.720773
30
0
40
85
1
1.219
50
0
7
STANDARD
72
1
73
2
11
16914.9
21
-7621.720773
31
0
0
LINE
8
DIMENSION
10
17524.25
20
-7131.720773
30
0
11
17524.25
21
-7451.720773
31
0
0
LINE
8
DIMENSION
10
18743.05
20
-7131.720773
30
0
11
18743.05
21
-7451.720773
31
0
0
LINE
8
DIMENSION
10
17524.25
20
-7451.720773
30
0
11
18743.05
21
-7451.720773
31
0
0
LINE
8
DIMENSION
10
17524.25
20
-7451.720773
30
0
11
17460.808455
21
-7422.137494
31
0
0
LINE
8
DIMENSION
10
17524.25
20
-7451.720773
30
0
11
17460.808455
21
-7481.304051
31
0
0
LINE
8
DIMENSION
10
18743.05
20
-7451.720773
30
0
11
18806.491545
21
-7481.304051
31
0
0
LINE
8
DIMENSION
10
18743.05
20
-7451.720773
30
0
11
18806.491545
21
-7422.137494
31
0
0
TEXT
8
DIMENSION
10
18133.65
20
-7621.720773
30
0
40
85
1
1.219
50
0
7
STANDARD
72
1
73
2
11
18133.65
21
-7621.720773
31
0
0
LINE
8
DIMENSION
10
-20257.05
20
-7131.720773
30
0
11
-20257.05
21
-7821.720773
31
0
0
LINE
8
DIMENSION
10
18743.05
20
-7131.720773
30
0
11
18743.05
21
-7821.720773
31
0
0
LINE
8
DIMENSION
10
-20257.05
20
-7821.720773
30
0
11
18743.05
21
-7821.720773
31
0
0
LINE
8
DIMENSION
10
-20257.05
20
-7821.720773
30
0
11
-20320.491545
21
-7792.137494
31
0
0
LINE
8
DIMENSION
10
-20257.05
20
-7821.720773
30
0
11
-20320.491545
21
-7851.304051
31
0
0
LINE
8
DIMENSION
10
18743.05
20
-7821.720773
30
0
11
18806.491545
21
-7851.304051
31
0
0
LINE
8
DIMENSION
10
18743.05
20
-7821.720773
30
0
11
18806.491545
21
-7792.137494
31
0
0
TEXT
8
DIMENSION
10
-757
20
-7991.720773
30
0
40
85
1
TOTAL 39
50
0
7
STANDARD
72
1
73
2
11
-757
21
-7991.720773
31
0
0
LINE
8
DIMENSION
10
18803.05
20
-7071.720773
30
0
11
19443.05
21
-7071.720773
31
0
0
LINE
8
DIMENSION
10
18803.05
20
-6771.720773
30
0
11
19443.05
21
-6771.720773
31
0
0
LINE
8
DIMENSION
10
19443.05
20
-7071.720773
30
0
11
19443.05
21
-6771.720773
31
0
0
LINE
8
DIMENSION
10
19443.05
20
-7071.720773
30
0
11
19413.466722
21
-7135.162318
31
0
0
LINE
8
DIMENSION
10
19443.05
20
-7071.720773
30
0
11
19472.633278
21
-7135.162318
31
0
0
LINE
8
DIMENSION
10
19443.05
20
-6771.720773
30
0
11
19472.633278
21
-6708.279227
31
0
0
LINE
8
DIMENSION
10
19443.05
20
-6771.720773
30
0
11
19413.466722
21
-6708.279227
31
0
0
TEXT
8
DIMENSION
10
19613.05
20
-6921.720773
30
0
40
85
1
0.3
50
90
7
STANDARD
72
1
73
2
11
19613.05
21
-6921.720773
31
0
0
LINE
8
DIMENSION
10
18803.05
20
-6771.720773
30
0
11
19443.05
21
-6771.720773
31
0
0
LINE
8
DIMENSION
10
18803.05
20
-5071.720773
30
0
11
19443.05
21
-5071.720773
31
0
0
LINE
8
DIMENSION
10
19443.05
20
-6771.720773
30
0
11
19443.05
21
-5071.720773
31
0
0
LINE
8
DIMENSION
10
19443.05
20
-6771.720773
30
0
11
19413.466722
21
-6835.162318
31
0
0
LINE
8
DIMENSION
10
19443.05
20
-6771.720773
30
0
11
19472.633278
21
-6835.162318
31
0
0
LINE
8
DIMENSION
10
19443.05
20
-5071.720773
30
0
11
19472.633278
21
-5008.279227
31
0
0
LINE
8
DIMENSION
10
19443.05
20
-5071.720773
30
0
11
19413.466722
21
-5008.279227
31
0
0
TEXT
8
DIMENSION
10
19613.05
20
-5921.720773
30
0
40
85
1
1.7
50
90
7
STANDARD
72
1
73
2
11
19613.05
21
-5921.720773
31
0
0
LINE
8
DIMENSION
10
18803.05
20
-5071.720773
30
0
11
19443.05
21
-5071.720773
31
0
0
LINE
8
DIMENSION
10
18803.05
20
-3071.710773
30
0
11
19443.05
21
-3071.710773
31
0
0
LINE
8
DIMENSION
10
19443.05
20
-5071.720773
30
0
11
19443.05
21
-3071.710773
31
0
0
LINE
8
DIMENSION
10
19443.05
20
-5071.720773
30
0
11
19413.466722
21
-5135.162318
31
0
0
LINE
8
DIMENSION
10
19443.05
20
-5071.720773
30
0
11
19472.633278
21
-5135.162318
31
0
0
LINE
8
DIMENSION
10
19443.05
20
-3071.710773
30
0
11
19472.633278
21
-3008.269227
31
0
0
LINE
8
DIMENSION
10
19443.05
20
-3071.710773
30
0
11
19413.466722
21
-3008.269227
31
0
0
TEXT
8
DIMENSION
10
19613.05
20
-4071.715773
30
0
40
85
1
2
50
90
7
STANDARD
72
1
73
2
11
19613.05
21
-4071.715773
31
0
0
LINE
8
DIMENSION
10
18803.05
20
-3071.710773
30
0
11
19443.05
21
-3071.710773
31
0
0
LINE
8
DIMENSION
10
18803.05
20
-1071.710773
30
0
11
19443.05
21
-1071.710773
31
0
0
LINE
8
DIMENSION
10
19443.05
20
-3071.710773
30
0
11
19443.05
21
-1071.710773
31
0
0
LINE
8
DIMENSION
10
19443.05
20
-3071.710773
30
0
11
19413.466722
21
-3135.152318
31
0
0
LINE
8
DIMENSION
10
19443.05
20
-3071.710773
30
0
11
19472.633278
21
-3135.152318
31
0
0
LINE
8
DIMENSION
10
19443.05
20
-1071.710773
30
0
11
19472.633278
21
-1008.269227
31
0
0
LINE
8
DIMENSION
10
19443.05
20
-1071.710773
30
0
11
19413.466722
21
-1008.269227
31
0
0
TEXT
8
DIMENSION
10
19613.05
20
-2071.710773
30
0
40
85
1
2
50
90
7
STANDARD
72
1
73
2
11
19613.05
21
-2071.710773
31
0
0
LINE
8
DIMENSION
10
18803.05
20
-1071.710773
30
0
11
19443.05
21
-1071.710773
31
0
0
LINE
8
DIMENSION
10
18803.05
20
928.299227
30
0
11
19443.05
21
928.299227
31
0
0
LINE
8
DIMENSION
10
19443.05
20
-1071.710773
30
0
11
19443.05
21
928.299227
31
0
0
LINE
8
DIMENSION
10
19443.05
20
-1071.710773
30
0
11
19413.466722
21
-1135.152318
31
0
0
LINE
8
DIMENSION
10
19443.05
20
-1071.710773
30
0
11
19472.633278
21
-1135.152318
31
0
0
LINE
8
DIMENSION
10
19443.05
20
928.299227
30
0
11
19472.633278
21
991.740773
31
0
0
LINE
8
DIMENSION
10
19443.05
20
928.299227
30
0
11
19413.466722
21
991.740773
31
0
0
TEXT
8
DIMENSION
10
19613.05
20
-71.705773
30
0
40
85
1
2
50
90
7
STANDARD
72
1
73
2
11
19613.05
21
-71.705773
31
0
0
LINE
8
DIMENSION
10
18803.05
20
928.299227
30
0
11
19443.05
21
928.299227
31
0
0
LINE
8
DIMENSION
10
18803.05
20
2928.279227
30
0
11
19443.05
21
2928.279227
31
0
0
LINE
8
DIMENSION
10
19443.05
20
928.299227
30
0
11
19443.05
21
2928.279227
31
0
0
LINE
8
DIMENSION
10
19443.05
20
928.299227
30
0
11
19413.466722
21
864.857682
31
0
0
LINE
8
DIMENSION
10
19443.05
20
928.299227
30
0
11
19472.633278
21
864.857682
31
0
0
LINE
8
DIMENSION
10
19443.05
20
2928.279227
30
0
11
19472.633278
21
2991.720773
31
0
0
LINE
8
DIMENSION
10
19443.05
20
2928.279227
30
0
11
19413.466722
21
2991.720773
31
0
0
TEXT
8
DIMENSION
10
19613.05
20
1928.289227
30
0
40
85
1
2
50
90
7
STANDARD
72
1
73
2
11
19613.05
21
1928.289227
31
0
0
LINE
8
DIMENSION
10
18803.05
20
2928.279227
30
0
11
19443.05
21
2928.279227
31
0
0
LINE
8
DIMENSION
10
18803.05
20
4928.279227
30
0
11
19443.05
21
4928.279227
31
0
0
LINE
8
DIMENSION
10
19443.05
20
2928.279227
30
0
11
19443.05
21
4928.279227
31
0
0
LINE
8
DIMENSION
10
19443.05
20
2928.279227
30
0
11
19413.466722
21
2864.837682
31
0
0
LINE
8
DIMENSION
10
19443.05
20
2928.279227
30
0
11
19472.633278
21
2864.837682
31
0
0
LINE
8
DIMENSION
10
19443.05
20
4928.279227
30
0
11
19472.633278
21
4991.720773
31
0
0
LINE
8
DIMENSION
10
19443.05
20
4928.279227
30
0
11
19413.466722
21
4991.720773
31
0
0
TEXT
8
DIMENSION
10
19613.05
20
3928.279227
30
0
40
85
1
2
50
90
7
STANDARD
72
1
73
2
11
19613.05
21
3928.279227
31
0
0
LINE
8
DIMENSION
10
18803.05
20
4928.279227
30
0
11
19443.05
21
4928.279227
31
0
0
LINE
8
DIMENSION
10
18803.05
20
6928.279227
30
0
11
19443.05
21
6928.279227
31
0
0
LINE
8
DIMENSION
10
19443.05
20
4928.279227
30
0
11
19443.05
21
6928.279227
31
0
0
LINE
8
DIMENSION
10
19443.05
20
4928.279227
30
0
11
19413.466722
21
4864.837682
31
0
0
LINE
8
DIMENSION
10
19443.05
20
4928.279227
30
0
11
19472.633278
21
4864.837682
31
0
0
LINE
8
DIMENSION
10
19443.05
20
6928.279227
30
0
11
19472.633278
21
6991.720773
31
0
0
LINE
8
DIMENSION
10
19443.05
20
6928.279227
30
0
11
19413.466722
21
6991.720773
31
0
0
TEXT
8
DIMENSION
10
19613.05
20
5928.279227
30
0
40
85
1
2
50
90
7
STANDARD
72
1
73
2
11
19613.05
21
5928.279227
31
0
0
LINE
8
DIMENSION
10
18803.05
20
6928.279227
30
0
11
19443.05
21
6928.279227
31
0
0
LINE
8
DIMENSION
10
18803.05
20
7428.279227
30
0
11
19443.05
21
7428.279227
31
0
0
LINE
8
DIMENSION
10
19443.05
20
6928.279227
30
0
11
19443.05
21
7428.279227
31
0
0
LINE
8
DIMENSION
10
19443.05
20
6928.279227
30
0
11
19413.466722
21
6864.837682
31
0
0
LINE
8
DIMENSION
10
19443.05
20
6928.279227
30
0
11
19472.633278
21
6864.837682
31
0
0
LINE
8
DIMENSION
10
19443.05
20
7428.279227
30
0
11
19472.633278
21
7491.720773
31
0
0
LINE
8
DIMENSION
10
19443.05
20
7428.279227
30
0
11
19413.466722
21
7491.720773
31
0
0
TEXT
8
DIMENSION
10
19613.05
20
7178.279227
30
0
40
85
1
0.5
50
90
7
STANDARD
72
1
73
2
11
19613.05
21
7178.279227
31
0
0
LINE
8
DIMENSION
10
18803.05
20
7428.279227
30
0
11
19443.05
21
7428.279227
31
0
0
LINE
8
DIMENSION
10
18803.05
20
7928.279227
30
0
11
19443.05
21
7928.279227
31
0
0
LINE
8
DIMENSION
10
19443.05
20
7428.279227
30
0
11
19443.05
21
7928.279227
31
0
0
LINE
8
DIMENSION
10
19443.05
20
7428.279227
30
0
11
19413.466722
21
7364.837682
31
0
0
LINE
8
DIMENSION
10
19443.05
20
7428.279227
30
0
11
19472.633278
21
7364.837682
31
0
0
LINE
8
DIMENSION
10
19443.05
20
7928.279227
30
0
11
19472.633278
21
7991.720773
31
0
0
LINE
8
DIMENSION
10
19443.05
20
7928.279227
30
0
11
19413.466722
21
7991.720773
31
0
0
TEXT
8
DIMENSION
10
19613.05
20
7678.279227
30
0
40
85
1
0.5
50
90
7
STANDARD
72
1
73
2
11
19613.05
21
7678.279227
31
0
0
LINE
8
DIMENSION
10
18803.05
20
-7071.720773
30
0
11
19893.05
21
-7071.720773
31
0
0
LINE
8
DIMENSION
10
18803.05
20
7928.279227
30
0
11
19893.05
21
7928.279227
31
0
0
LINE
8
DIMENSION
10
19893.05
20
-7071.720773
30
0
11
19893.05
21
7928.279227
31
0
0
LINE
8
DIMENSION
10
19893.05
20
-7071.720773
30
0
11
19863.466722
21
-7135.162318
31
0
0
LINE
8
DIMENSION
10
19893.05
20
-7071.720773
30
0
11
19922.633278
21
-7135.162318
31
0
0
LINE
8
DIMENSION
10
19893.05
20
7928.279227
30
0
11
19922.633278
21
7991.720773
31
0
0
LINE
8
DIMENSION
10
19893.05
20
7928.279227
30
0
11
19863.466722
21
7991.720773
31
0
0
TEXT
8
DIMENSION
10
20063.05
20
428.279227
30
0
40
85
1
TOTAL 15
50
90
7
STANDARD
72
1
73
2
11
20063.05
21
428.279227
31
0
0
ENDSEC
0
EOF
