0
SECTION
2
HEADER
9
$ACADVER
1
AC1009
9
$INSUNITS
70
4
9
$MEASUREMENT
70
1
9
$LUNITS
70
2
9
$LUPREC
70
1
9
$TILEMODE
70
1
9
$EXTMIN
10
-1813.625
20
-2491.725773
30
0
9
$EXTMAX
10
1813.625
20
2491.725773
30
0
9
$PEXTMIN
10
-1813.625
20
-2491.725773
30
0
9
$PEXTMAX
10
1813.625
20
2491.725773
30
0
9
$LIMMIN
10
-2313.625
20
-2991.725773
9
$LIMMAX
10
2313.625
20
2991.725773
9
$PLIMMIN
10
-2313.625
20
-2991.725773
9
$PLIMMAX
10
2313.625
20
2991.725773
0
ENDSEC
0
SECTION
2
TABLES
0
TABLE
2
VPORT
70
1
0
VPORT
2
*ACTIVE
70
0
10
0
20
0
11
1
21
1
12
0
22
0
40
5983.451545
41
0.773341
42
50
43
0
44
0
50
0
51
0
71
0
72
100
73
1
74
3
75
0
76
0
77
0
78
0
0
ENDTAB
0
TABLE
2
LTYPE
70
2
0
LTYPE
2
CONTINUOUS
70
0
3
Solid line
72
65
73
0
40
0
0
LTYPE
2
DASHED
70
0
3
Dashed
72
65
73
2
40
240
49
120
74
0
49
-120
74
0
0
ENDTAB
0
TABLE
2
LAYER
70
6
0
LAYER
2
PIPES
70
0
62
5
6
CONTINUOUS
0
LAYER
2
PIPE_ENDS
70
0
62
5
6
CONTINUOUS
0
LAYER
2
DIMENSION
70
0
62
1
6
CONTINUOUS
0
LAYER
2
LEVEL_GUIDE
70
0
62
1
6
DASHED
0
LAYER
2
LEVEL_TEXT
70
0
62
1
6
CONTINUOUS
0
LAYER
2
FRAME
70
0
62
5
6
CONTINUOUS
0
ENDTAB
0
TABLE
2
STYLE
70
1
0
STYLE
2
STANDARD
70
0
40
0
41
1
50
0
71
0
42
100
3
txt
4

0
ENDTAB
0
ENDSEC
0
SECTION
2
BLOCKS
0
BLOCK
8
0
2
$MODEL_SPACE
70
0
10
0
20
0
30
0
3
$MODEL_SPACE
0
ENDBLK
8
0
0
BLOCK
67
1
8
0
2
$PAPER_SPACE
70
0
10
0
20
0
30
0
3
$PAPER_SPACE
0
ENDBLK
67
1
8
0
0
ENDSEC
0
SECTION
2
ENTITIES
0
LINE
8
PIPES
10
-1633.625
20
-1571.725773
30
0
11
-1633.625
21
-1271.724773
31
0
0
LINE
8
PIPES
10
166.375
20
-1571.725773
30
0
11
166.375
21
-1271.724773
31
0
0
LINE
8
PIPES
10
166.375
20
-1271.724773
30
0
11
-1633.625
21
-1271.724773
31
0
0
LINE
8
PIPES
10
-1633.625
20
-1271.724773
30
0
11
-1633.625
21
428.274227
31
0
0
LINE
8
PIPES
10
166.375
20
-1271.724773
30
0
11
166.375
21
428.274227
31
0
0
LINE
8
PIPES
10
-1633.625
20
428.274227
30
0
11
-283.625
21
428.274227
31
0
0
LINE
8
PIPES
10
166.375
20
428.274227
30
0
11
-1183.624
21
428.274227
31
0
0
LINE
8
PIPES
10
-1633.625
20
428.274227
30
0
11
-1633.625
21
2128.284227
31
0
0
LINE
8
PIPES
10
166.375
20
428.274227
30
0
11
166.375
21
2128.284227
31
0
0
LINE
8
PIPES
10
166.375
20
2128.284227
30
0
11
-1633.625
21
2128.284227
31
0
0
LINE
8
PIPES
10
-1633.625
20
2128.284227
30
0
11
-1333.624
21
2128.284227
31
0
0
LINE
8
PIPES
10
-733.623
20
2128.284227
30
0
11
-433.625
21
2128.284227
31
0
0
LINE
8
PIPES
10
-1633.625
20
2128.284227
30
0
11
-1633.625
21
2428.284227
31
0
0
LINE
8
PIPES
10
166.375
20
2128.284227
30
0
11
166.375
21
2428.284227
31
0
0
LINE
8
PIPES
10
-733.623
20
2128.284227
30
0
11
-733.623
21
2428.284227
31
0
0
LINE
8
PIPES
10
166.375
20
2428.284227
30
0
11
-1633.625
21
2428.284227
31
0
0
LINE
8
PIPES
10
-1633.625
20
2428.284227
30
0
11
-1333.624
21
2428.284227
31
0
0
LINE
8
PIPES
10
-733.623
20
2428.284227
30
0
11
-433.625
21
2428.284227
31
0
0
LINE
8
PIPES
10
-133.625
20
2128.284227
30
0
11
166.375
21
2128.284227
31
0
0
LINE
8
PIPES
10
-133.625
20
2428.284227
30
0
11
166.375
21
2428.284227
31
0
0
LINE
8
PIPES
10
-133.625
20
2128.284227
30
0
11
-133.625
21
2428.284227
31
0
0
LINE
8
PIPES
10
-433.625
20
2128.284227
30
0
11
-133.625
21
2128.284227
31
0
0
LINE
8
PIPES
10
-433.625
20
2428.284227
30
0
11
-283.625
21
2428.284227
31
0
0
LINE
8
PIPES
10
-433.625
20
2128.284227
30
0
11
-433.625
21
2428.284227
31
0
0
LINE
8
PIPES
10
-1033.624
20
2128.284227
30
0
11
-733.623
21
2128.284227
31
0
0
LINE
8
PIPES
10
-1033.624
20
2428.284227
30
0
11
-733.623
21
2428.284227
31
0
0
LINE
8
PIPES
10
-1033.624
20
2128.284227
30
0
11
-1033.624
21
2428.284227
31
0
0
LINE
8
PIPES
10
-1333.624
20
2128.284227
30
0
11
-1033.624
21
2128.284227
31
0
0
LINE
8
PIPES
10
-1333.624
20
2428.284227
30
0
11
-1183.624
21
2428.284227
31
0
0
LINE
8
PIPES
10
-1333.624
20
2128.284227
30
0
11
-1333.624
21
2428.284227
31
0
0
LINE
8
PIPES
10
-283.625
20
2428.284227
30
0
11
-133.625
21
2428.284227
31
0
0
LINE
8
PIPES
10
-1183.624
20
2428.284227
30
0
11
-1033.624
21
2428.284227
31
0
0
LINE
8
PIPES
10
-1183.624
20
428.274227
30
0
11
-1633.625
21
428.274227
31
0
0
LINE
8
PIPES
10
-283.625
20
428.274227
30
0
11
166.375
21
428.274227
31
0
0
LINE
8
PIPES
10
-283.625
20
428.274227
30
0
11
-283.625
21
2428.284227
31
0
0
LINE
8
PIPES
10
-1183.624
20
428.274227
30
0
11
-1183.624
21
2428.284227
31
0
0
LINE
8
PIPES
10
-1633.625
20
2128.284227
30
0
11
-1633.625
21
-1271.724773
31
0
0
LINE
8
PIPES
10
-1633.625
20
2128.284227
30
0
11
166.375
21
-1271.724773
31
0
0
LINE
8
PIPES
10
166.375
20
2128.284227
30
0
11
-1633.625
21
-1271.724773
31
0
0
CIRCLE
8
PIPE_ENDS
10
-1633.625
20
2128.274227
30
0
40
32
0
CIRCLE
8
PIPE_ENDS
10
166.375
20
2128.274227
30
0
40
32
0
CIRCLE
8
PIPE_ENDS
10
-1633.625
20
2428.274227
30
0
40
32
0
CIRCLE
8
PIPE_ENDS
10
166.375
20
2428.274227
30
0
40
32
0
CIRCLE
8
PIPE_ENDS
10
-1633.625
20
428.274227
30
0
40
25
0
CIRCLE
8
PIPE_ENDS
10
-1633.625
20
-1271.725773
30
0
40
25
0
LINE
8
LEVEL_GUIDE
6
DASHED
10
-1813.625
20
-1571.725773
30
0
11
346.375
21
-1571.725773
31
0
0
LINE
8
LEVEL_GUIDE
6
DASHED
10
-1813.625
20
-1271.725773
30
0
11
346.375
21
-1271.725773
31
0
0
LINE
8
LEVEL_GUIDE
6
DASHED
10
-1813.625
20
428.274227
30
0
11
346.375
21
428.274227
31
0
0
LINE
8
LEVEL_GUIDE
6
DASHED
10
-1813.625
20
2128.284227
30
0
11
346.375
21
2128.284227
31
0
0
LINE
8
LEVEL_GUIDE
6
DASHED
10
-1813.625
20
2428.284227
30
0
11
346.375
21
2428.284227
31
0
0
LINE
8
DIMENSION
10
-1633.625
20
-1631.725773
30
0
11
-1633.625
21
-1951.725773
31
0
0
LINE
8
DIMENSION
10
-1333.625
20
-1631.725773
30
0
11
-1333.625
21
-1951.725773
31
0
0
LINE
8
DIMENSION
10
-1633.625
20
-1951.725773
30
0
11
-1333.625
21
-1951.725773
31
0
0
LINE
8
DIMENSION
10
-1633.625
20
-1951.725773
30
0
11
-1697.066545
21
-1922.142494
31
0
0
LINE
8
DIMENSION
10
-1633.625
20
-1951.725773
30
0
11
-1697.066545
21
-1981.309051
31
0
0
LINE
8
DIMENSION
10
-1333.625
20
-1951.725773
30
0
11
-1270.183455
21
-1981.309051
31
0
0
LINE
8
DIMENSION
10
-1333.625
20
-1951.725773
30
0
11
-1270.183455
21
-1922.142494
31
0
0
TEXT
8
DIMENSION
10
-1483.625
20
-2121.725773
30
0
40
85
1
0.3
50
0
7
STANDARD
72
1
73
2
11
-1483.625
21
-2121.725773
31
0
0
LINE
8
DIMENSION
10
-1333.625
20
-1631.725773
30
0
11
-1333.625
21
-1951.725773
31
0
0
LINE
8
DIMENSION
10
-1183.625
20
-1631.725773
30
0
11
-1183.625
21
-1951.725773
31
0
0
LINE
8
DIMENSION
10
-1333.625
20
-1951.725773
30
0
11
-1183.625
21
-1951.725773
31
0
0
LINE
8
DIMENSION
10
-1333.625
20
-1951.725773
30
0
11
-1397.066545
21
-1922.142494
31
0
0
LINE
8
DIMENSION
10
-1333.625
20
-1951.725773
30
0
11
-1397.066545
21
-1981.309051
31
0
0
LINE
8
DIMENSION
10
-1183.625
20
-1951.725773
30
0
11
-1120.183455
21
-1981.309051
31
0
0
LINE
8
DIMENSION
10
-1183.625
20
-1951.725773
30
0
11
-1120.183455
21
-1922.142494
31
0
0
TEXT
8
DIMENSION
10
-1258.625
20
-2121.725773
30
0
40
85
1
0.15
50
0
7
STANDARD
72
1
73
2
11
-1258.625
21
-2121.725773
31
0
0
LINE
8
DIMENSION
10
-1183.625
20
-1631.725773
30
0
11
-1183.625
21
-1951.725773
31
0
0
LINE
8
DIMENSION
10
-1033.625
20
-1631.725773
30
0
11
-1033.625
21
-1951.725773
31
0
0
LINE
8
DIMENSION
10
-1183.625
20
-1951.725773
30
0
11
-1033.625
21
-1951.725773
31
0
0
LINE
8
DIMENSION
10
-1183.625
20
-1951.725773
30
0
11
-1247.066545
21
-1922.142494
31
0
0
LINE
8
DIMENSION
10
-1183.625
20
-1951.725773
30
0
11
-1247.066545
21
-1981.309051
31
0
0
LINE
8
DIMENSION
10
-1033.625
20
-1951.725773
30
0
11
-970.183455
21
-1981.309051
31
0
0
LINE
8
DIMENSION
10
-1033.625
20
-1951.725773
30
0
11
-970.183455
21
-1922.142494
31
0
0
TEXT
8
DIMENSION
10
-1108.625
20
-2121.725773
30
0
40
85
1
0.15
50
0
7
STANDARD
72
1
73
2
11
-1108.625
21
-2121.725773
31
0
0
LINE
8
DIMENSION
10
-1033.625
20
-1631.725773
30
0
11
-1033.625
21
-1951.725773
31
0
0
LINE
8
DIMENSION
10
-733.625
20
-1631.725773
30
0
11
-733.625
21
-1951.725773
31
0
0
LINE
8
DIMENSION
10
-1033.625
20
-1951.725773
30
0
11
-733.625
21
-1951.725773
31
0
0
LINE
8
DIMENSION
10
-1033.625
20
-1951.725773
30
0
11
-1097.066545
21
-1922.142494
31
0
0
LINE
8
DIMENSION
10
-1033.625
20
-1951.725773
30
0
11
-1097.066545
21
-1981.309051
31
0
0
LINE
8
DIMENSION
10
-733.625
20
-1951.725773
30
0
11
-670.183455
21
-1981.309051
31
0
0
LINE
8
DIMENSION
10
-733.625
20
-1951.725773
30
0
11
-670.183455
21
-1922.142494
31
0
0
TEXT
8
DIMENSION
10
-883.625
20
-2121.725773
30
0
40
85
1
0.3
50
0
7
STANDARD
72
1
73
2
11
-883.625
21
-2121.725773
31
0
0
LINE
8
DIMENSION
10
-733.625
20
-1631.725773
30
0
11
-733.625
21
-1951.725773
31
0
0
LINE
8
DIMENSION
10
-433.625
20
-1631.725773
30
0
11
-433.625
21
-1951.725773
31
0
0
LINE
8
DIMENSION
10
-733.625
20
-1951.725773
30
0
11
-433.625
21
-1951.725773
31
0
0
LINE
8
DIMENSION
10
-733.625
20
-1951.725773
30
0
11
-797.066545
21
-1922.142494
31
0
0
LINE
8
DIMENSION
10
-733.625
20
-1951.725773
30
0
11
-797.066545
21
-1981.309051
31
0
0
LINE
8
DIMENSION
10
-433.625
20
-1951.725773
30
0
11
-370.183455
21
-1981.309051
31
0
0
LINE
8
DIMENSION
10
-433.625
20
-1951.725773
30
0
11
-370.183455
21
-1922.142494
31
0
0
TEXT
8
DIMENSION
10
-583.625
20
-2121.725773
30
0
40
85
1
0.3
50
0
7
STANDARD
72
1
73
2
11
-583.625
21
-2121.725773
31
0
0
LINE
8
DIMENSION
10
-433.625
20
-1631.725773
30
0
11
-433.625
21
-1951.725773
31
0
0
LINE
8
DIMENSION
10
-283.625
20
-1631.725773
30
0
11
-283.625
21
-1951.725773
31
0
0
LINE
8
DIMENSION
10
-433.625
20
-1951.725773
30
0
11
-283.625
21
-1951.725773
31
0
0
LINE
8
DIMENSION
10
-433.625
20
-1951.725773
30
0
11
-497.066545
21
-1922.142494
31
0
0
LINE
8
DIMENSION
10
-433.625
20
-1951.725773
30
0
11
-497.066545
21
-1981.309051
31
0
0
LINE
8
DIMENSION
10
-283.625
20
-1951.725773
30
0
11
-220.183455
21
-1981.309051
31
0
0
LINE
8
DIMENSION
10
-283.625
20
-1951.725773
30
0
11
-220.183455
21
-1922.142494
31
0
0
TEXT
8
DIMENSION
10
-358.625
20
-2121.725773
30
0
40
85
1
0.15
50
0
7
STANDARD
72
1
73
2
11
-358.625
21
-2121.725773
31
0
0
LINE
8
DIMENSION
10
-283.625
20
-1631.725773
30
0
11
-283.625
21
-1951.725773
31
0
0
LINE
8
DIMENSION
10
-133.625
20
-1631.725773
30
0
11
-133.625
21
-1951.725773
31
0
0
LINE
8
DIMENSION
10
-283.625
20
-1951.725773
30
0
11
-133.625
21
-1951.725773
31
0
0
LINE
8
DIMENSION
10
-283.625
20
-1951.725773
30
0
11
-347.066545
21
-1922.142494
31
0
0
LINE
8
DIMENSION
10
-283.625
20
-1951.725773
30
0
11
-347.066545
21
-1981.309051
31
0
0
LINE
8
DIMENSION
10
-133.625
20
-1951.725773
30
0
11
-70.183455
21
-1981.309051
31
0
0
LINE
8
DIMENSION
10
-133.625
20
-1951.725773
30
0
11
-70.183455
21
-1922.142494
31
0
0
TEXT
8
DIMENSION
10
-208.625
20
-2121.725773
30
0
40
85
1
0.15
50
0
7
STANDARD
72
1
73
2
11
-208.625
21
-2121.725773
31
0
0
LINE
8
DIMENSION
10
-133.625
20
-1631.725773
30
0
11
-133.625
21
-1951.725773
31
0
0
LINE
8
DIMENSION
10
166.375
20
-1631.725773
30
0
11
166.375
21
-1951.725773
31
0
0
LINE
8
DIMENSION
10
-133.625
20
-1951.725773
30
0
11
166.375
21
-1951.725773
31
0
0
LINE
8
DIMENSION
10
-133.625
20
-1951.725773
30
0
11
-197.066545
21
-1922.142494
31
0
0
LINE
8
DIMENSION
10
-133.625
20
-1951.725773
30
0
11
-197.066545
21
-1981.309051
31
0
0
LINE
8
DIMENSION
10
166.375
20
-1951.725773
30
0
11
229.816545
21
-1981.309051
31
0
0
LINE
8
DIMENSION
10
166.375
20
-1951.725773
30
0
11
229.816545
21
-1922.142494
31
0
0
TEXT
8
DIMENSION
10
16.375
20
-2121.725773
30
0
40
85
1
0.3
50
0
7
STANDARD
72
1
73
2
11
16.375
21
-2121.725773
31
0
0
LINE
8
DIMENSION
10
-1633.625
20
-1631.725773
30
0
11
-1633.625
21
-2321.725773
31
0
0
LINE
8
DIMENSION
10
166.375
20
-1631.725773
30
0
11
166.375
21
-2321.725773
31
0
0
LINE
8
DIMENSION
10
-1633.625
20
-2321.725773
30
0
11
166.375
21
-2321.725773
31
0
0
LINE
8
DIMENSION
10
-1633.625
20
-2321.725773
30
0
11
-1697.066545
21
-2292.142494
31
0
0
LINE
8
DIMENSION
10
-1633.625
20
-2321.725773
30
0
11
-1697.066545
21
-2351.309051
31
0
0
LINE
8
DIMENSION
10
166.375
20
-2321.725773
30
0
11
229.816545
21
-2351.309051
31
0
0
LINE
8
DIMENSION
10
166.375
20
-2321.725773
30
0
11
229.816545
21
-2292.142494
31
0
0
TEXT
8
DIMENSION
10
-733.625
20
-2491.725773
30
0
40
85
1
TOTAL 1.8
50
0
7
STANDARD
72
1
73
2
11
-733.625
21
-2491.725773
31
0
0
LINE
8
DIMENSION
10
226.375
20
-1571.725773
30
0
11
866.375
21
-1571.725773
31
0
0
LINE
8
DIMENSION
10
226.375
20
-1271.725773
30
0
11
866.375
21
-1271.725773
31
0
0
LINE
8
DIMENSION
10
866.375
20
-1571.725773
30
0
11
866.375
21
-1271.725773
31
0
0
LINE
8
DIMENSION
10
866.375
20
-1571.725773
30
0
11
836.791722
21
-1635.167318
31
0
0
LINE
8
DIMENSION
10
866.375
20
-1571.725773
30
0
11
895.958278
21
-1635.167318
31
0
0
LINE
8
DIMENSION
10
866.375
20
-1271.725773
30
0
11
895.958278
21
-1208.284227
31
0
0
LINE
8
DIMENSION
10
866.375
20
-1271.725773
30
0
11
836.791722
21
-1208.284227
31
0
0
TEXT
8
DIMENSION
10
1036.375
20
-1421.725773
30
0
40
85
1
0.3
50
90
7
STANDARD
72
1
73
2
11
1036.375
21
-1421.725773
31
0
0
LINE
8
DIMENSION
10
226.375
20
-1271.725773
30
0
11
866.375
21
-1271.725773
31
0
0
LINE
8
DIMENSION
10
226.375
20
428.274227
30
0
11
866.375
21
428.274227
31
0
0
LINE
8
DIMENSION
10
866.375
20
-1271.725773
30
0
11
866.375
21
428.274227
31
0
0
LINE
8
DIMENSION
10
866.375
20
-1271.725773
30
0
11
836.791722
21
-1335.167318
31
0
0
LINE
8
DIMENSION
10
866.375
20
-1271.725773
30
0
11
895.958278
21
-1335.167318
31
0
0
LINE
8
DIMENSION
10
866.375
20
428.274227
30
0
11
895.958278
21
491.715773
31
0
0
LINE
8
DIMENSION
10
866.375
20
428.274227
30
0
11
836.791722
21
491.715773
31
0
0
TEXT
8
DIMENSION
10
1036.375
20
-421.725773
30
0
40
85
1
1.7
50
90
7
STANDARD
72
1
73
2
11
1036.375
21
-421.725773
31
0
0
LINE
8
DIMENSION
10
226.375
20
428.274227
30
0
11
866.375
21
428.274227
31
0
0
LINE
8
DIMENSION
10
226.375
20
2128.284227
30
0
11
866.375
21
2128.284227
31
0
0
LINE
8
DIMENSION
10
866.375
20
428.274227
30
0
11
866.375
21
2128.284227
31
0
0
LINE
8
DIMENSION
10
866.375
20
428.274227
30
0
11
836.791722
21
364.832682
31
0
0
LINE
8
DIMENSION
10
866.375
20
428.274227
30
0
11
895.958278
21
364.832682
31
0
0
LINE
8
DIMENSION
10
866.375
20
2128.284227
30
0
11
895.958278
21
2191.725773
31
0
0
LINE
8
DIMENSION
10
866.375
20
2128.284227
30
0
11
836.791722
21
2191.725773
31
0
0
TEXT
8
DIMENSION
10
1036.375
20
1278.279227
30
0
40
85
1
1.7
50
90
7
STANDARD
72
1
73
2
11
1036.375
21
1278.279227
31
0
0
LINE
8
DIMENSION
10
226.375
20
2128.284227
30
0
11
866.375
21
2128.284227
31
0
0
LINE
8
DIMENSION
10
226.375
20
2428.284227
30
0
11
866.375
21
2428.284227
31
0
0
LINE
8
DIMENSION
10
866.375
20
2128.284227
30
0
11
866.375
21
2428.284227
31
0
0
LINE
8
DIMENSION
10
866.375
20
2128.284227
30
0
11
836.791722
21
2064.842682
31
0
0
LINE
8
DIMENSION
10
866.375
20
2128.284227
30
0
11
895.958278
21
2064.842682
31
0
0
LINE
8
DIMENSION
10
866.375
20
2428.284227
30
0
11
895.958278
21
2491.725773
31
0
0
LINE
8
DIMENSION
10
866.375
20
2428.284227
30
0
11
836.791722
21
2491.725773
31
0
0
TEXT
8
DIMENSION
10
1036.375
20
2278.284227
30
0
40
85
1
0.3
50
90
7
STANDARD
72
1
73
2
11
1036.375
21
2278.284227
31
0
0
LINE
8
DIMENSION
10
226.375
20
-1571.725773
30
0
11
1316.375
21
-1571.725773
31
0
0
LINE
8
DIMENSION
10
226.375
20
2428.284227
30
0
11
1316.375
21
2428.284227
31
0
0
LINE
8
DIMENSION
10
1316.375
20
-1571.725773
30
0
11
1316.375
21
2428.284227
31
0
0
LINE
8
DIMENSION
10
1316.375
20
-1571.725773
30
0
11
1286.791722
21
-1635.167318
31
0
0
LINE
8
DIMENSION
10
1316.375
20
-1571.725773
30
0
11
1345.958278
21
-1635.167318
31
0
0
LINE
8
DIMENSION
10
1316.375
20
2428.284227
30
0
11
1345.958278
21
2491.725773
31
0
0
LINE
8
DIMENSION
10
1316.375
20
2428.284227
30
0
11
1286.791722
21
2491.725773
31
0
0
TEXT
8
DIMENSION
10
1486.375
20
428.279227
30
0
40
85
1
TOTAL 4
50
90
7
STANDARD
72
1
73
2
11
1486.375
21
428.279227
31
0
0
ENDSEC
0
EOF
