0
SECTION
2
HEADER
9
$ACADVER
1
AC1009
9
$INSUNITS
70
4
9
$MEASUREMENT
70
1
9
$LUNITS
70
2
9
$LUPREC
70
1
9
$TILEMODE
70
1
9
$EXTMIN
10
-1802.095773
20
-1391.720773
30
0
9
$EXTMAX
10
1802.095773
20
1391.720773
30
0
9
$PEXTMIN
10
-1802.095773
20
-1391.720773
30
0
9
$PEXTMAX
10
1802.095773
20
1391.720773
30
0
9
$LIMMIN
10
-2302.095773
20
-1891.720773
9
$LIMMAX
10
2302.095773
20
1891.720773
9
$PLIMMIN
10
-2302.095773
20
-1891.720773
9
$PLIMMAX
10
2302.095773
20
1891.720773
0
ENDSEC
0
SECTION
2
TABLES
0
TABLE
2
VPORT
70
1
0
VPORT
2
*ACTIVE
70
0
10
0
20
0
11
1
21
1
12
0
22
0
40
3783.441545
41
1.216932
42
50
43
0
44
0
50
0
51
0
71
0
72
100
73
1
74
3
75
0
76
0
77
0
78
0
0
ENDTAB
0
TABLE
2
LTYPE
70
2
0
LTYPE
2
CONTINUOUS
70
0
3
Solid line
72
65
73
0
40
0
0
LTYPE
2
DASHED
70
0
3
Dashed
72
65
73
2
40
240
49
120
74
0
49
-120
74
0
0
ENDTAB
0
TABLE
2
LAYER
70
6
0
LAYER
2
PIPES
70
0
62
5
6
CONTINUOUS
0
LAYER
2
PIPE_ENDS
70
0
62
5
6
CONTINUOUS
0
LAYER
2
DIMENSION
70
0
62
1
6
CONTINUOUS
0
LAYER
2
LEVEL_GUIDE
70
0
62
1
6
DASHED
0
LAYER
2
LEVEL_TEXT
70
0
62
1
6
CONTINUOUS
0
LAYER
2
FRAME
70
0
62
5
6
CONTINUOUS
0
ENDTAB
0
TABLE
2
STYLE
70
1
0
STYLE
2
STANDARD
70
0
40
0
41
1
50
0
71
0
42
100
3
txt
4

0
ENDTAB
0
ENDSEC
0
SECTION
2
BLOCKS
0
BLOCK
8
0
2
$MODEL_SPACE
70
0
10
0
20
0
30
0
3
$MODEL_SPACE
0
ENDBLK
8
0
0
BLOCK
67
1
8
0
2
$PAPER_SPACE
70
0
10
0
20
0
30
0
3
$PAPER_SPACE
0
ENDBLK
67
1
8
0
0
ENDSEC
0
SECTION
2
ENTITIES
0
LINE
8
PIPES
10
61.345773
20
1328.279227
30
0
11
61.345773
21
-471.720773
31
0
0
LINE
8
PIPES
10
-1738.654227
20
-471.720773
30
0
11
-1738.654227
21
1328.279227
31
0
0
LINE
8
PIPES
10
61.345773
20
-471.720773
30
0
11
61.345773
21
878.279227
31
0
0
LINE
8
PIPES
10
-1738.654227
20
1328.279227
30
0
11
-1738.654227
21
-21.719773
31
0
0
LINE
8
PIPES
10
-1738.654227
20
-471.720773
30
0
11
-838.652227
21
-471.720773
31
0
0
LINE
8
PIPES
10
-838.652227
20
-471.720773
30
0
11
61.345773
21
-471.720773
31
0
0
LINE
8
PIPES
10
61.345773
20
1328.279227
30
0
11
-838.652227
21
1328.279227
31
0
0
LINE
8
PIPES
10
-838.652227
20
1328.279227
30
0
11
-1738.654227
21
1328.279227
31
0
0
LINE
8
PIPES
10
-838.652227
20
-471.720773
30
0
11
-838.652227
21
-171.719773
31
0
0
LINE
8
PIPES
10
-838.652227
20
428.281227
30
0
11
-838.652227
21
728.279227
31
0
0
LINE
8
PIPES
10
-838.652227
20
1028.279227
30
0
11
-838.652227
21
1328.279227
31
0
0
LINE
8
PIPES
10
-838.652227
20
728.279227
30
0
11
-838.652227
21
1028.279227
31
0
0
LINE
8
PIPES
10
-838.652227
20
728.279227
30
0
11
-838.652227
21
878.279227
31
0
0
LINE
8
PIPES
10
-838.652227
20
128.280227
30
0
11
-838.652227
21
428.281227
31
0
0
LINE
8
PIPES
10
-838.652227
20
-171.719773
30
0
11
-838.652227
21
128.280227
31
0
0
LINE
8
PIPES
10
-838.652227
20
-171.719773
30
0
11
-838.652227
21
-21.719773
31
0
0
LINE
8
PIPES
10
-838.652227
20
878.279227
30
0
11
-838.652227
21
1028.279227
31
0
0
LINE
8
PIPES
10
-838.652227
20
-21.719773
30
0
11
-838.652227
21
128.280227
31
0
0
LINE
8
PIPES
10
-1738.654227
20
-21.719773
30
0
11
-1738.654227
21
-471.720773
31
0
0
LINE
8
PIPES
10
61.345773
20
878.279227
30
0
11
61.345773
21
1328.279227
31
0
0
LINE
8
PIPES
10
61.345773
20
878.279227
30
0
11
-838.652227
21
878.279227
31
0
0
LINE
8
PIPES
10
-1738.654227
20
-21.719773
30
0
11
-838.652227
21
-21.719773
31
0
0
LINE
8
PIPES
10
61.345773
20
-471.720773
30
0
11
-1738.654227
21
-471.720773
31
0
0
CIRCLE
8
PIPE_ENDS
10
-1738.654227
20
-471.720773
30
0
40
32
0
CIRCLE
8
PIPE_ENDS
10
61.345773
20
-471.720773
30
0
40
32
0
CIRCLE
8
PIPE_ENDS
10
61.345773
20
1328.279227
30
0
40
32
0
CIRCLE
8
PIPE_ENDS
10
-1738.654227
20
1328.279227
30
0
40
32
0
CIRCLE
8
PIPE_ENDS
10
-838.654227
20
-471.720773
30
0
40
25
0
CIRCLE
8
PIPE_ENDS
10
-838.654227
20
1328.279227
30
0
40
25
0
CIRCLE
8
PIPE_ENDS
10
-838.654227
20
428.279227
30
0
40
25
0
CIRCLE
8
PIPE_ENDS
10
-838.654227
20
1028.279227
30
0
40
25
0
CIRCLE
8
PIPE_ENDS
10
-838.654227
20
728.279227
30
0
40
25
0
CIRCLE
8
PIPE_ENDS
10
-838.654227
20
128.279227
30
0
40
25
0
CIRCLE
8
PIPE_ENDS
10
-838.654227
20
-171.720773
30
0
40
25
0
LINE
8
DIMENSION
10
-1738.654227
20
-531.720773
30
0
11
-1738.654227
21
-851.720773
31
0
0
LINE
8
DIMENSION
10
-838.654227
20
-531.720773
30
0
11
-838.654227
21
-851.720773
31
0
0
LINE
8
DIMENSION
10
-1738.654227
20
-851.720773
30
0
11
-838.654227
21
-851.720773
31
0
0
LINE
8
DIMENSION
10
-1738.654227
20
-851.720773
30
0
11
-1802.095773
21
-822.137494
31
0
0
LINE
8
DIMENSION
10
-1738.654227
20
-851.720773
30
0
11
-1802.095773
21
-881.304051
31
0
0
LINE
8
DIMENSION
10
-838.654227
20
-851.720773
30
0
11
-775.212682
21
-881.304051
31
0
0
LINE
8
DIMENSION
10
-838.654227
20
-851.720773
30
0
11
-775.212682
21
-822.137494
31
0
0
TEXT
8
DIMENSION
10
-1288.654227
20
-1021.720773
30
0
40
85
1
0.9
50
0
7
STANDARD
72
1
73
2
11
-1288.654227
21
-1021.720773
31
0
0
LINE
8
DIMENSION
10
-838.654227
20
-531.720773
30
0
11
-838.654227
21
-851.720773
31
0
0
LINE
8
DIMENSION
10
61.345773
20
-531.720773
30
0
11
61.345773
21
-851.720773
31
0
0
LINE
8
DIMENSION
10
-838.654227
20
-851.720773
30
0
11
61.345773
21
-851.720773
31
0
0
LINE
8
DIMENSION
10
-838.654227
20
-851.720773
30
0
11
-902.095773
21
-822.137494
31
0
0
LINE
8
DIMENSION
10
-838.654227
20
-851.720773
30
0
11
-902.095773
21
-881.304051
31
0
0
LINE
8
DIMENSION
10
61.345773
20
-851.720773
30
0
11
124.787318
21
-881.304051
31
0
0
LINE
8
DIMENSION
10
61.345773
20
-851.720773
30
0
11
124.787318
21
-822.137494
31
0
0
TEXT
8
DIMENSION
10
-388.654227
20
-1021.720773
30
0
40
85
1
0.9
50
0
7
STANDARD
72
1
73
2
11
-388.654227
21
-1021.720773
31
0
0
LINE
8
DIMENSION
10
-1738.654227
20
-531.720773
30
0
11
-1738.654227
21
-1221.720773
31
0
0
LINE
8
DIMENSION
10
61.345773
20
-531.720773
30
0
11
61.345773
21
-1221.720773
31
0
0
LINE
8
DIMENSION
10
-1738.654227
20
-1221.720773
30
0
11
61.345773
21
-1221.720773
31
0
0
LINE
8
DIMENSION
10
-1738.654227
20
-1221.720773
30
0
11
-1802.095773
21
-1192.137494
31
0
0
LINE
8
DIMENSION
10
-1738.654227
20
-1221.720773
30
0
11
-1802.095773
21
-1251.304051
31
0
0
LINE
8
DIMENSION
10
61.345773
20
-1221.720773
30
0
11
124.787318
21
-1251.304051
31
0
0
LINE
8
DIMENSION
10
61.345773
20
-1221.720773
30
0
11
124.787318
21
-1192.137494
31
0
0
TEXT
8
DIMENSION
10
-838.654227
20
-1391.720773
30
0
40
85
1
TOTAL 1.8
50
0
7
STANDARD
72
1
73
2
11
-838.654227
21
-1391.720773
31
0
0
LINE
8
DIMENSION
10
121.345773
20
-471.720773
30
0
11
761.345773
21
-471.720773
31
0
0
LINE
8
DIMENSION
10
121.345773
20
-171.720773
30
0
11
761.345773
21
-171.720773
31
0
0
LINE
8
DIMENSION
10
761.345773
20
-471.720773
30
0
11
761.345773
21
-171.720773
31
0
0
LINE
8
DIMENSION
10
761.345773
20
-471.720773
30
0
11
731.762494
21
-535.162318
31
0
0
LINE
8
DIMENSION
10
761.345773
20
-471.720773
30
0
11
790.929051
21
-535.162318
31
0
0
LINE
8
DIMENSION
10
761.345773
20
-171.720773
30
0
11
790.929051
21
-108.279227
31
0
0
LINE
8
DIMENSION
10
761.345773
20
-171.720773
30
0
11
731.762494
21
-108.279227
31
0
0
TEXT
8
DIMENSION
10
931.345773
20
-321.720773
30
0
40
85
1
0.3
50
90
7
STANDARD
72
1
73
2
11
931.345773
21
-321.720773
31
0
0
LINE
8
DIMENSION
10
121.345773
20
-171.720773
30
0
11
761.345773
21
-171.720773
31
0
0
LINE
8
DIMENSION
10
121.345773
20
-21.720773
30
0
11
761.345773
21
-21.720773
31
0
0
LINE
8
DIMENSION
10
761.345773
20
-171.720773
30
0
11
761.345773
21
-21.720773
31
0
0
LINE
8
DIMENSION
10
761.345773
20
-171.720773
30
0
11
731.762494
21
-235.162318
31
0
0
LINE
8
DIMENSION
10
761.345773
20
-171.720773
30
0
11
790.929051
21
-235.162318
31
0
0
LINE
8
DIMENSION
10
761.345773
20
-21.720773
30
0
11
790.929051
21
41.720773
31
0
0
LINE
8
DIMENSION
10
761.345773
20
-21.720773
30
0
11
731.762494
21
41.720773
31
0
0
TEXT
8
DIMENSION
10
931.345773
20
-96.720773
30
0
40
85
1
0.15
50
90
7
STANDARD
72
1
73
2
11
931.345773
21
-96.720773
31
0
0
LINE
8
DIMENSION
10
121.345773
20
-21.720773
30
0
11
761.345773
21
-21.720773
31
0
0
LINE
8
DIMENSION
10
121.345773
20
128.279227
30
0
11
761.345773
21
128.279227
31
0
0
LINE
8
DIMENSION
10
761.345773
20
-21.720773
30
0
11
761.345773
21
128.279227
31
0
0
LINE
8
DIMENSION
10
761.345773
20
-21.720773
30
0
11
731.762494
21
-85.162318
31
0
0
LINE
8
DIMENSION
10
761.345773
20
-21.720773
30
0
11
790.929051
21
-85.162318
31
0
0
LINE
8
DIMENSION
10
761.345773
20
128.279227
30
0
11
790.929051
21
191.720773
31
0
0
LINE
8
DIMENSION
10
761.345773
20
128.279227
30
0
11
731.762494
21
191.720773
31
0
0
TEXT
8
DIMENSION
10
931.345773
20
53.279227
30
0
40
85
1
0.15
50
90
7
STANDARD
72
1
73
2
11
931.345773
21
53.279227
31
0
0
LINE
8
DIMENSION
10
121.345773
20
128.279227
30
0
11
761.345773
21
128.279227
31
0
0
LINE
8
DIMENSION
10
121.345773
20
428.279227
30
0
11
761.345773
21
428.279227
31
0
0
LINE
8
DIMENSION
10
761.345773
20
128.279227
30
0
11
761.345773
21
428.279227
31
0
0
LINE
8
DIMENSION
10
761.345773
20
128.279227
30
0
11
731.762494
21
64.837682
31
0
0
LINE
8
DIMENSION
10
761.345773
20
128.279227
30
0
11
790.929051
21
64.837682
31
0
0
LINE
8
DIMENSION
10
761.345773
20
428.279227
30
0
11
790.929051
21
491.720773
31
0
0
LINE
8
DIMENSION
10
761.345773
20
428.279227
30
0
11
731.762494
21
491.720773
31
0
0
TEXT
8
DIMENSION
10
931.345773
20
278.279227
30
0
40
85
1
0.3
50
90
7
STANDARD
72
1
73
2
11
931.345773
21
278.279227
31
0
0
LINE
8
DIMENSION
10
121.345773
20
428.279227
30
0
11
761.345773
21
428.279227
31
0
0
LINE
8
DIMENSION
10
121.345773
20
728.279227
30
0
11
761.345773
21
728.279227
31
0
0
LINE
8
DIMENSION
10
761.345773
20
428.279227
30
0
11
761.345773
21
728.279227
31
0
0
LINE
8
DIMENSION
10
761.345773
20
428.279227
30
0
11
731.762494
21
364.837682
31
0
0
LINE
8
DIMENSION
10
761.345773
20
428.279227
30
0
11
790.929051
21
364.837682
31
0
0
LINE
8
DIMENSION
10
761.345773
20
728.279227
30
0
11
790.929051
21
791.720773
31
0
0
LINE
8
DIMENSION
10
761.345773
20
728.279227
30
0
11
731.762494
21
791.720773
31
0
0
TEXT
8
DIMENSION
10
931.345773
20
578.279227
30
0
40
85
1
0.3
50
90
7
STANDARD
72
1
73
2
11
931.345773
21
578.279227
31
0
0
LINE
8
DIMENSION
10
121.345773
20
728.279227
30
0
11
761.345773
21
728.279227
31
0
0
LINE
8
DIMENSION
10
121.345773
20
878.279227
30
0
11
761.345773
21
878.279227
31
0
0
LINE
8
DIMENSION
10
761.345773
20
728.279227
30
0
11
761.345773
21
878.279227
31
0
0
LINE
8
DIMENSION
10
761.345773
20
728.279227
30
0
11
731.762494
21
664.837682
31
0
0
LINE
8
DIMENSION
10
761.345773
20
728.279227
30
0
11
790.929051
21
664.837682
31
0
0
LINE
8
DIMENSION
10
761.345773
20
878.279227
30
0
11
790.929051
21
941.720773
31
0
0
LINE
8
DIMENSION
10
761.345773
20
878.279227
30
0
11
731.762494
21
941.720773
31
0
0
TEXT
8
DIMENSION
10
931.345773
20
803.279227
30
0
40
85
1
0.15
50
90
7
STANDARD
72
1
73
2
11
931.345773
21
803.279227
31
0
0
LINE
8
DIMENSION
10
121.345773
20
878.279227
30
0
11
761.345773
21
878.279227
31
0
0
LINE
8
DIMENSION
10
121.345773
20
1028.279227
30
0
11
761.345773
21
1028.279227
31
0
0
LINE
8
DIMENSION
10
761.345773
20
878.279227
30
0
11
761.345773
21
1028.279227
31
0
0
LINE
8
DIMENSION
10
761.345773
20
878.279227
30
0
11
731.762494
21
814.837682
31
0
0
LINE
8
DIMENSION
10
761.345773
20
878.279227
30
0
11
790.929051
21
814.837682
31
0
0
LINE
8
DIMENSION
10
761.345773
20
1028.279227
30
0
11
790.929051
21
1091.720773
31
0
0
LINE
8
DIMENSION
10
761.345773
20
1028.279227
30
0
11
731.762494
21
1091.720773
31
0
0
TEXT
8
DIMENSION
10
931.345773
20
953.279227
30
0
40
85
1
0.15
50
90
7
STANDARD
72
1
73
2
11
931.345773
21
953.279227
31
0
0
LINE
8
DIMENSION
10
121.345773
20
1028.279227
30
0
11
761.345773
21
1028.279227
31
0
0
LINE
8
DIMENSION
10
121.345773
20
1328.279227
30
0
11
761.345773
21
1328.279227
31
0
0
LINE
8
DIMENSION
10
761.345773
20
1028.279227
30
0
11
761.345773
21
1328.279227
31
0
0
LINE
8
DIMENSION
10
761.345773
20
1028.279227
30
0
11
731.762494
21
964.837682
31
0
0
LINE
8
DIMENSION
10
761.345773
20
1028.279227
30
0
11
790.929051
21
964.837682
31
0
0
LINE
8
DIMENSION
10
761.345773
20
1328.279227
30
0
11
790.929051
21
1391.720773
31
0
0
LINE
8
DIMENSION
10
761.345773
20
1328.279227
30
0
11
731.762494
21
1391.720773
31
0
0
TEXT
8
DIMENSION
10
931.345773
20
1178.279227
30
0
40
85
1
0.3
50
90
7
STANDARD
72
1
73
2
11
931.345773
21
1178.279227
31
0
0
LINE
8
DIMENSION
10
121.345773
20
-471.720773
30
0
11
1211.345773
21
-471.720773
31
0
0
LINE
8
DIMENSION
10
121.345773
20
1328.279227
30
0
11
1211.345773
21
1328.279227
31
0
0
LINE
8
DIMENSION
10
1211.345773
20
-471.720773
30
0
11
1211.345773
21
1328.279227
31
0
0
LINE
8
DIMENSION
10
1211.345773
20
-471.720773
30
0
11
1181.762494
21
-535.162318
31
0
0
LINE
8
DIMENSION
10
1211.345773
20
-471.720773
30
0
11
1240.929051
21
-535.162318
31
0
0
LINE
8
DIMENSION
10
1211.345773
20
1328.279227
30
0
11
1240.929051
21
1391.720773
31
0
0
LINE
8
DIMENSION
10
1211.345773
20
1328.279227
30
0
11
1181.762494
21
1391.720773
31
0
0
TEXT
8
DIMENSION
10
1381.345773
20
428.279227
30
0
40
85
1
TOTAL 1.8
50
90
7
STANDARD
72
1
73
2
11
1381.345773
21
428.279227
31
0
0
ENDSEC
0
EOF
