0
SECTION
2
HEADER
9
$ACADVER
1
AC1009
9
$INSUNITS
70
4
9
$MEASUREMENT
70
1
9
$LUNITS
70
2
9
$LUPREC
70
1
9
$TILEMODE
70
1
9
$EXTMIN
10
-4759.622977
20
-12250.005
30
0
9
$EXTMAX
10
4759.622977
20
12250.005
30
0
9
$PEXTMIN
10
-4759.622977
20
-12250.005
30
0
9
$PEXTMAX
10
4759.622977
20
12250.005
30
0
9
$LIMMIN
10
-5259.622977
20
-12750.005
9
$LIMMAX
10
5259.622977
20
12750.005
9
$PLIMMIN
10
-5259.622977
20
-12750.005
9
$PLIMMAX
10
5259.622977
20
12750.005
0
ENDSEC
0
SECTION
2
TABLES
0
TABLE
2
VPORT
70
1
0
VPORT
2
*ACTIVE
70
0
10
0
20
0
11
1
21
1
12
0
22
0
40
25500.01
41
0.412519
42
50
43
0
44
0
50
0
51
0
71
0
72
100
73
1
74
3
75
0
76
0
77
0
78
0
0
ENDTAB
0
TABLE
2
LTYPE
70
2
0
LTYPE
2
CONTINUOUS
70
0
3
Solid line
72
65
73
0
40
0
0
LTYPE
2
DASHED
70
0
3
Dashed
72
65
73
2
40
240
49
120
74
0
49
-120
74
0
0
ENDTAB
0
TABLE
2
LAYER
70
6
0
LAYER
2
PIPES
70
0
62
5
6
CONTINUOUS
0
LAYER
2
PIPE_ENDS
70
0
62
5
6
CONTINUOUS
0
LAYER
2
DIMENSION
70
0
62
1
6
CONTINUOUS
0
LAYER
2
LEVEL_GUIDE
70
0
62
1
6
DASHED
0
LAYER
2
LEVEL_TEXT
70
0
62
1
6
CONTINUOUS
0
LAYER
2
FRAME
70
0
62
5
6
CONTINUOUS
0
ENDTAB
0
TABLE
2
STYLE
70
1
0
STYLE
2
STANDARD
70
0
40
0
41
1
50
0
71
0
42
100
3
txt
4

0
ENDTAB
0
ENDSEC
0
SECTION
2
BLOCKS
0
BLOCK
8
0
2
$MODEL_SPACE
70
0
10
0
20
0
30
0
3
$MODEL_SPACE
0
ENDBLK
8
0
0
BLOCK
67
1
8
0
2
$PAPER_SPACE
70
0
10
0
20
0
30
0
3
$PAPER_SPACE
0
ENDBLK
67
1
8
0
0
ENDSEC
0
SECTION
2
ENTITIES
0
LINE
8
PIPES
10
-1295.512702
20
-12250.005
30
0
11
-1295.512702
21
-11950.004
31
0
0
LINE
8
PIPES
10
-2161.538106
20
-11750.005
30
0
11
-2161.538106
21
-11450.004
31
0
0
LINE
8
PIPES
10
-3027.563509
20
-11250.005
30
0
11
-3027.563509
21
-10950.004
31
0
0
LINE
8
PIPES
10
-3893.597573
20
-10750
30
0
11
-3893.597573
21
-10449.999
31
0
0
LINE
8
PIPES
10
-4759.622977
20
-10250
30
0
11
-4759.622977
21
-9949.999
31
0
0
LINE
8
PIPES
10
-3893.597573
20
-9750
30
0
11
-3893.597573
21
-9449.999
31
0
0
LINE
8
PIPES
10
-3027.57217
20
-10250
30
0
11
-3027.57217
21
-9949.999
31
0
0
LINE
8
PIPES
10
-2161.538106
20
-10750.005
30
0
11
-2161.538106
21
-10450.004
31
0
0
LINE
8
PIPES
10
-1295.512702
20
-11250.005
30
0
11
-1295.512702
21
-10950.004
31
0
0
LINE
8
PIPES
10
-429.487298
20
-11750.005
30
0
11
-429.487298
21
-11450.004
31
0
0
LINE
8
PIPES
10
869.550808
20
-11000.005
30
0
11
869.550808
21
-10700.004
31
0
0
LINE
8
PIPES
10
3.525404
20
-10500.005
30
0
11
3.525404
21
-10200.004
31
0
0
LINE
8
PIPES
10
1302.57217
20
-9750
30
0
11
1302.57217
21
-9449.999
31
0
0
LINE
8
PIPES
10
2168.597573
20
-10250
30
0
11
2168.597573
21
-9949.999
31
0
0
LINE
8
PIPES
10
3034.622977
20
-9750
30
0
11
3034.622977
21
-9449.999
31
0
0
LINE
8
PIPES
10
2168.597573
20
-9250
30
0
11
2168.597573
21
-8949.999
31
0
0
LINE
8
PIPES
10
436.546766
20
-9250
30
0
11
436.546766
21
-8949.999
31
0
0
LINE
8
PIPES
10
1302.57217
20
-8750
30
0
11
1302.57217
21
-8449.999
31
0
0
LINE
8
PIPES
10
436.538106
20
-8249.995
30
0
11
436.538106
21
-7949.994
31
0
0
LINE
8
PIPES
10
-429.487298
20
-7749.995
30
0
11
-429.487298
21
-7449.994
31
0
0
LINE
8
PIPES
10
-1295.512702
20
-8249.995
30
0
11
-1295.512702
21
-7949.994
31
0
0
LINE
8
PIPES
10
-429.487298
20
-8749.995
30
0
11
-429.487298
21
-8449.994
31
0
0
LINE
8
PIPES
10
-1728.534064
20
-9500
30
0
11
-1728.534064
21
-9199.999
31
0
0
LINE
8
PIPES
10
-2594.559468
20
-9000
30
0
11
-2594.559468
21
-8699.999
31
0
0
LINE
8
PIPES
10
-1295.512702
20
-11950.004
30
0
11
-2161.538106
21
-11450.004
31
0
0
LINE
8
PIPES
10
-2161.538106
20
-11450.004
30
0
11
-3027.563509
21
-10950.004
31
0
0
LINE
8
PIPES
10
-3027.563509
20
-10950.004
30
0
11
-3893.597573
21
-10449.999
31
0
0
LINE
8
PIPES
10
-3893.597573
20
-10449.999
30
0
11
-4759.622977
21
-9949.999
31
0
0
LINE
8
PIPES
10
-4759.622977
20
-9949.999
30
0
11
-3893.597573
21
-9449.999
31
0
0
LINE
8
PIPES
10
-3893.597573
20
-9449.999
30
0
11
-3027.57217
21
-9949.999
31
0
0
LINE
8
PIPES
10
-3027.57217
20
-9949.999
30
0
11
-3893.597573
21
-10449.999
31
0
0
LINE
8
PIPES
10
-3027.57217
20
-9949.999
30
0
11
-2161.538106
21
-10450.004
31
0
0
LINE
8
PIPES
10
-2161.538106
20
-10450.004
30
0
11
-3027.563509
21
-10950.004
31
0
0
LINE
8
PIPES
10
-2161.538106
20
-10450.004
30
0
11
-1295.512702
21
-10950.004
31
0
0
LINE
8
PIPES
10
-1295.512702
20
-10950.004
30
0
11
-2161.538106
21
-11450.004
31
0
0
LINE
8
PIPES
10
-1295.512702
20
-10950.004
30
0
11
-429.487298
21
-11450.004
31
0
0
LINE
8
PIPES
10
-429.487298
20
-11450.004
30
0
11
-1295.512702
21
-11950.004
31
0
0
LINE
8
PIPES
10
-429.487298
20
-11450.004
30
0
11
869.550808
21
-10700.004
31
0
0
LINE
8
PIPES
10
869.550808
20
-10700.004
30
0
11
3.525404
21
-10200.004
31
0
0
LINE
8
PIPES
10
3.525404
20
-10200.004
30
0
11
-1295.512702
21
-10950.004
31
0
0
LINE
8
PIPES
10
3.525404
20
-10200.004
30
0
11
1302.57217
21
-9449.999
31
0
0
LINE
8
PIPES
10
1302.57217
20
-9449.999
30
0
11
2168.597573
21
-9949.999
31
0
0
LINE
8
PIPES
10
2168.597573
20
-9949.999
30
0
11
869.550808
21
-10700.004
31
0
0
LINE
8
PIPES
10
2168.597573
20
-9949.999
30
0
11
3034.622977
21
-9449.999
31
0
0
LINE
8
PIPES
10
3034.622977
20
-9449.999
30
0
11
2168.597573
21
-8949.999
31
0
0
LINE
8
PIPES
10
2168.597573
20
-8949.999
30
0
11
1302.57217
21
-9449.999
31
0
0
LINE
8
PIPES
10
1302.57217
20
-9449.999
30
0
11
436.546766
21
-8949.999
31
0
0
LINE
8
PIPES
10
436.546766
20
-8949.999
30
0
11
1302.57217
21
-8449.999
31
0
0
LINE
8
PIPES
10
1302.57217
20
-8449.999
30
0
11
436.538106
21
-7949.994
31
0
0
LINE
8
PIPES
10
436.538106
20
-7949.994
30
0
11
-429.487298
21
-7449.994
31
0
0
LINE
8
PIPES
10
-429.487298
20
-7449.994
30
0
11
-1295.512702
21
-7949.994
31
0
0
LINE
8
PIPES
10
-1295.512702
20
-7949.994
30
0
11
-429.487298
21
-8449.994
31
0
0
LINE
8
PIPES
10
-429.487298
20
-8449.994
30
0
11
-1728.534064
21
-9199.999
31
0
0
LINE
8
PIPES
10
-1728.534064
20
-9199.999
30
0
11
-2594.559468
21
-8699.999
31
0
0
LINE
8
PIPES
10
-2594.559468
20
-8699.999
30
0
11
-1295.512702
21
-7949.994
31
0
0
LINE
8
PIPES
10
-429.487298
20
-8449.994
30
0
11
436.538106
21
-7949.994
31
0
0
LINE
8
PIPES
10
-429.487298
20
-8449.994
30
0
11
436.546766
21
-8949.999
31
0
0
LINE
8
PIPES
10
1302.57217
20
-8449.999
30
0
11
2168.597573
21
-8949.999
31
0
0
LINE
8
PIPES
10
-2594.559468
20
-8699.999
30
0
11
-3893.597573
21
-9449.999
31
0
0
LINE
8
PIPES
10
-3027.57217
20
-9949.999
30
0
11
-1728.534064
21
-9199.999
31
0
0
LINE
8
PIPES
10
-1295.512702
20
-11950.004
30
0
11
-1295.512702
21
-10250.005
31
0
0
LINE
8
PIPES
10
-2161.538106
20
-11450.004
30
0
11
-2161.538106
21
-9750.005
31
0
0
LINE
8
PIPES
10
-3027.563509
20
-10950.004
30
0
11
-3027.563509
21
-9250.005
31
0
0
LINE
8
PIPES
10
-3893.597573
20
-10449.999
30
0
11
-3893.597573
21
-8750
31
0
0
LINE
8
PIPES
10
-4759.622977
20
-9949.999
30
0
11
-4759.622977
21
-8250
31
0
0
LINE
8
PIPES
10
-3893.597573
20
-9449.999
30
0
11
-3893.597573
21
-7750
31
0
0
LINE
8
PIPES
10
-3027.57217
20
-9949.999
30
0
11
-3027.57217
21
-8250
31
0
0
LINE
8
PIPES
10
-2161.538106
20
-10450.004
30
0
11
-2161.538106
21
-8750.005
31
0
0
LINE
8
PIPES
10
-1295.512702
20
-10950.004
30
0
11
-1295.512702
21
-9250.005
31
0
0
LINE
8
PIPES
10
-429.487298
20
-11450.004
30
0
11
-429.487298
21
-9750.005
31
0
0
LINE
8
PIPES
10
869.550808
20
-10700.004
30
0
11
869.550808
21
-9000.005
31
0
0
LINE
8
PIPES
10
3.525404
20
-10200.004
30
0
11
3.525404
21
-8500.005
31
0
0
LINE
8
PIPES
10
1302.57217
20
-9449.999
30
0
11
1302.57217
21
-7750
31
0
0
LINE
8
PIPES
10
2168.597573
20
-9949.999
30
0
11
2168.597573
21
-8250
31
0
0
LINE
8
PIPES
10
3034.622977
20
-9449.999
30
0
11
3034.622977
21
-7750
31
0
0
LINE
8
PIPES
10
2168.597573
20
-8949.999
30
0
11
2168.597573
21
-7250
31
0
0
LINE
8
PIPES
10
436.546766
20
-8949.999
30
0
11
436.546766
21
-7250
31
0
0
LINE
8
PIPES
10
1302.57217
20
-8449.999
30
0
11
1302.57217
21
-6750
31
0
0
LINE
8
PIPES
10
436.538106
20
-7949.994
30
0
11
436.538106
21
-6249.995
31
0
0
LINE
8
PIPES
10
-429.487298
20
-7449.994
30
0
11
-429.487298
21
-5749.995
31
0
0
LINE
8
PIPES
10
-1295.512702
20
-7949.994
30
0
11
-1295.512702
21
-6249.995
31
0
0
LINE
8
PIPES
10
-429.487298
20
-8449.994
30
0
11
-429.487298
21
-6749.995
31
0
0
LINE
8
PIPES
10
-1728.534064
20
-9199.999
30
0
11
-1728.534064
21
-7500
31
0
0
LINE
8
PIPES
10
-2594.559468
20
-8699.999
30
0
11
-2594.559468
21
-7000
31
0
0
LINE
8
PIPES
10
-1295.512702
20
-10250.005
30
0
11
-2161.538106
21
-9750.005
31
0
0
LINE
8
PIPES
10
-2161.538106
20
-9750.005
30
0
11
-3027.563509
21
-9250.005
31
0
0
LINE
8
PIPES
10
-3027.563509
20
-9250.005
30
0
11
-3893.597573
21
-8750
31
0
0
LINE
8
PIPES
10
-3893.597573
20
-8750
30
0
11
-4759.622977
21
-8250
31
0
0
LINE
8
PIPES
10
-4759.622977
20
-8250
30
0
11
-3893.597573
21
-7750
31
0
0
LINE
8
PIPES
10
-3893.597573
20
-7750
30
0
11
-3027.57217
21
-8250
31
0
0
LINE
8
PIPES
10
-3027.57217
20
-8250
30
0
11
-3893.597573
21
-8750
31
0
0
LINE
8
PIPES
10
-3027.57217
20
-8250
30
0
11
-2161.538106
21
-8750.005
31
0
0
LINE
8
PIPES
10
-2161.538106
20
-8750.005
30
0
11
-3027.563509
21
-9250.005
31
0
0
LINE
8
PIPES
10
-2161.538106
20
-8750.005
30
0
11
-1295.512702
21
-9250.005
31
0
0
LINE
8
PIPES
10
-1295.512702
20
-9250.005
30
0
11
-2161.538106
21
-9750.005
31
0
0
LINE
8
PIPES
10
-1295.512702
20
-9250.005
30
0
11
-429.487298
21
-9750.005
31
0
0
LINE
8
PIPES
10
-429.487298
20
-9750.005
30
0
11
-1295.512702
21
-10250.005
31
0
0
LINE
8
PIPES
10
-429.487298
20
-9750.005
30
0
11
869.550808
21
-9000.005
31
0
0
LINE
8
PIPES
10
869.550808
20
-9000.005
30
0
11
3.525404
21
-8500.005
31
0
0
LINE
8
PIPES
10
3.525404
20
-8500.005
30
0
11
-1295.512702
21
-9250.005
31
0
0
LINE
8
PIPES
10
3.525404
20
-8500.005
30
0
11
1302.57217
21
-7750
31
0
0
LINE
8
PIPES
10
1302.57217
20
-7750
30
0
11
2168.597573
21
-8250
31
0
0
LINE
8
PIPES
10
2168.597573
20
-8250
30
0
11
869.550808
21
-9000.005
31
0
0
LINE
8
PIPES
10
2168.597573
20
-8250
30
0
11
3034.622977
21
-7750
31
0
0
LINE
8
PIPES
10
3034.622977
20
-7750
30
0
11
2168.597573
21
-7250
31
0
0
LINE
8
PIPES
10
2168.597573
20
-7250
30
0
11
1302.57217
21
-7750
31
0
0
LINE
8
PIPES
10
1302.57217
20
-7750
30
0
11
436.546766
21
-7250
31
0
0
LINE
8
PIPES
10
436.546766
20
-7250
30
0
11
1302.57217
21
-6750
31
0
0
LINE
8
PIPES
10
1302.57217
20
-6750
30
0
11
436.538106
21
-6249.995
31
0
0
LINE
8
PIPES
10
436.538106
20
-6249.995
30
0
11
-429.487298
21
-5749.995
31
0
0
LINE
8
PIPES
10
-429.487298
20
-5749.995
30
0
11
-1295.512702
21
-6249.995
31
0
0
LINE
8
PIPES
10
-1295.512702
20
-6249.995
30
0
11
-429.487298
21
-6749.995
31
0
0
LINE
8
PIPES
10
-429.487298
20
-6749.995
30
0
11
-1728.534064
21
-7500
31
0
0
LINE
8
PIPES
10
-1728.534064
20
-7500
30
0
11
-2594.559468
21
-7000
31
0
0
LINE
8
PIPES
10
-2594.559468
20
-7000
30
0
11
-1295.512702
21
-6249.995
31
0
0
LINE
8
PIPES
10
-429.487298
20
-6749.995
30
0
11
436.538106
21
-6249.995
31
0
0
LINE
8
PIPES
10
-429.487298
20
-6749.995
30
0
11
436.546766
21
-7250
31
0
0
LINE
8
PIPES
10
1302.57217
20
-6750
30
0
11
2168.597573
21
-7250
31
0
0
LINE
8
PIPES
10
-2594.559468
20
-7000
30
0
11
-3893.597573
21
-7750
31
0
0
LINE
8
PIPES
10
-3027.57217
20
-8250
30
0
11
-1728.534064
21
-7500
31
0
0
LINE
8
PIPES
10
-1295.512702
20
-10250.005
30
0
11
-1295.512702
21
-8250.005
31
0
0
LINE
8
PIPES
10
-2161.538106
20
-9750.005
30
0
11
-2161.538106
21
-7750.005
31
0
0
LINE
8
PIPES
10
-3027.563509
20
-9250.005
30
0
11
-3027.563509
21
-7250.005
31
0
0
LINE
8
PIPES
10
-3893.597573
20
-8750
30
0
11
-3893.597573
21
-6750
31
0
0
LINE
8
PIPES
10
-4759.622977
20
-8250
30
0
11
-4759.622977
21
-6250
31
0
0
LINE
8
PIPES
10
-3893.597573
20
-7750
30
0
11
-3893.597573
21
-5750
31
0
0
LINE
8
PIPES
10
-3027.57217
20
-8250
30
0
11
-3027.57217
21
-6250
31
0
0
LINE
8
PIPES
10
-2161.538106
20
-8750.005
30
0
11
-2161.538106
21
-6750.005
31
0
0
LINE
8
PIPES
10
-1295.512702
20
-9250.005
30
0
11
-1295.512702
21
-7250.005
31
0
0
LINE
8
PIPES
10
-429.487298
20
-9750.005
30
0
11
-429.487298
21
-7750.005
31
0
0
LINE
8
PIPES
10
869.550808
20
-9000.005
30
0
11
869.550808
21
-7000.005
31
0
0
LINE
8
PIPES
10
3.525404
20
-8500.005
30
0
11
3.525404
21
-6500.005
31
0
0
LINE
8
PIPES
10
1302.57217
20
-7750
30
0
11
1302.57217
21
-5750
31
0
0
LINE
8
PIPES
10
2168.597573
20
-8250
30
0
11
2168.597573
21
-6250
31
0
0
LINE
8
PIPES
10
3034.622977
20
-7750
30
0
11
3034.622977
21
-5750
31
0
0
LINE
8
PIPES
10
2168.597573
20
-7250
30
0
11
2168.597573
21
-5250
31
0
0
LINE
8
PIPES
10
436.546766
20
-7250
30
0
11
436.546766
21
-5250
31
0
0
LINE
8
PIPES
10
1302.57217
20
-6750
30
0
11
1302.57217
21
-4750
31
0
0
LINE
8
PIPES
10
436.538106
20
-6249.995
30
0
11
436.538106
21
-4249.995
31
0
0
LINE
8
PIPES
10
-429.487298
20
-5749.995
30
0
11
-429.487298
21
-3749.995
31
0
0
LINE
8
PIPES
10
-1295.512702
20
-6249.995
30
0
11
-1295.512702
21
-4249.995
31
0
0
LINE
8
PIPES
10
-429.487298
20
-6749.995
30
0
11
-429.487298
21
-4749.995
31
0
0
LINE
8
PIPES
10
-1728.534064
20
-7500
30
0
11
-1728.534064
21
-5500
31
0
0
LINE
8
PIPES
10
-2594.559468
20
-7000
30
0
11
-2594.559468
21
-5000
31
0
0
LINE
8
PIPES
10
-1295.512702
20
-8250.005
30
0
11
-2161.538106
21
-7750.005
31
0
0
LINE
8
PIPES
10
-2161.538106
20
-7750.005
30
0
11
-3027.563509
21
-7250.005
31
0
0
LINE
8
PIPES
10
-3027.563509
20
-7250.005
30
0
11
-3893.597573
21
-6750
31
0
0
LINE
8
PIPES
10
-3893.597573
20
-6750
30
0
11
-4759.622977
21
-6250
31
0
0
LINE
8
PIPES
10
-4759.622977
20
-6250
30
0
11
-3893.597573
21
-5750
31
0
0
LINE
8
PIPES
10
-3893.597573
20
-5750
30
0
11
-3027.57217
21
-6250
31
0
0
LINE
8
PIPES
10
-3027.57217
20
-6250
30
0
11
-3893.597573
21
-6750
31
0
0
LINE
8
PIPES
10
-3027.57217
20
-6250
30
0
11
-2161.538106
21
-6750.005
31
0
0
LINE
8
PIPES
10
-2161.538106
20
-6750.005
30
0
11
-3027.563509
21
-7250.005
31
0
0
LINE
8
PIPES
10
-2161.538106
20
-6750.005
30
0
11
-1295.512702
21
-7250.005
31
0
0
LINE
8
PIPES
10
-1295.512702
20
-7250.005
30
0
11
-2161.538106
21
-7750.005
31
0
0
LINE
8
PIPES
10
-1295.512702
20
-7250.005
30
0
11
-429.487298
21
-7750.005
31
0
0
LINE
8
PIPES
10
-429.487298
20
-7750.005
30
0
11
-1295.512702
21
-8250.005
31
0
0
LINE
8
PIPES
10
-429.487298
20
-7750.005
30
0
11
869.550808
21
-7000.005
31
0
0
LINE
8
PIPES
10
869.550808
20
-7000.005
30
0
11
3.525404
21
-6500.005
31
0
0
LINE
8
PIPES
10
3.525404
20
-6500.005
30
0
11
-1295.512702
21
-7250.005
31
0
0
LINE
8
PIPES
10
3.525404
20
-6500.005
30
0
11
1302.57217
21
-5750
31
0
0
LINE
8
PIPES
10
1302.57217
20
-5750
30
0
11
2168.597573
21
-6250
31
0
0
LINE
8
PIPES
10
2168.597573
20
-6250
30
0
11
869.550808
21
-7000.005
31
0
0
LINE
8
PIPES
10
2168.597573
20
-6250
30
0
11
3034.622977
21
-5750
31
0
0
LINE
8
PIPES
10
3034.622977
20
-5750
30
0
11
2168.597573
21
-5250
31
0
0
LINE
8
PIPES
10
2168.597573
20
-5250
30
0
11
1302.57217
21
-5750
31
0
0
LINE
8
PIPES
10
1302.57217
20
-5750
30
0
11
436.546766
21
-5250
31
0
0
LINE
8
PIPES
10
436.546766
20
-5250
30
0
11
1302.57217
21
-4750
31
0
0
LINE
8
PIPES
10
1302.57217
20
-4750
30
0
11
436.538106
21
-4249.995
31
0
0
LINE
8
PIPES
10
436.538106
20
-4249.995
30
0
11
-429.487298
21
-3749.995
31
0
0
LINE
8
PIPES
10
-429.487298
20
-3749.995
30
0
11
-1295.512702
21
-4249.995
31
0
0
LINE
8
PIPES
10
-1295.512702
20
-4249.995
30
0
11
-429.487298
21
-4749.995
31
0
0
LINE
8
PIPES
10
-429.487298
20
-4749.995
30
0
11
-1728.534064
21
-5500
31
0
0
LINE
8
PIPES
10
-1728.534064
20
-5500
30
0
11
-2594.559468
21
-5000
31
0
0
LINE
8
PIPES
10
-2594.559468
20
-5000
30
0
11
-1295.512702
21
-4249.995
31
0
0
LINE
8
PIPES
10
-429.487298
20
-4749.995
30
0
11
436.538106
21
-4249.995
31
0
0
LINE
8
PIPES
10
-429.487298
20
-4749.995
30
0
11
436.546766
21
-5250
31
0
0
LINE
8
PIPES
10
1302.57217
20
-4750
30
0
11
2168.597573
21
-5250
31
0
0
LINE
8
PIPES
10
-2594.559468
20
-5000
30
0
11
-3893.597573
21
-5750
31
0
0
LINE
8
PIPES
10
-3027.57217
20
-6250
30
0
11
-1728.534064
21
-5500
31
0
0
LINE
8
PIPES
10
-1295.512702
20
-8250.005
30
0
11
-1295.512702
21
-6249.995
31
0
0
LINE
8
PIPES
10
-2161.538106
20
-7750.005
30
0
11
-2161.538106
21
-5749.995
31
0
0
LINE
8
PIPES
10
-3027.563509
20
-7250.005
30
0
11
-3027.563509
21
-5249.995
31
0
0
LINE
8
PIPES
10
-3893.597573
20
-6750
30
0
11
-3893.597573
21
-4749.99
31
0
0
LINE
8
PIPES
10
-4759.622977
20
-6250
30
0
11
-4759.622977
21
-4249.99
31
0
0
LINE
8
PIPES
10
-3893.597573
20
-5750
30
0
11
-3893.597573
21
-3749.99
31
0
0
LINE
8
PIPES
10
-3027.57217
20
-6250
30
0
11
-3027.57217
21
-4249.99
31
0
0
LINE
8
PIPES
10
-2161.538106
20
-6750.005
30
0
11
-2161.538106
21
-4749.995
31
0
0
LINE
8
PIPES
10
-1295.512702
20
-7250.005
30
0
11
-1295.512702
21
-5249.995
31
0
0
LINE
8
PIPES
10
-429.487298
20
-7750.005
30
0
11
-429.487298
21
-5749.995
31
0
0
LINE
8
PIPES
10
869.550808
20
-7000.005
30
0
11
869.550808
21
-4999.995
31
0
0
LINE
8
PIPES
10
3.525404
20
-6500.005
30
0
11
3.525404
21
-4499.995
31
0
0
LINE
8
PIPES
10
1302.57217
20
-5750
30
0
11
1302.57217
21
-3749.99
31
0
0
LINE
8
PIPES
10
2168.597573
20
-6250
30
0
11
2168.597573
21
-4249.99
31
0
0
LINE
8
PIPES
10
3034.622977
20
-5750
30
0
11
3034.622977
21
-3749.99
31
0
0
LINE
8
PIPES
10
2168.597573
20
-5250
30
0
11
2168.597573
21
-3249.99
31
0
0
LINE
8
PIPES
10
436.546766
20
-5250
30
0
11
436.546766
21
-3249.99
31
0
0
LINE
8
PIPES
10
1302.57217
20
-4750
30
0
11
1302.57217
21
-2749.99
31
0
0
LINE
8
PIPES
10
436.538106
20
-4249.995
30
0
11
436.538106
21
-2249.985
31
0
0
LINE
8
PIPES
10
-429.487298
20
-3749.995
30
0
11
-429.487298
21
-1749.985
31
0
0
LINE
8
PIPES
10
-1295.512702
20
-4249.995
30
0
11
-1295.512702
21
-2249.985
31
0
0
LINE
8
PIPES
10
-429.487298
20
-4749.995
30
0
11
-429.487298
21
-2749.985
31
0
0
LINE
8
PIPES
10
-1728.534064
20
-5500
30
0
11
-1728.534064
21
-3499.99
31
0
0
LINE
8
PIPES
10
-2594.559468
20
-5000
30
0
11
-2594.559468
21
-2999.99
31
0
0
LINE
8
PIPES
10
-1295.512702
20
-6249.995
30
0
11
-2161.538106
21
-5749.995
31
0
0
LINE
8
PIPES
10
-2161.538106
20
-5749.995
30
0
11
-3027.563509
21
-5249.995
31
0
0
LINE
8
PIPES
10
-3027.563509
20
-5249.995
30
0
11
-3893.597573
21
-4749.99
31
0
0
LINE
8
PIPES
10
-3893.597573
20
-4749.99
30
0
11
-4759.622977
21
-4249.99
31
0
0
LINE
8
PIPES
10
-4759.622977
20
-4249.99
30
0
11
-3893.597573
21
-3749.99
31
0
0
LINE
8
PIPES
10
-3893.597573
20
-3749.99
30
0
11
-3027.57217
21
-4249.99
31
0
0
LINE
8
PIPES
10
-3027.57217
20
-4249.99
30
0
11
-3893.597573
21
-4749.99
31
0
0
LINE
8
PIPES
10
-3027.57217
20
-4249.99
30
0
11
-2161.538106
21
-4749.995
31
0
0
LINE
8
PIPES
10
-2161.538106
20
-4749.995
30
0
11
-3027.563509
21
-5249.995
31
0
0
LINE
8
PIPES
10
-2161.538106
20
-4749.995
30
0
11
-1295.512702
21
-5249.995
31
0
0
LINE
8
PIPES
10
-1295.512702
20
-5249.995
30
0
11
-2161.538106
21
-5749.995
31
0
0
LINE
8
PIPES
10
-1295.512702
20
-5249.995
30
0
11
-429.487298
21
-5749.995
31
0
0
LINE
8
PIPES
10
-429.487298
20
-5749.995
30
0
11
869.550808
21
-4999.995
31
0
0
LINE
8
PIPES
10
869.550808
20
-4999.995
30
0
11
3.525404
21
-4499.995
31
0
0
LINE
8
PIPES
10
3.525404
20
-4499.995
30
0
11
-1295.512702
21
-5249.995
31
0
0
LINE
8
PIPES
10
3.525404
20
-4499.995
30
0
11
1302.57217
21
-3749.99
31
0
0
LINE
8
PIPES
10
1302.57217
20
-3749.99
30
0
11
2168.597573
21
-4249.99
31
0
0
LINE
8
PIPES
10
2168.597573
20
-4249.99
30
0
11
869.550808
21
-4999.995
31
0
0
LINE
8
PIPES
10
2168.597573
20
-4249.99
30
0
11
3034.622977
21
-3749.99
31
0
0
LINE
8
PIPES
10
3034.622977
20
-3749.99
30
0
11
2168.597573
21
-3249.99
31
0
0
LINE
8
PIPES
10
2168.597573
20
-3249.99
30
0
11
1302.57217
21
-3749.99
31
0
0
LINE
8
PIPES
10
1302.57217
20
-3749.99
30
0
11
436.546766
21
-3249.99
31
0
0
LINE
8
PIPES
10
436.546766
20
-3249.99
30
0
11
1302.57217
21
-2749.99
31
0
0
LINE
8
PIPES
10
1302.57217
20
-2749.99
30
0
11
436.538106
21
-2249.985
31
0
0
LINE
8
PIPES
10
436.538106
20
-2249.985
30
0
11
-429.487298
21
-1749.985
31
0
0
LINE
8
PIPES
10
-429.487298
20
-1749.985
30
0
11
-1295.512702
21
-2249.985
31
0
0
LINE
8
PIPES
10
-1295.512702
20
-2249.985
30
0
11
-429.487298
21
-2749.985
31
0
0
LINE
8
PIPES
10
-429.487298
20
-2749.985
30
0
11
-1728.534064
21
-3499.99
31
0
0
LINE
8
PIPES
10
-1728.534064
20
-3499.99
30
0
11
-2594.559468
21
-2999.99
31
0
0
LINE
8
PIPES
10
-2594.559468
20
-2999.99
30
0
11
-1295.512702
21
-2249.985
31
0
0
LINE
8
PIPES
10
-429.487298
20
-2749.985
30
0
11
436.538106
21
-2249.985
31
0
0
LINE
8
PIPES
10
-429.487298
20
-2749.985
30
0
11
436.546766
21
-3249.99
31
0
0
LINE
8
PIPES
10
1302.57217
20
-2749.99
30
0
11
2168.597573
21
-3249.99
31
0
0
LINE
8
PIPES
10
-2594.559468
20
-2999.99
30
0
11
-3893.597573
21
-3749.99
31
0
0
LINE
8
PIPES
10
-3027.57217
20
-4249.99
30
0
11
-1728.534064
21
-3499.99
31
0
0
LINE
8
PIPES
10
-2161.538106
20
-5749.995
30
0
11
-2161.538106
21
-3749.995
31
0
0
LINE
8
PIPES
10
-3027.563509
20
-5249.995
30
0
11
-3027.563509
21
-3249.995
31
0
0
LINE
8
PIPES
10
-3893.597573
20
-4749.99
30
0
11
-3893.597573
21
-2749.99
31
0
0
LINE
8
PIPES
10
-4759.622977
20
-4249.99
30
0
11
-4759.622977
21
-2249.99
31
0
0
LINE
8
PIPES
10
-3893.597573
20
-3749.99
30
0
11
-3893.597573
21
-1749.99
31
0
0
LINE
8
PIPES
10
-3027.57217
20
-4249.99
30
0
11
-3027.57217
21
-2249.99
31
0
0
LINE
8
PIPES
10
-2161.538106
20
-4749.995
30
0
11
-2161.538106
21
-2749.995
31
0
0
LINE
8
PIPES
10
-1295.512702
20
-5249.995
30
0
11
-1295.512702
21
-3249.995
31
0
0
LINE
8
PIPES
10
869.550808
20
-4999.995
30
0
11
869.550808
21
-2999.995
31
0
0
LINE
8
PIPES
10
3.525404
20
-4499.995
30
0
11
3.525404
21
-2499.995
31
0
0
LINE
8
PIPES
10
1302.57217
20
-3749.99
30
0
11
1302.57217
21
-1749.99
31
0
0
LINE
8
PIPES
10
2168.597573
20
-4249.99
30
0
11
2168.597573
21
-2249.99
31
0
0
LINE
8
PIPES
10
3034.622977
20
-3749.99
30
0
11
3034.622977
21
-1749.99
31
0
0
LINE
8
PIPES
10
2168.597573
20
-3249.99
30
0
11
2168.597573
21
-1249.99
31
0
0
LINE
8
PIPES
10
436.546766
20
-3249.99
30
0
11
436.546766
21
-1249.99
31
0
0
LINE
8
PIPES
10
1302.57217
20
-2749.99
30
0
11
1302.57217
21
-749.99
31
0
0
LINE
8
PIPES
10
436.538106
20
-2249.985
30
0
11
436.538106
21
-249.985
31
0
0
LINE
8
PIPES
10
-429.487298
20
-1749.985
30
0
11
-429.487298
21
250.015
31
0
0
LINE
8
PIPES
10
-1295.512702
20
-2249.985
30
0
11
-1295.512702
21
-249.985
31
0
0
LINE
8
PIPES
10
-429.487298
20
-2749.985
30
0
11
-429.487298
21
-749.985
31
0
0
LINE
8
PIPES
10
-1728.534064
20
-3499.99
30
0
11
-1728.534064
21
-1499.99
31
0
0
LINE
8
PIPES
10
-2594.559468
20
-2999.99
30
0
11
-2594.559468
21
-999.99
31
0
0
LINE
8
PIPES
10
-1295.512702
20
-4249.995
30
0
11
-2161.538106
21
-3749.995
31
0
0
LINE
8
PIPES
10
-2161.538106
20
-3749.995
30
0
11
-3027.563509
21
-3249.995
31
0
0
LINE
8
PIPES
10
-3027.563509
20
-3249.995
30
0
11
-3893.597573
21
-2749.99
31
0
0
LINE
8
PIPES
10
-3893.597573
20
-2749.99
30
0
11
-4759.622977
21
-2249.99
31
0
0
LINE
8
PIPES
10
-3893.597573
20
-1749.99
30
0
11
-3027.57217
21
-2249.99
31
0
0
LINE
8
PIPES
10
-3027.57217
20
-2249.99
30
0
11
-3893.597573
21
-2749.99
31
0
0
LINE
8
PIPES
10
-3027.57217
20
-2249.99
30
0
11
-2161.538106
21
-2749.995
31
0
0
LINE
8
PIPES
10
-2161.538106
20
-2749.995
30
0
11
-3027.563509
21
-3249.995
31
0
0
LINE
8
PIPES
10
-2161.538106
20
-2749.995
30
0
11
-1295.512702
21
-3249.995
31
0
0
LINE
8
PIPES
10
-1295.512702
20
-3249.995
30
0
11
-2161.538106
21
-3749.995
31
0
0
LINE
8
PIPES
10
-1295.512702
20
-3249.995
30
0
11
-429.487298
21
-3749.995
31
0
0
LINE
8
PIPES
10
-429.487298
20
-3749.995
30
0
11
869.550808
21
-2999.995
31
0
0
LINE
8
PIPES
10
869.550808
20
-2999.995
30
0
11
3.525404
21
-2499.995
31
0
0
LINE
8
PIPES
10
3.525404
20
-2499.995
30
0
11
-1295.512702
21
-3249.995
31
0
0
LINE
8
PIPES
10
3.525404
20
-2499.995
30
0
11
1302.57217
21
-1749.99
31
0
0
LINE
8
PIPES
10
1302.57217
20
-1749.99
30
0
11
2168.597573
21
-2249.99
31
0
0
LINE
8
PIPES
10
2168.597573
20
-2249.99
30
0
11
869.550808
21
-2999.995
31
0
0
LINE
8
PIPES
10
2168.597573
20
-2249.99
30
0
11
3034.622977
21
-1749.99
31
0
0
LINE
8
PIPES
10
3034.622977
20
-1749.99
30
0
11
2168.597573
21
-1249.99
31
0
0
LINE
8
PIPES
10
2168.597573
20
-1249.99
30
0
11
1302.57217
21
-1749.99
31
0
0
LINE
8
PIPES
10
1302.57217
20
-1749.99
30
0
11
436.546766
21
-1249.99
31
0
0
LINE
8
PIPES
10
436.546766
20
-1249.99
30
0
11
1302.57217
21
-749.99
31
0
0
LINE
8
PIPES
10
1302.57217
20
-749.99
30
0
11
436.538106
21
-249.985
31
0
0
LINE
8
PIPES
10
436.538106
20
-249.985
30
0
11
-429.487298
21
250.015
31
0
0
LINE
8
PIPES
10
-429.487298
20
250.015
30
0
11
-1295.512702
21
-249.985
31
0
0
LINE
8
PIPES
10
-1295.512702
20
-249.985
30
0
11
-429.487298
21
-749.985
31
0
0
LINE
8
PIPES
10
-429.487298
20
-749.985
30
0
11
-1728.534064
21
-1499.99
31
0
0
LINE
8
PIPES
10
-1728.534064
20
-1499.99
30
0
11
-2594.559468
21
-999.99
31
0
0
LINE
8
PIPES
10
-2594.559468
20
-999.99
30
0
11
-1295.512702
21
-249.985
31
0
0
LINE
8
PIPES
10
-429.487298
20
-749.985
30
0
11
436.538106
21
-249.985
31
0
0
LINE
8
PIPES
10
-429.487298
20
-749.985
30
0
11
436.546766
21
-1249.99
31
0
0
LINE
8
PIPES
10
1302.57217
20
-749.99
30
0
11
2168.597573
21
-1249.99
31
0
0
LINE
8
PIPES
10
-2594.559468
20
-999.99
30
0
11
-3893.597573
21
-1749.99
31
0
0
LINE
8
PIPES
10
-3027.57217
20
-2249.99
30
0
11
-1728.534064
21
-1499.99
31
0
0
LINE
8
PIPES
10
-1295.512702
20
-4249.995
30
0
11
-1295.512702
21
-2250.005
31
0
0
LINE
8
PIPES
10
-2161.538106
20
-3749.995
30
0
11
-2161.538106
21
-1750.005
31
0
0
LINE
8
PIPES
10
-3027.563509
20
-3249.995
30
0
11
-3027.563509
21
-1250.005
31
0
0
LINE
8
PIPES
10
-3893.597573
20
-2749.99
30
0
11
-3893.597573
21
-750
31
0
0
LINE
8
PIPES
10
-4759.622977
20
-2249.99
30
0
11
-4759.622977
21
-250
31
0
0
LINE
8
PIPES
10
-3893.597573
20
-1749.99
30
0
11
-3893.597573
21
250
31
0
0
LINE
8
PIPES
10
-3027.57217
20
-2249.99
30
0
11
-3027.57217
21
-250
31
0
0
LINE
8
PIPES
10
-2161.538106
20
-2749.995
30
0
11
-2161.538106
21
-750.005
31
0
0
LINE
8
PIPES
10
-1295.512702
20
-3249.995
30
0
11
-1295.512702
21
-1250.005
31
0
0
LINE
8
PIPES
10
-429.487298
20
-3749.995
30
0
11
-429.487298
21
-1750.005
31
0
0
LINE
8
PIPES
10
869.550808
20
-2999.995
30
0
11
869.550808
21
-1000.005
31
0
0
LINE
8
PIPES
10
3.525404
20
-2499.995
30
0
11
3.525404
21
-500.005
31
0
0
LINE
8
PIPES
10
1302.57217
20
-1749.99
30
0
11
1302.57217
21
250
31
0
0
LINE
8
PIPES
10
2168.597573
20
-2249.99
30
0
11
2168.597573
21
-250
31
0
0
LINE
8
PIPES
10
3034.622977
20
-1749.99
30
0
11
3034.622977
21
250
31
0
0
LINE
8
PIPES
10
2168.597573
20
-1249.99
30
0
11
2168.597573
21
750
31
0
0
LINE
8
PIPES
10
436.546766
20
-1249.99
30
0
11
436.546766
21
750
31
0
0
LINE
8
PIPES
10
1302.57217
20
-749.99
30
0
11
1302.57217
21
1250
31
0
0
LINE
8
PIPES
10
436.538106
20
-249.985
30
0
11
436.538106
21
1750.005
31
0
0
LINE
8
PIPES
10
-429.487298
20
250.015
30
0
11
-429.487298
21
2250.005
31
0
0
LINE
8
PIPES
10
-1295.512702
20
-249.985
30
0
11
-1295.512702
21
1750.005
31
0
0
LINE
8
PIPES
10
-429.487298
20
-749.985
30
0
11
-429.487298
21
1250.005
31
0
0
LINE
8
PIPES
10
-1728.534064
20
-1499.99
30
0
11
-1728.534064
21
500
31
0
0
LINE
8
PIPES
10
-2594.559468
20
-999.99
30
0
11
-2594.559468
21
1000
31
0
0
LINE
8
PIPES
10
-1295.512702
20
-2250.005
30
0
11
-2161.538106
21
-1750.005
31
0
0
LINE
8
PIPES
10
-2161.538106
20
-1750.005
30
0
11
-3027.563509
21
-1250.005
31
0
0
LINE
8
PIPES
10
-3027.563509
20
-1250.005
30
0
11
-3893.597573
21
-750
31
0
0
LINE
8
PIPES
10
-3893.597573
20
-750
30
0
11
-4759.622977
21
-250
31
0
0
LINE
8
PIPES
10
-4759.622977
20
-250
30
0
11
-3893.597573
21
250
31
0
0
LINE
8
PIPES
10
-3893.597573
20
250
30
0
11
-3027.57217
21
-250
31
0
0
LINE
8
PIPES
10
-3027.57217
20
-250
30
0
11
-3893.597573
21
-750
31
0
0
LINE
8
PIPES
10
-3027.57217
20
-250
30
0
11
-2161.538106
21
-750.005
31
0
0
LINE
8
PIPES
10
-2161.538106
20
-750.005
30
0
11
-3027.563509
21
-1250.005
31
0
0
LINE
8
PIPES
10
-2161.538106
20
-750.005
30
0
11
-1295.512702
21
-1250.005
31
0
0
LINE
8
PIPES
10
-1295.512702
20
-1250.005
30
0
11
-2161.538106
21
-1750.005
31
0
0
LINE
8
PIPES
10
-1295.512702
20
-1250.005
30
0
11
-429.487298
21
-1750.005
31
0
0
LINE
8
PIPES
10
-429.487298
20
-1750.005
30
0
11
-1295.512702
21
-2250.005
31
0
0
LINE
8
PIPES
10
-429.487298
20
-1750.005
30
0
11
869.550808
21
-1000.005
31
0
0
LINE
8
PIPES
10
869.550808
20
-1000.005
30
0
11
3.525404
21
-500.005
31
0
0
LINE
8
PIPES
10
3.525404
20
-500.005
30
0
11
-1295.512702
21
-1250.005
31
0
0
LINE
8
PIPES
10
3.525404
20
-500.005
30
0
11
1302.57217
21
250
31
0
0
LINE
8
PIPES
10
1302.57217
20
250
30
0
11
2168.597573
21
-250
31
0
0
LINE
8
PIPES
10
2168.597573
20
-250
30
0
11
869.550808
21
-1000.005
31
0
0
LINE
8
PIPES
10
2168.597573
20
-250
30
0
11
3034.622977
21
250
31
0
0
LINE
8
PIPES
10
3034.622977
20
250
30
0
11
2168.597573
21
750
31
0
0
LINE
8
PIPES
10
2168.597573
20
750
30
0
11
1302.57217
21
250
31
0
0
LINE
8
PIPES
10
1302.57217
20
250
30
0
11
436.546766
21
750
31
0
0
LINE
8
PIPES
10
436.546766
20
750
30
0
11
1302.57217
21
1250
31
0
0
LINE
8
PIPES
10
1302.57217
20
1250
30
0
11
436.538106
21
1750.005
31
0
0
LINE
8
PIPES
10
436.538106
20
1750.005
30
0
11
-429.487298
21
2250.005
31
0
0
LINE
8
PIPES
10
-429.487298
20
2250.005
30
0
11
-1295.512702
21
1750.005
31
0
0
LINE
8
PIPES
10
-1295.512702
20
1750.005
30
0
11
-429.487298
21
1250.005
31
0
0
LINE
8
PIPES
10
-429.487298
20
1250.005
30
0
11
-1728.534064
21
500
31
0
0
LINE
8
PIPES
10
-1728.534064
20
500
30
0
11
-2594.559468
21
1000
31
0
0
LINE
8
PIPES
10
-2594.559468
20
1000
30
0
11
-1295.512702
21
1750.005
31
0
0
LINE
8
PIPES
10
-429.487298
20
1250.005
30
0
11
436.538106
21
1750.005
31
0
0
LINE
8
PIPES
10
-429.487298
20
1250.005
30
0
11
436.546766
21
750
31
0
0
LINE
8
PIPES
10
1302.57217
20
1250
30
0
11
2168.597573
21
750
31
0
0
LINE
8
PIPES
10
-2594.559468
20
1000
30
0
11
-3893.597573
21
250
31
0
0
LINE
8
PIPES
10
-3027.57217
20
-250
30
0
11
-1728.534064
21
500
31
0
0
LINE
8
PIPES
10
-1295.512702
20
-2250.005
30
0
11
-1295.512702
21
-250.005
31
0
0
LINE
8
PIPES
10
-2161.538106
20
-1750.005
30
0
11
-2161.538106
21
249.995
31
0
0
LINE
8
PIPES
10
-3027.563509
20
-1250.005
30
0
11
-3027.563509
21
749.995
31
0
0
LINE
8
PIPES
10
-3893.597573
20
-750
30
0
11
-3893.597573
21
1250
31
0
0
LINE
8
PIPES
10
-4759.622977
20
-250
30
0
11
-4759.622977
21
1750
31
0
0
LINE
8
PIPES
10
-3893.597573
20
250
30
0
11
-3893.597573
21
2250
31
0
0
LINE
8
PIPES
10
-3027.57217
20
-250
30
0
11
-3027.57217
21
1750
31
0
0
LINE
8
PIPES
10
-2161.538106
20
-750.005
30
0
11
-2161.538106
21
1249.995
31
0
0
LINE
8
PIPES
10
-1295.512702
20
-1250.005
30
0
11
-1295.512702
21
749.995
31
0
0
LINE
8
PIPES
10
-429.487298
20
-1750.005
30
0
11
-429.487298
21
249.995
31
0
0
LINE
8
PIPES
10
869.550808
20
-1000.005
30
0
11
869.550808
21
999.995
31
0
0
LINE
8
PIPES
10
3.525404
20
-500.005
30
0
11
3.525404
21
1499.995
31
0
0
LINE
8
PIPES
10
1302.57217
20
250
30
0
11
1302.57217
21
2250
31
0
0
LINE
8
PIPES
10
2168.597573
20
-250
30
0
11
2168.597573
21
1750
31
0
0
LINE
8
PIPES
10
3034.622977
20
250
30
0
11
3034.622977
21
2250
31
0
0
LINE
8
PIPES
10
2168.597573
20
750
30
0
11
2168.597573
21
2750
31
0
0
LINE
8
PIPES
10
436.546766
20
750
30
0
11
436.546766
21
2750
31
0
0
LINE
8
PIPES
10
1302.57217
20
1250
30
0
11
1302.57217
21
3250
31
0
0
LINE
8
PIPES
10
436.538106
20
1750.005
30
0
11
436.538106
21
3750.005
31
0
0
LINE
8
PIPES
10
-429.487298
20
2250.005
30
0
11
-429.487298
21
4250.005
31
0
0
LINE
8
PIPES
10
-1295.512702
20
1750.005
30
0
11
-1295.512702
21
3750.005
31
0
0
LINE
8
PIPES
10
-429.487298
20
1250.005
30
0
11
-429.487298
21
3250.005
31
0
0
LINE
8
PIPES
10
-1728.534064
20
500
30
0
11
-1728.534064
21
2500
31
0
0
LINE
8
PIPES
10
-2594.559468
20
1000
30
0
11
-2594.559468
21
3000
31
0
0
LINE
8
PIPES
10
-1295.512702
20
-250.005
30
0
11
-2161.538106
21
249.995
31
0
0
LINE
8
PIPES
10
-2161.538106
20
249.995
30
0
11
-3027.563509
21
749.995
31
0
0
LINE
8
PIPES
10
-3027.563509
20
749.995
30
0
11
-3893.597573
21
1250
31
0
0
LINE
8
PIPES
10
-3893.597573
20
1250
30
0
11
-4759.622977
21
1750
31
0
0
LINE
8
PIPES
10
-4759.622977
20
1750
30
0
11
-3893.597573
21
2250
31
0
0
LINE
8
PIPES
10
-3893.597573
20
2250
30
0
11
-3027.57217
21
1750
31
0
0
LINE
8
PIPES
10
-3027.57217
20
1750
30
0
11
-3893.597573
21
1250
31
0
0
LINE
8
PIPES
10
-3027.57217
20
1750
30
0
11
-2161.538106
21
1249.995
31
0
0
LINE
8
PIPES
10
-2161.538106
20
1249.995
30
0
11
-3027.563509
21
749.995
31
0
0
LINE
8
PIPES
10
-2161.538106
20
1249.995
30
0
11
-1295.512702
21
749.995
31
0
0
LINE
8
PIPES
10
-1295.512702
20
749.995
30
0
11
-2161.538106
21
249.995
31
0
0
LINE
8
PIPES
10
-1295.512702
20
749.995
30
0
11
-429.487298
21
249.995
31
0
0
LINE
8
PIPES
10
-429.487298
20
249.995
30
0
11
-1295.512702
21
-250.005
31
0
0
LINE
8
PIPES
10
-429.487298
20
249.995
30
0
11
869.550808
21
999.995
31
0
0
LINE
8
PIPES
10
869.550808
20
999.995
30
0
11
3.525404
21
1499.995
31
0
0
LINE
8
PIPES
10
3.525404
20
1499.995
30
0
11
-1295.512702
21
749.995
31
0
0
LINE
8
PIPES
10
3.525404
20
1499.995
30
0
11
1302.57217
21
2250
31
0
0
LINE
8
PIPES
10
1302.57217
20
2250
30
0
11
2168.597573
21
1750
31
0
0
LINE
8
PIPES
10
2168.597573
20
1750
30
0
11
869.550808
21
999.995
31
0
0
LINE
8
PIPES
10
2168.597573
20
1750
30
0
11
3034.622977
21
2250
31
0
0
LINE
8
PIPES
10
3034.622977
20
2250
30
0
11
2168.597573
21
2750
31
0
0
LINE
8
PIPES
10
2168.597573
20
2750
30
0
11
1302.57217
21
2250
31
0
0
LINE
8
PIPES
10
1302.57217
20
2250
30
0
11
436.546766
21
2750
31
0
0
LINE
8
PIPES
10
436.546766
20
2750
30
0
11
1302.57217
21
3250
31
0
0
LINE
8
PIPES
10
1302.57217
20
3250
30
0
11
436.538106
21
3750.005
31
0
0
LINE
8
PIPES
10
436.538106
20
3750.005
30
0
11
-429.487298
21
4250.005
31
0
0
LINE
8
PIPES
10
-429.487298
20
4250.005
30
0
11
-1295.512702
21
3750.005
31
0
0
LINE
8
PIPES
10
-1295.512702
20
3750.005
30
0
11
-429.487298
21
3250.005
31
0
0
LINE
8
PIPES
10
-429.487298
20
3250.005
30
0
11
-1728.534064
21
2500
31
0
0
LINE
8
PIPES
10
-1728.534064
20
2500
30
0
11
-2594.559468
21
3000
31
0
0
LINE
8
PIPES
10
-2594.559468
20
3000
30
0
11
-1295.512702
21
3750.005
31
0
0
LINE
8
PIPES
10
-429.487298
20
3250.005
30
0
11
436.538106
21
3750.005
31
0
0
LINE
8
PIPES
10
-429.487298
20
3250.005
30
0
11
436.546766
21
2750
31
0
0
LINE
8
PIPES
10
1302.57217
20
3250
30
0
11
2168.597573
21
2750
31
0
0
LINE
8
PIPES
10
-2594.559468
20
3000
30
0
11
-3893.597573
21
2250
31
0
0
LINE
8
PIPES
10
-3027.57217
20
1750
30
0
11
-1728.534064
21
2500
31
0
0
LINE
8
PIPES
10
-1295.512702
20
-250.005
30
0
11
-1295.512702
21
1749.995
31
0
0
LINE
8
PIPES
10
-2161.538106
20
249.995
30
0
11
-2161.538106
21
2249.995
31
0
0
LINE
8
PIPES
10
-3027.563509
20
749.995
30
0
11
-3027.563509
21
2749.995
31
0
0
LINE
8
PIPES
10
-3893.597573
20
1250
30
0
11
-3893.597573
21
3250
31
0
0
LINE
8
PIPES
10
-4759.622977
20
1750
30
0
11
-4759.622977
21
3750
31
0
0
LINE
8
PIPES
10
-3893.597573
20
2250
30
0
11
-3893.597573
21
4250
31
0
0
LINE
8
PIPES
10
-3027.57217
20
1750
30
0
11
-3027.57217
21
3750
31
0
0
LINE
8
PIPES
10
-2161.538106
20
1249.995
30
0
11
-2161.538106
21
3249.995
31
0
0
LINE
8
PIPES
10
-1295.512702
20
749.995
30
0
11
-1295.512702
21
2749.995
31
0
0
LINE
8
PIPES
10
-429.487298
20
249.995
30
0
11
-429.487298
21
2249.995
31
0
0
LINE
8
PIPES
10
869.550808
20
999.995
30
0
11
869.550808
21
2999.995
31
0
0
LINE
8
PIPES
10
3.525404
20
1499.995
30
0
11
3.525404
21
3499.995
31
0
0
LINE
8
PIPES
10
1302.57217
20
2250
30
0
11
1302.57217
21
4250
31
0
0
LINE
8
PIPES
10
2168.597573
20
1750
30
0
11
2168.597573
21
3750
31
0
0
LINE
8
PIPES
10
3034.622977
20
2250
30
0
11
3034.622977
21
4250
31
0
0
LINE
8
PIPES
10
2168.597573
20
2750
30
0
11
2168.597573
21
4750
31
0
0
LINE
8
PIPES
10
436.546766
20
2750
30
0
11
436.546766
21
4750
31
0
0
LINE
8
PIPES
10
1302.57217
20
3250
30
0
11
1302.57217
21
5250
31
0
0
LINE
8
PIPES
10
436.538106
20
3750.005
30
0
11
436.538106
21
5750.005
31
0
0
LINE
8
PIPES
10
-429.487298
20
4250.005
30
0
11
-429.487298
21
6250.005
31
0
0
LINE
8
PIPES
10
-1295.512702
20
3750.005
30
0
11
-1295.512702
21
5750.005
31
0
0
LINE
8
PIPES
10
-429.487298
20
3250.005
30
0
11
-429.487298
21
5250.005
31
0
0
LINE
8
PIPES
10
-1728.534064
20
2500
30
0
11
-1728.534064
21
4500
31
0
0
LINE
8
PIPES
10
-2594.559468
20
3000
30
0
11
-2594.559468
21
5000
31
0
0
LINE
8
PIPES
10
-1295.512702
20
1749.995
30
0
11
-2161.538106
21
2249.995
31
0
0
LINE
8
PIPES
10
-2161.538106
20
2249.995
30
0
11
-3027.563509
21
2749.995
31
0
0
LINE
8
PIPES
10
-3027.563509
20
2749.995
30
0
11
-3893.597573
21
3250
31
0
0
LINE
8
PIPES
10
-3893.597573
20
3250
30
0
11
-4759.622977
21
3750
31
0
0
LINE
8
PIPES
10
-4759.622977
20
3750
30
0
11
-3893.597573
21
4250
31
0
0
LINE
8
PIPES
10
-3893.597573
20
4250
30
0
11
-3027.57217
21
3750
31
0
0
LINE
8
PIPES
10
-3027.57217
20
3750
30
0
11
-3893.597573
21
3250
31
0
0
LINE
8
PIPES
10
-3027.57217
20
3750
30
0
11
-2161.538106
21
3249.995
31
0
0
LINE
8
PIPES
10
-2161.538106
20
3249.995
30
0
11
-3027.563509
21
2749.995
31
0
0
LINE
8
PIPES
10
-2161.538106
20
3249.995
30
0
11
-1295.512702
21
2749.995
31
0
0
LINE
8
PIPES
10
-1295.512702
20
2749.995
30
0
11
-2161.538106
21
2249.995
31
0
0
LINE
8
PIPES
10
-1295.512702
20
2749.995
30
0
11
-429.487298
21
2249.995
31
0
0
LINE
8
PIPES
10
-429.487298
20
2249.995
30
0
11
-1295.512702
21
1749.995
31
0
0
LINE
8
PIPES
10
-429.487298
20
2249.995
30
0
11
869.550808
21
2999.995
31
0
0
LINE
8
PIPES
10
869.550808
20
2999.995
30
0
11
3.525404
21
3499.995
31
0
0
LINE
8
PIPES
10
3.525404
20
3499.995
30
0
11
-1295.512702
21
2749.995
31
0
0
LINE
8
PIPES
10
3.525404
20
3499.995
30
0
11
1302.57217
21
4250
31
0
0
LINE
8
PIPES
10
1302.57217
20
4250
30
0
11
2168.597573
21
3750
31
0
0
LINE
8
PIPES
10
2168.597573
20
3750
30
0
11
869.550808
21
2999.995
31
0
0
LINE
8
PIPES
10
2168.597573
20
3750
30
0
11
3034.622977
21
4250
31
0
0
LINE
8
PIPES
10
3034.622977
20
4250
30
0
11
2168.597573
21
4750
31
0
0
LINE
8
PIPES
10
2168.597573
20
4750
30
0
11
1302.57217
21
4250
31
0
0
LINE
8
PIPES
10
1302.57217
20
4250
30
0
11
436.546766
21
4750
31
0
0
LINE
8
PIPES
10
436.546766
20
4750
30
0
11
1302.57217
21
5250
31
0
0
LINE
8
PIPES
10
1302.57217
20
5250
30
0
11
436.538106
21
5750.005
31
0
0
LINE
8
PIPES
10
436.538106
20
5750.005
30
0
11
-429.487298
21
6250.005
31
0
0
LINE
8
PIPES
10
-429.487298
20
6250.005
30
0
11
-1295.512702
21
5750.005
31
0
0
LINE
8
PIPES
10
-1295.512702
20
5750.005
30
0
11
-429.487298
21
5250.005
31
0
0
LINE
8
PIPES
10
-429.487298
20
5250.005
30
0
11
-1728.534064
21
4500
31
0
0
LINE
8
PIPES
10
-1728.534064
20
4500
30
0
11
-2594.559468
21
5000
31
0
0
LINE
8
PIPES
10
-2594.559468
20
5000
30
0
11
-1295.512702
21
5750.005
31
0
0
LINE
8
PIPES
10
-429.487298
20
5250.005
30
0
11
436.538106
21
5750.005
31
0
0
LINE
8
PIPES
10
-429.487298
20
5250.005
30
0
11
436.546766
21
4750
31
0
0
LINE
8
PIPES
10
1302.57217
20
5250
30
0
11
2168.597573
21
4750
31
0
0
LINE
8
PIPES
10
-2594.559468
20
5000
30
0
11
-3893.597573
21
4250
31
0
0
LINE
8
PIPES
10
-3027.57217
20
3750
30
0
11
-1728.534064
21
4500
31
0
0
LINE
8
PIPES
10
-1295.512702
20
1749.995
30
0
11
-1295.512702
21
3749.995
31
0
0
LINE
8
PIPES
10
-2161.538106
20
2249.995
30
0
11
-2161.538106
21
4249.995
31
0
0
LINE
8
PIPES
10
-3027.563509
20
2749.995
30
0
11
-3027.563509
21
4749.995
31
0
0
LINE
8
PIPES
10
-3893.597573
20
3250
30
0
11
-3893.597573
21
5250
31
0
0
LINE
8
PIPES
10
-4759.622977
20
3750
30
0
11
-4759.622977
21
5750
31
0
0
LINE
8
PIPES
10
-3893.597573
20
4250
30
0
11
-3893.597573
21
6250
31
0
0
LINE
8
PIPES
10
-3027.57217
20
3750
30
0
11
-3027.57217
21
5750
31
0
0
LINE
8
PIPES
10
-2161.538106
20
3249.995
30
0
11
-2161.538106
21
5249.995
31
0
0
LINE
8
PIPES
10
-1295.512702
20
2749.995
30
0
11
-1295.512702
21
4749.995
31
0
0
LINE
8
PIPES
10
-429.487298
20
2249.995
30
0
11
-429.487298
21
4249.995
31
0
0
LINE
8
PIPES
10
869.550808
20
2999.995
30
0
11
869.550808
21
4999.995
31
0
0
LINE
8
PIPES
10
3.525404
20
3499.995
30
0
11
3.525404
21
5499.995
31
0
0
LINE
8
PIPES
10
1302.57217
20
4250
30
0
11
1302.57217
21
6250
31
0
0
LINE
8
PIPES
10
2168.597573
20
3750
30
0
11
2168.597573
21
5750
31
0
0
LINE
8
PIPES
10
3034.622977
20
4250
30
0
11
3034.622977
21
6250
31
0
0
LINE
8
PIPES
10
2168.597573
20
4750
30
0
11
2168.597573
21
6750
31
0
0
LINE
8
PIPES
10
436.546766
20
4750
30
0
11
436.546766
21
6750
31
0
0
LINE
8
PIPES
10
1302.57217
20
5250
30
0
11
1302.57217
21
7250
31
0
0
LINE
8
PIPES
10
436.538106
20
5750.005
30
0
11
436.538106
21
7750.005
31
0
0
LINE
8
PIPES
10
-429.487298
20
6250.005
30
0
11
-429.487298
21
8250.005
31
0
0
LINE
8
PIPES
10
-1295.512702
20
5750.005
30
0
11
-1295.512702
21
7750.005
31
0
0
LINE
8
PIPES
10
-429.487298
20
5250.005
30
0
11
-429.487298
21
7250.005
31
0
0
LINE
8
PIPES
10
-1728.534064
20
4500
30
0
11
-1728.534064
21
6500
31
0
0
LINE
8
PIPES
10
-2594.559468
20
5000
30
0
11
-2594.559468
21
7000
31
0
0
LINE
8
PIPES
10
-1295.512702
20
3749.995
30
0
11
-2161.538106
21
4249.995
31
0
0
LINE
8
PIPES
10
-2161.538106
20
4249.995
30
0
11
-3027.563509
21
4749.995
31
0
0
LINE
8
PIPES
10
-3027.563509
20
4749.995
30
0
11
-3893.597573
21
5250
31
0
0
LINE
8
PIPES
10
-3893.597573
20
5250
30
0
11
-4759.622977
21
5750
31
0
0
LINE
8
PIPES
10
-4759.622977
20
5750
30
0
11
-3893.597573
21
6250
31
0
0
LINE
8
PIPES
10
-3893.597573
20
6250
30
0
11
-3027.57217
21
5750
31
0
0
LINE
8
PIPES
10
-3027.57217
20
5750
30
0
11
-3893.597573
21
5250
31
0
0
LINE
8
PIPES
10
-3027.57217
20
5750
30
0
11
-2161.538106
21
5249.995
31
0
0
LINE
8
PIPES
10
-2161.538106
20
5249.995
30
0
11
-3027.563509
21
4749.995
31
0
0
LINE
8
PIPES
10
-2161.538106
20
5249.995
30
0
11
-1295.512702
21
4749.995
31
0
0
LINE
8
PIPES
10
-1295.512702
20
4749.995
30
0
11
-2161.538106
21
4249.995
31
0
0
LINE
8
PIPES
10
-1295.512702
20
4749.995
30
0
11
-429.487298
21
4249.995
31
0
0
LINE
8
PIPES
10
-429.487298
20
4249.995
30
0
11
-1295.512702
21
3749.995
31
0
0
LINE
8
PIPES
10
-429.487298
20
4249.995
30
0
11
869.550808
21
4999.995
31
0
0
LINE
8
PIPES
10
869.550808
20
4999.995
30
0
11
3.525404
21
5499.995
31
0
0
LINE
8
PIPES
10
3.525404
20
5499.995
30
0
11
-1295.512702
21
4749.995
31
0
0
LINE
8
PIPES
10
3.525404
20
5499.995
30
0
11
1302.57217
21
6250
31
0
0
LINE
8
PIPES
10
1302.57217
20
6250
30
0
11
2168.597573
21
5750
31
0
0
LINE
8
PIPES
10
2168.597573
20
5750
30
0
11
869.550808
21
4999.995
31
0
0
LINE
8
PIPES
10
2168.597573
20
5750
30
0
11
3034.622977
21
6250
31
0
0
LINE
8
PIPES
10
3034.622977
20
6250
30
0
11
2168.597573
21
6750
31
0
0
LINE
8
PIPES
10
2168.597573
20
6750
30
0
11
1302.57217
21
6250
31
0
0
LINE
8
PIPES
10
1302.57217
20
6250
30
0
11
436.546766
21
6750
31
0
0
LINE
8
PIPES
10
436.546766
20
6750
30
0
11
1302.57217
21
7250
31
0
0
LINE
8
PIPES
10
1302.57217
20
7250
30
0
11
436.538106
21
7750.005
31
0
0
LINE
8
PIPES
10
436.538106
20
7750.005
30
0
11
-429.487298
21
8250.005
31
0
0
LINE
8
PIPES
10
-429.487298
20
8250.005
30
0
11
-1295.512702
21
7750.005
31
0
0
LINE
8
PIPES
10
-1295.512702
20
7750.005
30
0
11
-429.487298
21
7250.005
31
0
0
LINE
8
PIPES
10
-429.487298
20
7250.005
30
0
11
-1728.534064
21
6500
31
0
0
LINE
8
PIPES
10
-1728.534064
20
6500
30
0
11
-2594.559468
21
7000
31
0
0
LINE
8
PIPES
10
-2594.559468
20
7000
30
0
11
-1295.512702
21
7750.005
31
0
0
LINE
8
PIPES
10
-429.487298
20
7250.005
30
0
11
436.538106
21
7750.005
31
0
0
LINE
8
PIPES
10
-429.487298
20
7250.005
30
0
11
436.546766
21
6750
31
0
0
LINE
8
PIPES
10
1302.57217
20
7250
30
0
11
2168.597573
21
6750
31
0
0
LINE
8
PIPES
10
-2594.559468
20
7000
30
0
11
-3893.597573
21
6250
31
0
0
LINE
8
PIPES
10
-3027.57217
20
5750
30
0
11
-1728.534064
21
6500
31
0
0
LINE
8
PIPES
10
-1295.512702
20
3749.995
30
0
11
-1295.512702
21
5749.995
31
0
0
LINE
8
PIPES
10
-2161.538106
20
4249.995
30
0
11
-2161.538106
21
6249.995
31
0
0
LINE
8
PIPES
10
-3027.563509
20
4749.995
30
0
11
-3027.563509
21
6749.995
31
0
0
LINE
8
PIPES
10
-3893.597573
20
5250
30
0
11
-3893.597573
21
7250
31
0
0
LINE
8
PIPES
10
-4759.622977
20
5750
30
0
11
-4759.622977
21
7750
31
0
0
LINE
8
PIPES
10
-3893.597573
20
6250
30
0
11
-3893.597573
21
8250
31
0
0
LINE
8
PIPES
10
-3027.57217
20
5750
30
0
11
-3027.57217
21
7750
31
0
0
LINE
8
PIPES
10
-2161.538106
20
5249.995
30
0
11
-2161.538106
21
7249.995
31
0
0
LINE
8
PIPES
10
-1295.512702
20
4749.995
30
0
11
-1295.512702
21
6749.995
31
0
0
LINE
8
PIPES
10
-429.487298
20
4249.995
30
0
11
-429.487298
21
6249.995
31
0
0
LINE
8
PIPES
10
869.550808
20
4999.995
30
0
11
869.550808
21
6999.995
31
0
0
LINE
8
PIPES
10
3.525404
20
5499.995
30
0
11
3.525404
21
7499.995
31
0
0
LINE
8
PIPES
10
1302.57217
20
6250
30
0
11
1302.57217
21
8250
31
0
0
LINE
8
PIPES
10
2168.597573
20
5750
30
0
11
2168.597573
21
7750
31
0
0
LINE
8
PIPES
10
3034.622977
20
6250
30
0
11
3034.622977
21
8250
31
0
0
LINE
8
PIPES
10
2168.597573
20
6750
30
0
11
2168.597573
21
8750
31
0
0
LINE
8
PIPES
10
436.546766
20
6750
30
0
11
436.546766
21
8750
31
0
0
LINE
8
PIPES
10
1302.57217
20
7250
30
0
11
1302.57217
21
9250
31
0
0
LINE
8
PIPES
10
436.538106
20
7750.005
30
0
11
436.538106
21
9750.005
31
0
0
LINE
8
PIPES
10
-429.487298
20
8250.005
30
0
11
-429.487298
21
10250.005
31
0
0
LINE
8
PIPES
10
-1295.512702
20
7750.005
30
0
11
-1295.512702
21
9750.005
31
0
0
LINE
8
PIPES
10
-429.487298
20
7250.005
30
0
11
-429.487298
21
9250.005
31
0
0
LINE
8
PIPES
10
-1728.534064
20
6500
30
0
11
-1728.534064
21
8500
31
0
0
LINE
8
PIPES
10
-2594.559468
20
7000
30
0
11
-2594.559468
21
9000
31
0
0
LINE
8
PIPES
10
-1295.512702
20
5749.995
30
0
11
-2161.538106
21
6249.995
31
0
0
LINE
8
PIPES
10
-2161.538106
20
6249.995
30
0
11
-3027.563509
21
6749.995
31
0
0
LINE
8
PIPES
10
-3027.563509
20
6749.995
30
0
11
-3893.597573
21
7250
31
0
0
LINE
8
PIPES
10
-3893.597573
20
7250
30
0
11
-4759.622977
21
7750
31
0
0
LINE
8
PIPES
10
-4759.622977
20
7750
30
0
11
-3893.597573
21
8250
31
0
0
LINE
8
PIPES
10
-3893.597573
20
8250
30
0
11
-3027.57217
21
7750
31
0
0
LINE
8
PIPES
10
-3027.57217
20
7750
30
0
11
-3893.597573
21
7250
31
0
0
LINE
8
PIPES
10
-3027.57217
20
7750
30
0
11
-2161.538106
21
7249.995
31
0
0
LINE
8
PIPES
10
-2161.538106
20
7249.995
30
0
11
-3027.563509
21
6749.995
31
0
0
LINE
8
PIPES
10
-1295.512702
20
6749.995
30
0
11
-2161.538106
21
7249.995
31
0
0
LINE
8
PIPES
10
-1295.512702
20
6749.995
30
0
11
-2161.538106
21
6249.995
31
0
0
LINE
8
PIPES
10
-1295.512702
20
6749.995
30
0
11
-429.487298
21
6249.995
31
0
0
LINE
8
PIPES
10
-429.487298
20
6249.995
30
0
11
-1295.512702
21
5749.995
31
0
0
LINE
8
PIPES
10
-429.487298
20
6249.995
30
0
11
869.550808
21
6999.995
31
0
0
LINE
8
PIPES
10
869.550808
20
6999.995
30
0
11
3.525404
21
7499.995
31
0
0
LINE
8
PIPES
10
3.525404
20
7499.995
30
0
11
-1295.512702
21
6749.995
31
0
0
LINE
8
PIPES
10
3.525404
20
7499.995
30
0
11
1302.57217
21
8250
31
0
0
LINE
8
PIPES
10
1302.57217
20
8250
30
0
11
2168.597573
21
7750
31
0
0
LINE
8
PIPES
10
2168.597573
20
7750
30
0
11
869.550808
21
6999.995
31
0
0
LINE
8
PIPES
10
2168.597573
20
7750
30
0
11
3034.622977
21
8250
31
0
0
LINE
8
PIPES
10
2168.597573
20
8750
30
0
11
3034.622977
21
8250
31
0
0
LINE
8
PIPES
10
2168.597573
20
8750
30
0
11
1302.57217
21
8250
31
0
0
LINE
8
PIPES
10
1302.57217
20
8250
30
0
11
436.546766
21
8750
31
0
0
LINE
8
PIPES
10
436.546766
20
8750
30
0
11
1302.57217
21
9250
31
0
0
LINE
8
PIPES
10
1302.57217
20
9250
30
0
11
436.538106
21
9750.005
31
0
0
LINE
8
PIPES
10
436.538106
20
9750.005
30
0
11
-429.487298
21
10250.005
31
0
0
LINE
8
PIPES
10
-429.487298
20
10250.005
30
0
11
-1295.512702
21
9750.005
31
0
0
LINE
8
PIPES
10
-1295.512702
20
9750.005
30
0
11
-429.487298
21
9250.005
31
0
0
LINE
8
PIPES
10
-429.487298
20
9250.005
30
0
11
-1728.534064
21
8500
31
0
0
LINE
8
PIPES
10
-1728.534064
20
8500
30
0
11
-2594.559468
21
9000
31
0
0
LINE
8
PIPES
10
-2594.559468
20
9000
30
0
11
-1295.512702
21
9750.005
31
0
0
LINE
8
PIPES
10
-429.487298
20
9250.005
30
0
11
436.538106
21
9750.005
31
0
0
LINE
8
PIPES
10
-429.487298
20
9250.005
30
0
11
436.546766
21
8750
31
0
0
LINE
8
PIPES
10
1302.57217
20
9250
30
0
11
2168.597573
21
8750
31
0
0
LINE
8
PIPES
10
-2594.559468
20
9000
30
0
11
-3893.597573
21
8250
31
0
0
LINE
8
PIPES
10
-3027.57217
20
7750
30
0
11
-1728.534064
21
8500
31
0
0
LINE
8
PIPES
10
-1295.512702
20
5749.995
30
0
11
-1295.512702
21
6749.995
31
0
0
LINE
8
PIPES
10
-2161.538106
20
6249.995
30
0
11
-2161.538106
21
7249.995
31
0
0
LINE
8
PIPES
10
-3027.563509
20
6749.995
30
0
11
-3027.563509
21
7749.995
31
0
0
LINE
8
PIPES
10
-3893.597573
20
7250
30
0
11
-3893.597573
21
8250
31
0
0
LINE
8
PIPES
10
-4759.622977
20
7750
30
0
11
-4759.622977
21
8750
31
0
0
LINE
8
PIPES
10
-3893.597573
20
8250
30
0
11
-3893.597573
21
9250
31
0
0
LINE
8
PIPES
10
-3027.57217
20
7750
30
0
11
-3027.57217
21
8750
31
0
0
LINE
8
PIPES
10
-2161.538106
20
7249.995
30
0
11
-2161.538106
21
8249.995
31
0
0
LINE
8
PIPES
10
-1295.512702
20
6749.995
30
0
11
-1295.512702
21
7749.995
31
0
0
LINE
8
PIPES
10
-429.487298
20
6249.995
30
0
11
-429.487298
21
7249.995
31
0
0
LINE
8
PIPES
10
869.550808
20
6999.995
30
0
11
869.550808
21
7999.995
31
0
0
LINE
8
PIPES
10
3.525404
20
7499.995
30
0
11
3.525404
21
8499.995
31
0
0
LINE
8
PIPES
10
1302.57217
20
8250
30
0
11
1302.57217
21
9250
31
0
0
LINE
8
PIPES
10
2168.597573
20
7750
30
0
11
2168.597573
21
8750
31
0
0
LINE
8
PIPES
10
3034.622977
20
8250
30
0
11
3034.622977
21
9250
31
0
0
LINE
8
PIPES
10
2168.597573
20
8750
30
0
11
2168.597573
21
9750
31
0
0
LINE
8
PIPES
10
436.546766
20
8750
30
0
11
436.546766
21
9750
31
0
0
LINE
8
PIPES
10
1302.57217
20
9250
30
0
11
1302.57217
21
10250
31
0
0
LINE
8
PIPES
10
436.538106
20
9750.005
30
0
11
436.538106
21
10750.005
31
0
0
LINE
8
PIPES
10
-429.487298
20
10250.005
30
0
11
-429.487298
21
11250.005
31
0
0
LINE
8
PIPES
10
-1295.512702
20
9750.005
30
0
11
-1295.512702
21
10750.005
31
0
0
LINE
8
PIPES
10
-429.487298
20
9250.005
30
0
11
-429.487298
21
10250.005
31
0
0
LINE
8
PIPES
10
-1728.534064
20
8500
30
0
11
-1728.534064
21
9500
31
0
0
LINE
8
PIPES
10
-2594.559468
20
9000
30
0
11
-2594.559468
21
10000
31
0
0
LINE
8
PIPES
10
-3027.563509
20
7749.995
30
0
11
-2161.538106
21
7249.995
31
0
0
LINE
8
PIPES
10
-3027.563509
20
7749.995
30
0
11
-3893.597573
21
8250
31
0
0
LINE
8
PIPES
10
-3893.597573
20
8250
30
0
11
-4759.622977
21
8750
31
0
0
LINE
8
PIPES
10
-4759.622977
20
8750
30
0
11
-3893.597573
21
9250
31
0
0
LINE
8
PIPES
10
-3893.597573
20
9250
30
0
11
-3027.57217
21
8750
31
0
0
LINE
8
PIPES
10
-3027.57217
20
8750
30
0
11
-3893.597573
21
8250
31
0
0
LINE
8
PIPES
10
-3027.57217
20
8750
30
0
11
-2161.538106
21
8249.995
31
0
0
LINE
8
PIPES
10
-2161.538106
20
8249.995
30
0
11
-3027.563509
21
7749.995
31
0
0
LINE
8
PIPES
10
-1295.512702
20
7749.995
30
0
11
-2161.538106
21
8249.995
31
0
0
LINE
8
PIPES
10
-1295.512702
20
7749.995
30
0
11
-2161.538106
21
7249.995
31
0
0
LINE
8
PIPES
10
-1295.512702
20
7749.995
30
0
11
-429.487298
21
7249.995
31
0
0
LINE
8
PIPES
10
-429.487298
20
7249.995
30
0
11
-1295.512702
21
6749.995
31
0
0
LINE
8
PIPES
10
-429.487298
20
7249.995
30
0
11
869.550808
21
7999.995
31
0
0
LINE
8
PIPES
10
869.550808
20
7999.995
30
0
11
3.525404
21
8499.995
31
0
0
LINE
8
PIPES
10
3.525404
20
8499.995
30
0
11
-1295.512702
21
7749.995
31
0
0
LINE
8
PIPES
10
3.525404
20
8499.995
30
0
11
1302.57217
21
9250
31
0
0
LINE
8
PIPES
10
2168.597573
20
8750
30
0
11
869.550808
21
7999.995
31
0
0
LINE
8
PIPES
10
3034.622977
20
9250
30
0
11
2168.597573
21
8750
31
0
0
LINE
8
PIPES
10
3034.622977
20
9250
30
0
11
2168.597573
21
9750
31
0
0
LINE
8
PIPES
10
2168.597573
20
9750
30
0
11
1302.57217
21
9250
31
0
0
LINE
8
PIPES
10
436.546766
20
9750
30
0
11
1302.57217
21
9250
31
0
0
LINE
8
PIPES
10
436.546766
20
9750
30
0
11
1302.57217
21
10250
31
0
0
LINE
8
PIPES
10
1302.57217
20
10250
30
0
11
436.538106
21
10750.005
31
0
0
LINE
8
PIPES
10
436.538106
20
10750.005
30
0
11
-429.487298
21
11250.005
31
0
0
LINE
8
PIPES
10
-429.487298
20
11250.005
30
0
11
-1295.512702
21
10750.005
31
0
0
LINE
8
PIPES
10
-1295.512702
20
10750.005
30
0
11
-429.487298
21
10250.005
31
0
0
LINE
8
PIPES
10
-429.487298
20
10250.005
30
0
11
-1728.534064
21
9500
31
0
0
LINE
8
PIPES
10
-1728.534064
20
9500
30
0
11
-2594.559468
21
10000
31
0
0
LINE
8
PIPES
10
-2594.559468
20
10000
30
0
11
-1295.512702
21
10750.005
31
0
0
LINE
8
PIPES
10
436.538106
20
10750.005
30
0
11
-429.487298
21
10250.005
31
0
0
LINE
8
PIPES
10
-429.487298
20
10250.005
30
0
11
436.546766
21
9750
31
0
0
LINE
8
PIPES
10
1302.57217
20
10250
30
0
11
2168.597573
21
9750
31
0
0
LINE
8
PIPES
10
-2594.559468
20
10000
30
0
11
-3893.597573
21
9250
31
0
0
LINE
8
PIPES
10
-3027.57217
20
8750
30
0
11
-1728.534064
21
9500
31
0
0
LINE
8
PIPES
10
-1295.512702
20
-10250.005
30
0
11
-2161.538106
21
-11450.004
31
0
0
LINE
8
PIPES
10
-2161.538106
20
-9750.005
30
0
11
-3027.563509
21
-10950.004
31
0
0
LINE
8
PIPES
10
-3027.563509
20
-9250.005
30
0
11
-3893.597573
21
-10449.999
31
0
0
LINE
8
PIPES
10
-3893.597573
20
-8750
30
0
11
-4759.622977
21
-9949.999
31
0
0
LINE
8
PIPES
10
-1295.512702
20
-9250.005
30
0
11
-429.487298
21
-11450.004
31
0
0
LINE
8
PIPES
10
-2161.538106
20
-8750.005
30
0
11
-1295.512702
21
-10950.004
31
0
0
LINE
8
PIPES
10
-3027.57217
20
-8250
30
0
11
-2161.538106
21
-10450.004
31
0
0
LINE
8
PIPES
10
-3893.597573
20
-7750
30
0
11
-3027.57217
21
-9949.999
31
0
0
LINE
8
PIPES
10
869.550808
20
-9000.005
30
0
11
3.525404
21
-10200.004
31
0
0
LINE
8
PIPES
10
-1728.534064
20
-7500
30
0
11
-2594.559468
21
-8699.999
31
0
0
LINE
8
PIPES
10
1302.57217
20
-7750
30
0
11
2168.597573
21
-9949.999
31
0
0
LINE
8
PIPES
10
436.546766
20
-7250
30
0
11
1302.57217
21
-9449.999
31
0
0
LINE
8
PIPES
10
-429.487298
20
-6749.995
30
0
11
436.546766
21
-8949.999
31
0
0
LINE
8
PIPES
10
-1295.512702
20
-6249.995
30
0
11
-429.487298
21
-8449.994
31
0
0
LINE
8
PIPES
10
436.538106
20
-6249.995
30
0
11
-429.487298
21
-7449.994
31
0
0
LINE
8
PIPES
10
1302.57217
20
-6750
30
0
11
436.538106
21
-7949.994
31
0
0
LINE
8
PIPES
10
2168.597573
20
-7250
30
0
11
1302.57217
21
-8449.999
31
0
0
LINE
8
PIPES
10
3034.622977
20
-7750
30
0
11
2168.597573
21
-8949.999
31
0
0
LINE
8
PIPES
10
-429.487298
20
-9750.005
30
0
11
-1295.512702
21
-11950.004
31
0
0
LINE
8
PIPES
10
869.550808
20
-9000.005
30
0
11
-429.487298
21
-11450.004
31
0
0
LINE
8
PIPES
10
2168.597573
20
-8250
30
0
11
869.550808
21
-10700.004
31
0
0
LINE
8
PIPES
10
3034.622977
20
-7750
30
0
11
2168.597573
21
-9949.999
31
0
0
LINE
8
PIPES
10
-2161.538106
20
-9750.005
30
0
11
-1295.512702
21
-10950.004
31
0
0
LINE
8
PIPES
10
-1295.512702
20
-9250.005
30
0
11
3.525404
21
-10200.004
31
0
0
LINE
8
PIPES
10
3.525404
20
-8500.005
30
0
11
1302.57217
21
-9449.999
31
0
0
LINE
8
PIPES
10
1302.57217
20
-7750
30
0
11
2168.597573
21
-8949.999
31
0
0
LINE
8
PIPES
10
-2161.538106
20
-8750.005
30
0
11
-3027.563509
21
-10950.004
31
0
0
LINE
8
PIPES
10
1302.57217
20
-6750
30
0
11
436.546766
21
-8949.999
31
0
0
LINE
8
PIPES
10
-3893.597573
20
-8750
30
0
11
-3027.57217
21
-9949.999
31
0
0
LINE
8
PIPES
10
-3027.57217
20
-8250
30
0
11
-1728.534064
21
-9199.999
31
0
0
LINE
8
PIPES
10
-1728.534064
20
-7500
30
0
11
-429.487298
21
-8449.994
31
0
0
LINE
8
PIPES
10
-429.487298
20
-6749.995
30
0
11
436.538106
21
-7949.994
31
0
0
LINE
8
PIPES
10
-3893.597573
20
-7750
30
0
11
-4759.622977
21
-9949.999
31
0
0
LINE
8
PIPES
10
-2594.559468
20
-7000
30
0
11
-3893.597573
21
-9449.999
31
0
0
LINE
8
PIPES
10
-1295.512702
20
-6249.995
30
0
11
-2594.559468
21
-8699.999
31
0
0
LINE
8
PIPES
10
-429.487298
20
-5749.995
30
0
11
-1295.512702
21
-7949.994
31
0
0
LINE
8
PIPES
10
-1295.512702
20
-8250.005
30
0
11
-2161.538106
21
-9750.005
31
0
0
LINE
8
PIPES
10
-2161.538106
20
-7750.005
30
0
11
-3027.563509
21
-9250.005
31
0
0
LINE
8
PIPES
10
-3027.563509
20
-7250.005
30
0
11
-3893.597573
21
-8750
31
0
0
LINE
8
PIPES
10
-3893.597573
20
-6750
30
0
11
-4759.622977
21
-8250
31
0
0
LINE
8
PIPES
10
-1295.512702
20
-7250.005
30
0
11
-429.487298
21
-9750.005
31
0
0
LINE
8
PIPES
10
-2161.538106
20
-6750.005
30
0
11
-1295.512702
21
-9250.005
31
0
0
LINE
8
PIPES
10
-3027.57217
20
-6250
30
0
11
-2161.538106
21
-8750.005
31
0
0
LINE
8
PIPES
10
-3893.597573
20
-5750
30
0
11
-3027.57217
21
-8250
31
0
0
LINE
8
PIPES
10
869.550808
20
-7000.005
30
0
11
3.525404
21
-8500.005
31
0
0
LINE
8
PIPES
10
-1728.534064
20
-5500
30
0
11
-2594.559468
21
-7000
31
0
0
LINE
8
PIPES
10
1302.57217
20
-5750
30
0
11
2168.597573
21
-8250
31
0
0
LINE
8
PIPES
10
436.546766
20
-5250
30
0
11
1302.57217
21
-7750
31
0
0
LINE
8
PIPES
10
-429.487298
20
-4749.995
30
0
11
436.546766
21
-7250
31
0
0
LINE
8
PIPES
10
-1295.512702
20
-4249.995
30
0
11
-429.487298
21
-6749.995
31
0
0
LINE
8
PIPES
10
3034.622977
20
-5750
30
0
11
2168.597573
21
-7250
31
0
0
LINE
8
PIPES
10
2168.597573
20
-5250
30
0
11
1302.57217
21
-6750
31
0
0
LINE
8
PIPES
10
1302.57217
20
-4750
30
0
11
436.538106
21
-6249.995
31
0
0
LINE
8
PIPES
10
436.538106
20
-4249.995
30
0
11
-429.487298
21
-5749.995
31
0
0
LINE
8
PIPES
10
-1295.512702
20
-8250.005
30
0
11
-429.487298
21
-9750.005
31
0
0
LINE
8
PIPES
10
-429.487298
20
-7750.005
30
0
11
869.550808
21
-9000.005
31
0
0
LINE
8
PIPES
10
869.550808
20
-7000.005
30
0
11
2168.597573
21
-8250
31
0
0
LINE
8
PIPES
10
2168.597573
20
-6250
30
0
11
3034.622977
21
-7750
31
0
0
LINE
8
PIPES
10
-1295.512702
20
-7250.005
30
0
11
-2161.538106
21
-9750.005
31
0
0
LINE
8
PIPES
10
3.525404
20
-6500.005
30
0
11
-1295.512702
21
-9250.005
31
0
0
LINE
8
PIPES
10
1302.57217
20
-5750
30
0
11
3.525404
21
-8500.005
31
0
0
LINE
8
PIPES
10
2168.597573
20
-5250
30
0
11
1302.57217
21
-7750
31
0
0
LINE
8
PIPES
10
-3027.563509
20
-7250.005
30
0
11
-2161.538106
21
-8750.005
31
0
0
LINE
8
PIPES
10
436.546766
20
-5250
30
0
11
1302.57217
21
-6750
31
0
0
LINE
8
PIPES
10
-3027.57217
20
-6250
30
0
11
-3893.597573
21
-8750
31
0
0
LINE
8
PIPES
10
-1728.534064
20
-5500
30
0
11
-3027.57217
21
-8250
31
0
0
LINE
8
PIPES
10
-429.487298
20
-4749.995
30
0
11
-1728.534064
21
-7500
31
0
0
LINE
8
PIPES
10
436.538106
20
-4249.995
30
0
11
-429.487298
21
-6749.995
31
0
0
LINE
8
PIPES
10
-4759.622977
20
-6250
30
0
11
-3893.597573
21
-7750
31
0
0
LINE
8
PIPES
10
-3893.597573
20
-5750
30
0
11
-2594.559468
21
-7000
31
0
0
LINE
8
PIPES
10
-2594.559468
20
-5000
30
0
11
-1295.512702
21
-6249.995
31
0
0
LINE
8
PIPES
10
-1295.512702
20
-4249.995
30
0
11
-429.487298
21
-5749.995
31
0
0
LINE
8
PIPES
10
-1295.512702
20
-6249.995
30
0
11
-2161.538106
21
-7750.005
31
0
0
LINE
8
PIPES
10
-2161.538106
20
-5749.995
30
0
11
-3027.563509
21
-7250.005
31
0
0
LINE
8
PIPES
10
-3027.563509
20
-5249.995
30
0
11
-3893.597573
21
-6750
31
0
0
LINE
8
PIPES
10
-3893.597573
20
-4749.99
30
0
11
-4759.622977
21
-6250
31
0
0
LINE
8
PIPES
10
-1295.512702
20
-5249.995
30
0
11
-429.487298
21
-7750.005
31
0
0
LINE
8
PIPES
10
-2161.538106
20
-4749.995
30
0
11
-1295.512702
21
-7250.005
31
0
0
LINE
8
PIPES
10
-3027.57217
20
-4249.99
30
0
11
-2161.538106
21
-6750.005
31
0
0
LINE
8
PIPES
10
-3893.597573
20
-3749.99
30
0
11
-3027.57217
21
-6250
31
0
0
LINE
8
PIPES
10
869.550808
20
-4999.995
30
0
11
3.525404
21
-6500.005
31
0
0
LINE
8
PIPES
10
-1728.534064
20
-3499.99
30
0
11
-2594.559468
21
-5000
31
0
0
LINE
8
PIPES
10
1302.57217
20
-3749.99
30
0
11
2168.597573
21
-6250
31
0
0
LINE
8
PIPES
10
436.546766
20
-3249.99
30
0
11
1302.57217
21
-5750
31
0
0
LINE
8
PIPES
10
-429.487298
20
-2749.985
30
0
11
436.546766
21
-5250
31
0
0
LINE
8
PIPES
10
-1295.512702
20
-2249.985
30
0
11
-429.487298
21
-4749.995
31
0
0
LINE
8
PIPES
10
3034.622977
20
-3749.99
30
0
11
2168.597573
21
-5250
31
0
0
LINE
8
PIPES
10
2168.597573
20
-3249.99
30
0
11
1302.57217
21
-4750
31
0
0
LINE
8
PIPES
10
1302.57217
20
-2749.99
30
0
11
436.538106
21
-4249.995
31
0
0
LINE
8
PIPES
10
436.538106
20
-2249.985
30
0
11
-429.487298
21
-3749.995
31
0
0
LINE
8
PIPES
10
-1295.512702
20
-6249.995
30
0
11
-429.487298
21
-7750.005
31
0
0
LINE
8
PIPES
10
-429.487298
20
-5749.995
30
0
11
869.550808
21
-7000.005
31
0
0
LINE
8
PIPES
10
869.550808
20
-4999.995
30
0
11
2168.597573
21
-6250
31
0
0
LINE
8
PIPES
10
2168.597573
20
-4249.99
30
0
11
3034.622977
21
-5750
31
0
0
LINE
8
PIPES
10
-1295.512702
20
-5249.995
30
0
11
-2161.538106
21
-7750.005
31
0
0
LINE
8
PIPES
10
3.525404
20
-4499.995
30
0
11
-1295.512702
21
-7250.005
31
0
0
LINE
8
PIPES
10
1302.57217
20
-3749.99
30
0
11
3.525404
21
-6500.005
31
0
0
LINE
8
PIPES
10
2168.597573
20
-3249.99
30
0
11
1302.57217
21
-5750
31
0
0
LINE
8
PIPES
10
-3027.563509
20
-5249.995
30
0
11
-2161.538106
21
-6750.005
31
0
0
LINE
8
PIPES
10
436.546766
20
-3249.99
30
0
11
1302.57217
21
-4750
31
0
0
LINE
8
PIPES
10
-3027.57217
20
-4249.99
30
0
11
-3893.597573
21
-6750
31
0
0
LINE
8
PIPES
10
-1728.534064
20
-3499.99
30
0
11
-3027.57217
21
-6250
31
0
0
LINE
8
PIPES
10
-429.487298
20
-2749.985
30
0
11
-1728.534064
21
-5500
31
0
0
LINE
8
PIPES
10
436.538106
20
-2249.985
30
0
11
-429.487298
21
-4749.995
31
0
0
LINE
8
PIPES
10
-4759.622977
20
-4249.99
30
0
11
-3893.597573
21
-5750
31
0
0
LINE
8
PIPES
10
-3893.597573
20
-3749.99
30
0
11
-2594.559468
21
-5000
31
0
0
LINE
8
PIPES
10
-2594.559468
20
-2999.99
30
0
11
-1295.512702
21
-4249.995
31
0
0
LINE
8
PIPES
10
-1295.512702
20
-2249.985
30
0
11
-429.487298
21
-3749.995
31
0
0
LINE
8
PIPES
10
-1295.512702
20
-4249.995
30
0
11
-2161.538106
21
-5749.995
31
0
0
LINE
8
PIPES
10
-2161.538106
20
-3749.995
30
0
11
-3027.563509
21
-5249.995
31
0
0
LINE
8
PIPES
10
-3027.563509
20
-3249.995
30
0
11
-3893.597573
21
-4749.99
31
0
0
LINE
8
PIPES
10
-3893.597573
20
-2749.99
30
0
11
-4759.622977
21
-4249.99
31
0
0
LINE
8
PIPES
10
-1295.512702
20
-3249.995
30
0
11
-429.487298
21
-5749.995
31
0
0
LINE
8
PIPES
10
-2161.538106
20
-2749.995
30
0
11
-1295.512702
21
-5249.995
31
0
0
LINE
8
PIPES
10
-3027.57217
20
-2249.99
30
0
11
-2161.538106
21
-4749.995
31
0
0
LINE
8
PIPES
10
-3893.597573
20
-1749.99
30
0
11
-3027.57217
21
-4249.99
31
0
0
LINE
8
PIPES
10
869.550808
20
-2999.995
30
0
11
3.525404
21
-4499.995
31
0
0
LINE
8
PIPES
10
-1728.534064
20
-1499.99
30
0
11
-2594.559468
21
-2999.99
31
0
0
LINE
8
PIPES
10
1302.57217
20
-1749.99
30
0
11
2168.597573
21
-4249.99
31
0
0
LINE
8
PIPES
10
436.546766
20
-1249.99
30
0
11
1302.57217
21
-3749.99
31
0
0
LINE
8
PIPES
10
-429.487298
20
-749.985
30
0
11
436.546766
21
-3249.99
31
0
0
LINE
8
PIPES
10
-1295.512702
20
-249.985
30
0
11
-429.487298
21
-2749.985
31
0
0
LINE
8
PIPES
10
3034.622977
20
-1749.99
30
0
11
2168.597573
21
-3249.99
31
0
0
LINE
8
PIPES
10
2168.597573
20
-1249.99
30
0
11
1302.57217
21
-2749.99
31
0
0
LINE
8
PIPES
10
1302.57217
20
-749.99
30
0
11
436.538106
21
-2249.985
31
0
0
LINE
8
PIPES
10
436.538106
20
-249.985
30
0
11
-429.487298
21
-1749.985
31
0
0
LINE
8
PIPES
10
-429.487298
20
-3749.995
30
0
11
869.550808
21
-4999.995
31
0
0
LINE
8
PIPES
10
869.550808
20
-2999.995
30
0
11
2168.597573
21
-4249.99
31
0
0
LINE
8
PIPES
10
2168.597573
20
-2249.99
30
0
11
3034.622977
21
-3749.99
31
0
0
LINE
8
PIPES
10
-1295.512702
20
-3249.995
30
0
11
-2161.538106
21
-5749.995
31
0
0
LINE
8
PIPES
10
3.525404
20
-2499.995
30
0
11
-1295.512702
21
-5249.995
31
0
0
LINE
8
PIPES
10
1302.57217
20
-1749.99
30
0
11
3.525404
21
-4499.995
31
0
0
LINE
8
PIPES
10
2168.597573
20
-1249.99
30
0
11
1302.57217
21
-3749.99
31
0
0
LINE
8
PIPES
10
-3027.563509
20
-3249.995
30
0
11
-2161.538106
21
-4749.995
31
0
0
LINE
8
PIPES
10
436.546766
20
-1249.99
30
0
11
1302.57217
21
-2749.99
31
0
0
LINE
8
PIPES
10
-3027.57217
20
-2249.99
30
0
11
-3893.597573
21
-4749.99
31
0
0
LINE
8
PIPES
10
-1728.534064
20
-1499.99
30
0
11
-3027.57217
21
-4249.99
31
0
0
LINE
8
PIPES
10
-429.487298
20
-749.985
30
0
11
-1728.534064
21
-3499.99
31
0
0
LINE
8
PIPES
10
436.538106
20
-249.985
30
0
11
-429.487298
21
-2749.985
31
0
0
LINE
8
PIPES
10
-4759.622977
20
-2249.99
30
0
11
-3893.597573
21
-3749.99
31
0
0
LINE
8
PIPES
10
-3893.597573
20
-1749.99
30
0
11
-2594.559468
21
-2999.99
31
0
0
LINE
8
PIPES
10
-2594.559468
20
-999.99
30
0
11
-1295.512702
21
-2249.985
31
0
0
LINE
8
PIPES
10
-1295.512702
20
-249.985
30
0
11
-429.487298
21
-1749.985
31
0
0
LINE
8
PIPES
10
-1295.512702
20
-2250.005
30
0
11
-2161.538106
21
-3749.995
31
0
0
LINE
8
PIPES
10
-2161.538106
20
-1750.005
30
0
11
-3027.563509
21
-3249.995
31
0
0
LINE
8
PIPES
10
-3027.563509
20
-1250.005
30
0
11
-3893.597573
21
-2749.99
31
0
0
LINE
8
PIPES
10
-3893.597573
20
-750
30
0
11
-4759.622977
21
-2249.99
31
0
0
LINE
8
PIPES
10
-1295.512702
20
-1250.005
30
0
11
-429.487298
21
-3749.995
31
0
0
LINE
8
PIPES
10
-2161.538106
20
-750.005
30
0
11
-1295.512702
21
-3249.995
31
0
0
LINE
8
PIPES
10
-3027.57217
20
-250
30
0
11
-2161.538106
21
-2749.995
31
0
0
LINE
8
PIPES
10
-3893.597573
20
250
30
0
11
-3027.57217
21
-2249.99
31
0
0
LINE
8
PIPES
10
869.550808
20
-1000.005
30
0
11
3.525404
21
-2499.995
31
0
0
LINE
8
PIPES
10
-1728.534064
20
500
30
0
11
-2594.559468
21
-999.99
31
0
0
LINE
8
PIPES
10
1302.57217
20
250
30
0
11
2168.597573
21
-2249.99
31
0
0
LINE
8
PIPES
10
436.546766
20
750
30
0
11
1302.57217
21
-1749.99
31
0
0
LINE
8
PIPES
10
-429.487298
20
1250.005
30
0
11
436.546766
21
-1249.99
31
0
0
LINE
8
PIPES
10
-1295.512702
20
1750.005
30
0
11
-429.487298
21
-749.985
31
0
0
LINE
8
PIPES
10
3034.622977
20
250
30
0
11
2168.597573
21
-1249.99
31
0
0
LINE
8
PIPES
10
2168.597573
20
750
30
0
11
1302.57217
21
-749.99
31
0
0
LINE
8
PIPES
10
1302.57217
20
1250
30
0
11
436.538106
21
-249.985
31
0
0
LINE
8
PIPES
10
436.538106
20
1750.005
30
0
11
-429.487298
21
250.015
31
0
0
LINE
8
PIPES
10
-1295.512702
20
-2250.005
30
0
11
-429.487298
21
-3749.995
31
0
0
LINE
8
PIPES
10
-429.487298
20
-1750.005
30
0
11
869.550808
21
-2999.995
31
0
0
LINE
8
PIPES
10
869.550808
20
-1000.005
30
0
11
2168.597573
21
-2249.99
31
0
0
LINE
8
PIPES
10
2168.597573
20
-250
30
0
11
3034.622977
21
-1749.99
31
0
0
LINE
8
PIPES
10
-1295.512702
20
-1250.005
30
0
11
-2161.538106
21
-3749.995
31
0
0
LINE
8
PIPES
10
3.525404
20
-500.005
30
0
11
-1295.512702
21
-3249.995
31
0
0
LINE
8
PIPES
10
1302.57217
20
250
30
0
11
3.525404
21
-2499.995
31
0
0
LINE
8
PIPES
10
2168.597573
20
750
30
0
11
1302.57217
21
-1749.99
31
0
0
LINE
8
PIPES
10
-3027.563509
20
-1250.005
30
0
11
-2161.538106
21
-2749.995
31
0
0
LINE
8
PIPES
10
436.546766
20
750
30
0
11
1302.57217
21
-749.99
31
0
0
LINE
8
PIPES
10
-3027.57217
20
-250
30
0
11
-3893.597573
21
-2749.99
31
0
0
LINE
8
PIPES
10
-1728.534064
20
500
30
0
11
-3027.57217
21
-2249.99
31
0
0
LINE
8
PIPES
10
-429.487298
20
1250.005
30
0
11
-1728.534064
21
-1499.99
31
0
0
LINE
8
PIPES
10
436.538106
20
1750.005
30
0
11
-429.487298
21
-749.985
31
0
0
LINE
8
PIPES
10
-4759.622977
20
-250
30
0
11
-3893.597573
21
-1749.99
31
0
0
LINE
8
PIPES
10
-3893.597573
20
250
30
0
11
-2594.559468
21
-999.99
31
0
0
LINE
8
PIPES
10
-2594.559468
20
1000
30
0
11
-1295.512702
21
-249.985
31
0
0
LINE
8
PIPES
10
-1295.512702
20
1750.005
30
0
11
-429.487298
21
250.015
31
0
0
LINE
8
PIPES
10
-1295.512702
20
-250.005
30
0
11
-2161.538106
21
-1750.005
31
0
0
LINE
8
PIPES
10
-2161.538106
20
249.995
30
0
11
-3027.563509
21
-1250.005
31
0
0
LINE
8
PIPES
10
-3027.563509
20
749.995
30
0
11
-3893.597573
21
-750
31
0
0
LINE
8
PIPES
10
-3893.597573
20
1250
30
0
11
-4759.622977
21
-250
31
0
0
LINE
8
PIPES
10
-1295.512702
20
749.995
30
0
11
-429.487298
21
-1750.005
31
0
0
LINE
8
PIPES
10
-2161.538106
20
1249.995
30
0
11
-1295.512702
21
-1250.005
31
0
0
LINE
8
PIPES
10
-3027.57217
20
1750
30
0
11
-2161.538106
21
-750.005
31
0
0
LINE
8
PIPES
10
-3893.597573
20
2250
30
0
11
-3027.57217
21
-250
31
0
0
LINE
8
PIPES
10
869.550808
20
999.995
30
0
11
3.525404
21
-500.005
31
0
0
LINE
8
PIPES
10
-1728.534064
20
2500
30
0
11
-2594.559468
21
1000
31
0
0
LINE
8
PIPES
10
1302.57217
20
2250
30
0
11
2168.597573
21
-250
31
0
0
LINE
8
PIPES
10
436.546766
20
2750
30
0
11
1302.57217
21
250
31
0
0
LINE
8
PIPES
10
-429.487298
20
3250.005
30
0
11
436.546766
21
750
31
0
0
LINE
8
PIPES
10
-1295.512702
20
3750.005
30
0
11
-429.487298
21
1250.005
31
0
0
LINE
8
PIPES
10
3034.622977
20
2250
30
0
11
2168.597573
21
750
31
0
0
LINE
8
PIPES
10
2168.597573
20
2750
30
0
11
1302.57217
21
1250
31
0
0
LINE
8
PIPES
10
1302.57217
20
3250
30
0
11
436.538106
21
1750.005
31
0
0
LINE
8
PIPES
10
436.538106
20
3750.005
30
0
11
-429.487298
21
2250.005
31
0
0
LINE
8
PIPES
10
-1295.512702
20
-250.005
30
0
11
-429.487298
21
-1750.005
31
0
0
LINE
8
PIPES
10
-429.487298
20
249.995
30
0
11
869.550808
21
-1000.005
31
0
0
LINE
8
PIPES
10
869.550808
20
999.995
30
0
11
2168.597573
21
-250
31
0
0
LINE
8
PIPES
10
2168.597573
20
1750
30
0
11
3034.622977
21
250
31
0
0
LINE
8
PIPES
10
-1295.512702
20
749.995
30
0
11
-2161.538106
21
-1750.005
31
0
0
LINE
8
PIPES
10
3.525404
20
1499.995
30
0
11
-1295.512702
21
-1250.005
31
0
0
LINE
8
PIPES
10
1302.57217
20
2250
30
0
11
3.525404
21
-500.005
31
0
0
LINE
8
PIPES
10
2168.597573
20
2750
30
0
11
1302.57217
21
250
31
0
0
LINE
8
PIPES
10
-3027.563509
20
749.995
30
0
11
-2161.538106
21
-750.005
31
0
0
LINE
8
PIPES
10
436.546766
20
2750
30
0
11
1302.57217
21
1250
31
0
0
LINE
8
PIPES
10
-3027.57217
20
1750
30
0
11
-3893.597573
21
-750
31
0
0
LINE
8
PIPES
10
-1728.534064
20
2500
30
0
11
-3027.57217
21
-250
31
0
0
LINE
8
PIPES
10
-429.487298
20
3250.005
30
0
11
-1728.534064
21
500
31
0
0
LINE
8
PIPES
10
436.538106
20
3750.005
30
0
11
-429.487298
21
1250.005
31
0
0
LINE
8
PIPES
10
-4759.622977
20
1750
30
0
11
-3893.597573
21
250
31
0
0
LINE
8
PIPES
10
-3893.597573
20
2250
30
0
11
-2594.559468
21
1000
31
0
0
LINE
8
PIPES
10
-2594.559468
20
3000
30
0
11
-1295.512702
21
1750.005
31
0
0
LINE
8
PIPES
10
-1295.512702
20
3750.005
30
0
11
-429.487298
21
2250.005
31
0
0
LINE
8
PIPES
10
-1295.512702
20
1749.995
30
0
11
-2161.538106
21
249.995
31
0
0
LINE
8
PIPES
10
-2161.538106
20
2249.995
30
0
11
-3027.563509
21
749.995
31
0
0
LINE
8
PIPES
10
-3027.563509
20
2749.995
30
0
11
-3893.597573
21
1250
31
0
0
LINE
8
PIPES
10
-3893.597573
20
3250
30
0
11
-4759.622977
21
1750
31
0
0
LINE
8
PIPES
10
-1295.512702
20
2749.995
30
0
11
-429.487298
21
249.995
31
0
0
LINE
8
PIPES
10
-2161.538106
20
3249.995
30
0
11
-1295.512702
21
749.995
31
0
0
LINE
8
PIPES
10
-3027.57217
20
3750
30
0
11
-2161.538106
21
1249.995
31
0
0
LINE
8
PIPES
10
-3893.597573
20
4250
30
0
11
-3027.57217
21
1750
31
0
0
LINE
8
PIPES
10
869.550808
20
2999.995
30
0
11
3.525404
21
1499.995
31
0
0
LINE
8
PIPES
10
-1728.534064
20
4500
30
0
11
-2594.559468
21
3000
31
0
0
LINE
8
PIPES
10
1302.57217
20
4250
30
0
11
2168.597573
21
1750
31
0
0
LINE
8
PIPES
10
436.546766
20
4750
30
0
11
1302.57217
21
2250
31
0
0
LINE
8
PIPES
10
-429.487298
20
5250.005
30
0
11
436.546766
21
2750
31
0
0
LINE
8
PIPES
10
-1295.512702
20
5750.005
30
0
11
-429.487298
21
3250.005
31
0
0
LINE
8
PIPES
10
3034.622977
20
4250
30
0
11
2168.597573
21
2750
31
0
0
LINE
8
PIPES
10
2168.597573
20
4750
30
0
11
1302.57217
21
3250
31
0
0
LINE
8
PIPES
10
1302.57217
20
5250
30
0
11
436.538106
21
3750.005
31
0
0
LINE
8
PIPES
10
436.538106
20
5750.005
30
0
11
-429.487298
21
4250.005
31
0
0
LINE
8
PIPES
10
-1295.512702
20
1749.995
30
0
11
-429.487298
21
249.995
31
0
0
LINE
8
PIPES
10
-429.487298
20
2249.995
30
0
11
869.550808
21
999.995
31
0
0
LINE
8
PIPES
10
869.550808
20
2999.995
30
0
11
2168.597573
21
1750
31
0
0
LINE
8
PIPES
10
2168.597573
20
3750
30
0
11
3034.622977
21
2250
31
0
0
LINE
8
PIPES
10
-1295.512702
20
2749.995
30
0
11
-2161.538106
21
249.995
31
0
0
LINE
8
PIPES
10
3.525404
20
3499.995
30
0
11
-1295.512702
21
749.995
31
0
0
LINE
8
PIPES
10
1302.57217
20
4250
30
0
11
3.525404
21
1499.995
31
0
0
LINE
8
PIPES
10
2168.597573
20
4750
30
0
11
1302.57217
21
2250
31
0
0
LINE
8
PIPES
10
-3027.563509
20
2749.995
30
0
11
-2161.538106
21
1249.995
31
0
0
LINE
8
PIPES
10
436.546766
20
4750
30
0
11
1302.57217
21
3250
31
0
0
LINE
8
PIPES
10
-3027.57217
20
3750
30
0
11
-3893.597573
21
1250
31
0
0
LINE
8
PIPES
10
-1728.534064
20
4500
30
0
11
-3027.57217
21
1750
31
0
0
LINE
8
PIPES
10
-429.487298
20
5250.005
30
0
11
-1728.534064
21
2500
31
0
0
LINE
8
PIPES
10
436.538106
20
5750.005
30
0
11
-429.487298
21
3250.005
31
0
0
LINE
8
PIPES
10
-4759.622977
20
3750
30
0
11
-3893.597573
21
2250
31
0
0
LINE
8
PIPES
10
-3893.597573
20
4250
30
0
11
-2594.559468
21
3000
31
0
0
LINE
8
PIPES
10
-2594.559468
20
5000
30
0
11
-1295.512702
21
3750.005
31
0
0
LINE
8
PIPES
10
-1295.512702
20
5750.005
30
0
11
-429.487298
21
4250.005
31
0
0
LINE
8
PIPES
10
-1295.512702
20
3749.995
30
0
11
-2161.538106
21
2249.995
31
0
0
LINE
8
PIPES
10
-2161.538106
20
4249.995
30
0
11
-3027.563509
21
2749.995
31
0
0
LINE
8
PIPES
10
-3027.563509
20
4749.995
30
0
11
-3893.597573
21
3250
31
0
0
LINE
8
PIPES
10
-3893.597573
20
5250
30
0
11
-4759.622977
21
3750
31
0
0
LINE
8
PIPES
10
-1295.512702
20
4749.995
30
0
11
-429.487298
21
2249.995
31
0
0
LINE
8
PIPES
10
-2161.538106
20
5249.995
30
0
11
-1295.512702
21
2749.995
31
0
0
LINE
8
PIPES
10
-3027.57217
20
5750
30
0
11
-2161.538106
21
3249.995
31
0
0
LINE
8
PIPES
10
-3893.597573
20
6250
30
0
11
-3027.57217
21
3750
31
0
0
LINE
8
PIPES
10
869.550808
20
4999.995
30
0
11
3.525404
21
3499.995
31
0
0
LINE
8
PIPES
10
-1728.534064
20
6500
30
0
11
-2594.559468
21
5000
31
0
0
LINE
8
PIPES
10
1302.57217
20
6250
30
0
11
2168.597573
21
3750
31
0
0
LINE
8
PIPES
10
436.546766
20
6750
30
0
11
1302.57217
21
4250
31
0
0
LINE
8
PIPES
10
-429.487298
20
7250.005
30
0
11
436.546766
21
4750
31
0
0
LINE
8
PIPES
10
-1295.512702
20
7750.005
30
0
11
-429.487298
21
5250.005
31
0
0
LINE
8
PIPES
10
3034.622977
20
6250
30
0
11
2168.597573
21
4750
31
0
0
LINE
8
PIPES
10
2168.597573
20
6750
30
0
11
1302.57217
21
5250
31
0
0
LINE
8
PIPES
10
1302.57217
20
7250
30
0
11
436.538106
21
5750.005
31
0
0
LINE
8
PIPES
10
436.538106
20
7750.005
30
0
11
-429.487298
21
6250.005
31
0
0
LINE
8
PIPES
10
-1295.512702
20
3749.995
30
0
11
-429.487298
21
2249.995
31
0
0
LINE
8
PIPES
10
-429.487298
20
4249.995
30
0
11
869.550808
21
2999.995
31
0
0
LINE
8
PIPES
10
869.550808
20
4999.995
30
0
11
2168.597573
21
3750
31
0
0
LINE
8
PIPES
10
2168.597573
20
5750
30
0
11
3034.622977
21
4250
31
0
0
LINE
8
PIPES
10
-1295.512702
20
4749.995
30
0
11
-2161.538106
21
2249.995
31
0
0
LINE
8
PIPES
10
3.525404
20
5499.995
30
0
11
-1295.512702
21
2749.995
31
0
0
LINE
8
PIPES
10
1302.57217
20
6250
30
0
11
3.525404
21
3499.995
31
0
0
LINE
8
PIPES
10
2168.597573
20
6750
30
0
11
1302.57217
21
4250
31
0
0
LINE
8
PIPES
10
-3027.563509
20
4749.995
30
0
11
-2161.538106
21
3249.995
31
0
0
LINE
8
PIPES
10
436.546766
20
6750
30
0
11
1302.57217
21
5250
31
0
0
LINE
8
PIPES
10
-3027.57217
20
5750
30
0
11
-3893.597573
21
3250
31
0
0
LINE
8
PIPES
10
-1728.534064
20
6500
30
0
11
-3027.57217
21
3750
31
0
0
LINE
8
PIPES
10
-429.487298
20
7250.005
30
0
11
-1728.534064
21
4500
31
0
0
LINE
8
PIPES
10
436.538106
20
7750.005
30
0
11
-429.487298
21
5250.005
31
0
0
LINE
8
PIPES
10
-4759.622977
20
5750
30
0
11
-3893.597573
21
4250
31
0
0
LINE
8
PIPES
10
-3893.597573
20
6250
30
0
11
-2594.559468
21
5000
31
0
0
LINE
8
PIPES
10
-2594.559468
20
7000
30
0
11
-1295.512702
21
5750.005
31
0
0
LINE
8
PIPES
10
-1295.512702
20
7750.005
30
0
11
-429.487298
21
6250.005
31
0
0
LINE
8
PIPES
10
-1295.512702
20
5749.995
30
0
11
-2161.538106
21
4249.995
31
0
0
LINE
8
PIPES
10
-2161.538106
20
6249.995
30
0
11
-3027.563509
21
4749.995
31
0
0
LINE
8
PIPES
10
-3027.563509
20
6749.995
30
0
11
-3893.597573
21
5250
31
0
0
LINE
8
PIPES
10
-3893.597573
20
7250
30
0
11
-4759.622977
21
5750
31
0
0
LINE
8
PIPES
10
-1295.512702
20
6749.995
30
0
11
-429.487298
21
4249.995
31
0
0
LINE
8
PIPES
10
-2161.538106
20
7249.995
30
0
11
-1295.512702
21
4749.995
31
0
0
LINE
8
PIPES
10
-3027.57217
20
7750
30
0
11
-2161.538106
21
5249.995
31
0
0
LINE
8
PIPES
10
-3893.597573
20
8250
30
0
11
-3027.57217
21
5750
31
0
0
LINE
8
PIPES
10
869.550808
20
6999.995
30
0
11
3.525404
21
5499.995
31
0
0
LINE
8
PIPES
10
-1728.534064
20
8500
30
0
11
-2594.559468
21
7000
31
0
0
LINE
8
PIPES
10
1302.57217
20
8250
30
0
11
2168.597573
21
5750
31
0
0
LINE
8
PIPES
10
436.546766
20
8750
30
0
11
1302.57217
21
6250
31
0
0
LINE
8
PIPES
10
-429.487298
20
9250.005
30
0
11
436.546766
21
6750
31
0
0
LINE
8
PIPES
10
-1295.512702
20
9750.005
30
0
11
-429.487298
21
7250.005
31
0
0
LINE
8
PIPES
10
3034.622977
20
8250
30
0
11
2168.597573
21
6750
31
0
0
LINE
8
PIPES
10
2168.597573
20
8750
30
0
11
1302.57217
21
7250
31
0
0
LINE
8
PIPES
10
1302.57217
20
9250
30
0
11
436.538106
21
7750.005
31
0
0
LINE
8
PIPES
10
436.538106
20
9750.005
30
0
11
-429.487298
21
8250.005
31
0
0
LINE
8
PIPES
10
-1295.512702
20
5749.995
30
0
11
-429.487298
21
4249.995
31
0
0
LINE
8
PIPES
10
-429.487298
20
6249.995
30
0
11
869.550808
21
4999.995
31
0
0
LINE
8
PIPES
10
869.550808
20
6999.995
30
0
11
2168.597573
21
5750
31
0
0
LINE
8
PIPES
10
2168.597573
20
7750
30
0
11
3034.622977
21
6250
31
0
0
LINE
8
PIPES
10
-1295.512702
20
6749.995
30
0
11
-2161.538106
21
4249.995
31
0
0
LINE
8
PIPES
10
3.525404
20
7499.995
30
0
11
-1295.512702
21
4749.995
31
0
0
LINE
8
PIPES
10
1302.57217
20
8250
30
0
11
3.525404
21
5499.995
31
0
0
LINE
8
PIPES
10
2168.597573
20
8750
30
0
11
1302.57217
21
6250
31
0
0
LINE
8
PIPES
10
-3027.563509
20
6749.995
30
0
11
-2161.538106
21
5249.995
31
0
0
LINE
8
PIPES
10
436.546766
20
8750
30
0
11
1302.57217
21
7250
31
0
0
LINE
8
PIPES
10
-3027.57217
20
7750
30
0
11
-3893.597573
21
5250
31
0
0
LINE
8
PIPES
10
-1728.534064
20
8500
30
0
11
-3027.57217
21
5750
31
0
0
LINE
8
PIPES
10
-429.487298
20
9250.005
30
0
11
-1728.534064
21
6500
31
0
0
LINE
8
PIPES
10
436.538106
20
9750.005
30
0
11
-429.487298
21
7250.005
31
0
0
LINE
8
PIPES
10
-4759.622977
20
7750
30
0
11
-3893.597573
21
6250
31
0
0
LINE
8
PIPES
10
-3893.597573
20
8250
30
0
11
-2594.559468
21
7000
31
0
0
LINE
8
PIPES
10
-2594.559468
20
9000
30
0
11
-1295.512702
21
7750.005
31
0
0
LINE
8
PIPES
10
-1295.512702
20
9750.005
30
0
11
-429.487298
21
8250.005
31
0
0
LINE
8
PIPES
10
-3027.563509
20
7749.995
30
0
11
-3893.597573
21
7250
31
0
0
LINE
8
PIPES
10
-3893.597573
20
8250
30
0
11
-4759.622977
21
7750
31
0
0
LINE
8
PIPES
10
-1295.512702
20
7749.995
30
0
11
-429.487298
21
6249.995
31
0
0
LINE
8
PIPES
10
-2161.538106
20
8249.995
30
0
11
-1295.512702
21
6749.995
31
0
0
LINE
8
PIPES
10
-3027.57217
20
8750
30
0
11
-2161.538106
21
7249.995
31
0
0
LINE
8
PIPES
10
-3893.597573
20
9250
30
0
11
-3027.57217
21
7750
31
0
0
LINE
8
PIPES
10
869.550808
20
7999.995
30
0
11
3.525404
21
7499.995
31
0
0
LINE
8
PIPES
10
-1728.534064
20
9500
30
0
11
-2594.559468
21
9000
31
0
0
LINE
8
PIPES
10
1302.57217
20
9250
30
0
11
2168.597573
21
7750
31
0
0
LINE
8
PIPES
10
436.546766
20
9750
30
0
11
1302.57217
21
8250
31
0
0
LINE
8
PIPES
10
-429.487298
20
10250.005
30
0
11
436.546766
21
8750
31
0
0
LINE
8
PIPES
10
-1295.512702
20
10750.005
30
0
11
-429.487298
21
9250.005
31
0
0
LINE
8
PIPES
10
1302.57217
20
10250
30
0
11
436.538106
21
9750.005
31
0
0
LINE
8
PIPES
10
-429.487298
20
7249.995
30
0
11
869.550808
21
6999.995
31
0
0
LINE
8
PIPES
10
869.550808
20
7999.995
30
0
11
2168.597573
21
7750
31
0
0
LINE
8
PIPES
10
-1295.512702
20
7749.995
30
0
11
-2161.538106
21
6249.995
31
0
0
LINE
8
PIPES
10
3.525404
20
8499.995
30
0
11
-1295.512702
21
6749.995
31
0
0
LINE
8
PIPES
10
1302.57217
20
9250
30
0
11
3.525404
21
7499.995
31
0
0
LINE
8
PIPES
10
2168.597573
20
9750
30
0
11
1302.57217
21
8250
31
0
0
LINE
8
PIPES
10
-3027.57217
20
8750
30
0
11
-3893.597573
21
7250
31
0
0
LINE
8
PIPES
10
-1728.534064
20
9500
30
0
11
-3027.57217
21
7750
31
0
0
LINE
8
PIPES
10
-429.487298
20
10250.005
30
0
11
-1728.534064
21
8500
31
0
0
LINE
8
PIPES
10
436.538106
20
10750.005
30
0
11
-429.487298
21
9250.005
31
0
0
LINE
8
PIPES
10
-4759.622977
20
8750
30
0
11
-3893.597573
21
8250
31
0
0
LINE
8
PIPES
10
-3893.597573
20
9250
30
0
11
-2594.559468
21
9000
31
0
0
LINE
8
PIPES
10
-2594.559468
20
10000
30
0
11
-1295.512702
21
9750.005
31
0
0
LINE
8
PIPES
10
-1295.512702
20
6749.995
30
0
11
-1295.512702
21
7249.995
31
0
0
LINE
8
PIPES
10
-2161.538106
20
7249.995
30
0
11
-2161.538106
21
7749.995
31
0
0
LINE
8
PIPES
10
-3027.563509
20
7749.995
30
0
11
-3027.563509
21
8249.995
31
0
0
LINE
8
PIPES
10
-3893.597573
20
8250
30
0
11
-3893.597573
21
8750
31
0
0
LINE
8
PIPES
10
-4759.622977
20
8750
30
0
11
-4759.622977
21
9250
31
0
0
LINE
8
PIPES
10
-3893.597573
20
9250
30
0
11
-3893.597573
21
9750
31
0
0
LINE
8
PIPES
10
-3027.57217
20
8750
30
0
11
-3027.57217
21
9250
31
0
0
LINE
8
PIPES
10
-2161.538106
20
8249.995
30
0
11
-2161.538106
21
8749.995
31
0
0
LINE
8
PIPES
10
-1295.512702
20
7749.995
30
0
11
-1295.512702
21
8249.995
31
0
0
LINE
8
PIPES
10
-429.487298
20
7249.995
30
0
11
-429.487298
21
7749.995
31
0
0
LINE
8
PIPES
10
869.550808
20
7999.995
30
0
11
869.550808
21
8499.995
31
0
0
LINE
8
PIPES
10
3.525404
20
8499.995
30
0
11
3.525404
21
8999.995
31
0
0
LINE
8
PIPES
10
1302.57217
20
9250
30
0
11
1302.57217
21
9750
31
0
0
LINE
8
PIPES
10
2168.597573
20
8750
30
0
11
2168.597573
21
9250
31
0
0
LINE
8
PIPES
10
3034.622977
20
9250
30
0
11
3034.622977
21
9750
31
0
0
LINE
8
PIPES
10
2168.597573
20
9750
30
0
11
2168.597573
21
10250
31
0
0
LINE
8
PIPES
10
436.546766
20
9750
30
0
11
436.546766
21
10250
31
0
0
LINE
8
PIPES
10
1302.57217
20
10250
30
0
11
1302.57217
21
10750
31
0
0
LINE
8
PIPES
10
436.538106
20
10750.005
30
0
11
436.538106
21
11250.005
31
0
0
LINE
8
PIPES
10
-429.487298
20
11250.005
30
0
11
-429.487298
21
11750.005
31
0
0
LINE
8
PIPES
10
-1295.512702
20
10750.005
30
0
11
-1295.512702
21
11250.005
31
0
0
LINE
8
PIPES
10
-429.487298
20
10250.005
30
0
11
-429.487298
21
10750.005
31
0
0
LINE
8
PIPES
10
-1728.534064
20
9500
30
0
11
-1728.534064
21
10000
31
0
0
LINE
8
PIPES
10
-2594.559468
20
10000
30
0
11
-2594.559468
21
10500
31
0
0
LINE
8
PIPES
10
-1295.512702
20
7249.995
30
0
11
-2161.538106
21
7749.995
31
0
0
LINE
8
PIPES
10
-2161.538106
20
7749.995
30
0
11
-3027.563509
21
8249.995
31
0
0
LINE
8
PIPES
10
-3027.563509
20
8249.995
30
0
11
-3893.597573
21
8750
31
0
0
LINE
8
PIPES
10
-3893.597573
20
8750
30
0
11
-4759.622977
21
9250
31
0
0
LINE
8
PIPES
10
-4759.622977
20
9250
30
0
11
-3893.597573
21
9750
31
0
0
LINE
8
PIPES
10
-3027.57217
20
9250
30
0
11
-2161.538106
21
8749.995
31
0
0
LINE
8
PIPES
10
-2161.538106
20
8749.995
30
0
11
-1295.512702
21
8249.995
31
0
0
LINE
8
PIPES
10
-429.487298
20
7749.995
30
0
11
-1295.512702
21
7249.995
31
0
0
LINE
8
PIPES
10
-429.487298
20
7749.995
30
0
11
869.550808
21
8499.995
31
0
0
LINE
8
PIPES
10
3.525404
20
8999.995
30
0
11
-1295.512702
21
8249.995
31
0
0
LINE
8
PIPES
10
3.525404
20
8999.995
30
0
11
1302.57217
21
9750
31
0
0
LINE
8
PIPES
10
2168.597573
20
9250
30
0
11
869.550808
21
8499.995
31
0
0
LINE
8
PIPES
10
2168.597573
20
9250
30
0
11
3034.622977
21
9750
31
0
0
LINE
8
PIPES
10
3034.622977
20
9750
30
0
11
2168.597573
21
10250
31
0
0
LINE
8
PIPES
10
1302.57217
20
9750
30
0
11
436.546766
21
10250
31
0
0
LINE
8
PIPES
10
1302.57217
20
10750
30
0
11
436.538106
21
11250.005
31
0
0
LINE
8
PIPES
10
436.538106
20
11250.005
30
0
11
-429.487298
21
11750.005
31
0
0
LINE
8
PIPES
10
-429.487298
20
11750.005
30
0
11
-1295.512702
21
11250.005
31
0
0
LINE
8
PIPES
10
-429.487298
20
10750.005
30
0
11
-1728.534064
21
10000
31
0
0
LINE
8
PIPES
10
-2594.559468
20
10500
30
0
11
-1295.512702
21
11250.005
31
0
0
LINE
8
PIPES
10
-429.487298
20
10750.005
30
0
11
436.546766
21
10250
31
0
0
LINE
8
PIPES
10
1302.57217
20
10750
30
0
11
2168.597573
21
10250
31
0
0
LINE
8
PIPES
10
-2594.559468
20
10500
30
0
11
-3893.597573
21
9750
31
0
0
LINE
8
PIPES
10
-3027.57217
20
9250
30
0
11
-1728.534064
21
10000
31
0
0
LINE
8
PIPES
10
-1295.512702
20
7249.995
30
0
11
-1295.512702
21
7749.995
31
0
0
LINE
8
PIPES
10
-2161.538106
20
7749.995
30
0
11
-2161.538106
21
8249.995
31
0
0
LINE
8
PIPES
10
-3027.563509
20
8249.995
30
0
11
-3027.563509
21
8749.995
31
0
0
LINE
8
PIPES
10
-3893.597573
20
8750
30
0
11
-3893.597573
21
9250
31
0
0
LINE
8
PIPES
10
-4759.622977
20
9250
30
0
11
-4759.622977
21
9750
31
0
0
LINE
8
PIPES
10
-3893.597573
20
9750
30
0
11
-3893.597573
21
10250
31
0
0
LINE
8
PIPES
10
-3027.57217
20
9250
30
0
11
-3027.57217
21
9750
31
0
0
LINE
8
PIPES
10
-2161.538106
20
8749.995
30
0
11
-2161.538106
21
9249.995
31
0
0
LINE
8
PIPES
10
-1295.512702
20
8249.995
30
0
11
-1295.512702
21
8749.995
31
0
0
LINE
8
PIPES
10
-429.487298
20
7749.995
30
0
11
-429.487298
21
8249.995
31
0
0
LINE
8
PIPES
10
869.550808
20
8499.995
30
0
11
869.550808
21
8999.995
31
0
0
LINE
8
PIPES
10
3.525404
20
8999.995
30
0
11
3.525404
21
9499.995
31
0
0
LINE
8
PIPES
10
1302.57217
20
9750
30
0
11
1302.57217
21
10250
31
0
0
LINE
8
PIPES
10
2168.597573
20
9250
30
0
11
2168.597573
21
9750
31
0
0
LINE
8
PIPES
10
3034.622977
20
9750
30
0
11
3034.622977
21
10250
31
0
0
LINE
8
PIPES
10
2168.597573
20
10250
30
0
11
2168.597573
21
10750
31
0
0
LINE
8
PIPES
10
436.546766
20
10250
30
0
11
436.546766
21
10750
31
0
0
LINE
8
PIPES
10
1302.57217
20
10750
30
0
11
1302.57217
21
11250
31
0
0
LINE
8
PIPES
10
436.538106
20
11250.005
30
0
11
436.538106
21
11750.005
31
0
0
LINE
8
PIPES
10
-429.487298
20
11750.005
30
0
11
-429.487298
21
12250.005
31
0
0
LINE
8
PIPES
10
-1295.512702
20
11250.005
30
0
11
-1295.512702
21
11750.005
31
0
0
LINE
8
PIPES
10
-429.487298
20
10750.005
30
0
11
-429.487298
21
11250.005
31
0
0
LINE
8
PIPES
10
-1728.534064
20
10000
30
0
11
-1728.534064
21
10500
31
0
0
LINE
8
PIPES
10
-2594.559468
20
10500
30
0
11
-2594.559468
21
11000
31
0
0
LINE
8
PIPES
10
-2161.538106
20
8249.995
30
0
11
-3027.563509
21
8749.995
31
0
0
LINE
8
PIPES
10
-3027.563509
20
8749.995
30
0
11
-3893.597573
21
9250
31
0
0
LINE
8
PIPES
10
-3893.597573
20
9250
30
0
11
-4759.622977
21
9750
31
0
0
LINE
8
PIPES
10
-4759.622977
20
9750
30
0
11
-3893.597573
21
10250
31
0
0
LINE
8
PIPES
10
-3027.57217
20
9750
30
0
11
-2161.538106
21
9249.995
31
0
0
LINE
8
PIPES
10
-2161.538106
20
9249.995
30
0
11
-1295.512702
21
8749.995
31
0
0
LINE
8
PIPES
10
-429.487298
20
8249.995
30
0
11
-1295.512702
21
7749.995
31
0
0
LINE
8
PIPES
10
-429.487298
20
8249.995
30
0
11
869.550808
21
8999.995
31
0
0
LINE
8
PIPES
10
3.525404
20
9499.995
30
0
11
-1295.512702
21
8749.995
31
0
0
LINE
8
PIPES
10
3.525404
20
9499.995
30
0
11
1302.57217
21
10250
31
0
0
LINE
8
PIPES
10
2168.597573
20
9750
30
0
11
869.550808
21
8999.995
31
0
0
LINE
8
PIPES
10
2168.597573
20
9750
30
0
11
3034.622977
21
10250
31
0
0
LINE
8
PIPES
10
3034.622977
20
10250
30
0
11
2168.597573
21
10750
31
0
0
LINE
8
PIPES
10
1302.57217
20
10250
30
0
11
436.546766
21
10750
31
0
0
LINE
8
PIPES
10
1302.57217
20
11250
30
0
11
436.538106
21
11750.005
31
0
0
LINE
8
PIPES
10
436.538106
20
11750.005
30
0
11
-429.487298
21
12250.005
31
0
0
LINE
8
PIPES
10
-429.487298
20
12250.005
30
0
11
-1295.512702
21
11750.005
31
0
0
LINE
8
PIPES
10
-429.487298
20
11250.005
30
0
11
-1728.534064
21
10500
31
0
0
LINE
8
PIPES
10
-2594.559468
20
11000
30
0
11
-1295.512702
21
11750.005
31
0
0
LINE
8
PIPES
10
-429.487298
20
11250.005
30
0
11
436.546766
21
10750
31
0
0
LINE
8
PIPES
10
1302.57217
20
11250
30
0
11
2168.597573
21
10750
31
0
0
LINE
8
PIPES
10
-2594.559468
20
11000
30
0
11
-3893.597573
21
10250
31
0
0
LINE
8
PIPES
10
-3027.57217
20
9750
30
0
11
-1728.534064
21
10500
31
0
0
LINE
8
PIPES
10
-4759.622977
20
-2249.99
30
0
11
-3893.597573
21
-1749.99
31
0
0
CIRCLE
8
DIMENSION
62
6
10
-3027.57217
20
-4249.99
30
0
40
85
0
CIRCLE
8
DIMENSION
62
6
10
-1295.512702
20
-5249.995
30
0
40
85
0
CIRCLE
8
DIMENSION
62
6
10
1302.57217
20
-3749.99
30
0
40
85
0
CIRCLE
8
DIMENSION
62
6
10
-429.487298
20
-2749.985
30
0
40
85
0
CIRCLE
8
DIMENSION
62
6
10
-3027.57217
20
1750
30
0
40
85
0
CIRCLE
8
DIMENSION
62
6
10
-1295.512702
20
749.995
30
0
40
85
0
CIRCLE
8
DIMENSION
62
6
10
1302.57217
20
2250
30
0
40
85
0
CIRCLE
8
DIMENSION
62
6
10
-429.487298
20
3250.005
30
0
40
85
0
LINE
8
DIMENSION
62
6
10
-3027.57217
20
-4249.99
30
0
11
3584.622977
21
-4249.99
31
0
0
LINE
8
DIMENSION
62
6
10
3584.622977
20
-4249.99
30
0
11
3584.622977
21
3430.005
31
0
0
LINE
8
DIMENSION
62
6
10
-1295.512702
20
-5249.995
30
0
11
3584.622977
21
-5249.995
31
0
0
LINE
8
DIMENSION
62
6
10
3584.622977
20
-5249.995
30
0
11
3584.622977
21
3430.005
31
0
0
LINE
8
DIMENSION
62
6
10
1302.57217
20
-3749.99
30
0
11
3584.622977
21
-3749.99
31
0
0
LINE
8
DIMENSION
62
6
10
3584.622977
20
-3749.99
30
0
11
3584.622977
21
3430.005
31
0
0
LINE
8
DIMENSION
62
6
10
-429.487298
20
-2749.985
30
0
11
3584.622977
21
-2749.985
31
0
0
LINE
8
DIMENSION
62
6
10
3584.622977
20
-2749.985
30
0
11
3584.622977
21
3430.005
31
0
0
LINE
8
DIMENSION
62
6
10
-3027.57217
20
1750
30
0
11
3584.622977
21
1750
31
0
0
LINE
8
DIMENSION
62
6
10
3584.622977
20
1750
30
0
11
3584.622977
21
3430.005
31
0
0
LINE
8
DIMENSION
62
6
10
-1295.512702
20
749.995
30
0
11
3584.622977
21
749.995
31
0
0
LINE
8
DIMENSION
62
6
10
3584.622977
20
749.995
30
0
11
3584.622977
21
3430.005
31
0
0
LINE
8
DIMENSION
62
6
10
1302.57217
20
2250
30
0
11
3584.622977
21
2250
31
0
0
LINE
8
DIMENSION
62
6
10
3584.622977
20
2250
30
0
11
3584.622977
21
3430.005
31
0
0
LINE
8
DIMENSION
62
6
10
-429.487298
20
3250.005
30
0
11
3584.622977
21
3250.005
31
0
0
LINE
8
DIMENSION
62
6
10
3584.622977
20
3250.005
30
0
11
3584.622977
21
3430.005
31
0
0
LINE
8
DIMENSION
62
6
10
3584.622977
20
3430.005
30
0
11
3854.622977
21
3430.005
31
0
0
TEXT
8
DIMENSION
62
6
10
3934.622977
20
3430.005
30
0
40
75
1
Tie points to
50
0
7
STANDARD
0
TEXT
8
DIMENSION
62
6
10
3934.622977
20
3300.005
30
0
40
75
1
existing structures
50
0
7
STANDARD
0
TEXT
8
DIMENSION
62
6
10
3934.622977
20
3170.005
30
0
40
75
1
at indicated points.
50
0
7
STANDARD
0
ENDSEC
0
EOF
